<svg xmlns="http://www.w3.org/2000/svg" viewBox="0 0 700 252.24"><defs><style>.cls-1{fill:#0f0502;}.cls-2{fill:#140b06;}.cls-3{fill:#110805;}.cls-4{fill:#130602;}.cls-5{fill:#100604;}.cls-6{fill:#0c0401;}.cls-7{fill:#0d0502;}.cls-8{fill:#140904;}</style></defs><title>03handwriting</title><g id="will"><path class="cls-1" d="M902.45,420.07c6.61-.24,13.24-.29,19.83-.79,4.66-.35,8.57,1.8,12.75,3.06,2.52.76,3.12,3.29,3,5.42-.2,2.71.81,3.36,3.18,3.27,15-.54,30,.27,44.86-2.51,2.34-.44,3.05-1.11,3.3-3.51a10.75,10.75,0,0,1,9.91-9.59c4.48-.3,6,1.79,4.35,5.95-.47,1.19-1.83,2-1.55,3.47,1.44,1.52,4.89-1,5,2,.09,2.29-3,2.29-4.75,3.27-4.36,2.46-9.25,2-13.93,2.86-18.1,3.2-36.32,2.78-54.54,2.5-1.93,0-4.87,1.31-5.79-1.61-.84-2.7,2.14-3.47,3.5-5.05.57-.89.53-2-.49-2.13-7-.79-14-2.63-21.08-1.5-.56,1.79.62,2.27,1.19,3,2.67,3.51,1.75,6-2.65,6.76s-9.06.86-13.58,1.16c-13.76.92-27.52,1.77-41.34.46-5.23-.49-10.44,1.38-15.7,1.89-8.09.78-16.1.95-24-1.38-2.59-2-5.29-2-8.24-.75a83,83,0,0,1-34.23,7.11c-5.16-.07-10.36-.35-14.55-4a4.49,4.49,0,0,0-4.84-1.06,6.45,6.45,0,0,1-5.15-.07c-8,1.72-16,3.46-24,5.16a6.79,6.79,0,0,1-2.58.28c-2.34-.47-6.14.43-6.44-2.34-.28-2.49,3.48-1.5,5.35-2.27a27.77,27.77,0,0,0,14.6-13.94c.88-1.81,1.35-4.2-.16-5.84s-3.87-.78-5.84-.27a19.34,19.34,0,0,0-7.6,4.29c-1.52,1.29-3.35,2.85-4.88.92s.61-3.54,2-4.64c3.89-3,8.16-5.2,13.25-5.32,1.9,0,3.8-.3,5.7-.46,4.11,3.1,5,9.42,1.8,14.52-1.68,2.69-3.73,5.15-5.91,8.12,3.86.45,7-1.15,10.23-2,4-1,7.85-2.38,11.76-3.62a11.29,11.29,0,0,0,4.85-2.77c7.14-7.15,16.16-9.68,25.94-10.24,1.8-.1,3.41.38,3.92,2.11.56,1.93-1.12,2.92-2.53,3.63-5.09,2.57-10.75,3.84-15.71,6.73-1.84.46-3.72.81-5.52,1.4-1.19.38-2.92.62-2.9,2.25,0,1.89,1.93,2.2,3.24,2.37,6.87.89,13.74,1.08,20.58-.46,11.06-2.48,21.4-7.19,32.26-10.3a14.36,14.36,0,0,1,2.55-.69c1.27-.14,2.81-.51,3.4,1.14s-.58,2.36-1.74,3.14c-1.35.91-4.36.77-3.72,2.86.57,1.88,3.34,1.11,5.2,1.17a111,111,0,0,0,29.77-2.7c5.46-1.3,10,2.26,15.38,1.68,10.06-1.09,20.21-1.28,30.31-1.91,1.95-.13,3.77-.31,1.5-3S899.27,422,902.45,420.07Z" transform="translate(-708 -413.88)"/><path class="cls-2" d="M747.17,572.8c5.73-5.4,12.84-4.13,19.61-3.73,3.49.21,4.26,3.51,1.7,6.06a58.22,58.22,0,0,1-4.56,3.62,42.81,42.81,0,0,0,14.42-.13c7.33-1.27,14.84-2.16,21.72-5.4,1.21-.56,2.74-1.13,3.81-.23,4.77,4,10.39,2.15,15.65,2.37,5.73.24,11.47-.06,17.21-.05,1.89,0,4.25-.25,3.15,3-.3.89,0,1.54.93,1.53,8-.05,16.06,1.72,23.77-1.75,5.4-5.17,11-1.43,16.35-.09,7.87,2,15.79.92,23.68,1.14,1.12,0,1.43-.82,1.46-1.79a29.1,29.1,0,0,1,2.48-1.81c.87-.51,1.86-1.06,2.82-.15s.29,1.83.09,2.84c-.81,4.09-2.83,5.71-7.34,5.54-8.06-.32-16.32,1-24.13-1.2-7-2-13.24-.37-20,.86-8.45,1.54-17.27.92-25.93.47-.93,0-2.44-.64-2.63-1.29-1.3-4.44-4.81-3.24-7.85-3.36-7.76-.31-15.54.25-23.3-.89-4.08-.59-8,1.56-12,2.43a109.64,109.64,0,0,1-31.08,2c-5.69-.39-10.91,2-16.48,2.5a189.54,189.54,0,0,1-22,.26,4.81,4.81,0,0,1-2.15-.43c-1.81-1-5.28-.77-4.91-3.49.47-3.51,3.58-1.21,5.43-1.18,8.21.17,16.42.8,24.64,0,3.05-.31,5.93-.65,4.79-5C746.38,574.59,747,573.65,747.17,572.8Z" transform="translate(-708 -413.88)"/><path class="cls-3" d="M822.73,506.31c-9.53,1.75-19.08,3.08-28.82,2.64-6.61-.31-13.17-.81-19.51-2.86a7.81,7.81,0,0,0-5.59-.21c-14.45,5.86-29.34,7.81-44.77,5a20.55,20.55,0,0,0-3.51,0c-.82-.3-1.63-.6-2.45-.88s-1.7-.72-1.73-1.74c0-1.28.95-1.78,2-2a15.47,15.47,0,0,1,6.07-.13c12.39,2.2,24.7,2.41,36.68-2.27,1.84-.74,4.51-.43,2.95-4.16-.92-2.17,2-2.72,3.56-2.67,2.32.07,5.09.52,6.52,2.24,3.79,4.59,9,4.7,14,4.82,12.13.28,24.35,1.08,36.15-3a6.56,6.56,0,0,1,3.89.25c1.69,2.58,4.4,2.37,7,2.58,1.17.61,2.57,1.29,2.18,2.81s-2,1.86-3.48,1.95a9.36,9.36,0,0,1-6.21-1.29c-1.4-1-3-1.87-4.83-1Z" transform="translate(-708 -413.88)"/><path class="cls-4" d="M1223.93,430.45c3.89.57,6.5,0,7.38-4.85a7.36,7.36,0,0,1,7.7-6.36c4.36.06,8.72-.14,13.07-.23l.07,0c3.9,4.36-.52,6.27-2.65,8.91.68,1.42,2,.84,3,.82,10.74-.22,21.4-.93,31.46-5.23,2.3-1,4.43-1.29,6.51.66s5.12,1.93,7.92,1.92c7.19,0,14.39-.11,21.58-.1,1.09,0,2.57-.56,3.16.79s-1.59,1.52-1.65,3.45c7.4,0,14.82,1.23,22.25-.6a14.23,14.23,0,0,0,8-3.27c1.92-1.72,4.15-1.45,6.58-.48,9.68,3.85,19.86,3.23,30,3.08,2.14,0,2.24-2.1,3.53-2.92,1.12-.72,2.28-1.75,3.62-1,1.63.87.5,2.22.3,3.47-.67,4.24-3.11,5.27-7.18,5.06-5.4-.27-10.84.18-16.27.32-3,1.78-6.23.85-9,0-6.08-1.82-11.85-.75-17.7.63-5.46.07-10.94-.62-16.35.66a5,5,0,0,1-1.49.08c-3.93-1.33-8.35.13-12.14-2.08a4.11,4.11,0,0,1-1-1c-1.78-1.92-4.18-2-6.5-2.07-7.93-.09-15.9-.55-23.78.11-7,.58-13.79,2.52-20.76,3.41a83.52,83.52,0,0,1-23.1.21c-3-.45-5.75.95-8.62,1.46l-1.54.07c-9.26,1-18.51,2.13-27.84.9-2.41-.32-4.62-.75-5.88-3.11-.29-.87-.57-1.73-.85-2.6a2.21,2.21,0,0,1,1.28-.8,58.42,58.42,0,0,1,9.15.66c2.38,1.85,4.86-.17,7.28.19a27.5,27.5,0,0,0,10.35-.09Z" transform="translate(-708 -413.88)"/><path class="cls-5" d="M980.14,575.44c4.1.25,7.68-1.63,11.43-2.78,1.76-.54,2.45-1.45,1.34-3.22-.67-1.07.1-1.94.62-2.82l-.11,0c4.41-.6,8.06.27,11.52,3.64,2.86,2.8,7.32,2.92,11.25,3,10,.28,20,.59,29.91-1,.58-.1,1.3,0,1.72-.29,5.8-4.09,10.76.51,16.06,1.49a2,2,0,0,1,1.89,2.1c-.12,1.24-1.31,1.52-2.32,1.59-1.44.1-3.29.54-4.3-.14-4.63-3.13-9.28-1.52-14-.62-13.89,2.65-27.73,2.65-41.44-1a11.53,11.53,0,0,0-7.69.33c-3.51,1.43-7.14,2.56-10.72,3.82h0c-11.11,3.83-22.29,4.81-33.61.86-1.54-.54-3.2,0-4.77-.3-2.22-.4-3.62-1.39-2-3.85,3-1.23,6-1,9.31-.59C962.83,576.81,971.55,578,980.14,575.44Z" transform="translate(-708 -413.88)"/><path d="M746.93,646c5.28-2.7,10.93-1.84,16.43-1.39,3,.25,3.68,3.25,1.9,5.7-1,1.43-3.11,1.7-3.87,3.82,4.41,1.45,8.77.45,13-.07,7.41-.93,14.85-2,21.77-5.14,1.32-.61,3-1.37,4.21-.33,4,3.55,8.89,2.43,13.49,2.53,6.17.13,12.35,0,18.52,0,2,0,3.93-.14,3.92,2.8,0,2,1.67,1.71,3,1.72,6.31.06,12.64.47,18.9-.79.57-.12,1.36,0,1.69-.36,5.87-6.26,12.18-2.16,18.29-.71,7.14,1.69,14.34.81,21.52,1,2.32.06,3-2.1,4.56-3.13,1-.65,2-1.48,3.22-.72s.52,2,.37,3.15c-.53,3.87-2.42,5.46-6.52,5.29-7.91-.34-16,.9-23.72-1.08-7.51-1.92-14.43-.59-21.82.73-8.13,1.45-16.67.93-25,.4-1.24-.08-2.58-.39-3-1.52-1.29-3.5-4.11-3.05-6.89-3.1-7.93-.12-15.86.35-23.77-.79-4-.58-7.85,1.17-11.62,2.11-9.7,2.42-19.5,2.68-29.34,2.37a56.68,56.68,0,0,0-12.6,1.43,101.1,101.1,0,0,1-29.37,1c-2.38-.25-4.91-.73-6.1-3.37.87-1.64,2.24-1.24,3.77-1.21q12.75.27,25.48.15c3.47,0,6.84-.45,6.33-5.52C743.35,648.71,746.14,647.9,746.93,646Z" transform="translate(-708 -413.88)"/><path class="cls-6" d="M1310.33,498.59c.83,1.55,3.79,1.89,2.78,4.43-.88,2.22-3.12,1.86-5,2-14.32,1.18-28.73,3.81-43,2.15-12.56-1.47-24.58,2.16-36.9,1.45-5.28-.3-11,.95-15-4.17-.61-.78-1.65-.55-2.48-.27-4.55,1.57-9.09,3.17-13.62,4.76a8.66,8.66,0,0,0-5.13,2c-9.65,3.38-19.47,2.65-29.31,1.2a4.67,4.67,0,0,1-3.09-1.56c-2.9-3.87-6.38-3.2-10.06-1.49-3.73,0-7,1.72-10.57,2.57-6.54,1.53-12.92,3.87-19.79,3.69a5.6,5.6,0,0,1-4.6-2c-.81-1-.5-1.87.69-2.39h0A25.62,25.62,0,0,0,1132,500.28c2.07-2.91,5.33-6.33,2.58-9.53s-6.56-.37-9.64,1.2a38.25,38.25,0,0,0-5,3.5c-1.21.88-2.43,1.2-3.57.08s-.31-2.17.36-3.14c3.27-4.7,15.54-8.79,20.9-7,1.91.64,2.58,2.11,3,4,1.32,5.95-1.2,10.56-4.83,14.86-.83,1-2.1,1.64-2.48,3.41,3.19.68,5.91-1,8.7-1.68,4.71-1.12,9.31-2.7,13.93-4.17a7.11,7.11,0,0,0,3.06-1.62c5.17-5.63,11.86-8.41,19-10.42,2.61-.23,5.23-.45,7.84-.71,1.72-.16,3.41,0,4,1.88s-.93,3-2.39,3.67c-4.86,2.35-10.17,3.67-14.84,6.48-.81,2.69-3.91,2.25-5.92,4.45,5.42,1.61,10.56,1,15.65.62s9.93-2.34,14.85-3.69c1.83-.5,3.65-1.14,5.55-.31,5.84-1.91,11.67-3.84,17.52-5.72,1.81-.58,4.1-1.47,5,.91.81,2.18-1.43,2.82-3,3.53-1.17.51-2.92.87-2.42,2.56.38,1.24,2,.9,3.15,1,11.22.68,22.29-.66,33.28-2.72,4.9-.92,9.06,2.19,14,1.64,10-1.1,20.2-1.22,30.31-1.77,2.68-.14,3.37-.78,1.42-3.34-2.64-3.48-1.46-6.49,2.87-6.86,10.17-.87,20.39-2.37,30.43,1.58,3,1.18,3,3.6,4.2,5.65-1.06,2.82.12,3.69,2.88,3.6,14.64-.43,29.35.45,43.88-2.5,2.62-.53,4-.82,4.23-4.05.3-4.79,4.58-8.57,9.38-9.11,1.73-.19,3.71-.45,4.83,1.31s.53,3.37-.28,5c-.49,1-1.66,1.73-1.4,3,1.47,1.53,5-.95,5,1.91.06,2.46-3,2.87-5.1,3.4-16.49,4.28-33.32,5.61-50.31,5.43-6.75-.07-13.51-.12-20.27-.22-1.26,0-2.82.35-3.34-1.36-.46-1.5.63-2.4,1.58-3.37s3.15-1.83,2.49-3.74-2.88-1.94-4.54-2.08c-5.85-.48-11.72-.77-17.58-1.05-1.24-.06-3.13-.77-3.53.76C1306.9,497.48,1308.83,498.06,1310.33,498.59Z" transform="translate(-708 -413.88)"/><path class="cls-7" d="M1042.78,656.47c-4.18,1.34-8.4,2.53-12.51,4-10.07,3.69-20.38,3.86-30.82,2.47-2.36-.32-5-.88-6-3.14-1.27-2.84-3-2.07-5-1.46a240.62,240.62,0,0,1-29.84,7.35c-.57.11-1.21.51-1.69.35-2.38-.79-6.44.76-6.89-2.33s3.54-1.69,5.42-2.6c6.36-3.06,11.46-7.41,14.15-14.15,1.12-1.91,1.51-4-.12-5.62s-3.64-.77-5.46-.24a21.22,21.22,0,0,0-8.37,4.77c-1.3,1.19-2.88,2.06-4.26.65-1.57-1.61,0-3,1.15-4.06,5.41-5,12-6.66,19.15-6.18,2.72.19,3.54,2.25,4,4.56,1.14,5.78-1.41,10.26-5,14.42-.92,1.06-2.4,1.77-2.52,4.32,10-3.76,21-3.94,29.25-11.36,6.91-6.2,15.39-7.56,24.13-8.2,1.61-.12,3,.51,3.33,2.23s-1.05,2.79-2.36,3.34c-5.95,2.51-12,4.86-18,7.25a12.26,12.26,0,0,0-1.26.36c-1.8,1-5.47.58-5.06,3.09s3.8,2.52,6.31,2.77c12.36,1.21,23.86-2.19,35.25-6.34,5.24-1.92,10.53-3.68,15.85-5.38,1.62-.51,3.85-1.21,4.59,1s-1.38,2.91-3,3.58c-1.07.43-2.75.67-2.55,2,.29,1.89,2.27,1.49,3.61,1.53,10.76.3,21.53-.1,32-2.84,4.87-1.28,8.56,1.84,13.16,1.76,10.45-.18,20.8-1.76,31.24-1.79,2.19,0,4.81-.18,1.91-3.65-2.23-2.66-1.14-6,2.34-6.36,11-1.3,22.19-2.85,32.85,2.16a10.23,10.23,0,0,1,1.74,1.32c.85,5.92,4.82,6.28,9.81,6.24,12.9-.11,25.78-.07,38.56-2.26,1.71-.29,2.94-.66,2.84-2.51-.16-2.71,1.38-4.72,2.54-6.9,2.66-1.83,5.26-3.71,8.79-3.46,4.31.29,5.26,1.27,4.26,5.49-.55,2.32-1.16,3.76,2.15,4.69,2.78.78,1,3.19-.48,3.77-4,1.55-7.74,4.18-12.3,4.16-6.75,0-13.34,1.09-20,2.13a113.79,113.79,0,0,1-20.14.88c-7-.17-14.11.1-21.17-.31-5.53-.32-6.32-1.31-3.85-6.17a1.81,1.81,0,0,0-.13-2.36c-5.48-2.13-11.13-1.84-16.47-1.54-.58.36-.77.63-.64.89,2.92,5.78,2.27,7.74-4.1,8.59a255.73,255.73,0,0,1-26.63,2.15c-8.89.24-17.86,1.07-26.73-.74-1.79-.37-3.42.66-5.13,1-7.79,1.59-15.72,1.56-23.6,2-4.41.22-8.85-.47-12.55-3.24C1046.75,657.2,1044.57,657.46,1042.78,656.47Z" transform="translate(-708 -413.88)"/><path class="cls-8" d="M1182.43,576.36c3.33,0,6.28-1.38,9.26-2.59a7.31,7.31,0,0,1,7.38.58c4.15,2.54,9.15,1,13.78,1.17,5.73.15,11.47-.13,17.2-.22,2,0,3.72.06,2.72,2.9-.72,2,1,1.76,2,1.79,6.76.17,13.52.52,20.23-.72.43-.08,1,0,1.28-.23,6-6.35,12.46-2,18.79-1,7.23,1.13,14.51.1,21.76.4,2.24.1,2.44-2.26,3.72-3.33s2.42-1.86,3.92-.87a2.23,2.23,0,0,1,.52,3.7l0-.05c-.62,1.33-.39,2.87-1.13,4.2-1.09,2-2.34,3.22-4.88,2.57a15.59,15.59,0,0,0-10.29.83,4,4,0,0,1-3,.31c-5.09-2.1-10.56-1.86-15.84-2.75a7.7,7.7,0,0,1-3.58-1.53c-1.89-1.81-3.85-.77-5.72,0-10.91,4.26-22.25,2.38-33.45,2.33-.91,0-2.45-.65-2.62-1.29-1.15-4.34-4.49-3.21-7.42-3.26-7.45-.13-14.9-.32-22.34-.48-4.14-2-7.84.75-11.46,1.62a94.08,94.08,0,0,1-28.39,2.55c-7.67-.52-14.8,1.77-22.2,2.43a133.29,133.29,0,0,1-21.52-.06,10.15,10.15,0,0,1-3.39-.94c-1.37-.62-3.58-.87-3.08-3s2.43-1.31,4-1.2c9.37.66,18.75,1.15,28.11-.15,1.53-.21,3.08-.1,2.9-2.74-.3-4.23,2.58-7.41,7-7.92,3.62-.43,7.3-.4,11-.48,2.11,0,4.29.22,5.12,2.56.89,2.53-1.39,3.62-2.8,5a26.88,26.88,0,0,1-3.87,2.46C1165.8,579.82,1174.15,578.47,1182.43,576.36Z" transform="translate(-708 -413.88)"/><path d="M976.59,502c-5.1-2.64-9.9.31-14.52,1.37-9.9,2.27-19.81,2.52-29.81,2.28a44.89,44.89,0,0,0-10.91,1c-11.48,2.51-23,2.29-34.61.63-.86-1-3.24-1.07-2.5-3.05.63-1.69,2.51-1.23,3.92-1.2,8.8.2,17.6,1.23,26.42.08,2.81-.37,5.23-.17,5.06-4.59-.15-3.73,3.41-5.58,6.89-6.32,3.9-.83,7.89-.64,11.87-.54,1.93,0,3.54.57,4.31,2.41.87,2.08-.72,3.27-2,4.46-1,1-2.19,1.8-3.8,3.1,8.56,1.33,16.23-.38,23.91-1.87a56.14,56.14,0,0,0,7.65-2.08c4-1.4,7.84-3.18,12,.07,1.17.91,3.41.62,5.15.6,7.94-.05,15.88-.22,23.81-.32,1.62,0,3.85-.11,3.3,2.25-.66,2.8.88,2.53,2.52,2.54,6.46,0,12.94.58,19.34-.79.71-.16,1.7,0,2.11-.45,5.81-6,11.89-2.14,17.92-.63,7.24,1.82,14.62.85,21.94,1,1.85,0,2.25-1.66,3.29-2.6,1.21-1.07,2.53-2.24,4.3-1.23,2.07,1.18.31,2.59,0,3.8a38.09,38.09,0,0,1-1.8,4.48c-1.22,1.9-3.19,1.88-5.1,1.89-10.4.09-20.84.59-31-2.25-2.59-.72-5.29.54-7.82-.61-9.74,1.77-19.55,1.51-29.38,1.22-2.46-.07-4.78-.31-5.8-3-.71-1.87-2.26-1.57-3.69-1.58Q988.06,502,976.59,502Z" transform="translate(-708 -413.88)"/><path d="M1162,428c-2.93-1.69-5.92-1.05-9-.41-15.33,3.23-30.62,3.32-45.8-.9a8.81,8.81,0,0,0-5.58.52c-10.73,3.9-21.76,6.16-33.21,5.7-5-.19-9.92-1-14.87-1.59-1.53-.19-3.69-.2-3.4-2.47.27-2.08,2.41-2,3.94-1.91,5,.36,9.92,1.08,14.89,1.37,9,.52,17.9-.31,26.42-3.64,1.75-.69,3.31-1.15,2.37-3.69-.71-1.92.85-2.6,2.43-2.8,2.73-.34,5.72,0,7.45,1.95,3.66,4.11,8.44,4.66,13.24,4.88a162.21,162.21,0,0,0,28.64-.81,2.41,2.41,0,0,0,.87-.12c7-4.23,13.19,0,19.57,2,.86,2.16-.46,2.83-2.2,3A8.21,8.21,0,0,1,1162,428Z" transform="translate(-708 -413.88)"/></g></svg>