<?xml version="1.0" encoding="utf-8"?>
<!-- Generator: Adobe Illustrator 21.0.0, SVG Export Plug-In . SVG Version: 6.00 Build 0)  -->
<svg version="1.1" id="Layer_1" xmlns="http://www.w3.org/2000/svg" xmlns:xlink="http://www.w3.org/1999/xlink" x="0px" y="0px"
	 width="2000px" height="2000px" viewBox="0 0 2000 2000" style="enable-background:new 0 0 2000 2000;" xml:space="preserve">
<style type="text/css">
	.st0{fill:#FFFFFF;}
	.st1{fill:#E7E7FF;}
	.st2{fill:#DBDBFF;}
	.st3{fill:#D5D5FF;}
	.st4{fill:#434377;}
	.st5{fill:#FF507E;}
	.st6{fill:url(#SVGID_1_);}
	.st7{fill:url(#SVGID_2_);}
	.st8{fill:url(#SVGID_3_);}
	.st9{fill:url(#SVGID_4_);}
	.st10{fill:url(#SVGID_5_);}
	.st11{fill:url(#SVGID_6_);}
	.st12{fill:#333382;}
	.st13{fill:url(#SVGID_7_);}
	.st14{fill:url(#SVGID_8_);}
	.st15{fill:url(#SVGID_9_);}
	.st16{fill:url(#SVGID_10_);}
	.st17{fill:url(#SVGID_11_);}
	.st18{fill:url(#SVGID_12_);}
	.st19{fill:url(#SVGID_13_);}
	.st20{fill:url(#SVGID_14_);}
	.st21{fill:url(#SVGID_15_);}
	.st22{fill:url(#SVGID_16_);}
	.st23{fill:#5171F8;}
	.st24{fill:#FADA3A;}
	.st25{fill:url(#SVGID_17_);}
	.st26{fill:#3D3B9E;}
	.st27{fill:url(#SVGID_18_);}
	.st28{fill:url(#SVGID_19_);}
	.st29{fill:url(#SVGID_20_);}
	.st30{fill:#28F4D9;}
	.st31{fill:#B78095;}
	.st32{fill:url(#SVGID_21_);}
	.st33{fill:url(#SVGID_22_);}
	.st34{fill:url(#SVGID_23_);}
	.st35{fill:url(#SVGID_24_);}
	.st36{fill:url(#SVGID_25_);}
	.st37{fill:url(#SVGID_26_);}
	.st38{fill:url(#SVGID_27_);}
</style>
<rect class="st0" width="1997" height="1997"/>
<g>
	<g>
		<path class="st1" d="M1720,1142.6c-3.2,17-5.7,34.1-7.4,51.3c3.1,31.2,4.6,62.8-4.3,93c-1.7,24.8-5.7,49.4-15.9,72.1
			c-15.7,34.9-44.3,60.4-78,77.6c-34.3,17.5-72.3,27-109.8,34.5c-42.4,8.5-85.3,13.9-128.4,16.4c-18,1.1-36,1.6-54.1,1.6
			c-81.3,0-162.4-10.7-240.9-31.6c-57.7-10-114.5-25.5-169.4-46.3c-3.5-1.3-5.5-3.7-6.3-6.3c-26.1-5.2-52.5-7.3-79.1-7.3
			c-10.7,0-21.4,0.3-32.1,1c-46.7,2.7-92.9,10.2-139.1,16.7c32.5-2.3,65-4.4,97.6-4.4c3,0,6,0,9,0.1c38.4,0.5,76.5,4.4,113.4,14.5
			c0.6,2.8,2.5,5.3,6,6.9c124.7,57.7,261.8,87.5,399,87.5c37.8,0,75.7-2.3,113.3-6.8c43.5-5.3,86.7-13.4,129.1-24.7
			c37.6-10,75.5-22,109.1-41.9c33.1-19.6,60.4-47.2,74.1-83.6c15.2-40.2,11.6-84.6,10.1-126.7
			C1714.7,1204.6,1716.2,1173.5,1720,1142.6 M185,794.3c1.1,20.8,1.4,41.7,1,62.7c-1.8,92.9-13.5,186.1,0.1,278.6
			c10.9,74.7,38.8,150.6,94.4,203.8c31,29.7,68.2,49.4,108.1,62c-23.8-9.6-46.3-22.4-66.6-39.3c-57.6-47.9-89.9-119.7-105.6-191.6
			c-19.5-89-14.5-180.3-19.1-270.7C195.4,864.3,191.4,829.1,185,794.3 M255.5,311.3c-15.1,9.6-28.9,21.1-41,34.8
			c-25.5,28.7-41.4,63.1-50.4,99.7c6.7-15.5,15.2-30.4,25.8-44.2c12.5-16.3,27.4-29.9,43.9-41.2
			C239.3,343.3,246.5,326.7,255.5,311.3"/>
		<path class="st1" d="M1571.6,288.4c26.3,12.4,51.2,27.9,74.1,45.9c49.3,29.2,92.5,69.2,124.4,116.8
			c46.8,69.8,62.8,153.5,57.4,236.6c-6.2,94.3-36,184.3-63.7,274c-13.9,45-27.2,90.3-36.5,136.5c-2.9,14.7-5.4,29.5-7.2,44.3
			c2.7-14.2,5.9-28.3,9.6-42.3c11.9-44.9,27.8-88.6,44.2-132c32.7-86.5,67.6-173.1,79.4-265.5c10.4-81.3-0.2-164.6-41.9-236.1
			c-35.5-60.8-88.7-110.8-150.7-143.9C1632.1,307.5,1602.3,296.1,1571.6,288.4 M451.6,207.7c-59.7,0-120.3,17.8-163.1,60.5
			c-13.1,13-24,27.5-33,43c40.9-26,90.8-37.4,139.6-37.4c10.4,0,20.7,0.5,30.8,1.5c91.9,9.1,174.8,52.6,258,89.2
			c41.1,18.1,83.1,34.7,127,44.7c27,6.1,54.4,9.1,81.9,9.1c4.4,0,8.8-0.1,13.1-0.2c41.9-8.6,82.4-23.1,122-39.9
			c-12.1,1.5-24.3,2.5-36.5,3c-5.4,0.2-10.9,0.3-16.3,0.3c-35.2,0-70.1-4.7-104.1-14.7c-42.5-12.5-82.8-31.4-122.1-51.7
			c-79.6-41.1-158.3-89-248.2-103.5C484.7,209.1,468.2,207.7,451.6,207.7"/>
		<path class="st2" d="M1708.3,1286.8c0,0.1-0.1,0.3-0.1,0.4c-10.9,36.3-35.5,65-66.3,86.2c-31.3,21.6-67.3,35.9-103.1,48.2
			c-40.4,13.9-81.8,24.7-123.7,32.8c-57.6,11.2-116.2,16.7-174.7,16.7c-53.3,0-106.6-4.6-159.1-13.7
			c78.5,20.8,159.6,31.6,240.9,31.6c18,0,36.1-0.5,54.1-1.6c43.1-2.5,86-7.9,128.4-16.4c37.5-7.6,75.5-17,109.8-34.5
			c33.7-17.2,62.3-42.7,78-77.6C1702.7,1336.2,1706.6,1311.6,1708.3,1286.8 M1645.7,334.3c23.3,18.4,44.4,39.5,62.6,62.9
			c50.2,64.6,71.5,144.9,71.9,225.9c0.5,92.1-22.4,181.6-43.1,270.6c-10.4,44.7-20.3,89.6-26.1,135.1c-5.7,44.9-6.4,89.6-1.6,134.6
			c1.1,10,2.3,20.2,3.3,30.4c1.7-17.2,4.2-34.3,7.4-51.3c1.8-14.8,4.3-29.6,7.2-44.3c9.2-46.2,22.6-91.5,36.5-136.5
			c27.7-89.7,57.5-179.7,63.7-274c5.4-83-10.6-166.8-57.4-236.6C1738.1,403.5,1695,363.6,1645.7,334.3 M395.1,273.9
			c-48.8,0-98.7,11.4-139.6,37.4c-9,15.5-16.2,32-21.8,49.1c42.8-29.1,96.5-42.1,148.1-42.1c2.9,0,5.7,0,8.6,0.1
			c89.9,2.5,173.4,39.1,256.7,69.1c41.1,14.8,83.1,28,126.4,34.7c18,2.8,36.1,4.1,54.1,4.1c22,0,43.9-2,65.7-5.8
			c4.2-0.7,8.4-1.5,12.5-2.4c-4.4,0.1-8.8,0.2-13.1,0.2c-27.5,0-54.9-2.9-81.9-9.1c-43.9-10-85.9-26.5-127-44.7
			c-83.2-36.7-166.1-80.2-258-89.2C415.8,274.4,405.4,273.9,395.1,273.9"/>
		<path class="st1" d="M388.5,1401.5c44.6,18,93.8,24.4,142.3,24.4c3,0,6.1,0,9.1-0.1c38.7-0.6,77-5.3,115.3-10.6
			c-3.9,0.3-7.8,0.6-11.6,0.8c-36.4,2.6-72.7,5.3-109.1,5.3c-11.8,0-23.5-0.3-35.3-0.9C461.8,1418.4,424.1,1412.7,388.5,1401.5
			 M164,445.7c-23.7,55.1-24.8,119.3-15.8,178.1c7.2,46.6,19.7,92,30.1,137.9c2.5,10.8,4.7,21.6,6.7,32.5
			c-1.4-26.8-4.1-53.4-8.3-80.1c-7.4-47.7-16.9-95.2-20.9-143.4C152.5,529.6,154,486.3,164,445.7 M1407.2,251.4
			c-26.2,0-52.4,2.7-78.5,7.9c-76.9,15.6-148.2,49-218.9,81.9c-27,12.6-54.2,25.3-81.9,37c55-6.6,108.9-22.1,161.8-38.5
			c65.5-24.8,131.8-48.1,201.6-57.2c13.5-1.8,26.9-2.8,40.3-3.3c5.9-0.6,11.8-1.1,17.7-1.5c9.2-0.6,18.3-0.9,27.4-0.9
			c32.2,0,64,3.9,94.9,11.6c-9.8-4.6-19.7-8.8-29.8-12.6C1498.2,259.5,1452.9,251.4,1407.2,251.4"/>
		<path class="st2" d="M1712.6,1193.8c-1.3,13.6-2.2,27.3-2.6,41.1c-0.4,17.1-0.6,34.5-1.8,51.8
			C1717.2,1256.7,1715.8,1225,1712.6,1193.8 M233.7,360.4c-16.5,11.3-31.4,24.9-43.9,41.2c-10.6,13.8-19.1,28.6-25.8,44.2
			c-10.1,40.6-11.6,83.9-8.2,125c4,48.2,13.5,95.7,20.9,143.4c4.1,26.7,6.8,53.3,8.3,80.1c6.4,34.9,10.3,70,12.1,105.6
			c4.6,90.4-0.4,181.7,19.1,270.7c15.7,71.8,48,143.7,105.6,191.6c20.4,16.9,42.8,29.8,66.6,39.3c35.6,11.3,73.3,16.9,110.6,18.9
			c11.8,0.6,23.5,0.9,35.3,0.9c36.4,0,72.8-2.6,109.1-5.3c3.9-0.3,7.8-0.6,11.6-0.8c46.3-6.5,92.5-14,139.1-16.7
			c10.7-0.6,21.4-1,32.1-1c26.6,0,53,2.1,79.1,7.3c0.8,2.6,2.8,5,6.3,6.3c54.9,20.8,111.7,36.3,169.4,46.3
			c-70.7-18.8-139.2-45.8-203.7-80.6c-3.4-1.8-5.1-4.4-5.5-7.2c-35.7-12.2-72.9-18.4-110.6-21.2c-25.3-1.9-50.7-2.4-76.1-2.4
			c-13.5,0-26.9,0.1-40.4,0.3c-13.5,0.1-26.9,0.3-40.4,0.3c-34,0-68-0.9-101.8-4.8c-77.5-9-155.8-34.1-210-92.9
			c-51.4-55.7-74.1-132-80.3-206.1c-7.7-91.8,9.6-182.7,17-273.9c3.8-47.1,3.9-93.9-0.4-141c-4.3-47.4-10.8-94.7-11.8-142.3
			C216.3,444,220.7,400.5,233.7,360.4 M1431.5,279.3c-13.4,0.4-26.8,1.5-40.3,3.3c-69.7,9.1-136.1,32.4-201.6,57.2
			c9.8-3,19.5-6.1,29.2-9.1C1288.5,308.9,1358.7,286.7,1431.5,279.3"/>
		<path class="st2" d="M1189.7,339.7c-52.9,16.4-106.8,31.9-161.8,38.5c-39.6,16.7-80,31.3-122,39.9c9.3-0.3,18.6-1,27.8-1.9
			c78.8-8.1,153.9-37.5,227.4-65.6C1170.6,347,1180.1,343.3,1189.7,339.7 M1476.7,276.9c-9.1,0-18.3,0.3-27.4,0.9
			c-5.9,0.4-11.8,0.9-17.7,1.5c4.2-0.1,8.4-0.2,12.7-0.2c56.4,0,112,11.9,164.1,35.7c12.8,5.8,25.3,12.4,37.4,19.5
			c-22.8-18-47.8-33.5-74.1-45.9C1540.7,280.7,1508.9,276.9,1476.7,276.9"/>
		<path class="st3" d="M1444.2,279.1c-4.2,0-8.4,0.1-12.7,0.2c-72.8,7.4-143,29.6-212.6,51.3c-9.7,3-19.4,6.1-29.2,9.1
			c-9.5,3.6-19,7.2-28.5,10.9c-73.4,28.1-148.6,57.5-227.4,65.6c-9.3,1-18.6,1.6-27.8,1.9c-4.2,0.9-8.3,1.6-12.5,2.4
			c-21.8,3.8-43.8,5.8-65.7,5.8c-18.1,0-36.1-1.3-54.1-4.1c-43.3-6.7-85.3-19.9-126.4-34.7c-83.4-29.9-166.8-66.5-256.7-69.1
			c-2.8-0.1-5.7-0.1-8.6-0.1c-51.5,0-105.3,13-148.1,42.1c-13.1,40.1-17.4,83.6-16.6,125.1c1,47.6,7.5,94.9,11.8,142.3
			c4.3,47.1,4.2,93.9,0.4,141c-7.4,91.2-24.7,182.1-17,273.9c6.2,74.1,28.9,150.5,80.3,206.1c54.3,58.8,132.5,83.9,210,92.9
			c33.9,4,67.8,4.8,101.8,4.8c13.5,0,26.9-0.1,40.4-0.3c13.5-0.1,27-0.3,40.4-0.3c25.4,0,50.7,0.5,76.1,2.4
			c37.7,2.8,74.9,9,110.6,21.2c0.5,2.8,2.2,5.3,5.5,7.2c64.5,34.8,133,61.8,203.7,80.6c52.5,9.1,105.8,13.7,159.1,13.7
			c58.6,0,117.1-5.5,174.7-16.7c41.9-8.1,83.3-18.9,123.7-32.8c35.8-12.3,71.8-26.6,103.1-48.2c30.8-21.3,55.5-49.9,66.3-86.2
			c0-0.1,0.1-0.3,0.1-0.4c1.2-17.3,1.3-34.8,1.8-51.8c0.4-13.8,1.2-27.5,2.6-41.1c-1-10.2-2.2-20.4-3.3-30.4
			c-4.8-45-4.1-89.7,1.6-134.6c5.8-45.5,15.7-90.5,26.1-135.1c20.8-89,43.6-178.5,43.1-270.6c-0.4-81-21.7-161.3-71.9-225.9
			c-18.2-23.4-39.3-44.5-62.6-62.9c-12.1-7.2-24.6-13.7-37.4-19.5C1556.2,291,1500.6,279.1,1444.2,279.1"/>
	</g>
	<path class="st4" d="M1679,1560.8c-25.1-13.6-55.4-10.7-82.8-10.3c-29.9,0.4-59.7,0.8-89.6,1.2c-119.9,1.6-239.8,3.2-359.8,4.8
		c-29.4,0.4-58.8,0.8-88.2,1.2c-1.5,0-2.9,0.2-4.2,0.6c-104.6-2.6-209.1-5.2-313.7-7.8c-120.5-3-240.9-6-361.4-8.9
		c-44.3-1.1-98.9-3.1-127,38.1c-25.3,37-4.2,86.9,27.8,112c43.5,34.1,102.6,25.9,153.5,19c24.1-3.3,48.6-5.9,72.9-3.5
		c24,2.3,44.1,11.8,62.2,27.4c19.7,16.9,39.1,32.3,65.2,37.8c25,5.3,50.8,3,75.4-3c51.5-12.4,96.7-43.4,149.1-52.5
		c50.9-8.8,96.4,17.6,134.5,48.6c40.8,33.2,78.9,72,129.5,90.1c24.2,8.6,50.3,11.7,75.7,7.5c24.6-4.1,46-17,63.3-34.7
		c16.6-17,29.5-37.2,46.3-53.9c16-15.9,35.5-28,56.2-36.8c92.5-39.4,198.8-21.2,290.1-65c21.7-10.4,45.6-24.7,53.8-48.7
		C1716.5,1598.9,1700.9,1572.6,1679,1560.8z"/>
	<g>
		<g>
			<path class="st0" d="M888.6,802.5c-2.7-0.2-5.1,1.8-5.3,4.4l-3.7,42.6c-1,11.6,5.2,22.2,15,27.2c3.6,1.9,5.6,5.8,5.3,9.9
				l-2.2,25.2c-0.5,6.2-5.3,11.2-11.5,12.2c-0.8,0.1-1.5,0.6-1.8,1.3c-0.6,1.5,0.4,3,1.9,3.1l9.8,0.9l4.6,0.4l4.6,0.4l9.8,0.9
				c1.4,0.1,2.6-1,2.4-2.4c-0.1-0.9-0.7-1.7-1.6-2c-5.9-2-9.7-7.7-9.1-13.9l2.2-25.2c0.4-4,3-7.6,6.9-8.8
				c10.5-3.3,18.4-12.6,19.4-24.2l3.7-42.6c0.2-2.7-1.8-5.1-4.4-5.3L888.6,802.5z"/>
			<path class="st5" d="M886.5,817l-2.8,32.1c-1.1,13.1,8.6,24.7,21.7,25.9l0,0c13.1,1.1,24.7-8.6,25.9-21.7l2.8-32.1L886.5,817z"/>
		</g>
		<g>
			<path class="st0" d="M949.6,766.1c-2.7,0.4-4.5,3-4,5.6l7.1,42.2c1.9,11.5,10.6,20.2,21.3,22.6c4,0.9,6.9,4.2,7.6,8.2l4.2,25
				c1,6.2-2.3,12.2-8.1,14.6c-0.7,0.3-1.3,1-1.4,1.8c-0.2,1.6,1.2,2.8,2.6,2.6l9.7-1.6l4.5-0.8l4.5-0.8l9.7-1.6
				c1.4-0.2,2.2-1.6,1.8-3c-0.3-0.9-1.1-1.5-2.1-1.5c-6.2-0.4-11.3-5.1-12.3-11.2l-4.2-25c-0.7-4,1.1-8.1,4.5-10.2
				c9.3-5.8,14.7-16.8,12.8-28.3l-7.1-42.2c-0.4-2.7-3-4.5-5.6-4L949.6,766.1z"/>
			<path class="st5" d="M951.2,780.7l5.3,31.8c2.2,13,14.5,21.8,27.5,19.6l0,0c13-2.2,21.8-14.5,19.6-27.5l-5.3-31.8L951.2,780.7z"
				/>
		</g>
		<linearGradient id="SVGID_1_" gradientUnits="userSpaceOnUse" x1="1003.5908" y1="1400.916" x2="1003.5908" y2="1213.2533">
			<stop  offset="0" style="stop-color:#B78095"/>
			<stop  offset="1" style="stop-color:#91566E"/>
		</linearGradient>
		<path class="st6" d="M1122.3,1404.9c-30.8-90.4-23.9-191.1,19-276.4l36-71.6l-41.6-20.9l-36,71.6c-18.9,37.5-31.5,77.7-37.9,118.8
			H945.4c-6.4-41.1-19.1-81.3-37.9-118.8l-36-71.6l-41.6,20.9l36,71.6c42.8,85.3,49.8,186,19,276.4l-66.1,182h47.7l62.4-167
			c11.7-34.3,18.6-70,20.7-105.9h108.1c2.1,35.9,9,71.6,20.7,105.9l62.4,167h47.7L1122.3,1404.9z M1058.1,1258.5
			c-0.6,7.8-1,15.7-1.1,23.5H950.2c-0.1-7.9-0.5-15.7-1.1-23.5H1058.1z"/>
		<linearGradient id="SVGID_2_" gradientUnits="userSpaceOnUse" x1="1033.7137" y1="967.0954" x2="1387.3472" y2="967.0954">
			<stop  offset="0" style="stop-color:#F4CBD1"/>
			<stop  offset="1" style="stop-color:#EF99B2"/>
		</linearGradient>
		<path class="st7" d="M1322,893.3c0,0-24.1,104.3-32.6,107.8c-8.5,3.5-135.3,16.2-161.4,14.8c-26.1-1.4-67-6.1-82.5,0.1
			c-15.5,6.2-13.8,18.5-6,19.9s286.5,11,294.3-1c7.8-12,53.6-114.1,53.6-114.1l-68.4-27.5"/>
		<linearGradient id="SVGID_3_" gradientUnits="userSpaceOnUse" x1="1232.0969" y1="987.733" x2="1327.3297" y2="965.2145">
			<stop  offset="0" style="stop-color:#28F4D9"/>
			<stop  offset="1" style="stop-color:#32D6B6"/>
		</linearGradient>
		<path class="st8" d="M1321.7,894.4c-2.3,9.8-19.5,82.8-29,102.1c-15,0.1-29.9,0.1-44.9,0.2c-15.1,0.1-32.7-2.3-47.1,2.9
			c-8.9,3.2-17.2,10.4-18.4,20.2c-1.1,8.8,3.8,17.2,11.9,20.2c0,0.1,0,0.2,0.1,0.3c0.3,0,0.5,0,0.8,0c0.7,0.2,1.4,0.4,2.1,0.5
			c1.3,0.2,2.5,0,3.4-0.5c67.8,0.9,129.7,0,133.2-5.4c7.8-12,53.6-114.1,53.6-114.1L1321.7,894.4z"/>
		<linearGradient id="SVGID_4_" gradientUnits="userSpaceOnUse" x1="1229.3577" y1="1553.7272" x2="1252.2775" y2="1255.0521">
			<stop  offset="0" style="stop-color:#FFFFFF"/>
			<stop  offset="1" style="stop-color:#CFCFFF"/>
		</linearGradient>
		<path class="st9" d="M1291.5,1227.5c0,0-25.4,255-7,289.5c18.3,34.5,9.9,78.3,9.9,78.3l-136.7-1.6c0,0,35.2-140.9,36.6-147.2
			c1.4-6.3,45.8-263.6,45.8-263.6L1291.5,1227.5z"/>
		<linearGradient id="SVGID_5_" gradientUnits="userSpaceOnUse" x1="1293.4242" y1="1545.1761" x2="1233.673" y2="1545.1761">
			<stop  offset="0" style="stop-color:#3D3B9E"/>
			<stop  offset="1" style="stop-color:#353587"/>
		</linearGradient>
		<path class="st10" d="M1165.2,1593.8l129.2,1.5c0,0,8.5-43.8-9.9-78.3c-2.3-4.3-3.9-11.9-4.9-22l-75.8,7.2L1165.2,1593.8z"/>
		<linearGradient id="SVGID_6_" gradientUnits="userSpaceOnUse" x1="1061.6664" y1="1124.0059" x2="1582.2915" y2="1124.0059">
			<stop  offset="0" style="stop-color:#F4CBD1"/>
			<stop  offset="1" style="stop-color:#EF99B2"/>
		</linearGradient>
		<path class="st11" d="M1371.7,710.6c0,0,13.4,30.1,10.6,42.8s-50.8,100.5-50.8,110c0,9.5,29.1,96.9,38.9,125.1
			s43,119.1,22.6,123.3c-20.4,4.2-129.7,7.8-161.4,12c-31.7,4.2-67.7,7-69.8,35.2c-2.1,28.2,11.3,344.6,7,358.7
			s-37.4,45.1-53.6,48.6s-47.9,6.3-52.2,14.8c-4.2,8.5,0,10.4,20.4,12.6c20.4,2.2,143.8,2,149.4,0c5.6-2,13.8-47.8-0.7-75.3
			s4.2-264.3,12.7-286.8c5.1-13.6,271.3,13.3,307.3-14.8c28.9-22.6,41.6-117.7,16.9-191.2c-25.3-75.3-44.2-217.2-57.8-245.7
			c-6.4-13.4-41.7-37.2-51.5-50.3s-32.2-76.8-32.2-76.8L1371.7,710.6z"/>
		<path class="st12" d="M667.3,783.4c-2.5-6.5-10.3-12.9-8.4-20.6c0.8-3.2-1.2-5.6-3.7-6.3c-0.4-0.4-1-0.7-1.6-1
			c-16.2-6.5-36.2-4.1-46.5,11.4c-10.7,16-2.3,33.2,8.4,46.7c4.5,5.7,9.8,13.3,18,13c7.6-0.2,17-6.2,22.6-10.7
			c6.4-5.1,11.4-12,12.6-20.3C669.1,791.4,668.8,787.4,667.3,783.4z"/>
		<path class="st12" d="M687.8,656.7c-2.1-12.1-9.3-21.9-19.4-28.4c-0.2-0.1-0.4-0.3-0.7-0.4c-0.5-0.3-1-0.6-1.6-1
			c-5-2.9-9.5,3.2-7.3,7.2c-4.8,11.6-4.2,24-0.5,36.3c2.5,8.3,7.8,23,19.5,17.8C688.5,683.6,689.5,666.3,687.8,656.7z"/>
		<linearGradient id="SVGID_7_" gradientUnits="userSpaceOnUse" x1="930.6369" y1="975.1327" x2="782.6053" y2="975.1327">
			<stop  offset="0" style="stop-color:#F4CBD1"/>
			<stop  offset="1" style="stop-color:#EF99B2"/>
		</linearGradient>
		<path class="st13" d="M663.6,963.8c0,0,47.2,38.1,57.8,38.1s138.1,16.9,164.2,13.4c26.1-3.5,25.1-2.7,38.4,7.4
			c13.3,10.1,5.3,15.9-11.6,15.2c-16.9-0.7-200.6-0.6-202.8,0c-2.2,0.6-81.9-17.7-113.6-51.6s4.2-74,4.2-74L663.6,963.8z"/>
		<linearGradient id="SVGID_8_" gradientUnits="userSpaceOnUse" x1="788.7834" y1="975.1039" x2="668.0685" y2="975.1039">
			<stop  offset="0" style="stop-color:#FADA3A"/>
			<stop  offset="1" style="stop-color:#F8B526"/>
		</linearGradient>
		<path class="st14" d="M781.2,1008.1c-29.9-3.2-55.4-6.3-59.8-6.3c-10.6,0-57.8-38.1-57.8-38.1l-63.5-51.4c0,0-35.9,40.2-4.2,74
			c31.7,33.8,111.4,52.2,113.6,51.6c0.9-0.2,32.6-0.4,71.5-0.5C781.6,1027.3,781.4,1016.1,781.2,1008.1z"/>
		<linearGradient id="SVGID_9_" gradientUnits="userSpaceOnUse" x1="710.4536" y1="1518.7114" x2="695.2591" y2="1316.7957">
			<stop  offset="0" style="stop-color:#F4CBD1"/>
			<stop  offset="1" style="stop-color:#EF99B2"/>
		</linearGradient>
		<path class="st15" d="M643.8,1208.3c0,0,13.4,32.4,10.6,41.6c-2.8,9.2-21.1,62.7-14.8,105c6.3,42.3,35.9,125.5,21.1,145.2
			s-20.4,42.3-2.1,47.9c18.3,5.6,44.4,16.9,54.3,40.2c9.9,23.3,34.5,18.3,47.9,18.3c13.4,0,34.5-7.4,4.9-29.6
			c-19.2-14.4-52-43-56.3-74.7c-4.3-32.3-6.5-262.2-6.5-262.2l-33.1-39.5L643.8,1208.3z"/>
		<linearGradient id="SVGID_10_" gradientUnits="userSpaceOnUse" x1="719.2073" y1="1020.1723" x2="772.8886" y2="744.0092">
			<stop  offset="0" style="stop-color:#F4CBD1"/>
			<stop  offset="1" style="stop-color:#EF99B2"/>
		</linearGradient>
		<path class="st16" d="M585.2,753.4c0,0-5.9,29.4-22.8,37.6c-27.1,13.2-69.8,78.8-79.3,123.2c-9.5,44.4-29.1,101.5-44.4,125.8
			s-68.2,46.5-79.3,103.6c-11.1,57.1,21.7,89.3,75.6,86.7c53.9-2.6,219.4-12.7,233.1-5.3c13.7,7.4,17.4,55,29.6,83.5
			c12.2,28.5,67.7,73.5,86.2,104.7c18.5,31.2,40.2,73.5,36.5,88.3c-3.7,14.8-12.2,31.7,5.8,36.5c18,4.8,42.8,12.7,47.6,21.7
			s9.7,32.1,43.5,33.7c6.9,0.3,12.4,0.5,16.8,0.6c8.7,0.2,14.2-9.2,10-16.8c-4.5-7.9-11-16.4-19.6-18.9
			c-16.4-4.9-68.1-73.6-69.7-80.5s-124.9-317.5-148.2-324.9c-23.3-7.4-162.6-18.1-162.1-31.9c0.5-13.7,39.1-113.6,52.3-118.4
			s80.6-31.4,78.2-64c-3.3-45-21.3-111.7-38.2-126.5s-6.2-24.7,1.2-51.6L585.2,753.4z"/>
		
			<linearGradient id="SVGID_11_" gradientUnits="userSpaceOnUse" x1="1159.8052" y1="932.3897" x2="1234.6868" y2="864.1072" gradientTransform="matrix(0.9961 -8.848350e-02 8.848350e-02 0.9961 107.8524 -160.3009)">
			<stop  offset="0" style="stop-color:#F4CBD1"/>
			<stop  offset="1" style="stop-color:#EF99B2"/>
		</linearGradient>
		<path class="st17" d="M1386.3,538.5c0,0-64.6-2.5-75.5,69.4c-0.6,4.2-1.2,8.2-1.6,12.2c-4.2,10.5-17,42.5-14.4,44.7
			c2.6,2.2,11.3,3.3,14.1,3.5c3.8,34.3,16.1,53.8,24.6,56.3c12.7,3.8,106.9-3.7,121.9-76.8C1470.4,574.7,1447.5,539.7,1386.3,538.5z
			"/>
		<linearGradient id="SVGID_12_" gradientUnits="userSpaceOnUse" x1="1300.5614" y1="629.3721" x2="1464.0586" y2="629.3721">
			<stop  offset="0" style="stop-color:#3D3B9E"/>
			<stop  offset="1" style="stop-color:#38388E"/>
		</linearGradient>
		<path class="st18" d="M1408.9,537.6c-19.7-7.9-29.9-8.4-51.3-6.5c-5.6,0.5-11.1,1.6-16.3,3.2c-2.8,0.9-5.9,0.8-8.6-0.6
			c0,0,0,0,0,0c-8.1-4.2-16.6-7.4-25.4-0.6c-9.6,7.4-8.5,26.9,0.3,35.7c0.7,0.7,1.3,1.5,1.7,2.4c5.9,11,9.8,5.8,21.4,6.7
			c9,0.7,16.8,2.3,23.3,8.9c6.1,6.2,11,14.2,15.3,21.8c9.2,16.2,12.5,35.4-0.9,50.4c-5.9,6.6-14.3,10.7-23.1,11.7
			c-8.9,1.1-17-2.6-25.8-2.8c-6.3-0.1-11.1-0.6-12.1,5.8c-1.2,8,0.8,12.2,4,18.7c4.3,8.8,7.6,17.9,12.6,26.4
			c3.4,5.8,4.4,7.4,11.4,9.5c8,2.4,15.7,1.4,22.4-2.3c8.1-4.5,13.2-4.7,20.5-10.4c12.7-9.9,23.2-22.6,27.6-38.3
			c2.8-10,2.8-20.3,4.1-30.5c0.4-3.3,1-8.5,4.2-10.3c4.7-2.6,9,3.7,10.6,7.3c6.8,16,1.2,36.8,17.9,47.9c3.2,2.1,8.8,0.4,8.1-4.2
			c-3.6-22,10.7-40.9,12.5-61.8c1.7-20.2,0.4-42.9-11.7-59C1439.5,550.4,1427.4,545,1408.9,537.6z"/>
		<linearGradient id="SVGID_13_" gradientUnits="userSpaceOnUse" x1="666.3768" y1="703.9122" x2="606.5409" y2="686.1518">
			<stop  offset="0" style="stop-color:#F4CBD1"/>
			<stop  offset="1" style="stop-color:#EF99B2"/>
		</linearGradient>
		<path class="st19" d="M675.2,671.9c0.8-12.9-1.5-23.5-5.4-32.3c-9.9-22.5-34.8-34.3-58.8-29c-70.1,15.7-61.9,79.2-52.3,115.4
			c10.8,40.4,68.3,52.3,90.9,51c17.3-1,21.8-23.4,23.4-51.4c3.2-0.3,11.2-2.1,11.4-5.5c0.2-3.1-7.4-20.6-10.3-26.9
			C674.5,686,674.8,678.8,675.2,671.9z"/>
		<linearGradient id="SVGID_14_" gradientUnits="userSpaceOnUse" x1="554.5424" y1="1162.8293" x2="538.2569" y2="1039.4962">
			<stop  offset="0" style="stop-color:#FFFFFF"/>
			<stop  offset="1" style="stop-color:#CFCFFF"/>
		</linearGradient>
		<path class="st20" d="M765.8,1263.5c0.1-0.1,0.2-0.1,0.2-0.2c-25.4-56.9-48.8-104.4-58.6-110.2c-0.4-0.6-1-1.1-1.8-1.5
			c-21.1-10.6-45.9-13.8-68.9-17.8c-31.2-5.5-72.1-14-79.4-50.6c-0.1-0.7-0.4-1.3-0.7-1.8c2.2-5.9,4.6-12,7.1-18.2
			c-43.4-7.3-92.3-22-120.5-31.2c-1.5,2.9-3.1,5.6-4.5,7.9c-15.3,24.3-68.2,46.5-79.3,103.6c-11.1,57.1,21.7,89.3,75.6,86.7
			c34.3-1.7,113.5-6.3,170.3-7.6c24.9,24.5,25.1,65.3,19.5,98.8c-0.6,3.6,2.3,8,6.5,6.5c16-5.7,28.7,15.7,46,7.4
			c12.9-6.2,17.1-20.2,32.8-21.7c12.3-1.1,24.4-0.4,32.8-11c7.4-9.3,8.4-25.3,20-30.6c1.8-0.8,2.6-2.2,2.7-3.7
			C766.4,1266.8,766.6,1265.1,765.8,1263.5z"/>
		<linearGradient id="SVGID_15_" gradientUnits="userSpaceOnUse" x1="524.2414" y1="901.1931" x2="634.4429" y2="1049.7639">
			<stop  offset="0" style="stop-color:#FADA3A"/>
			<stop  offset="1" style="stop-color:#F8B526"/>
		</linearGradient>
		<path class="st21" d="M675,938.4c-3.3-45-21.3-111.7-38.2-126.5c-0.2-0.1-0.3-0.3-0.4-0.4c9.3-5.7,6.6-24.5-7.7-26
			c-18.9-1.9-37.2-6.6-54.9-13.4c-13.1-5-20.3,10.7-14.6,20.5c-27.2,16.5-66.9,78.7-76.1,121.4c-9.5,44.4-29.1,101.5-44.4,125.8
			c-1.1,1.7-2.4,3.5-3.8,5.2c26,12.5,81.8,36.5,122.6,34.2c12.6-33.2,31-74,39.3-77C610,997.6,677.4,971,675,938.4z"/>
		<linearGradient id="SVGID_16_" gradientUnits="userSpaceOnUse" x1="833.8317" y1="839.3978" x2="718.9044" y2="890.6368">
			<stop  offset="0" style="stop-color:#F4CBD1"/>
			<stop  offset="1" style="stop-color:#EF99B2"/>
		</linearGradient>
		<path class="st22" d="M558.5,824.9c0,0,31.7-25.4,53.6,9.9c21.8,35.2,81,129,102.9,132.5c21.8,3.5,141-72.6,152.2-84.6
			c11.3-12,42.3-14.8,47.9-10.6c5.6,4.2,23.3,37.4,12,45.1s-38.1,9.2-45.8,5.6c-7.8-3.5-126.9,115.6-176.2,101.5
			c-46.5-13.3-161.4-146.6-157.9-169.9C550.8,831.3,558.5,824.9,558.5,824.9z"/>
		<path class="st23" d="M944,1577c-4.5-7.9-11-16.4-19.6-18.9c-0.7-0.2-1.4-0.6-2.2-1c-5.4,3.1-13.1,2.9-20.4,2.9
			c-13.4,0-81.4-58.7-81.4-58.7c-3.7,14.8-12.2,31.7,5.8,36.5c18,4.8,42.8,12.7,47.6,21.7s9.7,32.1,43.5,33.7
			c6.9,0.3,12.4,0.5,16.8,0.6C942.8,1594,948.3,1584.6,944,1577z"/>
		<polygon class="st23" points="815.8,1529.5 840.4,1591.5 851.5,1591.5 841.2,1530.7 		"/>
		<path class="st23" d="M712.9,1588.2c9.9,23.3,34.5,18.3,47.9,18.3c13.4,0,34.5-7.4,4.9-29.6c-4.7-3.5-10.1-7.8-15.8-12.9
			c-4.5,4.2-10.1,7.9-16.6,8.6c-17.6,2.1-72.6-72.6-72.6-72.6c-14.8,19.7-20.4,42.3-2.1,47.9C676.9,1553.7,703,1564.9,712.9,1588.2z
			"/>
		<polygon class="st23" points="647.1,1531.7 658.6,1607 673.9,1607 675.8,1537.3 		"/>
		<path class="st24" d="M785.3,974.6c-5.8-13.1-10.9-32-28.5-31.5c-16.6,0.4-24,16.8-36.7,24c-2,0.3-3.7,0.4-5.1,0.2
			c-21.8-3.5-81-97.3-102.9-132.5c-21.8-35.2-53.6-9.9-53.6-9.9s-7.8,6.3-11.3,29.6c-3.5,23.3,111.4,156.6,157.9,169.9
			c10.6,3,24.5-0.1,39.8-6.9c12.8-0.9,26.1-2.7,36.8-7.4C798.6,1002.6,790.9,987.3,785.3,974.6z"/>
		<linearGradient id="SVGID_17_" gradientUnits="userSpaceOnUse" x1="591.2054" y1="685.2623" x2="576.4478" y2="737.9076">
			<stop  offset="0" style="stop-color:#3D3B9E"/>
			<stop  offset="1" style="stop-color:#38388E"/>
		</linearGradient>
		<path class="st25" d="M671.3,631.6c-13.5-21.7-46.8-27.2-70.1-23.7c-28.4,4.2-60.6,22.8-66.3,53.2c-2.8,14.8,0.6,30.9-6.2,44.3
			c-3,2.7-6.2,5.2-9.6,7.6c-5.7,4-11.8,8.5-13.5,15.6c-1.5,6.3,0.8,13,5.6,17.2c3.1,2.8,9.8,5.5,14.1,9.1c-0.3,2.9-1.9,5.7-4.2,8.4
			c-3.5,4.1-7.5,7.7-8.5,13.2c-1.5,7.9,2.2,14.8,7.6,20.4c1.4,10.7,12.5,19.7,22.6,22.6c7.2,2.1,15.2,2,22.3-0.6
			c4.5-1.6,11.4-6.4,17.6-7.6c3,1.3,6,3.1,9.1,4.7c9,4.7,26.5,8.2,30.5-4.8c0.2-0.5,0.1-1-0.1-1.3c-0.2-0.5-0.6-0.9-1.2-1.1
			c-0.4-0.1-0.7-0.2-1-0.3c-13.4-7.4-6.4-24.8-3.2-36c2.2-7.6,3.6-15.6,2.6-23.4c0.1-0.4,0.3-0.9,0.4-1.3c4.2-15.2,3-27.3-3-41.6
			c-1.3-3.2-1.9-10.5,0.2-14.2c5.3-3.5,11.9-4.5,18.1-6c7.4-1.8,14.8-4.2,21.2-8.3c10.3-6.4,17.8-17.2,17.4-29.3
			c0.6-2.4,0.9-4.9,0.9-7.5C674.2,637.5,672.2,633.1,671.3,631.6z M507.4,733.3c-0.5-10.7,9.6-16,17.2-21.6
			c-7.1,8.2-17,17.6-8.6,28.7c1.9,2.5,4.4,4.3,6.5,6.5c1.6,1.7,2.5,3.4,2.8,5.1C517.9,746.5,507.9,744.4,507.4,733.3z M560.9,817.9
			c-8.6,2.1-18,0.5-25.6-4c-5.3-3.1-10.3-8.3-12.3-14.3c3.2,2.9,6.8,5.4,10,7.5c6.8,4.3,14.1,7.1,22.2,5.7c4.4-0.7,8.5-2.8,12.9-3.7
			c4.2-0.9,7.9-0.4,11.4,0.8C572.8,812.1,565.7,816.7,560.9,817.9z M610.8,784.7c-1.6,6.7-1.5,14.4,2.1,20.1
			c-11.3-10.3-1-34.9,4.5-50.2C617.2,764.7,613.2,774.5,610.8,784.7z M644.4,681c-3.7,1.4-7.8,2.2-11.9,3.1c1.6-0.7,3.1-1.3,4.7-2
			c7-3,14-6.1,20.1-10.7c5.6-4.1,10.2-9.2,13.3-15.2C667.4,668.2,656,676.8,644.4,681z"/>
		<path class="st26" d="M1072,1596.6c21.9,2.4,154.4,2.2,160.4,0c6.1-2.2,14.8-51.4-0.8-80.9c-1.1-2.2-2.1-5.6-2.9-10l-64.3-8.9
			c-0.1,10-0.3,16.4-0.9,18.2c-4.5,15.1-40.1,48.4-57.5,52.2c-17.4,3.8-51.5,6.8-56,15.9C1045.6,1592.2,1050.1,1594.3,1072,1596.6z"
			/>
		<linearGradient id="SVGID_18_" gradientUnits="userSpaceOnUse" x1="1377.1997" y1="1145.3151" x2="1415.2476" y2="1054.6565">
			<stop  offset="0" style="stop-color:#FFFFFF"/>
			<stop  offset="1" style="stop-color:#CFCFFF"/>
		</linearGradient>
		<path class="st27" d="M1569.2,1025.5c-0.5-1.4-0.9-2.8-1.4-4.2l-181.1,15.6c10.6,34.4,19.2,72.1,6.2,74.8
			c-20.4,4.2-129.7,7.8-161.4,12c-31.7,4.2-67.7,7-69.8,35.2c-0.1,1.4-0.2,3.4-0.2,6l-11.4,346.2c0,0,58.1,21,95.1,0l5.3-282.1
			c39.2-7.3,268.4,13.6,301.6-12.3C1581.2,1194.2,1593.8,1099.1,1569.2,1025.5z"/>
		<linearGradient id="SVGID_19_" gradientUnits="userSpaceOnUse" x1="1470.9131" y1="929.1651" x2="1370.7827" y2="1022.5767">
			<stop  offset="0" style="stop-color:#28F4D9"/>
			<stop  offset="1" style="stop-color:#32D6B6"/>
		</linearGradient>
		<path class="st28" d="M1569.2,1025.5c-25.3-75.3-44.8-220.9-57.8-245.7c-5.8-11-31.3-29.8-45.1-43.3c10-9.7-2.8-29-17.2-21.4
			c-23.3,12.4-48.2,20.2-74.2,23.9c-7.4,1.1-11.3,10.4-9.6,16.9c1.6,6.2,6.5,9.2,12.1,9.7c-12.8,28.1-45.9,89.7-45.9,97.6
			c0,9.5,29.1,96.9,38.9,125.1c7.4,21.1,27.8,77.4,29,106.2c0,0,114.9,29.1,182.8,12.8C1581.9,1080.1,1577.9,1051.5,1569.2,1025.5z"
			/>
		<linearGradient id="SVGID_20_" gradientUnits="userSpaceOnUse" x1="961.5906" y1="848.3839" x2="1473.105" y2="848.3839">
			<stop  offset="0" style="stop-color:#F4CBD1"/>
			<stop  offset="1" style="stop-color:#EF99B2"/>
		</linearGradient>
		<path class="st29" d="M1467.7,776.1c0,0-22.6-32.6-78.9,0c-56.4,32.6-129,92.5-151.5,91.1s-197.3-28.2-210-38.1
			c-12.7-9.9-40.9-19.6-53.6-14.8s-17.6,69.7-3.5,68.3c14.1-1.4,64.1-5.6,67.7-4.9s188.9,69.1,229.1,55.7
			c40.2-13.4,200.9-71.2,205.1-106.4C1476.1,791.8,1467.7,776.1,1467.7,776.1z"/>
		<path class="st30" d="M1467.7,776.1c0,0-22.6-32.6-78.9,0s-129,92.5-151.5,91.1c-0.2,0-0.4,0-0.5,0
			c-30.4-11.8-62.3-22.2-94.3-27.7c-29.6-5-37.8,23.4-38.8,47.8c-0.5,11.7,2.9,23.3,13.1,30c11.7,7.7,27.8,9.8,41.2,13
			c32.9,8,66.6,13,100.1,5.7c1-0.2,1.7-0.6,2.3-1.1c2.5-0.3,4.7-0.7,6.6-1.3c40.2-13.4,200.9-71.2,205.1-106.4
			C1476.1,791.8,1467.7,776.1,1467.7,776.1z"/>
		<path class="st31" d="M1316,1070.3H691.2c-5,0-9.1-4.1-9.1-9.1V1041c0-5,4.1-9.1,9.1-9.1H1316c5,0,9.1,4.1,9.1,9.1v20.2
			C1325.1,1066.2,1321,1070.3,1316,1070.3z"/>
		<linearGradient id="SVGID_21_" gradientUnits="userSpaceOnUse" x1="994.8404" y1="1031.0032" x2="994.8404" y2="1157.3942">
			<stop  offset="0" style="stop-color:#FF739E"/>
			<stop  offset="1" style="stop-color:#FF507E"/>
		</linearGradient>
		<path class="st32" d="M722.1,1032c55.6,92.6,156.9,154.5,272.8,154.5c115.8,0,217.2-62,272.8-154.5H722.1z"/>
		<g>
			<linearGradient id="SVGID_22_" gradientUnits="userSpaceOnUse" x1="339.338" y1="1589.3926" x2="339.338" y2="1252.2014">
				<stop  offset="0" style="stop-color:#B78095"/>
				<stop  offset="1" style="stop-color:#91566E"/>
			</linearGradient>
			<polygon class="st33" points="326.5,1589.4 297.2,1589.4 352.2,1252.2 381.4,1257 			"/>
			
				<linearGradient id="SVGID_23_" gradientUnits="userSpaceOnUse" x1="-2726.4871" y1="1590.4816" x2="-2726.4871" y2="1252.2014" gradientTransform="matrix(-1 0 0 1 -2168.6667 0)">
				<stop  offset="0" style="stop-color:#B78095"/>
				<stop  offset="1" style="stop-color:#91566E"/>
			</linearGradient>
			<polygon class="st34" points="570.7,1589.4 515.7,1257 544.9,1252.2 599.9,1590.5 			"/>
			<linearGradient id="SVGID_24_" gradientUnits="userSpaceOnUse" x1="422.0582" y1="1269.4166" x2="422.0582" y2="840.5901">
				<stop  offset="0" style="stop-color:#B78095"/>
				<stop  offset="1" style="stop-color:#91566E"/>
			</linearGradient>
			<path class="st35" d="M575.4,1269.4H328.2c-7.3,0-13.5-5.3-14.6-12.6l0,0c-16.3-107.1-59.7-404.3-59.7-415.7h29.6
				c0-0.1,0-0.3,0-0.5c0.9,13.4,30.2,220.1,57.4,399.2h234.5c8.2,0,14.8,6.6,14.8,14.8l0,0C590.2,1262.8,583.6,1269.4,575.4,1269.4z
				"/>
			<path class="st5" d="M285.3,854.6c0,0,21-7,25.9,14.5s38.3,308.9,46.1,337.8c2.9,10.6,203.4-4.2,211.8,11.3
				c8.5,15.5,6.3,21.6,6.3,21.6H340.9L285.3,854.6z"/>
		</g>
		<g>
			
				<linearGradient id="SVGID_25_" gradientUnits="userSpaceOnUse" x1="-3236.4563" y1="1597.1864" x2="-3236.4563" y2="1259.9952" gradientTransform="matrix(-1 0 0 1 -1638 0)">
				<stop  offset="0" style="stop-color:#B78095"/>
				<stop  offset="1" style="stop-color:#91566E"/>
			</linearGradient>
			<polygon class="st36" points="1611.3,1597.2 1640.5,1597.2 1585.6,1260 1556.4,1264.8 			"/>
			
				<linearGradient id="SVGID_26_" gradientUnits="userSpaceOnUse" x1="849.3073" y1="1598.2754" x2="849.3073" y2="1259.9952" gradientTransform="matrix(1 0 0 1 530.6667 0)">
				<stop  offset="0" style="stop-color:#B78095"/>
				<stop  offset="1" style="stop-color:#91566E"/>
			</linearGradient>
			<polygon class="st37" points="1367.1,1597.2 1422.1,1264.8 1392.9,1260 1337.9,1598.3 			"/>
			
				<linearGradient id="SVGID_27_" gradientUnits="userSpaceOnUse" x1="-3153.7361" y1="1277.2104" x2="-3153.7361" y2="848.3839" gradientTransform="matrix(-1 0 0 1 -1638 0)">
				<stop  offset="0" style="stop-color:#B78095"/>
				<stop  offset="1" style="stop-color:#91566E"/>
			</linearGradient>
			<path class="st38" d="M1362.4,1277.2h247.2c7.3,0,13.5-5.3,14.6-12.6l0,0c16.3-107.1,59.7-404.3,59.7-415.7h-29.6
				c0-0.1,0-0.3,0-0.5c-0.9,13.4-30.2,220.1-57.4,399.2h-234.5c-8.2,0-14.8,6.6-14.8,14.8l0,0
				C1347.6,1270.6,1354.2,1277.2,1362.4,1277.2z"/>
			<path class="st5" d="M1652.5,862.4c0,0-21-7-25.9,14.5c-4.9,21.5-38.3,308.9-46.1,337.8c-2.9,10.6-203.4-4.2-211.8,11.3
				c-8.5,15.5-6.3,21.6-6.3,21.6h234.5L1652.5,862.4z"/>
		</g>
		<path class="st0" d="M900.8,1012.9h-73.4l0.2,0.2c15.3,12.5,34.5,19.3,54.2,19.3h19h19c19.8,0,38.9-6.8,54.2-19.3l0.2-0.2H900.8z"
			/>
		<path class="st0" d="M1065.2,1012.4h-73.4l0.2,0.2c15.3,12.5,34.5,19.3,54.2,19.3h19h19c19.8,0,38.9-6.8,54.2-19.3l0.2-0.2H1065.2
			z"/>
	</g>
</g>
</svg>
