<?xml version="1.0" encoding="utf-8"?>
<!-- Generator: Adobe Illustrator 21.0.0, SVG Export Plug-In . SVG Version: 6.00 Build 0)  -->
<svg version="1.1" id="Layer_1" xmlns="http://www.w3.org/2000/svg" xmlns:xlink="http://www.w3.org/1999/xlink" x="0px" y="0px"
	 width="2000px" height="2000px" viewBox="0 0 2000 2000" style="enable-background:new 0 0 2000 2000;" xml:space="preserve">
<style type="text/css">
	.st0{fill:#FFFFFF;}
	.st1{fill:#454492;}
	.st2{fill:#A9E9EB;}
	.st3{fill:#EFEFEF;}
	.st4{fill:#F7807A;}
	.st5{fill:#1D2049;}
	.st6{fill:url(#SVGID_1_);}
	.st7{fill:url(#SVGID_2_);}
	.st8{fill:url(#SVGID_3_);}
	.st9{fill:url(#SVGID_4_);}
	.st10{fill:#262859;}
	.st11{fill:#D8533D;}
	.st12{fill:#EC7849;}
	.st13{fill:url(#SVGID_5_);}
	.st14{fill:url(#SVGID_6_);}
	.st15{fill:url(#SVGID_7_);}
	.st16{fill:url(#SVGID_8_);}
	.st17{fill:url(#SVGID_9_);}
	.st18{fill:url(#SVGID_10_);}
	.st19{fill:url(#SVGID_11_);}
	.st20{fill:url(#SVGID_12_);}
	.st21{fill:#F1F2F2;}
	.st22{fill:#B5B5E5;}
</style>
<g>
	<rect y="3" class="st0" width="2000" height="2000"/>
	<g>
		<path class="st1" d="M1733.1,1628.4c-14.5-13.4-34.4-18-53.6-19.6c-26-2.2-52.4-0.6-78.4-0.4c-57.7,0.5-115.5,0.9-173.2,1.4
			c-115.5,0.9-230.9,1.9-346.4,2.8c-115.5,0.9-230.9,1.9-346.4,2.8c-115,0.9-230,0.9-344.9,2.8c-33.2,0.5-78.1,4.6-95.1,38.2
			c-8.8,17.4-6.4,37.8,2.4,54.8c10.2,19.6,28.5,33,48.3,42c22.4,10.1,46.9,16.1,70.8,21.5c25.4,5.8,51.1,10.1,76.9,13.4
			c53.3,6.7,107,8.6,160.6,8.2c94-0.6,187.9-7.9,281.9-8.9c0.2,0,0.3,0.1,0.5,0.1c41.2,1.2,82.5,2.3,123.7,3.5c0,0,0,0,0,0
			c0,0,0,0,0,0c73.8,2.1,147.6,4.1,221.4,6.2c56.5,1.6,113,3.4,169.5,4.7c49.3,1.1,99,1,147.6-8.2c44.6-8.5,93.2-25.1,125.8-58.1
			C1751.7,1707.9,1765.2,1658.1,1733.1,1628.4z"/>
		<path class="st2" d="M1798.3,770.2c9.2-86.6,12.4-176.6-12.2-261.1c-20-68.7-58.3-133.5-115.8-177.2
			c-64.2-48.8-146.6-59.7-224.8-49.7c-85.1,10.8-164,44.3-244.6,71.7c-41.4,14.1-83.4,26.3-126.6,33.3c-42.1,6.7-85,8.7-127.6,8.2
			c-85.6-1.1-170.7-12.6-255.8-20.3c-84.7-7.7-170.3-11.7-254.7,1.6c-72.3,11.4-149.2,37.5-196,97.1
			c-47.6,60.6-52.2,141.2-39.3,214.5c14.8,84.4,54.6,161.7,74.3,244.8c20.6,87,6.8,176.6,20.1,264.4c11,72.4,43.6,143.7,110.9,179.3
			c67.5,35.7,147.7,32.4,221.7,29.9c93.4-3.1,186.7-6.3,280.1-9.4c40.1-1.3,80.2-2.7,120.4-4c0.8,1.2,2,2.3,3.5,3.3
			c141.2,89.4,304.7,142.4,471.5,152.9c70.9,4.4,150.4,0,210.2-42.8c61.8-44.3,85.4-119.7,87-193c1.9-89-26-175.6-27.6-264.5
			C1771.3,955.4,1788.5,862.9,1798.3,770.2z"/>
		<g>
			<g>
				<path class="st3" d="M739.3,802.2v51.7c0,12.6,7.7,23.4,18.7,28c4.1,1.7,6.7,5.7,6.7,10.2v27.4c0,6.8-4.6,12.6-11.2,14.2
					c-0.8,0.2-1.6,0.8-1.8,1.6c-0.5,1.7,0.7,3.2,2.3,3.2h10.7h5h5h10.7c1.5,0,2.7-1.3,2.4-2.9c-0.2-1-1-1.8-1.9-2
					c-6.6-1.6-11.2-7.4-11.2-14.2V892c0-4.4,2.6-8.5,6.7-10.2c11-4.6,18.7-15.4,18.7-28v-51.7H739.3z"/>
				<path class="st4" d="M743.7,818.1v35c0,14.3,11.6,25.9,25.9,25.9l0,0c14.3,0,25.9-11.6,25.9-25.9v-35H743.7z"/>
			</g>
			<g>
				<g>
					<path class="st5" d="M1450.1,721.5c-0.9-0.1-1.7,0-2.4,0.3c-2.2-1.1-5.2-0.6-5.8,2.5c-1.5,8.6,0.4,16.3,1.2,24.8
						c1.3,12.9-4.4,19.3-16.3,23.5c-2.8,1-4.4,4.8-1.9,7.1c8.7,8,20.2,13.1,32.3,12.2c11.6-0.9,17.9-9.3,21.3-19.7
						C1485.7,750.5,1474.1,724.7,1450.1,721.5z"/>
					<path class="st5" d="M1433.8,656.9c-0.9-2.1-3.3-3.5-5.8-1.9c-18.4,12-17.8,38.4,1.9,48.8c2.5,1.3,5.4,0.1,6.2-2.5
						C1441,686.3,1444.5,669.9,1433.8,656.9z"/>
					
						<linearGradient id="SVGID_1_" gradientUnits="userSpaceOnUse" x1="-2483.2705" y1="1361.2657" x2="-2125.676" y2="1361.2657" gradientTransform="matrix(-1 0 0 1 -918.6732 0)">
						<stop  offset="0" style="stop-color:#FF956E"/>
						<stop  offset="1" style="stop-color:#E87054"/>
					</linearGradient>
					<path class="st6" d="M1564.6,1116.5c0,0-141.5,151.8-148.4,182.6c-6.9,30.8-81.5,255.4-73.6,271.2s12.7,45.5,3.4,54.8
						s-140.7,11.9-139,0c1.7-11.9,85.6-34.8,99.2-80.5c13.6-45.8,41.7-292.6,41.7-292.6l111.9-162.6L1564.6,1116.5z"/>
					<linearGradient id="SVGID_2_" gradientUnits="userSpaceOnUse" x1="1308.423" y1="1526.7788" x2="1466.0519" y2="1161.4725">
						<stop  offset="0" style="stop-color:#EFEFEF"/>
						<stop  offset="1" style="stop-color:#B5B5E5"/>
					</linearGradient>
					<path class="st7" d="M1564.6,1116.5l-77.7-20.1l-30.2-2.6L1347.9,1252c0,0-28.1,246.9-41.7,292.6c-0.1,0.4-0.3,0.9-0.4,1.3
						c8.3,5.7,21.6,11.2,38,6.3c10.6-57.3,66.5-226.7,72.4-253.2C1423.1,1268.3,1564.6,1116.5,1564.6,1116.5z"/>
					<linearGradient id="SVGID_3_" gradientUnits="userSpaceOnUse" x1="1207.0028" y1="1135.1207" x2="1625.9264" y2="1135.1207">
						<stop  offset="0" style="stop-color:#FF956E"/>
						<stop  offset="1" style="stop-color:#E87054"/>
					</linearGradient>
					<path class="st8" d="M1455.4,752.5c0,0,20.3,28.3-0.4,43c-14.8,10.5-64.2,129.6-76.6,128.4c-12.4-1.2-90.7-83-104.2-83.6
						c-13.5-0.6-66.6-17.1-67.1-11.2s1.2,40.6,27.7,41.2c26.5,0.6,27.7-7.7,38.9,2.4c11.2,10,74.2,121.3,108.4,105.4
						c34.2-15.9,81.2-87.2,81.2-87.2s1.9,24.7,16,38.3c14.1,13.5,43.6,50.7,42.4,64.8c-1.2,14.1-5.3,53.6-46.5,62.4
						c-41.2,8.8-190.2,56-197.9,77.2c-7.7,21.2-10,51.8,10,88.3c20,36.5,135.5,191.4,139,207.9c3.5,16.5,1.2,59.5-10,71.3
						s-42.4,24.1-28.9,28.9c13.5,4.7,50.1,2.9,61.8-7.7s17.1-57.7,31.8-68.9c14.7-11.2,10-29.4-15.9-43.6
						c-25.9-14.1-48.9-100.7-56-122.5c-7.1-21.8-46.5-96-61.8-107.2c0,0,240.3-13,267.4-75.4c23.8-54.9,2.9-93.1,0-106
						c-2.9-13-52.4-174.3-61.3-192c-8.8-17.7-56.5-31.2-61.8-68.9L1455.4,752.5z"/>
					
						<linearGradient id="SVGID_4_" gradientUnits="userSpaceOnUse" x1="-4099.2065" y1="883.9083" x2="-4144.353" y2="834.52" gradientTransform="matrix(-0.9983 5.771121e-02 5.771121e-02 0.9983 -2703.3823 84.4484)">
						<stop  offset="0" style="stop-color:#FF956E"/>
						<stop  offset="1" style="stop-color:#E87054"/>
					</linearGradient>
					<path class="st9" d="M1422.9,686.9c-2.3-34.4,26.6-47.6,26.6-47.6c73.6,2.9,67,57.7,59.1,87.4s-50.2,38.5-66.9,37.5
						c-12.7-0.7-16-17.2-17.2-37.8c-2.4-0.2-8.2-1.6-8.4-4.1c-0.2-2.3,5.5-15.2,7.5-19.8C1423.5,697.3,1423.3,692,1422.9,686.9z"/>
					<path class="st10" d="M1481,1453.4c14.7-11.2,10-29.4-15.9-43.6c-1.2-0.7-2.4-1.5-3.6-2.4c0,0-3.8,80.8-19.9,87.8
						c-6.9,3-15.2,2.6-21.4-0.2c-1.2,2.5-2.5,4.5-3.9,6.1c-11.2,11.8-42.4,24.1-28.9,28.9c13.5,4.7,50.1,2.9,61.8-7.7
						C1460.9,1511.7,1466.2,1464.6,1481,1453.4z"/>
					<path class="st10" d="M1346,1625.1c9.3-9.3,4.5-39-3.4-54.8c0,0-26.9,39.8-60.2,37.7c-16.6-1-28.2-4-35.6-7.5
						c-20.8,11.3-39.1,19.2-39.9,24.6C1205.3,1637,1336.7,1634.5,1346,1625.1z"/>
					<path class="st11" d="M1681.8,1153.6h-183.5v-19.1c0-10.2,8.3-18.5,18.5-18.5h146.5c10.2,0,18.5,8.3,18.5,18.5V1153.6z"/>
					<path class="st12" d="M1687.1,1632.8h35l-40.1-455.7h-0.3v-23.5h-183.5v23.8h0l-40.1,455.7h35l22.7-257.8
						c1-11.6,10.7-20.5,22.4-20.5h103.7c11.6,0,21.4,8.9,22.4,20.5L1687.1,1632.8z M1522.3,1303.6l9.5-107.7
						c0.9-10.4,9.7-18.4,20.1-18.4h76.7c10.5,0,19.2,8,20.1,18.4l9.5,107.7c1,11.8-8.3,22-20.1,22h-95.6
						C1530.6,1325.5,1521.3,1315.4,1522.3,1303.6z"/>
					<linearGradient id="SVGID_5_" gradientUnits="userSpaceOnUse" x1="1357.2937" y1="1202.3466" x2="1853.5665" y2="1202.3466">
						<stop  offset="0" style="stop-color:#EFEFEF"/>
						<stop  offset="1" style="stop-color:#B5B5E5"/>
					</linearGradient>
					<path class="st13" d="M1614.7,998.7c-0.3-1.3-1.1-4.3-2.3-8.4c-27.2,2.2-66.3,5.4-91.1,7.6c-1.7,16.4-8.3,50.4-46.2,58.5
						c-41.2,8.8-190.2,56-197.9,77.2c-7.7,21.2-10,51.8,10,88.3c17.1,31.1,103.5,148.4,130.8,192.4c19.1-4.3,29.1-12,34.1-17.5
						c-20.3-28.9-37.1-91.5-43-109.6c-7.1-21.8-46.5-96-61.8-107.2c0,0,240.3-13,267.4-75.4
						C1638.5,1049.9,1617.6,1011.7,1614.7,998.7z"/>
					<linearGradient id="SVGID_6_" gradientUnits="userSpaceOnUse" x1="1478.0826" y1="765.2398" x2="1512.093" y2="1022.6519">
						<stop  offset="0" style="stop-color:#ED6845"/>
						<stop  offset="1" style="stop-color:#D8533D"/>
					</linearGradient>
					<path class="st14" d="M1614.7,998.7c-2.9-13-52.4-174.3-61.3-192c-5.5-11-26-20.4-42.1-35c5.9-7.1-2.3-19.5-10.8-13.5
						c-12.3,8.7-26,14.5-41.1,16.2c-11,1.3-11.3,18.4-0.5,17.7c-1.1,1.2-2.3,2.3-3.8,3.4c-11.5,8.2-44.2,82.7-63.9,114.3
						c6.4,11.4,16.7,25.9,30.8,34.6c22.5-25,41.3-53.5,41.3-53.5s1.9,24.7,16,38.3c14.1,13.5,43.6,50.7,42.4,64.8
						c-0.4,4.9-1.2,12.9-3.8,21.7c23.1,0.5,72.5-0.4,97.4-14.7C1615,1000.2,1614.8,999.4,1614.7,998.7z"/>
					<g>
						<circle class="st3" cx="1433.2" cy="892" r="4"/>
						<path class="st3" d="M1443.6,913.4c-2.2,0-4,1.8-4,4c0,1.5,0.8,2.7,2,3.4c1.7-2.1,3.3-4.2,4.8-6.2
							C1445.6,913.8,1444.7,913.4,1443.6,913.4z"/>
						<path class="st3" d="M1431,840.7c2.2,0,4-1.8,4-4c0-1.9-1.3-3.5-3.1-3.9c-1.2,2.2-2.3,4.5-3.5,6.8
							C1429,840.3,1429.9,840.7,1431,840.7z"/>
						
							<ellipse transform="matrix(9.848439e-02 -0.9951 0.9951 9.848439e-02 569.6638 2218.1096)" class="st3" cx="1509.1" cy="794.6" rx="4" ry="4"/>
						<path class="st3" d="M1603.9,964.6c0.3,0,0.6-0.1,0.9-0.1c-0.7-2.4-1.5-5-2.3-7.6c-1.7,0.5-2.8,2.1-2.7,4
							C1599.8,963.1,1601.7,964.7,1603.9,964.6z"/>
						
							<ellipse transform="matrix(9.848439e-02 -0.9951 0.9951 9.848439e-02 548.2811 2189.2356)" class="st3" cx="1482.4" cy="792" rx="4" ry="4"/>
						<path class="st3" d="M1611.3,991.6c0.5,0,0.9-0.1,1.3-0.3c-0.6-2.2-1.4-4.7-2.2-7.5c-2,0.3-3.4,2.1-3.3,4.1
							C1607.2,990,1609.1,991.7,1611.3,991.6z"/>
						<path class="st3" d="M1490.4,934.9c0.2-2.2-1.4-4.1-3.6-4.3c-1.7-0.2-3.3,0.8-4,2.3c1.6,1.6,3.2,3.4,5,5.4
							C1489.2,937.7,1490.2,936.5,1490.4,934.9z"/>
						<circle class="st3" cx="1433.8" cy="862.4" r="4"/>
						<path class="st3" d="M1412.5,880.5c2.2,0,4-1.8,4-4c0-2.2-1.8-4-4-4c-0.3,0-0.7,0.1-1,0.1c-0.9,1.8-1.8,3.5-2.7,5.2
							C1409.4,879.4,1410.8,880.5,1412.5,880.5z"/>
						<path class="st3" d="M1467.2,892c0-2.2-1.8-4-4-4s-4,1.8-4,4c0,1.2,0.5,2.2,1.3,2.9c1.7-2.5,2.7-3.9,2.7-3.9s0.1,1.9,0.7,4.9
							C1465.7,895.6,1467.2,893.9,1467.2,892z"/>
						<circle class="st3" cx="1407.3" cy="910.7" r="4"/>
						<circle class="st3" cx="1460.1" cy="850.7" r="4"/>
						<path class="st3" d="M1414.8,939.3c1-0.7,1.6-1.9,1.6-3.2c0-2.2-1.8-4-4-4c-1.4,0-2.7,0.8-3.4,1.9
							C1410.9,935.9,1412.8,937.7,1414.8,939.3z"/>
						<circle class="st3" cx="1486.4" cy="833.9" r="4"/>
						
							<ellipse transform="matrix(9.848306e-02 -0.9951 0.9951 9.848306e-02 453.7677 2295.7251)" class="st3" cx="1494" cy="897.4" rx="4" ry="4"/>
						
							<ellipse transform="matrix(0.6033 -0.7975 0.7975 0.6033 -66.7357 1488.5402)" class="st3" cx="1462.8" cy="811.3" rx="4" ry="4"/>
						<path class="st3" d="M1523.7,781.6c-2-1.4-4-2.9-5.9-4.5c-1,0.6-1.7,1.7-1.9,3c-0.2,2.2,1.4,4.1,3.6,4.3
							C1521.4,784.7,1523.2,783.4,1523.7,781.6z"/>
						
							<ellipse transform="matrix(0.9985 -5.445663e-02 5.445663e-02 0.9985 -48.9323 84.0062)" class="st3" cx="1517" cy="939.9" rx="4" ry="4"/>
						
							<ellipse transform="matrix(0.9985 -5.445663e-02 5.445663e-02 0.9985 -47.3792 85.2089)" class="st3" cx="1539.9" cy="912" rx="4" ry="4"/>
						
							<ellipse transform="matrix(9.848306e-02 -0.9951 0.9951 9.848306e-02 501.8691 2271.9604)" class="st3" cx="1504.9" cy="859" rx="4" ry="4"/>
						
							<ellipse transform="matrix(0.9985 -5.445663e-02 5.445663e-02 0.9985 -45.4531 84.9157)" class="st3" cx="1535.4" cy="876.5" rx="4" ry="4"/>
						<path class="st3" d="M1518.9,974.6c-0.1-2.2-2-3.9-4.2-3.8c-0.7,0-1.4,0.3-1.9,0.6c1.4,2.4,2.8,4.7,3.9,6.9
							C1518.1,977.7,1519,976.2,1518.9,974.6z"/>
						<path class="st3" d="M1594.2,933.5c0.4,0,0.7-0.1,1-0.2c-0.8-2.5-1.6-5-2.3-7.6c-1.7,0.5-2.9,2.1-2.8,4
							C1590.1,931.9,1592,933.6,1594.2,933.5z"/>
						<path class="st3" d="M1520.7,1007.5c2.2-0.1,3.9-2,3.8-4.2c-0.1-1.9-1.6-3.5-3.4-3.7c-0.3,2.4-0.7,5-1.2,7.8
							C1520.1,1007.5,1520.4,1007.5,1520.7,1007.5z"/>
						
							<ellipse transform="matrix(9.848439e-02 -0.9951 0.9951 9.848439e-02 549.8018 2263.749)" class="st3" cx="1524.3" cy="828.4" rx="4" ry="4"/>
						
							<ellipse transform="matrix(0.9985 -5.445663e-02 5.445663e-02 0.9985 -49.8173 85.112)" class="st3" cx="1536.9" cy="956.7" rx="4" ry="4"/>
						
							<ellipse transform="matrix(0.9985 -5.445663e-02 5.445663e-02 0.9985 -48.3005 86.4136)" class="st3" cx="1561.5" cy="929.5" rx="4" ry="4"/>
						
							<ellipse transform="matrix(0.9985 -5.445663e-02 5.445663e-02 0.9985 -50.4167 87.398)" class="st3" cx="1578.5" cy="968.8" rx="4" ry="4"/>
						<path class="st3" d="M1578.3,880.7c-2.2,0.1-3.9,2-3.8,4.2c0.1,2.2,2,3.9,4.2,3.8c0.9,0,1.6-0.4,2.3-0.9
							c-0.7-2.4-1.5-4.7-2.2-7.1C1578.6,880.7,1578.4,880.7,1578.3,880.7z"/>
						<path class="st3" d="M1541.1,797.8c-0.2,2.2,1.4,4.1,3.6,4.3c1.6,0.2,3-0.6,3.8-1.9c-1.7-1.7-3.7-3.4-5.9-5.1
							C1541.8,795.8,1541.2,796.7,1541.1,797.8z"/>
						
							<ellipse transform="matrix(0.9985 -5.445663e-02 5.445663e-02 0.9985 -52.1264 86.1326)" class="st3" cx="1554.4" cy="999.6" rx="4" ry="4"/>
						
							<ellipse transform="matrix(9.848439e-02 -0.9951 0.9951 9.848439e-02 552.7612 2305.8882)" class="st3" cx="1549.1" cy="847.9" rx="4" ry="4"/>
					</g>
					<path class="st10" d="M1549.1,746.1c-2.7-9.2-10.1-16.3-14.7-24.5c-1.7-3.1-3.3-6.3-4.6-9.5c-1.2-7.3-1.9-14.7-3.2-21.9
						c-4.2-24.2-16.5-45.6-41.2-53.1c-22.6-6.9-46.4,2.4-60.5,20.8c-0.8,1.1-1,2.1-0.7,3c-0.1,0.1-0.1,0.3-0.1,0.4
						c1.2,15.4,11.4,27.8,24.9,34.6c10.1,5,26.3,6.5,34.9,15c0.2,1.3,0.4,2.7,0.5,4.3c0.6,6.5,1.4,12.8,3.1,19.1
						c2,7.7,19.1,38.9,1.6,38.9c-5.5,0-5.5,8.5,0,8.5c0,0,0.1,0,0.1,0c13.7,3.8,34.5,4.5,46.5-5.1c3.6-0.2,7.1-2.5,9.5-5.8
						C1550.1,763.7,1551.5,754.2,1549.1,746.1z M1461.6,698.6c-16.4-4.9-31.6-15.7-35-33c5,8,11.4,14.9,19.2,20.4
						c8.7,6.1,18.1,8.2,28,11.7c6,2.1,8.4,5.5,9.6,10.3C1477.2,703.2,1468.8,700.7,1461.6,698.6z M1545.3,766.6
						c-1.5,2.9-4.1,6.1-7.2,7.5c2.6-2.8,4.6-6.2,5.7-10.4c3.3-12.3-6.1-22.7-9.8-33.7c-1.2-3.5-2.1-7.1-2.9-10.8
						c2,3.9,4.3,7.8,6.8,11.4c5.1,7.2,10.3,14,10.4,23.3C1548.4,758.3,1547.4,762.7,1545.3,766.6z"/>
				</g>
				<g>
					<linearGradient id="SVGID_7_" gradientUnits="userSpaceOnUse" x1="497.2437" y1="1371.248" x2="875.384" y2="1371.248">
						<stop  offset="0" style="stop-color:#FF956E"/>
						<stop  offset="1" style="stop-color:#E87054"/>
					</linearGradient>
					<path class="st15" d="M497.2,1130.2c0,0,152.9,127.3,160.1,159.4s84.9,266.2,76.7,282.7c-8.2,16.5-13.3,47.4-3.5,57.1
						c9.7,9.7,146.7,12.4,144.9,0c-1.8-12.4-89.2-36.2-103.4-83.9c-14.1-47.7-36.2-281.8-36.2-281.8l-135.2-159L497.2,1130.2z"/>
					<path class="st10" d="M875.4,1629.5c-1.7-11.8-81.9-34.2-101.2-78l-40.7,5.8c1.3,7.8,1.6,13.1,0.6,15.1
						c-8.2,16.5-13.3,47.4-3.5,57.1C740.2,1639.2,877.1,1641.8,875.4,1629.5z"/>
					<linearGradient id="SVGID_8_" gradientUnits="userSpaceOnUse" x1="778.0956" y1="1558.6541" x2="640.8905" y2="1251.5536">
						<stop  offset="0" style="stop-color:#454492"/>
						<stop  offset="1" style="stop-color:#33337C"/>
					</linearGradient>
					<path class="st16" d="M779.7,1561.3c-3.4-4.9-6-10.1-7.7-15.7c-14.1-47.7-36.2-281.8-36.2-281.8L600.8,1105l-0.9-0.1
						l-102.7,25.4c0,0,152.9,127.3,160.1,159.4c6.8,30.6,77.6,244.2,77.3,278.9l0,0C734.6,1568.5,766.2,1579.3,779.7,1561.3z"/>
					<linearGradient id="SVGID_9_" gradientUnits="userSpaceOnUse" x1="649.7" y1="950.9189" x2="723.3973" y2="693.321">
						<stop  offset="0" style="stop-color:#FF956E"/>
						<stop  offset="1" style="stop-color:#E87054"/>
					</linearGradient>
					<path class="st17" d="M557.8,723c0,0-18.1,33.5-26.9,36.6c-8.8,3.1-42,17.7-62.7,69c-20.8,51.2-35,161.8-34.5,199.5
						c0.6,37.7,16.5,111.9,93.1,120.2c76.6,8.2,188.4,33.8,188.4,33.8s-81.2,234.2-94.7,240.7c-13.5,6.5-29.4,21.2-28.9,38.9
						c0.6,17.7,36.5,26.5,43,40.1s49.5,39.5,61.8,35.3s-0.6-18.3-13.5-40.1c-13-21.8-22.4-30-11.8-56
						c10.6-25.9,159-272.1,136.1-306.9s-231.5-71.9-238.5-87.2c-7.1-15.3,8.8-248.5,13.5-262.7c4.7-14.1,26.5-50.1,26.5-50.1
						L557.8,723z"/>
					<linearGradient id="SVGID_10_" gradientUnits="userSpaceOnUse" x1="701.0635" y1="848.1829" x2="498.1075" y2="985.9203">
						<stop  offset="0" style="stop-color:#FF956E"/>
						<stop  offset="1" style="stop-color:#E87054"/>
					</linearGradient>
					<path class="st18" d="M559.1,781.9c0,0,24.1-3.5,34.2,26.5c10,30,33,178.5,40.6,169.6c7.7-8.8,94.8-84.8,98.4-102.5
						s13.5-51.2,17.7-37.7c4.1,13.5-7.1,34.2,4.7,27.1c11.8-7.1,43-33,47.7-20.6c4.7,12.4,1.2,57.1-10,57.7s-29.4-3.5-35.9,2.9
						s-98.4,171.4-137.8,147.8C579.1,1029.3,562,971,562,971L559.1,781.9z"/>
					
						<linearGradient id="SVGID_11_" gradientUnits="userSpaceOnUse" x1="-4241.1768" y1="500.1065" x2="-4186.4683" y2="450.2196" gradientTransform="matrix(-0.9961 -8.848350e-02 -8.848350e-02 0.9961 -3555.8525 -160.3009)">
						<stop  offset="0" style="stop-color:#FF956E"/>
						<stop  offset="1" style="stop-color:#E87054"/>
					</linearGradient>
					<path class="st19" d="M594.7,620.1c0,0,47.2-1.8,55.2,50.7c0.5,3.1,0.8,6,1.2,8.9c3.1,7.6,12.4,31,10.5,32.6
						c-1.9,1.6-8.3,2.4-10.3,2.6c-2.8,25.1-11.7,39.3-18,41.2c-9.3,2.8-78.1-2.7-89-56.1C533.3,646.6,550,620.9,594.7,620.1z"/>
					<path class="st10" d="M578.2,619.4c14.4-5.8,21.8-6.1,37.5-4.7c4.1,0.4,8.1,1.2,11.9,2.4c2.1,0.7,4.3,0.6,6.2-0.4c0,0,0,0,0,0
						c5.9-3,12.2-5.4,18.6-0.5c7,5.4,6.2,19.7-0.2,26c-0.5,0.5-0.9,1.1-1.3,1.7c-4.3,8.1-7.1,4.2-15.7,4.9
						c-6.6,0.5-12.3,1.7-17.1,6.5c-4.5,4.5-8.1,10.4-11.2,15.9c-6.7,11.8-9.1,25.8,0.6,36.8c4.3,4.8,10.5,7.8,16.8,8.6
						c6.5,0.8,12.4-1.9,18.8-2c4.6-0.1,8.1-0.4,8.9,4.3c0.9,5.9-0.6,8.9-2.9,13.7c-3.2,6.4-5.5,13.1-9.2,19.3
						c-2.5,4.2-3.2,5.4-8.3,6.9c-5.9,1.8-11.4,1-16.3-1.7c-5.9-3.3-9.6-3.4-15-7.6c-9.3-7.2-17-16.5-20.2-28c-2-7.3-2-14.9-3-22.3
						c-0.3-2.4-0.7-6.2-3.1-7.6c-3.4-1.9-6.6,2.7-7.7,5.4c-5,11.7-0.9,26.9-13.1,35c-2.3,1.5-6.5,0.3-5.9-3.1
						c2.6-16.1-7.8-29.9-9.1-45.2c-1.2-14.8-0.3-31.4,8.6-43.1C555.9,628.8,564.7,624.9,578.2,619.4z"/>
					<path class="st10" d="M678,1427l-39.6-27.2c0,0-2.2,0.5-5.7,1.4c-5.7,12.5-10.1,20.5-12.4,21.6c-13.5,6.5-29.4,21.2-28.9,38.9
						c0.6,17.7,36.5,26.5,43,40.1c6.5,13.5,49.5,39.5,61.8,35.3s-0.6-18.3-13.5-40.1c-13-21.8-22.4-30-11.8-56
						C672.1,1438.4,674.5,1433.6,678,1427z"/>
					<path class="st11" d="M588.7,1152H405.2v-19.1c0-10.2,8.3-18.5,18.5-18.5h146.5c10.2,0,18.5,8.3,18.5,18.5V1152z"/>
					<path class="st12" d="M594,1631.3h35L589,1175.5h-0.3V1152H405.2v23.8h0l-40.1,455.7h35l22.7-257.8c1-11.6,10.7-20.5,22.4-20.5
						H549c11.6,0,21.4,8.9,22.4,20.5L594,1631.3z M429.2,1302l9.5-107.7c0.9-10.4,9.7-18.4,20.1-18.4h76.7c10.5,0,19.2,8,20.1,18.4
						L565,1302c1,11.8-8.3,22-20.1,22h-95.6C437.4,1324,428.1,1313.8,429.2,1302z"/>
					<linearGradient id="SVGID_12_" gradientUnits="userSpaceOnUse" x1="724.9653" y1="1256.3632" x2="351.5453" y2="1218.6476">
						<stop  offset="0" style="stop-color:#454492"/>
						<stop  offset="1" style="stop-color:#33337C"/>
					</linearGradient>
					<path class="st20" d="M763.1,1268.2c30.4-61.2,54.2-118.5,43.9-134c-23-34.7-231.5-71.9-238.5-87.2c-0.5-1.1-0.9-3.3-1.2-6.3
						c-26.3-1.3-104.2-4.8-133.2-2.4c3.2,39.5,22.4,102.5,92.6,110c76.6,8.2,188.4,33.8,188.4,33.8s-68.8,198.5-90.3,235.1
						c2.4,3.1,5.4,6.1,8.8,8.9c8.2,7.7,20.2,17.2,34.5,23.5c0.3-1.1,0.7-2.2,1-3.4c9.5,3.9,16.6,6.1,16.6,6.1L763.1,1268.2z"/>
					<path class="st3" d="M708.1,906.8c-27.4,28.6-69,65.3-74.2,71.3c-7.7,8.8-30.6-139.6-40.6-169.6c-3.1-9.3-7.5-15.3-12.2-19.3
						c0-0.1,0-0.2,0-0.3c0.2,0,0.3,0.1,0.5,0.1c16.4,4.7,23.4-20.9,7-25.6c-16.3-4.7-31.4-11.5-45.7-20.6c-12.7-8-24.5,8.6-17.5,19
						c-12.9,6-39.7,23-57.4,66.8c-20.8,51.2-35,161.8-34.5,199.5c0.1,7.4,0.8,16.3,2.5,25.8c49.1,14.5,132.4-7,132.4-7
						c-2.1-4.6-2.2-29-1.1-61.1c7.8,18.9,24.3,51,51.1,67c29,17.3,86.1-66.9,117.1-115.5C716.8,932.8,710.3,917.1,708.1,906.8z"/>
				</g>
			</g>
			<path class="st12" d="M1367.8,1045.5v-16.2c0-9.3-7.5-16.8-16.8-16.8H736.3c-9.3,0-16.8,7.5-16.8,16.8v16.2
				c0,9.3,7.5,16.8,16.8,16.8h250.8c11.3,0,20.5,9.2,20.5,20.5v475.7c0,11.3-9.2,20.5-20.5,20.5h-62.5c-7.2,0-13,5.8-13,13v26.6
				c0,7.2,5.8,13,13,13h83h72h83c7.2,0,13-5.8,13-13V1592c0-7.2-5.8-13-13-13h-62.5c-11.3,0-20.5-9.2-20.5-20.5v-475.7
				c0-11.3,9.2-20.5,20.5-20.5H1351C1360.3,1062.3,1367.8,1054.8,1367.8,1045.5z"/>
			<g>
				<path class="st3" d="M1199.9,876.2v51.7c0,12.6,7.7,23.4,18.7,28c4.1,1.7,6.7,5.7,6.7,10.2v27.4c0,6.8-4.6,12.6-11.2,14.2
					c-0.8,0.2-1.6,0.8-1.8,1.6c-0.5,1.7,0.7,3.2,2.3,3.2h10.7h5h5h10.7c1.5,0,2.7-1.3,2.4-2.9c-0.2-1-1-1.8-1.9-2
					c-6.6-1.6-11.2-7.4-11.2-14.2V966c0-4.4,2.6-8.5,6.7-10.2c11-4.6,18.7-15.4,18.7-28v-51.7H1199.9z"/>
				<path class="st4" d="M1204.3,892.1v35c0,14.3,11.6,25.9,25.9,25.9l0,0c14.3,0,25.9-11.6,25.9-25.9v-35H1204.3z"/>
			</g>
			<g>
				<rect x="1035" y="815.3" class="st21" width="16.7" height="126.2"/>
				<rect x="991.7" y="815.3" class="st21" width="16.7" height="126.2"/>
				
					<rect x="1078.3" y="815.3" transform="matrix(-1 -3.770774e-11 3.770774e-11 -1 2173.3333 1756.8368)" class="st21" width="16.7" height="126.2"/>
				<path class="st22" d="M1094.1,934.4H993.2c-8.4,0-15.2,6.8-15.2,15.2v0c0,8.4,6.8,15.2,15.2,15.2h27c8,0,14.4,6.5,14.4,14.4
					v33.3h18v-33.3c0-8,6.5-14.4,14.4-14.4h27c8.4,0,15.2-6.8,15.2-15.2l0,0C1109.3,941.2,1102.5,934.4,1094.1,934.4z"/>
				<path class="st4" d="M1000,790.8c-1.8,7.7-8.3,10.2-8.3,16c0,1.2,0.2,2.4,0.6,3.5c2.5,7.2,12.9,7.2,15.4,0
					c0.4-1.1,0.6-2.3,0.6-3.5C1008.3,801,1001.8,798.5,1000,790.8z"/>
				<path class="st4" d="M1043.3,790.8c-1.8,7.7-8.3,10.2-8.3,16c0,1.2,0.2,2.4,0.6,3.5c2.5,7.2,12.9,7.2,15.4,0
					c0.4-1.1,0.6-2.3,0.6-3.5C1051.6,801,1045.2,798.5,1043.3,790.8z"/>
				<path class="st4" d="M1086.7,790.8c-1.8,7.7-8.3,10.2-8.3,16c0,1.2,0.2,2.4,0.6,3.5c2.5,7.2,12.9,7.2,15.4,0
					c0.4-1.1,0.6-2.3,0.6-3.5C1095,801,1088.5,798.5,1086.7,790.8z"/>
			</g>
		</g>
		<path class="st4" d="M1051.7,0"/>
		<g>
			<rect x="1038" class="st4" width="11.3" height="530.9"/>
			<circle class="st3" cx="1045.4" cy="568.2" r="29.4"/>
			<path class="st4" d="M1074.2,496.9c-5.8-11.5-17.6-18.8-30.5-18.8h0l0,0c-12.9,0-24.7,7.3-30.5,18.8l-26.9,53.4
				c-4.1,8.2,1.8,17.9,11,17.9h46.4h46.4c9.2,0,15.2-9.7,11-17.9L1074.2,496.9z"/>
		</g>
	</g>
</g>
</svg>
