<?xml version="1.0" encoding="utf-8"?>
<!-- Generator: Adobe Illustrator 22.1.0, SVG Export Plug-In . SVG Version: 6.00 Build 0)  -->
<svg version="1.1" id="Layer_1" xmlns="http://www.w3.org/2000/svg" xmlns:xlink="http://www.w3.org/1999/xlink" x="0px" y="0px"
	 width="2000px" height="2000px" viewBox="0 0 2000 2000" style="enable-background:new 0 0 2000 2000;" xml:space="preserve">
<style type="text/css">
	.st0{fill:#FFFFFF;}
	.st1{fill:#FDEEF2;}
	.st2{fill:#FCE0E7;}
	.st3{fill:#FCD4DB;}
	.st4{fill:#FAB4BF;}
	.st5{fill:url(#SVGID_1_);}
	.st6{fill:url(#SVGID_2_);}
	.st7{fill:url(#SVGID_3_);}
	.st8{fill:url(#SVGID_4_);}
	.st9{fill:url(#SVGID_5_);}
	.st10{fill:url(#SVGID_6_);}
	.st11{fill:url(#SVGID_7_);}
	.st12{fill:#DAE9FC;}
	.st13{fill:url(#SVGID_8_);}
	.st14{fill:url(#SVGID_9_);}
	.st15{fill:url(#SVGID_10_);}
	.st16{fill:url(#SVGID_11_);}
	.st17{fill:url(#SVGID_12_);}
	.st18{fill:url(#SVGID_13_);}
	.st19{fill:url(#SVGID_14_);}
	.st20{fill:#1F1F44;}
	.st21{fill:url(#SVGID_15_);}
	.st22{fill:url(#SVGID_16_);}
	.st23{fill:url(#SVGID_17_);}
	.st24{fill:url(#SVGID_18_);}
	.st25{fill:url(#SVGID_19_);}
	.st26{fill:url(#SVGID_20_);}
	.st27{fill:url(#SVGID_21_);}
	.st28{fill:url(#SVGID_22_);}
	.st29{fill:url(#SVGID_23_);}
	.st30{fill:#F45872;}
	.st31{fill:url(#SVGID_24_);}
	.st32{fill:url(#SVGID_25_);}
	.st33{fill:url(#SVGID_26_);}
	.st34{fill:url(#SVGID_27_);}
	.st35{fill:url(#SVGID_28_);}
	.st36{fill:url(#SVGID_29_);}
	.st37{fill:#252B68;}
	.st38{fill:url(#SVGID_30_);}
	.st39{fill:url(#SVGID_31_);}
	.st40{fill:#F7F7F7;}
	.st41{fill:#DFDFE5;}
	.st42{fill:#FFEF5A;}
	.st43{fill:url(#SVGID_32_);}
	.st44{fill:url(#SVGID_33_);}
	.st45{fill:url(#SVGID_34_);}
	.st46{fill:url(#SVGID_35_);}
	.st47{fill:#343884;}
	.st48{fill:#C7E0F4;}
	.st49{fill:#6882BA;}
	.st50{opacity:0.53;fill:#96C4EA;}
	.st51{fill:#AFD1EF;}
</style>
<g>
	<rect class="st0" width="2000" height="2000"/>
	<g>
		<g>
			<path class="st1" d="M1676.3,601.2c-42.7-69.8-108.1-123.5-184.9-151.7c-15.9-5.9-32.5-10.2-49.3-12.7c-16.7-2.5-33.3-4.5-50-4.5
				c-4.5,0-8.9,0.1-13.4,0.4c-45.8,3.1-87.9,16.7-128.9,36.8c-34.1,16.8-65.7,38.1-97.1,59.3c-32.5,21.9-65.3,43.4-100,61.7
				c-15.3,8.1-31,15.6-46.8,22.5c-37.1,15.2-75.5,26.9-114.9,34c17.4,10,35.1,19.3,53.6,27.5c26.5,10.6,54,18.2,82.2,22.7
				c15.7,1.7,31.5,2.6,47.3,2.6c19.6,0,39.2-1.3,58.7-3.5c13-1.9,26-4.2,38.8-7c64.4-13.6,125.7-36.6,186.7-60.7
				c34-13.4,68.6-24.1,105.4-25.7c2.4-0.1,4.8-0.2,7.3-0.2c17.7,0,36.1,2.7,52.6,8.6c21.9,7.9,38.5,17.9,56.5,32.3
				c29.2,23.5,48,56.7,61.2,91.1c13.1,34.1,17.2,71.6,19.9,107.8c5.2,69.2,0.9,138.3-9.6,206.8c-9.7,63.9-26.7,126.8-50.6,186.9
				c-12.6,31.6-26.3,62.8-42.8,92.3c14.3-13.7,27.8-28.2,40.2-43.6c50.3-61.9,87-132.3,111-208.4c10.8-34.2,18.7-69.3,23.9-104.7
				c6.2-42,10.1-84.2,9-126.6C1740.1,760.6,1720.9,674.2,1676.3,601.2z"/>
			<path class="st1" d="M1300,1463.2c-40.8,9.7-82.5,15.7-124.2,19.6c-32.5,3-65,4.2-97.6,4.2c-51.1,0-102.2-3-153.1-6.6
				c-85.3-6.1-170.6-14.2-256.2-14.2c-3.8,0-7.7,0-11.5,0c-0.2,0-0.3,0-0.5,0c-14.1,0-26.6-5.5-36-14.3c-2.8-0.9-5.6-1.8-8.4-2.8
				c-82.3-29.2-147.6-88.2-195.7-160c-25-37.3-43.9-77.9-61.2-119.2c-16.3-39.1-30.6-79.3-42.4-120c-23.9-82.9-34.9-176.3-2.2-258.5
				c15.7-39.5,37.6-77.1,70.5-104.9c34.7-29.3,76.1-49,121-56.6c23.4-4,46.6-5.9,69.9-5.9c19,0,38,1.3,57.2,3.7
				c44.4,5.6,88.3,14.6,132.6,21c20.9,2.6,41.9,3.9,62.8,3.9c17.3,0,34.5-0.9,51.8-2.9c4.7-0.7,9.4-1.5,14.1-2.4
				c-79-45.4-149.8-105.3-234-141.8c-50.2-21.7-103.9-38.3-158.8-38.3c-10.6,0-21.2,0.6-31.8,1.9c-35.1,4.3-67.9,12.7-99.2,30.1
				c-30.4,16.9-56.1,41.9-74.3,71.4c-16.2,26.3-26.5,56.8-32.9,87c-6.8,32-10.9,64.9-13.4,97.5c-4.8,62-0.7,123.8,9,185.1
				c17.9,113.4,62.8,224.1,129.3,317.8c64.7,91.2,147,169.1,243.4,226.2c3.6,2.2,7.3,4.3,10.9,6.3c2.8,8,7.1,15.4,13.5,21.2
				c12.1,11.1,25.4,15.9,41.8,17.3c74.1,6.6,148.5,9.9,222.9,9.9c65.1,0,130.1-2.5,195-7.6c35.4-2.8,70.7-6.3,106-10.6
				c35.6-4.3,71.4-8.6,106.5-16.2c66.6-14.4,129.5-44.4,176-95.3c22.6-24.7,41.2-51.9,57.2-80.7c-41.1,39.2-89.2,71.3-141,94.3
				C1379.2,1439.9,1340.4,1453.7,1300,1463.2z"/>
			<path class="st2" d="M1641.2,734.9c-13.2-34.4-32-67.6-61.2-91.1c-18-14.5-34.6-24.4-56.5-32.3c-16.5-6-34.9-8.6-52.6-8.6
				c-2.4,0-4.9,0.1-7.3,0.2c-36.8,1.5-71.5,12.2-105.4,25.7c-61,24.1-122.3,47.1-186.7,60.7c-12.9,2.7-25.8,5-38.8,7
				c-19.5,2.3-39.1,3.5-58.7,3.5c-15.8,0-31.5-0.8-47.3-2.6c-28.2-4.5-55.6-12.1-82.2-22.7c-18.4-8.2-36.2-17.5-53.6-27.5
				c-4.7,0.8-9.4,1.6-14.1,2.4c-17.3,2-34.5,2.9-51.8,2.9c-20.9,0-41.8-1.4-62.8-3.9c-44.3-6.4-88.2-15.4-132.6-21
				c-19.1-2.4-38.2-3.7-57.2-3.7c-23.3,0-46.6,1.9-69.9,5.9c-44.8,7.7-86.3,27.4-121,56.6c-32.9,27.7-54.8,65.4-70.5,104.9
				c-32.7,82.3-21.7,175.6,2.2,258.5c11.7,40.7,26.1,80.9,42.4,120c17.3,41.4,36.2,81.9,61.2,119.2c48.1,71.8,113.4,130.8,195.7,160
				c2.8,1,5.6,1.9,8.4,2.8c9.4,8.8,21.8,14.3,36,14.3c0.2,0,0.3,0,0.5,0c3.8,0,7.7,0,11.5,0c85.6,0,170.9,8.1,256.2,14.2
				c50.9,3.7,102,6.6,153.1,6.6c32.6,0,65.1-1.2,97.6-4.2c41.7-3.9,83.4-9.9,124.2-19.6c40.4-9.6,79.3-23.3,117.2-40.2
				c51.7-23,99.9-55.1,141-94.3c16.5-29.5,30.2-60.7,42.8-92.3c23.9-60.1,40.9-122.9,50.6-186.9c10.4-68.6,14.7-137.6,9.6-206.8
				C1658.4,806.5,1654.3,769,1641.2,734.9z"/>
		</g>
		<g>
			<path class="st3" d="M1124.3,1634c-37.3-4.6-74.7-6.9-112.2-6.9c-38.6,0-77.1,2.4-115.5,7.2c-59.9,8.5-119.1,21.4-178.6,32.4
				c-57.5,10.6-115.7,19.8-174.2,21.2c-4.6,0.1-9.2,0.2-13.9,0.2c-22.3,0-44.7-1.3-66.8-4.2c-18.9-2.5-38.1-5.2-56.7-9.7
				c14.4,11.8,29.1,23.2,44.3,33.9c20.9,14.7,43,27.7,66.6,37.8c29.7,12.8,58.8,20.9,91,24.5c9.1,1,18.2,1.5,27.3,1.5
				c44.6,0,89.3-11.1,131.4-24.4c53.4-16.9,105.8-38.3,161.4-46.9c10.7-1.2,21.4-1.9,32.2-1.9c8.7,0,17.4,0.4,26.1,1.3
				c71.3,11.5,134.2,50.5,203.6,68.7c23.9,6.2,48.2,9.8,72.6,9.8c17.7,0,35.3-1.9,52.8-6c36.5-8.5,70.3-26.9,101.9-46.6
				c-26-10.2-51.5-22-77.1-33C1271.1,1664.1,1198.4,1644.5,1124.3,1634z"/>
			<path class="st3" d="M1689,1409.6c-12.8-10.5-25.7-19.8-40.8-26.4c-10.9-4.7-21.7-9.2-33.2-12c-11.6-2.9-23.5-4.4-35.3-5.8
				c-16.1-2-32.3-2.5-48.5-2.5c-18.2,0-36.5,0.7-54.6,0.9c-36.4,0.5-72.7,0.9-109.1,1.4c-72.3,0.9-144.5,1.9-216.8,2.8
				c-145,1.9-289.9,3.8-434.9,5.7c-71.7,0.9-143.6,0.3-215.2,3.1c-19.8,0.8-39.5,2.8-59,6.1c-19.5,3.4-37.7,9.8-55.7,17.9
				c-21.8,9.9-42.5,25.8-58.1,44.9c-21.5,18-37.8,41.7-44.5,70.1c-7.5,31.8-3.8,67.9,16.1,94.7c11.3,15.1,23,26.5,39,36.8
				c12,7.8,25.7,13.3,39.1,18.2c9.4,3.5,19,6.3,28.8,8.6c-8.4-6.9-16.6-13.9-24.8-21.1c-19.1-16.8-39.3-33.4-56.1-52.5
				c-24-27.2-39.7-60.9-30.7-97.8c0.8-3.3,1.9-6.7,3.1-9.9c1-3.6,2.4-6.9,4.3-9.6c0.1-0.2,0.3-0.4,0.4-0.6
				c7.9-14.5,20-27.1,34.4-34.7c18.9-13.8,42.6-22.1,65.5-26.3c24.5-4.5,49.4-6.2,74.3-6.4c60.1-0.4,120.1-0.3,180.2-0.5
				c120.3-0.3,240.5-0.7,360.8-1c120.3-0.3,240.5-0.7,360.8-1c59.7-0.2,119.4-0.3,179.1-0.5c3.5,0,7,0,10.5,0
				c23.1,0,46.1,0.5,68.9,5.2c29.3,6,55,21.6,72.3,46.1c16.7,23.9,19.8,57.6,10,84.8c-10.5,29.3-29.5,52.6-54.9,70.3
				c-22.9,16-51.9,23.6-78.9,29.6c-23,5.1-45.9,9.8-67.9,18.3c-35.1,15.8-66.5,38.2-99,58.6c-0.4,0.2-0.8,0.5-1.2,0.7
				c38.9,15.3,78.7,27.4,121.3,29c2.6,0.1,5.1,0.1,7.7,0.1c33.8,0,66.7-8.2,97-23.2c30.3-15,55.1-38.2,75.3-65
				c37.4-49.7,47.9-119.9,24.6-177.9C1731.1,1458.8,1714.3,1430.3,1689,1409.6z"/>
			<path class="st4" d="M1637.1,1417.3c-22.9-4.7-45.8-5.2-68.9-5.2c-3.5,0-7,0-10.5,0c-59.7,0.2-119.4,0.3-179.1,0.5
				c-120.3,0.3-240.5,0.7-360.8,1c-120.3,0.3-240.5,0.7-360.8,1c-60.1,0.2-120.1,0.1-180.2,0.5c-24.9,0.2-49.8,1.9-74.3,6.4
				c-22.9,4.2-46.6,12.5-65.5,26.3c-14.4,7.6-26.5,20.2-34.4,34.7c-0.1,0.2-0.3,0.4-0.4,0.6c-1.9,2.7-3.4,6-4.3,9.6
				c-1.3,3.3-2.3,6.6-3.1,9.9c-9,36.8,6.7,70.5,30.7,97.8c16.8,19.1,37,35.8,56.1,52.5c8.1,7.1,16.4,14.2,24.8,21.1
				c18.7,4.5,37.8,7.2,56.7,9.7c22.2,2.9,44.5,4.2,66.8,4.2c4.6,0,9.2-0.1,13.9-0.2c58.5-1.4,116.8-10.6,174.2-21.2
				c59.5-11,118.7-23.9,178.6-32.4c38.4-4.8,76.9-7.2,115.5-7.2c37.5,0,74.9,2.3,112.2,6.9c74.2,10.5,146.8,30.2,216,58.9
				c25.6,11,51.1,22.7,77.1,33c0.4-0.2,0.8-0.5,1.2-0.7c32.5-20.4,63.9-42.8,99-58.6c22-8.5,44.9-13.2,67.9-18.3
				c27-6,56-13.6,78.9-29.6c25.4-17.7,44.4-41,54.9-70.3c9.8-27.2,6.8-60.9-10-84.8C1692.1,1438.9,1666.4,1423.3,1637.1,1417.3z"/>
		</g>
		<g>
			<linearGradient id="SVGID_1_" gradientUnits="userSpaceOnUse" x1="965.6396" y1="1190.1691" x2="965.6396" y2="989.9689">
				<stop  offset="0" style="stop-color:#DAE9FC"/>
				<stop  offset="1" style="stop-color:#AFD1EF"/>
			</linearGradient>
			<rect x="938.7" y="1002.2" class="st5" width="53.8" height="482.4"/>
			<linearGradient id="SVGID_2_" gradientUnits="userSpaceOnUse" x1="863.4106" y1="871.0148" x2="1284.3005" y2="871.0148">
				<stop  offset="0" style="stop-color:#FC9F90"/>
				<stop  offset="1" style="stop-color:#EF7F73"/>
			</linearGradient>
			<path class="st6" d="M1206.1,762.6c0,0-12.3,173.2-33.5,181.3s-159.7,5.1-179,12.1s-60.7-18.2-76.8-7.1
				c-16.2,11.1-69.8,23.3-48.5,28.3c21.2,5.1,377.6,0,377.6,0l38.4-146.7l-25.6-65.1L1206.1,762.6z"/>
			<linearGradient id="SVGID_3_" gradientUnits="userSpaceOnUse" x1="1208.7842" y1="882.4618" x2="1303.5511" y2="813.4423">
				<stop  offset="0" style="stop-color:#F45872"/>
				<stop  offset="1" style="stop-color:#E23D61"/>
			</linearGradient>
			<path class="st7" d="M1206.1,762.6c0,0-12.3,173.2-33.5,181.3c-11.8,4.5-59.6,5.6-103.2,6.8c-0.4-0.2-0.9-0.4-1.5-0.4
				c-9.7-0.8-19.5-1.4-29.2-1.7c-6.2-0.2-15.2-2-21,1.2c-5.9,3.2-6.5,12.3-7.6,18.1c-1,5.1-0.6,10.1,4.1,13.1
				c5.6,3.6,14,2.5,20.2,2.4c8.5-0.1,17.2-0.6,25.6-2.1c2.6-0.5,4.9-1.2,6.9-2.2c91.1-0.6,179-1.9,179-1.9l38.4-146.7l-25.6-65.1
				L1206.1,762.6z"/>
			<linearGradient id="SVGID_4_" gradientUnits="userSpaceOnUse" x1="916.4821" y1="1261.9312" x2="1213.7881" y2="1261.9312">
				<stop  offset="0" style="stop-color:#FC9F90"/>
				<stop  offset="1" style="stop-color:#EF7F73"/>
			</linearGradient>
			<path class="st8" d="M1153.3,1029.3c0,0-110.2,395.2-114.7,402c-4.5,6.8-64.5,31.8-78.9,34.9c-14.4,3-44.7,11.5-43.2,28.5h161.3
				c11.2,0,21.4-6.9,25.1-17.5c5.2-14.4,7.9-35.9-8-57.2c0,0,117.8-224.9,106.9-253.9c-10.8-28.9,11.9-86.9,11.9-86.9L1153.3,1029.3
				z"/>
			<linearGradient id="SVGID_5_" gradientUnits="userSpaceOnUse" x1="1070.0775" y1="1323.0559" x2="1166.9091" y2="1175.9902">
				<stop  offset="0" style="stop-color:#343884"/>
				<stop  offset="1" style="stop-color:#252B68"/>
			</linearGradient>
			<path class="st9" d="M1153.3,1029.3c0,0-14.4,51.5-32.9,117.6l-82.7,264.6c0,0,39.2,27.8,77.3,10.8c0,0,94.3-217.6,92-255.6
				c-0.4-6.7-3.3-11.6-7.9-15.2c-1.7-30.3,14.7-72.3,14.7-72.3L1153.3,1029.3z"/>
			<linearGradient id="SVGID_6_" gradientUnits="userSpaceOnUse" x1="1413.8884" y1="1306.3167" x2="1413.8884" y2="1194.4083">
				<stop  offset="0" style="stop-color:#343884"/>
				<stop  offset="1" style="stop-color:#252B68"/>
			</linearGradient>
			<path class="st10" d="M1473.3,1182.3l13.5,50.6l-72.3,23.8l-73.4-24.2l13.4-50.2h-23.6l-80.6,302.5h23.6l48.5-181.8l92.2-30.3
				l90.9,29.9l48.6,182.3h23.6l-80.6-302.5H1473.3z M1327,1285.5l10.2-38.3l53.1,17.5L1327,1285.5z M1438.7,1264.7l52-17.1l10,37.6
				L1438.7,1264.7z"/>
			<linearGradient id="SVGID_7_" gradientUnits="userSpaceOnUse" x1="1472.1569" y1="1082.3787" x2="1472.1569" y2="835.4253">
				<stop  offset="0" style="stop-color:#DAE9FC"/>
				<stop  offset="1" style="stop-color:#AFD1EF"/>
			</linearGradient>
			<polygon class="st11" points="1442.2,767.1 1410.3,859.1 1369.6,1069.3 1348.7,1159.1 1487.8,1154.5 1567.2,1105.8 
				1595.6,1020.5 1595.6,802.3 1541.1,767.1 			"/>
			<path class="st12" d="M1530.7,750.7h-67v28.4l10.4,0.7h60.6c32.5-3,59.2,20.8,59.2,45.9l-13.8,192.8c0,18.5-13.5,34.4-31.8,37
				c-28.9,4.1-71.3,20.2-100.5,75.3l-208-64.2v115.9h273c55.4,0,100.3-44.9,100.3-100.3l21.2-249.6
				C1634.3,787,1618.4,750.7,1530.7,750.7z"/>
			<g>
				<linearGradient id="SVGID_8_" gradientUnits="userSpaceOnUse" x1="833.2603" y1="864.2388" x2="803.0132" y2="756.0312">
					<stop  offset="0" style="stop-color:#FC9F90"/>
					<stop  offset="1" style="stop-color:#EF7F73"/>
				</linearGradient>
				<path class="st13" d="M865.6,976.5l-1.2-4.2C862.5,973.9,862.6,975.3,865.6,976.5z"/>
				<linearGradient id="SVGID_9_" gradientUnits="userSpaceOnUse" x1="1232.4849" y1="752.6451" x2="1202.238" y2="644.4381">
					<stop  offset="0" style="stop-color:#FC9F90"/>
					<stop  offset="1" style="stop-color:#EF7F73"/>
				</linearGradient>
				<path class="st14" d="M1400.6,623.3c-40.2,6.1-53.8,32.6-70.5,31.1c-16.7-1.5-26.5-42.5-26.5-42.5l-52.3,22.7
					c0,0,13.6,47,4.5,60.7c-5.5,8.2-22.1,24.5-34.3,36.1c-8.7,8.2-14.2,19.3-15.6,31.1l78.2,68l134,149.9c0,0-185.5,8.7-233.4,14.8
					l-0.1,0.1c-30.4-4.3-42.1,37.7-34.9,65c5.7,45.7,132.5,360.3,134,367.1c1.5,6.8-47.4,35.5-83.8,41.6s-34.1,31.1-34.1,31.1
					s175.9,3.9,196.1-4.4c7.9-3.3,12.9-20.5,8.3-40.2c-4.5-19.7-27.9-38.6-34.8-46.9c-6.8-8.3-47-303-47-303s63.7,0.8,179.7,0
					c116-0.8,90.2-153.2,87.2-183.5C1552.3,891.8,1400.6,623.3,1400.6,623.3z"/>
			</g>
			<linearGradient id="SVGID_10_" gradientUnits="userSpaceOnUse" x1="1248.0126" y1="1208.6571" x2="1439.5903" y2="1068.2283">
				<stop  offset="0" style="stop-color:#343884"/>
				<stop  offset="1" style="stop-color:#252B68"/>
			</linearGradient>
			<path class="st15" d="M1402.2,962.7l15.9,17.8c0,0-185.5,8.7-233.4,14.8l-0.1,0.1c-30.4-4.3-42.1,37.7-34.9,65
				c0.7,5.4,3,14.4,6.6,26.3l0,0c2.5,8.2,5.6,17.7,9.2,28.2l100.3,308.3c0,0,49.4,10.1,80.1-17.1c0,0-24.4-265.2-51.1-273.5
				c0,0,62.6,11.8,178.6,11.1c87.4-0.6,89.1-125.2,85.9-180.9H1402.2z"/>
			<linearGradient id="SVGID_11_" gradientUnits="userSpaceOnUse" x1="592.3637" y1="1340.5881" x2="592.3637" y2="1216.3112">
				<stop  offset="0" style="stop-color:#343884"/>
				<stop  offset="1" style="stop-color:#252B68"/>
			</linearGradient>
			<path class="st16" d="M655.8,1189.4l13.4,50.2l-73.4,24.2l-72.3-23.8l13.5-50.6h-23.6l-80.6,302.5h23.6l48.6-182.3l90.9-29.9
				l92.2,30.3l48.5,181.8l15.6-12.9l-72.7-289.6H655.8z M509.5,1292.1l10-37.6l52,17.1L509.5,1292.1z M620,1271.7l53.1-17.5
				l10.2,38.3L620,1271.7z"/>
			<linearGradient id="SVGID_12_" gradientUnits="userSpaceOnUse" x1="850.0391" y1="1422.2206" x2="841.3534" y2="1397.7792">
				<stop  offset="0" style="stop-color:#F45872"/>
				<stop  offset="1" style="stop-color:#E23D61"/>
			</linearGradient>
			<polygon class="st17" points="827,1387.3 859.6,1462.9 866.3,1461.8 848.3,1387.3 			"/>
			<linearGradient id="SVGID_13_" gradientUnits="userSpaceOnUse" x1="633.8396" y1="1428.339" x2="634.6505" y2="1391.6532">
				<stop  offset="0" style="stop-color:#F45872"/>
				<stop  offset="1" style="stop-color:#E23D61"/>
			</linearGradient>
			<path class="st18" d="M634,1484.6h9.8l2.6-83.1l-23.3-19C623.2,1384.9,634,1484.6,634,1484.6z"/>
			<linearGradient id="SVGID_14_" gradientUnits="userSpaceOnUse" x1="728.1594" y1="769.8367" x2="669.4362" y2="717.1463">
				<stop  offset="0" style="stop-color:#2A2A51"/>
				<stop  offset="1" style="stop-color:#1F1F44"/>
			</linearGradient>
			<path class="st19" d="M712.7,713.3c-5.5-4.1-11.5-6.5-14.1-13.3c-3-7.6-1.7-16.2-0.9-24.1c0.4-4-1.9-6.3-4.8-7
				c-0.4-0.4-1-0.8-1.5-1.1c-9.1-5.2-19.9-9.8-30-4.5c-8.9,4.7-12.5,14.3-13.8,23.8c-3.3,24.4-3.3,51.3,5.7,74.5
				c6.9,17.7,23,42,45.5,34.2c9.2-3.2,14.3-11.8,16.4-20.9c1.2-5.4,1.4-10.9,3-16.2c1.6-5.5,4.6-10.4,5.7-16.1
				C726.1,731.3,721.7,720.2,712.7,713.3z"/>
			<path class="st20" d="M724.2,535.4c-7.5-6.3-18.4,4.5-10.8,10.8c14.5,12.1,19.4,30.9,10.8,48.1c-4.4,8.8,8.8,16.6,13.2,7.7
				C748.9,579.1,744.2,552,724.2,535.4z"/>
			<linearGradient id="SVGID_15_" gradientUnits="userSpaceOnUse" x1="538.0698" y1="1166.0676" x2="538.0698" y2="774.1366">
				<stop  offset="0" style="stop-color:#DAE9FC"/>
				<stop  offset="1" style="stop-color:#AFD1EF"/>
			</linearGradient>
			<polygon class="st21" points="599.9,866.2 568,774.1 469.1,774.1 414.6,809.4 414.6,1027.5 443,1112.8 522.5,1161.5 
				661.5,1166.1 640.7,1076.3 			"/>
			<path class="st12" d="M461.9,1062.4c-18.3-2.6-31.8-18.5-31.8-37l-13.8-192.8c0-25.1,26.7-48.8,59.2-45.9h60.6l10.4-0.7v-28.4
				h-67c-87.7,0-103.6,36.3-103.6,81.8l21.2,249.6c0,55.4,44.9,100.3,100.3,100.3h273v-115.9l-208,64.2
				C533.2,1082.6,490.8,1066.5,461.9,1062.4z"/>
			<linearGradient id="SVGID_16_" gradientUnits="userSpaceOnUse" x1="712.1876" y1="1313.8" x2="739.7924" y2="1159.8223">
				<stop  offset="0" style="stop-color:#F9948A"/>
				<stop  offset="1" style="stop-color:#EA726C"/>
			</linearGradient>
			<path class="st22" d="M788,1062.3l-35.2,13.6c0,0-59,89.1-70.3,168.7c-11.4,79.5-46.6,109.6-55.1,122.7
				c-8.5,13.1-5.7,32.5,18.2,41s28.4,80.6,44.3,81.2c15.9,0.6,52.7,3,55.1,2.3c13.8-4,30.8-26-9.6-31c-22.9-2.8-33.2-66.9-47.5-94.9
				c-11.3-22.1,121.2-233.1,121.2-233.1L788,1062.3z"/>
			<linearGradient id="SVGID_17_" gradientUnits="userSpaceOnUse" x1="869.2686" y1="916.6831" x2="780.8799" y2="913.8982">
				<stop  offset="0" style="stop-color:#F9948A"/>
				<stop  offset="0.5264" style="stop-color:#F1827A"/>
				<stop  offset="1" style="stop-color:#EA726C"/>
			</linearGradient>
			<path class="st23" d="M964.6,970.7c-19.6-11.9-69.9,0-77.5,0s-142.4-44.3-142.4-44.3L686,843.2c0,0-34.9,17.6-29.8,31
				c5.1,13.4,61.3,105.5,61.3,105.5s240.3,2.1,247.1,0.7C971.5,978.9,984.2,982.6,964.6,970.7z"/>
			<linearGradient id="SVGID_18_" gradientUnits="userSpaceOnUse" x1="763.8986" y1="944.7053" x2="680.5426" y2="900.017">
				<stop  offset="0" style="stop-color:#F45872"/>
				<stop  offset="1" style="stop-color:#E23D61"/>
			</linearGradient>
			<path class="st24" d="M786.7,943.1c1.8-6.1-2.8-10.5-8.5-11.5c-11.1-1.9-21.8-1.9-32.7-5.2c-0.3-0.1-0.7-0.2-1-0.2l-58.5-83
				c0,0-34.9,17.6-29.8,31c5.1,13.4,61.3,105.5,61.3,105.5s15.8,0.1,39.3,0.3c1.3,0.1,2.7,0.1,4.1,0c0.4,0,0.8,0,1.2,0
				c0,0,0-0.1,0-0.1c4.2-0.3,8.2-1.4,11-4c2.1-1.9,3.3-4.6,3.2-7.4c0-0.9-2-5.7-3.3-6.7c1.9,0.1,6.9,0.5,7.8,0.2
				c2.5-0.8,4.9-2.8,5.8-5.3c1.2-3.1-0.3-4.6-0.9-7.4c-0.3-1.3-0.9-1.4-0.7-2.8C785.1,945.4,786.4,944.3,786.7,943.1z"/>
			<linearGradient id="SVGID_19_" gradientUnits="userSpaceOnUse" x1="976.7321" y1="1441.1486" x2="478.7708" y2="769.8796">
				<stop  offset="0" style="stop-color:#F9948A"/>
				<stop  offset="1" style="stop-color:#EA726C"/>
			</linearGradient>
			<path class="st25" d="M919.8,1416c-11.9-7.4-36.9-71.6-38.6-77.8s-38.3-299.9-57.9-314.7c-18.3-13.8-169.8-24.4-197.1-36.4
				c-27.3-11.9,42.6-107.4,42.6-107.4c54.2,8.5,46.6-50,44.9-57.4c-1.7-7.4-9.7-53.4-36.9-76.7c-18.2-15.5-2.5-71.6-2.5-71.6
				l-37.3-21.6L610.8,706c0,0-43.7,95.4-42.6,113.6c1.1,18.2-4.5,80.7-79,144.8S420.5,1101.9,517,1136c96.6,34.1,246.5-54,246.5-54
				c-3.4,39.8,83.5,229.5,73.3,264.7c-10.2,35.2-10.2,41.5,17,48.8c27.3,7.4,24.4,62.5,57.4,60.2c32.9-2.3,64.2-6.2,64.2-16.5
				C975.4,1432.9,931.7,1423.4,919.8,1416z"/>
			<linearGradient id="SVGID_20_" gradientUnits="userSpaceOnUse" x1="696.7895" y1="639.4869" x2="665.819" y2="597.7376">
				<stop  offset="0" style="stop-color:#F9948A"/>
				<stop  offset="1" style="stop-color:#EA726C"/>
			</linearGradient>
			<path class="st26" d="M694,537.9c-36.7-6.2-72.2,16.1-84.1,51.4c-4.8,14.1-6.9,29.9-1.9,44.9c14.1,42.3,59.7,56.4,94.4,55.5
				c34.7-0.9,37.4-75.8,25.7-123.4C723.8,548.3,709.8,540.6,694,537.9z"/>
			<linearGradient id="SVGID_21_" gradientUnits="userSpaceOnUse" x1="629.0351" y1="1125.6013" x2="553.6121" y2="969.7026">
				<stop  offset="0" style="stop-color:#343884"/>
				<stop  offset="1" style="stop-color:#252B68"/>
			</linearGradient>
			<path class="st27" d="M723.6,992.1c-15-2.6-28.9,0.2-43.5,3.8c-1.9,0.5-3.8,0.9-5.7,1.3c-22.3-3.3-40.5-6.7-48.4-10.1
				c-14.7-6.4-1.2-37,14.4-63.9l-99.6-17.4c-11.7,18.5-28.3,38.5-51.7,58.6c-74.4,64.2-68.7,137.5,27.8,171.5
				c10.9,3.9,22.6,6.1,34.6,7.2c9.9,2,19.9,3.3,29.8,3.8c30.9,3.3,62.7-4.9,93.5,2c9.2,2.1,15.3-10.7,6.6-15.6
				c-5.8-3.3-4.1-8.9,0.4-12.3c5.7-4.2,11.4-7.1,14.6-13.8c3-6.1,2.9-13,2.1-19.6c-0.7-5.6-3.8-15.5,0.8-20.1
				c4.2-4.3,11.9-4.6,16.6-8.8c4.6-4.1,7.3-10,6.2-16.2c-1.2-6.6-7.3-10.5-8.8-16.9c-1.8-7.6,2.8-14.6,10-17
				C730.8,1006.1,732.5,993.7,723.6,992.1z"/>
			<linearGradient id="SVGID_22_" gradientUnits="userSpaceOnUse" x1="693.8593" y1="793.2285" x2="579.7255" y2="835.127">
				<stop  offset="0" style="stop-color:#F45872"/>
				<stop  offset="1" style="stop-color:#E23D61"/>
			</linearGradient>
			<path class="st28" d="M683.4,752.4c0.6-1.3,1-2.8,1-4.6c0,0.9,6.8-7.1,7.5-8.7c2.1-4.6,2.2-10.1-0.2-14.7
				c-3.7-7.2-13-9.7-20.4-7.5c-2.9,0.9-8.1,3.5-10.7,6.3c-0.9-1.1-2-2-3.1-2.9c-3.4-2.5-7.1-3.3-11.3-3c-1.3,0.1-3.4,0.3-5.2,0.9
				c-1.4-2.4-3.8-4.7-5.2-5.8c-3.5-2.5-7.4-3-11.5-2.5c0-0.4-0.1-0.7-0.1-1.1c-0.3-4.9-1.7-9.5-5.2-13
				c-14.8-15.2-38.4,6.9-22.9,21.2c2,1.9,4.3,2.8,6.5,3c0.2,0.8,0.5,1.6,0.8,2.4c-12.4,28.1-36.1,83.7-35.2,97.1
				c0.9,14.3-2.4,56-40.1,104.4c25.8,10,64.3,23.5,97.2,29.6c12.7-31.8,43.5-73.8,43.5-73.8c54.2,8.5,46.6-50,44.9-57.4
				C712,815.7,705.3,776.8,683.4,752.4z"/>
			<linearGradient id="SVGID_23_" gradientUnits="userSpaceOnUse" x1="660.6259" y1="856.9966" x2="606.8796" y2="846.6949">
				<stop  offset="0" style="stop-color:#F9948A"/>
				<stop  offset="0.5264" style="stop-color:#F1827A"/>
				<stop  offset="1" style="stop-color:#EA726C"/>
			</linearGradient>
			<path class="st29" d="M736.9,952.5c-19.9,6.8-135.2-27.3-156.8-19.9c0,0,12.9-129.5,19.8-150c6.9-20.4,10.9-76.7,10.9-76.7
				s-13.1,4-38.1,6.2c-25,2.3-35.2,21-35.8,60.2c-0.6,39.2-25.6,193.7-8.5,200.5c17,6.8,288.6,7.4,288.6,7.4
				S756.7,945.7,736.9,952.5z"/>
			<path class="st30" d="M923.4,1417.9c-5,1.1-9.1,2.4-11.8,3.8c-16.5,8.5-23.4-17.5-38.2-42.5c-9.9-16.8-26-30.4-36-35.6
				c-0.1,1.1,0,2.3-0.6,3c-23.1,31.7-12.1,51.7,16.6,53c28.2,1.3,24.9,58.3,57.9,56s64.2-6.2,64.2-16.5
				C975.4,1433.5,938.7,1424.9,923.4,1417.9z"/>
			<path class="st30" d="M735.3,1460.7c-2-0.2-3.9-1-5.7-2.1c-6.8,0-13.2,0.2-17.8,0.7c-16.4,1.6-28.4-15.9-38.1-54
				c-7-27.8-23.1-48.2-31.3-57.3c-6.7,9-12.3,15-15,19.3c-8.5,13.1-5.7,32.5,18.2,41c23.9,8.5,28.4,80.6,44.3,81.2
				c15.9,0.6,52.7,3,55.1,2.3C758.7,1487.7,775.7,1465.7,735.3,1460.7z"/>
			<linearGradient id="SVGID_24_" gradientUnits="userSpaceOnUse" x1="573.5494" y1="850.1039" x2="608.4431" y2="765.9451">
				<stop  offset="0" style="stop-color:#F45872"/>
				<stop  offset="1" style="stop-color:#E23D61"/>
			</linearGradient>
			<path class="st31" d="M580.2,931c1.5-14.7,13.2-129.3,19.7-148.4c6.9-20.4,10.9-76.7,10.9-76.7s-13.1,4-38.1,6.2
				c-25,2.3-35.2,21-35.8,60.2c-0.6,39.2-25.6,193.7-8.5,200.5c1.7,0.7,5.8,1.3,11.8,1.8c7.9,2.4,15.9,4.8,23.8,7.2
				c7.3,2.2,19.5,8.8,27,5.4c4.9-2.3,3.5-6.8,5.6-9.4c1.5-1.9,3.7-1.8,4.6-4.7c1-3-0.5-5.1-1-8c-0.9-5.3,6-7.4,5.5-13.9
				c-0.1-0.9-1.3-3.7-0.9-4.5c0.9-2.2,3.5-1.9,5-3.1c1.9-1.4,3.3-2.8,3.6-5.2C615.4,925.5,592.1,928.7,580.2,931z"/>
			<path class="st12" d="M464.7,1062.8c-0.9-0.2-1.8-0.3-2.7-0.4c-14.6-2.1-26.1-12.6-30.2-26.1h-34.6v52.8
				c0,55.4,44.9,100.3,100.3,100.3H562v-10.6C562,1121.6,521.1,1072.1,464.7,1062.8z"/>
			<linearGradient id="SVGID_25_" gradientUnits="userSpaceOnUse" x1="611.1392" y1="739.071" x2="638.3566" y2="587.2535">
				<stop  offset="0" style="stop-color:#2A2A51"/>
				<stop  offset="1" style="stop-color:#1F1F44"/>
			</linearGradient>
			<path class="st32" d="M719.6,531.8c-15.7-8.2-32.7-12.8-50.4-13.9c-14.4-0.9-30.9-0.4-44.3,5.8c-22.4,10.4-46,34.8-48.4,60.3
				c-1.3,13.6,0.6,26.9-4.7,39.9c-3.8,9.5-9.8,18.2-14.3,27.4c-7.3,14.8-19.4,29.8-13.3,47.4c2.4,6.9,7.6,11.3,11.8,17
				c6.1,8.4-1.5,17.5-3.4,26.3c-7.4,34.5,25.4,71.7,61,66.4c4.6-0.7,6.2-4.3,5.6-7.8c0-0.6,0-1.2-0.1-1.9c-1.4-9.7,4-19.3,12.6-23.8
				c8.6-4.5,17.8-6.6,22.7-15.9c4.5-8.4,3.3-18.7,0.4-27.4c-3.9-11.8-9.2-21.1-3.1-33.1c4.7-9.3,10.8-17.7,14-27.8
				c3.3-10.5,3.9-21.8,2.3-32.6c-1.7-11-8-23.3,1-32.7c7.2-7.5,18.1-10.3,27.1-14.9c18.9-9.7,28-31,27.4-51.8
				C723.8,536.2,722.8,533.5,719.6,531.8z"/>
			<g>
				<path class="st30" d="M695.4,992.6c-3,0.5-6,1.1-9,1.8c-2.7,3.3-6.3,6.1-8.8,9.5c-4.4,6-4.5,12.6-2.3,19.5
					c1.4,4.4,3.9,8.5,4.7,13.1c1.4,7.9-3.3,11-8.8,15.1c-5.8,4.3-10.1,9.3-11.7,16.5c-2,9.1,4.8,19,0.4,27.1
					c-4,7.5-14.3,6.2-19.9,12.6c-4.4,5.2-3,10.8-0.6,16.5c3.2,7.4,3.8,12.7-1.1,19.8c-0.5,0.7-1.1,1.4-1.6,2.1
					c2.7-0.1,5.3-0.1,8-0.1c4.1-6.8,5.3-14.5,1.2-23.9c-6.3-14.2,12.4-13,18.9-20.3c5.1-5.8,3.9-13.3,2.2-20.2
					c-3.1-13.5,1.9-19.4,12-27.3c5.6-4.4,8.8-9.8,7.9-17.1c-1.4-11.8-11.2-21.6-1.3-32.3C689.5,1001,693.5,997.5,695.4,992.6z"/>
				<path class="st30" d="M712.5,991.1c-2.3,0-4.6,0.1-6.9,0.2c-1.4,7.3-9.1,12.4-11.3,19.6c-2.7,9.4,3,17.1,5.4,25.8
					c3.8,14.1-9,14.1-16.5,21.3c-5.5,5.2-6.6,12.9-6.4,20.1c0.3,8.8,4.1,20.5-1.8,28.2c-5.1,6.7-16.1,5.2-19.9,13.7
					c-1.3,2.9-1.3,5.6-0.1,8.5c0.7,1.7,2.4,3,3.1,4.6c1.9,4.6,0.4,8-2.5,11.4c-0.4,0.5-0.9,1-1.3,1.6c2.6,0.1,5.2,0.3,7.7,0.6
					c2.1-2.6,3.9-5.2,4.3-8.1c0.6-4.2-1.4-6.2-2.9-9.7c-3.1-7.3,3.6-10,8.8-12.3c17.4-7.5,11.1-26.1,11.3-40.9
					c0.1-6.3,1.7-11.6,7.3-15c3.3-2,7-3.1,10.1-5.5c5.4-4.2,7-10.2,6-16.8c-1.7-10.9-10.5-19.8-3.6-30.7
					C707.1,1002.2,711.8,997.8,712.5,991.1z"/>
			</g>
			<linearGradient id="SVGID_26_" gradientUnits="userSpaceOnUse" x1="1242.0128" y1="595.8967" x2="1271.4865" y2="557.1522">
				<stop  offset="0" style="stop-color:#FC9F90"/>
				<stop  offset="1" style="stop-color:#EF7F73"/>
			</linearGradient>
			<path class="st33" d="M1240,484.1c0,0-46.9,22.1-40.1,69.2c1,7,1.8,14.2,2.6,21.4l3.8,33.5c3.9,28,18.7,49.1,36.2,48.8
				c23-0.4,80.4-17,88.2-58.8C1338.4,556.5,1341.7,480.3,1240,484.1z"/>
			<linearGradient id="SVGID_27_" gradientUnits="userSpaceOnUse" x1="1255.2806" y1="570.4908" x2="1259.1652" y2="493.7238">
				<stop  offset="0" style="stop-color:#2A2A51"/>
				<stop  offset="1" style="stop-color:#1F1F44"/>
			</linearGradient>
			<path class="st34" d="M1314,483.1c-6.4-2.8-13.2-4.8-19.8-6.9c-7.4-2.4-14.9-4.7-22.8-5.1c-13-0.5-26.9,4.8-38.5,10.4
				c-12.4,6-24.2,13.4-37.4,17.4c-3.3,1-6.8,2-10.2,1.7c-2.8-0.2-5.4-1.3-8.2-1.4c-4.8-0.2-8.6,1.6-10.3,6.3
				c-1.8,5.2-0.5,9.7,2.5,13.4c0.4,0.5,0.8,1.1,0.9,1.8c0.1,0.4,0.2,0.7,0.3,1.1c5.9,18.9,27.7,27.5,45.3,18.4
				c12.7-6.6,25.5-12.6,40.5-10.4c19.3,2.8,32.9,18.2,44.8,32.1c0.1,0.1,0.2,0.3,0.3,0.4c1,0.4,2.1,0.6,3.2,0.3
				c1.8-0.5,3.8-0.6,5.9-0.1c5.4,1.1,9.3,5.6,10.4,10.9c2.2,10.6-2.1,25-8.7,33.3c-0.1,0.2-0.3,0.3-0.4,0.4c0.9,3.6,2,7.2,3.1,10.7
				c0,0,0,0,0,0.1c1.1,3.5,5.6,4.7,8.3,2.1c2.8-2.6,6.3-5.9,7.9-7.8c3.1-3.8,12.2-26.6,13-29.2c0-0.1,0.1-0.3,0.1-0.4
				c2.4-11.3,4.6-22.6,4.5-34.1c0-12.9-1.8-27.6-7-39.6C1336.3,496.6,1326.3,488.4,1314,483.1z"/>
			<linearGradient id="SVGID_28_" gradientUnits="userSpaceOnUse" x1="1378.6691" y1="787.9911" x2="1508.144" y2="951.1009">
				<stop  offset="0" style="stop-color:#F45872"/>
				<stop  offset="1" style="stop-color:#E23D61"/>
			</linearGradient>
			<path class="st35" d="M1542.3,887.5c-0.4-0.8-0.9-1.4-1.3-2c-38.4-81.7-140.4-262.2-140.4-262.2c-29.4,4.4-44.6,19.9-57.2,27.2
				c-2.6-6.8-10-10.9-17.3-10.6c-10,0.4-15,8.8-22.4,14.1c-7.3,5.2-16.3,7.5-24.8,9.9c-8.6,2.4-19.6,4-25.1,11.8
				c-4.3,6.2-3.6,14.8,1.9,19.7c-5.5,8.3-22,24.5-34.3,36c-8.7,8.2-14.2,19.3-15.6,31.1l78.2,68l117.8,131.8
				c-4.9,5.9-5.8,15.2-0.7,22.2c9.5,13.2,26.4,8.4,40.2,8.4c32.6-0.2,64.4,10,97.1,9.2c13.4-0.3,31.5-0.7,38.9-13.9
				c6.4-11.4,1.1-22.9-3.2-33.9C1565.1,931.3,1553.8,909.4,1542.3,887.5z"/>
			<linearGradient id="SVGID_29_" gradientUnits="userSpaceOnUse" x1="1118.0236" y1="802.3513" x2="1496.776" y2="802.3513">
				<stop  offset="0" style="stop-color:#FC9F90"/>
				<stop  offset="1" style="stop-color:#EF7F73"/>
			</linearGradient>
			<path class="st36" d="M1393.8,624.6c-21.5,74.8,37.7,283.6,37.7,283.6c-31.3,1-114.2,53.1-215.8,44
				c-49.1-4.4-97.7,28.3-97.7,28.3s236.4,7.9,267.3,4.3c30.9-3.6,100.7-18.4,109.8-23.5c9.1-5.1-22.2-272-36.4-315.3
				C1444.6,602.6,1393.8,624.6,1393.8,624.6z"/>
			<path class="st12" d="M1548.3,1055.4c-0.9,0.1-1.8,0.3-2.7,0.4c-56.4,9.3-97.3,58.8-97.3,115.9v10.6h64.5
				c55.4,0,100.3-44.9,100.3-100.3v-52.8h-34.6C1574.4,1042.8,1562.9,1053.3,1548.3,1055.4z"/>
			<path class="st37" d="M1047.4,1451.8c-12.2-2,2.4-15-9.5-19.7c-8.1,7.8-64.3,31.1-78.1,34.1c-14.4,3-44.7,11.5-43.2,28.5h161.3
				c11.2,0,21.4-6.9,25.1-17.5c4.2-11.6,6.7-27.8-0.7-44.8C1091.9,1437.5,1058.8,1453.7,1047.4,1451.8z"/>
			<path class="st37" d="M1349.9,1423.8c-12.4,9.9-47.3,36.4-66.7,36.4c-20.5,0,8.4-19.8-4.4-26.2c-13.1,11.1-50,30.2-79,35.1
				c-36.4,6.1-34.1,31.1-34.1,31.1s175.9,3.9,196.1-4.4c7.9-3.3,12.9-20.5,8.3-40.2C1367.5,1444,1358.4,1432.8,1349.9,1423.8z"/>
			<path class="st30" d="M1393.8,624.6c-21.5,74.8,37.7,283.6,37.7,283.6c-18.5,0.6-54.9,19-102.5,32.1c-13.6,2.4-27.5,2.8-41.6,3.9
				c-7.4,0.6-15,2-20,7.9c-4.8,5.7-6.5,14.7-6.6,22c-0.4,20.2,18.3,20.8,33.7,20.3c16.8-0.6,33.3-3,49.1-8.5
				c20.2,0.1,35.4-0.2,41.8-0.9c30.9-3.6,100.7-18.4,109.8-23.5c9.1-5.1-22.2-272-36.4-315.3
				C1444.6,602.6,1393.8,624.6,1393.8,624.6z"/>
			<g>
				<linearGradient id="SVGID_30_" gradientUnits="userSpaceOnUse" x1="965.9791" y1="888.9226" x2="968.879" y2="850.8989">
					<stop  offset="0" style="stop-color:#DFDFE5"/>
					<stop  offset="1" style="stop-color:#B2B2BF"/>
				</linearGradient>
				<rect x="959" y="809" class="st38" width="13.2" height="168.7"/>
				<linearGradient id="SVGID_31_" gradientUnits="userSpaceOnUse" x1="965.6395" y1="882.4856" x2="965.6395" y2="855.6257">
					<stop  offset="0" style="stop-color:#DFDFE5"/>
					<stop  offset="1" style="stop-color:#B2B2BF"/>
				</linearGradient>
				<path class="st39" d="M1035.5,874c0,2.3-1.8,4.1-4.1,4.1H900.5c-2.6,0-4.7-2.1-4.7-4.7v-67.7H885v72.4v0c0,6,4.8,10.8,10.8,10.8
					h139.7h0c6,0,10.8-4.8,10.8-10.8v0v-72.4h-10.8V874z"/>
				<path class="st40" d="M971.4,744.9h-11.5c-0.5,0-0.8,0.4-0.8,0.8v58h13.2v-58C972.2,745.3,971.9,744.9,971.4,744.9z"/>
				<path class="st41" d="M972.1,790h-12.9c-1.8,0-3.3,1.5-3.3,3.3V851c0,1.8,1.5,3.3,3.3,3.3h12.9c1.8,0,3.3-1.5,3.3-3.3v-57.7
					C975.4,791.5,973.9,790,972.1,790z"/>
				<path class="st42" d="M965.2,720.2c0,0,2.4,2.4-4.7,11.4c-3.7,4.8-2.2,8.6,0.1,11.2c2.4,2.8,6.6,2.7,9.1,0.1
					C979.2,732.6,965.2,720.2,965.2,720.2z"/>
				<path class="st40" d="M896.2,744.9h-11.5c-0.5,0-0.8,0.4-0.8,0.8v58h13.2v-58C897.1,745.3,896.7,744.9,896.2,744.9z"/>
				<path class="st41" d="M896.9,790H884c-1.8,0-3.3,1.5-3.3,3.3V851c0,1.8,1.5,3.3,3.3,3.3h12.9c1.8,0,3.3-1.5,3.3-3.3v-57.7
					C900.2,791.5,898.8,790,896.9,790z"/>
				<path class="st42" d="M890,720.2c0,0,2.4,2.4-4.7,11.4c-3.7,4.8-2.2,8.6,0.1,11.2c2.4,2.8,6.6,2.7,9.1,0.1
					C904.1,732.6,890,720.2,890,720.2z"/>
				<path class="st40" d="M1047,744.9h-11.5c-0.5,0-0.8,0.4-0.8,0.8v58h13.2v-58C1047.9,745.3,1047.5,744.9,1047,744.9z"/>
				<path class="st41" d="M1047.7,790h-12.9c-1.8,0-3.3,1.5-3.3,3.3V851c0,1.8,1.5,3.3,3.3,3.3h12.9c1.8,0,3.3-1.5,3.3-3.3v-57.7
					C1051,791.5,1049.6,790,1047.7,790z"/>
				<path class="st42" d="M1041.7,720.2c0,0-14,12.4-4.5,22.7c2.5,2.7,6.7,2.7,9.1-0.1c2.3-2.6,3.8-6.5,0.1-11.2
					C1039.3,722.6,1041.7,720.2,1041.7,720.2z"/>
				<path class="st41" d="M1014.5,967.3h-97.8c-1.7,0-3.1,1.4-3.1,3.1v4.3c0,1.7,1.4,3.1,3.1,3.1h97.8c1.7,0,3.1-1.4,3.1-3.1v-4.3
					C1017.6,968.7,1016.2,967.3,1014.5,967.3z"/>
				<path class="st41" d="M996.7,957.5h-62c-1.7,0-3.1,1.4-3.1,3.1v4.3c0,1.7,1.4,3.1,3.1,3.1h62c1.7,0,3.1-1.4,3.1-3.1v-4.3
					C999.7,958.9,998.3,957.5,996.7,957.5z"/>
			</g>
			<g>
				<linearGradient id="SVGID_32_" gradientUnits="userSpaceOnUse" x1="818.396" y1="938.2081" x2="819.7178" y2="920.8757">
					<stop  offset="0" style="stop-color:#DFDFE5"/>
					<stop  offset="1" style="stop-color:#B2B2BF"/>
				</linearGradient>
				<path class="st43" d="M818.3,970.5c-0.6-6.4-1.5-69-1.5-69h-1.4H814c0,0-0.9,62.6-1.5,69s-9.8,7.3-9.8,7.3h12.7h12.7
					C828.1,977.7,818.9,976.8,818.3,970.5z"/>
				<linearGradient id="SVGID_33_" gradientUnits="userSpaceOnUse" x1="816.1354" y1="853.4539" x2="815.4647" y2="874.8077">
					<stop  offset="0" style="stop-color:#F1F2F2"/>
					<stop  offset="1" style="stop-color:#E23D61"/>
				</linearGradient>
				<path class="st44" d="M827.1,816.6h-11.7h-11.7l-6.5,47.3c-5,39.1,11,42,16.5,41.9c1.2,0,2.4,0,3.5,0
					c5.5,0.1,21.4-2.9,16.5-41.9L827.1,816.6z"/>
			</g>
			<g>
				<linearGradient id="SVGID_34_" gradientUnits="userSpaceOnUse" x1="1116.4722" y1="938.2082" x2="1117.7939" y2="920.8758">
					<stop  offset="0" style="stop-color:#DFDFE5"/>
					<stop  offset="1" style="stop-color:#B2B2BF"/>
				</linearGradient>
				<path class="st45" d="M1116.4,970.5c-0.6-6.4-1.5-69-1.5-69h-1.4h-1.4c0,0-0.9,62.6-1.5,69c-0.6,6.4-9.8,7.3-9.8,7.3h12.7h12.7
					C1126.1,977.7,1117,976.8,1116.4,970.5z"/>
				<linearGradient id="SVGID_35_" gradientUnits="userSpaceOnUse" x1="1114.2115" y1="853.4539" x2="1113.5408" y2="874.8077">
					<stop  offset="0" style="stop-color:#F1F2F2"/>
					<stop  offset="1" style="stop-color:#E23D61"/>
				</linearGradient>
				<path class="st46" d="M1125.2,816.6h-11.7h-11.7l-6.5,47.3c-5,39.1,11,42,16.5,41.9c1.2,0,2.4,0,3.5,0
					c5.5,0.1,21.4-2.9,16.5-41.9L1125.2,816.6z"/>
			</g>
			<path class="st12" d="M1342.3,977.7H588.9c-3.8,0-6.9,3.1-6.9,6.9v9.8c0,3.8,3.1,6.9,6.9,6.9h753.4c3.8,0,6.9-3.1,6.9-6.9v-9.8
				C1349.3,980.8,1346.2,977.7,1342.3,977.7z"/>
		</g>
		<g>
			<g>
				<path class="st47" d="M1108,409.4H932.8c-8.4,0-15.3,6.8-15.3,15.3V522c0,8.4,6.8,15.3,15.3,15.3H1108c8.4,0,15.3-6.8,15.3-15.3
					v-97.3C1123.3,416.3,1116.5,409.4,1108,409.4z"/>
				<path class="st48" d="M974.4,319.9H800.4c-8.4,0-15.3,6.8-15.3,15.3v97.3c0,8.4,6.8,15.3,15.3,15.3h117.1v-23
					c0-8.4,6.8-15.3,15.3-15.3h56.9v-74.3C989.7,326.7,982.9,319.9,974.4,319.9z"/>
				<path class="st49" d="M917.5,424.7v23h56.9c8.4,0,15.3-6.8,15.3-15.3v-23h-56.9C924.4,409.4,917.5,416.3,917.5,424.7z"/>
			</g>
			<path class="st50" d="M776.6,503.9c0,0,61.9,0.2,70-56.1h-33.8C812.7,447.7,815.4,487.9,776.6,503.9z"/>
			<path class="st47" d="M1079.6,537.3h-33.8c8.1,56.3,70,56.1,70,56.1C1076.9,577.5,1079.6,537.3,1079.6,537.3z"/>
			<g>
				
					<ellipse transform="matrix(0.3827 -0.9239 0.9239 0.3827 178.7388 1020.3751)" class="st47" cx="852.9" cy="376.4" rx="7.6" ry="7.6"/>
				
					<ellipse transform="matrix(0.9871 -0.1602 0.1602 0.9871 -48.84 147.0061)" class="st47" cx="887.4" cy="376.4" rx="7.6" ry="7.6"/>
				<circle class="st47" cx="921.9" cy="376.4" r="7.6"/>
			</g>
			<g>
				<circle class="st51" cx="985.9" cy="473.3" r="7.6"/>
				
					<ellipse transform="matrix(0.9871 -0.1602 0.1602 0.9871 -62.6463 169.5635)" class="st51" cx="1020.4" cy="473.3" rx="7.6" ry="7.6"/>
				<circle class="st51" cx="1054.9" cy="473.3" r="7.6"/>
			</g>
		</g>
	</g>
</g>
</svg>
