<?xml version="1.0" encoding="utf-8"?>
<!-- Generator: Adobe Illustrator 21.0.0, SVG Export Plug-In . SVG Version: 6.00 Build 0)  -->
<svg version="1.1" id="Layer_1" xmlns="http://www.w3.org/2000/svg" xmlns:xlink="http://www.w3.org/1999/xlink" x="0px" y="0px"
	 viewBox="0 0 1400 980" style="enable-background:new 0 0 1400 980;" xml:space="preserve">
<style type="text/css">
	.st0{fill:url(#SVGID_1_);}
	.st1{fill:#B7512E;}
	.st2{fill:url(#SVGID_2_);}
	.st3{fill:url(#SVGID_3_);}
	.st4{fill:url(#SVGID_4_);}
	.st5{fill:url(#SVGID_5_);}
	.st6{fill:#F2F2F2;}
	.st7{fill:url(#SVGID_6_);}
	.st8{fill:url(#SVGID_7_);}
	.st9{fill:url(#SVGID_8_);}
	.st10{fill:url(#SVGID_9_);}
	.st11{fill:url(#SVGID_10_);}
	.st12{fill:url(#SVGID_11_);}
	.st13{fill:url(#SVGID_12_);}
	.st14{fill:url(#SVGID_13_);}
	.st15{fill:url(#SVGID_14_);}
	.st16{fill:#CCDEE2;}
	.st17{fill:#843A29;}
	.st18{fill:#2D6FBD;}
	.st19{fill:#95462E;}
	.st20{opacity:0.27;fill:#2D6FBD;}
	.st21{fill:#0A9E69;}
	.st22{fill:#0A8958;}
	.st23{fill:#4F4F4F;}
	.st24{fill:#52AF2B;}
	.st25{opacity:0.27;fill:#52AF2B;}
	.st26{opacity:0.27;fill:#0A9E69;}
	.st27{fill:#F68E6E;}
	.st28{fill:#FCD59E;}
	.st29{clip-path:url(#XMLID_4_);fill:#F68E6E;}
	.st30{clip-path:url(#XMLID_5_);fill:#DD3A46;}
	.st31{clip-path:url(#SVGID_16_);fill:#D8D8D8;}
	.st32{clip-path:url(#SVGID_18_);fill:#F2F2F2;}
	.st33{clip-path:url(#SVGID_18_);fill:#F2757E;}
	.st34{fill:#DD7146;}
	.st35{opacity:0.27;fill:#DD7146;}
	.st36{fill:#F13E45;}
	.st37{fill:#6BC8E9;}
	.st38{fill:#DDDDDD;}
	.st39{clip-path:url(#SVGID_20_);fill:#F2757E;}
	.st40{clip-path:url(#SVGID_20_);fill:#FFFFFF;}
	.st41{opacity:0.27;fill:#0A8958;}
	.st42{clip-path:url(#SVGID_22_);fill:#F2F2F2;}
	.st43{clip-path:url(#SVGID_22_);fill:#F2757E;}
	.st44{fill:#E92646;}
	.st45{opacity:0.27;fill:#E92646;}
	.st46{fill:none;stroke:#E92646;stroke-linecap:round;stroke-linejoin:round;}
	.st47{fill:none;stroke:#E92646;stroke-linecap:round;stroke-linejoin:round;stroke-dasharray:1.0227,2.0453;}
	.st48{fill:none;stroke:#E92646;stroke-linecap:round;stroke-linejoin:round;stroke-dasharray:0.9761,1.9521;}
	.st49{fill:none;stroke:#E92646;stroke-width:0.25;stroke-miterlimit:10;}
	.st50{fill:none;}
	.st51{fill:#FFFFFF;}
</style>
<linearGradient id="SVGID_1_" gradientUnits="userSpaceOnUse" x1="702.6085" y1="642.1607" x2="702.6085" y2="151.3287">
	<stop  offset="0" style="stop-color:#6B9EE9"/>
	<stop  offset="1" style="stop-color:#6BC8E9"/>
</linearGradient>
<rect x="2.6" class="st0" width="1400" height="735.6"/>
<g>
	<path class="st1" d="M594.4,395c0.1,33.6-6.3,66.8-8.1,100.1c-1.1,20.8-3.3,40.9-7.9,61c23.4,1.4,47.1,0.8,70.6,1.9
		c11.8,0.6,27.7,4.5,38.7,3.3c0.6-14.4-0.3-26.7-3.1-40.5c-6.1-29.7-6.3-59.7-5.2-90.2c0.4-11.9,3.2-29.1-5-37.7
		c-8.8-9.3-36.8-7.1-48.3-5.3C613.5,389.6,604.3,398.8,594.4,395z"/>
	<g>
		<g>
			<linearGradient id="SVGID_2_" gradientUnits="userSpaceOnUse" x1="629.5231" y1="426.2509" x2="629.5231" y2="281.2155">
				<stop  offset="0" style="stop-color:#006FA0"/>
				<stop  offset="0.1557" style="stop-color:#0F7B9F"/>
				<stop  offset="0.4566" style="stop-color:#258D9D"/>
				<stop  offset="0.7437" style="stop-color:#32979B"/>
				<stop  offset="1" style="stop-color:#379B9B"/>
			</linearGradient>
			<path class="st2" d="M618.7,174.2c-53,34.5-70.7,82.2-103.2,141.5c-18.1,33.1-51.8,57.9-74.4,82.9c32.5,19.1,102,16.1,136.4,18.5
				c38.3,2.7,78.6,0.8,117.1-0.7c35-1.3,90.3,1.6,123.3-14.3c0.8-35-45.1-53.8-61.8-79.6c-20.6-31.8-31.8-66.3-57.2-93.5
				C677.2,205.8,650.8,172.9,618.7,174.2z"/>
			<linearGradient id="SVGID_3_" gradientUnits="userSpaceOnUse" x1="629.5231" y1="303.6815" x2="629.5231" y2="172.6925">
				<stop  offset="0" style="stop-color:#006FA0"/>
				<stop  offset="5.985063e-02" style="stop-color:#0A779F"/>
				<stop  offset="0.2223" style="stop-color:#1E879D"/>
				<stop  offset="0.4069" style="stop-color:#2C929C"/>
				<stop  offset="0.6304" style="stop-color:#34999B"/>
				<stop  offset="1" style="stop-color:#379B9B"/>
			</linearGradient>
			<path class="st3" d="M621.3,106.4c-40.3,26.2-53.7,62.4-78.4,107.5c-13.8,25.1-39.4,44-56.5,63c24.7,14.5,77.5,12.3,103.6,14.1
				c29.1,2,59.7,0.6,89-0.5c26.6-1,68.6,1.2,93.7-10.8c0.6-26.6-34.2-40.9-46.9-60.5c-15.7-24.2-24.2-50.4-43.5-71.1
				C665.8,130.4,645.7,105.4,621.3,106.4z"/>
			<linearGradient id="SVGID_4_" gradientUnits="userSpaceOnUse" x1="625.284" y1="209.3479" x2="625.284" y2="118.8282">
				<stop  offset="0" style="stop-color:#006FA0"/>
				<stop  offset="5.201346e-02" style="stop-color:#0473A0"/>
				<stop  offset="0.4255" style="stop-color:#20899D"/>
				<stop  offset="0.7539" style="stop-color:#31969C"/>
				<stop  offset="1" style="stop-color:#379B9B"/>
			</linearGradient>
			<path class="st4" d="M619,58.2c-30.6,19.9-40.8,47.4-59.5,81.6c-10.5,19.1-29.9,33.4-42.9,47.9c18.8,11,58.9,9.3,78.7,10.7
				c22.1,1.5,45.4,0.4,67.6-0.4c20.2-0.8,52.1,0.9,71.1-8.2c0.5-20.2-26-31.1-35.6-45.9c-11.9-18.4-18.4-38.2-33-54
				C652.8,76.5,637.6,57.4,619,58.2z"/>
			<linearGradient id="SVGID_5_" gradientUnits="userSpaceOnUse" x1="628.5864" y1="144.5336" x2="628.5864" y2="43.1086">
				<stop  offset="0" style="stop-color:#006FA0"/>
				<stop  offset="0.1557" style="stop-color:#0F7B9F"/>
				<stop  offset="0.4566" style="stop-color:#258D9D"/>
				<stop  offset="0.7437" style="stop-color:#32979B"/>
				<stop  offset="1" style="stop-color:#379B9B"/>
			</linearGradient>
			<path class="st5" d="M623.7,19.8c-23.6,15.4-31.5,36.6-46,63.1c-8.1,14.7-23.1,25.8-33.2,37c14.5,8.5,45.5,7.2,60.8,8.3
				c17.1,1.2,35,0.3,52.2-0.3c15.6-0.6,40.3,0.7,55-6.4c0.4-15.6-20.1-24-27.5-35.5c-9.2-14.2-14.2-29.5-25.5-41.7
				C649.9,33.9,638.1,19.2,623.7,19.8z"/>
		</g>
		<g>
			<path class="st6" d="M703,109.1c5.6-1.2,14.6-0.9,12.3,7.5c-0.8,3.1-6.2,6.9-9.2,8.4c-6.4,3.2-17.5,5.5-24.8,5.8
				c-12.8,0.6-25.1,0.6-37.9,1.8c-11.2,1-22-1.2-33.1-1.8c-6.2-0.3-10.9-2.9-17.1-3.1c-8.7-0.2-17.9,1.6-26.4-0.2
				c-5.3-1.2-36.9-4.3-19.3-14.6c6.9-4,11.7,3.6,18.4,5.8c9.7,3.2,15.1,0.1,25.1-0.3c6.5-0.3,13.2,3.6,19.3,2.2
				c5.9-1.4,7.7-4.4,14.4-1.4c7.7,3.4,14.2,6.5,22.9,7.5c8.1,0.9,14.4-3,21.9-5.3c6.8-2.1,14.1,1.8,20.6-0.4
				c3.4-1.2,2.8-3.5,4.8-5.1c1.9-1.5,4.4-1.4,6.2-2.6C702.8,112,702.3,109.6,703,109.1z"/>
			<path class="st6" d="M736.5,180.2c-7-2.1-12.3,5.8-19.3,7.2c-3,0.6-6.1-0.5-9-0.5c-4,0.1-7,1.6-10.8,2.8c-9.9,3-19,4.7-29.5,4.4
				c-7.5-0.2-14.5-2-22-2.2c-6.3-0.2-13-1.7-19.2-2.5c-4.4-0.6-7.9-1.4-12.3,0c-3.7,1.1-7.1,3.9-11,4.6c-6.1,1.2-13.6-0.1-19.9,0.6
				c-2.3,0.2-4.8-0.3-6.7-0.5c-4.8-0.5-9.9,0.6-14.6,0.1c-4.9-0.6-9.2-2.4-14.5-2.7c-4.5-0.2-8.3-0.4-12.2-2.7
				c-4.1-2.4-5.8-8.2-10.9-8.7c-2.7-0.2-10.4,2.1-10.6,5.2c-0.3,7.2,15.8,8.5,20.1,9.6c15.5,4,32.6,7.2,48.8,8.7
				c11.6,1,22.4-0.8,33.8-2.3c7.5-1,17.6-2.2,25-0.8c10.3,2,17.7,3.7,28.7,2.3c10-1.3,19.4-1.8,29.2-4.4c9.6-2.6,28.2-1,35.9-8.4
				C738.3,187.4,739.9,181.2,736.5,180.2z"/>
			<path class="st6" d="M776.8,272.6c-8.5,1.4-15.3,5.1-23.8,5.2c-7.9,0.1-13.5,2.3-21.2,3.4c-13.5,1.8-26.9,3.8-40.4,5.9
				c-9.7,1.5-19-1.3-28.7-2.1c-4.7-0.4-9.3-1.6-13.9-2c-4.7-0.4-5.9,1.7-9.8,2.7c-8,2-14.3-6.7-22.7-2.3c-4.3,2.2-4.5,3.8-9.9,4.1
				c-4.6,0.2-9.1-0.6-13.7-0.2c-4.9,0.4-6.7,0.4-11.7-1.7c-4.7-2-7-3.8-12.3-2.2c-5.1,1.6-2.2,2-8.4,0.4c-4.1-1-6.9,0.1-10.4,0.5
				c-7.5,0.8-22.8,2.2-29.9-0.8c-4.1-1.8-4.3-4.7-9.9-5.1c-3.5-0.3-7.2,1.2-10.7,0c-4-1.4-16.3-12.1-19.9-4.2
				c-2.4,5.3,6.7,10.5,10.3,12.5c8.7,4.8,15.3,4.6,25,5.7c5.2,0.6,10.6,1.7,15.9,2c4,0.3,5.5-1,9.1-1.9c5.7-1.5,12.8-0.5,18.8-0.2
				c4.4,0.2,8.2,1.3,12.4,2.6c6.2,2,9.7,0.6,16.1-0.2c7.8-1,15.3,0.4,23,1.3c7.4,0.8,14.2-0.5,21.6-1.2c9.7-1,18.2,2.8,27.9,2.6
				c10.9-0.2,20.1-5.7,30.5-2c11.7,4.2,22.1,1,34,0.5c11-0.5,21.9-2.6,33-3.5c7.6-0.6,17.1-4.1,20.8-11.7
				C779.3,277.4,779.7,273.5,776.8,272.6z"/>
			<path class="st6" d="M823.2,393.3c-10.4-0.9-8.6,0.7-15,5.6c-2.8,2.1-8.1,3.8-11.8,4.1c-2.7,0.3-6.4,0-9.1-0.4
				c-3.4-0.5-7.3-2.8-10.6-1.5c-7.3,2.9-7.2,8.9-16.6,9.2c-4.3,0.1-8.4-0.1-12.6-0.8c-5.8-0.9-8.2-0.6-13.6,0.7
				c-8.2,1.9-17.5-0.6-25.4-3c-10.5-3.2-19.6,1.4-30.4,2c-10,0.6-18.8,4.7-29.2,4.7c-12,0-20.9-6.1-32.8-2.1
				c-11.6,4-21.9,0.4-33.9-0.6c-7.1-0.6-14.2-2.3-21.4-2c-7,0.3-13.9,2.3-21,2.5c-6.4,0.2-12.4-2.1-18.5-4
				c-7.5-2.4-11.8-0.7-19.8-0.1c-5.4,0.4-10.8,1-16.1-0.7c-6.2-1.9-10.6-4.5-17.4-4.9c-5.6-0.4-10,0.6-15.1-1.8
				c-3.9-1.8-6.4-5.7-10.4-7c-8.5-2.8-9.1,4.2-3,8.5c8.1,5.8,22.5,15.1,32.7,15.2c9.6,0.1,20.1-1.3,29.5,1.2c4.4,1.2,7.6,3.2,12.3,3
				c4.5-0.2,8.8-2.3,13.3-2.6c6.2-0.4,10.4,2.6,16.3,3.9c7.1,1.6,13-0.7,19.9-1.1c12.2-0.8,25.8,3.6,38.1,4.6
				c8.8,0.7,17.1,2.8,26,1.7c8.1-1,15.3-5.1,23.4-5.9c6.5-0.6,13.1,0,19.6-0.5c9.7-0.8,16,0.6,25.3,1.4c22.2,2.1,44.5,4.7,66.4-0.1
				c11.9-2.6,24.4-7.5,36.7-7c11.2,0.4,17.9-0.7,23.8-10.9c1.5-2.7,6.1-12.2-0.9-11.3C821.6,393.3,821.9,393.3,823.2,393.3z"/>
		</g>
	</g>
</g>
<g>
	<path class="st1" d="M1033.4,525.2c0,22.5-4.2,44.8-5.4,67.1c-0.7,14-2.2,27.4-5.3,40.9c15.7,0.9,31.6,0.5,47.3,1.3
		c7.9,0.4,18.6,3,26,2.2c0.4-9.7-0.2-17.9-2.1-27.1c-4.1-19.9-4.2-40-3.5-60.5c0.3-7.9,2.1-19.5-3.3-25.3
		c-5.9-6.2-24.7-4.7-32.4-3.5C1046.3,521.6,1040.1,527.7,1033.4,525.2z"/>
	<g>
		<g>
			<linearGradient id="SVGID_6_" gradientUnits="userSpaceOnUse" x1="1057.0101" y1="546.1732" x2="1057.0101" y2="448.9517">
				<stop  offset="0" style="stop-color:#006FA0"/>
				<stop  offset="0.1557" style="stop-color:#0F7B9F"/>
				<stop  offset="0.4566" style="stop-color:#258D9D"/>
				<stop  offset="0.7437" style="stop-color:#32979B"/>
				<stop  offset="1" style="stop-color:#379B9B"/>
			</linearGradient>
			<path class="st7" d="M1049.7,377.2c-35.6,23.1-47.4,55.1-69.1,94.8c-12.1,22.2-34.7,38.8-49.9,55.6
				c21.8,12.8,68.4,10.8,91.4,12.4c25.7,1.8,52.7,0.5,78.5-0.5c23.5-0.9,60.5,1.1,82.6-9.6c0.6-23.5-30.2-36.1-41.4-53.4
				c-13.8-21.3-21.3-44.4-38.4-62.7C1089,398.4,1071.3,376.3,1049.7,377.2z"/>
			<linearGradient id="SVGID_7_" gradientUnits="userSpaceOnUse" x1="1057.0103" y1="464.0113" x2="1057.0103" y2="376.2056">
				<stop  offset="0" style="stop-color:#006FA0"/>
				<stop  offset="5.985063e-02" style="stop-color:#0A779F"/>
				<stop  offset="0.2223" style="stop-color:#1E879D"/>
				<stop  offset="0.4069" style="stop-color:#2C929C"/>
				<stop  offset="0.6304" style="stop-color:#34999B"/>
				<stop  offset="1" style="stop-color:#379B9B"/>
			</linearGradient>
			<path class="st8" d="M1051.5,331.8c-27,17.6-36,41.9-52.5,72.1c-9.2,16.8-26.4,29.5-37.9,42.2c16.6,9.8,52,8.2,69.5,9.4
				c19.5,1.4,40,0.4,59.6-0.4c17.8-0.7,46,0.8,62.8-7.3c0.4-17.8-22.9-27.4-31.5-40.6c-10.5-16.2-16.2-33.8-29.1-47.6
				C1081.3,347.9,1067.8,331.1,1051.5,331.8z"/>
			<linearGradient id="SVGID_8_" gradientUnits="userSpaceOnUse" x1="1054.1686" y1="400.7767" x2="1054.1686" y2="340.0988">
				<stop  offset="0" style="stop-color:#006FA0"/>
				<stop  offset="5.201346e-02" style="stop-color:#0473A0"/>
				<stop  offset="0.4255" style="stop-color:#20899D"/>
				<stop  offset="0.7539" style="stop-color:#31969C"/>
				<stop  offset="1" style="stop-color:#379B9B"/>
			</linearGradient>
			<path class="st9" d="M1050,299.5c-20.5,13.4-27.3,31.8-39.9,54.7c-7,12.8-20,22.4-28.8,32.1c12.6,7.4,39.5,6.2,52.8,7.2
				c14.8,1,30.4,0.3,45.3-0.3c13.5-0.5,34.9,0.6,47.7-5.5c0.3-13.5-17.4-20.8-23.9-30.8c-8-12.3-12.3-25.6-22.1-36.2
				C1072.6,311.7,1062.4,299,1050,299.5z"/>
			<linearGradient id="SVGID_9_" gradientUnits="userSpaceOnUse" x1="1056.3823" y1="357.3299" x2="1056.3823" y2="289.3416">
				<stop  offset="0" style="stop-color:#006FA0"/>
				<stop  offset="0.1557" style="stop-color:#0F7B9F"/>
				<stop  offset="0.4566" style="stop-color:#258D9D"/>
				<stop  offset="0.7437" style="stop-color:#32979B"/>
				<stop  offset="1" style="stop-color:#379B9B"/>
			</linearGradient>
			<path class="st10" d="M1053.1,273.7c-15.8,10.3-21.1,24.6-30.8,42.3c-5.4,9.9-15.5,17.3-22.2,24.8c9.7,5.7,30.5,4.8,40.8,5.5
				c11.5,0.8,23.5,0.2,35-0.2c10.5-0.4,27,0.5,36.8-4.3c0.3-10.5-13.5-16.1-18.5-23.8c-6.2-9.5-9.5-19.8-17.1-28
				C1070.6,283.2,1062.7,273.3,1053.1,273.7z"/>
		</g>
		<g>
			<path class="st6" d="M1106.3,333.6c3.8-0.8,9.8-0.6,8.3,5c-0.6,2.1-4.2,4.6-6.2,5.6c-4.3,2.1-11.7,3.7-16.6,3.9
				c-8.6,0.4-16.8,0.4-25.4,1.2c-7.5,0.7-14.7-0.8-22.2-1.2c-4.2-0.2-7.3-2-11.5-2.1c-5.8-0.1-12,1.1-17.7-0.2
				c-3.6-0.8-24.7-2.9-12.9-9.8c4.7-2.7,7.8,2.4,12.4,3.9c6.5,2.1,10.1,0.1,16.8-0.2c4.4-0.2,8.9,2.4,12.9,1.4c4-0.9,5.2-2.9,9.7-1
				c5.1,2.3,9.5,4.4,15.4,5c5.4,0.6,9.6-2,14.7-3.5c4.6-1.4,9.4,1.2,13.8-0.3c2.3-0.8,1.9-2.4,3.2-3.4c1.3-1,3-1,4.2-1.7
				C1106.1,335.5,1105.8,333.9,1106.3,333.6z"/>
			<path class="st6" d="M1128.7,381.3c-4.7-1.4-8.2,3.9-13,4.8c-2,0.4-4.1-0.4-6.1-0.3c-2.7,0.1-4.7,1.1-7.2,1.9
				c-6.6,2-12.8,3.1-19.7,3c-5-0.1-9.7-1.3-14.8-1.4c-4.2-0.1-8.7-1.1-12.8-1.7c-2.9-0.4-5.3-0.9-8.2,0c-2.5,0.8-4.8,2.6-7.4,3.1
				c-4.1,0.8-9.1-0.1-13.3,0.4c-1.5,0.2-3.2-0.2-4.5-0.3c-3.2-0.3-6.6,0.4-9.8,0.1c-3.3-0.4-6.2-1.6-9.7-1.8c-3-0.1-5.5-0.3-8.2-1.8
				c-2.7-1.6-3.9-5.5-7.3-5.8c-1.8-0.2-7,1.4-7.1,3.5c-0.2,4.8,10.6,5.7,13.4,6.4c10.4,2.7,21.9,4.9,32.7,5.8
				c7.8,0.7,15-0.5,22.6-1.5c5-0.6,11.8-1.5,16.8-0.5c6.9,1.4,11.8,2.5,19.3,1.5c6.7-0.8,13-1.2,19.6-3c6.5-1.7,18.9-0.6,24-5.7
				C1129.9,386.1,1131,381.9,1128.7,381.3z"/>
			<path class="st6" d="M1155.7,443.2c-5.7,1-10.2,3.4-15.9,3.5c-5.3,0.1-9.1,1.6-14.2,2.2c-9.1,1.2-18,2.6-27.1,4
				c-6.5,1-12.7-0.9-19.2-1.4c-3.1-0.3-6.2-1.1-9.3-1.3c-3.2-0.3-4,1.1-6.6,1.8c-5.4,1.3-9.6-4.5-15.2-1.5c-2.9,1.5-3,2.5-6.6,2.7
				c-3.1,0.2-6.1-0.4-9.2-0.1c-3.3,0.3-4.5,0.3-7.9-1.2c-3.1-1.3-4.7-2.6-8.2-1.5c-3.4,1.1-1.4,1.3-5.6,0.3c-2.8-0.7-4.6,0.1-7,0.3
				c-5,0.5-15.3,1.5-20.1-0.6c-2.8-1.2-2.9-3.1-6.6-3.4c-2.4-0.2-4.8,0.8-7.2,0c-2.7-0.9-10.9-8.1-13.4-2.8
				c-1.6,3.5,4.5,7.1,6.9,8.4c5.9,3.2,10.3,3.1,16.8,3.8c3.5,0.4,7.1,1.1,10.6,1.4c2.7,0.2,3.7-0.7,6.1-1.3c3.8-1,8.6-0.3,12.6-0.1
				c3,0.1,5.5,0.9,8.3,1.7c4.1,1.3,6.5,0.4,10.8-0.2c5.3-0.7,10.2,0.3,15.4,0.9c5,0.6,9.5-0.3,14.5-0.8c6.5-0.7,12.2,1.9,18.7,1.7
				c7.3-0.1,13.5-3.8,20.4-1.3c7.9,2.8,14.8,0.7,22.8,0.4c7.4-0.3,14.7-1.7,22.1-2.4c5.1-0.4,11.5-2.7,13.9-7.9
				C1157.4,446.4,1157.7,443.8,1155.7,443.2z"/>
			<path class="st6" d="M1186.8,524.1c-7-0.6-5.8,0.5-10,3.7c-1.9,1.4-5.4,2.5-7.9,2.8c-1.8,0.2-4.3,0-6.1-0.3
				c-2.3-0.4-4.9-1.9-7.1-1c-4.9,2-4.9,6-11.1,6.2c-2.9,0.1-5.6-0.1-8.4-0.5c-3.9-0.6-5.5-0.4-9.1,0.4c-5.5,1.3-11.7-0.4-17-2
				c-7.1-2.1-13.1,0.9-20.4,1.4c-6.7,0.4-12.6,3.1-19.5,3.1c-8,0-14-4.1-22-1.4c-7.7,2.7-14.7,0.3-22.7-0.4
				c-4.8-0.4-9.5-1.5-14.3-1.3c-4.7,0.2-9.3,1.5-14.1,1.7c-4.3,0.1-8.3-1.4-12.4-2.7c-5-1.6-7.9-0.5-13.3-0.1
				c-3.6,0.3-7.2,0.7-10.8-0.4c-4.1-1.3-7.1-3-11.6-3.3c-3.8-0.3-6.7,0.4-10.1-1.2c-2.6-1.2-4.3-3.8-7-4.7c-5.7-1.9-6.1,2.8-2,5.7
				c5.4,3.9,15.1,10.1,21.9,10.2c6.4,0,13.5-0.9,19.8,0.8c2.9,0.8,5.1,2.1,8.3,2c3-0.1,5.9-1.6,8.9-1.8c4.1-0.3,7,1.7,10.9,2.6
				c4.8,1.1,8.7-0.4,13.4-0.7c8.2-0.5,17.3,2.4,25.5,3.1c5.9,0.5,11.4,1.9,17.4,1.2c5.4-0.6,10.3-3.4,15.7-4c4.3-0.4,8.8,0,13.1-0.3
				c6.5-0.5,10.7,0.4,16.9,1c14.9,1.4,29.8,3.1,44.5,0c8-1.7,16.4-5,24.6-4.7c7.5,0.3,12-0.5,15.9-7.3c1-1.8,4.1-8.2-0.6-7.6
				C1185.7,524.1,1186,524.1,1186.8,524.1z"/>
		</g>
	</g>
</g>
<g>
	<path class="st1" d="M161.3,564.3c0,19.8-3.7,39.4-4.8,59c-0.7,12.3-1.9,24.1-4.6,36c13.8,0.8,27.8,0.5,41.6,1.1
		c7,0.3,16.4,2.7,22.9,2c0.3-8.5-0.2-15.8-1.8-23.9c-3.6-17.5-3.7-35.2-3.1-53.2c0.2-7,1.9-17.2-2.9-22.2
		c-5.2-5.5-21.7-4.2-28.5-3.1C172.6,561.2,167.1,566.5,161.3,564.3z"/>
	<g>
		<g>
			<linearGradient id="SVGID_10_" gradientUnits="userSpaceOnUse" x1="182.0187" y1="582.754" x2="182.0187" y2="497.212">
				<stop  offset="0" style="stop-color:#006FA0"/>
				<stop  offset="0.1557" style="stop-color:#0F7B9F"/>
				<stop  offset="0.4566" style="stop-color:#258D9D"/>
				<stop  offset="0.7437" style="stop-color:#32979B"/>
				<stop  offset="1" style="stop-color:#379B9B"/>
			</linearGradient>
			<path class="st11" d="M175.6,434.1c-31.3,20.4-41.7,48.5-60.8,83.4c-10.7,19.5-30.6,34.2-43.9,48.9c19.2,11.3,60.2,9.5,80.4,10.9
				c22.6,1.6,46.4,0.5,69.1-0.4c20.6-0.8,53.3,1,72.7-8.4c0.5-20.6-26.6-31.7-36.4-47c-12.2-18.8-18.8-39.1-33.7-55.2
				C210.2,452.8,194.6,433.3,175.6,434.1z"/>
			<linearGradient id="SVGID_11_" gradientUnits="userSpaceOnUse" x1="182.0187" y1="510.4625" x2="182.0187" y2="433.205">
				<stop  offset="0" style="stop-color:#006FA0"/>
				<stop  offset="5.985063e-02" style="stop-color:#0A779F"/>
				<stop  offset="0.2223" style="stop-color:#1E879D"/>
				<stop  offset="0.4069" style="stop-color:#2C929C"/>
				<stop  offset="0.6304" style="stop-color:#34999B"/>
				<stop  offset="1" style="stop-color:#379B9B"/>
			</linearGradient>
			<path class="st12" d="M177.2,394.1c-23.8,15.5-31.7,36.8-46.2,63.4c-8.1,14.8-23.2,26-33.3,37.2c14.6,8.6,45.7,7.2,61.1,8.3
				c17.2,1.2,35.2,0.3,52.5-0.3c15.7-0.6,40.5,0.7,55.2-6.4c0.4-15.7-20.2-24.1-27.7-35.7c-9.2-14.3-14.3-29.7-25.6-41.9
				C203.4,408.3,191.5,393.5,177.2,394.1z"/>
			<linearGradient id="SVGID_12_" gradientUnits="userSpaceOnUse" x1="179.5184" y1="454.8245" x2="179.5184" y2="401.4358">
				<stop  offset="0" style="stop-color:#006FA0"/>
				<stop  offset="5.201346e-02" style="stop-color:#0473A0"/>
				<stop  offset="0.4255" style="stop-color:#20899D"/>
				<stop  offset="0.7539" style="stop-color:#31969C"/>
				<stop  offset="1" style="stop-color:#379B9B"/>
			</linearGradient>
			<path class="st13" d="M175.8,365.7c-18,11.7-24,28-35.1,48.1c-6.2,11.2-17.6,19.7-25.3,28.2c11.1,6.5,34.7,5.5,46.4,6.3
				c13,0.9,26.8,0.3,39.8-0.2c11.9-0.5,30.7,0.6,42-4.9c0.3-11.9-15.3-18.3-21-27.1c-7-10.8-10.8-22.6-19.5-31.8
				C195.8,376.5,186.8,365.2,175.8,365.7z"/>
			<linearGradient id="SVGID_13_" gradientUnits="userSpaceOnUse" x1="181.4662" y1="416.5969" x2="181.4662" y2="356.7763">
				<stop  offset="0" style="stop-color:#006FA0"/>
				<stop  offset="0.1557" style="stop-color:#0F7B9F"/>
				<stop  offset="0.4566" style="stop-color:#258D9D"/>
				<stop  offset="0.7437" style="stop-color:#32979B"/>
				<stop  offset="1" style="stop-color:#379B9B"/>
			</linearGradient>
			<path class="st14" d="M178.6,343c-13.9,9.1-18.6,21.6-27.1,37.2c-4.8,8.7-13.6,15.2-19.6,21.8c8.5,5,26.8,4.2,35.9,4.9
				c10.1,0.7,20.7,0.2,30.8-0.2c9.2-0.4,23.7,0.4,32.4-3.8c0.2-9.2-11.8-14.2-16.2-20.9c-5.4-8.4-8.4-17.4-15-24.6
				C194,351.3,187.1,342.7,178.6,343z"/>
		</g>
		<g>
			<path class="st6" d="M225.4,395.7c3.3-0.7,8.6-0.5,7.3,4.4c-0.5,1.8-3.7,4.1-5.4,5c-3.8,1.9-10.3,3.2-14.6,3.4
				c-7.5,0.3-14.8,0.4-22.4,1.1c-6.6,0.6-13-0.7-19.6-1.1c-3.7-0.2-6.4-1.7-10.1-1.8c-5.1-0.1-10.6,1-15.5-0.1
				c-3.1-0.7-21.8-2.6-11.4-8.6c4.1-2.4,6.9,2.1,10.9,3.4c5.7,1.9,8.9,0.1,14.8-0.2c3.8-0.2,7.8,2.1,11.4,1.3
				c3.5-0.8,4.6-2.6,8.5-0.8c4.5,2,8.4,3.9,13.5,4.4c4.8,0.5,8.5-1.7,12.9-3.1c4-1.3,8.3,1.1,12.1-0.2c2-0.7,1.7-2.1,2.8-3
				c1.1-0.9,2.6-0.8,3.7-1.5C225.2,397.4,225,396,225.4,395.7z"/>
			<path class="st6" d="M245.1,437.7c-4.2-1.3-7.3,3.4-11.4,4.2c-1.8,0.3-3.6-0.3-5.3-0.3c-2.4,0.1-4.1,1-6.4,1.6
				c-5.8,1.8-11.2,2.8-17.4,2.6c-4.4-0.1-8.5-1.2-13-1.3c-3.7-0.1-7.7-1-11.3-1.5c-2.6-0.3-4.7-0.8-7.2,0c-2.2,0.7-4.2,2.3-6.5,2.7
				c-3.6,0.7-8,0-11.7,0.3c-1.4,0.1-2.8-0.2-4-0.3c-2.8-0.3-5.8,0.4-8.6,0c-2.9-0.3-5.4-1.4-8.5-1.6c-2.6-0.1-4.9-0.2-7.2-1.6
				c-2.4-1.4-3.4-4.9-6.4-5.1c-1.6-0.1-6.2,1.2-6.2,3.1c-0.2,4.3,9.3,5,11.8,5.6c9.1,2.3,19.2,4.3,28.8,5.1
				c6.9,0.6,13.2-0.5,19.9-1.3c4.4-0.6,10.4-1.3,14.7-0.5c6.1,1.2,10.4,2.2,17,1.3c5.9-0.7,11.4-1.1,17.2-2.6
				c5.7-1.5,16.6-0.6,21.1-5C246.2,441.9,247.1,438.2,245.1,437.7z"/>
			<path class="st6" d="M268.9,492.1c-5,0.9-9,3-14,3c-4.6,0-8,1.4-12.5,2c-8,1.1-15.8,2.3-23.8,3.5c-5.8,0.9-11.2-0.8-16.9-1.2
				c-2.7-0.2-5.5-0.9-8.2-1.2c-2.8-0.2-3.5,1-5.8,1.6c-4.7,1.2-8.4-3.9-13.4-1.4c-2.5,1.3-2.7,2.2-5.9,2.4c-2.7,0.1-5.4-0.4-8.1-0.1
				c-2.9,0.2-3.9,0.2-6.9-1c-2.8-1.2-4.1-2.3-7.2-1.3c-3,0.9-1.3,1.2-5,0.3c-2.4-0.6-4.1,0.1-6.1,0.3c-4.4,0.5-13.5,1.3-17.6-0.5
				c-2.4-1-2.5-2.7-5.8-3c-2.1-0.1-4.2,0.7-6.3,0c-2.4-0.8-9.6-7.1-11.8-2.5c-1.4,3.1,4,6.2,6.1,7.4c5.2,2.9,9.1,2.7,14.8,3.3
				c3.1,0.3,6.3,1,9.4,1.2c2.3,0.2,3.2-0.6,5.4-1.1c3.4-0.9,7.5-0.3,11.1-0.1c2.6,0.1,4.9,0.7,7.3,1.5c3.6,1.2,5.7,0.3,9.5-0.1
				c4.6-0.6,9,0.2,13.5,0.8c4.4,0.5,8.4-0.3,12.7-0.7c5.7-0.6,10.7,1.6,16.5,1.5c6.4-0.1,11.8-3.4,18-1.2c6.9,2.5,13.1,0.6,20.1,0.3
				c6.5-0.3,12.9-1.5,19.5-2.1c4.5-0.4,10.1-2.4,12.3-6.9C270.4,495,270.6,492.7,268.9,492.1z"/>
			<path class="st6" d="M296.2,563.3c-6.1-0.5-5.1,0.4-8.8,3.3c-1.6,1.3-4.8,2.2-6.9,2.4c-1.6,0.2-3.7,0-5.4-0.2
				c-2-0.3-4.3-1.7-6.3-0.9c-4.3,1.7-4.3,5.3-9.8,5.4c-2.6,0.1-4.9-0.1-7.4-0.5c-3.4-0.5-4.9-0.3-8,0.4c-4.8,1.1-10.3-0.3-15-1.8
				c-6.2-1.9-11.6,0.8-17.9,1.2c-5.9,0.4-11.1,2.7-17.2,2.8c-7.1,0-12.4-3.6-19.4-1.2c-6.8,2.3-12.9,0.2-20-0.4
				c-4.2-0.4-8.4-1.3-12.6-1.2c-4.1,0.1-8.2,1.3-12.4,1.5c-3.8,0.1-7.3-1.2-10.9-2.4c-4.4-1.4-7-0.4-11.7-0.1
				c-3.2,0.3-6.4,0.6-9.5-0.4c-3.6-1.1-6.3-2.6-10.2-2.9c-3.3-0.2-5.9,0.4-8.9-1.1c-2.3-1.1-3.8-3.4-6.1-4.1c-5-1.6-5.4,2.5-1.8,5
				c4.8,3.4,13.3,8.9,19.3,8.9c5.7,0,11.9-0.8,17.4,0.7c2.6,0.7,4.5,1.9,7.3,1.8c2.7-0.1,5.2-1.4,7.8-1.5c3.6-0.2,6.1,1.5,9.6,2.3
				c4.2,0.9,7.7-0.4,11.8-0.7c7.2-0.5,15.2,2.1,22.4,2.7c5.2,0.4,10.1,1.6,15.3,1c4.8-0.6,9-3,13.8-3.5c3.8-0.4,7.7,0,11.6-0.3
				c5.7-0.5,9.4,0.3,14.9,0.9c13.1,1.2,26.2,2.8,39.2,0c7-1.5,14.4-4.4,21.6-4.1c6.6,0.3,10.5-0.4,14-6.5c0.9-1.6,3.6-7.2-0.5-6.7
				C295.3,563.3,295.5,563.3,296.2,563.3z"/>
		</g>
	</g>
</g>
<linearGradient id="SVGID_14_" gradientUnits="userSpaceOnUse" x1="702.6085" y1="689.5159" x2="702.6085" y2="957.1611">
	<stop  offset="0" style="stop-color:#E8E8E8"/>
	<stop  offset="1" style="stop-color:#D1D1D1"/>
</linearGradient>
<path class="st15" d="M1402.6,735.6c0,0-403.6-208.3-679.1-208.3C453.5,527.4,2.6,763.5,2.6,763.5v217.3L1400,980L1402.6,735.6z"/>
<path class="st6" d="M1400,980l2.6-340.2c0,0-217-78.7-567,103.7s-650.1-152.9-694-184.1c-80-57-139-44.4-139-44.4v465.9L1400,980z"
	/>
<g>
	<ellipse class="st16" cx="421.7" cy="865.5" rx="92.5" ry="33.5"/>
	<ellipse class="st16" cx="727.6" cy="865.5" rx="92.5" ry="33.5"/>
	<ellipse class="st16" cx="990.6" cy="865.5" rx="92.5" ry="33.5"/>
</g>
<g>
	<g>
		<g>
			<path class="st17" d="M409.1,855.4c0,0-1.1,1.1-2.7,2.2c0,0,0,0,0,0c-1.4,0.9-3,1.8-4.5,2h-39.8c0,0-1.9-2-2.4-4.9c0,0,0,0,0,0
				l6.1,0.1l5.7,0.1L409.1,855.4z"/>
			<path class="st17" d="M493.8,854.7c0,0.1,0,0.1,0,0.2c0,0,0,0,0,0c-0.6,2.8-2.4,4.7-2.4,4.7h-39.5L448,858l-0.9-0.4
				c0,0-0.1,0-0.1-0.1c-1.2-0.8-2.1-1.7-2.5-2c0,0-0.1-0.1-0.1-0.1c0,0,0,0,0,0h0l6-0.1L493.8,854.7z"/>
			<g>
				<g>
					<path class="st17" d="M410.4,851L410.4,851l-38.4-5.6l-4.9-0.7l-4.4-0.6c0,0,0.5-0.6,1.2-1.7c0,0,0,0,0,0h0
						c1.6-2.3,4.4-6.5,5.7-10c1.2-3,1.5-5.8,1.7-7c0-0.4,0.1-0.6,0.1-0.6s0.7,0.7,2.8,1.5c0.4,0.1,0.8,0.3,1.2,0.4
						c2.4,0.7,6.2,1.3,11.9,1.3c18,0,23-4.2,23-4.2l0,0.1l0,0.1c0,0.1,0,0.2,0,0.3l0,0.2c0,0.2,0,0.4-0.1,0.7
						c-0.3,3.4-1.1,12-1,16.2C409.3,843.9,410.4,851,410.4,851z"/>
					<path class="st18" d="M424.7,677.6l-3,30.5l-11.5,115.8l0,0.1l0,0.1l0,0.3l0,0.2l-0.1,0.7c0,0,0,0,0,0
						c-0.4,1.4-10.4,4.8-22.8,4.8c-5,0-9.1-1-11.9-2c-0.5-0.2-3.9-2.1-4.1-2.6c0-0.1,0-0.1,0-0.2l-5.8-157.7L424.7,677.6z"/>
				</g>
				<path class="st19" d="M409.1,855.4c-0.9,1.1-2,1.8-2.7,2.2c0,0,0,0,0,0c-0.5,0.3-0.8,0.4-0.8,0.4l-34.2-0.3l-4,0l-6.5-0.1
					c0,0-0.5-0.2-1.2-2.9c0,0,0,0,0,0c-0.1-0.3-0.2-0.6-0.3-1c-1.5-6.1,4.2-11,4.5-11.3c0,0,0,0,0,0h0c2.9-1.3,5.8-2.3,8.5-2.8
					c0,0,0,0,0,0c21.4-4.5,37.7,10.5,37.7,10.5c0.1,0.3,0.1,0.6,0.2,0.9C410.7,852.8,410,854.3,409.1,855.4z"/>
			</g>
		</g>
		<path class="st20" d="M421.7,708L421.7,708l-0.3,3.3l-2.9,26.8c-10.9-0.7-37.4,1.6-40.8,10.7c-3.9,10.6-2.6,68.4-2.3,77.9
			c0,0.9,0,1.3,0,1.3s-5.8,6.2-2.9,11.5c0,0,0,0,0,0c-0.3,0.2-3.3,2.1-5.4,5.2c-1.8,2.6-3,6.1-1.3,10.1c0.4,0.9,0.9,1.9,1.6,2.8
			c0.5,0.7,1,1.3,1.7,2h-7c0,0-1.9-2-2.4-4.9c0,0,0,0,0,0c-0.1-0.3-0.2-0.6-0.3-1c-1.5-6.1,4.2-11,4.5-11.3c0,0,0,0,0,0h0
			c1.6-2.3,4.4-6.5,5.7-10c1.2-3,1.5-5.8,1.7-7c0-0.1,0-0.1,0-0.2l-4.2-114.5L421.7,708z"/>
		<g>
			<g>
				<path class="st17" d="M490.8,844.1l-3.8,0.5l-37,5.4l-6.9,1c0-0.2,0-0.3,0.1-0.5c0.3-1.7,1.1-7,1.2-9.1c0.2-4.1-0.6-12.8-1-16.2
					l0-0.3c0-0.2,0-0.4,0-0.6l0-0.2c0-0.1,0-0.2,0-0.2c0,0,0-0.1,0-0.1l0,0c0.2,0.2,2.5,1.9,8.9,3.1c3.4,0.6,8,1.1,14.1,1.1
					c5.5,0,9.1-0.6,11.6-1.2c3.3-0.9,4.3-2,4.3-2s0,0.2,0,0.6c0.1,1.2,0.5,4,1.7,6.9c1.3,3.5,4.1,7.7,5.7,10h0c0,0,0,0,0,0
					C490.3,843.4,490.8,844.1,490.8,844.1z"/>
				<path class="st18" d="M488,667.5l-1.4,37.6l-0.1,3.8l-1,27.8l-0.3,7.3l-3,81.3c0,0.1,0,0.1,0,0.2c-0.3,0.7-1.9,1.8-4.5,2.8
					c-2.8,1-6.7,1.9-11.4,1.9c-5.5,0-10.5-0.7-14.4-1.5c-5.1-1.1-8.4-2.6-8.4-3.3l0-0.3c0-0.2,0-0.4,0-0.6l0-0.2c0-0.1,0-0.2,0-0.2
					v-0.1l0,0l-8.5-85.8l-1.8-18.6l-1.7-17.5l-2.4-24.3L488,667.5z"/>
			</g>
			<path class="st19" d="M494.1,853.7c-0.1,0.5-0.2,0.9-0.3,1.2c0,0,0,0,0,0c-0.7,2.5-1.1,2.6-1.1,2.6l-4.4,0l-36.9,0.3h-0.2l-3.1,0
				h-0.1c0,0-0.3-0.1-0.8-0.4c0,0-0.1,0-0.1-0.1c-0.7-0.4-1.7-1-2.5-2c0,0-0.1-0.1-0.1-0.1c0,0,0,0,0,0c-0.9-1.1-1.6-2.5-1.4-4.4
				c0-0.2,0-0.3,0.1-0.5c0-0.1,0.1-0.3,0.1-0.4c0,0,2.4-2.3,6.7-4.8c6.8-4,18.3-8.8,31.8-5.6c0,0,0,0,0,0c2.6,0.6,5.2,1.5,7.9,2.7h0
				c0,0,0,0,0,0C489.9,842.7,495.6,847.6,494.1,853.7z"/>
		</g>
		<path class="st20" d="M494.1,853.7c-0.1,0.5-0.2,0.9-0.3,1.2c0,0,0,0,0,0c-0.7,2.5-1.1,2.6-1.1,2.6l-4.4,0c3-5.2,1.2-9.8-1.3-13
			c-2.2-2.9-5-4.7-5.3-4.9c0,0,0,0,0,0c0.5-8.1-4-11.5-4-11.5s0-0.5,0.1-1.4c0.9-10,6.1-70.9-3-82.8c-8-10.5-31.5-7.5-40.1-6.1
			l-1.8-18.6l53.6-10.5l-1,27.8l-0.3,7.3l-3,81.3c0,0.1,0,0.1,0,0.2c0.1,1.2,0.5,4,1.7,6.9c1.3,3.5,4.1,7.7,5.7,10h0c0,0,0,0,0,0
			C489.9,842.7,495.6,847.6,494.1,853.7z"/>
		<g>
			<path class="st21" d="M495.5,713c-0.4,2-0.8,3.5-1.3,4.5c-6.2,12.2-100.2,18-129.7,5.6c-0.3-0.1-0.6-0.3-0.9-0.4
				c-3.6-1.6-6.1-3.5-7.2-5.8c0,0,0-1.4-0.1-3.9c-0.3-16.3-1.1-80.1,4.1-123.3c2.3-18.6,5.6-33.4,10.6-38.8c1.4-1.6,3.3-3,5.6-4.3
				c2.9-1.7,6.4-3.3,10.4-4.6c25-8.4,67.9-8.8,88.7,2.7c3,1.6,5.6,3.6,7.5,5.7c2.7,10,5.1,25,7.2,41.8v0
				C496.1,636.6,498.9,694.5,495.5,713z"/>
			<g>
				<path class="st21" d="M488.4,530.2c0,0,12.8,8.9,16.8,14.9c7.6,11.6,29.7,55.5,29.7,55.5l-21.8,18.2l-50.5-59.3L488.4,530.2z"/>
				<path class="st21" d="M377.2,545.1l-0.5,1.5l-5.5,16.1l-9.1,26.3c0,0-0.6,0.3-1.6,0.8c-7.4,3.8-39,18.8-62.8,16.6
					c-6.8-0.6-13.5-3.2-19.8-6.6C259,589.3,244,570.5,244,570.5l13.4-21.5c0,0,14.7,16.3,36.9,22c15.2,3.9,28.4-0.3,38.8-7
					c0.3-0.2,0.5-0.3,0.8-0.5c11.6-7.6,19.7-18,23.4-23.5c1.5-2.2,2.3-3.6,2.3-3.6l4.3-0.5L377.2,545.1z"/>
			</g>
		</g>
		<rect x="418.1" y="567.7" class="st22" width="7.3" height="159.8"/>
		<rect x="420.3" y="567.7" class="st23" width="2.8" height="159.8"/>
		<path class="st22" d="M493,721.7c-8.8,5.2-79.9,24.9-129.3,3.5c-1.8-0.8-3.6-1.6-5.3-2.5c-1.7-0.9-3.1-2.4-3.8-4.2
			c-0.7-1.8-0.8-4,1.5-5.5c0,0,0.1,0,0.2,0.1c0.7,0.3,3.1,1.4,7.2,2.7c16.8,5.5,61.8,15.5,132-2.8C495.5,713,502.3,716.2,493,721.7z
			"/>
		<path class="st24" d="M485.5,553.3c-18.8,11.3-34,15.8-45.4,17.1c-15.6,1.9-23.9-2-23.9-2l60.4-41.1c0,0,4.3-0.1,9.5,0.5
			C499,529.1,517.3,534.2,485.5,553.3z"/>
		<path class="st25" d="M480.6,546.8c-8.2,10.4-23.5,18.9-40.5,23.7c-15.6,1.9-23.9-2-23.9-2l60.4-41.1c0,0,4.3-0.1,9.5,0.5
			C488,532.4,487,538.7,480.6,546.8z"/>
		<path class="st24" d="M481.2,538.5c-1,2.1-2.4,4.4-4.3,6.8c-0.1,0.2-0.2,0.3-0.4,0.5c-2.6,3.3-6,6.4-9.8,9.3
			c-22.6,16.7-63.6,25-88.4,12.3c-2.6-1.3-5-2.9-7.2-4.7c-1.5-1.2-3-2.6-4.3-4.1c-2-2.3-3.7-4.8-5.1-7.6c-2.1-4.2-3.5-7.8-4.4-11
			c-7.2-25.3,19.9-20.5,19.9-20.5l15.2,0.2l61.2,0.7C455.6,512.5,491.2,516.8,481.2,538.5z"/>
		<path class="st26" d="M392.4,519.7l2.7,7.5c-1.9,0.8-8.8,4.1-5.7,3c-7.1,1.7-26.6,12.5-11,37.1c-7.4,25.2-15.3,64.5-14.8,148.4
			c0,2.5,0,4.8,0,6.9c0,0.8,0.1,1.7,0.1,2.5c-1.8-0.8-3.6-1.6-5.3-2.5c-1.7-0.9-3.1-2.4-3.8-4.2c-0.7-1.8-0.8-4,1.5-5.5
			c0,0,0.1,0,0.2,0.1c-0.3-16.3-1.1-80.1,4.1-123.3c-7.4,3.8-39,18.8-62.8,16.6c-6.8-0.6-13.5-3.2-19.8-6.6
			c11.3-2.7,38.2-11.5,55.3-35.7c0.3-0.2,0.5-0.3,0.8-0.5c11.6-7.6,19.7-18,23.4-23.5c-7.2-25.3,19.9-20.5,19.9-20.5L392.4,519.7z"
			/>
		<path class="st26" d="M395.1,527.4l-0.1-0.2C395.6,527,395.8,527,395.1,527.4z"/>
		<path class="st27" d="M365.9,489.3c0,0-16.1-7.4-11.2,10.6c4.9,17.9,15.5,10.2,15.5,10.2L365.9,489.3z"/>
		<path class="st28" d="M480,489.3c0,0,16.1-7.4,11.2,10.6c-4.9,17.9-15.5,10.2-15.5,10.2L480,489.3z"/>
		<g>
			<defs>
				<path id="XMLID_2_" d="M423.2,545.8L423.2,545.8c-33.4,0-60.4-27-60.4-60.4V425h120.8v60.4C483.6,518.8,456.5,545.8,423.2,545.8
					z"/>
			</defs>
			<use xlink:href="#XMLID_2_"  style="overflow:visible;fill:#FCD59E;"/>
			<clipPath id="XMLID_4_">
				<use xlink:href="#XMLID_2_"  style="overflow:visible;"/>
			</clipPath>
			<path class="st29" d="M423.2,545.8c-54.2,0-54.8-72.2-54.8-72.2l-24.4,3.5c0,0,12.1,79.3,79.2,79.5
				C490.3,556.8,477.4,545.8,423.2,545.8z"/>
		</g>
		<g>
			<defs>
				<path id="XMLID_1_" d="M358.6,467.4c0,0-11.8-38.1,17.3-67.2c34.3-34.3,104.5-21.9,128.1-3.9c20.9,16,22.1,28.5,22.1,28.5
					l-9.8,3.7c0,0-0.6-14.7-38.2-19.4c0,0,16.7,18.3,8.4,56.9C486.5,466,432.2,418.8,358.6,467.4z"/>
			</defs>
			<use xlink:href="#XMLID_1_"  style="overflow:visible;fill:#F13E45;"/>
			<clipPath id="XMLID_5_">
				<use xlink:href="#XMLID_1_"  style="overflow:visible;"/>
			</clipPath>
			<path class="st30" d="M419.3,373.5c-1.2-0.1-5.3,7.1-6.2,8c-2.3,2.4-5.4,4.2-8.1,6.2c-6.1,4.7-11.7,9.8-17.3,15.1
				c-6.3,6-10.5,15.5-14.5,23.2c-2.8,5.4-3.2,10-3.5,16c-0.3,6.7-1.8,12.5-3.8,18.9c-2.3,7.1-7.5,11.7-15.6,6.4
				c-7-4.6-4.8-20.6-3.9-27.7c2.2-17.1,16.2-30.3,27-42.6C384.3,384.5,401.3,371.5,419.3,373.5z"/>
			<path class="st30" d="M464.6,405.2c-2.1-1.6,15.3-0.3,17.9-0.1c5.9,0.5,11.7,1.5,17.2,3.7c5.6,2.3,20.8,9.8,19.5,17.4
				c-6.6,0.9-13.9-5.7-19.9-7.8c-3.5-1.2-7.2-1.5-10.7-2.1c-0.8,4.9,3.5,9,4.8,13.5c1.7,5.6,1.8,11.8,1.8,17.7
				c0,3.6-2.4,18.9-9.4,13.3c-2.4-1.9-1.5-9.2-1.7-11.9C483.6,443.6,484.4,420,464.6,405.2z"/>
		</g>
		<path class="st17" d="M371.8,489.1l-5.8-6.8l-3.2,17.2c0,0-6.5-22.1-3-27.7c3.6-5.6,17.4-9.7,17.4-9.7L371.8,489.1z"/>
		<path class="st17" d="M477.2,485.5l1.8-3.9l5,14.7c0,0,6.5-20.4,3-26c-3.6-5.6-17.4-9.7-17.4-9.7L477.2,485.5z"/>
		<g>
			<path class="st6" d="M494.2,469.8c-1.8,2.5-4.7,3.8-7.6,3.8c-1.9,0-3.8-0.5-5.4-1.6c-23.8-16.1-50.4-21-79.1-14.8
				c-17,3.7-29.9,10.5-34.8,13.4c-1.4,0.8-2.2,1.4-2.2,1.4c-4.2,2.8-10.1,1.9-13-2.2c-3-4-2-9.5,2.2-12.4c0.4-0.3,5.5-3.6,14-7.6
				c7.3-3.4,17.2-7.2,28.9-9.8c33.8-7.6,66.6-1.6,94.8,17.4C496.2,460.2,497.2,465.8,494.2,469.8z"/>
		</g>
		<g>
			<defs>
				
					<ellipse id="SVGID_15_" transform="matrix(0.1253 -0.9921 0.9921 0.1253 29.1912 899.3202)" cx="524.6" cy="433.1" rx="14.2" ry="14.2"/>
			</defs>
			<use xlink:href="#SVGID_15_"  style="overflow:visible;fill:#FFFFFF;"/>
			<clipPath id="SVGID_16_">
				<use xlink:href="#SVGID_15_"  style="overflow:visible;"/>
			</clipPath>
			<path class="st31" d="M510.2,420.1c0,0,3.9,31.7,33.1,20.3C543.3,440.4,491.5,482.5,510.2,420.1z"/>
		</g>
		<g>
			<defs>
				<path id="SVGID_17_" d="M424.4,536c-22,0-28-19.7-28-19.7c-2.6-7.2-2.3-9.7,4.4-10.4c5.4-0.6,12.9-1,23.5-1s18.1,0.4,23.5,1
					c6.7,0.7,6.2,3.5,4.4,10.4C452.4,516.3,446.4,536,424.4,536z"/>
			</defs>
			<use xlink:href="#SVGID_17_"  style="overflow:visible;fill:#65170B;"/>
			<clipPath id="SVGID_18_">
				<use xlink:href="#SVGID_17_"  style="overflow:visible;"/>
			</clipPath>
			<path class="st32" d="M402.4,505.7v4.1c0,1.4,1.5,2.5,3.4,2.5H445c2,0,3.5-1.2,3.4-2.7l-0.4-3.7
				C447.9,505.9,430.6,503.3,402.4,505.7z"/>
			<path class="st33" d="M400.5,531.1c0,0,21-10.5,53,0l-29.3,8.6L400.5,531.1z"/>
		</g>
		<g>
			<path class="st6" d="M563.5,537.6l-46.4,48.5l-10.3,10.7l-48.3-7.7l-9.7-14.2l-2.5-4.2c-0.1-0.7,0.8-1.4,1.7-1.2l62.2,2.5
				l0.1-0.1l42.5-56.7c1-1.1,3-1.2,3.4-0.1l1.1,5.1L563.5,537.6z"/>
			<path class="st34" d="M580.1,597.8l-32.2,30.9l-7.1,6.9l-2,1.9l-52.7,5.9c-0.8,0-1.4-0.3-1.6-0.8l-37-66.4
				c-0.1-0.2,0-0.5,0.2-0.7c0.3-0.3,0.7-0.5,1.2-0.6c0.1,0,0.2,0,0.3,0l62.7,0.1h1l43.9-54.5c0.1-0.2,0.3-0.3,0.5-0.4
				c0.7-0.3,1.5-0.2,1.7,0.3l21.9,75.4C581.1,596.5,580.8,597.2,580.1,597.8z"/>
		</g>
		<path class="st35" d="M540.7,635.6l-2,1.9l-52.7,5.9c-0.8,0-1.4-0.3-1.6-0.8l-37-66.4c-0.1-0.2,0-0.5,0.2-0.7
			c0.3-0.3,0.7-0.5,1.2-0.6l-1.5-2.2c-0.1-0.7,0.8-1.4,1.7-1.2l61.2,0.5l0.1-0.1l1.5,3.2l5.3,11.1L540.7,635.6z"/>
		<path class="st36" d="M555.4,625.6c0,0-5.5,9.2-11.6,12.8c-3.5,2.1-18.7,2.9-18.7,2.9c-3.5,0-5-0.3-5.9-2.2l-0.7-1.6
			c-0.6-1.6-0.7-3.4-0.2-5.1c1.8-6.2,9-14,18-24.5c11.5-13.5,19.8,11.1,19.8,11.1l0.6,1.8C556.8,622.9,556.6,623.8,555.4,625.6z"/>
		<path class="st36" d="M247.1,570.8c-7.9,0-11.2-2.6-17.4-7.1c-4.5-3.3-10.3-6.4-13.1-11.6c-3.9-7.2-4.3-23.2-0.6-30.5
			c4.2-8.1,14-8.7,19.9-2.7c1,1,2.9,4.8,4.2,5.2c2,0.6,2.2-2,4.1-3.1c10.6-6.1,9,8.4,9.8,13.5c0.8,5.2,4.2,9.5,4.1,14.8
			C258.2,556.9,251.8,568,247.1,570.8z"/>
		<g>
			<circle cx="453.5" cy="481" r="3.2"/>
			<path d="M442.4,469.6c0,0,11.2-4.8,24.4,2.8C466.8,472.3,455.9,460,442.4,469.6z"/>
		</g>
		<g>
			<circle cx="398.1" cy="481" r="3.2"/>
			<path d="M409.3,469.6c0,0-11.2-4.8-24.4,2.8C384.8,472.3,395.8,460,409.3,469.6z"/>
		</g>
		<path class="st6" d="M367.3,470.6c-1.4,0.8-2.2,1.4-2.2,1.4c-4.2,2.8-10.1,1.9-13-2.2c-3-4-2-9.5,2.2-12.4c0.4-0.3,5.5-3.6,14-7.6
			C364,456.2,360.6,465.2,367.3,470.6z"/>
		<path class="st22" d="M446.8,681.6c0,0,22.3,1.7,36.2-2.3c0,0,3.5,20-2.2,24c-5.7,4-20.1,5.7-29.2,4.3
			C451.6,707.6,444.8,693.2,446.8,681.6z"/>
		<path class="st22" d="M403.7,681.6c0,0-22.3,1.7-36.2-2.3c0,0-3.5,20,2.2,24c5.7,4,20.1,5.7,29.2,4.3
			C398.9,707.6,405.7,693.2,403.7,681.6z"/>
	</g>
</g>
<g>
	<g>
		<path class="st18" d="M728.1,700.5l-0.6,12.3l-4,85.8l-0.2,5.1l-6.6,26.2h-29.3l-7-31.2c0,0,0,0,0-0.1L657.5,697L728.1,700.5z"/>
		<path class="st19" d="M719.9,840.7c0.6,3.2,3.2,6.5,2.6,10c0,0.1,0,0.2-0.1,0.3c-0.7,3.2-3.5,5.8-6.5,6.8
			c-9.1,3.1-14.6,2.9-25.6,2.5c-4.2-0.2-15.7,0.6-22.3-2.2c-3.3-1.4-5.4-3.8-4.7-7.6c1.1-5.4,5.1-7.9,9.7-9.8
			c1.1-0.4,2.3-1.1,3.5-1.8c3.1-2,6.1-4.9,7.4-7.8c2.8-6.4,0.1-13.8-1.3-20.2c-0.9-4.1-1.7-8.1-2.3-12.1c0,0,0,0,0-0.1
			c-0.2-1.3-0.4-2.7-0.6-4c1.6,0,3.4,1,5.1,1.5c0.3,0.1,0.6,0.2,0.8,0.3c2.7,0.7,5.4,1.1,8.2,1.7c7.5,1.5,17,2,24.5-0.1
			c2.3-0.6,4.4-1.3,5.2,0.6c0.1,0.3,0.2,0.6,0.3,1.1c0.5,5-1.3,10.7-2.2,15.6C719.9,823.6,718.2,832.2,719.9,840.7z"/>
		<path class="st17" d="M722.4,851c-0.7,3.2-3.5,5.8-6.5,6.8c-9.1,3.1-14.6,2.9-25.6,2.5c-4.2-0.2-15.7,0.6-22.3-2.2
			c-3.3-1.4-5.4-3.8-4.7-7.6c1.1-5.4,5.1-7.9,9.7-9.8c1.1-0.4,2.3-1.1,3.5-1.8c1.4,0.2,2.8,0.5,4.1,1c0.4,0.1,0.9,0.3,1.3,0.5
			c4.4,1.9,6.7,6,10.3,8.8c4.1,3.1,7.4,5.7,12.8,5.7c3.2,0,6.6,0.1,9.6-0.5C717.3,853.8,719.9,852.3,722.4,851z"/>
	</g>
	<g>
		<polygon class="st18" points="787.8,697 785.6,707.3 766.9,797.1 759.4,833.3 736.2,831.9 732.6,831.7 725.1,808.2 724.5,797.5 
			719.7,701 		"/>
		<path class="st19" d="M756.7,860.2c-6,0.2-10.3,0.4-14.5,0c-3.5-0.3-7-1.1-11.1-2.5c-3-1-5.9-3.5-6.5-6.8c0-0.1-0.1-0.2-0.1-0.3
			c-0.5-3.4,2-6.7,2.6-10c1.7-8.5,0-17.1-1.6-25.4c-0.9-4.9-2.7-10.6-2.2-15.6c0.1-1.3,0.6-1.9,1.3-2.1c1-0.4,2.6,0.1,4.1,0.5
			c1.3,0.3,2.6,0.6,3.9,0.8c6.7,1,14.3,0.5,20.6-0.7c2.7-0.5,5.5-1,8.2-1.7c1.9-0.5,4-1.8,5.9-1.8c-0.1,0.8-0.2,1.6-0.3,2.5
			c-0.6,4.6-1.6,9.2-2.6,13.8c-1.4,6.4-4.1,13.8-1.3,20.2c1.3,2.9,4.3,5.8,7.4,7.8c1.2,0.8,2.4,1.4,3.5,1.8c4.6,1.8,8.6,4.4,9.7,9.8
			C785.9,861.8,763.1,860,756.7,860.2z"/>
		<path class="st17" d="M756.7,860.2c-6,0.2-10.3,0.4-14.5,0c-3.5-0.3-7-1.1-11.1-2.5c-3-1-5.9-3.5-6.5-6.8c2,1,4,2.2,6.1,2.9
			c0.6,0.2,1.1,0.3,1.7,0.4c3.1,0.6,6.5,0.6,9.6,0.5c5.3,0,8.6-2.7,12.8-5.7c3.7-2.7,5.9-6.9,10.3-8.8c1.6-0.7,3.5-1.2,5.4-1.5
			c1.2,0.8,2.4,1.4,3.5,1.8c4.6,1.8,8.6,4.4,9.7,9.8C785.9,861.8,763.1,860,756.7,860.2z"/>
	</g>
	<path class="st20" d="M787.8,697l-2.1,10.3c-6.9,2.5-20.5,6.8-34.4,7.9c-19.6,1.6-18.7,8.7-18.7,8.7s-7.8,52.4,0,74.9
		c0,0,3.7,19.1,3.6,33.1c0,6.7-1,12.3-3.6,13.8c0,0-4.3,4-1.9,8.1c1.3,2.3,4.5,4.6,11.5,6.4c-3.5-0.3-7-1.1-11.1-2.5
		c-3-1-5.9-3.5-6.5-6.8c0-0.1-0.1-0.2-0.1-0.3c-0.5-3.4,2-6.7,2.6-10c1.7-8.5,0-17.1-1.6-25.4c-0.9-4.9-2.7-10.6-2.2-15.6
		c0.1-1.3,0.6-1.9,1.3-2.1l-4.8-96.5L787.8,697z"/>
	<path class="st20" d="M719.7,701l0.9,18.6c-10.3-0.7-42.7-2.8-44.6,6.9c-2.1,10.6,5.2,43.9,8.8,69.7c2.6,18.7,4.8,33.7,4.8,33.7
		s-3.5,5.3-9,9.9c-2.6,2.2-5.7,4.3-9,5.6c0,0-8.4,5.7-3.6,12.6c-3.3-1.4-5.4-3.8-4.7-7.6c1.1-5.4,5.1-7.9,9.7-9.8
		c1.1-0.4,2.3-1.1,3.5-1.8c3.1-2,6.1-4.9,7.4-7.8c2.8-6.4,0.1-13.8-1.3-20.2c-0.9-4.1-1.7-8.1-2.3-12.1c0,0,0,0,0-0.1L657.5,697
		L719.7,701z"/>
	<g>
		<path class="st37" d="M797.7,671.8l-0.4,0.3l-20.9,17.3L675.4,697c0,0-18.6-3.4-21.8-18.8c-0.9-4.3-0.6-9.5,1.6-15.8
			c2.6-7.5,4.7-19.1,6.3-32.5c0.8-6.7,1.4-13.8,1.9-21c0.4-5.7,0.7-11.4,0.8-17.1c0.6-17.8,0.2-35.3-1.3-48.3
			c-0.8-7.3-2-13.2-3.6-16.9c-0.2-0.5-0.4-0.9-0.6-1.3l6.1,1.3l60.3,13l58.2-19.7c-0.1,0.5,1.1,4,2.9,8.7c1.1,2.7,2.3,5.9,3.6,9
			c3.9,9.7,8.1,19.6,8.1,19.6s-2.4,18.3-3.9,40.5l0,0.7c-0.1,2.2-0.3,4.5-0.4,6.8c-0.2,3.8-0.4,7.7-0.6,11.6c0,0.9-0.1,1.8-0.1,2.7
			C791.9,641.4,792.7,662.8,797.7,671.8z"/>
		<path class="st37" d="M815.5,581.2c-3.4,30.5-19.4,37.2-22.9,38.3c-0.4,0.1-0.7,0.2-0.7,0.2l0.2-2.5l1-11.7l0.6-7l0-0.7
			l-19.3-45.4l-2-4.6l13.5-19.1l8.2-11.5c0,0,1.2,1.4,3,4c0.1,0.1,0.2,0.3,0.3,0.4C804.2,531.1,818.5,554.8,815.5,581.2z"/>
		<path class="st37" d="M683.9,612.2l-6.4,14.9l-4,9.2l-12.3-6.3l-6.3-3.2c-29.5-31.2-17.7-85.4-17.7-85.4s2.3-13.2,13-16
			c1.6-0.4,3.3-0.6,5.2-0.5c0.9,0,1.9,0.2,2.9,0.4c-0.1,0.4,0.1,0.8,0.6,1.3c3,3.2,15.6,8.9,15.2,11.3c-3.4,21.3-8.5,42.3-4.8,53.7
			c1.2,3.8-3.5,6.2-3.5,6.2L683.9,612.2z"/>
		<g>
			<rect x="723.2" y="568.4" class="st18" width="6.6" height="124.9"/>
			<rect x="724.8" y="568.4" class="st20" width="3.3" height="124.9"/>
		</g>
		<path class="st6" d="M799.9,682.2c-0.9,5.1-3.9,10.3-6.9,13.1c-11.5,10.9-35,13.6-50.3,13.6c-9.7,0-19.4,1-28.8,2.7
			c-14.4,2.6-30.2,1.5-44.1-3.6c0,0,0,0,0,0c-2.9-1.1-5.7-2.3-8.4-3.7c-2.2-1.1-5.5-4.5-8.2-8.5c0,0,0-0.1,0-0.1
			c-3.7-5.9-5.7-13.3,0.4-17.5c1.9,3.5,11.4,7.5,14.3,8c10.1,2.1,20.7,2.3,31,3.6c14,1.8,29.5,0,43.1-3.1c12-2.8,22.8-7.8,34.5-11.3
			c5-1.5,16-7.5,21-3.5c0.5,0.4,1,1,1.4,1.6c0.1,0.1,0.1,0.2,0.2,0.3C800.2,676.4,800.4,679.3,799.9,682.2z"/>
	</g>
	<path class="st20" d="M815.5,581.2c-3.4,30.5-19.4,37.2-22.9,38.3c-0.7,21.9,0.1,43.3,5.1,52.3l-0.4,0.3c0.5,0.4,1,1,1.4,1.6
		c0.1,0.1,0.1,0.2,0.2,0.3c0.3,0.8-1,0.1-3.7-0.1c-2.8-0.3-6.9,0-12.3,2.9c0,0-29.2,16.8-107.3,16.8c-2.3,0-3.9,0.8-4.9,2.1
		c-3.2,4-0.9,12.3-0.9,12.3s0,0,0,0c-2.9-1.1-5.7-2.3-8.4-3.7c-2.2-1.1-5.5-4.5-8.2-8.5c0,0,0-0.1,0-0.1c-3.7-5.9-5.7-13.3,0.4-17.5
		c-0.9-4.3-0.6-9.5,1.6-15.8c2.6-7.5,4.7-19.1,6.3-32.5l-6.3-3.2c-29.5-31.2-17.7-85.4-17.7-85.4s2.3-13.2,13-16
		c1.6-0.4,3.3-0.6,5.2-0.5c-6.9,17.6-15.1,48-2,69.5c3.2,5.3,6.4,10.1,9.5,14.5c5.2,7.3,10.1,13.3,14.3,18.1
		c8.5,9.6,14.3,14.2,14.3,14.2l72-5l28.3-19.1l0.5-0.4l9.9-6.7c0,0,18.9-37.8-5-88.6C804.2,531.1,818.5,554.8,815.5,581.2z"/>
	<path class="st38" d="M794.1,496.5c-2.2-5.6-12.2-7-17.4-7.3c-19.5-1-39.4,1.9-58.7,3.7c-17.1,1.6-34.2,4.7-50.4,10.2
		c-2.8,1-8.2,2.9-10.3,4.9c-7.4,7.3,11.2,18.1,15.2,20.4c6.9,4,13,9.3,21,11.1c8.3,1.9,16.9,2,25.3,2.8c17.1,1.7,33.8-3,48.4-12
		c6-3.7,9.4-8.9,13.8-14.2c2.8-3.3,5.9-6.1,8.3-9.7C791.6,503.1,793.6,499.5,794.1,496.5z"/>
	<path class="st28" d="M677.6,500.4c0,0-0.7,1.9-2.4,3.4c-2.6,2.4-7.7,4.1-16.2-3.4c-7.7-6.8-5.8-10.7-2.5-12.8
		c0.3-0.2,0.5-0.3,0.8-0.4c0.4-0.2,0.8-0.4,1.2-0.6h0c2.1-0.9,4-1.2,4-1.2L677.6,500.4z"/>
	<g>
		<path class="st6" d="M666.7,584.6c-0.5-3.6-6.7-5.4-6.9-0.9c-4.8-1-8.5,1.4-8.5,6.4c-4.6,0.3-6.9,8-3.3,10.7
			c-1.4,2.2-2.9,6.1-2.2,8.6c0.8,3,2.8,2.4,3.8,4.4c1.3,2.8-1.4,13,5.6,10.2c-0.6,2.6,1,5.9,3.8,4.7c-0.3,5.7,15.8,6.3,10.5-6.5
			c-3.7-8.9-5.4-12.7-2.6-22.5C668.2,595.1,671.2,586.1,666.7,584.6z"/>
		<path class="st6" d="M791.8,619.6c0.9,1.2,3.9,0.9,5.1,0.3c1.1-0.6,1.6-2.1,2.5-2.7c0.9-0.6,2-0.1,3-1.2c0.4-0.4,0.5-1.2,0.9-1.6
			c0.4-0.4,1-0.6,1.4-1c0.1-0.1,0.6-1.1,0.7-1.2c0.6-0.9,1.3-1.4,1.3-2.6c0-0.4-0.3-1.2-0.3-1.5c0.2-1,1.9-2.2,2.4-3.2
			c1-1.8-1.1-1.3-2.4-2.8c1.3-0.9,4.6-7.5,1.9-8.3c0.9-1,1.7-3.7,0.2-4.4c0.4-1.3,0.5-3.1-0.6-4.1c-0.6-0.6-1.2-0.3-1.8-0.6
			c-0.5-0.2-1.2-1-1.6-1.3c-1.4-0.9-0.1-2.9-1.6-2.9c-0.5-1.6-1-2.3-2.7-2.3c-0.6,0-1.2,0.1-1.7,0c-0.9-0.3-1.5-1.6-2.6-1.9
			c-2.2-0.6-6.5,0.7-7.5,2.8c-0.6,1.3-0.2,1,0.2,2.5c0.5,1.7,0.2,3.8,0.5,5.5c0.5,4,1.4,7.9,1.6,12c0.1,3.8,0.1,7.7,0,11.5
			c0,1.8-0.7,4.9,0.1,6.7C791.2,618.3,792.3,618.6,791.8,619.6z"/>
	</g>
	<g>
		<path class="st6" d="M792.1,552.6l1.7,4.9l-9.9,84.5c0,0.4-0.3,0.8-0.7,0.9l-42.9,13.1c-0.1,0-0.1,0-0.2,0.1
			c-0.7,0.4-5.8,3-11.9,3c-0.9,0-1.8,0-2.7-0.1c-4.9-0.5-8.6-2.5-9.2-2.8c-0.1,0-0.1-0.1-0.2-0.1L673,643c-0.4-0.1-0.7-0.5-0.7-0.9
			l-9.9-84.5l1.7-5.9c-0.1-0.8,0.7-1.4,1.5-1.1l52.6,29.3c0,0,0.1,0,0.2,0.1c0.5,0.1,3.2,0.9,7.1,1.2c0.8,0.1,1.7,0.1,2.6,0.2h0.1
			c5.3-0.2,9.1-1.3,9.7-1.4c0.1,0,0.1,0,0.2-0.1l52.6-28.3C791.3,551.2,792.2,551.8,792.1,552.6z"/>
		<path class="st34" d="M794.1,558.4l-10.2,87.5c0,0.4-0.3,0.8-0.7,0.9l-42.9,13.1c-0.1,0-0.1,0-0.2,0.1c-0.7,0.4-5.8,3-11.9,3
			c-0.9,0-1.8,0-2.7-0.1c-4.9-0.5-8.6-2.5-9.2-2.8c-0.1,0-0.1-0.1-0.2-0.1L673,646.8c-0.4-0.1-0.7-0.5-0.7-0.9l-10.2-87.5
			c0-0.4,0.1-0.7,0.3-0.9c0.3-0.3,0.7-0.3,1.1-0.2l54.6,26.2c0,0,0.1,0,0.2,0.1c0.5,0.1,3.2,0.9,7.1,1.2c0.8,0.1,1.7,0.2,2.6,0.2
			h0.1c5.3-0.2,9.1-1.3,9.7-1.4c0.1,0,0.1,0,0.2-0.1l54.6-26.2c0.4-0.2,0.8-0.1,1.1,0.2C794,557.8,794.1,558.1,794.1,558.4z"/>
	</g>
	<path class="st35" d="M725.4,581.1c0,0-0.9,0.5-0.9,1.9c0,1.5,0.9,1.9,0.9,1.9v77.9c-4.9-0.5-8.6-2.5-9.2-2.8
		c-0.1,0-0.1-0.1-0.2-0.1L673,646.8c-0.4-0.1-0.7-0.5-0.7-0.9l-10.2-87.5c0-0.4,0.1-0.7,0.3-0.9l-0.3-2.9c-0.1-0.8,0.7-1.4,1.5-1.1
		l54.6,26.3c0,0,0.1,0,0.2,0.1C718.8,580,721.5,580.7,725.4,581.1z"/>
	<g>
		<path class="st36" d="M661.7,588c5.7-1.3,5.6,6.1,7,7c2.2,1.4,6.1,0.7,8.2,3.2c2.3,2.8,1.2,6.3-1.2,8.3c2.4,4.1,4.1,11.5-2.5,11.8
			c2.6,3.8,2.1,8-1.6,9.4c-5.1,2-8.7,0.3-11-5.2c-3.4-8-5-10.6-4.4-21.7c0.2-2.9,1.2-8.1,3-10.3C660.1,589,660.9,588.3,661.7,588z"
			/>
		<path class="st36" d="M791.1,584.1c-1.1,4.3-6,3.2-9.1,4.6c-5.4,2.5-4.3,6.6,0.9,8.4c-5.3,4.3-7.4,9.7-1.6,14.1
			c-4,2.8-4.6,9.7,0,11.8c6.8,3.2,12.1-0.7,15.2-6.3c4.7-8.5,10.2-25.3,1.7-33.6C795.3,580.3,791.3,577.1,791.1,584.1z"/>
	</g>
	<g>
		<path class="st36" d="M696.8,378c0,8.1-6.6,14.6-14.6,14.6c-4.2,0-7.9-1.7-10.6-4.5c-0.6-0.6-1.1-1.3-1.6-2
			c-1.6-2.3-2.5-5.1-2.5-8.1c0-4.9,2.4-9.1,6-11.8c2.4-1.8,5.4-2.8,8.7-2.8c7.6,0,13.9,5.8,14.6,13.3
			C696.8,377.1,696.8,377.5,696.8,378z"/>
		<path class="st18" d="M767.6,425.7c-0.7-0.2-1.4-0.4-2.1-0.6c-32.9-9.2-58.3-1.1-76.6,11.3c-0.4,0.3-0.8,0.6-1.3,0.9
			c-15.3,10.7-25.4,24.2-30.7,32.4c-2.7,4.2-4.1,7-4.3,7.4c0,0,0,0,0,0c0,0,0,0,0,0c-1-2.2-2-4.3-2.8-6.4
			c-18.3-44.8,4.9-72.2,20.2-84.5c1.7-1.4,3.3-2.5,4.7-3.5c1-0.7,1.9-1.3,3-1.8c3.2-1.7,6.7-2.9,10.3-3.3c3.1-0.4,6-0.7,8.8-0.8
			c51.5-3.1,65.9,29.8,69.7,43.3C767.4,423.5,767.6,425.7,767.6,425.7z"/>
		<path class="st28" d="M758.6,510.8c-9.7,8-19.7,11.8-29.3,12.8c-20.5,2.1-39.9-8.7-54-19.8c-7.8-6.1-14-12.4-17.8-16.5
			c0,0-0.1-0.1-0.1-0.1c-2.8-3.1-4.4-5-4.4-5s-0.3-1.9-0.4-5.1c0,0,0,0,0,0c-0.1-3.2,0.1-7.7,1.1-12.8c2.5-12.5,9.9-28.8,30.7-39.3
			c13.3-6.7,26.9-10.7,39.3-12c0.5-0.1,1-0.1,1.5-0.2c17.9-1.6,33,2.5,40.2,12.3c1.5,2.1,2.7,4.4,3.5,7c0.1,0.2,0.1,0.4,0.2,0.6
			C769.2,432.7,798.1,478.4,758.6,510.8z"/>
		<path class="st17" d="M671.3,454.7c0,0,12.9,19.4,2.6,36.6c0,0-7.5-6.8-15.1-4.9C651.1,488.4,671.3,454.7,671.3,454.7z"/>
		<path class="st6" d="M769,432.1c-4.5,1-11.7-1.7-14.4-4.4c-4.3,4.1-11,2.4-15.2-1c-0.4,5.1-14.3,1.8-17.3-0.4
			c-1.7,6.1-10.3,4.1-14.9,3.3c0.1,8.3-12,8.3-18.3,6.8c-0.4-0.1-0.8-0.2-1.2-0.3c0,0.4,0,0.8-0.1,1.2c-0.5,5.1-4,10-9.7,9.6
			c0,8.7-2.8,12.4-11.2,14.8c2.7,5.1-0.5,11-4.5,14.2c1.3,4-0.7,8.6-3.7,10.8h0c-0.4,0.3-0.8,0.5-1.1,0.7c-0.3,0.1-0.6,0.3-0.9,0.3
			c-2.2,0.7-4.6,0.2-6.6-2.4c-5-2.5-3.7-10.2-0.2-14.5c0.7-0.9,1.5-1.6,2.4-2.2c-2-4.6-2.5-7.6,0.4-12.3c0.7-1.1,1.6-2,2.6-2.9
			c1.1-1,2.2-2.1,2.8-3.3c0.5-1.2-0.2-4.4,0.3-6c1-3.4,3.7-6.8,6.7-8.7c1-0.6,3.5-0.2,4.3-1.1c3.9-4,3.6-7.7,10-10
			c6-2.2,5.4-2.4,10.2-6.4c5.6-4.6,10-0.5,15.8-2.1c2.6-0.7,4.6-3.6,7.9-4.2c3.5-0.6,7.4,0.3,10.8,1.5c0.4,0.1,0.9,0.3,1.3,0.5
			c0.1-0.2,0.2-0.4,0.3-0.6c3.4-7.6,13.8-3.2,19-0.3c2.5-2.6,5.5-2.7,8.8-2c5.3,1.1,6.6,6,10.1,8.1c0.9,0.6,2,0.9,3.1,1.3
			c2.9,0.9,5.9,1.8,6.4,6.1C773.2,429.7,771.5,431.5,769,432.1z"/>
		<g>
			<defs>
				<path id="SVGID_19_" d="M764.6,470.8c1.2-0.5,2.5,0,3.2,1.1c6.3,11.1-15.4,29-26.6,30.3c-7.7,0.9-14.9-2.3-21.1-5.8
					c-3-1.7-7.9-4-8-7.4c-0.1-3.9,6.4-3.9,10.3-4.8c10.9-2.6,22-4.1,31.7-8.7C757,474,761.2,472.1,764.6,470.8z"/>
			</defs>
			<use xlink:href="#SVGID_19_"  style="overflow:visible;fill:#843A29;"/>
			<clipPath id="SVGID_20_">
				<use xlink:href="#SVGID_19_"  style="overflow:visible;"/>
			</clipPath>
			<path class="st39" d="M765.9,490.3c0,0-20.5-13.9-53.4,7.5l26.6,11L765.9,490.3z"/>
			<path class="st40" d="M763.2,470.3c-0.6,1.5,1.1,3.8-0.1,5.3c-0.9,1.1-2.8,2.1-4,2.8c-1.8,1.1-3.8,1.9-5.8,2.7
				c-5.5,2.3-11.4,2.4-17,4c-4.8,1.4-9.6,2.6-14.5,3.6c-1.3,0.2-2.4,0.8-3.4,0.1c-1.5-1-2.5-3.5-3.2-5.1
				c10.4-5.7,22.6-8.6,34.1-11.2c3.6-0.8,7.2-1.5,10.9-1.8C761.1,470.6,762.6,470.7,763.2,470.3z"/>
		</g>
		<g>
			<g>
				<circle cx="752.9" cy="446.8" r="2.9"/>
				<path d="M748.1,436.4c0,0,7-4.4,15.3,2.5C763.4,438.9,756.6,427.7,748.1,436.4z"/>
			</g>
			<g>
				<ellipse transform="matrix(0.8883 -0.4592 0.4592 0.8883 -127.7341 377.037)" cx="711.3" cy="451.1" rx="2.9" ry="2.9"/>
				<path d="M722.2,438.9c0,0-11-1.8-21,7.9C701.3,446.8,708.2,433.5,722.2,438.9z"/>
			</g>
		</g>
		<path class="st35" d="M729.3,523.6L729.3,523.6c-20.5,2.1-39.9-8.7-54-19.8c-2.6,2.4-7.7,4.1-16.2-3.4c-7.7-6.8-5.8-10.7-2.5-12.8
			c-2.2,0.7-4.6,0.2-6.6-2.4c-5-2.5-3.7-10.2-0.2-14.5c-18.3-44.8,4.9-72.2,20.2-84.5c-1.6-2.3-2.5-5.1-2.5-8.1
			c0-4.9,2.4-9.1,6-11.8c-1.2,4.7-1.3,10.7,4.2,14.6c0,0-2.6,2.7-6.1,7.3c-9.9,13-27.4,40.9-16.3,65.2c0.1,0.2,0.2,0.5,0.3,0.7
			c0,0-4.9,2.7-1.8,10.2c0.7,1.6,1.7,3.4,3.2,5.4c1.4,1.9,3.1,3.9,5.4,6.1C662.3,475.8,685.7,516.5,729.3,523.6z"/>
	</g>
	<path class="st6" d="M799.6,513.8c0,1.8-0.8,4.6-2.1,7.7c-0.3,0.8-0.6,1.6-1,2.4c-2.1,4.9-4.8,10.2-7,13.8
		c-0.7,1.3-1.4,2.3-1.9,3.1c-1.3,1.9-6.5,6.5-13.3,11.6c-15.7,11.9-39.7,26.6-42,17.9c-3.1,3.4-5,1.9-8.2,0.8c0,0-3.2-1.1-3.2-1
		c-1.3-0.8-3.8-3.3-5.1-3.7c-6.8-2.1-41-10.8-43.9-13.2c-1.4-1.2-2.8-0.8-4-2.5c-0.6-0.6,0-2.9,0-3.6c-0.3-0.4-3.7-1.3-4.2-2.4
		c-0.4-0.4-2-2.6-2.5-3.3c-1.7-2.7-3-5.6-4.6-8.2c-0.3-0.5-0.7-1.1-1.1-1.6c-1.8-2.4-4.4-3.1-5.2-6.3c0-0.1,0-0.2,0-0.2
		c-0.7-3.3,1.5-4.3,1.8-6.9c0.6-4.8,0.1-11.8,7.3-9.8c0.5-0.1,0.6-0.5,0.2,1.3c2.8-3.7,7.3-3.6,11.2-2.9c0.7,0.1,1.3,0.3,1.9,0.4
		c3.8,1,3.3,1.6,6.8,4.2c2.1,1.5,6.2,0.7,6.2,4.6c2.9-1.4,4.6,2.2,7,2.9c3.8,1.1,8.8-1.6,12.8-0.9c4,0.8,4.5,2.5,7.6,4.9
		c2.7,2.1,5.2,2.9,8.3,4.4c2.7,1.4,4.8,4.8,7.3,5.5c0.5-3.6,0.6-8.7,5.5-8.4c-0.7-6.1,4.3-6.7,8.4-7.9c2.7-0.8,6.5-4.7,8.9-3.4
		c4.6-8.3,8.4-12.1,17.9-11.7c0.6-8,11.3-11.4,19.6-9.8c2.6,0.5,4.9,1.5,6.7,2.9C802.4,500.1,799.6,506.7,799.6,513.8z"/>
	<path class="st38" d="M661.3,541.5c-1.7-2.7-3-5.6-4.6-8.2c-0.3-0.5-0.7-1.1-1.1-1.6c-1.8-2.4-4.4-3.1-5.2-6.3c0-0.1,0-0.2,0-0.2
		c-0.7-3.3,1.5-4.3,1.8-6.9c0.6-4.8,0.1-11.8,7.3-9.8c0.5-0.1,0.6-0.5,0.2,1.3c2.8-3.7,7.3-3.6,11.2-2.9
		C665.5,511.5,657.4,522,661.3,541.5z"/>
</g>
<g>
	<path d="M1044.2,507.1c0,0,2,9.6,5.3,12.9l-10.8-5v5.2l-7.8-2.9l-8.2-3.1l-2.1,0l-81-1.8l-3.1,5.8l-0.4,0.7L933,525l-1.3-9.6v0
		l-0.3-2.3l-3.3,4.8l-3.1-14.4l-3.6,4.9l-0.8-25.7l-0.3-8l-0.1-2.5l1.8-2.9l0.7-1l1.1-1.7l5.9-9.3l0.6,0l2.7-0.1l0.5,0l94.4-4.3
		l0.8,0l3.2-0.1l2-0.1l1.4-0.1l2,4.3l0.6,1.2l2.8,6l1.5,3.2l0,0c0,0,0.3,3.7,0.9,8.9c0.3,2.6,0.7,5.5,1.2,8.6
		c1.6,10.1,4.2,21.7,8.3,25.9L1044.2,507.1z"/>
	<path class="st22" d="M929.8,517.5c0,0,6.8-8.9,15.4-6.8c8.6,2.1,76-0.3,76-0.3s16,4,18.3,11.2c2.3,7.3-49.6,21.8-49.6,21.8
		L933,529.6L929.8,517.5z"/>
	<g>
		<polygon class="st22" points="988.7,681.5 988.5,683.5 985.9,714.2 985.5,719 978.5,800.9 978.5,801.8 978.2,805.5 942.7,804.3 
			942.3,804.3 936.5,804.1 936.4,800.8 932.9,681.5 977.3,681.5 		"/>
		<path class="st36" d="M975.8,845.4c0.7,4.7-2.1,8.8-7.4,11.7c-3.3,1.8-7.6,1.6-11.3,2.1c-3.8,0.5-7,2.6-10.8,3.5
			c-7.9,1.8-17.1,3.2-25.3,2.8c-1.5-0.1-3.5-0.1-5.5-0.4c-0.6-0.1-1.1-0.2-1.7-0.3c-2.1-0.4-4.1-1-5.2-2.1c-5.3-4.9-0.9-14.2,3-18.7
			c5.1-6,12.3-10.3,17.6-16.3c7.1-7.9,6.2-27.4,7.1-26.9c1.8,1,3.9,1.5,6,2c9.7,2.3,21.7,1.5,30.7-0.9c1.8-0.5,3.9-2.5,5.4-1
			c0.1,0.1,0.2,0.7,0.3,0.8c0.2,2.2-1,5.1-1.3,6.3C976,813.5,974.8,838.9,975.8,845.4z"/>
	</g>
	<g>
		<polygon class="st22" points="1041.9,681.5 1041.4,700.4 1038.5,800.8 1038.4,804.1 1032.5,804.3 1032.2,804.3 1004,805.2 
			996.7,805.5 996.4,801.8 996.3,800.9 989.3,719 988.9,714.2 986.3,683.5 986.2,681.5 997.6,681.5 		"/>
		<path class="st36" d="M1066.2,862.7c-1.2,1.1-3.1,1.7-5.2,2.1c-0.6,0.1-1.1,0.2-1.7,0.3c-2,0.3-4,0.3-5.5,0.4
			c-8.2,0.4-17.3-1-25.3-2.8c-3.8-0.9-6.9-2.9-10.8-3.5c-1.2-0.2-2.5-0.3-3.8-0.4c0,0,0,0,0,0c-2.6-0.2-5.3-0.5-7.5-1.7
			c-5.3-2.9-8.1-7-7.4-11.7c1-6.5-0.3-31.9-1.7-37.4c-0.3-1.1-1.5-4-1.3-6.3c0.1-0.2,0.1-0.7,0.3-0.8c1.5-1.5,3.6,0.5,5.4,1
			c0.6,0.2,1.2,0.3,1.9,0.5c8.8,2.1,19.8,2.6,28.9,0.4c2.2-0.5,4.3-1,6.1-2c0.9-0.5,0.1,19,7.1,26.9c5.3,6,12.5,10.3,17.6,16.3
			C1067.1,848.5,1071.6,857.8,1066.2,862.7z"/>
	</g>
	<path class="st41" d="M996.1,723.4c0.8,7.3,7.5,79,7.5,79s0.2,1.1,0.4,2.8c1.2,8.3,4.1,32.6,1.1,39.5c0,0-2.8,11.1,9,14.1
		c-2.6-0.2-5.3-0.5-7.5-1.7c-5.3-2.9-8.1-7-7.4-11.7c1-6.5-0.3-31.9-1.7-37.4c-0.3-1.1-1.5-4-1.3-6.3c0.1-0.2,0.1-0.7,0.3-0.8l-7-82
		l-0.4-4.7l-2.6-30.8l-0.2-1.9l11.4,0l44.4,0l-0.5,18.9c-10.7,5.1-28.1,12.7-41.4,14.8C1000,715.2,995.3,716.1,996.1,723.4z"/>
	<path class="st41" d="M988.7,681.5l-0.2,1.9l-3,33.7c-7.8,0-29.5,0.6-41.4-3c0,0-3.7-2-1.8,6.2c3.3,14.2,0.1,82.6,0.1,82.6
		s0,0.5-0.1,1.5c-0.4,6.1,0.7,27.2-20.5,38.3c-11.4,6-12.3,16.7-8,22.2c-2.1-0.4-4.1-1-5.2-2.1c-5.3-4.9-0.9-14.2,3-18.7
		c5.1-6,12.3-10.3,17.6-16.3c7.1-7.9,6.2-27.4,7.1-26.9l-3.4-119.3l44.4,0L988.7,681.5z"/>
	<path class="st28" d="M1038.7,465.8c0,31.7-26.6,70.6-57.4,70.6h-5.8c-11.4,0-21.3-3.3-29.3-9.1c-14.2-10.2-22.4-28.1-22.4-48.4
		v-27.4l29.2-30.1l79.3,2.1L1038.7,465.8z"/>
	<path class="st35" d="M948.1,527.4l-1.8,0c-14.2-10.2-22.4-28.1-22.4-48.4v-3.3l3.2-3.9C927.1,471.9,924.5,508,948.1,527.4z"/>
	<g>
		<g>
			<defs>
				<path id="SVGID_21_" d="M967.8,523.7c-22.7,0-28.9-20.4-28.9-20.4c-2.6-7.4-2.4-10,4.6-10.8c5.6-0.6,13.4-1,24.3-1
					c10.9,0,18.7,0.4,24.3,1c7,0.8,6.4,3.6,4.6,10.8C996.7,503.3,990.5,523.7,967.8,523.7z"/>
			</defs>
			<use xlink:href="#SVGID_21_"  style="overflow:visible;fill:#65170B;"/>
			<clipPath id="SVGID_22_">
				<use xlink:href="#SVGID_21_"  style="overflow:visible;"/>
			</clipPath>
			<path class="st42" d="M945.1,492.4v4.2c0,1.4,1.6,2.6,3.5,2.6h40.5c2,0,3.6-1.3,3.5-2.8l-0.4-3.9
				C992.1,492.5,974.2,489.8,945.1,492.4z"/>
			<path class="st43" d="M943.2,518.6c0,0,21.6-10.8,54.8,0l-30.3,8.9L943.2,518.6z"/>
		</g>
		<g>
			<circle cx="993.4" cy="470.7" r="2.9"/>
			<path d="M981.2,460.5c0,0,10.1-4.4,22,2.5C1003.2,463,993.4,451.9,981.2,460.5z"/>
		</g>
		<g>
			<ellipse cx="945.2" cy="471.9" rx="2.9" ry="2.8"/>
			<path d="M954.1,461.9c0,0-10.1-4.2-22,2.4C932.2,464.3,942,453.5,954.1,461.9z"/>
		</g>
	</g>
	<path class="st6" d="M1048.7,685.4c-6.7,6.4-61.8,43.7-116.3,12.1c0,0,0,0,0,0c-0.6-0.3-1.2-0.7-1.8-1c-1.4-0.8-2.8-1.7-4.1-2.6
		c-0.6-0.4-1.2-0.8-1.8-1.2c0,0-0.1-0.1-0.1-0.1c-2.7-1.9-3.5-5.6-1.9-8.3c0.2-0.3,0.4-0.6,0.6-0.8c0,0,0-0.1,0-0.1
		c0.1-0.1,0.2-0.2,0.3-0.3c0.1-0.1,0.3-0.3,0.5-0.4c0.1-0.1,0.3-0.2,0.5-0.3c1.2-0.8,2.9-1.3,5.2-1.2c0.6,0,1.7,0,3.1,0
		c19.9-0.5,111.4-6.9,111.4-6.9s1,0.4,2.2,1.1C1049.4,676.9,1053.8,680.6,1048.7,685.4z"/>
	<path class="st44" d="M1046.2,679.9c-1.5,2-4.9,3.2-7,4.5c-6.8,4.4-14.1,8-21.6,11c-11.7,4.5-24,7-36.3,7.3c-0.6,0-1.3,0-1.9,0
		c-1.2,0-2.3,0-3.5,0c-0.6,0-1.3,0-1.9-0.1c-9.4-0.5-18.8-2.2-27.8-5.5c-4.5-1.6-8.9-3.5-13.2-5.7c-1.9-1-3.8-2-5.6-3
		c-1.3-0.8-2.4-1.1-2.8-2.5c-0.3-0.9-0.2-2.4,0-3.7c0.1-0.8,0.2-1.6,0.3-2.2c0.2-3.9,0.5-7.8,1-11.7c0.7-5.6,2.6-10.9,2.8-16.6
		c0.2-4.1-0.1-19,0.1-22.4c0.2-2.5,0.3-5,0.5-7.6c0.3-4.8,0.7-9.6,1-14.5c0.9-13.8,1.9-27.6,2.8-41.3c0.7-9.8,1.3-19.6,2-29.4
		c0,0,91.3,7,91.3,7c0.6,0,2.5,16.5,2.7,17.5c2,12.7,3.9,25.3,5.9,38c2.1,13.9,5,28,6.3,42c0.4,4.5,0.9,9.1,0.9,13.6
		c0,4,1.4,7.9,2.1,11.8c0.4,2,1.8,5.7,2.4,8.9C1046.8,677.2,1046.9,679,1046.2,679.9z"/>
	<g>
		<path class="st45" d="M981.3,702.7V553.5h-1.9h-3.5H974v149.1c0.6,0,1.3,0.1,1.9,0.1c1.2,0,2.4,0.1,3.5,0L981.3,702.7z"/>
		<path class="st45" d="M979.4,553.5v149.3c-1.2,0-2.3,0-3.5,0V553.5H979.4z"/>
	</g>
	<g>
		<g>
			<g>
				<g>
					<g>
						<path class="st46" d="M1031.9,659.7l0.5-0.2c0,0,0,0.2,0.1,0.5"/>
						<path class="st47" d="M1033,662c1,4.3,2.8,13,0.9,16.9c-2,4.1-15.6,7-21.3,8c-1.6,0.3-3.2-0.5-3.9-2c-1.5-3-3.8-8.6-4.1-14.6"
							/>
						<path class="st46" d="M1004.6,669.4c0-0.2,0-0.3,0-0.5l0.5-0.2"/>
						<line class="st48" x1="1006.9" y1="668.1" x2="1031" y2="660.1"/>
					</g>
				</g>
			</g>
			<path class="st49" d="M1032.4,659.6c0,0,4.1,14.1,1.6,19.4c-2,4.1-15.6,7-21.3,8c-1.6,0.3-3.2-0.5-3.9-2
				c-1.6-3.3-4.1-9.6-4.1-16.1L1032.4,659.6z"/>
			<path class="st6" d="M1003,668.6c-0.1,2.8,0.6,2.1,2.4,2.2c0.7,0,1.2,0.5,2.1,0.4c0.4-0.1,0.9-0.4,1.3-0.5
				c1.4-0.4,2.2-0.6,3.7-0.7c1.2-0.1,1.8-0.8,2.8-1.2c0.9-0.3,1.9,0,2.2-1.3c1.2,0.2,2,0.1,3.1-0.2c0.8-0.2,2.5-0.3,3.3-0.8
				c1.3-0.6,1.1-1.3,2.5-1.5c1.3-0.2,2.6,0.1,3.2-1.4c1.9,0.9,1.8-0.6,2.9-1.4c0.7-0.5,1.6,0.2,2-1.2c0.5-1.8-2.6-5.1-3.7-2.5
				c-1-0.4-2.8,0.1-2.7,1.5c-1.4-0.6-2.3,0.1-3.6,0.4c-0.5,0.1-1.1-0.2-1.7-0.1c-1.1,0.3-2,1.4-2.3,2.5c-1.1-1-3.2,0.1-3.6,1.4
				c-0.6-1-2.6-0.2-2.9,0.7c-1.4-1-3.4-0.6-4,1.2c-0.9-1.9-3.2,0.3-3.8,1.2C1004.8,666.8,1003.5,666.5,1003,668.6z"/>
		</g>
		<g>
			<g>
				<g>
					<g>
						<path class="st46" d="M935.9,659.7l-0.5-0.2c0,0,0,0.2-0.1,0.5"/>
						<path class="st47" d="M934.7,662c-1,4.3-2.8,13-0.9,16.9c2,4.1,15.6,7,21.3,8c1.6,0.3,3.2-0.5,3.9-2c1.5-3,3.8-8.6,4.1-14.6"
							/>
						<path class="st46" d="M963.2,669.4c0-0.2,0-0.3,0-0.5l-0.5-0.2"/>
						<line class="st48" x1="960.9" y1="668.1" x2="936.8" y2="660.1"/>
					</g>
				</g>
			</g>
			<path class="st49" d="M935.4,659.6c0,0-4.1,14.1-1.6,19.4c2,4.1,15.6,7,21.3,8c1.6,0.3,3.2-0.5,3.9-2c1.6-3.3,4.1-9.6,4.1-16.1
				L935.4,659.6z"/>
			<path class="st6" d="M964.8,668.6c0.1,2.8-0.6,2.1-2.4,2.2c-0.7,0-1.2,0.5-2.1,0.4c-0.4-0.1-0.9-0.4-1.3-0.5
				c-1.4-0.4-2.2-0.6-3.7-0.7c-1.2-0.1-1.8-0.8-2.8-1.2c-0.9-0.3-1.9,0-2.2-1.3c-1.2,0.2-2,0.1-3.1-0.2c-0.8-0.2-2.5-0.3-3.3-0.8
				c-1.3-0.6-1.1-1.3-2.5-1.5c-1.3-0.2-2.6,0.1-3.2-1.4c-1.9,0.9-1.8-0.6-2.9-1.4c-0.7-0.5-1.6,0.2-2-1.2c-0.5-1.8,2.6-5.1,3.7-2.5
				c1-0.4,2.8,0.1,2.7,1.5c1.4-0.6,2.3,0.1,3.6,0.4c0.5,0.1,1.1-0.2,1.7-0.1c1.1,0.3,2,1.4,2.3,2.5c1.1-1,3.2,0.1,3.6,1.4
				c0.6-1,2.6-0.2,2.9,0.7c1.4-1,3.4-0.6,4,1.2c0.9-1.9,3.2,0.3,3.8,1.2C963,666.8,964.3,666.5,964.8,668.6z"/>
		</g>
	</g>
	<path class="st45" d="M932.8,680.9c-0.6,3.6-0.7,7.2,0.1,10.5c0,0-3,2.6-0.5,6.1c-0.6-0.3-1.2-0.7-1.8-1c-1.4-0.8-2.8-1.7-4.1-2.6
		c-0.6-0.4-1.2-0.8-1.8-1.2c0,0-0.1-0.1-0.1-0.1c-2.7-1.9-3.5-5.6-1.9-8.3c0.2-0.3,0.4-0.6,0.6-0.8c0.1-0.1,0.2-0.2,0.3-0.4
		c0.1-0.1,0.3-0.3,0.5-0.4c0.1-0.1,0.3-0.2,0.5-0.3c0.1-0.8,0.2-1.6,0.3-2.2c0.2-3.9,0.5-7.8,1-11.7c0.7-5.6,2.6-10.9,2.8-16.6
		c0.2-4.1-0.1-19,0.1-22.4c0.2-2.5,0.3-5,0.5-7.6l13.2,18.1l-1.3,19C941.1,658.8,934.7,669.9,932.8,680.9z"/>
	<path class="st28" d="M1032.5,476c0,0,16.1-7.4,11.2,10.6c-4.9,17.9-15.5,10.2-15.5,10.2L1032.5,476z"/>
	<path d="M1040.6,461.5c0,0,0.9,20.9-6.7,29.3c0,0,4.3-17.5,3.4-23.9l-3.4,12.2l-1.9-26.7c0,0-30-28-52-23.1
		c-22,4.9-36.7,8.6-49,23.1l-3.7,32.5l-2-7.3l-0.9,19.3l-2.7-34.1c0,0,13-25.2,31.3-29.9c18.3-4.7,38.2-15.7,75.3,11.7L1040.6,461.5
		z"/>
	<path class="st21" d="M958.8,532.1l12.7,101.5c0.1,1.2-1,2.1-2.1,1.8l-4.4-1.3c-0.5-0.1-1-0.1-1.5,0.3l-3.9,2.9
		c-1,0.7-2.4,0.2-2.6-1l-0.2-1.1c-0.3-1.4-2-1.8-2.9-0.7l-1.6,2.1c-0.8,1-2.4,0.8-2.8-0.5l-0.6-1.7c-0.5-1.3-2.2-1.5-2.9-0.3
		l-1.7,2.6c-0.7,1-2.2,1-2.8-0.1l-1.4-2.3c-0.8-1.3-2.7-1-3,0.5l0,0c-0.3,1.5-2.4,1.8-3.1,0.4l-4.1-8.1l8.1-102L958.8,532.1z"/>
	<g>
		<path class="st44" d="M958.4,644.5c-0.3,0-0.6,0-0.9,0c-85.9-2-31.9-114.9-31.9-114.9l3,2l17.6,11.9c-34.2,79,0,72.9,8.2,70.5
			c0.2,0,0.3-0.1,0.4-0.1c0.8-0.2,1.2-0.4,1.2-0.4c0.1,0.1,0.2,0.1,0.3,0.2c3.6,2.1,5,6.5,5.2,11.3C962,634,958.4,644.5,958.4,644.5
			z"/>
		<path class="st36" d="M990.9,641.8c-0.4,0.4-0.9,0.8-1.5,1.1c-6.2,3.5-22.1,4.2-25.9,3.5c-2.9-0.5-4.7-1-6-1.9
			c-1.7-1.2-2.5-3.1-3.6-6.6c-1.2-3.9-2.4-9.5-2.2-14.2c0.1-1.6,0.3-3.1,0.7-4.4c0.4-1.3,1.4-4.4,2-5.3c0.2-0.3,0.3-0.3,0.4-0.1
			c0,0,0,0.1,0,0.1c0.5-0.1,1-0.2,1.5-0.3c6.2-1.4,12.1-3.9,18.4-4.5c2.4-0.2,7-0.2,7.6,2.4c0.7,3-4.9,5.8-2.8,8.1
			c1.4,1.5,9.2,0.8,11,0.9c3.5,0.2,7,1.6,8.8,5C1002,630.3,994.3,638.3,990.9,641.8z"/>
	</g>
	<path class="st45" d="M990.6,624.2l-1.2,18.7c-6.2,3.5-22.1,4.2-25.9,3.5c-2.9-0.5-4.7-1-6-1.9c-85.9-2-31.9-114.9-31.9-114.9l3,2
		c-0.2,1.4-0.2,3-0.2,4.8c0,0-42.2,75.2,23.3,87.2c3,0.6,6.3,1,9.9,1.3C969.8,625.5,979.4,625.4,990.6,624.2z"/>
	<path class="st21" d="M968.4,609l3.1,24.6c0.1,1.2-1,2.1-2.1,1.8l-4.4-1.3c-0.5-0.1-1-0.1-1.5,0.3l-3.9,2.9c-1,0.7-2.4,0.2-2.6-1
		l-0.2-1.1c-0.3-1.4-2-1.8-2.9-0.7l-1.6,2.1c-0.8,1-2.4,0.8-2.8-0.5l-0.6-1.7c-0.5-1.3-2.2-1.5-2.9-0.3l-1.7,2.6
		c-0.7,1-2.2,1-2.8-0.1l-1.4-2.3c-0.8-1.3-2.7-1-3,0.5l0,0c-0.3,1.5-2.4,1.8-3.1,0.4l0,0c-2.7-5.3-3.8-11.2-3.4-17.1l1.6-20.5
		L968.4,609z"/>
	<g>
		<path class="st44" d="M1007,644.5c-0.3,0-0.6,0-1,0c0,0-4.2-12.3-3-21.7c0.5-3.9,1.9-7.4,5-9.2c0.1-0.1,0.2-0.2,0.4-0.2
			c0,0,0.4,0.2,1.2,0.4c0.1,0,0.3,0.1,0.4,0.1c8.2,2.4,42.3,8.6,8.2-70.5l8.8-7.6l17.1-14.7C1044,521.2,1092.8,642.4,1007,644.5z"/>
		<path class="st36" d="M1012.7,624.5c0,4.6-1.1,9.7-2.2,13.4c-1.1,3.5-1.9,5.4-3.6,6.6c-1.3,0.9-3.1,1.4-6,1.9
			c-4.3,0.8-23-0.2-27.5-4.7c-2.1-2.1-5.7-5.8-7.7-9.5c-1.3-2.4-1.9-4.9-0.9-6.8c1.8-3.4,5.3-4.8,8.8-5c1.9-0.1,9.7,0.6,11-0.9v0
			c0.8-0.9,0.5-1.9-0.2-2.9c-0.5-0.8-1.3-1.6-1.8-2.5c0,0,0,0,0,0c-0.6-0.9-0.9-1.8-0.7-2.7c0.3-1.5,1.9-2.1,3.7-2.4
			c0.4-0.1,0.7-0.1,1.1-0.1c0.2,0,0.3,0,0.5,0c0.9,0,1.7,0,2.4,0.1c6.3,0.6,12.2,3.1,18.4,4.5c0.5,0.1,1,0.2,1.5,0.3
			c0,0,0-0.1,0-0.1c0.1-0.2,0.2-0.1,0.4,0.1c0.6,0.8,1.5,3.7,1.9,5.1c0,0.1,0,0.1,0.1,0.2C1012.5,620.8,1012.7,622.6,1012.7,624.5z"
			/>
		<path class="st45" d="M987.7,621.7c-13.6,0.6-21.2,0.5-21.8,10.5c-1.3-2.4-1.9-4.9-0.9-6.8c1.8-3.4,5.3-4.8,8.8-5
			c1.9-0.1,9.7,0.6,11-0.9v0c0.8-0.9,0.5-1.9-0.2-2.9c-0.5-0.8-1.3-1.6-1.8-2.5C989.5,618.7,989.3,621.7,987.7,621.7z"/>
		<path class="st45" d="M1012.3,619.2c-11.9-5.7-20.4-8.8-26.6-10.1c1.4-0.2,2.8-0.2,3.9-0.1c6.3,0.6,12.2,3.1,18.4,4.5
			c0.1-0.1,0.2-0.2,0.4-0.2c0,0,0.4,0.2,1.2,0.4c0.1-0.2,0.2-0.1,0.4,0.1c8.2,2.4,42.3,8.6,8.2-70.5l8.8-7.6
			C1035.1,554.9,1063.7,619,1012.3,619.2z"/>
	</g>
	<path class="st21" d="M1040.6,543.5c-17.8,22.7-88.7,20-107.9-1.3c-1.8-2-3.2-3.9-4.3-5.7v0c-6-9.7-2.8-17.1,3.5-21.3
		c0,0,1.8,1.8,5.1,4.4c13.2,10.2,50.7,32,96.4-4.1C1033.4,515.4,1058.5,520.7,1040.6,543.5z"/>
	<g>
		<path class="st44" d="M1044,460.8c-0.5,2.1-1.1,4.1-1.9,6.2l0,0c0,0,0,0,0,0c0,0-0.1-0.1-0.1-0.1c-0.1-0.1-0.3-0.4-0.6-0.7
			c-0.2-0.3-0.5-0.6-0.8-1c-0.6-0.8-1.4-1.8-2.4-2.9c-1.6-1.8-3.6-4-6-6.3c-1.1-1-2.2-2.1-3.4-3.3c-18.6-16.9-82.7-40.7-103.8,11.1
			c-1,2.4-1.9,5.1-2.7,7.8c-0.3,1.1-2.8,0.1-3.7-4.7c0,0,0,0,0,0c-0.1-0.8-0.3-1.6-0.4-2.5c-2.7-19.9-0.1-64.6,45-75.3
			c5.8-1.4,12.3-2.2,19.6-2.3c16.8-0.3,29.2,4.7,41.5,13.8C1037.2,410.1,1050.8,433.9,1044,460.8z"/>
		<path class="st22" d="M1039.5,468.2c-31.7-42.5-76.6-30.2-91.8-23.9c-9.1,3.7-16.3,13.9-20.6,21.4l0,0c-1.2,2.1-2.2,4-2.9,5.5
			c-1.6,3.3-6.8,1.9-6.3-1.8c0-0.2,0-0.3,0-0.3c0-1.6,0.2-3.2,0.4-4.7c1-6.6,3.8-12.6,7.4-17.8c0,0,0-0.1,0-0.1
			c0.8-1.1,1.6-2.2,2.4-3.2c12.3-15.3,31.1-23.5,50.7-23.3c44.3,0.5,65.2,40.7,65.2,40.7C1046.4,470.8,1039.5,468.2,1039.5,468.2z"
			/>
	</g>
	<path class="st26" d="M928.4,536.4c-6-9.7-2.8-17.1,3.5-21.3c0,0,1.8,1.8,5.1,4.4C934,521.2,926.7,526.4,928.4,536.4z"/>
	<path class="st45" d="M925.7,446.6C925.7,446.6,925.7,446.6,925.7,446.6c-0.4,0.9-5.1,11.3-0.7,17.2c0.5,0.7,1.2,1.4,2,1.9l0,0
		c-1.2,2.1-2.2,4-2.9,5.5c-1.6,3.3-6.8,1.9-6.3-1.8c0-0.2,0-0.3,0-0.3c0-1.6,0.2-3.2,0.4-4.7c-2.7-19.9-0.1-64.6,45-75.3h4.4
		C967.7,389.1,923.2,416.8,925.7,446.6z"/>
</g>
<g>
	<g>
		<g>
			<rect x="15.9" y="700.9" class="st50" width="10.1" height="10.1"/>
			<circle class="st51" cx="21" cy="706" r="5.1"/>
		</g>
		<g>
			<rect x="65.5" y="706.8" class="st50" width="12.6" height="12.6"/>
			<circle class="st51" cx="71.8" cy="713.1" r="6.3"/>
		</g>
		<g>
			<rect x="149.2" y="669.6" class="st50" width="12.6" height="12.6"/>
			<circle class="st51" cx="155.5" cy="675.9" r="6.3"/>
		</g>
		<g>
			<rect x="251" y="846.3" class="st50" width="13.1" height="13.1"/>
			<circle class="st51" cx="257.5" cy="852.8" r="6.6"/>
		</g>
		<g>
			<rect x="292.2" y="732.3" class="st50" width="5.9" height="5.9"/>
			<circle class="st51" cx="295.2" cy="735.3" r="3"/>
		</g>
		<g>
			<rect x="384.5" y="771.4" class="st50" width="6.7" height="6.7"/>
			<circle class="st51" cx="387.8" cy="774.8" r="3.4"/>
		</g>
		<g>
			<rect x="493.2" y="744.8" class="st50" width="6.3" height="6.3"/>
			<circle class="st51" cx="496.4" cy="748" r="3.2"/>
		</g>
		<g>
			<rect x="533.8" y="664.2" class="st50" width="10.1" height="10.1"/>
			<circle class="st51" cx="538.8" cy="669.3" r="5"/>
		</g>
		<g>
			<rect x="601.7" y="749.3" class="st50" width="11.8" height="11.8"/>
			<circle class="st51" cx="607.5" cy="755.1" r="5.9"/>
		</g>
		<g>
			<rect x="696.1" y="738.5" class="st50" width="9.8" height="9.8"/>
			<circle class="st51" cx="701" cy="743.4" r="4.9"/>
		</g>
		<g>
			<rect x="757.9" y="845.7" class="st50" width="5.7" height="5.7"/>
			<circle class="st51" cx="760.8" cy="848.6" r="2.9"/>
		</g>
		<g>
			<rect x="790" y="792.7" class="st50" width="8.7" height="8.7"/>
			<circle class="st51" cx="794.3" cy="797" r="4.3"/>
		</g>
		<g>
			<rect x="881.5" y="762.3" class="st50" width="6.6" height="6.6"/>
			<circle class="st51" cx="884.8" cy="765.6" r="3.3"/>
		</g>
		<g>
			<rect x="919" y="775.1" class="st50" width="9.7" height="9.7"/>
			<circle class="st51" cx="923.9" cy="780" r="4.8"/>
		</g>
		<g>
			<rect x="1025.7" y="748.8" class="st50" width="9.1" height="9.1"/>
			<circle class="st51" cx="1030.3" cy="753.3" r="4.6"/>
		</g>
		<g>
			<rect x="1088" y="805.9" class="st50" width="12.5" height="12.5"/>
			<circle class="st51" cx="1094.3" cy="812.1" r="6.3"/>
		</g>
		<g>
			<rect x="1169.2" y="659.6" class="st50" width="8" height="8"/>
			<circle class="st51" cx="1173.2" cy="663.6" r="4"/>
		</g>
		<g>
			<rect x="1246.3" y="815.8" class="st50" width="9" height="9"/>
			<circle class="st51" cx="1250.8" cy="820.3" r="4.5"/>
		</g>
		<g>
			<rect x="1291.9" y="633" class="st50" width="11.1" height="11.1"/>
			<circle class="st51" cx="1297.5" cy="638.6" r="5.6"/>
		</g>
		<g>
			<rect x="1314.3" y="693.9" class="st50" width="7.8" height="7.8"/>
			<circle class="st51" cx="1318.2" cy="697.8" r="3.9"/>
		</g>
		<g>
			<rect x="1284.1" y="748.3" class="st50" width="8.3" height="8.3"/>
			<circle class="st51" cx="1288.2" cy="752.5" r="4.1"/>
		</g>
		<g>
			<rect x="1194" y="650.9" class="st50" width="6.2" height="6.2"/>
			<circle class="st51" cx="1197.1" cy="654" r="3.1"/>
		</g>
		<g>
			<rect x="1048.7" y="674.6" class="st50" width="12.8" height="12.8"/>
			<circle class="st51" cx="1055.1" cy="681" r="6.4"/>
		</g>
		<g>
			<rect x="1001.9" y="659.6" class="st50" width="12.4" height="12.4"/>
			<circle class="st51" cx="1008.1" cy="665.8" r="6.2"/>
		</g>
		<g>
			<rect x="982.4" y="606" class="st50" width="9.4" height="9.4"/>
			<circle class="st51" cx="987.1" cy="610.7" r="4.7"/>
		</g>
		<g>
			<rect x="883" y="653.9" class="st50" width="12.6" height="12.6"/>
			<circle class="st51" cx="889.3" cy="660.2" r="6.3"/>
		</g>
		<g>
			<rect x="803.2" y="540.2" class="st50" width="8.7" height="8.7"/>
			<circle class="st51" cx="807.5" cy="544.5" r="4.3"/>
		</g>
		<g>
			<rect x="660.9" y="657.7" class="st50" width="10.8" height="10.8"/>
			<circle class="st51" cx="666.3" cy="663.1" r="5.4"/>
		</g>
		<g>
			<rect x="575" y="537.8" class="st50" width="13.2" height="13.2"/>
			<circle class="st51" cx="581.6" cy="544.4" r="6.6"/>
		</g>
		<g>
			<rect x="507.4" y="606.9" class="st50" width="9.7" height="9.7"/>
			<circle class="st51" cx="512.2" cy="611.8" r="4.8"/>
		</g>
		<g>
			<rect x="434.6" y="533.9" class="st50" width="10.3" height="10.3"/>
			<circle class="st51" cx="439.8" cy="539" r="5.2"/>
		</g>
		<g>
			<rect x="373.4" y="529.4" class="st50" width="8.3" height="8.3"/>
			<circle class="st51" cx="377.5" cy="533.5" r="4.2"/>
		</g>
		<g>
			<rect x="257.6" y="619.3" class="st50" width="12.3" height="12.3"/>
			<circle class="st51" cx="263.7" cy="625.4" r="6.1"/>
		</g>
		<g>
			<rect x="150.7" y="619.8" class="st50" width="9.6" height="9.6"/>
			<circle class="st51" cx="155.4" cy="624.6" r="4.8"/>
		</g>
		<g>
			<rect x="121.4" y="677.7" class="st50" width="9.9" height="9.9"/>
			<circle class="st51" cx="126.4" cy="682.6" r="5"/>
		</g>
		<g>
			<rect x="83.9" y="520.8" class="st50" width="9.8" height="9.8"/>
			<circle class="st51" cx="88.8" cy="525.7" r="4.9"/>
		</g>
		<g>
			<rect x="163" y="402" class="st50" width="9.5" height="9.5"/>
			<circle class="st51" cx="167.8" cy="406.7" r="4.7"/>
		</g>
		<g>
			<rect x="256.7" y="427" class="st50" width="13" height="13"/>
			<circle class="st51" cx="263.3" cy="433.5" r="6.5"/>
		</g>
		<g>
			<rect x="319.2" y="346.6" class="st50" width="7.6" height="7.6"/>
			<circle class="st51" cx="323" cy="350.4" r="3.8"/>
		</g>
		<g>
			<rect x="385.1" y="324" class="st50" width="10.5" height="10.5"/>
			<circle class="st51" cx="390.4" cy="329.3" r="5.2"/>
		</g>
		<g>
			<rect x="489.9" y="514.4" class="st50" width="10.5" height="10.5"/>
			<circle class="st51" cx="495.1" cy="519.6" r="5.2"/>
		</g>
		<g>
			<rect x="636.9" y="437" class="st50" width="7.4" height="7.4"/>
			<circle class="st51" cx="640.6" cy="440.8" r="3.7"/>
		</g>
		<g>
			<rect x="707.6" y="473.9" class="st50" width="11.3" height="11.3"/>
			<circle class="st51" cx="713.3" cy="479.6" r="5.7"/>
		</g>
		<g>
			<rect x="847.4" y="361.2" class="st50" width="8" height="8"/>
			<circle class="st51" cx="851.4" cy="365.2" r="4"/>
		</g>
		<g>
			<rect x="900" y="477.4" class="st50" width="7.9" height="7.9"/>
			<circle class="st51" cx="903.9" cy="481.3" r="4"/>
		</g>
		<g>
			<rect x="1039" y="397.8" class="st50" width="5.8" height="5.8"/>
			<circle class="st51" cx="1041.9" cy="400.7" r="2.9"/>
		</g>
		<g>
			<rect x="1117.6" y="417.6" class="st50" width="8.9" height="8.9"/>
			<circle class="st51" cx="1122.1" cy="422.1" r="4.5"/>
		</g>
		<g>
			<rect x="1157.7" y="525.7" class="st50" width="10.1" height="10.1"/>
			<circle class="st51" cx="1162.8" cy="530.8" r="5.1"/>
		</g>
		<g>
			<rect x="1289.8" y="493.6" class="st50" width="7.5" height="7.5"/>
			<circle class="st51" cx="1293.5" cy="497.4" r="3.8"/>
		</g>
		<g>
			<rect x="1353.9" y="375.5" class="st50" width="8.8" height="8.8"/>
			<circle class="st51" cx="1358.3" cy="379.9" r="4.4"/>
		</g>
		<g>
			<rect x="1369.5" y="376.3" class="st50" width="9.6" height="9.6"/>
			<circle class="st51" cx="1374.3" cy="381.1" r="4.8"/>
		</g>
		<g>
			<rect x="1346.3" y="379.9" class="st50" width="10.4" height="10.4"/>
			<circle class="st51" cx="1351.5" cy="385.1" r="5.2"/>
		</g>
		<g>
			<rect x="1246.2" y="423.2" class="st50" width="8.2" height="8.2"/>
			<circle class="st51" cx="1250.2" cy="427.3" r="4.1"/>
		</g>
		<g>
			<rect x="1197.3" y="440.4" class="st50" width="7.2" height="7.2"/>
			<circle class="st51" cx="1200.9" cy="444" r="3.6"/>
		</g>
		<g>
			<rect x="1108" y="275.6" class="st50" width="6.1" height="6.1"/>
			<circle class="st51" cx="1111" cy="278.7" r="3"/>
		</g>
		<g>
			<rect x="1032" y="326.9" class="st50" width="7.9" height="7.9"/>
			<circle class="st51" cx="1036" cy="330.9" r="4"/>
		</g>
		<g>
			<rect x="935.4" y="419.2" class="st50" width="9.3" height="9.3"/>
			<circle class="st51" cx="940" cy="423.8" r="4.6"/>
		</g>
		<g>
			<rect x="849.8" y="455.7" class="st50" width="8.6" height="8.6"/>
			<circle class="st51" cx="854.1" cy="460" r="4.3"/>
		</g>
		<g>
			<rect x="815.8" y="444.6" class="st50" width="10.3" height="10.3"/>
			<circle class="st51" cx="820.9" cy="449.8" r="5.1"/>
		</g>
		<g>
			<rect x="726.1" y="441.8" class="st50" width="8" height="8"/>
			<circle class="st51" cx="730.1" cy="445.7" r="4"/>
		</g>
		<g>
			<rect x="652" y="379.1" class="st50" width="8.6" height="8.6"/>
			<circle class="st51" cx="656.3" cy="383.4" r="4.3"/>
		</g>
		<g>
			<rect x="518.1" y="268.2" class="st50" width="7.4" height="7.4"/>
			<circle class="st51" cx="521.8" cy="272" r="3.7"/>
		</g>
		<g>
			<rect x="388" y="381.1" class="st50" width="6" height="6"/>
			<circle class="st51" cx="391" cy="384.1" r="3"/>
		</g>
		<g>
			<rect x="361.9" y="293.7" class="st50" width="11.1" height="11.1"/>
			<circle class="st51" cx="367.4" cy="299.2" r="5.6"/>
		</g>
		<g>
			<rect x="267.9" y="384.7" class="st50" width="6.5" height="6.5"/>
			<circle class="st51" cx="271.2" cy="387.9" r="3.2"/>
		</g>
		<g>
			<rect x="195.9" y="235" class="st50" width="12.8" height="12.8"/>
			<circle class="st51" cx="202.3" cy="241.4" r="6.4"/>
		</g>
		<g>
			<rect x="173.2" y="357.9" class="st50" width="12.2" height="12.2"/>
			<circle class="st51" cx="179.3" cy="364" r="6.1"/>
		</g>
		<g>
			<rect x="147.6" y="377.2" class="st50" width="12.4" height="12.4"/>
			<circle class="st51" cx="153.7" cy="383.4" r="6.2"/>
		</g>
		<g>
			<rect x="94.3" y="279.6" class="st50" width="9.6" height="9.6"/>
			<circle class="st51" cx="99.1" cy="284.4" r="4.8"/>
		</g>
		<g>
			<rect x="40.9" y="278.8" class="st50" width="9" height="9"/>
			<circle class="st51" cx="45.4" cy="283.3" r="4.5"/>
		</g>
		<g>
			<rect x="27.4" y="171.9" class="st50" width="9.8" height="9.8"/>
			<circle class="st51" cx="32.3" cy="176.8" r="4.9"/>
		</g>
		<g>
			<rect x="143.6" y="141.5" class="st50" width="11.6" height="11.6"/>
			<circle class="st51" cx="149.4" cy="147.3" r="5.8"/>
		</g>
		<g>
			<rect x="202" y="203.7" class="st50" width="12.3" height="12.3"/>
			<circle class="st51" cx="208.1" cy="209.9" r="6.1"/>
		</g>
		<g>
			<rect x="220.5" y="171.2" class="st50" width="10.4" height="10.4"/>
			<circle class="st51" cx="225.7" cy="176.4" r="5.2"/>
		</g>
		<g>
			<rect x="324" y="196.3" class="st50" width="6" height="6"/>
			<circle class="st51" cx="327" cy="199.3" r="3"/>
		</g>
		<g>
			<rect x="367.5" y="124.5" class="st50" width="6" height="6"/>
			<circle class="st51" cx="370.5" cy="127.5" r="3"/>
		</g>
		<g>
			<rect x="371.2" y="217.2" class="st50" width="10" height="10"/>
			<circle class="st51" cx="376.2" cy="222.2" r="5"/>
		</g>
		<g>
			<rect x="439.6" y="129.5" class="st50" width="6.1" height="6.1"/>
			<circle class="st51" cx="442.6" cy="132.6" r="3"/>
		</g>
		<g>
			<rect x="505.6" y="187.7" class="st50" width="13.1" height="13.1"/>
			<circle class="st51" cx="512.2" cy="194.3" r="6.5"/>
		</g>
		<g>
			<rect x="579.4" y="108.1" class="st50" width="8.5" height="8.5"/>
			<circle class="st51" cx="583.7" cy="112.4" r="4.3"/>
		</g>
		<g>
			<rect x="614.8" y="223.9" class="st50" width="6.1" height="6.1"/>
			<circle class="st51" cx="617.9" cy="227" r="3.1"/>
		</g>
		<g>
			<rect x="746.4" y="231.3" class="st50" width="12.9" height="12.9"/>
			<circle class="st51" cx="752.8" cy="237.7" r="6.4"/>
		</g>
		<g>
			<rect x="827.1" y="211.3" class="st50" width="10.3" height="10.3"/>
			<circle class="st51" cx="832.2" cy="216.4" r="5.1"/>
		</g>
		<g>
			<rect x="956.4" y="193.6" class="st50" width="9" height="9"/>
			<circle class="st51" cx="960.8" cy="198.1" r="4.5"/>
		</g>
		<g>
			<rect x="973.4" y="84.3" class="st50" width="12.6" height="12.6"/>
			<circle class="st51" cx="979.7" cy="90.6" r="6.3"/>
		</g>
		<g>
			<rect x="1086" y="104.9" class="st50" width="11.3" height="11.3"/>
			<circle class="st51" cx="1091.7" cy="110.6" r="5.7"/>
		</g>
		<g>
			<rect x="1145.8" y="140.3" class="st50" width="8.8" height="8.8"/>
			<circle class="st51" cx="1150.2" cy="144.7" r="4.4"/>
		</g>
		<g>
			<rect x="1244" y="247.7" class="st50" width="12.1" height="12.1"/>
			<circle class="st51" cx="1250" cy="253.8" r="6.1"/>
		</g>
		<g>
			<rect x="1321" y="238.3" class="st50" width="13.4" height="13.4"/>
			<circle class="st51" cx="1327.7" cy="245" r="6.7"/>
		</g>
		<g>
			<rect x="1326.9" y="169.8" class="st50" width="9.6" height="9.6"/>
			<circle class="st51" cx="1331.7" cy="174.6" r="4.8"/>
		</g>
		<g>
			<rect x="1288.9" y="169.4" class="st50" width="6.5" height="6.5"/>
			<circle class="st51" cx="1292.1" cy="172.6" r="3.2"/>
		</g>
		<g>
			<rect x="1257" y="57.1" class="st50" width="9.8" height="9.8"/>
			<circle class="st51" cx="1262" cy="62" r="4.9"/>
		</g>
		<g>
			<rect x="1165.2" y="19.2" class="st50" width="6.2" height="6.2"/>
			<circle class="st51" cx="1168.3" cy="22.3" r="3.1"/>
		</g>
		<g>
			<rect x="1108.1" y="63.9" class="st50" width="9.1" height="9.1"/>
			<circle class="st51" cx="1112.6" cy="68.4" r="4.5"/>
		</g>
		<g>
			<rect x="1087.8" y="69.7" class="st50" width="10.1" height="10.1"/>
			<circle class="st51" cx="1092.8" cy="74.7" r="5"/>
		</g>
		<g>
			<rect x="990.2" y="77.6" class="st50" width="12" height="12"/>
			<circle class="st51" cx="996.2" cy="83.7" r="6"/>
		</g>
		<g>
			<rect x="895.9" y="35.5" class="st50" width="12.7" height="12.7"/>
			<circle class="st51" cx="902.3" cy="41.9" r="6.4"/>
		</g>
		<g>
			<rect x="858.3" y="87.1" class="st50" width="9.3" height="9.3"/>
			<circle class="st51" cx="862.9" cy="91.8" r="4.7"/>
		</g>
		<g>
			<rect x="812.6" y="132.7" class="st50" width="10" height="10"/>
			<circle class="st51" cx="817.7" cy="137.7" r="5"/>
		</g>
		<g>
			<rect x="684.7" y="120.9" class="st50" width="12.6" height="12.6"/>
			<circle class="st51" cx="691.1" cy="127.3" r="6.3"/>
		</g>
		<g>
			<rect x="649.1" y="60.7" class="st50" width="13.1" height="13.1"/>
			<circle class="st51" cx="655.6" cy="67.2" r="6.5"/>
		</g>
		<g>
			<rect x="574.4" y="163.9" class="st50" width="8.2" height="8.2"/>
			<circle class="st51" cx="578.5" cy="168" r="4.1"/>
		</g>
		<g>
			<rect x="514.6" y="51.7" class="st50" width="10.7" height="10.7"/>
			<circle class="st51" cx="519.9" cy="57.1" r="5.3"/>
		</g>
		<g>
			<rect x="495.1" y="27.3" class="st50" width="13.4" height="13.4"/>
			<circle class="st51" cx="501.8" cy="34" r="6.7"/>
		</g>
		<g>
			<rect x="375.8" y="13.7" class="st50" width="6.2" height="6.2"/>
			<circle class="st51" cx="378.9" cy="16.8" r="3.1"/>
		</g>
		<g>
			<rect x="336.9" y="65.7" class="st50" width="12.1" height="12.1"/>
			<circle class="st51" cx="342.9" cy="71.8" r="6.1"/>
		</g>
		<g>
			<rect x="197.3" y="77.8" class="st50" width="6.6" height="6.6"/>
			<circle class="st51" cx="200.6" cy="81.2" r="3.3"/>
		</g>
		<g>
			<rect x="104.3" y="156.4" class="st50" width="13" height="13"/>
			<circle class="st51" cx="110.8" cy="162.9" r="6.5"/>
		</g>
		<g>
			<rect x="42.9" y="151" class="st50" width="7.1" height="7.1"/>
			<circle class="st51" cx="46.5" cy="154.6" r="3.6"/>
		</g>
	</g>
</g>
</svg>
