<?xml version="1.0" encoding="utf-8"?>
<!-- Generator: Adobe Illustrator 20.1.0, SVG Export Plug-In . SVG Version: 6.00 Build 0)  -->
<svg version="1.1" xmlns="http://www.w3.org/2000/svg" xmlns:xlink="http://www.w3.org/1999/xlink" x="0px" y="0px"
	 viewBox="0 0 1000 1000" style="enable-background:new 0 0 1000 1000;" xml:space="preserve">
<g id="Layer_5">
	<g id="Layer_5_1_">
		<rect x="-53.5" y="-53.5" style="fill:#96D0C7;" width="1107" height="1107"/>
	</g>
</g>
<g id="Capa_3">
	<g>
		<path style="fill:#439C61;" d="M29,63.5c-3.4-2.6-7.2-1.9-10.5,0.4c-0.2,0.1-0.4,0.2-0.5,0.4c-0.3,0-0.7,0-1,0.1
			c-7,1.2-12.2,5.4-17.6,9.8c-6.1,5.1-11.6,11.3-15.1,18.5c-3.5,7.1-5.2,14.5-6,22.4c-0.5,4.5-0.8,9-0.7,13.5
			c0.1,3.2-0.2,7.2,1.4,10.1c3.8,7,13.6,3.3,19.4,1.5c6.9-2.2,12.6-6.2,17.8-11.3c11.4-11.1,15.2-26.9,17.4-42.2
			C34.7,79.5,35.7,68.6,29,63.5z"/>
		<path style="fill:#439C61;" d="M60.9-20.8c-1-7.4-2.8-14.8-5.5-21.8c-2.7-7.2-6.6-13.6-10.1-20.4c-2-4-4.2-9.2-9.5-9.3
			c-6-0.1-9.4,7.3-11.7,11.8c-7.2,13.8-8.1,27.1-5.9,42.4C20.3-3.6,27.7,13.9,40.8,22c1.7,1,3.3,1.1,4.7,0.7
			c2.7,1.8,7.1,1.6,8.8-1.7C61.2,8.1,62.8-6.4,60.9-20.8z"/>
		<path style="fill:#EB6257;" d="M117.8,64.3c-2.2-4.8-5.4-9.1-8.7-13.2c-5.8-7.4-14.2-12.4-21.8-17.8c5.1-7.5,8.2-17.9,9.5-26
			c0.9-5.4,1.3-10.7,0.5-16.1c-0.5-3.7-0.4-9.2-2.9-12.2c-2.9-3.5-7.5-2.1-11.3-1.1c-5.4,1.5-10.5,3.9-15.4,6.4
			c-5.4,2.8-11.1,5.5-16.3,8.8c-3.6,2.3-6.5,5-9.5,7.9c-1.2-1.4-2.7-2.6-4.1-3.8c-3.9-3.1-8.6-6-13-8.4c-4.9-2.7-10.4-4-15.8-5.2
			c-3.7-0.8-9.5-3.1-13.1-1c-3.6,2-3.9,7.6-4.7,11.1c-1.2,5.1-1.3,10-0.7,15.2c1.1,9.1,3.1,19.2,8.2,27.1
			C-7.8,39-13.5,46.5-17.7,51.2c-3.6,4.1-6.6,8.4-9.3,13.1c-1.8,3.1-4.4,7.1-3.9,10.9c1,7.4,15.8,9.1,21.4,10.3
			c5.2,1.2,10.6,2.2,15.9,2.1c3.7-0.1,7.1-1.3,10.5-2c2.6,7.5,7.1,15,11.2,21.4c4.6,7,10.5,14.5,18.5,17.7c9,3.6,11.9-6.7,14.5-13.3
			c2.1-5.2,3.2-10.7,4.7-16.1c0.7-2.7,1.4-5.5,2.1-8.2c0.2-0.8,1-3.1,1.1-4.5c4.2,0.5,8.5,0.5,12.7,1.2c5.8,0.9,11.3,1.1,17.2,0.3
			c5.9-0.9,22.6-1.7,22.9-10.4C121.9,70.3,119.2,67.3,117.8,64.3z"/>
		<path style="fill:#F4E496;" d="M37.9,30.3c-7.7,0-7.7,12,0,12C45.6,42.3,45.6,30.3,37.9,30.3z"/>
		<path style="fill:#F4E496;" d="M24.4,47.2c-7.7,0-7.7,12,0,12C32.1,59.2,32.1,47.2,24.4,47.2z"/>
		<path style="fill:#F4E496;" d="M43.7,51.7c-7.7,0-7.7,12,0,12C51.4,63.7,51.4,51.7,43.7,51.7z"/>
		<path style="fill:#F4E496;" d="M57.4,39.1c-7.7,0-7.7,12,0,12C65.2,51.1,65.2,39.1,57.4,39.1z"/>
		<path style="fill:#F4E496;" d="M55.3,21.5c-7.7,0-7.7,12,0,12C63,33.5,63,21.5,55.3,21.5z"/>
	</g>
	<g>
		<path style="fill:#439C61;" d="M271.4-66.9c-6.2-0.6-12.8-2.4-17.3-6.9c-3.9-3.9-7-12.5-6.9-18.1c0.1-5.2-7.7-5.1-8,0
			c-0.4,6.3-4.6,14.3-8.6,19c-2.1,2.5-4.8,3.9-7.5,5.7c-2.9,2-5.7,4.6-9.5,3.9c-2.8-0.5-5.9,1.8-4.9,4.9c0.5,1.6,1.2,2.5,2.2,3.8
			c1.5,1.9,2.2,3.7,2.9,5.9c2,5.7,2.6,10.1,1.4,16.1c-0.8,3.8-2.1,8-6,9.7c-3.4,1.5-7.2-0.4-10.4,2c-1.7,1.3-2.6,3.4-1.4,5.5
			c4.2,7,15,10.2,16.4,19.1c0.3,2.1,1.8,2.9,3.4,2.9c1.3,1.3,3.4,2,5,0.8c4.9-3.7,9.2-7.8,14.6-10.9c6.5-3.8,13.2-5.4,20.2-7.8
			c2.5-0.9,3.7-3.5,2.4-5.9c-1.9-3.5-4.6-4.7-4.8-9.2c-0.3-5.1,1.5-9.5,4.2-13.7c2.5-3.8,4.7-7.6,7.9-10.9c2.9-3.1,5.7-6.4,8.2-9.9
			C276.8-63.6,274.2-66.6,271.4-66.9z"/>
		<path style="fill:#439C61;" d="M235.9,113.7c4.8-4,10.7-7.4,17.1-7.3c5.5,0,13.8,3.9,17.6,7.9c3.6,3.7,9.1-1.8,5.7-5.7
			c-4.2-4.7-6.9-13.4-7.4-19.5c-0.3-3.2,0.7-6.2,1.2-9.3c0.6-3.5,0.8-7.3,4-9.5c2.4-1.6,2.9-5.5,0-7c-1.5-0.8-2.6-0.9-4.2-1.1
			c-2.4-0.3-4.2-1.1-6.3-2.1c-5.4-2.6-9-5.3-12.4-10.4c-2.1-3.3-4.2-7.2-2.7-11.1c1.3-3.5,5.4-4.8,5.9-8.7c0.3-2.1-0.6-4.3-2.9-4.9
			c-7.9-2-17.8,3.3-25.1-2c-1.7-1.2-3.3-0.8-4.4,0.3c-1.8-0.1-3.8,1-4.1,2.9c-0.8,6.1-1,12-2.6,18c-1.9,7.2-5.5,13.2-8.7,19.8
			c-1.2,2.4-0.1,5.1,2.5,5.8c3.8,1.2,6.6,0.1,9.9,3.1c3.8,3.4,5.7,7.8,6.7,12.6c0.9,4.5,2,8.7,2.1,13.3c0.1,4.3,0.5,8.5,1.2,12.7
			C229.7,115.1,233.7,115.4,235.9,113.7z"/>
		<path style="fill:#439C61;" d="M133.3-39.2c-0.6,6.2-2.4,12.8-6.9,17.3c-3.9,3.9-12.5,7-18.1,6.9c-5.2-0.1-5.1,7.7,0,8
			c6.3,0.4,14.3,4.6,19,8.6c2.5,2.1,3.9,4.8,5.7,7.5c2,2.9,4.6,5.7,3.9,9.5c-0.5,2.8,1.8,5.9,4.9,4.9c1.6-0.5,2.5-1.2,3.8-2.2
			c1.9-1.5,3.7-2.2,5.9-2.9c5.7-2,10.1-2.6,16.1-1.4c3.8,0.8,8,2.1,9.7,6c1.5,3.4-0.4,7.2,2,10.4c1.3,1.7,3.4,2.6,5.5,1.4
			c7-4.2,10.2-15,19.1-16.4c2.1-0.3,2.9-1.8,2.9-3.4c1.3-1.3,2-3.4,0.8-5c-3.7-4.9-7.8-9.2-10.9-14.6c-3.8-6.5-5.4-13.2-7.8-20.2
			c-0.9-2.5-3.5-3.7-5.9-2.4c-3.5,1.9-4.7,4.6-9.2,4.8c-5.1,0.3-9.5-1.5-13.7-4.2c-3.8-2.5-7.6-4.7-10.9-7.9
			c-3.1-2.9-6.4-5.7-9.9-8.2C136.6-44.5,133.6-41.9,133.3-39.2z"/>
		<path style="fill:#EB6257;" d="M224.8,10.2c-2.2,0-3.9,0.6-5.3,1.6c2-5.6-0.8-13.1-8.5-13.1c-11.1,0-12.1,15.5-3.2,18.5
			c-12.1,0.1-12.1,19,0.1,19c7,0,10-6.2,9-11.5c1.4,2.6,4.1,4.6,8,4.6C237,29.2,237,10.2,224.8,10.2z M211,17.6
			c2.1,0,3.9-0.6,5.2-1.6c-0.6,1.8-0.8,3.8-0.4,5.7C214.8,19.8,213.2,18.3,211,17.6z"/>
	</g>
	<g>
		<path style="fill:#439C61;" d="M354.2,63.5c-3.4-2.6-7.2-1.9-10.5,0.4c-0.2,0.1-0.4,0.2-0.5,0.4c-0.3,0-0.7,0-1,0.1
			c-7,1.2-12.2,5.4-17.6,9.8c-6.1,5.1-11.6,11.3-15.1,18.5c-3.5,7.1-5.2,14.5-6,22.4c-0.5,4.5-0.8,9-0.7,13.5
			c0.1,3.2-0.2,7.2,1.4,10.1c3.8,7,13.6,3.3,19.4,1.5c6.9-2.2,12.6-6.2,17.8-11.3c11.4-11.1,15.2-26.9,17.4-42.2
			C359.9,79.5,360.8,68.6,354.2,63.5z"/>
		<path style="fill:#439C61;" d="M386.1-20.8c-1-7.4-2.8-14.8-5.5-21.8c-2.7-7.2-6.6-13.6-10.1-20.4c-2-4-4.2-9.2-9.5-9.3
			c-6-0.1-9.4,7.3-11.7,11.8c-7.2,13.8-8.1,27.1-5.9,42.4c2.1,14.7,9.4,32.1,22.6,40.2c1.7,1,3.3,1.1,4.7,0.7
			c2.7,1.8,7.1,1.6,8.8-1.7C386.3,8.1,387.9-6.4,386.1-20.8z"/>
		<path style="fill:#EB6257;" d="M442.9,64.3c-2.2-4.8-5.4-9.1-8.7-13.2c-5.8-7.4-14.2-12.4-21.8-17.8c5.1-7.5,8.2-17.9,9.5-26
			c0.9-5.4,1.3-10.7,0.5-16.1c-0.5-3.7-0.4-9.2-2.9-12.2c-2.9-3.5-7.5-2.1-11.3-1.1c-5.4,1.5-10.5,3.9-15.4,6.4
			c-5.4,2.8-11.1,5.5-16.3,8.8c-3.6,2.3-6.5,5-9.5,7.9c-1.2-1.4-2.7-2.6-4.1-3.8c-3.9-3.1-8.6-6-13-8.4c-4.9-2.7-10.4-4-15.8-5.2
			c-3.7-0.8-9.5-3.1-13.1-1c-3.6,2-3.9,7.6-4.7,11.1c-1.2,5.1-1.3,10-0.7,15.2c1.1,9.1,3.1,19.2,8.2,27.1
			c-6.5,3.1-12.2,10.5-16.4,15.3c-3.6,4.1-6.6,8.4-9.3,13.1c-1.8,3.1-4.4,7.1-3.9,10.9c1,7.4,15.8,9.1,21.4,10.3
			c5.2,1.2,10.6,2.2,15.9,2.1c3.7-0.1,7.1-1.3,10.5-2c2.6,7.5,7.1,15,11.2,21.4c4.6,7,10.5,14.5,18.5,17.7c9,3.6,11.9-6.7,14.5-13.3
			c2.1-5.2,3.2-10.7,4.7-16.1c0.7-2.7,1.4-5.5,2.1-8.2c0.2-0.8,1-3.1,1.1-4.5c4.2,0.5,8.5,0.5,12.7,1.2c5.8,0.9,11.3,1.1,17.2,0.3
			c5.9-0.9,22.6-1.7,22.9-10.4C447,70.3,444.3,67.3,442.9,64.3z"/>
		<path style="fill:#F4E496;" d="M363,30.3c-7.7,0-7.7,12,0,12C370.7,42.3,370.7,30.3,363,30.3z"/>
		<path style="fill:#F4E496;" d="M349.5,47.2c-7.7,0-7.7,12,0,12C357.2,59.2,357.3,47.2,349.5,47.2z"/>
		<path style="fill:#F4E496;" d="M368.8,51.7c-7.7,0-7.7,12,0,12C376.5,63.7,376.5,51.7,368.8,51.7z"/>
		<path style="fill:#F4E496;" d="M382.6,39.1c-7.7,0-7.7,12,0,12C390.3,51.1,390.3,39.1,382.6,39.1z"/>
		<path style="fill:#F4E496;" d="M380.4,21.5c-7.7,0-7.7,12,0,12C388.1,33.5,388.1,21.5,380.4,21.5z"/>
	</g>
	<g>
		<path style="fill:#439C61;" d="M596.6-66.9c-6.2-0.6-12.8-2.4-17.3-6.9c-3.9-3.9-7-12.5-6.9-18.1c0.1-5.2-7.7-5.1-8,0
			c-0.4,6.3-4.6,14.3-8.6,19c-2.1,2.5-4.8,3.9-7.5,5.7c-2.9,2-5.7,4.6-9.5,3.9c-2.8-0.5-5.9,1.8-4.9,4.9c0.5,1.6,1.2,2.5,2.2,3.8
			c1.5,1.9,2.2,3.7,2.9,5.9c2,5.7,2.6,10.1,1.4,16.1c-0.8,3.8-2.1,8-6,9.7c-3.4,1.5-7.2-0.4-10.4,2c-1.7,1.3-2.6,3.4-1.4,5.5
			c4.2,7,15,10.2,16.4,19.1c0.3,2.1,1.8,2.9,3.4,2.9c1.3,1.3,3.4,2,5,0.8c4.9-3.7,9.2-7.8,14.6-10.9c6.5-3.8,13.2-5.4,20.2-7.8
			c2.5-0.9,3.7-3.5,2.4-5.9c-1.9-3.5-4.6-4.7-4.8-9.2c-0.3-5.1,1.5-9.5,4.2-13.7c2.5-3.8,4.7-7.6,7.9-10.9c2.9-3.1,5.7-6.4,8.2-9.9
			C601.9-63.6,599.3-66.6,596.6-66.9z"/>
		<path style="fill:#439C61;" d="M561,113.7c4.8-4,10.7-7.4,17.1-7.3c5.5,0,13.8,3.9,17.6,7.9c3.6,3.7,9.1-1.8,5.7-5.7
			c-4.2-4.7-6.9-13.4-7.4-19.5c-0.3-3.2,0.7-6.2,1.2-9.3c0.6-3.5,0.8-7.3,4-9.5c2.4-1.6,2.9-5.5,0-7c-1.5-0.8-2.6-0.9-4.2-1.1
			c-2.4-0.3-4.2-1.1-6.3-2.1c-5.4-2.6-9-5.3-12.4-10.4c-2.1-3.3-4.2-7.2-2.7-11.1c1.3-3.5,5.4-4.8,5.9-8.7c0.3-2.1-0.6-4.3-2.9-4.9
			c-7.9-2-17.8,3.3-25.1-2c-1.7-1.2-3.3-0.8-4.4,0.3c-1.8-0.1-3.8,1-4.1,2.9c-0.8,6.1-1,12-2.6,18c-1.9,7.2-5.5,13.2-8.7,19.8
			c-1.2,2.4-0.1,5.1,2.5,5.8c3.8,1.2,6.6,0.1,9.9,3.1c3.8,3.4,5.7,7.8,6.7,12.6c0.9,4.5,2,8.7,2.1,13.3c0.1,4.3,0.5,8.5,1.2,12.7
			C554.9,115.1,558.9,115.4,561,113.7z"/>
		<path style="fill:#439C61;" d="M458.5-39.2c-0.6,6.2-2.4,12.8-6.9,17.3c-3.9,3.9-12.5,7-18.1,6.9c-5.2-0.1-5.1,7.7,0,8
			c6.3,0.4,14.3,4.6,19,8.6c2.5,2.1,3.9,4.8,5.7,7.5c2,2.9,4.6,5.7,3.9,9.5c-0.5,2.8,1.8,5.9,4.9,4.9c1.6-0.5,2.5-1.2,3.8-2.2
			c1.9-1.5,3.7-2.2,5.9-2.9c5.7-2,10.1-2.6,16.1-1.4c3.8,0.8,8,2.1,9.7,6c1.5,3.4-0.4,7.2,2,10.4c1.3,1.7,3.4,2.6,5.5,1.4
			c7-4.2,10.2-15,19.1-16.4c2.1-0.3,2.9-1.8,2.9-3.4c1.3-1.3,2-3.4,0.8-5c-3.7-4.9-7.8-9.2-10.9-14.6c-3.8-6.5-5.4-13.2-7.8-20.2
			c-0.9-2.5-3.5-3.7-5.9-2.4c-3.5,1.9-4.7,4.6-9.2,4.8c-5.1,0.3-9.5-1.5-13.7-4.2c-3.8-2.5-7.6-4.7-10.9-7.9
			c-3.1-2.9-6.4-5.7-9.9-8.2C461.8-44.5,458.7-41.9,458.5-39.2z"/>
		<path style="fill:#EB6257;" d="M549.9,10.2c-2.2,0-3.9,0.6-5.3,1.6c2-5.6-0.8-13.1-8.5-13.1c-11.1,0-12.1,15.5-3.2,18.5
			c-12.1,0.1-12.1,19,0.1,19c7,0,10-6.2,9-11.5c1.4,2.6,4.1,4.6,8,4.6C562.2,29.2,562.2,10.2,549.9,10.2z M536.2,17.6
			c2.1,0,3.9-0.6,5.2-1.6c-0.6,1.8-0.8,3.8-0.4,5.7C540,19.8,538.4,18.3,536.2,17.6z"/>
	</g>
	<g>
		<path style="fill:#439C61;" d="M679.3,63.5c-3.4-2.6-7.2-1.9-10.5,0.4c-0.2,0.1-0.4,0.2-0.5,0.4c-0.3,0-0.7,0-1,0.1
			c-7,1.2-12.2,5.4-17.6,9.8c-6.1,5.1-11.6,11.3-15.1,18.5c-3.5,7.1-5.2,14.5-6,22.4c-0.5,4.5-0.8,9-0.7,13.5
			c0.1,3.2-0.2,7.2,1.4,10.1c3.8,7,13.6,3.3,19.4,1.5c6.9-2.2,12.6-6.2,17.8-11.3C678,117.8,681.8,102,684,86.7
			C685,79.5,685.9,68.6,679.3,63.5z"/>
		<path style="fill:#439C61;" d="M711.2-20.8c-1-7.4-2.8-14.8-5.5-21.8c-2.7-7.2-6.6-13.6-10.1-20.4c-2-4-4.2-9.2-9.5-9.3
			c-6-0.1-9.4,7.3-11.7,11.8c-7.2,13.8-8.1,27.1-5.9,42.4c2.1,14.7,9.4,32.1,22.6,40.2c1.7,1,3.3,1.1,4.7,0.7
			c2.7,1.8,7.1,1.6,8.8-1.7C711.4,8.1,713.1-6.4,711.2-20.8z"/>
		<path style="fill:#EB6257;" d="M768,64.3c-2.2-4.8-5.4-9.1-8.7-13.2c-5.8-7.4-14.2-12.4-21.8-17.8c5.1-7.5,8.2-17.9,9.5-26
			c0.9-5.4,1.3-10.7,0.5-16.1c-0.5-3.7-0.4-9.2-2.9-12.2c-2.9-3.5-7.5-2.1-11.3-1.1c-5.4,1.5-10.5,3.9-15.4,6.4
			c-5.4,2.8-11.1,5.5-16.3,8.8c-3.6,2.3-6.5,5-9.5,7.9c-1.2-1.4-2.7-2.6-4.1-3.8c-3.9-3.1-8.6-6-13-8.4c-4.9-2.7-10.4-4-15.8-5.2
			c-3.7-0.8-9.5-3.1-13.1-1c-3.6,2-3.9,7.6-4.7,11.1c-1.2,5.1-1.3,10-0.7,15.2c1.1,9.1,3.1,19.2,8.2,27.1
			c-6.5,3.1-12.2,10.5-16.4,15.3c-3.6,4.1-6.6,8.4-9.3,13.1c-1.8,3.1-4.4,7.1-3.9,10.9c1,7.4,15.8,9.1,21.4,10.3
			c5.2,1.2,10.6,2.2,15.9,2.1c3.7-0.1,7.1-1.3,10.5-2c2.6,7.5,7.1,15,11.2,21.4c4.6,7,10.5,14.5,18.5,17.7c9,3.6,11.9-6.7,14.5-13.3
			c2.1-5.2,3.2-10.7,4.7-16.1c0.7-2.7,1.4-5.5,2.1-8.2c0.2-0.8,1-3.1,1.1-4.5c4.2,0.5,8.5,0.5,12.7,1.2c5.8,0.9,11.3,1.1,17.2,0.3
			c5.9-0.9,22.6-1.7,22.9-10.4C772.2,70.3,769.4,67.3,768,64.3z"/>
		<path style="fill:#F4E496;" d="M688.2,30.3c-7.7,0-7.7,12,0,12C695.9,42.3,695.9,30.3,688.2,30.3z"/>
		<path style="fill:#F4E496;" d="M674.7,47.2c-7.7,0-7.7,12,0,12C682.4,59.2,682.4,47.2,674.7,47.2z"/>
		<path style="fill:#F4E496;" d="M694,51.7c-7.7,0-7.7,12,0,12C701.7,63.7,701.7,51.7,694,51.7z"/>
		<path style="fill:#F4E496;" d="M707.7,39.1c-7.7,0-7.7,12,0,12C715.4,51.1,715.5,39.1,707.7,39.1z"/>
		<path style="fill:#F4E496;" d="M705.5,21.5c-7.7,0-7.7,12,0,12C713.3,33.5,713.3,21.5,705.5,21.5z"/>
	</g>
	<g>
		<path style="fill:#439C61;" d="M921.7-66.9c-6.2-0.6-12.8-2.4-17.3-6.9c-3.9-3.9-7-12.5-6.9-18.1c0.1-5.2-7.7-5.1-8,0
			c-0.4,6.3-4.6,14.3-8.6,19c-2.1,2.5-4.8,3.9-7.5,5.7c-2.9,2-5.7,4.6-9.5,3.9c-2.8-0.5-5.9,1.8-4.9,4.9c0.5,1.6,1.2,2.5,2.2,3.8
			c1.5,1.9,2.2,3.7,2.9,5.9c2,5.7,2.6,10.1,1.4,16.1c-0.8,3.8-2.1,8-6,9.7c-3.4,1.5-7.2-0.4-10.4,2c-1.7,1.3-2.6,3.4-1.4,5.5
			c4.2,7,15,10.2,16.4,19.1c0.3,2.1,1.8,2.9,3.4,2.9c1.3,1.3,3.4,2,5,0.8c4.9-3.7,9.2-7.8,14.6-10.9c6.5-3.8,13.2-5.4,20.2-7.8
			c2.5-0.9,3.7-3.5,2.4-5.9c-1.9-3.5-4.6-4.7-4.8-9.2c-0.3-5.1,1.5-9.5,4.2-13.7c2.5-3.8,4.7-7.6,7.9-10.9c2.9-3.1,5.7-6.4,8.2-9.9
			C927.1-63.6,924.5-66.6,921.7-66.9z"/>
		<path style="fill:#439C61;" d="M886.1,113.7c4.8-4,10.7-7.4,17.1-7.3c5.5,0,13.8,3.9,17.6,7.9c3.6,3.7,9.1-1.8,5.7-5.7
			c-4.2-4.7-6.9-13.4-7.4-19.5c-0.3-3.2,0.7-6.2,1.2-9.3c0.6-3.5,0.8-7.3,4-9.5c2.4-1.6,2.9-5.5,0-7c-1.5-0.8-2.6-0.9-4.2-1.1
			c-2.4-0.3-4.2-1.1-6.3-2.1c-5.4-2.6-9-5.3-12.4-10.4c-2.1-3.3-4.2-7.2-2.7-11.1c1.3-3.5,5.4-4.8,5.9-8.7c0.3-2.1-0.6-4.3-2.9-4.9
			c-7.9-2-17.8,3.3-25.1-2c-1.7-1.2-3.3-0.8-4.4,0.3c-1.8-0.1-3.8,1-4.1,2.9c-0.8,6.1-1,12-2.6,18c-1.9,7.2-5.5,13.2-8.7,19.8
			c-1.2,2.4-0.1,5.1,2.5,5.8c3.8,1.2,6.6,0.1,9.9,3.1c3.8,3.4,5.7,7.8,6.7,12.6c0.9,4.5,2,8.7,2.1,13.3c0.1,4.3,0.5,8.5,1.2,12.7
			C880,115.1,884,115.4,886.1,113.7z"/>
		<path style="fill:#439C61;" d="M783.6-39.2c-0.6,6.2-2.4,12.8-6.9,17.3c-3.9,3.9-12.5,7-18.1,6.9c-5.2-0.1-5.1,7.7,0,8
			c6.3,0.4,14.3,4.6,19,8.6c2.5,2.1,3.9,4.8,5.7,7.5c2,2.9,4.6,5.7,3.9,9.5c-0.5,2.8,1.8,5.9,4.9,4.9c1.6-0.5,2.5-1.2,3.8-2.2
			c1.9-1.5,3.7-2.2,5.9-2.9c5.7-2,10.1-2.6,16.1-1.4c3.8,0.8,8,2.1,9.7,6c1.5,3.4-0.4,7.2,2,10.4c1.3,1.7,3.4,2.6,5.5,1.4
			c7-4.2,10.2-15,19.1-16.4c2.1-0.3,2.9-1.8,2.9-3.4c1.3-1.3,2-3.4,0.8-5c-3.7-4.9-7.8-9.2-10.9-14.6c-3.8-6.5-5.4-13.2-7.8-20.2
			c-0.9-2.5-3.5-3.7-5.9-2.4c-3.5,1.9-4.7,4.6-9.2,4.8c-5.1,0.3-9.5-1.5-13.7-4.2c-3.8-2.5-7.6-4.7-10.9-7.9
			c-3.1-2.9-6.4-5.7-9.9-8.2C786.9-44.5,783.9-41.9,783.6-39.2z"/>
		<path style="fill:#EB6257;" d="M875.1,10.2c-2.2,0-3.9,0.6-5.3,1.6c2-5.6-0.8-13.1-8.5-13.1c-11.1,0-12.1,15.5-3.2,18.5
			c-12.1,0.1-12.1,19,0.1,19c7,0,10-6.2,9-11.5c1.4,2.6,4.1,4.6,8,4.6C887.3,29.2,887.3,10.2,875.1,10.2z M861.3,17.6
			c2.1,0,3.9-0.6,5.2-1.6c-0.6,1.8-0.8,3.8-0.4,5.7C865.1,19.8,863.5,18.3,861.3,17.6z"/>
	</g>
	<g>
		<path style="fill:#439C61;" d="M1004.5,63.5c-3.4-2.6-7.2-1.9-10.5,0.4c-0.2,0.1-0.4,0.2-0.5,0.4c-0.3,0-0.7,0-1,0.1
			c-7,1.2-12.2,5.4-17.6,9.8c-6.1,5.1-11.6,11.3-15.1,18.5c-3.5,7.1-5.2,14.5-6,22.4c-0.5,4.5-0.8,9-0.7,13.5
			c0.1,3.2-0.2,7.2,1.4,10.1c3.8,7,13.6,3.3,19.4,1.5c6.9-2.2,12.6-6.2,17.8-11.3c11.4-11.1,15.2-26.9,17.4-42.2
			C1010.1,79.5,1011.1,68.6,1004.5,63.5z"/>
		<path style="fill:#439C61;" d="M1036.3-20.8c-1-7.4-2.8-14.8-5.5-21.8c-2.7-7.2-6.6-13.6-10.1-20.4c-2-4-4.2-9.2-9.5-9.3
			c-6-0.1-9.4,7.3-11.7,11.8c-7.2,13.8-8.1,27.1-5.9,42.4c2.1,14.7,9.4,32.1,22.6,40.2c1.7,1,3.3,1.1,4.7,0.7
			c2.7,1.8,7.1,1.6,8.8-1.7C1036.6,8.1,1038.2-6.4,1036.3-20.8z"/>
		<path style="fill:#EB6257;" d="M1093.2,64.3c-2.2-4.8-5.4-9.1-8.7-13.2c-5.8-7.4-14.2-12.4-21.8-17.8c5.1-7.5,8.2-17.9,9.5-26
			c0.9-5.4,1.3-10.7,0.5-16.1c-0.5-3.7-0.4-9.2-2.9-12.2c-2.9-3.5-7.5-2.1-11.3-1.1c-5.4,1.5-10.5,3.9-15.4,6.4
			c-5.4,2.8-11.1,5.5-16.3,8.8c-3.6,2.3-6.5,5-9.5,7.9c-1.2-1.4-2.7-2.6-4.1-3.8c-3.9-3.1-8.6-6-13-8.4c-4.9-2.7-10.4-4-15.8-5.2
			c-3.7-0.8-9.5-3.1-13.1-1c-3.6,2-3.9,7.6-4.7,11.1c-1.2,5.1-1.3,10-0.7,15.2c1.1,9.1,3.1,19.2,8.2,27.1
			c-6.5,3.1-12.2,10.5-16.4,15.3c-3.6,4.1-6.6,8.4-9.3,13.1c-1.8,3.1-4.4,7.1-3.9,10.9c1,7.4,15.8,9.1,21.4,10.3
			c5.2,1.2,10.6,2.2,15.9,2.1c3.7-0.1,7.1-1.3,10.5-2c2.6,7.5,7.1,15,11.2,21.4c4.6,7,10.5,14.5,18.5,17.7c9,3.6,11.9-6.7,14.5-13.3
			c2.1-5.2,3.2-10.7,4.7-16.1c0.7-2.7,1.4-5.5,2.1-8.2c0.2-0.8,1-3.1,1.1-4.5c4.2,0.5,8.5,0.5,12.7,1.2c5.8,0.9,11.3,1.1,17.2,0.3
			c5.9-0.9,22.6-1.7,22.9-10.4C1097.3,70.3,1094.6,67.3,1093.2,64.3z"/>
		<path style="fill:#F4E496;" d="M999.8,47.2c-7.7,0-7.7,12,0,12C1007.5,59.2,1007.5,47.2,999.8,47.2z"/>
	</g>
	<g>
		<path style="fill:#439C61;" d="M42.4,939.4c-1-7.4-2.8-14.8-5.5-21.8c-2.7-7.2-6.6-13.6-10.1-20.4c-2-4-4.2-9.2-9.5-9.3
			c-6-0.1-9.4,7.3-11.7,11.8c-7.2,13.8-8.1,27.1-5.9,42.4c2.1,14.7,9.4,32.1,22.6,40.2c1.7,1,3.3,1.1,4.7,0.7
			c2.7,1.8,7.1,1.6,8.8-1.7C42.6,968.3,44.3,953.8,42.4,939.4z"/>
		<path style="fill:#EB6257;" d="M99.2,1024.5c-2.2-4.8-5.4-9.1-8.7-13.2c-5.8-7.4-14.2-12.4-21.8-17.8c5.1-7.5,8.2-17.9,9.5-26
			c0.9-5.4,1.3-10.7,0.5-16.1c-0.5-3.7-0.4-9.2-2.9-12.2c-2.9-3.5-7.5-2.1-11.3-1.1c-5.4,1.5-10.5,3.9-15.4,6.4
			c-5.4,2.8-11.1,5.5-16.3,8.8c-3.6,2.3-6.5,5-9.5,7.9c-1.2-1.4-2.7-2.6-4.1-3.8c-3.9-3.1-8.6-6-13-8.4c-4.9-2.7-10.4-4-15.8-5.2
			c-3.7-0.8-9.5-3.1-13.1-1c-3.6,2-3.9,7.6-4.7,11.1c-1.2,5.1-1.3,10-0.7,15.2c1.1,9.1,3.1,19.2,8.2,27.1
			c-6.5,3.1-12.2,10.5-16.4,15.3c-3.6,4.1-6.6,8.4-9.3,13.1c-1.8,3.1-4.4,7.1-3.9,10.9c1,7.4,15.8,9.1,21.4,10.3
			c5.2,1.2,10.6,2.2,15.9,2.1c3.7-0.1,7.1-1.3,10.5-2c2.6,7.5,7.1,15,11.2,21.4c4.6,7,10.5,14.5,18.5,17.7c9,3.6,11.9-6.7,14.5-13.3
			c2.1-5.2,3.2-10.7,4.7-16.1c0.7-2.7,1.4-5.5,2.1-8.2c0.2-0.8,1-3.1,1.1-4.5c4.2,0.5,8.5,0.5,12.7,1.2c5.8,0.9,11.3,1.1,17.2,0.3
			c5.9-0.9,22.6-1.7,22.9-10.4C103.4,1030.5,100.6,1027.5,99.2,1024.5z"/>
		<path style="fill:#F4E496;" d="M19.3,990.5c-7.7,0-7.7,12,0,12C27.1,1002.5,27.1,990.5,19.3,990.5z"/>
		<path style="fill:#F4E496;" d="M38.9,999.3c-7.7,0-7.7,12,0,12C46.6,1011.3,46.6,999.3,38.9,999.3z"/>
		<path style="fill:#F4E496;" d="M36.7,981.7c-7.7,0-7.7,12,0,12C44.5,993.7,44.5,981.7,36.7,981.7z"/>
	</g>
	<g>
		<path style="fill:#439C61;" d="M252.9,893.3c-6.2-0.6-12.8-2.4-17.3-6.9c-3.9-3.9-7-12.5-6.9-18.1c0.1-5.2-7.7-5.1-8,0
			c-0.4,6.3-4.6,14.3-8.6,19c-2.1,2.5-4.8,3.9-7.5,5.7c-2.9,2-5.7,4.6-9.5,3.9c-2.8-0.5-5.9,1.8-4.9,4.9c0.5,1.6,1.2,2.5,2.2,3.8
			c1.5,1.9,2.2,3.7,2.9,5.9c2,5.7,2.6,10.1,1.4,16.1c-0.8,3.8-2.1,8-6,9.7c-3.4,1.5-7.2-0.4-10.4,2c-1.7,1.3-2.6,3.4-1.4,5.5
			c4.2,7,15,10.2,16.4,19.1c0.3,2.1,1.8,2.9,3.4,2.9c1.3,1.3,3.4,2,5,0.8c4.9-3.7,9.2-7.8,14.6-10.9c6.5-3.8,13.2-5.4,20.2-7.8
			c2.5-0.9,3.7-3.5,2.4-5.9c-1.9-3.5-4.6-4.7-4.8-9.2c-0.3-5.1,1.5-9.5,4.2-13.7c2.5-3.8,4.7-7.6,7.9-10.9c2.9-3.1,5.7-6.4,8.2-9.9
			C258.3,896.6,255.6,893.6,252.9,893.3z"/>
		<path style="fill:#439C61;" d="M217.3,1073.9c4.8-4,10.7-7.4,17.1-7.3c5.5,0,13.8,3.9,17.6,7.9c3.6,3.7,9.1-1.8,5.7-5.7
			c-4.2-4.7-6.9-13.4-7.4-19.5c-0.3-3.2,0.7-6.2,1.2-9.3c0.6-3.5,0.8-7.3,4-9.5c2.4-1.6,2.9-5.5,0-7c-1.5-0.8-2.6-0.9-4.2-1.1
			c-2.4-0.3-4.2-1.1-6.3-2.1c-5.4-2.6-9-5.3-12.4-10.4c-2.1-3.3-4.2-7.2-2.7-11.1c1.3-3.5,5.4-4.8,5.9-8.7c0.3-2.1-0.6-4.3-2.9-4.9
			c-7.9-2-17.8,3.3-25.1-2c-1.7-1.2-3.3-0.8-4.4,0.3c-1.8-0.1-3.8,1-4.1,2.9c-0.8,6.1-1,12-2.6,18c-1.9,7.2-5.5,13.2-8.7,19.8
			c-1.2,2.4-0.1,5.1,2.5,5.8c3.8,1.2,6.6,0.1,9.9,3.1c3.8,3.4,5.7,7.8,6.7,12.6c0.9,4.5,2,8.7,2.1,13.3c0.1,4.3,0.5,8.5,1.2,12.7
			C211.2,1075.3,215.2,1075.6,217.3,1073.9z"/>
		<path style="fill:#439C61;" d="M114.8,921c-0.6,6.2-2.4,12.8-6.9,17.3c-3.9,3.9-12.5,7-18.1,6.9c-5.2-0.1-5.1,7.7,0,8
			c6.3,0.4,14.3,4.6,19,8.6c2.5,2.1,3.9,4.8,5.7,7.5c2,2.9,4.6,5.7,3.9,9.5c-0.5,2.8,1.8,5.9,4.9,4.9c1.6-0.5,2.5-1.2,3.8-2.2
			c1.9-1.5,3.7-2.2,5.9-2.9c5.7-2,10.1-2.6,16.1-1.4c3.8,0.8,8,2.1,9.7,6c1.5,3.4-0.4,7.2,2,10.4c1.3,1.7,3.4,2.6,5.5,1.4
			c7-4.2,10.2-15,19.1-16.4c2.1-0.3,2.9-1.8,2.9-3.4c1.3-1.3,2-3.4,0.8-5c-3.7-4.9-7.8-9.2-10.9-14.6c-3.8-6.5-5.4-13.2-7.8-20.2
			c-0.9-2.5-3.5-3.7-5.9-2.4c-3.5,1.9-4.7,4.6-9.2,4.8c-5.1,0.3-9.5-1.5-13.7-4.2c-3.8-2.5-7.6-4.7-10.9-7.9
			c-3.1-2.9-6.4-5.7-9.9-8.2C118.1,915.7,115.1,918.3,114.8,921z"/>
		<path style="fill:#EB6257;" d="M206.3,970.4c-2.2,0-3.9,0.6-5.3,1.6c2-5.6-0.8-13.1-8.5-13.1c-11.1,0-12.1,15.5-3.2,18.5
			c-12.1,0.1-12.1,19,0.1,19c7,0,10-6.2,9-11.5c1.4,2.6,4.1,4.6,8,4.6C218.5,989.4,218.5,970.4,206.3,970.4z M192.5,977.8
			c2.1,0,3.9-0.6,5.2-1.6c-0.6,1.8-0.8,3.8-0.4,5.7C196.3,980,194.7,978.5,192.5,977.8z"/>
	</g>
	<g>
		<path style="fill:#439C61;" d="M367.5,939.4c-1-7.4-2.8-14.8-5.5-21.8c-2.7-7.2-6.6-13.6-10.1-20.4c-2-4-4.2-9.2-9.5-9.3
			c-6-0.1-9.4,7.3-11.7,11.8c-7.2,13.8-8.1,27.1-5.9,42.4c2.1,14.7,9.4,32.1,22.6,40.2c1.7,1,3.3,1.1,4.7,0.7
			c2.7,1.8,7.1,1.6,8.8-1.7C367.8,968.3,369.4,953.8,367.5,939.4z"/>
		<path style="fill:#EB6257;" d="M424.4,1024.5c-2.2-4.8-5.4-9.1-8.7-13.2c-5.8-7.4-14.2-12.4-21.8-17.8c5.1-7.5,8.2-17.9,9.5-26
			c0.9-5.4,1.3-10.7,0.5-16.1c-0.5-3.7-0.4-9.2-2.9-12.2c-2.9-3.5-7.5-2.1-11.3-1.1c-5.4,1.5-10.5,3.9-15.4,6.4
			c-5.4,2.8-11.1,5.5-16.3,8.8c-3.6,2.3-6.5,5-9.5,7.9c-1.2-1.4-2.7-2.6-4.1-3.8c-3.9-3.1-8.6-6-13-8.4c-4.9-2.7-10.4-4-15.8-5.2
			c-3.7-0.8-9.5-3.1-13.1-1c-3.6,2-3.9,7.6-4.7,11.1c-1.2,5.1-1.3,10-0.7,15.2c1.1,9.1,3.1,19.2,8.2,27.1
			c-6.5,3.1-12.2,10.5-16.4,15.3c-3.6,4.1-6.6,8.4-9.3,13.1c-1.8,3.1-4.4,7.1-3.9,10.9c1,7.4,15.8,9.1,21.4,10.3
			c5.2,1.2,10.6,2.2,15.9,2.1c3.7-0.1,7.1-1.3,10.5-2c2.6,7.5,7.1,15,11.2,21.4c4.6,7,10.5,14.5,18.5,17.7c9,3.6,11.9-6.7,14.5-13.3
			c2.1-5.2,3.2-10.7,4.7-16.1c0.7-2.7,1.4-5.5,2.1-8.2c0.2-0.8,1-3.1,1.1-4.5c4.2,0.5,8.5,0.5,12.7,1.2c5.8,0.9,11.3,1.1,17.2,0.3
			c5.9-0.9,22.6-1.7,22.9-10.4C428.5,1030.5,425.8,1027.5,424.4,1024.5z"/>
		<path style="fill:#F4E496;" d="M344.5,990.5c-7.7,0-7.7,12,0,12C352.2,1002.5,352.2,990.5,344.5,990.5z"/>
		<path style="fill:#F4E496;" d="M364.1,999.3c-7.7,0-7.7,12,0,12C371.8,1011.3,371.8,999.3,364.1,999.3z"/>
		<path style="fill:#F4E496;" d="M361.9,981.7c-7.7,0-7.7,12,0,12C369.6,993.7,369.6,981.7,361.9,981.7z"/>
	</g>
	<g>
		<path style="fill:#439C61;" d="M578.1,893.3c-6.2-0.6-12.8-2.4-17.3-6.9c-3.9-3.9-7-12.5-6.9-18.1c0.1-5.2-7.7-5.1-8,0
			c-0.4,6.3-4.6,14.3-8.6,19c-2.1,2.5-4.8,3.9-7.5,5.7c-2.9,2-5.7,4.6-9.5,3.9c-2.8-0.5-5.9,1.8-4.9,4.9c0.5,1.6,1.2,2.5,2.2,3.8
			c1.5,1.9,2.2,3.7,2.9,5.9c2,5.7,2.6,10.1,1.4,16.1c-0.8,3.8-2.1,8-6,9.7c-3.4,1.5-7.2-0.4-10.4,2c-1.7,1.3-2.6,3.4-1.4,5.5
			c4.2,7,15,10.2,16.4,19.1c0.3,2.1,1.8,2.9,3.4,2.9c1.3,1.3,3.4,2,5,0.8c4.9-3.7,9.2-7.8,14.6-10.9c6.5-3.8,13.2-5.4,20.2-7.8
			c2.5-0.9,3.7-3.5,2.4-5.9c-1.9-3.5-4.6-4.7-4.8-9.2c-0.3-5.1,1.5-9.5,4.2-13.7c2.5-3.8,4.7-7.6,7.9-10.9c2.9-3.1,5.7-6.4,8.2-9.9
			C583.4,896.6,580.8,893.6,578.1,893.3z"/>
		<path style="fill:#439C61;" d="M542.5,1073.9c4.8-4,10.7-7.4,17.1-7.3c5.5,0,13.8,3.9,17.6,7.9c3.6,3.7,9.1-1.8,5.7-5.7
			c-4.2-4.7-6.9-13.4-7.4-19.5c-0.3-3.2,0.7-6.2,1.2-9.3c0.6-3.5,0.8-7.3,4-9.5c2.4-1.6,2.9-5.5,0-7c-1.5-0.8-2.6-0.9-4.2-1.1
			c-2.4-0.3-4.2-1.1-6.3-2.1c-5.4-2.6-9-5.3-12.4-10.4c-2.1-3.3-4.2-7.2-2.7-11.1c1.3-3.5,5.4-4.8,5.9-8.7c0.3-2.1-0.6-4.3-2.9-4.9
			c-7.9-2-17.8,3.3-25.1-2c-1.7-1.2-3.3-0.8-4.4,0.3c-1.8-0.1-3.8,1-4.1,2.9c-0.8,6.1-1,12-2.6,18c-1.9,7.2-5.5,13.2-8.7,19.8
			c-1.2,2.4-0.1,5.1,2.5,5.8c3.8,1.2,6.6,0.1,9.9,3.1c3.8,3.4,5.7,7.8,6.7,12.6c0.9,4.5,2,8.7,2.1,13.3c0.1,4.3,0.5,8.5,1.2,12.7
			C536.3,1075.3,540.4,1075.6,542.5,1073.9z"/>
		<path style="fill:#439C61;" d="M439.9,921c-0.6,6.2-2.4,12.8-6.9,17.3c-3.9,3.9-12.5,7-18.1,6.9c-5.2-0.1-5.1,7.7,0,8
			c6.3,0.4,14.3,4.6,19,8.6c2.5,2.1,3.9,4.8,5.7,7.5c2,2.9,4.6,5.7,3.9,9.5c-0.5,2.8,1.8,5.9,4.9,4.9c1.6-0.5,2.5-1.2,3.8-2.2
			c1.9-1.5,3.7-2.2,5.9-2.9c5.7-2,10.1-2.6,16.1-1.4c3.8,0.8,8,2.1,9.7,6c1.5,3.4-0.4,7.2,2,10.4c1.3,1.7,3.4,2.6,5.5,1.4
			c7-4.2,10.2-15,19.1-16.4c2.1-0.3,2.9-1.8,2.9-3.4c1.3-1.3,2-3.4,0.8-5c-3.7-4.9-7.8-9.2-10.9-14.6c-3.8-6.5-5.4-13.2-7.8-20.2
			c-0.9-2.5-3.5-3.7-5.9-2.4c-3.5,1.9-4.7,4.6-9.2,4.8c-5.1,0.3-9.5-1.5-13.7-4.2c-3.8-2.5-7.6-4.7-10.9-7.9
			c-3.1-2.9-6.4-5.7-9.9-8.2C443.2,915.7,440.2,918.3,439.9,921z"/>
		<path style="fill:#EB6257;" d="M531.4,970.4c-2.2,0-3.9,0.6-5.3,1.6c2-5.6-0.8-13.1-8.5-13.1c-11.1,0-12.1,15.5-3.2,18.5
			c-12.1,0.1-12.1,19,0.1,19c7,0,10-6.2,9-11.5c1.4,2.6,4.1,4.6,8,4.6C543.6,989.4,543.7,970.4,531.4,970.4z M517.6,977.8
			c2.1,0,3.9-0.6,5.2-1.6c-0.6,1.8-0.8,3.8-0.4,5.7C521.4,980,519.8,978.5,517.6,977.8z"/>
	</g>
	<g>
		<path style="fill:#439C61;" d="M692.7,939.4c-1-7.4-2.8-14.8-5.5-21.8c-2.7-7.2-6.6-13.6-10.1-20.4c-2-4-4.2-9.2-9.5-9.3
			c-6-0.1-9.4,7.3-11.7,11.8c-7.2,13.8-8.1,27.1-5.9,42.4c2.1,14.7,9.4,32.1,22.6,40.2c1.7,1,3.3,1.1,4.7,0.7
			c2.7,1.8,7.1,1.6,8.8-1.7C692.9,968.3,694.6,953.8,692.7,939.4z"/>
		<path style="fill:#EB6257;" d="M749.5,1024.5c-2.2-4.8-5.4-9.1-8.7-13.2c-5.8-7.4-14.2-12.4-21.8-17.8c5.1-7.5,8.2-17.9,9.5-26
			c0.9-5.4,1.3-10.7,0.5-16.1c-0.5-3.7-0.4-9.2-2.9-12.2c-2.9-3.5-7.5-2.1-11.3-1.1c-5.4,1.5-10.5,3.9-15.4,6.4
			c-5.4,2.8-11.1,5.5-16.3,8.8c-3.6,2.3-6.5,5-9.5,7.9c-1.2-1.4-2.7-2.6-4.1-3.8c-3.9-3.1-8.6-6-13-8.4c-4.9-2.7-10.4-4-15.8-5.2
			c-3.7-0.8-9.5-3.1-13.1-1c-3.6,2-3.9,7.6-4.7,11.1c-1.2,5.1-1.3,10-0.7,15.2c1.1,9.1,3.1,19.2,8.2,27.1
			c-6.5,3.1-12.2,10.5-16.4,15.3c-3.6,4.1-6.6,8.4-9.3,13.1c-1.8,3.1-4.4,7.1-3.9,10.9c1,7.4,15.8,9.1,21.4,10.3
			c5.2,1.2,10.6,2.2,15.9,2.1c3.7-0.1,7.1-1.3,10.5-2c2.6,7.5,7.1,15,11.2,21.4c4.6,7,10.5,14.5,18.5,17.7c9,3.6,11.9-6.7,14.5-13.3
			c2.1-5.2,3.2-10.7,4.7-16.1c0.7-2.7,1.4-5.5,2.1-8.2c0.2-0.8,1-3.1,1.1-4.5c4.2,0.5,8.5,0.5,12.7,1.2c5.8,0.9,11.3,1.1,17.2,0.3
			c5.9-0.9,22.6-1.7,22.9-10.4C753.6,1030.5,750.9,1027.5,749.5,1024.5z"/>
		<path style="fill:#F4E496;" d="M669.6,990.5c-7.7,0-7.7,12,0,12C677.4,1002.5,677.4,990.5,669.6,990.5z"/>
		<path style="fill:#F4E496;" d="M689.2,999.3c-7.7,0-7.7,12,0,12C696.9,1011.3,696.9,999.3,689.2,999.3z"/>
		<path style="fill:#F4E496;" d="M687,981.7c-7.7,0-7.7,12,0,12C694.7,993.7,694.8,981.7,687,981.7z"/>
	</g>
	<g>
		<path style="fill:#439C61;" d="M903.2,893.3c-6.2-0.6-12.8-2.4-17.3-6.9c-3.9-3.9-7-12.5-6.9-18.1c0.1-5.2-7.7-5.1-8,0
			c-0.4,6.3-4.6,14.3-8.6,19c-2.1,2.5-4.8,3.9-7.5,5.7c-2.9,2-5.7,4.6-9.5,3.9c-2.8-0.5-5.9,1.8-4.9,4.9c0.5,1.6,1.2,2.5,2.2,3.8
			c1.5,1.9,2.2,3.7,2.9,5.9c2,5.7,2.6,10.1,1.4,16.1c-0.8,3.8-2.1,8-6,9.7c-3.4,1.5-7.2-0.4-10.4,2c-1.7,1.3-2.6,3.4-1.4,5.5
			c4.2,7,15,10.2,16.4,19.1c0.3,2.1,1.8,2.9,3.4,2.9c1.3,1.3,3.4,2,5,0.8c4.9-3.7,9.2-7.8,14.6-10.9c6.5-3.8,13.2-5.4,20.2-7.8
			c2.5-0.9,3.7-3.5,2.4-5.9c-1.9-3.5-4.6-4.7-4.8-9.2c-0.3-5.1,1.5-9.5,4.2-13.7c2.5-3.8,4.7-7.6,7.9-10.9c2.9-3.1,5.7-6.4,8.2-9.9
			C908.6,896.6,905.9,893.6,903.2,893.3z"/>
		<path style="fill:#439C61;" d="M867.6,1073.9c4.8-4,10.7-7.4,17.1-7.3c5.5,0,13.8,3.9,17.6,7.9c3.6,3.7,9.1-1.8,5.7-5.7
			c-4.2-4.7-6.9-13.4-7.4-19.5c-0.3-3.2,0.7-6.2,1.2-9.3c0.6-3.5,0.8-7.3,4-9.5c2.4-1.6,2.9-5.5,0-7c-1.5-0.8-2.6-0.9-4.2-1.1
			c-2.4-0.3-4.2-1.1-6.3-2.1c-5.4-2.6-9-5.3-12.4-10.4c-2.1-3.3-4.2-7.2-2.7-11.1c1.3-3.5,5.4-4.8,5.9-8.7c0.3-2.1-0.6-4.3-2.9-4.9
			c-7.9-2-17.8,3.3-25.1-2c-1.7-1.2-3.3-0.8-4.4,0.3c-1.8-0.1-3.8,1-4.1,2.9c-0.8,6.1-1,12-2.6,18c-1.9,7.2-5.5,13.2-8.7,19.8
			c-1.2,2.4-0.1,5.1,2.5,5.8c3.8,1.2,6.6,0.1,9.9,3.1c3.8,3.4,5.7,7.8,6.7,12.6c0.9,4.5,2,8.7,2.1,13.3c0.1,4.3,0.5,8.5,1.2,12.7
			C861.5,1075.3,865.5,1075.6,867.6,1073.9z"/>
		<path style="fill:#439C61;" d="M765.1,921c-0.6,6.2-2.4,12.8-6.9,17.3c-3.9,3.9-12.5,7-18.1,6.9c-5.2-0.1-5.1,7.7,0,8
			c6.3,0.4,14.3,4.6,19,8.6c2.5,2.1,3.9,4.8,5.7,7.5c2,2.9,4.6,5.7,3.9,9.5c-0.5,2.8,1.8,5.9,4.9,4.9c1.6-0.5,2.5-1.2,3.8-2.2
			c1.9-1.5,3.7-2.2,5.9-2.9c5.7-2,10.1-2.6,16.1-1.4c3.8,0.8,8,2.1,9.7,6c1.5,3.4-0.4,7.2,2,10.4c1.3,1.7,3.4,2.6,5.5,1.4
			c7-4.2,10.2-15,19.1-16.4c2.1-0.3,2.9-1.8,2.9-3.4c1.3-1.3,2-3.4,0.8-5c-3.7-4.9-7.8-9.2-10.9-14.6c-3.8-6.5-5.4-13.2-7.8-20.2
			c-0.9-2.5-3.5-3.7-5.9-2.4c-3.5,1.9-4.7,4.6-9.2,4.8c-5.1,0.3-9.5-1.5-13.7-4.2c-3.8-2.5-7.6-4.7-10.9-7.9
			c-3.1-2.9-6.4-5.7-9.9-8.2C768.4,915.7,765.3,918.3,765.1,921z"/>
		<path style="fill:#EB6257;" d="M856.5,970.4c-2.2,0-3.9,0.6-5.3,1.6c2-5.6-0.8-13.1-8.5-13.1c-11.1,0-12.1,15.5-3.2,18.5
			c-12.1,0.1-12.1,19,0.1,19c7,0,10-6.2,9-11.5c1.4,2.6,4.1,4.6,8,4.6C868.8,989.4,868.8,970.4,856.5,970.4z M842.8,977.8
			c2.1,0,3.9-0.6,5.2-1.6c-0.6,1.8-0.8,3.8-0.4,5.7C846.6,980,845,978.5,842.8,977.8z"/>
	</g>
	<g>
		<path style="fill:#439C61;" d="M946.9,172c4,4.8,7.4,10.7,7.3,17.1c0,5.5-3.9,13.8-7.9,17.6c-3.7,3.6,1.8,9.1,5.7,5.7
			c4.7-4.2,13.4-6.9,19.5-7.4c3.2-0.3,6.2,0.7,9.3,1.2c3.5,0.6,7.3,0.8,9.5,4c1.6,2.4,5.5,2.9,7,0c0.8-1.5,0.9-2.6,1.1-4.2
			c0.3-2.4,1.1-4.2,2.1-6.3c2.6-5.4,5.3-9,10.4-12.4c3.3-2.1,7.2-4.2,11.1-2.7c3.5,1.3,4.8,5.4,8.7,5.9c2.1,0.3,4.3-0.6,4.9-2.9
			c2-7.9-3.3-17.8,2-25.1c1.2-1.7,0.8-3.3-0.3-4.4c0.1-1.8-1-3.8-2.9-4.1c-6.1-0.8-12-1-18-2.6c-7.2-1.9-13.2-5.5-19.8-8.7
			c-2.4-1.2-5.1-0.1-5.8,2.5c-1.2,3.8-0.1,6.6-3.1,9.9c-3.4,3.8-7.8,5.7-12.6,6.7c-4.5,0.9-8.7,2-13.3,2.1
			c-4.3,0.1-8.5,0.5-12.7,1.2C945.5,165.8,945.2,169.9,946.9,172z"/>
	</g>
	<g>
		<path style="fill:#439C61;" d="M997.1,290.3c2.6-3.4,1.9-7.2-0.4-10.5c-0.1-0.2-0.2-0.4-0.4-0.5c0-0.3,0-0.7-0.1-1
			c-1.2-7-5.4-12.2-9.8-17.6c-5.1-6.1-11.3-11.6-18.5-15.1c-7.1-3.5-14.5-5.2-22.4-6c-4.5-0.5-9-0.8-13.5-0.7
			c-3.2,0.1-7.2-0.2-10.1,1.4c-7,3.8-3.3,13.6-1.5,19.4c2.2,6.9,6.2,12.6,11.3,17.8c11.1,11.4,26.9,15.2,42.2,17.4
			C981.1,296,992,296.9,997.1,290.3z"/>
		<path style="fill:#EB6257;" d="M996.3,379c4.8-2.2,9.1-5.4,13.2-8.7c7.4-5.8,12.4-14.2,17.8-21.8c7.5,5.1,17.9,8.2,26,9.5
			c5.4,0.9,10.7,1.3,16.1,0.5c3.7-0.5,9.2-0.4,12.2-2.9c3.5-2.9,2.1-7.5,1.1-11.3c-1.5-5.4-3.9-10.5-6.4-15.4
			c-2.8-5.4-5.5-11.1-8.8-16.3c-2.3-3.6-5-6.5-7.9-9.5c1.4-1.2,2.6-2.7,3.8-4.1c3.1-3.9,6-8.6,8.4-13c2.7-4.9,4-10.4,5.2-15.8
			c0.8-3.7,3.1-9.5,1-13.1c-2-3.6-7.6-3.9-11.1-4.7c-5.1-1.2-10-1.3-15.2-0.7c-9.1,1.1-19.2,3.1-27.1,8.2
			c-3.1-6.5-10.5-12.2-15.3-16.4c-4.1-3.6-8.4-6.6-13.1-9.3c-3.1-1.8-7.1-4.4-10.9-3.9c-7.4,1-9.1,15.8-10.3,21.4
			c-1.2,5.2-2.2,10.6-2.1,15.9c0.1,3.7,1.3,7.1,2,10.5c-7.5,2.6-15,7.1-21.4,11.2c-7,4.6-14.5,10.5-17.7,18.5
			c-3.6,9,6.7,11.9,13.3,14.5c5.2,2.1,10.7,3.2,16.1,4.7c2.7,0.7,5.5,1.4,8.2,2.1c0.8,0.2,3.1,1,4.5,1.1c-0.5,4.2-0.5,8.5-1.2,12.7
			c-0.9,5.8-1.1,11.3-0.3,17.2c0.9,5.9,1.7,22.6,10.4,22.9C990.3,383.1,993.3,380.4,996.3,379z"/>
		<path style="fill:#F4E496;" d="M1008.9,304.9c0-7.7-12-7.7-12,0C996.9,312.6,1008.9,312.7,1008.9,304.9z"/>
	</g>
	<g>
		<path style="fill:#439C61;" d="M946.9,497.1c4,4.8,7.4,10.7,7.3,17.1c0,5.5-3.9,13.8-7.9,17.6c-3.7,3.6,1.8,9.1,5.7,5.7
			c4.7-4.2,13.4-6.9,19.5-7.4c3.2-0.3,6.2,0.7,9.3,1.2c3.5,0.6,7.3,0.8,9.5,4c1.6,2.4,5.5,2.9,7,0c0.8-1.5,0.9-2.6,1.1-4.2
			c0.3-2.4,1.1-4.2,2.1-6.3c2.6-5.4,5.3-9,10.4-12.4c3.3-2.1,7.2-4.2,11.1-2.7c3.5,1.3,4.8,5.4,8.7,5.9c2.1,0.3,4.3-0.6,4.9-2.9
			c2-7.9-3.3-17.8,2-25.1c1.2-1.7,0.8-3.3-0.3-4.4c0.1-1.8-1-3.8-2.9-4.1c-6.1-0.8-12-1-18-2.6c-7.2-1.9-13.2-5.5-19.8-8.7
			c-2.4-1.2-5.1-0.1-5.8,2.5c-1.2,3.8-0.1,6.6-3.1,9.9c-3.4,3.8-7.8,5.7-12.6,6.7c-4.5,0.9-8.7,2-13.3,2.1
			c-4.3,0.1-8.5,0.5-12.7,1.2C945.5,491,945.2,495,946.9,497.1z"/>
	</g>
	<g>
		<path style="fill:#439C61;" d="M997.1,615.4c2.6-3.4,1.9-7.2-0.4-10.5c-0.1-0.2-0.2-0.4-0.4-0.5c0-0.3,0-0.7-0.1-1
			c-1.2-7-5.4-12.2-9.8-17.6c-5.1-6.1-11.3-11.6-18.5-15.1c-7.1-3.5-14.5-5.2-22.4-6c-4.5-0.5-9-0.8-13.5-0.7
			c-3.2,0.1-7.2-0.2-10.1,1.4c-7,3.8-3.3,13.6-1.5,19.4c2.2,6.9,6.2,12.6,11.3,17.8c11.1,11.4,26.9,15.2,42.2,17.4
			C981.1,621.1,992,622.1,997.1,615.4z"/>
		<path style="fill:#EB6257;" d="M996.3,704.2c4.8-2.2,9.1-5.4,13.2-8.7c7.4-5.8,12.4-14.2,17.8-21.8c7.5,5.1,17.9,8.2,26,9.5
			c5.4,0.9,10.7,1.3,16.1,0.5c3.7-0.5,9.2-0.4,12.2-2.9c3.5-2.9,2.1-7.5,1.1-11.3c-1.5-5.4-3.9-10.5-6.4-15.4
			c-2.8-5.4-5.5-11.1-8.8-16.3c-2.3-3.6-5-6.5-7.9-9.5c1.4-1.2,2.6-2.7,3.8-4.1c3.1-3.9,6-8.6,8.4-13c2.7-4.9,4-10.4,5.2-15.8
			c0.8-3.7,3.1-9.5,1-13.1c-2-3.6-7.6-3.9-11.1-4.7c-5.1-1.2-10-1.3-15.2-0.7c-9.1,1.1-19.2,3.1-27.1,8.2
			c-3.1-6.5-10.5-12.2-15.3-16.4c-4.1-3.6-8.4-6.6-13.1-9.3c-3.1-1.8-7.1-4.4-10.9-3.9c-7.4,1-9.1,15.8-10.3,21.4
			c-1.2,5.2-2.2,10.6-2.1,15.9c0.1,3.7,1.3,7.1,2,10.5c-7.5,2.6-15,7.1-21.4,11.2c-7,4.6-14.5,10.5-17.7,18.5
			c-3.6,9,6.7,11.9,13.3,14.5c5.2,2.1,10.7,3.2,16.1,4.7c2.7,0.7,5.5,1.4,8.2,2.1c0.8,0.2,3.1,1,4.5,1.1c-0.5,4.2-0.5,8.5-1.2,12.7
			c-0.9,5.8-1.1,11.3-0.3,17.2c0.9,5.9,1.7,22.6,10.4,22.9C990.3,708.3,993.3,705.6,996.3,704.2z"/>
		<path style="fill:#F4E496;" d="M1008.9,630.1c0-7.7-12-7.7-12,0C996.9,637.8,1008.9,637.8,1008.9,630.1z"/>
	</g>
	<g>
		<path style="fill:#439C61;" d="M946.9,822.3c4,4.8,7.4,10.7,7.3,17.1c0,5.5-3.9,13.8-7.9,17.6c-3.7,3.6,1.8,9.1,5.7,5.7
			c4.7-4.2,13.4-6.9,19.5-7.4c3.2-0.3,6.2,0.7,9.3,1.2c3.5,0.6,7.3,0.8,9.5,4c1.6,2.4,5.5,2.9,7,0c0.8-1.5,0.9-2.6,1.1-4.2
			c0.3-2.4,1.1-4.2,2.1-6.3c2.6-5.4,5.3-9,10.4-12.4c3.3-2.1,7.2-4.2,11.1-2.7c3.5,1.3,4.8,5.4,8.7,5.9c2.1,0.3,4.3-0.6,4.9-2.9
			c2-7.9-3.3-17.8,2-25.1c1.2-1.7,0.8-3.3-0.3-4.4c0.1-1.8-1-3.8-2.9-4.1c-6.1-0.8-12-1-18-2.6c-7.2-1.9-13.2-5.5-19.8-8.7
			c-2.4-1.2-5.1-0.1-5.8,2.5c-1.2,3.8-0.1,6.6-3.1,9.9c-3.4,3.8-7.8,5.7-12.6,6.7c-4.5,0.9-8.7,2-13.3,2.1
			c-4.3,0.1-8.5,0.5-12.7,1.2C945.5,816.1,945.2,820.2,946.9,822.3z"/>
	</g>
	<g>
		<path style="fill:#439C61;" d="M40.9,207.6c0.6-6.2,2.4-12.8,6.9-17.3c3.9-3.9,12.5-7,18.1-6.9c5.2,0.1,5.1-7.7,0-8
			c-6.3-0.4-14.3-4.6-19-8.6c-2.5-2.1-3.9-4.8-5.7-7.5c-2-2.9-4.6-5.7-3.9-9.5c0.5-2.8-1.8-5.9-4.9-4.9c-1.6,0.5-2.5,1.2-3.8,2.2
			c-1.9,1.5-3.7,2.2-5.9,2.9c-5.7,2-10.1,2.6-16.1,1.4c-3.8-0.8-8-2.1-9.7-6c-1.5-3.4,0.4-7.2-2-10.4c-1.3-1.7-3.4-2.6-5.5-1.4
			c-7,4.2-10.2,15-19.1,16.4c-2.1,0.3-2.9,1.8-2.9,3.4c-1.3,1.3-2,3.4-0.8,5c3.7,4.9,7.8,9.2,10.9,14.6c3.8,6.5,5.4,13.2,7.8,20.2
			c0.9,2.5,3.5,3.7,5.9,2.4c3.5-1.9,4.7-4.6,9.2-4.8c5.1-0.3,9.5,1.5,13.7,4.2c3.8,2.5,7.6,4.7,10.9,7.9c3.1,2.9,6.4,5.7,9.9,8.2
			C37.6,212.9,40.7,210.3,40.9,207.6z"/>
		<path style="fill:#439C61;" d="M13.2,69.4C7,68.9,0.4,67.1-4.1,62.5C-8,58.6-11,50-10.9,44.5c0.1-5.2-7.7-5.1-8,0
			c-0.4,6.3-4.6,14.3-8.6,19c-2.1,2.5-4.8,3.9-7.5,5.7c-2.9,2-5.7,4.6-9.5,3.9c-2.8-0.5-5.9,1.8-4.9,4.9c0.5,1.6,1.2,2.5,2.2,3.8
			c1.5,1.9,2.2,3.7,2.9,5.9c2,5.7,2.6,10.1,1.4,16.1c-0.8,3.8-2.1,8-6,9.7c-3.4,1.5-7.2-0.4-10.4,2c-1.7,1.3-2.6,3.4-1.4,5.5
			c4.2,7,15,10.2,16.4,19.1c0.3,2.1,1.8,2.9,3.4,2.9c1.3,1.3,3.4,2,5,0.8c4.9-3.7,9.2-7.8,14.6-10.9c6.5-3.8,13.2-5.4,20.2-7.8
			c2.5-0.9,3.7-3.5,2.4-5.9c-1.9-3.5-4.6-4.7-4.8-9.2c-0.3-5.1,1.5-9.5,4.2-13.7c2.5-3.8,4.7-7.6,7.9-10.9c2.9-3.1,5.7-6.4,8.2-9.9
			C18.6,72.7,15.9,69.7,13.2,69.4z"/>
	</g>
	<g>
		<path style="fill:#439C61;" d="M-5.1,322.2c7.4-1,14.8-2.8,21.8-5.5c7.2-2.7,13.6-6.6,20.4-10.1c4-2,9.2-4.2,9.3-9.5
			c0.1-6-7.3-9.4-11.8-11.7c-13.8-7.2-27.1-8.1-42.4-5.9c-14.7,2.1-32.1,9.4-40.2,22.6c-1,1.7-1.1,3.3-0.7,4.7
			c-1.8,2.7-1.6,7.1,1.7,8.8C-34,322.4-19.6,324.1-5.1,322.2z"/>
	</g>
	<g>
		<path style="fill:#439C61;" d="M40.9,532.7c0.6-6.2,2.4-12.8,6.9-17.3c3.9-3.9,12.5-7,18.1-6.9c5.2,0.1,5.1-7.7,0-8
			c-6.3-0.4-14.3-4.6-19-8.6c-2.5-2.1-3.9-4.8-5.7-7.5c-2-2.9-4.6-5.7-3.9-9.5c0.5-2.8-1.8-5.9-4.9-4.9c-1.6,0.5-2.5,1.2-3.8,2.2
			c-1.9,1.5-3.7,2.2-5.9,2.9c-5.7,2-10.1,2.6-16.1,1.4c-3.8-0.8-8-2.1-9.7-6c-1.5-3.4,0.4-7.2-2-10.4c-1.3-1.7-3.4-2.6-5.5-1.4
			c-7,4.2-10.2,15-19.1,16.4c-2.1,0.3-2.9,1.8-2.9,3.4c-1.3,1.3-2,3.4-0.8,5c3.7,4.9,7.8,9.2,10.9,14.6c3.8,6.5,5.4,13.2,7.8,20.2
			c0.9,2.5,3.5,3.7,5.9,2.4c3.5-1.9,4.7-4.6,9.2-4.8c5.1-0.3,9.5,1.5,13.7,4.2c3.8,2.5,7.6,4.7,10.9,7.9c3.1,2.9,6.4,5.7,9.9,8.2
			C37.6,538.1,40.7,535.4,40.9,532.7z"/>
		<path style="fill:#439C61;" d="M13.2,394.6C7,394,0.4,392.2-4.1,387.7c-3.9-3.9-7-12.5-6.9-18.1c0.1-5.2-7.7-5.1-8,0
			c-0.4,6.3-4.6,14.3-8.6,19c-2.1,2.5-4.8,3.9-7.5,5.7c-2.9,2-5.7,4.6-9.5,3.9c-2.8-0.5-5.9,1.8-4.9,4.9c0.5,1.6,1.2,2.5,2.2,3.8
			c1.5,1.9,2.2,3.7,2.9,5.9c2,5.7,2.6,10.1,1.4,16.1c-0.8,3.8-2.1,8-6,9.7c-3.4,1.5-7.2-0.4-10.4,2c-1.7,1.3-2.6,3.4-1.4,5.5
			c4.2,7,15,10.2,16.4,19.1c0.3,2.1,1.8,2.9,3.4,2.9c1.3,1.3,3.4,2,5,0.8c4.9-3.7,9.2-7.8,14.6-10.9c6.5-3.8,13.2-5.4,20.2-7.8
			c2.5-0.9,3.7-3.5,2.4-5.9c-1.9-3.5-4.6-4.7-4.8-9.2c-0.3-5.1,1.5-9.5,4.2-13.7c2.5-3.8,4.7-7.6,7.9-10.9c2.9-3.1,5.7-6.4,8.2-9.9
			C18.6,397.9,15.9,394.8,13.2,394.6z"/>
	</g>
	<g>
		<path style="fill:#439C61;" d="M-5.1,647.3c7.4-1,14.8-2.8,21.8-5.5c7.2-2.7,13.6-6.6,20.4-10.1c4-2,9.2-4.2,9.3-9.5
			c0.1-6-7.3-9.4-11.8-11.7c-13.8-7.2-27.1-8.1-42.4-5.9c-14.7,2.1-32.1,9.4-40.2,22.6c-1,1.7-1.1,3.3-0.7,4.7
			c-1.8,2.7-1.6,7.1,1.7,8.8C-34,647.6-19.6,649.2-5.1,647.3z"/>
	</g>
	<g>
		<path style="fill:#439C61;" d="M40.9,857.8c0.6-6.2,2.4-12.8,6.9-17.3c3.9-3.9,12.5-7,18.1-6.9c5.2,0.1,5.1-7.7,0-8
			c-6.3-0.4-14.3-4.6-19-8.6c-2.5-2.1-3.9-4.8-5.7-7.5c-2-2.9-4.6-5.7-3.9-9.5c0.5-2.8-1.8-5.9-4.9-4.9c-1.6,0.5-2.5,1.2-3.8,2.2
			c-1.9,1.5-3.7,2.2-5.9,2.9c-5.7,2-10.1,2.6-16.1,1.4c-3.8-0.8-8-2.1-9.7-6c-1.5-3.4,0.4-7.2-2-10.4c-1.3-1.7-3.4-2.6-5.5-1.4
			c-7,4.2-10.2,15-19.1,16.4c-2.1,0.3-2.9,1.8-2.9,3.4c-1.3,1.3-2,3.4-0.8,5c3.7,4.9,7.8,9.2,10.9,14.6c3.8,6.5,5.4,13.2,7.8,20.2
			c0.9,2.5,3.5,3.7,5.9,2.4c3.5-1.9,4.7-4.6,9.2-4.8c5.1-0.3,9.5,1.5,13.7,4.2c3.8,2.5,7.6,4.7,10.9,7.9c3.1,2.9,6.4,5.7,9.9,8.2
			C37.6,863.2,40.7,860.6,40.9,857.8z"/>
		<path style="fill:#439C61;" d="M13.2,719.7c-6.2-0.6-12.8-2.4-17.3-6.9c-3.9-3.9-7-12.5-6.9-18.1c0.1-5.2-7.7-5.1-8,0
			c-0.4,6.3-4.6,14.3-8.6,19c-2.1,2.5-4.8,3.9-7.5,5.7c-2.9,2-5.7,4.6-9.5,3.9c-2.8-0.5-5.9,1.8-4.9,4.9c0.5,1.6,1.2,2.5,2.2,3.8
			c1.5,1.9,2.2,3.7,2.9,5.9c2,5.7,2.6,10.1,1.4,16.1c-0.8,3.8-2.1,8-6,9.7c-3.4,1.5-7.2-0.4-10.4,2c-1.7,1.3-2.6,3.4-1.4,5.5
			c4.2,7,15,10.2,16.4,19.1c0.3,2.1,1.8,2.9,3.4,2.9c1.3,1.3,3.4,2,5,0.8c4.9-3.7,9.2-7.8,14.6-10.9c6.5-3.8,13.2-5.4,20.2-7.8
			c2.5-0.9,3.7-3.5,2.4-5.9c-1.9-3.5-4.6-4.7-4.8-9.2c-0.3-5.1,1.5-9.5,4.2-13.7c2.5-3.8,4.7-7.6,7.9-10.9c2.9-3.1,5.7-6.4,8.2-9.9
			C18.6,723,15.9,720,13.2,719.7z"/>
	</g>
	<g>
		<path style="fill:#439C61;" d="M1017.8,939.4c-1-7.4-2.8-14.8-5.5-21.8c-2.7-7.2-6.6-13.6-10.1-20.4c-2-4-4.2-9.2-9.5-9.3
			c-6-0.1-9.4,7.3-11.7,11.8c-7.2,13.8-8.1,27.1-5.9,42.4c2.1,14.7,9.4,32.1,22.6,40.2c1.7,1,3.3,1.1,4.7,0.7
			c2.7,1.8,7.1,1.6,8.8-1.7C1018.1,968.3,1019.7,953.8,1017.8,939.4z"/>
		<path style="fill:#EB6257;" d="M1074.7,1024.5c-2.2-4.8-5.4-9.1-8.7-13.2c-5.8-7.4-14.2-12.4-21.8-17.8c5.1-7.5,8.2-17.9,9.5-26
			c0.9-5.4,1.3-10.7,0.5-16.1c-0.5-3.7-0.4-9.2-2.9-12.2c-2.9-3.5-7.5-2.1-11.3-1.1c-5.4,1.5-10.5,3.9-15.4,6.4
			c-5.4,2.8-11.1,5.5-16.3,8.8c-3.6,2.3-6.5,5-9.5,7.9c-1.2-1.4-2.7-2.6-4.1-3.8c-3.9-3.1-8.6-6-13-8.4c-4.9-2.7-10.4-4-15.8-5.2
			c-3.7-0.8-9.5-3.1-13.1-1c-3.6,2-3.9,7.6-4.7,11.1c-1.2,5.1-1.3,10-0.7,15.2c1.1,9.1,3.1,19.2,8.2,27.1
			c-6.5,3.1-12.2,10.5-16.4,15.3c-3.6,4.1-6.6,8.4-9.3,13.1c-1.8,3.1-4.4,7.1-3.9,10.9c1,7.4,15.8,9.1,21.4,10.3
			c5.2,1.2,10.6,2.2,15.9,2.1c3.7-0.1,7.1-1.3,10.5-2c2.6,7.5,7.1,15,11.2,21.4c4.6,7,10.5,14.5,18.5,17.7c9,3.6,11.9-6.7,14.5-13.3
			c2.1-5.2,3.2-10.7,4.7-16.1c0.7-2.7,1.4-5.5,2.1-8.2c0.2-0.8,1-3.1,1.1-4.5c4.2,0.5,8.5,0.5,12.7,1.2c5.8,0.9,11.3,1.1,17.2,0.3
			c5.9-0.9,22.6-1.7,22.9-10.4C1078.8,1030.5,1076.1,1027.5,1074.7,1024.5z"/>
		<path style="fill:#F4E496;" d="M994.8,990.5c-7.7,0-7.7,12,0,12C1002.5,1002.5,1002.5,990.5,994.8,990.5z"/>
	</g>
	<g>
		<g>
			<path style="fill:#F9D8C3;" d="M314.6,346.8c-1,0-1.9,0.1-2.7,0.3c-0.5-1.3-0.8-2.7-1.1-4.1c-3-15.9-7.1-33.1-19.9-43
				c-12.4-9.6-29.9-9.6-45-5.6c-12.9,3.5-25.4,9.8-34.3,19.9c-8.3,9.4-13,22.2-11.2,34.5c-10.7,2.4-9.9,20.4,2.5,20.4
				c1.3,0,2.5-0.2,3.6-0.6c0.5,0,1,0.1,1.4,0.1c2.3,20.5,18,32.9,36.1,39c-1.3,4.4-1.4,7.3-0.7,9.2c-5.2,0.5-10.6,1.3-16.4,2.3
				c-3.4,0.6-6.9,1.4-9.5,3.6c-3.8,3.4-4.5,8.9-5,14c-9,100.4-17.8,202.9,4.8,301.2c0.8,3.3,1.5,6.9,0.3,10c-0.8,2-2.2,3.6-3.7,5.1
				c-3.3,3.6-10.7,5.9-9.9,10.7c1.9,12.2,25-2.1,30.3-13.3c5.3-11.2,4.6-24.1,4.8-36.5c0.3-15.6,2.4-31,4.8-46.4
				c3.7-23.7,8.3-47.3,13.7-70.7c9.4,42.4,18.9,85.6,15.6,128.9c-0.5,6.4-1.3,12.9,0.1,19.2c2.5,11.8,15.9,30.6,25,22.7
				c4.1-3.5-2.6-10.4-4.3-15.5c-4.3-12.9-2.5-26.9-0.8-40.4c4.8-40.4,7.2-81,7-121.7c-0.1-19.4-0.7-38.9-1.4-58.3
				c-1.1-33.7-2.3-67.5-3.4-101.2c-0.1-1.8-0.2-3.8-1.2-5.3c-1.2-1.8-3.4-2.7-5.5-3.4c-7.8-2.6-14.9-4.3-21.9-5.1
				c-1.3-3.7,0.4-8.6,3.5-11.4c3.9-3.6,9.2-5.1,13.9-7.3c12.9-5.9,23-17.8,26.7-31.5c1.1,0.4,2.2,0.6,3.6,0.6
				C327.9,367.4,327.9,346.8,314.6,346.8z"/>
			<path style="fill:#FFFFFF;" d="M219.3,667.5c-5.5-0.5-10-0.6-13,2.7c2.1,21.3,5.4,42.6,10,63.6c5.6,0.2,11.3,0.1,16.9-0.6
				c1.9-0.2,3.8-0.5,5.4-1.5c0.4-5.9,0.3-11.9,0.4-17.7c0.3-12.5,1.7-25,3.4-37.4c0-0.8,0-1.6-0.1-2.4
				C242.4,671.6,221.9,667.8,219.3,667.5z"/>
			<path style="fill:#FFFFFF;" d="M271,667.1c2.5,18.9,3.6,37.9,2.3,57c6.3-0.2,12.5-3.1,18.9-3.9c0.3-2.7,0.6-5.5,1-8.2
				c1.9-15.7,3.4-31.4,4.5-47.1c-0.7-0.4-1.6-0.4-2.4-0.5C288.7,664,276.8,662.2,271,667.1z"/>
			<path style="fill:#EB6257;" d="M241.4,685.4c-8.9-0.7-25.2-2.7-33.2,1.1c0.4,2.8,0.7,5.7,1.2,8.5c10.4-0.4,20.8-1.3,31.2-2
				C240.7,690.5,241,687.9,241.4,685.4z"/>
			<path style="fill:#EB6257;" d="M210.5,702.7c0.5,3.1,1,6.2,1.5,9.3c9.1-0.4,18.2-1.1,27.2-1.8c0.1-2.6,0.3-5.2,0.4-7.8
				C231.4,701.7,218.4,700.3,210.5,702.7z"/>
			<path style="fill:#EB6257;" d="M213.3,719.1c0.6,3.3,1.3,6.5,2,9.8c7.9-0.4,15.8-1.1,23.6-1.6c0.1-2.6,0.1-5.3,0.1-7.9
				C231.7,718.8,221,717.7,213.3,719.1z"/>
			<path style="fill:#EB6257;" d="M297,673.3c-8.4-0.7-18.9-1.2-25.1,1.4c0.3,2.9,0.6,5.9,0.9,8.8c7.8-0.3,15.7-0.9,23.5-1.5
				C296.5,679.1,296.8,676.2,297,673.3z"/>
			<path style="fill:#EB6257;" d="M295.5,690.3c-7.5-0.6-16.3-0.9-22.2,1c0.2,3.1,0.3,6.2,0.4,9.3c7-0.3,13.9-0.8,20.9-1.3
				C294.9,696.3,295.2,693.3,295.5,690.3z"/>
			<path style="fill:#EB6257;" d="M273.8,708.2c0,3.1-0.1,6.3-0.2,9.4c6.3-0.3,12.7-0.7,19-1.2c0.2-1.5,0.4-3,0.5-4.5
				c0.2-1.6,0.4-3.2,0.5-4.7C286.9,706.8,279.3,706.7,273.8,708.2z"/>
			<path style="fill:#3D805C;" d="M196.8,673.2c0,1.6,0,3.4,1.1,4.6c1.1,1.3,3,1.6,4.7,1.7c14.8,1.3,29.6,1.3,44.4,0
				c4.5-15.6,8.1-31.6,10.5-47.7c0.8,14.3,1.6,28.6,2.5,42.9c0.1,1,0.2,2.2,0.9,2.9c0.8,0.8,2,0.9,3.2,1c11.1,0.5,22.1,1,33.2,1.5
				c3.3,0.1,7.2,0,9-2.7c1.1-1.6,1.1-3.6,1.1-5.5c0.2-33.5,0.4-67.5-9.3-99.6c-18.1,2.1-36.2,4.4-54.3,7
				c-11.1,1.6-27.7,1.5-36.9,9.2c-9.1,7.6-8.2,20.3-8.6,31C197.5,637.5,197.1,655.3,196.8,673.2z"/>
			<path style="fill:#EB6257;" d="M321.5,450.2c-5-9.6-11-19-19.7-25.5c-0.3-0.2-0.5-0.4-0.8-0.6c-1.1-1.2-2.3-2.3-3.5-3.4
				c-4.7-4.2-13.2-7.8-19.5-6.3c-2.4,0.6-4.4,2.1-6.3,3.6c-0.1,0-0.3,0.1-0.5,0.1c-6.4,2.1-10.8,3.6-14.9,4.3
				c-4.7-0.4-9.3-1.7-13.9-3c-3.3-1-4.8-3.3-7.9-4.6c-3.2-1.4-6.4,0-9.5,1.1c-3.5,1.2-6.8,2.7-9.9,4.4c-3.5,1.4-6.8,3.4-9.8,6.1
				c-3.1,2.8-5.6,6.2-7.8,9.8c-0.6,0.9-1.1,1.8-1.6,2.7c-0.6,1.2-1.3,2.3-1.9,3.5c-7.2,14.1-12.6,29.4-13.4,45.3
				c-0.8,15.8,3.4,32.3,13.6,44.4c1.5,1.7,3.1,3.5,3.6,5.7c0.5,2.2-0.3,4.5-1,6.7c-5,14.7-8,30.1-8.9,45.6c-0.2,2.7-0.2,5.5,1,7.8
				c1.2,2.3,3.4,3.8,5.6,5.1c28.9,17.7,66.2,21,97.8,8.7c2.2-0.2,4.2,0,6.3-0.8c4.1-1.4,9.1-2.5,11.6-6.2c2.8-4.1,2.2-9.8,2-14.5
				c-0.2-5.9-1-11.7-1.9-17.5c-0.9-6.5-0.7-13-1.4-19.5c-0.6-5.5-0.9-10.8-0.9-16.3c0-1.3-0.1-2.6-0.2-3.9
				c5.7-4.1,10.4-10,14.2-15.9c1.5-2.3,2.7-4.6,3.6-6.9c3.3-5.2,5.5-11.2,6.2-17.3C333.8,478.3,328.4,463.5,321.5,450.2z"/>
			<path style="fill:#EB6257;" d="M213.1,735.1c2.9,4.3,2.8,10.5-0.4,14.7c-3.1,4.2-9,6.1-14,4.5c-1.3,4.6,0.9,9.7,4.8,12.5
				c3.9,2.8,9,3.3,13.6,2.3s8.8-3.7,12.4-6.8c2.2-1.9,4.3-4,5.7-6.6c3.7-7.1,1.6-17.1,7.5-22.6c-3.6,0.2-7,2.2-8.9,5.2
				c0.1-4,1.8-8,4.7-10.9c-5.6,0.6-10.7,4.5-12.8,9.7c-0.6-4.6-3.1-8.9-6.8-11.7c0.7,4.4,1.1,9,0.9,13.5c-0.8-3.8-2.4-7.9-5.8-9.7
				c-3.2-1.8-8.5-0.3-8.8,3.7C208.2,731.2,211.2,732.3,213.1,735.1z"/>
			<path style="fill:#EB6257;" d="M269.6,737.8c0.6,7.6,3.5,14.8,7.6,21.2c3.9,6.1,9.6,11.9,16.8,13c1.5,0.2,3,0.2,4.4-0.1
				c3.6-0.9,6.2-4.4,6.7-8s-0.9-7.4-3.2-10.3c0.9,0.8,1.1,2.3,0.4,3.3s-2.1,1.4-3.2,0.9c-0.6-0.3-1-0.8-1.4-1.3
				c-2.2-2.9-3.1-6.5-3.5-10.1c-1.1-9.3,0.9-18.9,5.6-27.1c-3.9,0.8-7.4,3-9.9,6c-0.1-3.6,0.8-7.2,2.7-10.3
				c-4.2,0.4-6.6,4.7-8.3,8.6c-1.9-4-4.8-7.6-8.3-10.3c1.5,3.9,2.9,8.2,1.2,12c-1.9-3.4-5.2-5.9-9-6.8c2.2,2.1,3.3,5.3,2.8,8.3
				c-2.1-2.9-5.6-4.8-9.2-4.9c1,0,5,4.4,5.7,5.6C269.4,730.4,269.3,734.3,269.6,737.8z"/>
			<path style="fill:#439C61;" d="M293.6,405c-0.6-2.3-1.4-4.8-3.2-6.3c-3.6-2.9-8.8-0.6-12.9,1.5c-8.2,4.3-16.9,8.1-26.2,8.8
				c-1.5,0.1-3.4,0-5.4-0.4c-0.6-0.1-1.2-0.3-1.8-0.5c-5.4-1.7-10-5.5-15.5-7.1c-7.7-2.3-10.7,2.4-11.8,8.1
				c-1.4,2.5-1.7,6.4-0.2,12.3c1.5,6.1,7.8,9.7,13.8,11.7c14.3,5,30.2,5.5,44.8,1.4c8.3-2.3,17-6.9,19.3-15.2
				C295.9,414.8,294.8,409.8,293.6,405z"/>
			<path style="fill:#439C61;" d="M222.2,487.2c0.2,0.6,0.4,1.2,0.9,1.5c0.4,0.2,0.9,0.1,1.4,0.1c9.6-1.4,19.2-2.9,28.8-4.3
				c-2-17.4-3.9-35-3-52.5c0.6-10.6,2.9-18.9-10.1-15.5C214.9,423,216.8,468.8,222.2,487.2z"/>
			<path style="fill:#3D805C;" d="M271.3,450.4c3.4,2.4,6.4,5.3,8.8,8.6c0.5,0.7,1,1.5,1,2.4c-0.2,3.7-8.9,11.8-12.5,13
				c-4.7,1.4-8.7-0.9-11.3-4.8C251.1,460.4,259.7,442.4,271.3,450.4z"/>
			<path style="fill:#F4E496;" d="M210.2,442.1c-2.8,23.1-3.8,46.5-2.9,69.8c0.1,1.8,0.2,3.7,1,5.2c0.8,1.5,2.3,2.6,3.7,3.6
				c12.9,9.3,26.1,18.1,39.6,26.5c13.8-12.8,27.7-25.7,41.5-38.5c1.5-1.4,3.1-2.9,3.6-4.9c0.4-1.6,0.2-3.3-0.1-4.9
				c-3.4-19.2-6.8-38.4-10.2-57.6c-9.5,7.8-28.3,30.6-41.2,30.2C239,471.5,209.4,449,210.2,442.1z"/>
			<path style="fill:#FFFFFF;" d="M252.5,581c-8.8,0-8.9,13.8,0,13.8C261.3,594.7,261.3,581,252.5,581z"/>
			<path style="fill:#FFFFFF;" d="M252.9,545.9c-8.8,0-8.9,13.8,0,13.8C261.8,559.6,261.8,545.9,252.9,545.9z"/>
			<path style="fill:#3D805C;" d="M257.4,523.1c2.5,0.1,2.2,4,0.8,6.1c-2.7,4-6.5,7.3-10.9,9.4c3.9,0.1,7.8,0.1,11.7,0.2
				c3.7,0.1,7.6,0.2,10.8,2c3.2,1.8,5.4,6,3.9,9.3c-1.4,3.1-5.2,4.1-8.5,4.8c-8,1.7-33.9,6.9-34.7-6.4
				C230,541.1,251,522.7,257.4,523.1z"/>
			<path style="fill:#EB6257;" d="M244.7,533.5c-0.4-1.2-1-1.9-1.9-2.3c-0.7-0.5-1.5-0.9-2.4-1.1c-0.2,0-0.4,0-0.5,0
				c-0.3-0.1-0.5-0.2-0.8-0.3c-4.6-1.7-8.8-5.7-12.4-9c-1.6-1.4-3.2-2.8-4.8-4.1c-10-10.3-17.6-22.9-22-36.6
				c-4.8,3.4-7.5,9.1-8.5,14.9c-1,5.8-0.5,11.7,0,17.5l8.2,26.1c4.6,5.2,10.4,9.2,16.9,11.7c1.6,1.3,3.7,2.3,5.4,3.2
				c3.4,1.8,6.8,3.5,10.6,4.5c2.4,0.7,4.3,0.2,5.8-0.9c1.1,0,2.2-0.5,2.7-1.8c0.6-1.5,2.2-3,2.9-4.7c1.3-3.2,2.4-6.3,2.5-9.7
				C246.3,538.6,245.9,535.7,244.7,533.5z"/>
			<path style="fill:#42372E;" d="M303.5,303.6c-8.8-12.4-22.7-21.7-37.9-22.5c-5.5-0.3-10.9,0.5-16.3,1.7
				c-14.6,3.2-28.7,9.8-39.5,20.2c-5.4,5.2-11.8,14.5-14.3,22.9c-0.2,0.4-0.3,0.8-0.4,1.3c0,0.1,0,0.2-0.1,0.3
				c-0.3,1.2-0.5,2.4-0.6,3.5c-0.4,2.5-0.8,5-0.7,7.7c0.1,3.2-0.5,6.9,2.6,8.9c3,2,7.8,0.5,11.1-0.2c4.2-0.8,8-2.7,11.9-4.3
				c4.4-1.7,8.8-3.4,13.1-5.4c1.3-0.6,2.5-1.3,3.8-2c15.6-6.7,31.7-15.3,28.9-19.4c6.1,8.9,13.3,17.2,22.3,23
				c9.1,5.8,20.1,8.9,30.7,7C316.5,331.1,312.3,316,303.5,303.6z"/>
			<path style="fill:#439C61;" d="M259,257.9c14.8-5.5,31.1-5.9,46.7-3.3c28.8,4.9,58.2,23.4,64,52c-20.7-5-44,7.2-51.9,26.9
				c-17-4-33.9-8.1-50.9-12.1c-13-3.1-35.6-4-46.4-12C197.9,292.7,245.3,263,259,257.9z"/>
			<path style="fill:#EB6257;" d="M240.1,270.6c-6,10.3-10,21.8-11.6,33.6c9.4-9.2,18.7-18.3,28.1-27.5c-0.5,10.5-2.3,21-5.5,31
				c10.5-6.5,18.9-16.1,24-27.4c4,10.7,5.3,22.3,3.6,33.6c7.2-7,12-16.4,13.3-26.3c5.9,10.5,7.7,23.3,4.7,35.1
				c7.7-5.9,13.2-14.5,15.3-24c5.7,12.1,7.9,25.8,6.5,39.1c-9.1,3.2-19.1,2.5-28.7,1.7c-14.6-1.2-29.4-2.4-43.3-7.1
				c-7.8-2.6-15.1-6.4-21.9-11c-4.4-3-17.1-11.1-17.9-16.7c-0.8-5.6,10-16.2,13.6-19.8C226.1,279.1,232.8,274.2,240.1,270.6z"/>
			<path style="fill:#F4E496;" d="M372.6,300.7c-4.9-2.4-10.8,2-12.3,7.2c-0.8,2.6-0.7,5.7,1,7.8c1.7,2.3,4.7,3,7.5,3.7
				c3.4,0.7,7.4,1.3,10-1c1.4-1.3,2.2-3.2,2.6-5c0.7-2.6,0.9-5.5,0-8c-0.9-2.6-3.2-4.7-5.9-4.8"/>
		</g>
		<g>
			<path style="fill:#42372E;" d="M418.9,353.5c-4.5,3.8-5.9,10.7-3.4,16c1.3,2.6,3.5,5,3.5,8c0.1,4.7-5.2,7.4-7.5,11.5
				c-1.8,3.1-1.8,7.2,0.3,10.1c2.1,2.9,6.2,4.3,9.5,2.9c1.2-0.5,2.2-1.3,3.4-1.7c4.6-1.8,9.3,1.4,13.9,3.2c11.5,4.5,24.3-0.3,36.6-2
				c4.1-0.5,8.3-0.7,12.3,0.2c3.1,0.7,6,2,9,2.9c7.7,2.5,16.2,3.2,24.1,1.4c3.5-0.8,6.9-2,10.5-2.2c2.9-0.2,6.2,0.2,8.3-1.7
				c2.9-2.7,1.4-7.4-0.3-11c-1.6-3.3-3.2-6.6-4.7-9.9c-1.1-2.4-2.3-4.8-2.7-7.5c-0.4-3.1,0.3-6.2,0.5-9.3c0.2-3.1-0.5-6.6-2.9-8.5
				c-1.4-1.1-3.2-1.6-4.9-2c-13.6-3.4-27.3-6.8-41.3-8.3c-7.9-0.9-16-1.1-23.7,0.8c-3.8,0.9-7.4,2.4-11.2,3.1
				c-3.3,0.6-6.7,0.6-10,1.2c-4.1,0.6-8.1,2-12,3.5L418.9,353.5z"/>
			<path style="fill:#CA9E67;" d="M530.3,343.7c-1,0-1.9,0.1-2.7,0.3c-0.5-1.3-0.8-2.7-1.1-4.1c-3-15.9-7.1-33.1-19.9-43
				c-12.4-9.6-29.9-9.6-45-5.6c-12.9,3.5-25.4,9.8-34.3,19.9c-8.3,9.4-13,22.2-11.2,34.5c-10.7,2.4-9.9,20.4,2.5,20.4
				c1.3,0,2.5-0.2,3.6-0.6c0.5,0,1,0.1,1.4,0.1c2.3,20.5,18,32.9,36.1,39c-1.3,4.4-1.4,7.3-0.7,9.2c-5.2,0.5-10.6,1.3-16.4,2.3
				c-3.4,0.6-6.9,1.4-9.5,3.6c-3.8,3.4-4.5,8.9-5,14c-9,100.4-17.8,202.9,4.8,301.2c0.8,3.3,1.5,6.9,0.3,10c-0.8,2-2.2,3.6-3.7,5.1
				c-3.3,3.6-10.7,5.9-9.9,10.7c1.9,12.2,25-2.1,30.3-13.3c5.3-11.2,4.6-24.1,4.8-36.5c0.3-15.6,2.4-31,4.8-46.4
				c3.7-23.7,8.3-47.3,13.7-70.7c9.4,42.4,18.9,85.6,15.6,128.9c-0.5,6.4-1.3,12.9,0.1,19.2c2.5,11.8,15.9,30.6,25,22.7
				c4.1-3.5-2.6-10.4-4.3-15.5c-4.3-12.9-2.5-26.9-0.8-40.4c4.8-40.4,7.2-81,7-121.7c-0.1-19.4-0.7-38.9-1.4-58.3
				c-1.1-33.7-2.3-67.5-3.4-101.2c-0.1-1.8-0.2-3.8-1.2-5.3c-1.2-1.8-3.4-2.7-5.5-3.4c-7.8-2.6-14.9-4.3-21.9-5.1
				c-1.3-3.7,0.4-8.6,3.5-11.4c3.9-3.6,9.2-5.1,13.9-7.3c12.9-5.9,23-17.8,26.7-31.5c1.1,0.4,2.2,0.6,3.6,0.6
				C543.6,364.3,543.6,343.7,530.3,343.7z"/>
			<path style="fill:#FFFFFF;" d="M420,640.5c1.8,31.8,5.9,63.3,13,94.5c0.1,0.5,0.2,1,0.3,1.5c4-0.2,8.1-0.9,12.1-1.1
				c2.7-0.1,5.5,0,8.2-0.2c1.3-7.9,1-16.2,1.2-24.2c0.3-15.6,2.4-31,4.8-46.4c1-6.3,2.1-12.6,3.2-18.9c-3.7-1.4-7.4-2.6-11.5-3.6
				C440.6,639.3,430.5,639.6,420,640.5z"/>
			<path style="fill:#FFFFFF;" d="M514.9,635.6c-11.3,1.1-24.1,3.9-30.7,11.5c4.2,25.1,6.7,50.4,4.7,75.7c-0.1,1.6-0.3,3.2-0.4,4.9
				c2.2,0.2,4.4,0.2,6.5,0c4.1-0.5,8.2-1.6,12.2-2.3c0.3-5.5,1-11,1.6-16.5C511.8,684.6,513.8,660.1,514.9,635.6z"/>
			<path style="fill:#3D805C;" d="M458.2,674.4c0.5-3.3,1-6.6,1.5-9.8c0.1-0.7,0.2-1.4,0.3-2c-8.7-0.1-17.4-0.1-26.1,0.1
				c-2.7,0.1-8-0.6-12.2-0.4c0.5,5,1,10,1.5,15C434.9,677.5,446.6,676.5,458.2,674.4z"/>
			<path style="fill:#3D805C;" d="M433.8,684.5c-2.2,0-6.2-0.4-9.9-0.4c0.6,5,1.3,10,2.1,15.1c9.9,0,19.8-0.8,29.5-2.4
				c0.3-4.1,0.8-8.2,1.3-12.3C449.2,684.3,441.5,684.3,433.8,684.5z"/>
			<path style="fill:#3D805C;" d="M433.8,706.3c-1.6,0-4-0.2-6.6-0.3c0.8,5,1.8,9.9,2.8,14.9c8.3-0.2,16.6-0.9,24.8-2.2
				c0-2.6,0-5.1,0.1-7.7c0-1.6,0.1-3.2,0.2-4.8C447.9,706.1,440.9,706.2,433.8,706.3z"/>
			<path style="fill:#3D805C;" d="M433.8,728.1c-0.7,0-1.5,0-2.4-0.1c0.5,2.3,1,4.6,1.5,6.9c0.1,0.5,0.2,1,0.3,1.5
				c4-0.2,8.1-0.9,12.1-1.1c2.7-0.1,5.5,0,8.2-0.2c0.4-2.4,0.6-4.8,0.8-7.2C447.6,728,440.7,728,433.8,728.1z"/>
			<path style="fill:#3D805C;" d="M489,722.5c6.2,0.1,12.4,0,18.5-0.1c0.4-4.5,0.9-9.1,1.4-13.6c0-0.3,0.1-0.6,0.1-0.9
				c-6.5,0.3-13,1.1-19.5,2.1C489.5,714.3,489.3,718.4,489,722.5z"/>
			<path style="fill:#3D805C;" d="M489.6,700.7c6.8,0.1,13.5,0,20.3-0.1c0.5-4.8,1-9.7,1.5-14.5c-7.5,0.3-14.9,1.1-22.3,2.3
				C489.3,692.5,489.5,696.6,489.6,700.7z"/>
			<path style="fill:#3D805C;" d="M511.2,678.7c0.2,0,0.5,0,0.8,0c0.4-4.8,0.8-9.7,1.2-14.5c-8.8,0.3-17.5,1.2-26.1,2.7
				c0.5,4,0.9,7.9,1.3,11.9C496,678.9,503.6,678.9,511.2,678.7z"/>
			<path style="fill:#3D805C;" d="M511.2,656.9c0.7,0,1.5,0,2.5,0.1c0.3-4.9,0.6-9.8,0.9-14.6c-9.6,0.2-19.1,1.2-28.5,3
				c-0.7,0.6-1.3,1.2-1.9,1.8c0.6,3.3,1.1,6.6,1.6,9.9C494.3,657.1,502.8,657.1,511.2,656.9z"/>
			<path style="fill:#EB6257;" d="M379.4,641.2c-0.5,1.2-0.9,2.7-0.1,3.7c0.6,0.8,1.7,1,2.6,1.1c6.6,0.8,13.5-1.2,20,0.2
				c12.3,2.6,20.6,16.6,33.2,16.9c5.7,0.2,11.1-2.6,16.7-3.3c13.8-1.7,27.5,9.1,40.9,5.6c7.6-2,13.3-8.2,20.4-11.4
				c8.6-3.9,18.8-3.3,27.1-7.7c1.3-0.7,2.6-1.6,3.1-3c0.5-1.5-0.2-3.1-0.8-4.6c-12-27.4-24-54.8-36-82.2c-0.3-0.7-47.6,0-52.4-0.5
				c-10.5-1.2-22.7-4.5-32.2,2.1c-10.4,7.2-15.9,23.3-21.2,34.1C393,608.3,385.8,624.6,379.4,641.2z"/>
			<path style="fill:#439C61;" d="M550.5,458.9c-3.9-10.3-9.1-17.8-15.4-23.4c-2.5-3.2-5.5-6.1-8.9-8.3c-5.2-3.5-9.8-7-15.5-8.9
				c-0.1,0-0.1-0.1-0.2-0.2c-6.1-4-13.8-6.8-20.9-8c-2.5-0.4-4.7-0.9-7,0.5c-2.5,1.5-3.1,4.2-5.1,6.1c-4-0.6-8-1.2-12-1.9
				c-3.1-0.6-5.9-1.1-8.6-1.5c-0.3-0.2-0.4-0.4-0.6-0.7c-1.1-2-3.3-2.5-5.4-2.2c-2.3,0.4-4.8,1.3-7.2,2.4
				c-5.6,0.8-11.3,3.1-18.4,8.3c-14.4,10.5-24.8,26.2-33,41.7c-9,17-16.9,36.1-13.1,54.9c3.7,18.8,23.9,35.3,41.9,28.4
				c-9.4,6.7-9.3,21.8-2.2,30.9c7.1,9.1,18.9,13.2,30.3,14.9c18.4,2.8,37.5,0.7,54.8-6c6.8-2.7,14.1-6.9,15.7-14.1
				c0.8-3.4,0.1-7-0.6-10.4c-1.4-7.2-2.9-14.3-4.3-21.5c-0.5-2.4-0.9-5.1,0.4-7.2c1.2-2,3.6-2.7,5.8-3.6
				C547.6,519.4,560.4,485.3,550.5,458.9z"/>
			<path style="fill:#EB6257;" d="M493.5,419.4c-1.7-3.6-7.1-11.8-12-10.4c-1.2,0.3-2.1,1.3-3.1,1.9c-2.7,1.7-5.8,2.6-9,2.7
				c-2.4,0-4.8-0.4-6.9-1.4c-2.2-1-2.9-2.6-4.8-3.9c-0.7-0.5-1.5-0.6-2.1-0.3c-8.4,0.8-19.4,11.9-12.3,20.4
				c6.1,7.2,17.9,1.1,23.9-4.9c2.2,2.1,4.6,3.4,7.6,4.8c3.5,1.6,7.6,4.3,11.7,4.2C492.4,432.2,496,424.5,493.5,419.4z"/>
			<path style="fill:#F4E496;" d="M430.4,465.1c-3.8,20.3-6.6,40.8-8.3,61.4c-0.2,1.8-0.3,3.7,0.7,5.2c0.9,1.4,2.5,2.1,4,2.8
				c12,5,24,10.1,36,15.1c2.2,0.9,4.5,1.9,6.9,1.6c1.9-0.2,3.7-1.1,5.4-2.1c10.8-5.9,21.7-11.8,32.5-17.7c1.1-0.6,2.2-1.2,2.8-2.3
				c0.6-1.1,0.5-2.5,0.3-3.8c-2.6-22.3-5.2-44.6-7.9-67c-11.1,5.8-24.3,16-36.8,18.4C460.5,477.8,430.4,471.4,430.4,465.1z"/>
			<path style="fill:#42372E;" d="M520.1,302.3c-3.7-4.3-8.3-7.7-13.1-10.5c-18.4-10.5-41.9-12.4-61-3.2
				c-10.2,5-30.7,24.2-32.1,40.1c-1.1,4.4-4,9.9-2.5,13.8c1.3,3.5,6.1,3.1,9.1,2.7c1.6-0.2,3.1-0.5,4.5-1
				c14.3,1.2,35.7-21.6,39.8-30.6c15.8,21,42.1,33.7,68.4,33.2C531.9,331.2,530.3,314.3,520.1,302.3z"/>
			<path style="fill:#EB6257;" d="M491.9,323.5c12.9-0.8,25.9-1.7,38.8-2.5c-0.1-10.1-4.5-19.9-10.8-27.8
				c-6.4-7.9-14.6-14-23.2-19.5c-5.5-3.5-11.4-6.8-17.9-7.1c-4.4-0.2-8.8,0.9-13,2.4c-10.3,3.5-20.2,8.8-28.3,16.1
				c-5.8,5.2-18.2,18.5-16.5,27.4C424.4,330,479.1,324.3,491.9,323.5z"/>
			<path style="fill:#3D805C;" d="M530.4,310.7c0-0.1,0-0.3,0-0.4c0.1-1.5,0.3-3.3,0.3-4.8c0.7-8.2,2.8-16.4,6.2-23.9
				c-11.9,9.7-22.7,20.8-32.2,32.9c-5.6-11.8-6.1-26-1.2-38.2c-13.4,11.5-24.6,25.5-33,41c-3.6-12.9-9.9-25.1-18.4-35.5
				c-0.6,12-4.7,23.9-11.8,33.6c-3.7-13.4-13.5-25-26.1-30.7c1.5,9.1-0.7,27.5,4.5,35c5.2,7.5,20.9,7.3,28.8,7.5
				c23,0.5,46-0.5,68.9-2.8c0.3,0.1,0.6,0.2,0.9,0.2c3.4,0,6.9-0.2,10.2-0.6c2.2-0.3,3.5-1.3,3.6-3.6c0.1-2.9-0.6-6-0.8-8.9
				C530.4,311.2,530.4,311,530.4,310.7z"/>
			<path style="fill:#F4E496;" d="M418,269.1c-3.3-3.3-8.2-3.3-11.4,0.1c-2.7,2.8-4.3,7.5-2.3,11.1c1.2,2.7,4,4.4,7.1,5.5
				c4.3,1.5,8.3-0.9,9.8-5C422.6,276.7,421,272.1,418,269.1z"/>
			<path style="fill:#F4E496;" d="M450.4,263c-8.7-1.2-12.3,11.7-6.1,16.4c1.7,1.7,4,2.7,6.4,2.7c4.9,0,8.6-4.4,8.4-9.2
				C458.9,268.4,455,263.7,450.4,263z"/>
			<path style="fill:#F4E496;" d="M515.6,265.7c-0.6-1.3-1.6-2.5-2.8-3.4c-1.3-1.3-3-2.3-4.8-2.7c-6.1-1.4-10.7,4.4-11.3,9.9
				c-0.7,6.3,4.7,10.7,10.8,9.1C512.6,277.2,518.3,271.3,515.6,265.7z"/>
			<path style="fill:#F4E496;" d="M549.1,272.2c-1.9-2.8-5.6-4.7-9-4.9c-7.4-0.4-11.3,7.1-8.4,13.5c0.8,1.8,2.1,3.3,3.7,4.3
				c2.5,3,7,3.9,11.1,1.6C551.8,283.7,553.7,276.2,549.1,272.2z"/>
			<path style="fill:#EB6257;" d="M449.2,517.2c-4.2-0.9-9,0.4-13.5,2.1c2-4.1,3-8.5-1.1-10.4c-2.8-1.2-5.1,1.6-6.6,3.5
				c-3.3,4.1-6.6,8.5-10.7,11.9c-0.9,0.7-1,1.6-0.8,2.4c0,0.1,0,0.1,0,0.2c0.3,4.6,2.3,8.5,3.4,12.9c0.3,1.2,1.4,1.9,2.6,1.9
				c7.1,0.3,14.8,1.2,21.7-1.5c4.9-1.9,12.5-6.4,13.7-12C458.9,522.8,454.2,518.2,449.2,517.2z"/>
			<path style="fill:#EB6257;" d="M516.9,521.6c-0.7-1.8-2.4-2.8-3.9-3.9c-2.7-2-4.2-4.9-6.3-7.5c-2-2.4-6.5-6.3-9-2.2
				c-2.1,3.5-0.3,7.1,1.5,10.4c-7.8-1.9-19.4-3.5-17.7,6.2c1.8,9.8,18.6,13.8,27,14.2c1.4,0.7,3.2,0.4,3.5-1.6
				c0.5-2.9,3.1-5.5,4-8.5C516.7,526.6,517.7,523.9,516.9,521.6z"/>
			<path style="fill:#439C61;" d="M430.3,538.3c-2.6-7.2-5.7-14.2-8-21.6c-1.3-4.2-1.5-11-5.4-13.8c-2.5-1.8-6.5-2.4-9.4-3.4
				c-3.7-1.2-7.6-2.5-11.5-3.3c-4.4-0.9-7.8,0-11.3,1.8c0.3-2.2,0.6-4.5,0.9-6.7c0.3-3.4-5-3.4-5.3,0c-0.8,7.7-2.6,15.2-1.7,23
				c0.4,3.5,0.6,7.1,1.2,10.5c0.6,3.4,2.2,6.5,3.5,9.7c4.3,10.1,13.1,20.6,25.3,19.4c5.6-0.6,11.1-2.1,16.2-4.6
				C430.2,546.9,432.4,544,430.3,538.3z"/>
			<path style="fill:#439C61;" d="M556.2,492.1c-1-3.7-1.8-18-2.8-21.6c-0.7-2.7-0.5,4.5-1.7,2c-2.7-5.6-7.1-1.6-9.8,1.5
				c-4.7,5.4-8.2,12.5-11.1,19c-2,4.5-5.6,8.4-8.8,12.2c-1.4,1.7-3,4-4.8,6c-1.2-1.3-3.9-1.3-4.8,0.9c-2.5,6.2-3.6,12.3-5,18.8
				c-1.1,5.3-1.9,8.9,4.1,11c5.9,2.1,12.5,4.2,18.6,1.8c6.2-2.4,12.6-6.9,16.8-12.1c4.3-5.3,6.4-11.6,8-18.1
				C556.5,506.2,558.1,499.6,556.2,492.1z"/>
			<path style="fill:#FFFFFF;" d="M466.3,445.5c-8.8,0-8.9,13.8,0,13.8C475.2,459.3,475.2,445.5,466.3,445.5z"/>
			<path style="fill:#FFFFFF;" d="M467.1,562.6c-8.8,0-8.9,13.8,0,13.8C475.9,576.3,475.9,562.6,467.1,562.6z"/>
			<path style="fill:#439C61;" d="M429.2,748.8c-2.3,2.8-5.6,4.6-8.1,7.2s-4.2,6.8-2.3,9.9c1.1,1.9,3.4,3,5.6,3.1
				c2.2,0.2,4.4-0.4,6.5-1.2c8.6-3.3,15.6-10.2,19.7-18.4c4.1-8.2,5.2-17.8,3.8-26.9c-2.2,2.1-4.1,4.6-5.5,7.4
				c-1.3-2.1-2.5-4.1-3.8-6.2c-1.5,2.7-2.8,5.5-3.9,8.3c-0.8-2.9-2.6-5.5-5-7.3c-0.1,2.5-0.5,5-1.3,7.3c0.3-0.8-3.3-4.9-4-2.9
				c-0.2,0.5,1,2.7,1.2,3.3c0.3,1.1,0.5,2.3,0.7,3.5C433.2,740.4,432.2,745.3,429.2,748.8z"/>
			<path style="fill:#439C61;" d="M501.4,764.5c2.5,2,5.4,3.7,8.5,4c3.2,0.3,6.7-1.3,7.8-4.3c1.3-3.6-1-7.3-3-10.5
				c-2.7-4.5-4.9-9.3-5.8-14.4c-1.2-6.6-0.1-13.4,0.9-20c-2.8,1.9-5.3,4.3-7.3,6.9c-1.8-3.1-3.2-6.5-4.2-10
				c-1.5,3.4-2.9,6.9-4.4,10.3c-1.4-3.3-2.8-6.6-4.2-9.9C482.1,732.5,487.7,753.6,501.4,764.5z"/>
		</g>
		<g>
			<path style="fill:#42372E;" d="M657.4,364.3c1.5,6.6,4.6,13.5,2.7,20c-3.5,11.6-19.9,13.6-26.8,23.7c-4,5.9-4.1,13.5-3.8,20.6
				s0.7,14.6-2.5,21c-3.2,6.3-11.7,10.6-17.7,6.7c11.2,7.6,28,5.5,37-4.6c0.8,11-2.8,22.2-9.9,30.7c18.3,4.6,39-2.3,50.8-17.1
				c4.6,4.2,10.4,7,16.6,7.9c3.2,0.5,6.5,0.4,9.7,1.1c5.5,1.2,10.3,4.4,15.3,7.1c16.8,9.2,36.8,12.4,55.6,8.9
				c-0.5-7.3-0.1-14.6,1.2-21.8c3.6,5.6,11.3,7.3,17.8,5.8c6.5-1.5,12-5.5,17.4-9.4c-9.8-0.8-19.1-6.4-24.3-14.7
				c9.5,5.8,22.9,3.9,30.5-4.2c-9.1-1.2-17-7.2-22.4-14.6s-8.7-16.1-12-24.7c-6.8-18-13.6-36-20.4-54c-1.2-3.1-2.4-6.4-1.9-9.7
				c0.8-5,5.3-9,5.6-14.1c0.5-8.2-9.2-12.4-15.9-17.1c-4.9-3.5-8.8-8.3-14-11.4c-7.5-4.4-16.8-4.5-25.5-4.4
				c-8,0.1-16.1,0.1-23.8,2.4c-11.7,3.5-21.3,12-29.4,21.1c-6.8,7.6-7.5,12.9-7.6,22.5C659.4,349.6,655.6,356.5,657.4,364.3z"/>
			<path style="fill:#F9D8C3;" d="M774.3,335.2c-1,0-1.9,0.1-2.7,0.3c-0.5-1.3-0.8-2.7-1.1-4.1c-3-15.9-7.1-33.1-19.9-43
				c-12.4-9.6-29.9-9.6-45-5.6c-12.9,3.5-25.4,9.8-34.3,19.9c-8.3,9.4-13,22.2-11.2,34.5c-10.7,2.4-9.9,20.4,2.5,20.4
				c1.3,0,2.5-0.2,3.6-0.6c0.5,0,1,0.1,1.4,0.1c2.3,20.5,18,32.9,36.1,39c-1.3,4.4-1.4,7.3-0.7,9.2c-5.2,0.5-10.6,1.3-16.4,2.3
				c-3.4,0.6-6.9,1.4-9.5,3.6c-3.8,3.4-4.5,8.9-5,14c-9,100.4-17.8,202.9,4.8,301.2c0.8,3.3,1.5,6.9,0.3,10c-0.8,2-2.2,3.6-3.7,5.1
				c-3.3,3.6-10.7,5.9-9.9,10.7c1.9,12.2,25-2.1,30.3-13.3c5.3-11.2,4.6-24.1,4.8-36.5c0.3-15.6,2.4-31,4.8-46.4
				c3.7-23.7,8.3-47.3,13.7-70.7c9.4,42.4,18.9,85.6,15.6,128.9c-0.5,6.4-1.3,12.9,0.1,19.2c2.5,11.8,15.9,30.6,25,22.7
				c4.1-3.5-2.6-10.4-4.3-15.5c-4.3-12.9-2.5-26.9-0.8-40.4c4.8-40.4,7.2-81,7-121.7c-0.1-19.4-0.7-38.9-1.4-58.3
				c-1.1-33.7-2.3-67.5-3.4-101.2c-0.1-1.8-0.2-3.8-1.2-5.3c-1.2-1.8-3.4-2.7-5.5-3.4c-7.8-2.6-14.9-4.3-21.9-5.1
				c-1.3-3.7,0.4-8.6,3.5-11.4c3.9-3.6,9.2-5.1,13.9-7.3c12.9-5.9,23-17.8,26.7-31.5c1.1,0.4,2.2,0.6,3.6,0.6
				C787.6,355.8,787.6,335.2,774.3,335.2z"/>
			<path style="fill:#42372E;" d="M672.4,347.8c0.8,14.7,5,29.1,10,43c-13.5-11.4-16.8-30.6-19-48.1c-2.2-17.2-3.5-36.9,8.6-49.3
				c5-5.1,11.6-8.1,18.3-10.5c10.3-3.7,21.1-6.1,32.1-7c14.4-1.2,30.6,0.8,40.3,11.6c8.5,9.5,9.7,23.4,9.9,36.2
				c0.3,26.6-3.2,55.7-22,74.5c10-24.8,12.8-52.4,7.8-78.7c-0.7-3.5-1.5-7.1-3.9-9.8c-3.1-3.6-8.1-4.7-12.8-5.5
				c-15-2.6-40.2-9-54.6-1.2C673.1,310.6,671.6,334.3,672.4,347.8z"/>
			<path style="fill:#42372E;" d="M683.3,331.5c6.6-2.3,12.1-7.5,14.7-13.9c-4.8,7.4-11.8,13.8-20.4,15.9
				c-8.6,2.1-18.7-0.9-23.3-8.5c2.7,1.4,6.1-0.5,7.7-3.1c1.6-2.6,1.9-5.7,2.6-8.7c4.4-17.6,23.1-27.6,40.8-31.4
				c10.3-2.2,21-3.1,31.3-0.9c10.3,2.2,20.2,7.6,26.4,16.1c3.8,5.1,6.1,11.2,10.1,16.2c4,4.9,10.6,8.7,16.6,6.6
				c-6.1,10.2-20.5,14.5-31.2,9.3c3.2,3,7.5,4.8,11.8,5.2c-7.4-0.6-13.9,3.4-22.1,1.3c-8.5-2.2-14-8.5-21.9-11.7
				C711.4,317.7,700,336.3,683.3,331.5z"/>
			<path style="fill:#EB6257;" d="M634.5,289.9c-1,3.7-1.1,7.7-3,11c-2,3.3-7.1,5.1-9.5,2.2c-1-1.2-1.2-2.8-1.4-4.3
				c-2-20.6,10-41,27.3-52.3c17.3-11.3,39.1-14.3,59.7-11.7c11.1,1.4,22.3,4.4,31.4,10.9c14.9,10.4,22.9,28.8,24.3,46.9
				c0.1,1.7,0.2,3.4-0.6,4.9c-1,1.8-3.1,2.7-5.1,3.3c-17.3,6-75,24.1-88,6.5c-6.7-9.1,3.6-27.6-9.2-31.4
				C649.8,272.6,637.4,279.4,634.5,289.9z"/>
			<path style="fill:#439C61;" d="M676.9,303.3c1.1-10.1,5.5-19.8,12.4-27.3c5.2,6.5,9.2,14,11.7,21.9c1.4-8.4,5.7-16.3,11.9-22.1
				c2.4,7.1,4.9,14.2,7.3,21.3c6.1-8.5,13.3-16.2,21.3-22.9c3,7.2,4.7,15,5.2,22.8c4.8-7.6,11.3-14.1,18.9-19
				c1.1,6.6,1.5,13.3,1.2,20.1c4.1-3.6,8.6-6.9,13.3-9.7c1.1-0.7,2.5-1.3,3.6-0.6c1.1,0.7,1.1,2.2,1,3.5c-0.4,5.8-1.1,12-4.9,16.4
				c-5,5.6-13.4,6.1-20.9,6.3c-25.8,0.4-51.6,1.4-77.4,1.3c-18.1,0-29.8-7.9-29.9-28.4C655.1,288.1,677.3,299.2,676.9,303.3z"/>
			<path style="fill:#F4E496;" d="M634.1,299.7c-0.9-1.3-2.4-2.2-4.5-2.2c-3.9,0-7.8,0.6-10.8,3.2c-3.2,2.8-4.8,7.7-3.6,11.9
				c2.4,8.7,14.1,11.2,20.5,5.3C641.3,312.7,640.4,303.4,634.1,299.7z"/>
			<path style="fill:#EB6257;" d="M668.3,591c-2.1,1.8-3.9,4-5.5,6.5c0.6,43.4,4.5,86.6,14.2,129c0.5,2.1,1,4.2,1,6.3
				c5.9,2.7,12.3,3.3,18.1,0.9c3.1-9.9,2.6-20.7,2.8-31.2c0.3-15.6,2.4-31,4.8-46.4c2.7-17.4,6-34.8,9.6-52
				C706.3,586.5,684,577.6,668.3,591z"/>
			<path style="fill:#EB6257;" d="M737.8,606.3c-8.1,9.5-15.6-19.8-16.2-8.2c4.4,25.3,12.2,90.7,10.2,116.2
				c-0.4,4.6-0.8,9.2-0.6,13.8c1.4,0.5,2.8,0.9,4.1,1.3c5.1,1.3,10.5,2.7,15.7,2.2c-1.4-10.2,0-20.9,1.3-31.2
				c3.9-31.6,6.2-63.5,6.9-95.3C754.7,596.7,747.9,594.5,737.8,606.3z"/>
			<path style="fill:#EB6257;" d="M676.3,586.2c4.6-0.6,9.4-0.9,14.1-1.2C685.8,584.1,681,584.4,676.3,586.2z"/>
			<path style="fill:#FFFFFF;" d="M677,726.4c0.1,0.4,0.2,0.8,0.3,1.3c6.9-0.8,13.8-1.9,20.7-3c0.5-3.6,0.6-7.2,0.7-10.9
				c-6.8,0.1-17,0.6-23.8,3.2C675.6,720.1,676.3,723.3,677,726.4z"/>
			<path style="fill:#FFFFFF;" d="M672.1,702.4c8.9-0.8,18-2.3,26.9-3.7c0.1-3.6,0.4-7.2,0.7-10.7c-8.3,0.1-23,0.7-29.1,5.6
				C671,696.5,671.5,699.4,672.1,702.4z"/>
			<path style="fill:#FFFFFF;" d="M666.8,665.9c0.4,3.5,0.8,7,1.3,10.5c11.1-1,22.2-2.6,33.2-4.1c0.4-3.4,0.9-6.8,1.4-10.2
				c-0.2,0-0.4,0-0.6,0C695.2,662.1,676.9,662,666.8,665.9z"/>
			<path style="fill:#FFFFFF;" d="M701.5,636.3c-7.2,0-25.7-0.1-37,3.2c0.3,3.6,0.5,7.3,0.9,10.9c13.3-1.1,26.8-3,40-4.5
				c0.5-3,1-6,1.6-9.1c-0.3-0.2-0.7-0.3-1-0.4C704.5,636,702.9,636.1,701.5,636.3z"/>
			<path style="fill:#FFFFFF;" d="M709.7,610.4c-9.4,0-35.9-0.1-46.5,5.3c0.1,3.1,0.2,6.2,0.4,9.3c15.4-0.9,30.9-2.8,46.3-4.5
				c0.7-3.4,1.3-6.8,2-10.2C711.2,610.3,710.5,610.4,709.7,610.4z"/>
			<path style="fill:#FFFFFF;" d="M690.5,585c-4.7,0.2-9.6,0.6-14.1,1.2c-2.8,1.1-5.5,2.6-8.1,4.8c-2.1,1.8-3.9,4-5.5,6.5
				c0,0.5,0,1.1,0,1.6c15-0.8,30-2.5,45-4C703.2,589.9,697,586.3,690.5,585z"/>
			<path style="fill:#FFFFFF;" d="M731.9,714.3c-0.2,2-0.3,4.1-0.5,6.1c6.4-0.7,12.9-1.7,19.3-2.7c0.2-3.8,0.6-7.6,1-11.4
				c-6.2,0.2-13.8,0.8-19.6,2.8C732.1,711,732,712.7,731.9,714.3z"/>
			<path style="fill:#FFFFFF;" d="M732,693.9c7.2-0.8,14.4-1.8,21.5-2.8c0.4-3.6,0.8-7.1,1.2-10.7c-6.1,0-15.4,0.3-23.3,1.6
				C731.6,686.2,731.8,690.2,732,693.9z"/>
			<path style="fill:#FFFFFF;" d="M729.2,656.1c0.4,4,0.8,7.9,1.1,11.9c8.6-0.9,17.3-2,25.9-3.1c0.3-3.4,0.6-6.8,0.8-10.3
				C751,654.6,739.2,654.6,729.2,656.1z"/>
			<path style="fill:#FFFFFF;" d="M727.8,642.8c10.1-0.8,20.1-1.9,30.2-3.1c0.2-3.6,0.4-7.3,0.6-10.9c-9.3,0.1-22.6,0.6-32.1,2.9
				C726.9,635.3,727.3,639,727.8,642.8z"/>
			<path style="fill:#FFFFFF;" d="M737.8,606.3c0.8-1,1.6-1.8,2.4-2.6c-3.7,0.3-7.4,0.7-10.8,1.2C731.9,608,734.8,609.9,737.8,606.3
				z"/>
			<path style="fill:#FFFFFF;" d="M759.4,605.1c-0.4-0.7-0.8-1.4-1.3-2.1c-5.3,0.1-11.7,0.3-17.9,0.8c-0.8,0.8-1.6,1.6-2.4,2.6
				c-3,3.5-5.9,1.7-8.5-1.4c-2.3,0.4-4.4,0.8-6.4,1.3c0.5,3.3,1,7,1.6,10.8c11.5-0.8,23.1-2,34.5-3.1
				C759.2,611,759.3,608,759.4,605.1z"/>
			<path style="fill:#3D805C;" d="M664.8,534.4c-8,22.7-17.8,44.8-29.4,65.9c4.8-2.7,9.6-5.5,14.3-8.2c-2.4,7.3-3.2,15.1-2.3,22.7
				c4.3-3,8.3-6.4,11.9-10.3c-0.1,9.9,1.7,19.8,5.2,29.1c4.2-6.5,8.8-12.8,13.6-18.8c4.5,8.1,8.9,16.2,13.4,24.3
				c3.2-7.3,6.9-14.4,11.1-21.2c4.4,7,8.8,14,13.2,20.9c4.1-8.2,7.6-16.7,10.5-25.5c3.3,8.3,7.7,16.1,13,23.3
				c1.6-7.2,2.8-14.4,3.6-21.7c6.6,5.6,12.9,11.7,18.7,18.2c-1.9-7.5-2-15.5-0.4-23.1c5.3,4.1,11.1,7.5,17.2,10.3
				c-9.8-30.2-18.4-60.9-25.6-91.9c-26.4-6.2-53.9-7.2-80.6-3.1L664.8,534.4z"/>
			<path style="fill:#EB6257;" d="M809.3,479.6c-3.9-18.6-15-35.1-28.6-48.4c-10.1-9.9-21.6-18.1-33.4-25.8
				c-2.3-1.5-6.2-5.2-8.9-5.7c-5.8-1.2-3.1,0.3-8.6,2c-6.2,1.9-10.9,4.3-17.7,3.8c-4.4-0.3-8-1.1-11.5-1.5c-0.9-0.9-2.3-1.5-4.1-1.3
				c-7.5,0.9-14,2.2-20.5,6.2c-5.8,3.6-10.6,9-14.1,14.7c-3.1,5-20,45.3-23.7,61.1c-2.7,11.5-4.2,23.7-1.1,35.1
				c3.1,10.9,11.3,20.9,22.2,23.7c-0.9,3.7-1.4,7.3,1.7,10.4c3.6,3.6,10.2,5.7,15,6.8c6.9,1.6,14,2.4,21,3.4
				c6.4,1,12.8,2.2,19.3,2.7c12.8,1,24.7-1.3,36.3-6.4c5-2.2,7.9-7.9,7.6-13.4c13.1,0.8,26.8-4.6,35.9-14.3
				C809.1,519,813.2,498.2,809.3,479.6z"/>
			<path style="fill:#FFFFFF;" d="M683.2,391.1c5.1-2.6,11.2-0.5,16.8,0.5c10.5,2,21.4,0,31.7-3c4.5-1.3,9.5-2.8,13.9-1.1
				c5.1,2,7.7,7.6,9.4,12.8c1,3,1.9,6.4,0.7,9.4c-1.3,3.3-4.8,5.1-8.1,6.6c-11.9,5.5-24.3,10.8-37.5,11.1
				C695.6,427.9,656.3,404.9,683.2,391.1z"/>
			<path style="fill:#439C61;" d="M695.9,393.4c0.4-0.7,0.8-1.5,1.2-2.3c-2.5-0.5-5.1-1.1-7.6-1.2c-1,1.7-1.8,3.5-2.4,4.7
				c-2.9,6.5-4.8,13.5-5.5,20.6c2.2,1.9,4.8,3.7,7.5,5.3c1.4-3.2,2.1-6.8,2.6-10.3C692.6,404.4,693.1,398.5,695.9,393.4z"/>
			<path style="fill:#439C61;" d="M720,419c-0.4-8.9-0.9-17.8-2.7-26.6c0-0.2-0.1-0.4-0.1-0.6c-2.8,0.4-5.6,0.6-8.3,0.6
				c0.3,1.9,0.9,3.9,1,5.1c1.4,9.9,0.9,20.1-1.3,29.9c0.6,0,1.1,0.1,1.6,0c3.3-0.1,6.6-0.5,9.8-1.1C720.2,424,720.1,421.4,720,419z"
				/>
			<path style="fill:#439C61;" d="M744.9,409.7c-0.8-6.5-1.8-13.2-5.4-18.7c-0.6-0.9-1.6-2.3-2.9-3.7c-1.7,0.4-3.3,0.8-4.9,1.3
				c-0.2,0.1-0.5,0.1-0.7,0.2c1.5,3.5,2.9,7,3.4,11.2c0.7,7.1,0.2,14.3,2.1,21.2c2.9-1.2,5.8-2.5,8.7-3.8
				C745.5,415,745.3,412.2,744.9,409.7z"/>
			<path style="fill:#439C61;" d="M672.7,721.4c1.3,5.9,2.5,12.6-0.8,17.6c-2,2.9-5.2,4.7-7.9,7.1c-2.7,2.3-5,5.8-4,9.2
				c1.3,4.5,7.2,5.7,11.7,4.9c5.8-1.1,10.9-4.3,15.6-7.8c3.6-2.7,7-5.8,9.2-9.7c1.6-2.9,2.4-6.2,3.1-9.5c2.4-11.2,3.6-22.8,3.6-34.3
				c0-0.6,0-1.2-0.5-1.6c-0.4-0.3-0.9-0.3-1.3-0.3c-5.2,0-10.5,0-15.7-0.1c-3.4,0-12.9-1.7-15.6,0.1
				C665.8,700.1,670.4,717,672.7,721.4z"/>
			<path style="fill:#439C61;" d="M728.6,730.7c1.1,4.1,3.1,7.8,5.4,11.3c2.6,4,5.5,7.8,8.6,11.4c2.8,3.1,6.1,6.2,10.2,7
				c4.1,0.8,9.1-1.8,9.4-6c0.2-2.5-1.3-4.8-2.5-7.1c-7.7-14.1-6.1-31.4-3.3-47.2c0.6-3.7-22.8-5.1-26-1.1c-2.5,3-1.7,9.5-2,13.1
				C727.8,718.4,727,724.7,728.6,730.7z"/>
		</g>
		<path style="fill:#42372E;" d="M223.9,354.6c-8,0-8,12.4,0,12.4C231.9,367,231.9,354.6,223.9,354.6z"/>
		<path style="fill:#42372E;" d="M282,355.1c-8,0-8,12.4,0,12.4C290,367.5,290,355.1,282,355.1z"/>
		<path style="fill:#42372E;" d="M442.3,352.1c-8,0-8,12.4,0,12.4C450.3,364.4,450.3,352.1,442.3,352.1z"/>
		<path style="fill:#42372E;" d="M500.5,353.5c-8,0-8,12.4,0,12.4C508.4,365.9,508.4,353.5,500.5,353.5z"/>
		<path style="fill:#42372E;" d="M689.6,343.5c-8,0-8,12.4,0,12.4C697.6,355.9,697.6,343.5,689.6,343.5z"/>
		<path style="fill:#42372E;" d="M740.6,342.5c-8,0-8,12.4,0,12.4C748.5,354.9,748.6,342.5,740.6,342.5z"/>
		<path style="fill:#EB6257;" d="M714.4,365.9c-8,0-8,12.4,0,12.4C722.3,378.3,722.4,365.9,714.4,365.9z"/>
		<path style="fill:#EB6257;" d="M470.4,375.9c-8,0-8,12.4,0,12.4C478.4,388.3,478.4,375.9,470.4,375.9z"/>
		<path style="fill:#EB6257;" d="M251.3,376.3c-8,0-8,12.4,0,12.4C259.3,388.7,259.3,376.3,251.3,376.3z"/>
		<path style="fill:#F4E496;" d="M684.7,448.8c-1.1-0.5-2.4-0.9-3.4-0.3c-1,0.5-1.3,1.7-1.5,2.8c-4.1,18.5-5.5,37.5-4.3,56.4
			c0.1,1.5,0.2,3.1,1,4.4c0.9,1.6,2.6,2.5,4.3,3.3c10.5,5.4,21,10.9,31.4,16.3c1.7,0.9,3.5,1.8,5.4,1.4c1.3-0.2,2.4-1,3.5-1.8
			c10.3-7.5,20.6-15,30.9-22.6c1.5-1.1,3-2.2,4-3.8c1.1-1.8,1.3-4,1.4-6.2c1.2-18.2,1.1-36.5-0.4-54.7c-0.3-3.2-35.7,11.4-38.4,12.4
			C705.9,461.3,696.6,453.9,684.7,448.8z"/>
		<path style="fill:#3D805C;" d="M753.2,503.5c-2.2-4.7-4.1-15.5-11.5-14.1c-3.6,0.7-4.7,3.2-4.8,6.2c-4.8-4.4-10.6-8.1-15.1-5.3
			c-2,1.2-2.9,3.3-3.3,5.8c-0.7-1.3-1.7-2.5-3.2-3.3c-3.5-1.9-7.7-0.7-10.9,1.2c-1.5,1-2.8,2.2-4.2,3.4c-0.4,0.3-1,0.9-1.7,1.5
			c-1-4.6-3.1-9.7-8.3-6.4c-3.1,2-3.8,6.7-4.5,9.9c-1.2,5.2-3.5,10.3-7.1,14.3c-0.8,0.8-1,1.8-0.9,2.6c-0.2,0.9,0.1,1.9,0.9,2.8
			c5.1,5.5,11.4,13.6,19.8,9.1c8.4-4.6,13.9-11.8,18.7-19.9c1-1.6,1.7-3.7,2.2-5.9c0.3,1.1,0.5,2,0.8,2.8c1.2,4,3,7.4,5.2,10.9
			c2.8,4.5,6,7.2,10.2,10.5c0.8,0.7,1.8,0.9,2.7,0.7c0.6,0.2,1.2,0.3,1.9,0.1c6.5-1.5,13.5-4.7,18.2-9.5
			C764.1,515.1,755.7,508.8,753.2,503.5z"/>
		<path style="fill:#EB6257;" d="M774.6,508c-1.4-3.6-4.4-5.2-8-3.3c-4,2.1-6.7,6.7-10.4,9.3c-2.3,1.6-5.2,2.3-7.6,3.7
			c-3,1.7-5.6,3-8.8,4.2c-3.6,1.4-8.1,3.7-9,7.8c-0.8,3.8,2,7.9,5.7,8.9c3.1,0.8,4.9-2.6,3.9-4.8c0.2,0,0.4,0.1,0.6,0.1
			c5.3,0,10.3-2.1,15-4.2c5.2-2.3,11.2-5,15.3-9C774.6,517.4,776.4,512.6,774.6,508z M768.1,513.9c-0.9,1.8-2.6,3.2-4.5,4.3
			c-0.1-0.5-0.2-1-0.5-1.5c1.4-1.1,2.7-2.4,4.2-3.8c0.2-0.2,0.9-0.7,1.5-1.2C768.7,512.4,768.5,513.1,768.1,513.9z"/>
		<path style="fill:#EB6257;" d="M699.1,534.5c-2.3-6.9-9.4-11.6-15.5-15c-3.7-2-7.9-2.7-11.6-4.7c-3.3-1.8-5.2-3-9-2.5
			c-4.2,0.6-2.4,7.1,1.8,6.4c0.4-0.1,0.9,0,1.4,0.2c0.2,0.3,0.5,0.6,0.8,0.8c1.9,1.4,4.3,2.2,6.4,3.4c2.8,1.5,5.1,3.6,7.4,5.8
			c4,3.8,8.2,7,13.3,9.2C696.6,539.4,700.2,537.5,699.1,534.5z"/>
		<path style="fill:#FFFFFF;" d="M715.4,542c-9.2,0-9.2,14.3,0,14.3C724.5,556.3,724.6,542,715.4,542z"/>
		<path style="fill:#FFFFFF;" d="M715.4,437.9c-9.2,0-9.2,14.3,0,14.3C724.5,452.2,724.6,437.9,715.4,437.9z"/>
		<path style="fill:#F4E496;" d="M590.4,228c0.4-0.8,0.5-1.6,0.4-2.2c0.2-0.4,0.4-0.9,0.5-1.3c0.8-6,1-12.2,1.6-18.2
			c0.5-5,2.4-11.7,0.8-16.7c-1.4-4.4-8.9-5.2-12.7-6.1c-5.9-1.4-12.7-2.2-18.7-2.7c-5.5-0.4-7.4,3.8-7.8,8.6
			c-0.3,3.2,0.1,6.4-0.3,9.6c-0.4,3.1-0.9,6.1-1.2,9.2c-0.1,0.7-0.1,1.5-0.2,2.5c-2.8-2.1-6.1-3.4-9.8-2.7c-4.7,0.8-8.6,4.5-8.7,9.4
			c-0.1,8.3,10,14.7,17.5,11.7c4.7-1.9,6.9-6.8,7.6-11.5c0.9-6,1.6-12.2,2.2-18.2c0.3-2.5-0.8-7.7,0.3-9.7c0.7-1.4,0.1-1.2,2.1-0.8
			c1.6,0.3,3.3,0.5,5,0.7c5.2,0.6,11.8,0.8,16.9,3c0,0.2,0,0.4,0,0.6c0,1.4,0.1,2.9,0,4.3c-0.2,3.1-0.8,6.1-1.1,9.2
			c-0.3,3.6-0.5,7.3-0.8,10.9c-0.6-0.4-1.3-0.7-1.9-1c-2.8-1.3-5.4-2.2-8.4-1.4c-5,1.3-8.8,6.2-7,11.4c1.6,4.4,6.4,8.8,11.4,8.2
			c3.8-0.5,7.9-2.1,10.6-5c0.5-0.3,0.9-0.8,1.2-1.5C590.3,228.3,590.3,228.2,590.4,228z"/>
		<path style="fill:#F4E496;" d="M138.7,564.4c-3.3-10.8-5-22.1-7.5-33.1c-1-4.2-7.6-3.3-7.5,1c0,0.1,0,0.3,0,0.4
			c0,0.5,0.1,0.9,0.3,1.3c2.4,10.5,3.9,21.3,7.1,31.6c0.2,0.6,0.5,1.6,0.7,2.7c-3.8-0.9-7.4-2-11.2-0.4c-3.2,1.3-5.3,4.5-5,8
			c0.6,7.3,11.5,11.7,17.7,9.5C141.3,582.7,140.7,570.8,138.7,564.4z"/>
		<path style="fill:#F4E496;" d="M164.3,263.7c-1.8-3.1-5-5.8-7.9-7.8c-5.2-3.4-11.5-9.5-18.2-8.4c-1.5,0.2-3,2.2-2.8,3.7
			c1.4,10.4,1.7,20.8,1.8,31.2c-5.2-3.1-12.3-4.4-15.9,0.9c-5.3,7.9,2,15.2,9.5,17.2c3.9,1,8,1,11-2c3.6-3.6,3-8.9,3-13.5
			c0-9.6-0.2-19-1.2-28.4c0.5,0.3,0.9,0.6,1.2,0.8c2.3,1.4,4.3,3,6.6,4.5c1.9,1.3,3.8,2.6,5.3,4.4c2.2,2.6,1.8,5.5,1.8,8.6
			c-0.1,4.9,7.5,4.9,7.6,0C166.2,270.9,166.4,267.2,164.3,263.7z"/>
		<path style="fill:#F4E496;" d="M420.6,189.9c-2.9-2.2-6.8-3.5-10.3-4.1c-6.1-1.2-14.2-4.4-20-0.8c-1.3,0.8-1.9,3.2-1.2,4.5
			c5.2,9.1,9.5,18.5,13.6,28.2c-6-0.8-13.1,0.6-14.3,6.9c-1.9,9.3,7.7,13.3,15.3,12.2c4-0.5,7.8-2.1,9.4-6.1
			c1.9-4.7-0.6-9.4-2.4-13.6c-3.7-8.8-7.5-17.5-12-25.8c0.6,0.1,1.1,0.3,1.4,0.3c2.6,0.4,5.2,1.1,7.8,1.6c2.3,0.4,4.5,1,6.6,2
			c3,1.5,3.8,4.3,4.9,7.3c1.8,4.6,8.8,1.7,7-2.9C425.1,195.9,423.8,192.3,420.6,189.9z"/>
		<path style="fill:#F4E496;" d="M618.1,730.4c-0.5-3.5-2.4-7.2-4.5-10.1c-3.6-5.1-7.1-13.1-13.7-14.6c-1.4-0.3-3.6,0.9-4,2.4
			c-2.6,10.1-6.1,19.9-10,29.7c-3.7-4.8-9.8-8.7-15.1-5.1c-7.8,5.4-3.8,14.9,2.4,19.5c3.2,2.4,7,3.9,11,2.2c4.7-2,6.1-7.1,7.8-11.4
			c3.6-8.9,6.9-17.7,9.5-26.8c0.3,0.5,0.6,0.9,0.8,1.2c1.6,2.1,2.9,4.4,4.4,6.6c1.3,1.9,2.6,3.9,3.3,6.1c1.1,3.2-0.3,5.7-1.6,8.7
			c-1.9,4.5,5.2,7.4,7.1,2.8C617.2,737.8,618.7,734.4,618.1,730.4z"/>
		<path style="fill:#F4E496;" d="M166,813.9c0.4-0.8,0.5-1.6,0.4-2.2c0.2-0.4,0.4-0.9,0.5-1.3c0.8-6,1-12.2,1.6-18.2
			c0.5-5,2.4-11.7,0.8-16.7c-1.4-4.4-8.9-5.2-12.7-6.1c-5.9-1.4-12.7-2.2-18.7-2.7c-5.5-0.4-7.4,3.8-7.8,8.6
			c-0.3,3.2,0.1,6.4-0.3,9.6c-0.4,3.1-0.9,6.1-1.2,9.2c-0.1,0.7-0.1,1.5-0.2,2.5c-2.8-2.1-6.1-3.4-9.8-2.7c-4.7,0.8-8.6,4.5-8.7,9.4
			c-0.1,8.3,10,14.7,17.5,11.7c4.7-1.9,6.9-6.8,7.6-11.5c0.9-6,1.6-12.2,2.2-18.2c0.3-2.5-0.8-7.7,0.3-9.7c0.7-1.4,0.1-1.2,2.1-0.8
			c1.6,0.3,3.3,0.5,5,0.7c5.2,0.6,11.8,0.8,16.9,3c0,0.2,0,0.4,0,0.6c0,1.4,0.1,2.9,0,4.3c-0.2,3.1-0.8,6.1-1.1,9.2
			c-0.3,3.6-0.5,7.3-0.8,10.9c-0.6-0.4-1.3-0.7-1.9-1c-2.8-1.3-5.4-2.2-8.4-1.4c-5,1.3-8.8,6.2-7,11.4c1.6,4.4,6.4,8.8,11.4,8.2
			c3.8-0.5,7.9-2.1,10.6-5c0.5-0.3,0.9-0.8,1.2-1.5C165.9,814.2,166,814.1,166,813.9z"/>
		<path style="fill:#F4E496;" d="M859.9,634.9c-0.1-0.9-0.4-1.6-0.8-2.1c0-0.5-0.1-1-0.3-1.4c-2.4-5.6-5.4-10.9-8-16.4
			c-2.1-4.6-4-11.3-7.9-14.8c-3.4-3.1-10.3,0.1-14,1.3c-5.8,1.8-12,4.6-17.5,7.3c-4.9,2.4-4.4,7-2.3,11.3c1.4,2.9,3.4,5.5,4.7,8.4
			c1.3,2.8,2.4,5.7,3.7,8.5c0.3,0.6,0.7,1.4,1.1,2.2c-3.5-0.4-7,0.3-9.8,2.6c-3.6,3.1-5.1,8.3-2.6,12.5c4.1,7.1,16.1,7.6,21,1.1
			c3.1-4.1,2.5-9.4,0.7-13.8c-2.3-5.6-4.9-11.2-7.4-16.8c-1-2.3-4.6-6.2-4.7-8.5c-0.1-1.6-0.5-1,1.4-1.8c1.6-0.6,3.1-1.2,4.6-1.9
			c4.8-2.2,10.6-5.4,16.1-6.1c0.1,0.2,0.2,0.4,0.3,0.5c0.7,1.3,1.6,2.4,2.2,3.7c1.4,2.8,2.4,5.7,3.8,8.5c1.6,3.2,3.3,6.5,4.9,9.7
			c-0.7,0-1.4,0.1-2.2,0.1c-3,0.3-5.7,0.9-7.9,3.1c-3.6,3.7-4.4,9.8-0.2,13.3c3.6,3,10,4.3,14,1.3c3-2.3,5.7-5.9,6.5-9.7
			c0.2-0.6,0.4-1.2,0.3-1.9C859.9,635.2,859.9,635.1,859.9,634.9z"/>
		<path style="fill:#F4E496;" d="M281.4,202.1c1.2-11.3,4.1-22.2,6.2-33.3c0.8-4.2-5.7-6-7.3-2c0,0.1-0.1,0.2-0.1,0.4
			c-0.2,0.4-0.2,0.9-0.3,1.3c-2,10.6-4.9,21.1-5.9,31.8c-0.1,0.6-0.2,1.6-0.4,2.7c-3.1-2.3-6-4.7-10.1-4.8c-3.5-0.1-6.6,2-7.8,5.4
			c-2.3,6.9,5.9,15.3,12.5,15.7C276.6,219.9,280.7,208.8,281.4,202.1z"/>
		<path style="fill:#F4E496;" d="M363.5,796.3c-3.3-10.8-5-22.1-7.5-33.1c-1-4.2-7.6-3.3-7.5,1c0,0.1,0,0.3,0,0.4
			c0,0.5,0.1,0.9,0.3,1.3c2.4,10.5,3.9,21.3,7.1,31.6c0.2,0.6,0.5,1.6,0.7,2.7c-3.8-0.9-7.4-2-11.2-0.4c-3.2,1.3-5.3,4.5-5,8
			c0.6,7.3,11.5,11.7,17.7,9.5C366.1,814.5,365.5,802.7,363.5,796.3z"/>
		<path style="fill:#F4E496;" d="M866.7,512.7c1.8-11.2,5.2-22,7.7-33c1-4.2-5.4-6.3-7.2-2.4c-0.1,0.1-0.1,0.2-0.2,0.4
			c-0.2,0.4-0.3,0.9-0.3,1.3c-2.5,10.5-5.8,20.8-7.4,31.5c-0.1,0.6-0.3,1.6-0.5,2.7c-3-2.4-5.8-5-9.9-5.3c-3.5-0.2-6.7,1.7-8,5
			c-2.6,6.8,5.2,15.5,11.8,16.3C861,530.2,865.6,519.3,866.7,512.7z"/>
		<path style="fill:#F4E496;" d="M717.7,187.9c-3.3-10.8-5-22.1-7.5-33.1c-1-4.2-7.6-3.3-7.5,1c0,0.1,0,0.3,0,0.4
			c0,0.5,0.1,0.9,0.3,1.3c2.4,10.5,3.9,21.3,7.1,31.6c0.2,0.6,0.5,1.6,0.7,2.7c-3.8-0.9-7.4-2-11.2-0.4c-3.2,1.3-5.3,4.5-5,8
			c0.6,7.3,11.5,11.7,17.7,9.5C720.3,206.1,719.7,194.3,717.7,187.9z"/>
		<path style="fill:#F4E496;" d="M145.6,447.7c0.4-0.8,0.5-1.6,0.4-2.2c0.2-0.4,0.4-0.9,0.5-1.3c0.8-6,1-12.2,1.6-18.2
			c0.5-5,2.4-11.7,0.8-16.7c-1.4-4.4-8.9-5.2-12.7-6.1c-5.9-1.4-12.7-2.2-18.7-2.7c-5.5-0.4-7.4,3.8-7.8,8.6
			c-0.3,3.2,0.1,6.4-0.3,9.6c-0.4,3.1-0.9,6.1-1.2,9.2c-0.1,0.7-0.1,1.5-0.2,2.5c-2.8-2.1-6.1-3.4-9.8-2.7c-4.7,0.8-8.6,4.5-8.7,9.4
			c-0.1,8.3,10,14.7,17.5,11.7c4.7-1.9,6.9-6.8,7.6-11.5c0.9-6,1.6-12.2,2.2-18.2c0.3-2.5-0.8-7.7,0.3-9.7c0.7-1.4,0.1-1.2,2.1-0.8
			c1.6,0.3,3.3,0.5,5,0.7c5.2,0.6,11.8,0.8,16.9,3c0,0.2,0,0.4,0,0.6c0,1.4,0.1,2.9,0,4.3c-0.2,3.1-0.8,6.1-1.1,9.2
			c-0.3,3.6-0.5,7.3-0.8,10.9c-0.6-0.4-1.3-0.7-1.9-1c-2.8-1.3-5.4-2.2-8.4-1.4c-5,1.3-8.8,6.2-7,11.4c1.6,4.4,6.4,8.8,11.4,8.2
			c3.8-0.5,7.9-2.1,10.6-5c0.5-0.3,0.9-0.8,1.2-1.5C145.5,448,145.5,447.8,145.6,447.7z"/>
		<path style="fill:#F4E496;" d="M480.5,841c0.4-0.8,0.5-1.6,0.4-2.2c0.2-0.4,0.4-0.9,0.5-1.3c0.8-6,1-12.2,1.6-18.2
			c0.5-5,2.4-11.7,0.8-16.7c-1.4-4.4-8.9-5.2-12.7-6.1c-5.9-1.4-12.7-2.2-18.7-2.7c-5.5-0.4-7.4,3.8-7.8,8.6
			c-0.3,3.2,0.1,6.4-0.3,9.6c-0.4,3.1-0.9,6.1-1.2,9.2c-0.1,0.7-0.1,1.5-0.2,2.5c-2.8-2.1-6.1-3.4-9.8-2.7c-4.7,0.8-8.6,4.5-8.7,9.4
			c-0.1,8.3,10,14.7,17.5,11.7c4.7-1.9,6.9-6.8,7.6-11.5c0.9-6,1.6-12.2,2.2-18.2c0.3-2.5-0.8-7.7,0.3-9.7c0.7-1.4,0.1-1.2,2.1-0.8
			c1.6,0.3,3.3,0.5,5,0.7c5.2,0.6,11.8,0.8,16.9,3c0,0.2,0,0.4,0,0.6c0,1.4,0.1,2.9,0,4.3c-0.2,3.1-0.8,6.1-1.1,9.2
			c-0.3,3.6-0.5,7.3-0.8,10.9c-0.6-0.4-1.3-0.7-1.9-1c-2.8-1.3-5.4-2.2-8.4-1.4c-5,1.3-8.8,6.2-7,11.4c1.6,4.4,6.4,8.8,11.4,8.2
			c3.8-0.5,7.9-2.1,10.6-5c0.5-0.3,0.9-0.8,1.2-1.5C480.4,841.3,480.4,841.1,480.5,841z"/>
		<path style="fill:#F4E496;" d="M897.7,290.8c0.4-0.8,0.5-1.6,0.4-2.2c0.2-0.4,0.4-0.9,0.5-1.3c0.8-6,1-12.2,1.6-18.2
			c0.5-5,2.4-11.7,0.8-16.7c-1.4-4.4-8.9-5.2-12.7-6.1c-5.9-1.4-12.7-2.2-18.7-2.7c-5.5-0.4-7.4,3.8-7.8,8.6
			c-0.3,3.2,0.1,6.4-0.3,9.6c-0.4,3.1-0.9,6.1-1.2,9.2c-0.1,0.7-0.1,1.5-0.2,2.5c-2.8-2.1-6.1-3.4-9.8-2.7c-4.7,0.8-8.6,4.5-8.7,9.4
			c-0.1,8.3,10,14.7,17.5,11.7c4.7-1.9,6.9-6.8,7.6-11.5c0.9-6,1.6-12.2,2.2-18.2c0.3-2.5-0.8-7.7,0.3-9.7c0.7-1.4,0.1-1.2,2.1-0.8
			c1.6,0.3,3.3,0.5,5,0.7c5.2,0.6,11.8,0.8,16.9,3c0,0.2,0,0.4,0,0.6c0,1.4,0.1,2.9,0,4.3c-0.2,3.1-0.8,6.1-1.1,9.2
			c-0.3,3.6-0.5,7.3-0.8,10.9c-0.6-0.4-1.3-0.7-1.9-1c-2.8-1.3-5.4-2.2-8.4-1.4c-5,1.3-8.8,6.2-7,11.4c1.6,4.4,6.4,8.8,11.4,8.2
			c3.8-0.5,7.9-2.1,10.6-5c0.5-0.3,0.9-0.8,1.2-1.5C897.6,291.1,897.7,290.9,897.7,290.8z"/>
		<path style="fill:#F4E496;" d="M818.3,189.9c-2.9-2.2-6.8-3.5-10.3-4.1c-6.1-1.2-14.2-4.4-20-0.8c-1.3,0.8-1.9,3.2-1.2,4.5
			c5.2,9.1,9.5,18.5,13.6,28.2c-6-0.8-13.1,0.6-14.3,6.9c-1.9,9.3,7.7,13.3,15.3,12.2c4-0.5,7.8-2.1,9.4-6.1
			c1.9-4.7-0.6-9.4-2.4-13.6c-3.7-8.8-7.5-17.5-12-25.8c0.6,0.1,1.1,0.3,1.4,0.3c2.6,0.4,5.2,1.1,7.8,1.6c2.3,0.4,4.5,1,6.6,2
			c3,1.5,3.8,4.3,4.9,7.3c1.8,4.6,8.8,1.7,7-2.9C822.8,195.9,821.5,192.3,818.3,189.9z"/>
		<path style="fill:#F4E496;" d="M904.1,373.5c-2.9-2.2-6.8-3.5-10.3-4.1c-6.1-1.2-14.2-4.4-20-0.8c-1.3,0.8-1.9,3.2-1.2,4.5
			c5.2,9.1,9.5,18.5,13.6,28.2c-6-0.8-13.1,0.6-14.3,6.9c-1.9,9.3,7.7,13.3,15.3,12.2c4-0.5,7.8-2.1,9.4-6.1
			c1.9-4.7-0.6-9.4-2.4-13.6c-3.7-8.8-7.5-17.5-12-25.8c0.6,0.1,1.1,0.3,1.4,0.3c2.6,0.4,5.2,1.1,7.8,1.6c2.3,0.4,4.5,1,6.6,2
			c3,1.5,3.8,4.3,4.9,7.3c1.8,4.6,8.8,1.7,7-2.9C908.7,379.5,907.4,375.9,904.1,373.5z"/>
		<path style="fill:#F4E496;" d="M837.6,761.6c-2.9-2.2-6.8-3.5-10.3-4.1c-6.1-1.2-14.2-4.4-20-0.8c-1.3,0.8-1.9,3.2-1.2,4.5
			c5.2,9.1,9.5,18.5,13.6,28.2c-6-0.8-13.1,0.6-14.3,6.9c-1.9,9.3,7.7,13.3,15.3,12.2c4-0.5,7.8-2.1,9.4-6.1
			c1.9-4.7-0.6-9.4-2.4-13.6c-3.7-8.8-7.5-17.5-12-25.8c0.6,0.1,1.1,0.3,1.4,0.3c2.6,0.4,5.2,1.1,7.8,1.6c2.3,0.4,4.5,1,6.6,2
			c3,1.5,3.8,4.3,4.9,7.3c1.8,4.6,8.8,1.7,7-2.9C842.1,767.6,840.8,764.1,837.6,761.6z"/>
		<path style="fill:#F4E496;" d="M140.9,660.2c-2.9-2.2-6.8-3.5-10.3-4.1c-6.1-1.2-14.2-4.4-20-0.8c-1.3,0.8-1.9,3.2-1.2,4.5
			c5.2,9.1,9.5,18.5,13.6,28.2c-6-0.8-13.1,0.6-14.3,6.9c-1.9,9.3,7.7,13.3,15.3,12.2c4-0.5,7.8-2.1,9.4-6.1
			c1.9-4.7-0.6-9.4-2.4-13.6c-3.7-8.8-7.5-17.5-12-25.8c0.6,0.1,1.1,0.3,1.4,0.3c2.6,0.4,5.2,1.1,7.8,1.6c2.3,0.4,4.5,1,6.6,2
			c3,1.5,3.8,4.3,4.9,7.3c1.8,4.6,8.8,1.7,7-2.9C145.4,666.2,144.1,662.6,140.9,660.2z"/>
		<path style="fill:#F4E496;" d="M698,819.2c0.9-11.3,3.4-22.4,5.1-33.5c0.6-4.2-5.9-5.9-7.3-1.8c0,0.1-0.1,0.3-0.1,0.4
			c-0.2,0.5-0.2,0.9-0.2,1.3c-1.6,10.6-4.2,21.2-4.9,32c0,0.6-0.1,1.6-0.3,2.7c-3.2-2.2-6.1-4.5-10.3-4.5c-3.5,0-6.6,2.2-7.6,5.7
			c-2.1,7,6.4,15.1,13,15.3C693.8,837.1,697.5,825.9,698,819.2z"/>
	</g>
</g>
</svg>
