<?xml version="1.0" encoding="utf-8"?>
<!-- Generator: Adobe Illustrator 16.0.0, SVG Export Plug-In . SVG Version: 6.00 Build 0)  -->
<!DOCTYPE svg PUBLIC "-//W3C//DTD SVG 1.0//EN" "http://www.w3.org/TR/2001/REC-SVG-20010904/DTD/svg10.dtd" [
	<!ENTITY ns_flows "http://ns.adobe.com/Flows/1.0/">
	<!ENTITY ns_extend "http://ns.adobe.com/Extensibility/1.0/">
	<!ENTITY ns_ai "http://ns.adobe.com/AdobeIllustrator/10.0/">
	<!ENTITY ns_graphs "http://ns.adobe.com/Graphs/1.0/">
	<!ENTITY ns_vars "http://ns.adobe.com/Variables/1.0/">
	<!ENTITY ns_imrep "http://ns.adobe.com/ImageReplacement/1.0/">
	<!ENTITY ns_sfw "http://ns.adobe.com/SaveForWeb/1.0/">
	<!ENTITY ns_custom "http://ns.adobe.com/GenericCustomNamespace/1.0/">
	<!ENTITY ns_adobe_xpath "http://ns.adobe.com/XPath/1.0/">
]>
<svg version="1.0" id="Layer_1" xmlns:x="&ns_extend;" xmlns:i="&ns_ai;" xmlns:graph="&ns_graphs;"
	 xmlns="http://www.w3.org/2000/svg" xmlns:xlink="http://www.w3.org/1999/xlink" xmlns:a="http://ns.adobe.com/AdobeSVGViewerExtensions/3.0/"
	 x="0px" y="0px" width="1400px" height="980px" viewBox="0 0 1400 980" enable-background="new 0 0 1400 980" xml:space="preserve"
	>
<metadata>
	<sfw  xmlns="&ns_sfw;">
		<slices></slices>
		<sliceSourceBounds  width="1400" height="1246.7" bottomLeftOrigin="true" y="-1246.7" x="0"></sliceSourceBounds>
	</sfw>
</metadata>
<rect fill="#F8E4E6" width="1400" height="980"/>
<g>
	<g>
		<rect x="284" y="134.3" fill="none" stroke="#FFFFFF" stroke-width="2" stroke-miterlimit="10" width="67.2" height="28.2"/>
		<rect x="351.2" y="134.3" fill="none" stroke="#FFFFFF" stroke-width="2" stroke-miterlimit="10" width="67.2" height="28.2"/>
		<rect x="418.4" y="134.3" fill="none" stroke="#FFFFFF" stroke-width="2" stroke-miterlimit="10" width="67.2" height="28.2"/>
		<rect x="485.6" y="134.3" fill="none" stroke="#FFFFFF" stroke-width="2" stroke-miterlimit="10" width="67.2" height="28.2"/>
		<rect x="552.9" y="134.3" fill="none" stroke="#FFFFFF" stroke-width="2" stroke-miterlimit="10" width="67.2" height="28.2"/>
		<rect x="620.1" y="134.3" fill="none" stroke="#FFFFFF" stroke-width="2" stroke-miterlimit="10" width="67.2" height="28.2"/>
		<rect x="687.3" y="134.3" fill="none" stroke="#FFFFFF" stroke-width="2" stroke-miterlimit="10" width="67.2" height="28.2"/>
		<rect x="754.5" y="134.3" fill="none" stroke="#FFFFFF" stroke-width="2" stroke-miterlimit="10" width="67.2" height="28.2"/>
		<rect x="821.7" y="134.3" fill="none" stroke="#FFFFFF" stroke-width="2" stroke-miterlimit="10" width="67.2" height="28.2"/>
		<rect x="888.9" y="134.3" fill="none" stroke="#FFFFFF" stroke-width="2" stroke-miterlimit="10" width="67.2" height="28.2"/>
		<rect x="956.1" y="134.3" fill="none" stroke="#FFFFFF" stroke-width="2" stroke-miterlimit="10" width="67.2" height="28.2"/>
		<rect x="1023.3" y="134.3" fill="none" stroke="#FFFFFF" stroke-width="2" stroke-miterlimit="10" width="67.2" height="28.2"/>
	</g>
	<g>
		<rect x="317.6" y="162.1" fill="none" stroke="#FFFFFF" stroke-width="2" stroke-miterlimit="10" width="67.2" height="28.2"/>
		<rect x="384.8" y="162.1" fill="none" stroke="#FFFFFF" stroke-width="2" stroke-miterlimit="10" width="67.2" height="28.2"/>
		<rect x="452" y="162.1" fill="none" stroke="#FFFFFF" stroke-width="2" stroke-miterlimit="10" width="67.2" height="28.2"/>
		<rect x="519.2" y="162.1" fill="none" stroke="#FFFFFF" stroke-width="2" stroke-miterlimit="10" width="67.2" height="28.2"/>
		<rect x="586.5" y="162.1" fill="none" stroke="#FFFFFF" stroke-width="2" stroke-miterlimit="10" width="67.2" height="28.2"/>
		<rect x="653.7" y="162.1" fill="none" stroke="#FFFFFF" stroke-width="2" stroke-miterlimit="10" width="67.2" height="28.2"/>
		<rect x="720.9" y="162.1" fill="none" stroke="#FFFFFF" stroke-width="2" stroke-miterlimit="10" width="67.2" height="28.2"/>
		<rect x="788.1" y="162.1" fill="none" stroke="#FFFFFF" stroke-width="2" stroke-miterlimit="10" width="67.2" height="28.2"/>
		<rect x="855.3" y="162.1" fill="none" stroke="#FFFFFF" stroke-width="2" stroke-miterlimit="10" width="67.2" height="28.2"/>
		<rect x="922.5" y="162.1" fill="none" stroke="#FFFFFF" stroke-width="2" stroke-miterlimit="10" width="67.2" height="28.2"/>
		<rect x="989.7" y="162.1" fill="none" stroke="#FFFFFF" stroke-width="2" stroke-miterlimit="10" width="67.2" height="28.2"/>
		<rect x="1056.9" y="162.1" fill="none" stroke="#FFFFFF" stroke-width="2" stroke-miterlimit="10" width="67.2" height="28.2"/>
	</g>
	<g>
		<rect x="284" y="191" fill="none" stroke="#FFFFFF" stroke-width="2" stroke-miterlimit="10" width="67.2" height="28.2"/>
		<rect x="351.2" y="191" fill="none" stroke="#FFFFFF" stroke-width="2" stroke-miterlimit="10" width="67.2" height="28.2"/>
		<rect x="418.4" y="191" fill="none" stroke="#FFFFFF" stroke-width="2" stroke-miterlimit="10" width="67.2" height="28.2"/>
		<rect x="485.6" y="191" fill="none" stroke="#FFFFFF" stroke-width="2" stroke-miterlimit="10" width="67.2" height="28.2"/>
		<rect x="552.9" y="191" fill="none" stroke="#FFFFFF" stroke-width="2" stroke-miterlimit="10" width="67.2" height="28.2"/>
		<rect x="620.1" y="191" fill="none" stroke="#FFFFFF" stroke-width="2" stroke-miterlimit="10" width="67.2" height="28.2"/>
		<rect x="687.3" y="191" fill="none" stroke="#FFFFFF" stroke-width="2" stroke-miterlimit="10" width="67.2" height="28.2"/>
		<rect x="754.5" y="191" fill="none" stroke="#FFFFFF" stroke-width="2" stroke-miterlimit="10" width="67.2" height="28.2"/>
		<rect x="821.7" y="191" fill="none" stroke="#FFFFFF" stroke-width="2" stroke-miterlimit="10" width="67.2" height="28.2"/>
		<rect x="888.9" y="191" fill="none" stroke="#FFFFFF" stroke-width="2" stroke-miterlimit="10" width="67.2" height="28.2"/>
		<rect x="956.1" y="191" fill="none" stroke="#FFFFFF" stroke-width="2" stroke-miterlimit="10" width="67.2" height="28.2"/>
		<rect x="1023.3" y="191" fill="none" stroke="#FFFFFF" stroke-width="2" stroke-miterlimit="10" width="67.2" height="28.2"/>
	</g>
	<g>
		<rect x="317.6" y="218.8" fill="none" stroke="#FFFFFF" stroke-width="2" stroke-miterlimit="10" width="67.2" height="28.2"/>
		<rect x="384.8" y="218.8" fill="none" stroke="#FFFFFF" stroke-width="2" stroke-miterlimit="10" width="67.2" height="28.2"/>
		<rect x="452" y="218.8" fill="none" stroke="#FFFFFF" stroke-width="2" stroke-miterlimit="10" width="67.2" height="28.2"/>
		<rect x="519.2" y="218.8" fill="none" stroke="#FFFFFF" stroke-width="2" stroke-miterlimit="10" width="67.2" height="28.2"/>
		<rect x="586.5" y="218.8" fill="none" stroke="#FFFFFF" stroke-width="2" stroke-miterlimit="10" width="67.2" height="28.2"/>
		<rect x="653.7" y="218.8" fill="none" stroke="#FFFFFF" stroke-width="2" stroke-miterlimit="10" width="67.2" height="28.2"/>
		<rect x="720.9" y="218.8" fill="none" stroke="#FFFFFF" stroke-width="2" stroke-miterlimit="10" width="67.2" height="28.2"/>
		<rect x="788.1" y="218.8" fill="none" stroke="#FFFFFF" stroke-width="2" stroke-miterlimit="10" width="67.2" height="28.2"/>
		<rect x="855.3" y="218.8" fill="none" stroke="#FFFFFF" stroke-width="2" stroke-miterlimit="10" width="67.2" height="28.2"/>
		<rect x="922.5" y="218.8" fill="none" stroke="#FFFFFF" stroke-width="2" stroke-miterlimit="10" width="67.2" height="28.2"/>
		<rect x="989.7" y="218.8" fill="none" stroke="#FFFFFF" stroke-width="2" stroke-miterlimit="10" width="67.2" height="28.2"/>
		<rect x="1056.9" y="218.8" fill="none" stroke="#FFFFFF" stroke-width="2" stroke-miterlimit="10" width="67.2" height="28.2"/>
	</g>
	<g>
		<rect x="284" y="247.6" fill="none" stroke="#FFFFFF" stroke-width="2" stroke-miterlimit="10" width="67.2" height="28.2"/>
		<rect x="351.2" y="247.6" fill="none" stroke="#FFFFFF" stroke-width="2" stroke-miterlimit="10" width="67.2" height="28.2"/>
		<rect x="418.4" y="247.6" fill="none" stroke="#FFFFFF" stroke-width="2" stroke-miterlimit="10" width="67.2" height="28.2"/>
		<rect x="485.6" y="247.6" fill="none" stroke="#FFFFFF" stroke-width="2" stroke-miterlimit="10" width="67.2" height="28.2"/>
		<rect x="552.9" y="247.6" fill="none" stroke="#FFFFFF" stroke-width="2" stroke-miterlimit="10" width="67.2" height="28.2"/>
		<rect x="620.1" y="247.6" fill="none" stroke="#FFFFFF" stroke-width="2" stroke-miterlimit="10" width="67.2" height="28.2"/>
		<rect x="687.3" y="247.6" fill="none" stroke="#FFFFFF" stroke-width="2" stroke-miterlimit="10" width="67.2" height="28.2"/>
		<rect x="754.5" y="247.6" fill="none" stroke="#FFFFFF" stroke-width="2" stroke-miterlimit="10" width="67.2" height="28.2"/>
		<rect x="821.7" y="247.6" fill="none" stroke="#FFFFFF" stroke-width="2" stroke-miterlimit="10" width="67.2" height="28.2"/>
		<rect x="888.9" y="247.6" fill="none" stroke="#FFFFFF" stroke-width="2" stroke-miterlimit="10" width="67.2" height="28.2"/>
		<rect x="956.1" y="247.6" fill="none" stroke="#FFFFFF" stroke-width="2" stroke-miterlimit="10" width="67.2" height="28.2"/>
		<rect x="1023.3" y="247.6" fill="none" stroke="#FFFFFF" stroke-width="2" stroke-miterlimit="10" width="67.2" height="28.2"/>
	</g>
	<g>
		<rect x="317.6" y="275.4" fill="none" stroke="#FFFFFF" stroke-width="2" stroke-miterlimit="10" width="67.2" height="28.2"/>
		<rect x="384.8" y="275.4" fill="none" stroke="#FFFFFF" stroke-width="2" stroke-miterlimit="10" width="67.2" height="28.2"/>
		<rect x="452" y="275.4" fill="none" stroke="#FFFFFF" stroke-width="2" stroke-miterlimit="10" width="67.2" height="28.2"/>
		<rect x="519.2" y="275.4" fill="none" stroke="#FFFFFF" stroke-width="2" stroke-miterlimit="10" width="67.2" height="28.2"/>
		<rect x="586.5" y="275.4" fill="none" stroke="#FFFFFF" stroke-width="2" stroke-miterlimit="10" width="67.2" height="28.2"/>
		<rect x="653.7" y="275.4" fill="none" stroke="#FFFFFF" stroke-width="2" stroke-miterlimit="10" width="67.2" height="28.2"/>
		<rect x="720.9" y="275.4" fill="none" stroke="#FFFFFF" stroke-width="2" stroke-miterlimit="10" width="67.2" height="28.2"/>
		<rect x="788.1" y="275.4" fill="none" stroke="#FFFFFF" stroke-width="2" stroke-miterlimit="10" width="67.2" height="28.2"/>
		<rect x="855.3" y="275.4" fill="none" stroke="#FFFFFF" stroke-width="2" stroke-miterlimit="10" width="67.2" height="28.2"/>
		<rect x="922.5" y="275.4" fill="none" stroke="#FFFFFF" stroke-width="2" stroke-miterlimit="10" width="67.2" height="28.2"/>
		<rect x="989.7" y="275.4" fill="none" stroke="#FFFFFF" stroke-width="2" stroke-miterlimit="10" width="67.2" height="28.2"/>
		<rect x="1056.9" y="275.4" fill="none" stroke="#FFFFFF" stroke-width="2" stroke-miterlimit="10" width="67.2" height="28.2"/>
	</g>
	<g>
		<rect x="284" y="304.3" fill="none" stroke="#FFFFFF" stroke-width="2" stroke-miterlimit="10" width="67.2" height="28.2"/>
		<rect x="351.2" y="304.3" fill="none" stroke="#FFFFFF" stroke-width="2" stroke-miterlimit="10" width="67.2" height="28.2"/>
		<rect x="418.4" y="304.3" fill="none" stroke="#FFFFFF" stroke-width="2" stroke-miterlimit="10" width="67.2" height="28.2"/>
		<rect x="485.6" y="304.3" fill="none" stroke="#FFFFFF" stroke-width="2" stroke-miterlimit="10" width="67.2" height="28.2"/>
		<rect x="552.9" y="304.3" fill="none" stroke="#FFFFFF" stroke-width="2" stroke-miterlimit="10" width="67.2" height="28.2"/>
		<rect x="620.1" y="304.3" fill="none" stroke="#FFFFFF" stroke-width="2" stroke-miterlimit="10" width="67.2" height="28.2"/>
		<rect x="687.3" y="304.3" fill="none" stroke="#FFFFFF" stroke-width="2" stroke-miterlimit="10" width="67.2" height="28.2"/>
		<rect x="754.5" y="304.3" fill="none" stroke="#FFFFFF" stroke-width="2" stroke-miterlimit="10" width="67.2" height="28.2"/>
		<rect x="821.7" y="304.3" fill="none" stroke="#FFFFFF" stroke-width="2" stroke-miterlimit="10" width="67.2" height="28.2"/>
		<rect x="888.9" y="304.3" fill="none" stroke="#FFFFFF" stroke-width="2" stroke-miterlimit="10" width="67.2" height="28.2"/>
		<rect x="956.1" y="304.3" fill="none" stroke="#FFFFFF" stroke-width="2" stroke-miterlimit="10" width="67.2" height="28.2"/>
		<rect x="1023.3" y="304.3" fill="none" stroke="#FFFFFF" stroke-width="2" stroke-miterlimit="10" width="67.2" height="28.2"/>
	</g>
	<g>
		<rect x="317.6" y="332.1" fill="none" stroke="#FFFFFF" stroke-width="2" stroke-miterlimit="10" width="67.2" height="28.2"/>
		<rect x="384.8" y="332.1" fill="none" stroke="#FFFFFF" stroke-width="2" stroke-miterlimit="10" width="67.2" height="28.2"/>
		<rect x="452" y="332.1" fill="none" stroke="#FFFFFF" stroke-width="2" stroke-miterlimit="10" width="67.2" height="28.2"/>
		<rect x="519.2" y="332.1" fill="none" stroke="#FFFFFF" stroke-width="2" stroke-miterlimit="10" width="67.2" height="28.2"/>
		<rect x="586.5" y="332.1" fill="none" stroke="#FFFFFF" stroke-width="2" stroke-miterlimit="10" width="67.2" height="28.2"/>
		<rect x="653.7" y="332.1" fill="none" stroke="#FFFFFF" stroke-width="2" stroke-miterlimit="10" width="67.2" height="28.2"/>
		<rect x="720.9" y="332.1" fill="none" stroke="#FFFFFF" stroke-width="2" stroke-miterlimit="10" width="67.2" height="28.2"/>
		<rect x="788.1" y="332.1" fill="none" stroke="#FFFFFF" stroke-width="2" stroke-miterlimit="10" width="67.2" height="28.2"/>
		<rect x="855.3" y="332.1" fill="none" stroke="#FFFFFF" stroke-width="2" stroke-miterlimit="10" width="67.2" height="28.2"/>
		<rect x="922.5" y="332.1" fill="none" stroke="#FFFFFF" stroke-width="2" stroke-miterlimit="10" width="67.2" height="28.2"/>
		<rect x="989.7" y="332.1" fill="none" stroke="#FFFFFF" stroke-width="2" stroke-miterlimit="10" width="67.2" height="28.2"/>
		<rect x="1056.9" y="332.1" fill="none" stroke="#FFFFFF" stroke-width="2" stroke-miterlimit="10" width="67.2" height="28.2"/>
	</g>
	<g>
		<rect x="284" y="360.9" fill="none" stroke="#FFFFFF" stroke-width="2" stroke-miterlimit="10" width="67.2" height="28.2"/>
		<rect x="351.2" y="360.9" fill="none" stroke="#FFFFFF" stroke-width="2" stroke-miterlimit="10" width="67.2" height="28.2"/>
		<rect x="418.4" y="360.9" fill="none" stroke="#FFFFFF" stroke-width="2" stroke-miterlimit="10" width="67.2" height="28.2"/>
		<rect x="485.6" y="360.9" fill="none" stroke="#FFFFFF" stroke-width="2" stroke-miterlimit="10" width="67.2" height="28.2"/>
		<rect x="552.9" y="360.9" fill="none" stroke="#FFFFFF" stroke-width="2" stroke-miterlimit="10" width="67.2" height="28.2"/>
		<rect x="620.1" y="360.9" fill="none" stroke="#FFFFFF" stroke-width="2" stroke-miterlimit="10" width="67.2" height="28.2"/>
		<rect x="687.3" y="360.9" fill="none" stroke="#FFFFFF" stroke-width="2" stroke-miterlimit="10" width="67.2" height="28.2"/>
		<rect x="754.5" y="360.9" fill="none" stroke="#FFFFFF" stroke-width="2" stroke-miterlimit="10" width="67.2" height="28.2"/>
		<rect x="821.7" y="360.9" fill="none" stroke="#FFFFFF" stroke-width="2" stroke-miterlimit="10" width="67.2" height="28.2"/>
		<rect x="888.9" y="360.9" fill="none" stroke="#FFFFFF" stroke-width="2" stroke-miterlimit="10" width="67.2" height="28.2"/>
		<rect x="956.1" y="360.9" fill="none" stroke="#FFFFFF" stroke-width="2" stroke-miterlimit="10" width="67.2" height="28.2"/>
		<rect x="1023.3" y="360.9" fill="none" stroke="#FFFFFF" stroke-width="2" stroke-miterlimit="10" width="67.2" height="28.2"/>
	</g>
	<g>
		<rect x="317.6" y="388.7" fill="none" stroke="#FFFFFF" stroke-width="2" stroke-miterlimit="10" width="67.2" height="28.2"/>
		<rect x="384.8" y="388.7" fill="none" stroke="#FFFFFF" stroke-width="2" stroke-miterlimit="10" width="67.2" height="28.2"/>
		<rect x="452" y="388.7" fill="none" stroke="#FFFFFF" stroke-width="2" stroke-miterlimit="10" width="67.2" height="28.2"/>
		<rect x="519.2" y="388.7" fill="none" stroke="#FFFFFF" stroke-width="2" stroke-miterlimit="10" width="67.2" height="28.2"/>
		<rect x="586.5" y="388.7" fill="none" stroke="#FFFFFF" stroke-width="2" stroke-miterlimit="10" width="67.2" height="28.2"/>
		<rect x="653.7" y="388.7" fill="none" stroke="#FFFFFF" stroke-width="2" stroke-miterlimit="10" width="67.2" height="28.2"/>
		<rect x="720.9" y="388.7" fill="none" stroke="#FFFFFF" stroke-width="2" stroke-miterlimit="10" width="67.2" height="28.2"/>
		<rect x="788.1" y="388.7" fill="none" stroke="#FFFFFF" stroke-width="2" stroke-miterlimit="10" width="67.2" height="28.2"/>
		<rect x="855.3" y="388.7" fill="none" stroke="#FFFFFF" stroke-width="2" stroke-miterlimit="10" width="67.2" height="28.2"/>
		<rect x="922.5" y="388.7" fill="none" stroke="#FFFFFF" stroke-width="2" stroke-miterlimit="10" width="67.2" height="28.2"/>
		<rect x="989.7" y="388.7" fill="none" stroke="#FFFFFF" stroke-width="2" stroke-miterlimit="10" width="67.2" height="28.2"/>
		<rect x="1056.9" y="388.7" fill="none" stroke="#FFFFFF" stroke-width="2" stroke-miterlimit="10" width="67.2" height="28.2"/>
	</g>
	<g>
		<rect x="284" y="417.6" fill="none" stroke="#FFFFFF" stroke-width="2" stroke-miterlimit="10" width="67.2" height="28.2"/>
		<rect x="351.2" y="417.6" fill="none" stroke="#FFFFFF" stroke-width="2" stroke-miterlimit="10" width="67.2" height="28.2"/>
		<rect x="418.4" y="417.6" fill="none" stroke="#FFFFFF" stroke-width="2" stroke-miterlimit="10" width="67.2" height="28.2"/>
		<rect x="485.6" y="417.6" fill="none" stroke="#FFFFFF" stroke-width="2" stroke-miterlimit="10" width="67.2" height="28.2"/>
		<rect x="552.9" y="417.6" fill="none" stroke="#FFFFFF" stroke-width="2" stroke-miterlimit="10" width="67.2" height="28.2"/>
		<rect x="620.1" y="417.6" fill="none" stroke="#FFFFFF" stroke-width="2" stroke-miterlimit="10" width="67.2" height="28.2"/>
		<rect x="687.3" y="417.6" fill="none" stroke="#FFFFFF" stroke-width="2" stroke-miterlimit="10" width="67.2" height="28.2"/>
		<rect x="754.5" y="417.6" fill="none" stroke="#FFFFFF" stroke-width="2" stroke-miterlimit="10" width="67.2" height="28.2"/>
		<rect x="821.7" y="417.6" fill="none" stroke="#FFFFFF" stroke-width="2" stroke-miterlimit="10" width="67.2" height="28.2"/>
		<rect x="888.9" y="417.6" fill="none" stroke="#FFFFFF" stroke-width="2" stroke-miterlimit="10" width="67.2" height="28.2"/>
		<rect x="956.1" y="417.6" fill="none" stroke="#FFFFFF" stroke-width="2" stroke-miterlimit="10" width="67.2" height="28.2"/>
		<rect x="1023.3" y="417.6" fill="none" stroke="#FFFFFF" stroke-width="2" stroke-miterlimit="10" width="67.2" height="28.2"/>
	</g>
	<g>
		<rect x="317.6" y="445.4" fill="none" stroke="#FFFFFF" stroke-width="2" stroke-miterlimit="10" width="67.2" height="28.2"/>
		<rect x="384.8" y="445.4" fill="none" stroke="#FFFFFF" stroke-width="2" stroke-miterlimit="10" width="67.2" height="28.2"/>
		<rect x="452" y="445.4" fill="none" stroke="#FFFFFF" stroke-width="2" stroke-miterlimit="10" width="67.2" height="28.2"/>
		<rect x="519.2" y="445.4" fill="none" stroke="#FFFFFF" stroke-width="2" stroke-miterlimit="10" width="67.2" height="28.2"/>
		<rect x="586.5" y="445.4" fill="none" stroke="#FFFFFF" stroke-width="2" stroke-miterlimit="10" width="67.2" height="28.2"/>
		<rect x="653.7" y="445.4" fill="none" stroke="#FFFFFF" stroke-width="2" stroke-miterlimit="10" width="67.2" height="28.2"/>
		<rect x="720.9" y="445.4" fill="none" stroke="#FFFFFF" stroke-width="2" stroke-miterlimit="10" width="67.2" height="28.2"/>
		<rect x="788.1" y="445.4" fill="none" stroke="#FFFFFF" stroke-width="2" stroke-miterlimit="10" width="67.2" height="28.2"/>
		<rect x="855.3" y="445.4" fill="none" stroke="#FFFFFF" stroke-width="2" stroke-miterlimit="10" width="67.2" height="28.2"/>
		<rect x="922.5" y="445.4" fill="none" stroke="#FFFFFF" stroke-width="2" stroke-miterlimit="10" width="67.2" height="28.2"/>
		<rect x="989.7" y="445.4" fill="none" stroke="#FFFFFF" stroke-width="2" stroke-miterlimit="10" width="67.2" height="28.2"/>
		<rect x="1056.9" y="445.4" fill="none" stroke="#FFFFFF" stroke-width="2" stroke-miterlimit="10" width="67.2" height="28.2"/>
	</g>
	<g>
		<rect x="284" y="474.2" fill="none" stroke="#FFFFFF" stroke-width="2" stroke-miterlimit="10" width="67.2" height="28.2"/>
		<rect x="351.2" y="474.2" fill="none" stroke="#FFFFFF" stroke-width="2" stroke-miterlimit="10" width="67.2" height="28.2"/>
		<rect x="418.4" y="474.2" fill="none" stroke="#FFFFFF" stroke-width="2" stroke-miterlimit="10" width="67.2" height="28.2"/>
		<rect x="485.6" y="474.2" fill="none" stroke="#FFFFFF" stroke-width="2" stroke-miterlimit="10" width="67.2" height="28.2"/>
		<rect x="552.9" y="474.2" fill="none" stroke="#FFFFFF" stroke-width="2" stroke-miterlimit="10" width="67.2" height="28.2"/>
		<rect x="620.1" y="474.2" fill="none" stroke="#FFFFFF" stroke-width="2" stroke-miterlimit="10" width="67.2" height="28.2"/>
		<rect x="687.3" y="474.2" fill="none" stroke="#FFFFFF" stroke-width="2" stroke-miterlimit="10" width="67.2" height="28.2"/>
		<rect x="754.5" y="474.2" fill="none" stroke="#FFFFFF" stroke-width="2" stroke-miterlimit="10" width="67.2" height="28.2"/>
		<rect x="821.7" y="474.2" fill="none" stroke="#FFFFFF" stroke-width="2" stroke-miterlimit="10" width="67.2" height="28.2"/>
		<rect x="888.9" y="474.2" fill="none" stroke="#FFFFFF" stroke-width="2" stroke-miterlimit="10" width="67.2" height="28.2"/>
		<rect x="956.1" y="474.2" fill="none" stroke="#FFFFFF" stroke-width="2" stroke-miterlimit="10" width="67.2" height="28.2"/>
		<rect x="1023.3" y="474.2" fill="none" stroke="#FFFFFF" stroke-width="2" stroke-miterlimit="10" width="67.2" height="28.2"/>
	</g>
	<g>
		<rect x="317.6" y="502" fill="none" stroke="#FFFFFF" stroke-width="2" stroke-miterlimit="10" width="67.2" height="28.2"/>
		<rect x="384.8" y="502" fill="none" stroke="#FFFFFF" stroke-width="2" stroke-miterlimit="10" width="67.2" height="28.2"/>
		<rect x="452" y="502" fill="none" stroke="#FFFFFF" stroke-width="2" stroke-miterlimit="10" width="67.2" height="28.2"/>
		<rect x="519.2" y="502" fill="none" stroke="#FFFFFF" stroke-width="2" stroke-miterlimit="10" width="67.2" height="28.2"/>
		<rect x="586.5" y="502" fill="none" stroke="#FFFFFF" stroke-width="2" stroke-miterlimit="10" width="67.2" height="28.2"/>
		<rect x="653.7" y="502" fill="none" stroke="#FFFFFF" stroke-width="2" stroke-miterlimit="10" width="67.2" height="28.2"/>
		<rect x="720.9" y="502" fill="none" stroke="#FFFFFF" stroke-width="2" stroke-miterlimit="10" width="67.2" height="28.2"/>
		<rect x="788.1" y="502" fill="none" stroke="#FFFFFF" stroke-width="2" stroke-miterlimit="10" width="67.2" height="28.2"/>
		<rect x="855.3" y="502" fill="none" stroke="#FFFFFF" stroke-width="2" stroke-miterlimit="10" width="67.2" height="28.2"/>
		<rect x="922.5" y="502" fill="none" stroke="#FFFFFF" stroke-width="2" stroke-miterlimit="10" width="67.2" height="28.2"/>
		<rect x="989.7" y="502" fill="none" stroke="#FFFFFF" stroke-width="2" stroke-miterlimit="10" width="67.2" height="28.2"/>
		<rect x="1056.9" y="502" fill="none" stroke="#FFFFFF" stroke-width="2" stroke-miterlimit="10" width="67.2" height="28.2"/>
	</g>
</g>
<g>
	<path fill="#F8E5E8" stroke="#1B1A1A" stroke-width="3" stroke-linejoin="round" stroke-miterlimit="10" d="M1066.9,577.5
		c0-16.1,0-101.1,0-101.1h-6.9h-4.5h-6.9c0,0,0,84.9,0,101.1s-4.5,21.3-4.5,21.3h11.3h4.5h11.3
		C1071.3,598.8,1066.9,593.7,1066.9,577.5z"/>
	<g>
		<polygon fill="#F8E5E8" stroke="#1B1A1A" stroke-width="3" stroke-linejoin="round" stroke-miterlimit="10" points="1126,467.9 
			1145.1,467.9 1111,418.9 1130,418.9 1097,370.9 1116,370.5 1090,330.9 1106.5,330.9 1060,268.3 1060,268.3 1060,268.3 
			1013.5,330.9 1030,330.9 1004,370.5 1023,370.9 989.9,418.9 1009,418.9 974.9,467.9 993.9,467.9 966.9,515.7 1060,515.7 
			1060,515.7 1153.1,515.7 		"/>
		
			<line fill="#F8E5E8" stroke="#1B1A1A" stroke-width="3" stroke-linejoin="round" stroke-miterlimit="10" x1="993.9" y1="467.9" x2="1099" y2="467.9"/>
		<path fill="#F8E5E8" stroke="#1B1A1A" stroke-width="3" stroke-linejoin="round" stroke-miterlimit="10" d="M1113.3,418.9
			c-2.2,0-79.6,0-79.6,0"/>
		
			<line fill="#F8E5E8" stroke="#1B1A1A" stroke-width="3" stroke-linejoin="round" stroke-miterlimit="10" x1="1023" y1="370.9" x2="1038.8" y2="370.9"/>
		
			<line fill="#F8E5E8" stroke="#1B1A1A" stroke-width="3" stroke-linejoin="round" stroke-miterlimit="10" x1="1090" y1="330.9" x2="1062.7" y2="330.9"/>
	</g>
</g>
<g opacity="0.4">
	<path fill="none" stroke="#1B1A1A" stroke-miterlimit="10" d="M292.7,335c0,0,55.6-72.7,150.1-85.5s202,55.3,346.3,67.9
		s232.1-35.4,302.8-106.8"/>
	<path fill="none" stroke="#1B1A1A" stroke-miterlimit="10" d="M292.7,342c0,0,55.6-72.7,150.1-85.5s202,55.3,346.3,67.9
		c144.2,12.5,232.1-35.4,302.8-106.8"/>
	<path fill="none" stroke="#1B1A1A" stroke-miterlimit="10" d="M292.7,349c0,0,55.6-72.7,150.1-85.5s202,55.3,346.3,67.9
		c144.2,12.5,232.1-35.4,302.8-106.8"/>
	<path fill="none" stroke="#1B1A1A" stroke-miterlimit="10" d="M292.7,356c0,0,55.6-72.7,150.1-85.5s202,55.3,346.3,67.9
		s232.1-35.4,302.8-106.8"/>
	<path fill="none" stroke="#1B1A1A" stroke-miterlimit="10" d="M292.7,363c0,0,55.6-72.7,150.1-85.5c94.4-12.8,202,55.3,346.3,67.9
		c144.2,12.5,232.1-35.4,302.8-106.8"/>
	<path fill="none" stroke="#1B1A1A" stroke-miterlimit="10" d="M292.7,369.9c0,0,55.6-72.7,150.1-85.5s202,55.3,346.3,67.9
		s232.1-35.4,302.8-106.8"/>
	<path fill="none" stroke="#1B1A1A" stroke-miterlimit="10" d="M292.7,376.9c0,0,55.6-72.7,150.1-85.5s202,55.3,346.3,67.9
		s232.1-35.4,302.8-106.8"/>
</g>
<g>
	
		<line fill="none" stroke="#161D38" stroke-width="3" stroke-linecap="round" stroke-miterlimit="10" x1="382.2" y1="600.5" x2="1057.9" y2="600.5"/>
	<path fill="#B0DEF7" d="M627.5,769.7c0,8.6-7,15.5-15.5,15.5H440.6c-8.6,0-15.5-7-15.5-15.5l0,0c0-8.6,7-15.5,15.5-15.5h171.4
		C620.5,754.2,627.5,761.2,627.5,769.7L627.5,769.7z"/>
	<path fill="#B0DEF7" d="M1088.3,629.1c0,7.4-6,13.5-13.5,13.5h-29.7c-7.4,0-13.5-6-13.5-13.5l0,0c0-7.4,6-13.5,13.5-13.5h29.7
		C1082.3,615.7,1088.3,621.7,1088.3,629.1L1088.3,629.1z"/>
	<path fill="none" stroke="#161D38" stroke-width="3" stroke-linecap="round" stroke-miterlimit="10" d="M1088.3,629.1
		c0,7.4-6,13.5-13.5,13.5h-29.7c-7.4,0-13.5-6-13.5-13.5l0,0c0-7.4,6-13.5,13.5-13.5h29.7C1082.3,615.7,1088.3,621.7,1088.3,629.1
		L1088.3,629.1z"/>
	<path fill="none" stroke="#161D38" stroke-width="3" stroke-linecap="round" stroke-miterlimit="10" d="M627.5,769.7
		c0,8.6-7,15.5-15.5,15.5H440.6c-8.6,0-15.5-7-15.5-15.5l0,0c0-8.6,7-15.5,15.5-15.5h171.4C620.5,754.2,627.5,761.2,627.5,769.7
		L627.5,769.7z"/>
	<path fill="#B0DEF7" d="M995,807.1h-62.2c-19.1,0-34.5-15.5-34.5-34.5V767c0-19.1,15.5-34.5,34.5-34.5h53.2
		c14.9,0,26.9-12.1,26.9-26.9c0-14.9-12.1-26.9-26.9-26.9h-62.9c-9.9,0-18-8-18-18c0-9.9,8-18,18-18H985c11.6,0,21.1-9.4,21.1-21.1
		c0-11.6-9.4-21.1-21.1-21.1H415c-11.6,0-21.1,9.4-21.1,21.1c0,11.6,9.4,21.1,21.1,21.1h79.1c9.9,0,18,8,18,18c0,9.9-8,18-18,18h-85
		c-14.9,0-26.9,12.1-26.9,26.9c0,14.9,12.1,26.9,26.9,26.9h313.7c19.1,0,34.5,15.5,34.5,34.5v5.5c0,19.1-15.5,34.5-34.5,34.5h-40.8
		c-9.9,0-18,8-18,18c0,9.9,8,18,18,18h313c9.9,0,18-8,18-18C1013,815.1,1005,807.1,995,807.1z"/>
	<path fill="none" stroke="#161D38" stroke-width="3" stroke-linecap="round" stroke-miterlimit="10" d="M995,807.1h-62.2
		c-19.1,0-34.5-15.5-34.5-34.5V767c0-19.1,15.5-34.5,34.5-34.5h53.2c14.9,0,26.9-12.1,26.9-26.9c0-14.9-12.1-26.9-26.9-26.9h-62.9
		c-9.9,0-18-8-18-18c0-9.9,8-18,18-18H985c11.6,0,21.1-9.4,21.1-21.1c0-11.6-9.4-21.1-21.1-21.1H415c-11.6,0-21.1,9.4-21.1,21.1
		c0,11.6,9.4,21.1,21.1,21.1h79.1c9.9,0,18,8,18,18c0,9.9-8,18-18,18h-85c-14.9,0-26.9,12.1-26.9,26.9c0,14.9,12.1,26.9,26.9,26.9
		h313.7c19.1,0,34.5,15.5,34.5,34.5v5.5c0,19.1-15.5,34.5-34.5,34.5h-40.8c-9.9,0-18,8-18,18c0,9.9,8,18,18,18h313c9.9,0,18-8,18-18
		C1013,815.1,1005,807.1,995,807.1z"/>
	<path fill="none" stroke="#161D38" stroke-width="3" stroke-linecap="round" stroke-miterlimit="10" d="M691.6,778.6
		c0,3.7-3,6.7-6.7,6.7h-22.6c-3.7,0-6.7-3-6.7-6.7l0,0c0-3.7,3-6.7,6.7-6.7h22.6C688.6,771.9,691.6,774.9,691.6,778.6L691.6,778.6z"
		/>
	
		<line fill="none" stroke="#161D38" stroke-width="3" stroke-linecap="round" stroke-miterlimit="10" x1="393.9" y1="621.5" x2="1002" y2="621.5"/>
	
		<line fill="none" stroke="#161D38" stroke-width="3" stroke-linecap="round" stroke-miterlimit="10" x1="428.8" y1="642.6" x2="961.1" y2="642.6"/>
	
		<line fill="none" stroke="#161D38" stroke-width="3" stroke-linecap="round" stroke-miterlimit="10" x1="515.2" y1="662.7" x2="903" y2="662.7"/>
	
		<line fill="none" stroke="#161D38" stroke-width="3" stroke-linecap="round" stroke-miterlimit="10" x1="451.9" y1="600.6" x2="451.9" y2="620.7"/>
	
		<line fill="none" stroke="#161D38" stroke-width="3" stroke-linecap="round" stroke-miterlimit="10" x1="428.8" y1="621.5" x2="428.8" y2="641.7"/>
	
		<line fill="none" stroke="#161D38" stroke-width="3" stroke-linecap="round" stroke-miterlimit="10" x1="481.6" y1="621.5" x2="481.6" y2="641.7"/>
	
		<line fill="none" stroke="#161D38" stroke-width="3" stroke-linecap="round" stroke-miterlimit="10" x1="540.4" y1="621.5" x2="540.4" y2="641.7"/>
	
		<line fill="none" stroke="#161D38" stroke-width="3" stroke-linecap="round" stroke-miterlimit="10" x1="599.2" y1="621.5" x2="599.2" y2="641.7"/>
	
		<line fill="none" stroke="#161D38" stroke-width="3" stroke-linecap="round" stroke-miterlimit="10" x1="658" y1="621.5" x2="658" y2="641.7"/>
	
		<line fill="none" stroke="#161D38" stroke-width="3" stroke-linecap="round" stroke-miterlimit="10" x1="716.8" y1="621.5" x2="716.8" y2="641.7"/>
	
		<line fill="none" stroke="#161D38" stroke-width="3" stroke-linecap="round" stroke-miterlimit="10" x1="775.6" y1="621.5" x2="775.6" y2="641.7"/>
	
		<line fill="none" stroke="#161D38" stroke-width="3" stroke-linecap="round" stroke-miterlimit="10" x1="834.3" y1="621.5" x2="834.3" y2="641.7"/>
	
		<line fill="none" stroke="#161D38" stroke-width="3" stroke-linecap="round" stroke-miterlimit="10" x1="893.1" y1="621.5" x2="893.1" y2="641.7"/>
	
		<line fill="none" stroke="#161D38" stroke-width="3" stroke-linecap="round" stroke-miterlimit="10" x1="951.9" y1="621.5" x2="951.9" y2="641.7"/>
	
		<line fill="none" stroke="#161D38" stroke-width="3" stroke-linecap="round" stroke-miterlimit="10" x1="511.1" y1="600.6" x2="511.1" y2="620.7"/>
	
		<line fill="none" stroke="#161D38" stroke-width="3" stroke-linecap="round" stroke-miterlimit="10" x1="570.4" y1="600.6" x2="570.4" y2="620.7"/>
	
		<line fill="none" stroke="#161D38" stroke-width="3" stroke-linecap="round" stroke-miterlimit="10" x1="570.4" y1="642.6" x2="570.4" y2="662.7"/>
	
		<line fill="none" stroke="#161D38" stroke-width="3" stroke-linecap="round" stroke-miterlimit="10" x1="629.6" y1="600.6" x2="629.6" y2="620.7"/>
	
		<line fill="none" stroke="#161D38" stroke-width="3" stroke-linecap="round" stroke-miterlimit="10" x1="629.6" y1="642.6" x2="629.6" y2="662.7"/>
	
		<line fill="none" stroke="#161D38" stroke-width="3" stroke-linecap="round" stroke-miterlimit="10" x1="688.8" y1="600.6" x2="688.8" y2="620.7"/>
	
		<line fill="none" stroke="#161D38" stroke-width="3" stroke-linecap="round" stroke-miterlimit="10" x1="688.8" y1="642.6" x2="688.8" y2="662.7"/>
	
		<line fill="none" stroke="#161D38" stroke-width="3" stroke-linecap="round" stroke-miterlimit="10" x1="748" y1="642.6" x2="748" y2="662.7"/>
	
		<line fill="none" stroke="#161D38" stroke-width="3" stroke-linecap="round" stroke-miterlimit="10" x1="807.3" y1="642.6" x2="807.3" y2="662.7"/>
	
		<line fill="none" stroke="#161D38" stroke-width="3" stroke-linecap="round" stroke-miterlimit="10" x1="866.5" y1="642.6" x2="866.5" y2="662.7"/>
	
		<line fill="none" stroke="#161D38" stroke-width="3" stroke-linecap="round" stroke-miterlimit="10" x1="748" y1="600.6" x2="748" y2="620.7"/>
	
		<line fill="none" stroke="#161D38" stroke-width="3" stroke-linecap="round" stroke-miterlimit="10" x1="807.3" y1="600.6" x2="807.3" y2="620.7"/>
	
		<line fill="none" stroke="#161D38" stroke-width="3" stroke-linecap="round" stroke-miterlimit="10" x1="866.5" y1="600.6" x2="866.5" y2="620.7"/>
	
		<line fill="none" stroke="#161D38" stroke-width="3" stroke-linecap="round" stroke-miterlimit="10" x1="925.7" y1="600.6" x2="925.7" y2="620.7"/>
	
		<line fill="none" stroke="#161D38" stroke-width="3" stroke-linecap="round" stroke-miterlimit="10" x1="984.9" y1="600.6" x2="984.9" y2="620.7"/>
	
		<rect x="539.7" y="663.1" fill="none" stroke="#161D38" stroke-width="3" stroke-linecap="round" stroke-miterlimit="10" width="59.2" height="20.1"/>
	
		<rect x="833.9" y="663.1" fill="none" stroke="#161D38" stroke-width="3" stroke-linecap="round" stroke-miterlimit="10" width="59.2" height="20.1"/>
	
		<rect x="907.4" y="807.1" fill="none" stroke="#161D38" stroke-width="3" stroke-linecap="round" stroke-miterlimit="10" width="59.2" height="20.1"/>
	
		<rect x="679.5" y="807.1" fill="none" stroke="#161D38" stroke-width="3" stroke-linecap="round" stroke-miterlimit="10" width="59.2" height="20.1"/>
	<path fill="none" stroke="#161D38" stroke-width="3" stroke-linecap="round" stroke-miterlimit="10" d="M866.5,723.5v20.1h41
		c4.8-5.2,11.1-8.9,18.3-10.4v-9.7H866.5z"/>
	
		<rect x="597.9" y="683.2" fill="none" stroke="#161D38" stroke-width="3" stroke-linecap="round" stroke-miterlimit="10" width="59.2" height="20.1"/>
	
		<rect x="659" y="663.1" fill="none" stroke="#161D38" stroke-width="3" stroke-linecap="round" stroke-miterlimit="10" width="59.2" height="20.1"/>
	
		<rect x="718.4" y="663.1" fill="none" stroke="#161D38" stroke-width="3" stroke-linecap="round" stroke-miterlimit="10" width="59.2" height="20.1"/>
	
		<rect x="718.4" y="683.2" fill="none" stroke="#161D38" stroke-width="3" stroke-linecap="round" stroke-miterlimit="10" width="59.2" height="20.1"/>
	
		<rect x="777.6" y="703.3" fill="none" stroke="#161D38" stroke-width="3" stroke-linecap="round" stroke-miterlimit="10" width="59.2" height="20.1"/>
	
		<rect x="807.2" y="723.5" fill="none" stroke="#161D38" stroke-width="3" stroke-linecap="round" stroke-miterlimit="10" width="59.2" height="20.1"/>
	
		<rect x="807.2" y="772.5" fill="none" stroke="#161D38" stroke-width="3" stroke-linecap="round" stroke-miterlimit="10" width="59.2" height="20.1"/>
	
		<line fill="none" stroke="#161D38" stroke-width="3" stroke-linecap="round" stroke-miterlimit="10" x1="907.4" y1="743.6" x2="767.7" y2="743.6"/>
	
		<line fill="none" stroke="#161D38" stroke-width="3" stroke-linecap="round" stroke-miterlimit="10" x1="451.9" y1="703.3" x2="420.6" y2="703.3"/>
	
		<line fill="none" stroke="#161D38" stroke-width="3" stroke-linecap="round" stroke-miterlimit="10" x1="718.4" y1="703.3" x2="481.6" y2="703.3"/>
	
		<line fill="none" stroke="#161D38" stroke-width="3" stroke-linecap="round" stroke-miterlimit="10" x1="848.2" y1="703.3" x2="893.1" y2="703.3"/>
	
		<line fill="none" stroke="#161D38" stroke-width="3" stroke-linecap="round" stroke-miterlimit="10" x1="757.4" y1="772.5" x2="834.3" y2="772.5"/>
	
		<line fill="none" stroke="#161D38" stroke-width="3" stroke-linecap="round" stroke-miterlimit="10" x1="848.2" y1="772.5" x2="863.5" y2="772.5"/>
	
		<line fill="none" stroke="#161D38" stroke-width="3" stroke-linecap="round" stroke-miterlimit="10" x1="932.9" y1="807.1" x2="860" y2="807.1"/>
	
		<line fill="none" stroke="#161D38" stroke-width="3" stroke-linecap="round" stroke-miterlimit="10" x1="735.9" y1="804.5" x2="777.6" y2="804.5"/>
</g>
<g>
	<path fill="#1B1A1A" d="M428,595.1c0,4.9-4,8.9-8.9,8.9l0,0c-4.9,0-8.9-4-8.9-8.9v-19c0-4.9,4-8.9,8.9-8.9l0,0c4.9,0,8.9,4,8.9,8.9
		V595.1z"/>
	<path fill="#1B1A1A" d="M435,604.1c0,2.9-1.8,5.2-4.1,5.2h-23.6c-2.3,0-4.1-2.3-4.1-5.2l0,0c0-2.9,1.8-5.2,4.1-5.2h23.6
		C433.1,598.9,435,601.2,435,604.1L435,604.1z"/>
	<path fill="#1B1A1A" d="M1000.3,595.1c0,4.9-4,8.9-8.9,8.9l0,0c-4.9,0-8.9-4-8.9-8.9v-19c0-4.9,4-8.9,8.9-8.9l0,0
		c4.9,0,8.9,4,8.9,8.9V595.1z"/>
	<path fill="#1B1A1A" d="M1007.3,604.1c0,2.9-1.8,5.2-4.1,5.2h-23.6c-2.3,0-4.1-2.3-4.1-5.2l0,0c0-2.9,1.8-5.2,4.1-5.2h23.6
		C1005.4,598.9,1007.3,601.2,1007.3,604.1L1007.3,604.1z"/>
	<path fill="#F9F2F2" stroke="#1B1A1A" stroke-width="3" stroke-linejoin="round" stroke-miterlimit="10" d="M979.1,489.1
		c0,14.8-12.7,26.7-28.3,26.7H456.3c-15.6,0-28.3-12-28.3-26.7V384c0-14.8,12.7-26.7,28.3-26.7h494.5c15.6,0,28.3,12,28.3,26.7
		V489.1z"/>
	<path fill="#F8E5E8" stroke="#1B1A1A" stroke-width="3" stroke-linejoin="round" stroke-miterlimit="10" d="M695.7,491.1
		c0,15.6-12.7,28.3-28.3,28.3H442.1c-15.6,0-28.3-12.7-28.3-28.3V368c0-15.6,12.7-28.3,28.3-28.3h225.2c15.6,0,28.3,12.7,28.3,28.3
		V491.1z"/>
	<path fill="#F8E5E8" stroke="#1B1A1A" stroke-width="3" stroke-linejoin="round" stroke-miterlimit="10" d="M979.1,491.1
		c0,15.6-12.7,28.3-28.3,28.3H733.3c-15.6,0-28.3-12.7-28.3-28.3V368c0-15.6,12.7-28.3,28.3-28.3h217.5c15.6,0,28.3,12.7,28.3,28.3
		V491.1z"/>
	<path fill="#F8E5E8" stroke="#1B1A1A" stroke-width="3" stroke-linejoin="round" stroke-miterlimit="10" d="M1030.1,554.1
		c0,15.6-12.7,28.3-28.3,28.3H405.4c-15.6,0-28.3-12.7-28.3-28.3v-9.9c0-15.6,12.7-28.3,28.3-28.3h596.4c15.6,0,28.3,12.7,28.3,28.3
		V554.1z"/>
	
		<circle fill="#F8E5E8" stroke="#1B1A1A" stroke-width="3" stroke-linejoin="round" stroke-miterlimit="10" cx="419.1" cy="472" r="47.4"/>
	
		<circle fill="#F8E5E8" stroke="#1B1A1A" stroke-width="3" stroke-linejoin="round" stroke-miterlimit="10" cx="982.7" cy="472" r="47.4"/>
</g>
<path fill="#1B1A1A" d="M970.9,297.7c0,0,4.6,0.2,11.9-5.3c7.3-5.5,7.3-10.1,2-10.4c-5.3-0.2-12.8,7.8-12.8,7.8l-2-16.2
	c0,0,2.2,3.7,11.2,0c9-3.7,12.3-10.8,12.3-10.8l3.1,24.2c0,0,11.2-2,15.2-9.7s-5.5-11.7-12.6-0.7l-3.7-22.2c0,0,0.8,1.8-10.8,3.3
	c-11.7,1.5-20,0.9-20,0.9L970.9,297.7z"/>
<path fill="#1B1A1A" d="M739.9,297c0,0-6.4-0.4-12.6,6.2c-6.2,6.6-3.1,9.7,4,9.3c7-0.4,12.3-14.1,12.3-14.1l-5.7-26.9
	c0,0,9,2,16.1-3.5c7-5.5,5.9-11.5,5.9-11.5s-7.7,3.7-14.1,4.2c-6.4,0.4-11.2,0.2-12.1,6.6L739.9,297z"/>
<path fill="#1B1A1A" d="M333.9,348.1c0,0-1.4-3-7.8-1.3c-6.4,1.7-7.9,6.8-5.4,8.9c2.5,2.2,11,3,14.2-4.7l4.8-25.8
	c0,0,3.8,0.9,7.3,6.4c3.6,5.5-0.2,11.9,2.5,14.2l3.4-3.6c0,0-1.6-5.7-1-9.4c0.6-3.7-1-7.8-5.2-9.9c-4.1-2.1-6.9-5.3-6.9-5.3
	L333.9,348.1z"/>
<path fill="#1B1A1A" d="M424.4,264.5c0,0-3.2-2.7-8.3-1.2c-5.1,1.5-5.4,5.8-4.7,7.7c0.8,1.9,9.2,4.9,14.2-3.3l9.7-37.5
	c0,0-0.8-1.5-2.1-0.7c-1.3,0.8-0.1-0.2-0.1-0.2L424.4,264.5z"/>
<path fill="#1B1A1A" d="M1069.3,238.2c0,0-3-2.8-9.7-1.9c-6.7,0.9-8.1,6.5-7.7,8.6c0.4,2.1,4,4.6,10.4,4.2s8.2-8.8,8.2-8.8l7.8-19
	c0,0,3.4,3.5,6.9,8.3c3.6,4.8,0.3,12,2.9,15.5l3.5-4c0,0,0.1-3.2,0-5.5c-0.1-2.4-0.6-6.8-3.2-9.7c-2.6-2.9-8-9.3-8-9.3l1.4-3.4
	c0,0,4.3,4.3,7.5,7.9c3.3,3.7,4.9,7.3,5.1,10.5c0.2,3.2,0.1,4.8,0.6,5.7l4.1-4.3c0,0,0.8-6.1-3.9-12.4c-4.7-6.2-13.4-13.3-13.4-13.3
	L1069.3,238.2z"/>
<g>
	<g>
		<path fill="#F9F2F2" stroke="#1B1A1A" stroke-width="2" stroke-miterlimit="10" d="M477,618.2c0,0-5.8,9.6-12.1,13.3
			c-6.4,3.7-22,7-21,24.3c0,0-2.3,1-2.3,3.9s4.4,10.8,21.4,7.5c17-3.3,19.3-13.9,30.3-18.3c11-4.4,13.3-4.4,15.6-12.9
			c2.3-8.5-4-13.7-4.8-17.9C503.2,613.9,480.4,613.3,477,618.2z"/>
		<path fill="#6B555A" stroke="#1B1A1A" stroke-width="2" stroke-linecap="round" stroke-miterlimit="10" d="M508.8,635.9
			c0.2-0.7,0.3-1.3,0.4-1.9l0,0c-2.7,4.4-9.9,7.1-18.9,11.6c-9.1,4.4-17,15.3-30.1,17.2c-13.1,1.9-16.4-7-16.4-7s-2.3,1-2.3,3.9
			s4.4,10.8,21.4,7.5c17-3.3,19.3-13.9,30.3-18.3C504.2,644.4,506.5,644.4,508.8,635.9z"/>
		<path fill="#F9F2F2" stroke="#1B1A1A" stroke-width="2" stroke-miterlimit="10" d="M545.4,618.2c0,0,5.8,9.6,12.2,13.3
			c6.4,3.7,22,7,21,24.3c0,0,2.3,1,2.3,3.9s-4.4,10.8-21.4,7.5c-17-3.3-19.3-13.9-30.3-18.3c-11-4.4-13.3-4.4-15.6-12.9
			c-2.3-8.5,4-13.7,4.8-17.9C519.1,613.9,542,613.3,545.4,618.2z"/>
		<path fill="#6B555A" stroke="#1B1A1A" stroke-width="2" stroke-linecap="round" stroke-miterlimit="10" d="M513.5,635.9
			c-0.2-0.7-0.3-1.3-0.4-1.9l0,0c2.7,4.4,9.8,7.1,18.9,11.6c9.1,4.4,17,15.3,30.1,17.2c13.1,1.9,16.4-7,16.4-7s2.3,1,2.3,3.9
			s-4.4,10.8-21.4,7.5c-17-3.3-19.3-13.9-30.3-18.3C518.1,644.4,515.8,644.4,513.5,635.9z"/>
		
			<path fill="#A2BABC" stroke="#1B1A1A" stroke-width="2" stroke-linecap="round" stroke-linejoin="round" stroke-miterlimit="10" d="
			M563.4,429.2c-2.7-20.1-6.1-27.4-6.1-27.4l-10.7-10.5c-15.2-1.3-31.9,12.1-36.6,16.3c-4.7-4.1-21.5-17.5-36.6-16.3l-10.7,10.5
			c0,0-3.3,7.3-6.1,27.4c-2.7,20.1,19.2,187.8,19.2,187.8s11.4,14.1,28.3,1.1l5.9-155.5l9.3,156.1c15.7,10.3,27.5-1.6,27.5-1.6
			S566.1,449.3,563.4,429.2z"/>
		<path fill="#E55F76" stroke="#1B1A1A" stroke-width="2" stroke-linecap="round" stroke-miterlimit="10" d="M588.3,352.2
			c0,0-18.1-48.7-22.8-56.2c-4.7-7.5-22.3-17.2-22.3-17.2c-4.7-2.8-14.4,0-14.4,0s-14.7,1.8-18.1,2c-3.4-0.2-18.1-2-18.1-2
			s-9.7-2.8-14.4,0c0,0-17.6,9.7-22.3,17.2c-4.7,7.5-22.8,56.2-22.8,56.2s-1.3,8.9,6.3,13.4c7.6,4.5,18.8,2.3,18.8,2.3l6.9-11.9
			c0,0,0,9-0.5,13.5c-0.5,4.6-12.1,54.3-12.1,54.3s19.2,10.3,60.4,11.4c34,0.9,58-12,58-12s-13.7-49.2-14.2-53.7
			c-0.5-4.6-0.5-13.5-0.5-13.5l6.9,11.9c0,0,11.1,2.2,18.8-2.3C589.6,361.2,588.3,352.2,588.3,352.2z"/>
		<g>
			<path fill="#37C2DA" stroke="#1B1A1A" stroke-width="2" stroke-linecap="round" stroke-miterlimit="10" d="M455.9,296.1
				c-1.1,1.8-2.9,5.8-5.1,11h119.8c-2.2-5.2-4-9.2-5.1-11c-0.1-0.1-0.2-0.3-0.3-0.4H456.2C456.1,295.8,456,295.9,455.9,296.1z"/>
			<path fill="#37C2DA" stroke="#1B1A1A" stroke-width="2" stroke-linecap="round" stroke-miterlimit="10" d="M576.1,320.4H445.4
				c-1.6,4-3.1,8-4.6,11.8h140C579.2,328.5,577.7,324.4,576.1,320.4z"/>
			<path fill="#37C2DA" stroke="#1B1A1A" stroke-width="2" stroke-linecap="round" stroke-miterlimit="10" d="M561.8,389.7
				c-1.2-4.4-2.2-8.5-3.1-11.8H463c-0.7,3.4-1.6,7.5-2.6,11.8H561.8z"/>
			<path fill="#37C2DA" stroke="#1B1A1A" stroke-width="2" stroke-linecap="round" stroke-miterlimit="10" d="M569.6,418.4
				c-0.8-3-2-7.2-3.3-11.8H456.6c-1.1,4.6-2,8.7-2.7,11.8H569.6z"/>
		</g>
		<path fill="#F8E4E6" stroke="#1B1A1A" stroke-width="2" stroke-miterlimit="10" d="M473,278.1c0,0-1.6,21.3,0.8,40.4
			c2.4,19.2,2.3,36.4-1.7,45.7c0,0,16.6,11.4,32.5-1.3c0,0,4-16.4-1.4-36.2c-5.4-19.8-7.5-33.4-1-42.9
			C502.1,283.8,480.2,272,473,278.1z"/>
		<path fill="#388EA5" stroke="#1B1A1A" stroke-width="2" stroke-linecap="round" stroke-miterlimit="10" d="M476.5,209.4
			c0,0,0.1-8.6,3.4-13.8c3.3-5.1,8.9-7.9,8.9-7.9s1.1-4,11-10.2c9.9-6.2,24.1-2,28.1-2c4,0,9.7,0.1,13.2,1.8
			c3.5,1.7,11.3,3.3,13.8,11.4c0,0,0.7,5.2-1.9,7.5c-2.6,2.3-5.9,8.4-5.9,8.4s3.9,7.8-11.6,11.8s-22.1-9.1-38.5-4.4
			C480.5,216.6,476.5,209.4,476.5,209.4z"/>
		<path fill="#F9F2F2" stroke="#1B1A1A" stroke-width="2" stroke-miterlimit="10" d="M479,241.7c0,0-1.9-2.6-4.7,0
			c-2.8,2.6,0.7,14.7,8.8,15.3L479,241.7z"/>
		<path fill="#F9F2F2" stroke="#1B1A1A" stroke-width="2" stroke-miterlimit="10" d="M543.3,241.7c0,0,1.9-2.6,4.7,0
			c2.8,2.6-0.7,14.7-8.8,15.3L543.3,241.7z"/>
		<path fill="#F9F2F2" stroke="#1B1A1A" stroke-width="2" stroke-miterlimit="10" d="M542.9,221.2c-11.5-2.3-31.6-3.7-31.6-3.7
			s-20.1,1.4-31.6,3.7c0,0-0.9,13.9,0,20.4c0,0,2,36.9,31.6,37.3c29.6-0.4,31.6-37.3,31.6-37.3C543.8,235.1,542.9,221.2,542.9,221.2
			z"/>
		<path fill="#F37778" d="M507.6,264c0.3,2.7,1.8,4.7,3.7,4.7c1.9,0,3.4-2,3.7-4.7H507.6z"/>
		<path fill="none" stroke="#1B1A1A" stroke-width="2" stroke-linecap="round" stroke-miterlimit="10" d="M487.6,245.2
			c0,0,9.3-7.8,14.8-1.9"/>
		
			<line fill="none" stroke="#1B1A1A" stroke-width="2" stroke-linecap="round" stroke-miterlimit="10" x1="487.6" y1="244.9" x2="485.8" y2="243.5"/>
		<path fill="none" stroke="#1B1A1A" stroke-width="2" stroke-linecap="round" stroke-miterlimit="10" d="M532.8,245.2
			c0,0-9.3-7.8-14.8-1.9"/>
		
			<line fill="none" stroke="#1B1A1A" stroke-width="2" stroke-linecap="round" stroke-miterlimit="10" x1="532.8" y1="244.9" x2="534.5" y2="243.5"/>
		<path fill="#1B1A1A" d="M484.6,236.9c0,0,4.1-3.6,9.9-4.9c5.8-1.4,8.5,1.6,8.2,2.2c-0.3,0.7-2.7,0-7.4,0.4
			C490.8,234.9,484.6,236.9,484.6,236.9z"/>
		<path fill="#1B1A1A" d="M536.1,237.5c0,0-4.1-3.6-9.9-4.9c-5.8-1.4-8.5,1.6-8.2,2.2c0.3,0.7,2.7,0,7.4,0.4
			C530,235.4,536.1,237.5,536.1,237.5z"/>
		
			<ellipse fill="none" stroke="#1B1A1A" stroke-width="2" stroke-linecap="round" stroke-miterlimit="10" cx="511.3" cy="263.1" rx="3.8" ry="5.7"/>
		<path fill="#388EA5" stroke="#1B1A1A" stroke-width="2" stroke-linecap="round" stroke-miterlimit="10" d="M548.6,211.9
			c0,0-5.3-13.6-37.4-13.4c-32.5-0.2-37.5,13.4-37.5,13.4c-0.9,10.1,1.2,20.2,1.9,22.9c0.7,2.7,3.6,3.4,3.6,3.4v-6.5
			c0,0,1.3-5,10.9-8.5c11.2-4.1,32.9-3.2,40.3-0.9c10.2,3.2,12.7,9.4,12.7,9.4v6.5c0,0,2.9-0.7,3.6-3.4
			C547.4,232.1,549.6,222.1,548.6,211.9z"/>
		<g>
			<path fill="#A33A4A" stroke="#1B1A1A" stroke-width="2" stroke-linecap="round" stroke-miterlimit="10" d="M481.8,253.1
				c0.1,0.5,0.2,0.7,0.2,0.7C481.9,253.6,481.9,253.3,481.8,253.1z"/>
			
				<path fill="#A33A4A" stroke="#1B1A1A" stroke-width="2" stroke-linecap="round" stroke-linejoin="round" stroke-miterlimit="10" d="
				M486.7,224.6c-1.9,1-4.8,3.1-7.5,7c0,0-2.6,3.2-2.7,8.9c0,0,2.2-0.2,3.1,2.5l0,0c0.7,4.6,1.7,8.4,2.2,10
				c-1.4-5.3,0.6-15.2,3.5-18.8C488.4,230.6,486.8,224.8,486.7,224.6z"/>
			
				<path fill="#A33A4A" stroke="#1B1A1A" stroke-width="2" stroke-linecap="round" stroke-linejoin="round" stroke-miterlimit="10" d="
				M535.9,224.6c1.9,1,4.8,3.1,7.5,7c0,0,2.6,3.2,2.7,8.9c0,0-2.2-0.2-3.1,2.5l0,0c-0.7,4.6-1.7,8.4-2.2,10
				c1.4-5.3-0.6-15.2-3.5-18.8C534.2,230.6,535.9,224.8,535.9,224.6z"/>
		</g>
		
			<path fill="#F26D82" stroke="#1B1A1A" stroke-width="2" stroke-linecap="round" stroke-linejoin="round" stroke-miterlimit="10" d="
			M549.1,190.6c0,0-4.3,1.1-2.6,4.3c1.7,3.1,0,4-0.4,7.1c-0.4,3.1,0.4,5.4,5.8,5.4c5.4,0,6.8,0.6,8.8,2.3c2,1.7,6.8-0.6,7.1-4
			c0.3-3.4,2.3-6.1,4.6-7c2.3-0.9,2.3-5.8,0-6.6c-2.3-0.9-2.8-2.6-3.1-5.1s-4.6-4.3-7.1-2.6c-2.6,1.7-6-1.7-8.3-0.7
			C551.7,184.6,546.8,188.3,549.1,190.6z"/>
		<path fill="#F8E4E6" stroke="#1B1A1A" stroke-width="2" stroke-miterlimit="10" d="M487.2,265.3c0,0-12.8,7.2-17.8,19
			c0,0,3.5,16,30.1,20.7c26.6,4.6,51.1-6.2,57.9-16.9c0,0-7.1-19.6-22-22.7c0,0-5.3,11.6-26.1,10.2
			C488.5,274.2,487.2,265.3,487.2,265.3z"/>
		<path fill="#F8E4E6" stroke="#1B1A1A" stroke-width="2" stroke-miterlimit="10" d="M512.9,275.3c0,0,0.5-3,6.7-4.2
			c6.2-1.2,13.2-1.3,17.4-6.1c0,0,15.5,6,18.7,26.6c3.2,20.7-9.6,48.6-6.3,62.3c0,0-22.5,10-34.5-5.5c0,0,11.2-17.2,13.7-36.1
			C531.2,293.4,516.6,275.6,512.9,275.3z"/>
		<g>
			<path fill="#842F3F" stroke="#1B1A1A" stroke-width="2" stroke-miterlimit="10" d="M465.7,305.3c0,0,33.3,5.1,44.2,5.4v64.7
				c0,0-30.9-3.7-44.2-12.2V305.3z"/>
			<path fill="#842F3F" stroke="#1B1A1A" stroke-width="2" stroke-miterlimit="10" d="M555,305.3c0,0-33.3,5.1-44.2,5.4v64.7
				c0,0,30.9-3.7,44.2-12.2V305.3z"/>
			<path fill="#F26D82" stroke="#1B1A1A" stroke-width="2" stroke-linecap="round" stroke-miterlimit="10" d="M502.5,310.2
				c0,0,3.4-1.9,7.3,0.5l0.8,26.8l-4.8-3l-3.4,1.2V310.2z"/>
		</g>
		
			<path fill="#778687" stroke="#1B1A1A" stroke-width="2" stroke-linecap="round" stroke-linejoin="round" stroke-miterlimit="10" d="
			M459.6,332.6c0,0,1.8-1.8,6.1,3c4.2,4.9,11.6,20.5,7.7,24.7c0,0-13.1,1.3-16.8-5.9c-3.8-7.2-4.2-15-3.9-15.5
			C453,338.4,459.6,332.6,459.6,332.6z"/>
		<path fill="#F9F2F2" stroke="#1B1A1A" stroke-width="2" stroke-miterlimit="10" d="M468.2,360.3c0,0,5.7-5.1,9.4-8
			c3.6-2.9,17-16.6,18.6-20.6s-2.5-6.2-9.7-2.9c-7.2,3.3-11.6,4.1-14.8,3.9c-3.2-0.2-2.9-5.2-4.6-9.4c-1.7-4.2-4.8-2.9-5.9-2.1
			s1,9.8,0,13.4s-2.2,4.6-2.2,4.6S449.5,356.5,468.2,360.3z"/>
		
			<path fill="#A2BABC" stroke="#1B1A1A" stroke-width="2" stroke-linecap="round" stroke-linejoin="round" stroke-miterlimit="10" d="
			M459.3,347.6c-4.5-11.8,0-14.5,0-14.6c-3.9,1.5-8.5,3.3-13.3,5.5c-15.2,6.9-17.5,16.1-17.5,16.1c-4.7,16.6,12.1,26.1,23.7,21.1
			c5.8-2.5,13.8-9.2,20.3-15.4C470.1,359.8,463,357.3,459.3,347.6z"/>
		
			<path fill="#778687" stroke="#1B1A1A" stroke-width="2" stroke-linecap="round" stroke-linejoin="round" stroke-miterlimit="10" d="
			M559.8,332.6c0,0-1.8-1.8-6.1,3c-4.2,4.9-11.6,20.5-7.7,24.7c0,0,13.1,1.3,16.8-5.9c3.8-7.2,4.2-15,3.9-15.5
			C566.4,338.4,559.8,332.6,559.8,332.6z"/>
		<path fill="#F9F2F2" stroke="#1B1A1A" stroke-width="2" stroke-miterlimit="10" d="M551.2,360.3c0,0-5.7-5.1-9.4-8
			c-3.6-2.9-17-16.6-18.6-20.6s2.5-6.2,9.7-2.9c7.2,3.3,11.6,4.1,14.8,3.9s2.9-5.2,4.6-9.4c1.7-4.2,4.8-2.9,5.9-2.1
			c1.1,0.8-1,9.8,0,13.4c1,3.6,2.2,4.6,2.2,4.6S569.9,356.5,551.2,360.3z"/>
		
			<path fill="#A2BABC" stroke="#1B1A1A" stroke-width="2" stroke-linecap="round" stroke-linejoin="round" stroke-miterlimit="10" d="
			M560.1,347.6c4.5-11.8,0-14.5,0-14.6c3.9,1.5,8.5,3.3,13.3,5.5c15.2,6.9,17.5,16.1,17.5,16.1c4.7,16.6-12.1,26.1-23.7,21.1
			c-5.8-2.5-13.8-9.2-20.3-15.4C549.4,359.8,556.4,357.3,560.1,347.6z"/>
	</g>
	<path fill="none" stroke="#1B1A1A" stroke-width="2" stroke-linecap="round" stroke-miterlimit="10" d="M474.5,431
		c0,0-2.1,20.7-16.7,29.2"/>
	<path fill="none" stroke="#1B1A1A" stroke-width="2" stroke-linecap="round" stroke-miterlimit="10" d="M548.9,431.3
		c0,0,4.4,20.9,13.7,26.7"/>
	
		<line fill="none" stroke="#1B1A1A" stroke-width="2" stroke-linecap="round" stroke-miterlimit="10" x1="502.4" y1="458" x2="510" y2="462.6"/>
</g>
<g>
	<g>
		<g>
			<path fill="#F9F2F2" stroke="#1B1A1A" stroke-width="2" stroke-miterlimit="10" d="M585.5,535.8c0,0,3,84.1,13.4,136.9
				c0,0,7.4,4.8,17.1,4.4c0,0,2.1-79.1,3.1-106.8c1.1-30.6,2.6-38.1,2.6-38.1S594.3,524.5,585.5,535.8z"/>
			
				<path fill="#37C2DA" stroke="#1B1A1A" stroke-width="2" stroke-linecap="round" stroke-linejoin="round" stroke-miterlimit="10" d="
				M590.5,609.4c0,0,4.5,4.3,15.1,4.5c10.7,0.2,12.8-5.6,12.8-5.6s0.2,57.8,0,62.1c-0.2,4.3,0.8,8.3-1.6,10.7
				c-2.3,2.3-7.2,3.1-14.4,8c-7.2,4.9-18,8.5-28.9,6.6c-10.9-1.9-15.7-8.7-10.5-12.2c0,0-4.5-13.8,7.6-18.8c12-5,21.2-5,21.9-8.3
				C593.4,652.9,590.5,609.4,590.5,609.4z"/>
			<path fill="#F9F2F2" stroke="#1B1A1A" stroke-width="2" stroke-linejoin="round" stroke-miterlimit="10" d="M616.9,681
				c1.5-1.5,1.6-3.6,1.6-6c-3.5,2.2-5.6,2.6-12.2,5.5c-6.1,2.6-10.4,6.6-23.7,8.9c-13.2,2.3-19.5-6-19.5-6
				c-5.2,3.5-0.4,10.3,10.5,12.2c10.9,1.9,21.7-1.7,28.9-6.6C609.7,684.1,614.6,683.4,616.9,681z"/>
		</g>
		<path fill="none" stroke="#1B1A1A" stroke-width="2" stroke-linecap="round" stroke-miterlimit="10" d="M570.6,664.6
			c0,0,9.9-3.4,12.4,6.6"/>
		<path fill="none" stroke="#1B1A1A" stroke-width="2" stroke-linecap="round" stroke-miterlimit="10" d="M579.3,661.6
			c0,0,9.9-3.4,12.4,6.6"/>
		<path fill="none" stroke="#1B1A1A" stroke-width="2" stroke-linecap="round" stroke-miterlimit="10" d="M587.3,659.1
			c0,0,9.9-3.4,12.4,6.6"/>
		<circle fill="#1B1A1A" cx="583.5" cy="672.1" r="2"/>
		<circle fill="#1B1A1A" cx="591.7" cy="669.2" r="2"/>
		<circle fill="#1B1A1A" cx="599.7" cy="666.6" r="2"/>
	</g>
	<g>
		<g>
			<path fill="#F9F2F2" stroke="#1B1A1A" stroke-width="2" stroke-miterlimit="10" d="M656.4,535.8c0,0-3.1,84.1-13.4,136.9
				c0,0-7.4,4.8-17.1,4.4c0,0-2.1-79.1-3.1-106.8c-1.1-30.6-2.6-38.1-2.6-38.1S647.6,524.5,656.4,535.8z"/>
			
				<path fill="#37C2DA" stroke="#1B1A1A" stroke-width="2" stroke-linecap="round" stroke-linejoin="round" stroke-miterlimit="10" d="
				M651.4,609.4c0,0-4.5,4.3-15.1,4.5c-10.7,0.2-12.8-5.6-12.8-5.6s-0.2,57.8,0,62.1c0.2,4.3-0.8,8.3,1.6,10.7
				c2.3,2.3,7.2,3.1,14.4,8c7.2,4.9,18,8.5,28.9,6.6c10.9-1.9,15.7-8.7,10.5-12.2c0,0,4.5-13.8-7.6-18.8c-12-5-21.2-5-21.9-8.3
				C648.5,652.9,651.4,609.4,651.4,609.4z"/>
			<path fill="#F9F2F2" stroke="#1B1A1A" stroke-width="2" stroke-linejoin="round" stroke-miterlimit="10" d="M625,681
				c-1.5-1.5-1.6-3.6-1.6-6c3.5,2.2,5.6,2.6,12.2,5.5c6.1,2.6,10.4,6.6,23.7,8.9c13.2,2.3,19.5-6,19.5-6c5.2,3.5,0.4,10.3-10.5,12.2
				c-10.9,1.9-21.7-1.7-28.9-6.6C632.2,684.1,627.3,683.4,625,681z"/>
		</g>
		<path fill="none" stroke="#1B1A1A" stroke-width="2" stroke-linecap="round" stroke-miterlimit="10" d="M671.3,664.6
			c0,0-9.9-3.4-12.4,6.6"/>
		<path fill="none" stroke="#1B1A1A" stroke-width="2" stroke-linecap="round" stroke-miterlimit="10" d="M662.6,661.6
			c0,0-9.8-3.4-12.4,6.6"/>
		<path fill="none" stroke="#1B1A1A" stroke-width="2" stroke-linecap="round" stroke-miterlimit="10" d="M654.6,659.1
			c0,0-9.9-3.4-12.4,6.6"/>
		<circle fill="#1B1A1A" cx="658.4" cy="672.1" r="2"/>
		<circle fill="#1B1A1A" cx="650.1" cy="669.2" r="2"/>
		<circle fill="#1B1A1A" cx="642.2" cy="666.6" r="2"/>
	</g>
	<path fill="#F26D82" stroke="#1B1A1A" stroke-width="2" stroke-linecap="round" stroke-miterlimit="10" d="M616.5,297.7
		c0,0-3.8-1-4.3-4.2c-0.5-3.2,2.2-2.9,2.2-2.9s-2.2-5.1,1.5-6.5c3.8-1.4,4.9,0.5,4.9,0.5s0.3-3.1,3.9-2.9c3.5,0.2,4.2,3,4.2,3.2
		c-0.1,0.2,1.9-1.7,4.6,0.2c2.8,1.9,1.6,5.7,1.6,5.7s2.8-0.9,3.5,4c0.7,4.9-7,9.7-7,9.7S616,301.7,616.5,297.7z"/>
	<path fill="#F26D82" stroke="#1B1A1A" stroke-width="2" stroke-linecap="round" stroke-miterlimit="10" d="M578.2,347.5
		c0,0-0.2-14.5,13.5-33.5s26.9-18.4,26.9-18.4s5.2-0.3,7.6,0c2.3,0.3,30,2.9,32.9,36.5c0,0.5,0.1,1,0.1,1.5
		C661.5,368.6,612.6,317.6,578.2,347.5z"/>
	<path fill="#F9F2F2" stroke="#1B1A1A" stroke-width="2" stroke-miterlimit="10" d="M583.6,348.4c0,0,0.3,13.1,2.6,24.2
		c0,0,4.6,26.4,10.9,34.3c6.3,7.9,22.8,9.4,22.8,9.4s16.6-1.6,22.8-9.4c6.3-7.9,10.9-34.3,10.9-34.3c2.3-11.1,2.6-24.2,2.6-24.2
		C644.3,345.2,595.6,345.2,583.6,348.4z"/>
	<path fill="#F37778" d="M616.2,401.2c0.3,2.2,1.8,3.9,3.7,3.9c1.8,0,3.3-1.7,3.7-3.9H616.2z"/>
	<path fill="none" stroke="#1B1A1A" stroke-width="2" stroke-linecap="round" stroke-miterlimit="10" d="M610.7,379.1
		c0,0-1.6-5.6-7.8-6.4c-6.3-0.9-8.6,6.4-8.6,6.4c-0.3,0-2.1,0-2.6-1.9"/>
	<path fill="none" stroke="#1B1A1A" stroke-width="2" stroke-linecap="round" stroke-miterlimit="10" d="M626.3,379.1
		c0,0,1.6-5.6,7.8-6.4c6.3-0.9,8.6,6.4,8.6,6.4s2.3,0.8,3.6-1.9"/>
	<path fill="#D88B8B" stroke="#1B1A1A" stroke-width="2" stroke-linejoin="round" stroke-miterlimit="10" d="M605.5,349
		c0,0,6,16.8,30.9,16.5c0,0-8.1-0.3-14.6-9.5c0,0,3,4.6,12.6,6c9.6,1.4,17.6,9.7,16.7,22.5c0,0-2.6,12.7-6.9,20.2
		c-4.3,7.5-14.4,9.6-14.4,9.6v5.9c0,0,27.6,5,43.9-7c0,0-5.8,0.1-7.2-10.4c-1.5-11.5,3.1-57.8-15.5-72.3
		c-15.6-12.2-36.3-13.5-48.5-3.1c0,0-15.4-2.7-22.6,15.4c-7.2,18.1-2.7,43.6-5.1,55.2c-2.4,11.6-11.1,9.6-11.1,9.6
		s8.7,9.5,19.9,12.8c5.5,1.6,24.3,0.2,24.3,0.2l0.1-7c0,0-11.5-3.2-15.2-15.2c-3.6-12-4.7-27,0.3-34
		C598.3,357.5,605.1,356.3,605.5,349z"/>
	<circle fill="#F37778" cx="600.1" cy="389.6" r="5.8"/>
	<circle fill="#F37778" cx="638.2" cy="389.6" r="5.8"/>
	<path fill="none" stroke="#1B1A1A" stroke-width="2" stroke-linecap="round" stroke-miterlimit="10" d="M644.5,375.3
		c0,0-0.7,2.2-2.7,1.9"/>
	<path fill="none" stroke="#1B1A1A" stroke-width="2" stroke-linecap="round" stroke-miterlimit="10" d="M593.1,375.3
		c0,0,0.5,1.8,2.1,1.9"/>
	<path fill="#F26D82" stroke="#1B1A1A" stroke-width="2" stroke-linecap="round" stroke-miterlimit="10" d="M679.7,578.5L662.2,516
		v-1.5c-1.9-16.1-12-20.6-22.5-19.8c-8.3,0.6-16.4,6.2-19.4,8.5c-3.1-2.3-11.2-7.9-19.4-8.5c-10.5-0.8-20.6,3.7-22.5,19.8v1.5
		l-17.5,62.5c0,0,16.7,16.4,58.2,17v0c0.4,0,0.9,0,1.3,0c0.4,0,0.9,0,1.3,0v0C663,594.8,679.7,578.5,679.7,578.5z"/>
	<path fill="#F9CB93" stroke="#1B1A1A" stroke-width="2" stroke-linecap="round" stroke-miterlimit="10" d="M680.5,495.8
		c0,0-5.7-40.3-14.1-55.9c-8.4-15.6-27.7-19.3-27.7-19.3l-19.3,8.8l-19.3-8.8c0,0-19.4,3.7-27.7,19.3c-8.4,15.6-14.1,55.9-14.1,55.9
		s-4.3,12.5,8.2,19.3c12.6,6.8,26.7-7.1,33.6-20.5h16.5h5.6h16.5c6.9,13.3,21,27.3,33.6,20.5C684.8,508.3,680.5,495.8,680.5,495.8z"
		/>
	<path fill="#37C2DA" stroke="#1B1A1A" stroke-width="2" stroke-linecap="round" stroke-miterlimit="10" d="M568,450.7
		c-2.1,6.5-3.9,14.1-5.4,21.1c53.4,10.7,98.6,2.7,113.4-0.7c-1.6-7.4-3.5-15.3-5.8-21.9C633.9,461.8,590.2,455.4,568,450.7z"/>
	<path fill="#37C2DA" stroke="#1B1A1A" stroke-width="2" stroke-linecap="round" stroke-miterlimit="10" d="M666,439.3
		c-8.6-15-27.4-18.6-27.4-18.6l-19.3,8.8l-19.3-8.8c0,0-18.3,3.5-27,18C587.6,442.2,626.4,449.6,666,439.3z"/>
	<path fill="#37C2DA" stroke="#1B1A1A" stroke-width="2" stroke-linecap="round" stroke-miterlimit="10" d="M601.2,410.5
		c0,0-2.7,10.2,1.4,16c0,0,17.9,10.8,33.7-1.7c0,0,2.4-6.4-1.6-12.1c0,0-5.3,4.2-14.7,3.7C610.5,415.8,601.2,410.5,601.2,410.5z"/>
	<path fill="#37C2DA" stroke="#1B1A1A" stroke-width="2" stroke-linecap="round" stroke-miterlimit="10" d="M624.3,416.2
		c0,0,0.1-1.5,5.6-3.2c5.5-1.7,9.9-2.5,9.9-2.5s5.5,1.5,6.3,18.1c0.7,16.6,0.7,37.8,13.3,50.1c0,0-0.4,7.5-7.4,10.6
		c-7,3.1-19.8,1-22.7-8.9C626.3,470.6,631.3,432.8,624.3,416.2z"/>
	<path fill="#F9F2F2" stroke="#1B1A1A" stroke-width="2" stroke-miterlimit="10" d="M581.1,447.2c0,0,28.3,4.3,37.5,4.6v55
		c0,0-26.2-3.1-37.5-10.4V447.2z"/>
	<path fill="#F9F2F2" stroke="#1B1A1A" stroke-width="2" stroke-miterlimit="10" d="M656.9,447.2c0,0-28.3,4.3-37.5,4.6v55
		c0,0,26.2-3.1,37.5-10.4V447.2z"/>
	<path fill="#F9F2F2" stroke="#1B1A1A" stroke-width="2" stroke-miterlimit="10" d="M588.4,484.3c0,0-0.7-2.6-1.9-6.8
		c-1.2-4.2-1.1-6.9,0.7-7.6c1.7-0.7,5.9,5.3,7.5,8.6s7.7,0.1,13.5-1.4c5.7-1.5,8.6,1.1,10.1,2.9c1.6,1.8-1.1,7.3-8.3,10.3
		c-7.2,2.9-9.5,4.8-9.5,4.8S597.9,486.9,588.4,484.3z"/>
	<path fill="#F9F2F2" stroke="#1B1A1A" stroke-width="2" stroke-miterlimit="10" d="M650.4,484.3c0,0,0.7-2.6,1.9-6.8
		c1.2-4.2,1.1-6.9-0.7-7.6c-1.7-0.7-5.9,5.3-7.5,8.6c-1.6,3.2-7.7,0.1-13.5-1.4c-5.7-1.5-8.6,1.1-10.1,2.9
		c-1.6,1.8,1.1,7.3,8.3,10.3c7.2,2.9,9.5,4.8,9.5,4.8S640.8,486.9,650.4,484.3z"/>
	<path fill="#37C2DA" stroke="#1B1A1A" stroke-width="2" stroke-linecap="round" stroke-miterlimit="10" d="M660,489.1"/>
	<path fill="#37C2DA" stroke="#1B1A1A" stroke-width="2" stroke-linecap="round" stroke-miterlimit="10" d="M650.4,484.3"/>
	<path fill="#37C2DA" stroke="#1B1A1A" stroke-width="2" stroke-linecap="round" stroke-miterlimit="10" d="M650.1,484.3
		c17-0.1,29.3,10.8,29.3,10.8s0.4,0.5,1,1.3c0.7,2.6,2.5,12.8-8.4,18.7c-12.6,6.8-26.7-7.1-33.6-20.5h-0.2
		C640.7,486.2,650.1,484.3,650.1,484.3z"/>
	<path fill="#37C2DA" stroke="#1B1A1A" stroke-width="2" stroke-linecap="round" stroke-miterlimit="10" d="M588.4,484.3
		c-17-0.1-29.3,10.8-29.3,10.8s-0.4,0.5-1,1.3c-0.7,2.6-2.5,12.8,8.4,18.7c12.6,6.8,26.7-7.1,33.6-20.5h0.2
		C597.8,486.2,588.4,484.3,588.4,484.3z"/>
	<path fill="#F26D82" stroke="#1B1A1A" stroke-width="2" stroke-linecap="round" stroke-miterlimit="10" d="M612.4,451.3
		c0,0,2.9-1.6,6.2,0.4l0.7,22.7l-4-2.6l-2.9,1V451.3z"/>
	<path fill="#F8E4E6" stroke="#1B1A1A" stroke-width="2" stroke-miterlimit="10" d="M575.6,370.8c0,0-2.5-20.6,28.3-27.3
		c30.8-6.6,58.6,9,61,20.8c0,0,2.4-6.8,1.2-18.3c-1.2-11.5-9.1-18.4-9.1-18.4s-37.6-21.4-75.8,6.3
		C581.1,333.9,565.7,345.9,575.6,370.8z"/>
	
		<ellipse fill="none" stroke="#1B1A1A" stroke-width="2" stroke-linecap="round" stroke-miterlimit="10" cx="619.9" cy="400.2" rx="3.7" ry="4.8"/>
</g>
<g>
	
		<path fill="#A33A4A" stroke="#1B1A1A" stroke-width="2" stroke-linecap="round" stroke-linejoin="round" stroke-miterlimit="10" d="
		M843.2,236.9c0,0-8.9,9.6-11.8,36.8c-2.9,27.2-18.7,25.7-21.3,21.8c0,0-4.8,10.9,10.4,17.6s47.1,1.9,47.1,1.9v-78.1
		C867.6,236.9,850.6,229.3,843.2,236.9z"/>
	
		<path fill="#A33A4A" stroke="#1B1A1A" stroke-width="2" stroke-linecap="round" stroke-linejoin="round" stroke-miterlimit="10" d="
		M901.5,236.9c0,0,8.9,9.6,11.8,36.8c2.9,27.2,18.7,25.7,21.3,21.8c0,0,4.8,10.9-10.4,17.6c-15.2,6.7-47.1,1.9-47.1,1.9v-78.1
		C877.1,236.9,894.1,229.3,901.5,236.9z"/>
	<g>
		<path fill="#F26D82" stroke="#1B1A1A" stroke-width="2" stroke-linecap="round" stroke-miterlimit="10" d="M896.4,274.8
			c0,0,12-1.2,30.4,15.9c18.4,17.2,35.8,30.8,45.8,28.5c0,0,3.3,17-14.7,28.2c-18,11.2-51-28.5-51-28.5s-3.8-25.8-9.1-28.1
			C892.6,288.7,896.4,274.8,896.4,274.8z"/>
		<path fill="none" stroke="#1B1A1A" stroke-width="2" stroke-linecap="round" stroke-miterlimit="10" stroke-dasharray="7" d="
			M895.1,279.7c0,0,12.7,0.6,31.7,20.2c19.1,19.6,34.4,29,45.4,28.6"/>
		<path fill="none" stroke="#1B1A1A" stroke-width="2" stroke-linecap="round" stroke-miterlimit="10" stroke-dasharray="7" d="
			M896.5,289.9c0,0,13,3.6,27.8,19.9s33.3,29.8,44.2,27.4"/>
		<path fill="none" stroke="#1B1A1A" stroke-width="2" stroke-linecap="round" stroke-miterlimit="10" stroke-dasharray="7" d="
			M904.6,307c0,0,4.9,1.9,15.4,11.5c10.5,9.5,27.1,28.8,41,26.9"/>
		<path fill="none" stroke="#1B1A1A" stroke-width="2" stroke-linecap="round" stroke-miterlimit="10" stroke-dasharray="7" d="
			M940.4,346.9c0,0,19.6-10.6,23.8-28.6"/>
		<path fill="none" stroke="#1B1A1A" stroke-width="2" stroke-linecap="round" stroke-miterlimit="10" stroke-dasharray="7" d="
			M929.8,340.6c0,0,17.4-10.2,22.6-29.4"/>
		<path fill="none" stroke="#1B1A1A" stroke-width="2" stroke-linecap="round" stroke-miterlimit="10" stroke-dasharray="7" d="
			M917.9,330.5c0,0,19.9-11.1,23.2-27.1"/>
		<path fill="none" stroke="#1B1A1A" stroke-width="2" stroke-linecap="round" stroke-miterlimit="10" stroke-dasharray="7" d="
			M912,324.6c0,0,18.6-17.8,17.3-31.5"/>
		<path fill="none" stroke="#1B1A1A" stroke-width="2" stroke-linecap="round" stroke-miterlimit="10" stroke-dasharray="7" d="
			M906.1,314.3c0,0,12.8-17.7,11.2-31.2"/>
	</g>
	<path fill="#F1AC5F" stroke="#1B1A1A" stroke-width="2" stroke-linecap="round" stroke-miterlimit="10" d="M833.8,221.7
		c0,0-3.2-23.6,16.5-29.7c0,0,13.7-15.5,36.7-10.9c23.1,4.6,40,25.9,39.6,40.6c-0.4,14.6,0,18,0,18s2,1.2-3.2,4.3
		c-5.2,3.1-11.4,3.3-16.7,0.5c-5.3-2.8-10.1-26.6-33.4-28S833.8,221.7,833.8,221.7z"/>
	<path fill="#F8E4E6" stroke="#1B1A1A" stroke-width="2" stroke-miterlimit="10" d="M837,627.9c0,0-5.8,9.6-12.2,13.3
		c-6.4,3.7-22,7-21,24.3c0,0-2.3,1-2.3,3.9c0,2.9,4.4,10.8,21.4,7.5c17-3.3,19.3-13.9,30.3-18.3s13.3-4.4,15.6-12.9
		c2.3-8.5-4-13.7-4.8-17.9C863.3,623.6,840.4,623,837,627.9z"/>
	<path fill="#6B555A" stroke="#1B1A1A" stroke-width="2" stroke-linecap="round" stroke-miterlimit="10" d="M868.9,645.7
		c0.2-0.7,0.3-1.3,0.4-1.9l0,0c-2.7,4.4-9.9,7.1-18.9,11.6s-17,15.3-30.1,17.2c-13.1,1.9-16.4-7-16.4-7s-2.3,1-2.3,3.9
		c0,2.9,4.4,10.8,21.4,7.5c17-3.3,19.3-13.9,30.3-18.3S866.6,654.2,868.9,645.7z"/>
	<path fill="#F8E4E6" stroke="#1B1A1A" stroke-width="2" stroke-miterlimit="10" d="M905.4,627.9c0,0,5.8,9.6,12.2,13.3
		c6.4,3.7,22,7,21,24.3c0,0,2.3,1,2.3,3.9c0,2.9-4.4,10.8-21.4,7.5c-17-3.3-19.3-13.9-30.3-18.3c-11-4.4-13.3-4.4-15.6-12.9
		c-2.3-8.5,4-13.7,4.8-17.9S902,623,905.4,627.9z"/>
	<path fill="#6B555A" stroke="#1B1A1A" stroke-width="2" stroke-linecap="round" stroke-miterlimit="10" d="M873.5,645.7
		c-0.2-0.7-0.3-1.3-0.4-1.9l0,0c2.7,4.4,9.8,7.1,18.9,11.6s17,15.3,30.1,17.2c13.1,1.9,16.4-7,16.4-7s2.3,1,2.3,3.9
		c0,2.9-4.4,10.8-21.4,7.5c-17-3.3-19.3-13.9-30.3-18.3C878.2,654.2,875.9,654.2,873.5,645.7z"/>
	
		<path fill="#FBB16D" stroke="#1B1A1A" stroke-width="2" stroke-linecap="round" stroke-linejoin="round" stroke-miterlimit="10" d="
		M948.3,362c0,0-18.1-48.7-22.8-56.2c-4.7-7.5-22.3-17.2-22.3-17.2c-4.7-2.8-14.4,0-14.4,0s-14.7,1.8-18.1,2c-3.4-0.2-18.1-2-18.1-2
		s-9.7-2.8-14.4,0c0,0-17.6,9.7-22.3,17.2c-4.7,7.5-22.8,56.2-22.8,56.2s-1.3,8.9,6.3,13.4s18.8,2.3,18.8,2.3l6.9-11.9
		c0,0,0,9-0.5,13.5s-12.1,54.3-12.1,54.3s19.2,10.3,60.4,11.4c34,0.9,54-10.1,54-10.1s-9.8-51-10.2-55.6c-0.5-4.6-0.5-13.5-0.5-13.5
		l6.9,11.9c0,0,11.1,2.2,18.8-2.3C949.7,370.9,948.3,362,948.3,362z"/>
	<path fill="#F8E4E6" stroke="#1B1A1A" stroke-width="2" stroke-miterlimit="10" d="M828.8,294.5c0,0-10.1-0.1-19.4,14.4
		c-9.3,14.6-16.3,19.6-16.3,19.6s-1.3,10.6,8.9,10.5s9.4-2.3,13.2,3.8c3.8,6.1,17.6,9.9,26.7,4.8c9.1-5.1,9.2-3,14.7-0.7
		c5.5,2.3,8.2,7.3,15.9,2.5c7.7-4.8,14-4.1,19.9-1.9s12,4.1,18.2-0.7c6.2-4.7,6.6-2.7,13.1-1.4s6.9,3,11.6-1.3
		c4.7-4.3,13.9,1.6,19.1-6.7c0,0-12.6-7.6-17.2-17c-4.6-9.4-8.8-22.6-24-26.1C913.1,294.5,855.3,309.5,828.8,294.5z"/>
	<path fill="#F9F2F2" stroke="#1B1A1A" stroke-width="2" stroke-miterlimit="10" d="M839.1,251.5c0,0-1.9-2.6-4.7,0
		c-2.8,2.6,0.7,14.7,8.8,15.3L839.1,251.5z"/>
	<path fill="#F9F2F2" stroke="#1B1A1A" stroke-width="2" stroke-miterlimit="10" d="M903.4,251.5c0,0,1.9-2.6,4.7,0
		c2.8,2.6-0.7,14.7-8.8,15.3L903.4,251.5z"/>
	<path fill="#F9F2F2" stroke="#1B1A1A" stroke-width="2" stroke-miterlimit="10" d="M902.9,230.9c-11.5-2.3-31.6-3.7-31.6-3.7
		s-20.1,1.4-31.6,3.7c0,0-0.9,13.9,0,20.4c0,0,2,36.9,31.6,37.3c29.6-0.4,31.6-37.3,31.6-37.3C903.9,244.8,902.9,230.9,902.9,230.9z
		"/>
	<path fill="#F37778" d="M867.6,273.8c0.3,2.7,1.8,4.7,3.7,4.7c1.9,0,3.4-2,3.7-4.7H867.6z"/>
	<path fill="none" stroke="#1B1A1A" stroke-width="2" stroke-linecap="round" stroke-miterlimit="10" d="M847.7,254.9
		c0,0,9.3-7.8,14.8-1.9"/>
	
		<line fill="none" stroke="#1B1A1A" stroke-width="2" stroke-linecap="round" stroke-miterlimit="10" x1="847.7" y1="254.6" x2="845.9" y2="253.3"/>
	<path fill="none" stroke="#1B1A1A" stroke-width="2" stroke-linecap="round" stroke-miterlimit="10" d="M892.8,254.9
		c0,0-9.3-7.8-14.8-1.9"/>
	
		<line fill="none" stroke="#1B1A1A" stroke-width="2" stroke-linecap="round" stroke-miterlimit="10" x1="892.8" y1="254.6" x2="894.6" y2="253.3"/>
	<path fill="#1B1A1A" d="M844.6,246.7c0,0,4.1-3.6,9.9-4.9c5.8-1.4,8.5,1.6,8.2,2.2s-2.7,0-7.4,0.4
		C850.8,244.7,844.6,246.7,844.6,246.7z"/>
	<path fill="#1B1A1A" d="M896.2,247.2c0,0-4.1-3.6-9.9-4.9c-5.8-1.4-8.5,1.6-8.2,2.2s2.7,0,7.4,0.4
		C890,245.2,896.2,247.2,896.2,247.2z"/>
	
		<ellipse fill="none" stroke="#1B1A1A" stroke-width="2" stroke-linecap="round" stroke-miterlimit="10" cx="871.3" cy="272.8" rx="3.8" ry="5.7"/>
	<path fill="#F1AC5F" stroke="#1B1A1A" stroke-width="2" stroke-linecap="round" stroke-miterlimit="10" d="M908.7,221.7
		c0,0-5.3-13.6-37.4-13.4c-32.5-0.2-37.5,13.4-37.5,13.4c-0.9,10.1,1.2,20.2,1.9,22.9s3.6,3.4,3.6,3.4v-6.5c0,0,1.3-5,10.9-8.5
		c11.2-4.1,32.9-3.2,40.3-0.9c10.2,3.2,12.7,9.4,12.7,9.4v6.5c0,0,2.9-0.7,3.6-3.4C907.5,241.8,909.6,231.8,908.7,221.7z"/>
	<g>
		<path fill="#A33A4A" stroke="#1B1A1A" stroke-width="2" stroke-linecap="round" stroke-miterlimit="10" d="M841.8,262.8
			c0.1,0.5,0.2,0.7,0.2,0.7C842,263.3,841.9,263.1,841.8,262.8z"/>
		
			<path fill="#A33A4A" stroke="#1B1A1A" stroke-width="2" stroke-linecap="round" stroke-linejoin="round" stroke-miterlimit="10" d="
			M846.8,234.4c-1.9,1-4.8,3.1-7.5,7c0,0-2.6,3.2-2.7,8.9c0,0,2.2-0.2,3.1,2.5l0,0c0.7,4.6,1.7,8.4,2.2,10
			c-1.4-5.3,0.6-15.2,3.5-18.8C848.4,240.4,846.8,234.5,846.8,234.4z"/>
		
			<path fill="#A33A4A" stroke="#1B1A1A" stroke-width="2" stroke-linecap="round" stroke-linejoin="round" stroke-miterlimit="10" d="
			M895.9,234.4c1.9,1,4.8,3.1,7.5,7c0,0,2.6,3.2,2.7,8.9c0,0-2.2-0.2-3.1,2.5l0,0c-0.7,4.6-1.7,8.4-2.2,10
			c1.4-5.3-0.6-15.2-3.5-18.8C894.3,240.4,895.9,234.5,895.9,234.4z"/>
	</g>
	<g>
		<path fill="#F9F2F2" stroke="#1B1A1A" stroke-width="2" stroke-miterlimit="10" d="M827.8,316.4c0,0,33.3,5.1,44.2,5.4v64.7
			c0,0-30.9-3.7-44.2-12.2V316.4z"/>
		<path fill="#F9F2F2" stroke="#1B1A1A" stroke-width="2" stroke-miterlimit="10" d="M917.1,316.4c0,0-33.3,5.1-44.2,5.4v64.7
			c0,0,30.9-3.7,44.2-12.2V316.4z"/>
		<path fill="#F26D82" stroke="#1B1A1A" stroke-width="2" stroke-linecap="round" stroke-miterlimit="10" d="M864.7,321.3
			c0,0,3.4-1.9,7.3,0.5l0.8,26.8l-4.8-3l-3.4,1.2V321.3z"/>
	</g>
	
		<path fill="#778687" stroke="#1B1A1A" stroke-width="2" stroke-linecap="round" stroke-linejoin="round" stroke-miterlimit="10" d="
		M819.6,342.3c0,0,1.8-1.8,6.1,3c4.2,4.9,11.6,20.5,7.7,24.7c0,0-13.1,1.3-16.8-5.9c-3.8-7.2-4.2-15-3.9-15.5
		C813,348.1,819.6,342.3,819.6,342.3z"/>
	
		<circle fill="#F1AC5F" stroke="#1B1A1A" stroke-width="2" stroke-linecap="round" stroke-miterlimit="10" cx="928.1" cy="245.1" r="10.7"/>
	
		<path fill="#A33A4A" stroke="#1B1A1A" stroke-width="2" stroke-linecap="round" stroke-linejoin="round" stroke-miterlimit="10" d="
		M858.2,231c0,0,16,11.5,31,9.9s16.1-8,16.1-8s-7.6,2-16.3-1.2C889.1,231.6,870.4,227.3,858.2,231z"/>
	<circle fill="#E55F76" cx="854.2" cy="266.1" r="4.1"/>
	<circle fill="#E55F76" cx="887.7" cy="266.1" r="4.1"/>
	
		<path fill="#F26D82" stroke="#1B1A1A" stroke-width="2" stroke-linecap="round" stroke-linejoin="round" stroke-miterlimit="10" d="
		M913.1,294.5c-4-17.7-18-20.2-18-20.2c-4.3,9.8-21.3,12.6-24.1,13c-2.8-0.4-19.8-3.2-24.2-13c0,0-14,2.4-18,20.2
		c0,0,7.9,21.8,41.7,22.2v0c0.1,0,0.3,0,0.4,0c0.1,0,0.3,0,0.4,0v0C905.2,316.3,913.1,294.5,913.1,294.5z"/>
	<g>
		<g>
			<path fill="none" stroke="#1B1A1A" stroke-width="2" stroke-linecap="round" stroke-miterlimit="10" d="M839.3,277.7
				c0,0,0.6,1.2,1.8,3"/>
			
				<path fill="none" stroke="#1B1A1A" stroke-width="2" stroke-linecap="round" stroke-miterlimit="10" stroke-dasharray="7.5985,7.5985" d="
				M846.4,286.1c4.8,3.8,12.3,7.5,23.5,7.6c14.2,0.1,24.3-4.9,30.1-8.8"/>
			<path fill="none" stroke="#1B1A1A" stroke-width="2" stroke-linecap="round" stroke-miterlimit="10" d="M903,282.6
				c1.7-1.4,2.6-2.4,2.6-2.4"/>
		</g>
	</g>
	<path fill="none" stroke="#1B1A1A" stroke-width="2" stroke-linecap="round" stroke-miterlimit="10" stroke-dasharray="7" d="
		M832.3,286.7c0,0,9.9,18.2,35.7,19.3c26.6,1.1,42.6-16.8,42.6-16.8"/>
	<path fill="none" stroke="#1B1A1A" stroke-width="2" stroke-linecap="round" stroke-miterlimit="10" stroke-dasharray="7" d="
		M851.9,280.4c0,0-12.3,8.8-16,24.1"/>
	<path fill="none" stroke="#1B1A1A" stroke-width="2" stroke-linecap="round" stroke-miterlimit="10" stroke-dasharray="7" d="
		M859.7,284.4c0,0-8.7,14.7-9.6,28.1"/>
	
		<line fill="none" stroke="#1B1A1A" stroke-width="2" stroke-linecap="round" stroke-miterlimit="10" stroke-dasharray="7" x1="870.9" y1="287.3" x2="870.1" y2="316.7"/>
	<path fill="none" stroke="#1B1A1A" stroke-width="2" stroke-linecap="round" stroke-miterlimit="10" stroke-dasharray="7" d="
		M880,285.2c0,0,13.3,9.4,11.8,26.9"/>
	<path fill="none" stroke="#1B1A1A" stroke-width="2" stroke-linecap="round" stroke-miterlimit="10" stroke-dasharray="7" d="
		M892.4,278.9c0,0,15.5,8.1,14.6,24.5"/>
	<path fill="#37C2DA" stroke="#1B1A1A" stroke-width="2" stroke-linecap="round" stroke-miterlimit="10" d="M816.4,350.1
		c0,0,3.7-4,7.2-10.5c3.5-6.5,14.5-15.9,24.9-13.7c10.5,2.3,12.2,9.4,8,21c-4.2,11.6-19.4,17.9-27.8,21.7S816.4,350.1,816.4,350.1z"
		/>
	
		<path fill="#FBB16D" stroke="#1B1A1A" stroke-width="2" stroke-linecap="round" stroke-linejoin="round" stroke-miterlimit="10" d="
		M819.4,357.3c-4.5-11.8,0-14.5,0-14.6c-3.9,1.5-8.5,3.3-13.3,5.5c-15.2,6.9-17.5,16.1-17.5,16.1c-4.7,16.6,12.1,26.1,23.7,21.1
		c5.8-2.5,13.8-9.2,20.3-15.4C830.1,369.5,823.1,367,819.4,357.3z"/>
	
		<path fill="#778687" stroke="#1B1A1A" stroke-width="2" stroke-linecap="round" stroke-linejoin="round" stroke-miterlimit="10" d="
		M919.3,342.3c0,0-1.8-1.8-6.1,3c-4.2,4.9-11.6,20.5-7.7,24.7c0,0,13.1,1.3,16.8-5.9c3.8-7.2,4.2-15,3.9-15.5
		C925.9,348.1,919.3,342.3,919.3,342.3z"/>
	<path fill="#37C2DA" stroke="#1B1A1A" stroke-width="2" stroke-linecap="round" stroke-miterlimit="10" d="M922.6,350.1
		c0,0-3.7-4-7.2-10.5c-3.5-6.5-14.5-15.9-24.9-13.7s-12.2,9.4-8,21c4.2,11.6,19.4,17.9,27.8,21.7S922.6,350.1,922.6,350.1z"/>
	
		<path fill="#FBB16D" stroke="#1B1A1A" stroke-width="2" stroke-linecap="round" stroke-linejoin="round" stroke-miterlimit="10" d="
		M919.6,357.3c4.5-11.8,0-14.5,0-14.6c3.9,1.5,8.5,3.3,13.3,5.5c15.2,6.9,17.5,16.1,17.5,16.1c4.7,16.6-12.1,26.1-23.7,21.1
		c-5.8-2.5-13.8-9.2-20.3-15.4C908.9,369.5,915.9,367,919.6,357.3z"/>
	<path fill="#F26D82" stroke="#1B1A1A" stroke-width="2" stroke-linecap="round" stroke-miterlimit="10" d="M933.6,463.3
		c-1.4-27.3-9.4-52.7-9.4-52.7c-14.1,3.3-33.1,4-51.1,3.7v-0.1c-0.7,0-1.4,0-2,0c-0.7,0-1.4,0-2,0v0.1c-18.1,0.3-37-0.5-51.1-3.7
		c0,0-7.1,22.6-8.6,49.9s-10.1,157.6-21.7,172.8c0,0,8.5,10,21.7,6c13.2-4,23.4-1.9,29.1,1.4s14.8,4.3,23.8,0c3-1.4,5.9-2.5,8.8-3.1
		c2.9,0.6,5.8,1.7,8.8,3.1c9,4.3,18.1,3.3,23.8,0c5.7-3.3,15.9-5.4,29.1-1.4c13.2,4,21.7-6,21.7-6
		C942.9,618.1,935.1,490.6,933.6,463.3z"/>
	<path fill="#F26D82" stroke="#1B1A1A" stroke-width="2" stroke-linecap="round" stroke-miterlimit="10" d="M822.6,389.8
		c0,0,50.4,15.6,96.7,0c0,0,5.8,7.7,7,24.2c0,0-54.4,23.3-110,0C816.4,413.9,814.5,401.5,822.6,389.8z"/>
</g>
<g>
	<path fill="#1B1A1A" d="M713.6,439.5c0.8-0.1-0.7,12.2,1.4,19.2c2.1,7,15.1,9,15.1,9s1.4-7.1,0-15.7c-1.4-8.6-16.3-13.4-16.3-13.4"
		/>
	<path fill="#1B1A1A" d="M773.1,439.5c-0.8-0.1,0.7,12.2-1.4,19.2c-2.1,7-15.1,9-15.1,9s-1.4-7.1,0-15.7
		c1.4-8.6,16.3-13.4,16.3-13.4"/>
	<path fill="#F9F2F2" stroke="#1B1A1A" stroke-width="2" stroke-miterlimit="10" d="M771,449.1c0,0,3.4-0.9,3.9-3.2
		c0.5-2.4,0.7-9.1,0.7-9.1l-1.5-6.4l-2.4,0.7L771,449.1z"/>
	<path fill="#F9F2F2" stroke="#1B1A1A" stroke-width="2" stroke-miterlimit="10" d="M711.9,435.3c0,0-0.5,7.2,1,11.2
		c1.5,4.1,4.1,3.6,4.1,3.6l-1.4-16.6l-4.3,2.2"/>
	<g>
		
			<path fill="#37C2DA" stroke="#1B1A1A" stroke-width="2" stroke-linecap="round" stroke-linejoin="round" stroke-miterlimit="10" d="
			M720.1,653.7c0,0,1.8,1.4,4,1.5c2.2,0.1,2.2,0.1,2.2,0.1l1.2,5.6l1.6-6.7c0,0,5.4,0,10.8-1.9c0.2-0.1,0.3-0.1,0.5-0.2
			c5.6-2.1,1.7,19.2,2.4,22.5c0.7,3.3,2.1,6.7-0.1,9.2c-2.2,2.5-12,7.2-16.1,10.1s-16.8,6.5-24.2,2.6c-7.4-3.9-2-8.7-2-8.7
			s-4.5-7.4,3.5-12.7c8-5.3,17.4-3.6,17.3-5.3c-0.1-1.7-1.7-16.3-1.7-16.3"/>
		<path fill="#F9F2F2" stroke="#1B1A1A" stroke-width="2" stroke-miterlimit="10" d="M742.8,684c1.7-2,1.1-4.6,0.5-7.3l0,0
			c-5.8,6.1-16.5,14.8-28.3,15.3c-11.8,0.6-14.6-4-14.6-4s-5.3,4.8,2,8.7c7.4,3.9,20.1,0.2,24.2-2.6S740.7,686.5,742.8,684z"/>
	</g>
	<g>
		
			<path fill="#37C2DA" stroke="#1B1A1A" stroke-width="2" stroke-linecap="round" stroke-linejoin="round" stroke-miterlimit="10" d="
			M771.7,654.1c0,0-1.8,1.4-3.9,1.5c-2.2,0.1-2.2,0.1-2.2,0.1l-1.2,5.5l-1.5-6.5c0,0-5.2,0-10.5-1.9c-0.2-0.1-0.3-0.1-0.5-0.2
			c-5.4-2-1.7,18.7-2.3,21.9c-0.6,3.2-2,6.5,0.1,9s11.7,7,15.7,9.8c4,2.8,16.3,6.4,23.5,2.6c7.2-3.8,2-8.4,2-8.4s4.4-7.2-3.4-12.4
			c-7.8-5.2-17.7-4.4-17.6-6.1c0.1-1.6,2.5-14.9,2.5-14.9"/>
		<path fill="#F9F2F2" stroke="#1B1A1A" stroke-width="2" stroke-miterlimit="10" d="M749.6,683.5c-1.7-2-1.1-4.5-0.5-7.1l0,0
			c5.6,5.9,16,14.3,27.5,14.9c11.4,0.6,14.2-3.9,14.2-3.9s5.2,4.6-2,8.4c-7.2,3.8-19.5,0.2-23.5-2.6
			C761.3,690.5,751.7,686,749.6,683.5z"/>
	</g>
	<g>
		<path fill="#F9F2F2" stroke="#1B1A1A" stroke-width="2" stroke-linejoin="round" stroke-miterlimit="10" d="M788.7,600.1
			c2.2-22.3-1.6-32.7-3.9-37.9s-5.7-11.4-5.7-11.4c-7.5-4.3-28.7,8.1-33.9,11.3c-5.2-3.2-26.4-15.6-33.9-11.3c0,0-3.4,6.2-5.7,11.4
			c-2.3,5.1-6.2,15.5-3.9,37.9c2.2,22.3,3.2,39.6,4.5,41.9s-1.9,6.5,0,8.6c1.9,2.1,4,2.4,3.1,5.1c-0.9,2.7-1.2,3,2.1,5.1
			c3.3,2.1,3.4,8.1,3.4,8.1s6.6,15.3,27.7,8.3c0,0,0.9-5.5,0-9.3c-0.9-3.9,1.2-9.8,1.7-12.2s-1.6-7.4-2.4-14.3
			c-0.6-4.8,3.2-27.4,4.8-36.9c1.5,9.6,2.7,32.7,2.1,37.5c-0.9,6.8-0.2,11,0.3,13.4c0.5,2.4-0.2,7.7-1.2,11.6
			c-0.9,3.9,2.6,9.2,2.6,9.2c21,7,25.6-7.3,25.6-7.3s0.1-6.1,3.4-8.1c3.3-2.1,2.9-2.4,2.1-5.1c-0.9-2.7,1.2-3,3.1-5.1
			c1.9-2.1-1.3-6.2,0-8.6C785.5,639.6,786.5,622.4,788.7,600.1z"/>
		<path fill="#F9F2F2" stroke="#1B1A1A" stroke-width="2" stroke-miterlimit="10" d="M773.6,478.9c0,0,9.6,1.2,12.8,7.8
			s18.7,37.3,18.7,37.3s3.9,8.3-6.9,10.9c-10.8,2.5-16.5-12.8-16.5-12.8l-11.2-13.8L773.6,478.9z"/>
		<path fill="#F9F2F2" stroke="#1B1A1A" stroke-width="2" stroke-miterlimit="10" d="M713.1,478.9c0,0-9.6,1.2-12.8,7.8
			c-3.2,6.7-18.7,37.3-18.7,37.3s-3.9,8.3,6.9,10.9c10.8,2.5,19.1-15.9,19.1-15.9l8.6-10.6L713.1,478.9z"/>
		<path fill="#F9F2F2" stroke="#1B1A1A" stroke-width="2" stroke-linejoin="round" stroke-miterlimit="10" d="M743.4,464.6
			c-1.8-5.9-9.5-2.5-9.5-2.5v11.6l9.5,3l9.5-3v-11.6C752.9,462.1,745.2,458.8,743.4,464.6z"/>
		<path fill="#F26D82" stroke="#1B1A1A" stroke-width="2" stroke-linecap="round" stroke-miterlimit="10" d="M776.3,493.7
			c-0.2-10.2,1-15.3,1-15.3s-18-1.7-23.3-5.4v-4.1c0,0-6.3,2-10.6,1.6c-4.4,0.4-10.6-1.6-10.6-1.6v4.1c-5.3,3.7-23.3,5.4-23.3,5.4
			s1.2,5.2,1,15.3c-0.2,10.2-5,13.3-5,13.3v55.2c20.7,7.2,38.8,6.8,38.8,6.8s24.6-0.1,40-6.8l-2.9-47.4
			C781.3,514.8,776.6,503.9,776.3,493.7z"/>
		<path fill="#F9F2F2" stroke="#1B1A1A" stroke-width="2" stroke-miterlimit="10" d="M713.6,414.9c0,0,0.2,10.9,2.2,20.1
			c0,0,0,21,5.2,27.6c5.2,6.6,22.9,8.8,22.9,8.8s18-3.4,23.2-10c5.2-6.6,4.9-26.4,4.9-26.4c1.9-9.2,2.2-20.1,2.2-20.1
			C764.1,412.2,723.6,412.2,713.6,414.9z"/>
		<path fill="none" stroke="#1B1A1A" stroke-width="2" stroke-linecap="round" stroke-miterlimit="10" d="M722,434.3
			c0,0,4.8-8.1,12.3-2.3"/>
		<path fill="none" stroke="#1B1A1A" stroke-width="2" stroke-linecap="round" stroke-miterlimit="10" d="M763.2,434.3
			c0,0-4.8-8.1-12.3-2.3"/>
		<path fill="#37C2DA" stroke="#1B1A1A" stroke-width="2" stroke-linecap="round" stroke-miterlimit="10" d="M703.2,422.4
			c0,0-0.4-7.4,4-19.1c4.9-13,16.3-23.3,30.4-25.3c14.1-1.9,41,6.9,43.1,36v4.2c0,0-19.5-19.5-43.7-12.5
			C712.8,412.9,703.2,422.4,703.2,422.4z"/>
		<path fill="#37C2DA" stroke="#1B1A1A" stroke-width="2" stroke-linecap="round" stroke-miterlimit="10" d="M743.1,397.5
			c-37.5-0.1-41.3,25.3-41.3,25.3s0.9,8.4,3.9,15.9c3,7.5,6.4,7.8,6.4,7.8s-1.5-11.7,9.9-20.1s21-7.3,21-7.3s11.1-1.1,22.5,7.3
			s9.9,20.1,9.9,20.1s3.5-0.5,5.3-8.5c1.8-8,1.8-18.4,1.8-18.4S783.5,397.6,743.1,397.5z"/>
		<line fill="none" stroke="#1B1A1A" stroke-width="2" stroke-miterlimit="10" x1="743.4" y1="470.4" x2="743.4" y2="569"/>
		<line fill="none" stroke="#1B1A1A" stroke-width="2" stroke-miterlimit="10" x1="711.2" y1="490.3" x2="776.4" y2="490.3"/>
		<g>
			<path fill="#F9F2F2" stroke="#1B1A1A" stroke-width="2" stroke-miterlimit="10" d="M704.1,479.6c0,0,28.2,4.3,37.4,4.6V539
				c0,0-26.1-3.1-37.4-10.3V479.6z"/>
			<path fill="#F9F2F2" stroke="#1B1A1A" stroke-width="2" stroke-miterlimit="10" d="M779.7,479.6c0,0-28.2,4.3-37.4,4.6V539
				c0,0,26.1-3.1,37.4-10.3V479.6z"/>
			<path fill="#F26D82" stroke="#1B1A1A" stroke-width="2" stroke-linecap="round" stroke-miterlimit="10" d="M735.3,483.7
				c0,0,2.9-1.6,6.2,0.4l0.7,22.7l-4-2.5l-2.9,1V483.7z"/>
		</g>
		<path fill="#F37778" d="M744.2,462.4c1.9,0,3.5-2.3,3.5-5.2h-7C740.7,460.1,742.2,462.4,744.2,462.4z"/>
		
			<ellipse fill="none" stroke="#1B1A1A" stroke-width="2" stroke-linecap="round" stroke-miterlimit="10" cx="744.2" cy="457.2" rx="3.5" ry="5.2"/>
	</g>
	<path fill="#1B1A1A" d="M731.9,422c0,0,6.4,7.2,15.9,9.4c9.5,2.2,13.2-1.5,13.2-1.5s-5,0.4-8-2.8c0,0,10.9,4.6,21.2-1.8
		c0,0-9.1-0.5-17.7-3.9C756.4,421.5,740.5,415.5,731.9,422z"/>
	<path fill="none" stroke="#1B1A1A" stroke-width="2" stroke-linecap="round" stroke-miterlimit="10" d="M724.9,440.7
		c0,0,2.4-2.5,6.6-1.7"/>
	<path fill="none" stroke="#1B1A1A" stroke-width="2" stroke-linecap="round" stroke-miterlimit="10" d="M760.9,441.6
		c0,0-2.4-2.5-6.6-1.7"/>
	<path fill="none" stroke="#1B1A1A" stroke-width="2" stroke-miterlimit="10" d="M700.9,587.5c0,0,12.6-5,15.3-22.1"/>
	<path fill="none" stroke="#1B1A1A" stroke-width="2" stroke-miterlimit="10" d="M770.6,566.3c0,0,5.6,20.6,18.8,22.9"/>
	<path fill="none" stroke="#1B1A1A" stroke-width="2" stroke-miterlimit="10" d="M740.4,599.7c0.6-0.2,1.7,5.1,5.9,4.9"/>
	<path fill="#F26D82" stroke="#1B1A1A" stroke-width="2" stroke-linecap="round" stroke-miterlimit="10" d="M692.3,515.3
		c0,0-8.8,3-14.4,10.7c-5.7,7.7-2.4,19.3,10.4,18.1c12.8-1.2,13.6-16.8,13.6-16.8S697.1,518.2,692.3,515.3z"/>
	<path fill="#37C2DA" stroke="#1B1A1A" stroke-width="2" stroke-linecap="round" stroke-miterlimit="10" d="M692.3,515.3
		c0,0,1.8-5.2,6.3-8.2c4.5-3,9.9-5.3,14.2-2.3c4.3,3,14.1,16.9-10.9,22.5C701.8,527.4,691.4,524.5,692.3,515.3z"/>
	<path fill="#F26D82" stroke="#1B1A1A" stroke-width="2" stroke-linecap="round" stroke-miterlimit="10" d="M793.8,515.3
		c0,0,8.8,3,14.4,10.7c5.7,7.7,2.4,19.3-10.4,18.1c-12.8-1.2-13.6-16.8-13.6-16.8S789,518.2,793.8,515.3z"/>
	<path fill="#37C2DA" stroke="#1B1A1A" stroke-width="2" stroke-linecap="round" stroke-miterlimit="10" d="M793.8,515.3
		c0,0-1.8-5.2-6.3-8.2s-9.9-5.3-14.2-2.3c-4.3,3-14.1,16.9,10.9,22.5C784.2,527.4,794.7,524.5,793.8,515.3z"/>
</g>
<path fill="#F9F2F2" stroke="#1B1A1A" stroke-width="3" stroke-linejoin="round" stroke-miterlimit="10" d="M1094.7,1214.6
	c0,16.9-13.7,30.5-30.5,30.5H279.3c-16.9,0-30.5-13.7-30.5-30.5l0,0c0-16.9,13.7-30.5,30.5-30.5h784.9
	C1081,1184.1,1094.7,1197.8,1094.7,1214.6L1094.7,1214.6z"/>
<g>
	<path fill="#1B1A1A" d="M295,638.9c0-18.4,0-115.4,0-115.4h-7.8H282h-7.8c0,0,0,97,0,115.4s-5.1,24.3-5.1,24.3H282h5.1h12.9
		C300.1,663.1,295,657.3,295,638.9z"/>
	<g>
		
			<polygon fill="#9FD5BB" stroke="#1B1A1A" stroke-width="3" stroke-linecap="round" stroke-linejoin="round" stroke-miterlimit="10" points="
			362.5,513.7 384.3,513.7 345.4,457.7 367.1,457.7 329.4,402.9 351.1,402.4 321.4,357.2 340.3,357.2 287.1,285.8 287.1,285.8 
			287.1,285.8 234,357.2 252.9,357.2 223.2,402.4 244.9,402.9 207.2,457.7 228.9,457.7 190,513.7 211.7,513.7 180.9,568.3 
			287.1,568.3 287.1,568.3 393.4,568.3 		"/>
		
			<line fill="#F9F2F2" stroke="#1B1A1A" stroke-width="3" stroke-linecap="round" stroke-miterlimit="10" x1="211.7" y1="513.7" x2="331.7" y2="513.7"/>
		
			<path fill="#F9F2F2" stroke="#1B1A1A" stroke-width="3" stroke-linecap="round" stroke-linejoin="round" stroke-miterlimit="10" d="
			M347.9,457.7c-2.5,0-90.8,0-90.8,0"/>
		
			<line fill="#F9F2F2" stroke="#1B1A1A" stroke-width="3" stroke-linecap="round" stroke-linejoin="round" stroke-miterlimit="10" x1="244.9" y1="402.9" x2="263" y2="402.9"/>
		
			<line fill="#F9F2F2" stroke="#1B1A1A" stroke-width="3" stroke-linecap="round" stroke-linejoin="round" stroke-miterlimit="10" x1="321.4" y1="357.2" x2="290.2" y2="357.2"/>
	</g>
</g>
<path fill="#B0DEF7" stroke="#161D38" stroke-width="3" stroke-linecap="round" stroke-miterlimit="10" d="M331.7,669.9
	c0,5.1-4.1,9.2-9.2,9.2h-91.6c-5.1,0-9.2-4.1-9.2-9.2l0,0c0-5.1,4.1-9.2,9.2-9.2h91.6C327.6,660.7,331.7,664.8,331.7,669.9
	L331.7,669.9z"/>
<path fill="#B0DEF7" stroke="#161D38" stroke-width="3" stroke-linecap="round" stroke-miterlimit="10" d="M371.7,638.9
	c0,2.7-2.2,4.9-4.9,4.9H348c-2.7,0-4.9-2.2-4.9-4.9l0,0c0-2.7,2.2-4.9,4.9-4.9h18.8C369.5,634,371.7,636.2,371.7,638.9L371.7,638.9z
	"/>
<path fill="#B0DEF7" stroke="#161D38" stroke-width="3" stroke-linecap="round" stroke-miterlimit="10" d="M230.4,611.4
	c0,1.7-1.4,3.1-3.1,3.1h-12.4c-1.7,0-3.1-1.4-3.1-3.1l0,0c0-1.7,1.4-3.1,3.1-3.1h12.4C229,608.3,230.4,609.7,230.4,611.4
	L230.4,611.4z"/>
<path fill="#B0DEF7" stroke="#161D38" stroke-width="3" stroke-linecap="round" stroke-miterlimit="10" d="M377.1,733.5
	c0,5.6-4.5,10.1-10.1,10.1h-51.1c-5.6,0-10.1-4.5-10.1-10.1l0,0c0-5.6,4.5-10.1,10.1-10.1H367C372.6,723.5,377.1,728,377.1,733.5
	L377.1,733.5z"/>
<path fill="none" stroke="#161D38" stroke-width="3" stroke-linecap="round" stroke-miterlimit="10" d="M1079.7,771.9
	c0,5.9-4.8,10.7-10.7,10.7h-79.3c-5.9,0-10.7-4.8-10.7-10.7l0,0c0-5.9,4.8-10.7,10.7-10.7h79.3
	C1074.9,761.3,1079.7,766,1079.7,771.9L1079.7,771.9z"/>
</svg>
