<?xml version="1.0" encoding="utf-8"?>
<!-- Generator: Adobe Illustrator 18.0.0, SVG Export Plug-In . SVG Version: 6.00 Build 0)  -->
<!DOCTYPE svg PUBLIC "-//W3C//DTD SVG 1.1//EN" "http://www.w3.org/Graphics/SVG/1.1/DTD/svg11.dtd">
<svg version="1.1" id="Layer_1" xmlns="http://www.w3.org/2000/svg" xmlns:xlink="http://www.w3.org/1999/xlink" x="0px" y="0px"
	 viewBox="0 0 1400 980" enable-background="new 0 0 1400 980" xml:space="preserve">
<g>
	<rect x="133.3" y="159.2" fill="#9F573C" width="241.4" height="63.8"/>
	<rect x="160.2" y="223" fill="#D18D70" width="187.7" height="294.7"/>
	<rect x="160.2" y="228.1" fill="#E39254" width="40.8" height="47"/>
	<rect x="307" y="228.1" fill="#C86E4D" width="40.8" height="47"/>
	<rect x="208.9" y="228.1" fill="#B06143" width="90.7" height="47"/>
	<rect x="257.2" y="280.1" fill="#B06143" width="90.7" height="47"/>
	<rect x="160.2" y="280.1" fill="#C86E4D" width="90.7" height="47"/>
	<rect x="160.2" y="333.1" fill="#B06143" width="40.8" height="47"/>
	<rect x="307" y="333.1" fill="#C86E4D" width="40.8" height="47"/>
	<rect x="208.9" y="333.1" fill="#E39254" width="90.7" height="47"/>
	<rect x="257.2" y="385.1" fill="#C86E4D" width="90.7" height="47"/>
	<rect x="160.2" y="385.1" fill="#B06143" width="90.7" height="47"/>
	<rect x="160.2" y="438.6" fill="#C86E4D" width="40.8" height="47"/>
	<rect x="307" y="438.6" fill="#E39254" width="40.8" height="47"/>
	<rect x="208.9" y="438.6" fill="#C86E4D" width="90.7" height="47"/>
	<rect x="257.2" y="490.6" fill="#B06143" width="90.7" height="27.1"/>
	<rect x="160.2" y="490.6" fill="#C86E4D" width="90.7" height="27.1"/>
	<g>
		<circle fill="#8C8E90" cx="248.2" cy="132.4" r="8"/>
		<circle fill="#8C8E90" cx="284.9" cy="63.9" r="8"/>
		<circle fill="#8C8E90" cx="234.9" cy="147.2" r="3.9"/>
		<path fill="#8C8E90" d="M317.9,82.9h-29.4c-4-6.6-11.3-11-19.6-11h-44c-12.7,0-23,10.3-23,23v0c0,12.7,10.3,23,23,23h29.4
			c4,6.6,11.3,11,19.6,11h44c12.7,0,23-10.3,23-23v0C340.9,93.2,330.6,82.9,317.9,82.9z"/>
		<path fill="#8C8E90" d="M342.7,52.6H311c-7.5,0-13.5,6-13.5,13.5v0c0,7.5,6,13.5,13.5,13.5h31.7c7.5,0,13.5-6,13.5-13.5v0
			C356.2,58.7,350.2,52.6,342.7,52.6z"/>
	</g>
</g>
<g>
	<path fill="#3A6578" d="M795.7,159.2h-30.2c-1.2,0.9-2.4,1.8-3.5,2.8c-24,22-42,62-77,57c-28-5-54-22-83-11
		c-7.4,3.2-14.4,6.9-21.2,10.9c3.3,2.5,7.3,4.1,11.8,4.1h203.1c10.6,0,19.2-8.6,19.2-19.2v-25.4
		C814.9,167.8,806.3,159.2,795.7,159.2z"/>
	<path fill="#3E6C80" d="M685,219c35,5,53-35,77-57c1.1-1,2.3-1.9,3.5-2.8H592.6c-10.6,0-19.2,8.6-19.2,19.2v25.4
		c0,6.1,2.9,11.6,7.4,15.1c6.8-4,13.7-7.7,21.2-10.9C631,197,657,214,685,219z"/>
	<path fill="#839BA7" d="M688,353c-23-15-33-43-62-46c-8.8-1.1-17.2-1.6-25.7-1.5v169.3c15.6-0.3,30.8-3.1,44.7-12.9
		c47-33.9,86.1-84.5,143-91.3v-33.9c-21.1,2.5-42.3,20-64,24.2C712,363,699,361,688,353z"/>
	<path fill="#8EA8B6" d="M600.3,223v63.1c11.9-0.2,23.6-2.4,34.7,1.8c18,7,30,25,48,30c30,8,44-32,59-53
		c12.7-17.3,28.9-22.7,46-24.3V223H600.3z"/>
	<path fill="#8AA3B1" d="M742,265c-15,21-29,61-59,53c-18-5-30-23-48-30c-11-4.2-22.8-2-34.7-1.8v19.4c8.5-0.1,16.9,0.4,25.7,1.5
		c29,3,39,31,62,46c11,8,24,10,36,8c21.7-4.2,42.9-21.6,64-24.2v-96.1C770.9,242.3,754.7,247.7,742,265z"/>
	<path fill="#7C949F" d="M645,462c-13.9,9.7-29.1,12.6-44.7,12.9v42.8H788V370.7C731.1,377.5,692,428.1,645,462z"/>
	<g>
		<circle fill="#8C8E90" cx="688.3" cy="132.4" r="8"/>
		<circle fill="#8C8E90" cx="725.1" cy="63.9" r="8"/>
		<circle fill="#8C8E90" cx="675" cy="147.2" r="3.9"/>
		<path fill="#8C8E90" d="M758,82.9h-29.4c-4-6.6-11.3-11-19.6-11h-44c-12.7,0-23,10.3-23,23v0c0,12.7,10.3,23,23,23h29.4
			c4,6.6,11.3,11,19.6,11h44c12.7,0,23-10.3,23-23v0C781,93.2,770.7,82.9,758,82.9z"/>
		<path fill="#8C8E90" d="M782.8,52.6h-31.7c-7.5,0-13.5,6-13.5,13.5v0c0,7.5,6,13.5,13.5,13.5h31.7c7.5,0,13.5-6,13.5-13.5v0
			C796.3,58.7,790.3,52.6,782.8,52.6z"/>
	</g>
	<path fill="#447489" d="M786.9,284h-42.7c-7.9,0-14.3-6.4-14.3-14.3v0c0-7.9,6.4-14.3,14.3-14.3h42.7c7.9,0,14.3,6.4,14.3,14.3v0
		C801.3,277.6,794.8,284,786.9,284z"/>
	<path fill="#4E839A" d="M658.8,261.7h-42.7c-7.9,0-14.3-6.4-14.3-14.3v0c0-7.9,6.4-14.3,14.3-14.3h42.7c7.9,0,14.3,6.4,14.3,14.3v0
		C673.2,255.3,666.7,261.7,658.8,261.7z"/>
	<path fill="#447489" d="M782.1,474.7h-42.7c-7.9,0-14.3-6.4-14.3-14.3v0c0-7.9,6.4-14.3,14.3-14.3h42.7c7.9,0,14.3,6.4,14.3,14.3v0
		C796.4,468.3,790,474.7,782.1,474.7z"/>
	<path fill="#447489" d="M645.6,350.7h-42.7c-7.9,0-14.3-6.4-14.3-14.3v0c0-7.9,6.4-14.3,14.3-14.3h42.7c7.9,0,14.3,6.4,14.3,14.3v0
		C659.9,344.3,653.5,350.7,645.6,350.7z"/>
	<path fill="#9F7579" d="M762.9,309.6h-34.9c-5.8,0-10.5-4.7-10.5-10.5l0,0c0-5.8,4.7-10.5,10.5-10.5h34.9c5.8,0,10.5,4.7,10.5,10.5
		l0,0C773.3,304.9,768.6,309.6,762.9,309.6z"/>
	<path fill="#4E839A" d="M661.2,375.7h-34.9c-5.8,0-10.5-4.7-10.5-10.5l0,0c0-5.8,4.7-10.5,10.5-10.5h34.9c5.8,0,10.5,4.7,10.5,10.5
		l0,0C671.7,371,667,375.7,661.2,375.7z"/>
	<path fill="#4E839A" d="M786.3,428h-34.9c-5.8,0-10.5-4.7-10.5-10.5v0c0-5.8,4.7-10.5,10.5-10.5h34.9c5.8,0,10.5,4.7,10.5,10.5v0
		C796.7,423.3,792,428,786.3,428z"/>
	<path fill="#9F7579" d="M636.5,394.7h-28.6c-3.4,0-6.1-2.7-6.1-6.1v0c0-3.4,2.7-6.1,6.1-6.1h28.6c3.4,0,6.1,2.7,6.1,6.1v0
		C642.7,391.9,639.9,394.7,636.5,394.7z"/>
	<path fill="#9F7579" d="M734.7,446h-28.6c-3.4,0-6.1-2.7-6.1-6.1v0c0-3.4,2.7-6.1,6.1-6.1h28.6c3.4,0,6.1,2.7,6.1,6.1v0
		C740.9,443.2,738.1,446,734.7,446z"/>
	<path fill="#9F7579" d="M630.1,279h-28.6c-3.4,0-6.1-2.7-6.1-6.1v0c0-3.4,2.7-6.1,6.1-6.1h28.6c3.4,0,6.1,2.7,6.1,6.1v0
		C636.2,276.2,633.5,279,630.1,279z"/>
	<circle fill="#447489" cx="649" cy="269.7" r="5.3"/>
	<circle fill="#447489" cx="722.8" cy="422.9" r="5.3"/>
	<circle fill="#9F7579" cx="653.1" cy="382.4" r="5.3"/>
	<circle fill="#4E839A" cx="743.2" cy="483" r="5.3"/>
</g>
<g>
	<g>
		<rect x="1015" y="159.2" fill="#9F573C" width="241.4" height="63.8"/>
		<path fill="#C18368" d="M1125.9,473c-25,10-54,9-82,3c-0.7-0.2-1.4-0.3-2.1-0.5v42.2h187.7V377.9c-9.1,0.8-17.5,5.7-23.6,11.1
			C1175.9,416,1161.9,459,1125.9,473z"/>
		<path fill="#D29557" d="M1090.9,382c15,21,33,54,60,42c28.1-12.8,48.9-42.2,78.6-52.5v-9.4c-3.3,0.9-6.5,2.3-9.6,3.9
			c-23,14-44,28-67,43c-23,14-44-7-58-28c-12-18.1-32-27.1-53.1-25.7v11.1C1059.8,362.2,1080.2,366.3,1090.9,382z"/>
		<path fill="#C8876B" d="M1150.9,424c-27,12-45-21-60-42c-10.8-15.7-31.1-19.8-49.1-15.6v109.1c0.7,0.2,1.4,0.4,2.1,0.5
			c28,6,57,7,82-3c36-14,50-57,80-84c6.1-5.4,14.5-10.4,23.6-11.1v-6.4C1199.9,381.8,1179,411.2,1150.9,424z"/>
		<path fill="#CB8C6E" d="M1170.9,346c-7,11-15,20-24,29c-11,11-28,4-41-2c-21-10.1-40.8-29.9-64.1-33v15.3
			c21.1-1.3,41.1,7.7,53.1,25.7c14,21,35,42,58,28c23-15,44-29,67-43c3.1-1.7,6.3-3,9.6-3.9v-87.5
			C1201,280.7,1185.6,320.7,1170.9,346z"/>
		<path fill="#D18D70" d="M1077.9,302c10.4-17.4-16.9-27.2-36.1-35.4v41.6C1056,307.7,1071.5,312.3,1077.9,302z"/>
		<path fill="#D39F59" d="M1098.9,306c4-4,0-14-5-18c-15.4-13.6-41.3-13.2-52.1-31.5v10.1c19.2,8.2,46.5,18,36.1,35.4
			c-6.4,10.3-21.9,5.7-36.1,6.1v12.9c0,0,0.1-0.1,0.1-0.1C1057.9,306,1084.9,321,1098.9,306z"/>
		<path fill="#D18D70" d="M1179.9,312c-4,1-9,0-13-2c-31-27-60-54-96-69c-9.3-3.9-19.1-0.6-29.1,2v13.5
			c10.8,18.3,36.7,17.9,52.1,31.5c5,4,9,14,5,18c-14,15-41,0-57,15c0,0-0.1,0.1-0.1,0.1V340c23.3,3.1,43.1,22.9,64.1,33
			c13,6,30,13,41,2c9-9,17-18,24-29c6.9-11.8,13.9-26.9,22.3-40.1C1188.9,308.3,1184.5,310.6,1179.9,312z"/>
		<path fill="#D39F59" d="M1227.9,262c-20,23-48,41-77,21c-33.9-23.1-69.1-59.2-109.1-56.4V243c10-2.6,19.8-5.9,29.1-2
			c36,15,65,42,96,69c4,2,9,3,13,2c4.6-1.4,9-3.7,13.3-6.1c9.6-15.1,21.1-28,36.3-31.3v-13.9C1228.9,261,1228.4,261.4,1227.9,262z"
			/>
		<path fill="#D18D70" d="M1041.8,223v3.6c40-2.8,75.2,33.3,109.1,56.4c29,20,57,2,77-21c0.5-0.6,1-1,1.6-1.4V223H1041.8z"/>
		<g>
			<circle fill="#8C8E90" cx="1129.8" cy="132.4" r="8"/>
			<circle fill="#8C8E90" cx="1166.6" cy="63.9" r="8"/>
			<circle fill="#8C8E90" cx="1116.5" cy="147.2" r="3.9"/>
			<path fill="#8C8E90" d="M1199.5,82.9h-29.4c-4-6.6-11.3-11-19.6-11h-44c-12.7,0-23,10.3-23,23v0c0,12.7,10.3,23,23,23h29.4
				c4,6.6,11.3,11,19.6,11h44c12.7,0,23-10.3,23-23v0C1222.5,93.2,1212.2,82.9,1199.5,82.9z"/>
			<path fill="#8C8E90" d="M1224.4,52.6h-31.7c-7.5,0-13.5,6-13.5,13.5v0c0,7.5,6,13.5,13.5,13.5h31.7c7.5,0,13.5-6,13.5-13.5v0
				C1237.9,58.7,1231.8,52.6,1224.4,52.6z"/>
		</g>
	</g>
	<polygon fill="#9F573C" points="1175.8,241.3 1154.4,241.3 1147.8,223 1182.2,223 	"/>
	<polygon fill="#9F573C" points="1233,241.3 1211.6,241.3 1205,223 1239.3,223 	"/>
	<polygon fill="#9F573C" points="1060.4,241.3 1039,241.3 1032.4,223 1066.7,223 	"/>
	<polygon fill="#9F573C" points="1118.5,241.3 1097.1,241.3 1090.5,223 1124.8,223 	"/>
	<circle fill="#FEBD40" cx="1107.7" cy="220.3" r="5.3"/>
	<circle fill="#FEBD40" cx="1049.5" cy="220.3" r="5.3"/>
	<circle fill="#FEBD40" cx="1224.2" cy="220.3" r="5.3"/>
	<circle fill="#FEBD40" cx="1166.1" cy="220.3" r="5.3"/>
	<rect x="1009" y="169.7" fill="#FEBD40" width="253.4" height="6.7"/>
	<rect x="1037" y="491.5" fill="#FEBD40" width="197.4" height="13.8"/>
</g>
<g>
	<rect x="77" y="595.2" fill="#9F573C" width="354" height="55.5"/>
	<g>
		<path fill="#6D4F50" d="M356.3,807.6c0.3-3.5,0.5-7,0.5-10.5c0-56.7-46.1-102.8-102.8-102.8c-56.7,0-102.8,46.1-102.8,102.8
			c0,4.3,0.3,8.7,0.8,13l0.1,0.8v60.7h204.1v-63.3L356.3,807.6z"/>
		<path fill="#D18D70" d="M95.3,650.7v182.1h31.9v-20.3c-0.6-5.1-0.9-10.2-0.9-15.3c0-70.5,57.3-127.8,127.8-127.8
			c70.5,0,127.8,57.3,127.8,127.8c0,4.1-0.2,8.3-0.6,12.3v23.2h31.6V650.7H95.3z"/>
		<path fill="#9F573C" d="M381.8,797.1c0-70.5-57.3-127.8-127.8-127.8c-70.5,0-127.8,57.3-127.8,127.8c0,5.1,0.3,10.2,0.9,15.3v20.3
			h25v-21.8l-0.1-0.8c-0.5-4.3-0.8-8.7-0.8-13c0-56.7,46.1-102.8,102.8-102.8c56.7,0,102.8,46.1,102.8,102.8c0,3.5-0.2,7-0.5,10.5
			l-0.1,0.6v24.5h25v-23.2C381.6,805.4,381.8,801.2,381.8,797.1z"/>
	</g>
	<g>
		<defs>
			<path id="SVGID_1_" d="M95.3,650.7v182.1h31.9v-20.3c-0.6-5.1-0.9-10.2-0.9-15.3c0-70.5,57.3-127.8,127.8-127.8
				c70.5,0,127.8,57.3,127.8,127.8c0,4.1-0.2,8.3-0.6,12.3v23.2h31.6V650.7H95.3z"/>
		</defs>
		<clipPath id="SVGID_2_">
			<use xlink:href="#SVGID_1_"  overflow="visible"/>
		</clipPath>
		<g clip-path="url(#SVGID_2_)">
			<rect x="254" y="650.7" fill="#E39254" width="40.8" height="47"/>
			<rect x="400.9" y="650.7" fill="#C86E4D" width="40.8" height="47"/>
			<rect x="302.7" y="650.7" fill="#B06143" width="90.7" height="47"/>
			<rect x="351" y="702.7" fill="#B06143" width="90.7" height="47"/>
			<rect x="254" y="702.7" fill="#C86E4D" width="90.7" height="47"/>
			<rect x="254" y="755.7" fill="#B06143" width="40.8" height="47"/>
			<rect x="400.9" y="755.7" fill="#C86E4D" width="40.8" height="47"/>
			<rect x="302.7" y="755.7" fill="#E39254" width="90.7" height="47"/>
			<rect x="351" y="807.7" fill="#C86E4D" width="90.7" height="47"/>
			<rect x="254" y="807.7" fill="#B06143" width="90.7" height="47"/>
			<rect x="254" y="861.2" fill="#C86E4D" width="40.8" height="47"/>
			<rect x="400.9" y="861.2" fill="#E39254" width="40.8" height="47"/>
			<rect x="302.7" y="861.2" fill="#C86E4D" width="90.7" height="47"/>
			<rect x="351" y="913.2" fill="#B06143" width="90.7" height="27.1"/>
			<rect x="254" y="913.2" fill="#C86E4D" width="90.7" height="27.1"/>
			<rect x="66.3" y="650.7" fill="#E39254" width="40.8" height="47"/>
			<rect x="213.2" y="650.7" fill="#E39254" width="40.8" height="47"/>
			<rect x="115" y="650.7" fill="#B06143" width="90.7" height="47"/>
			<rect x="163.4" y="702.7" fill="#B06143" width="90.7" height="47"/>
			<rect x="66.3" y="702.7" fill="#C86E4D" width="90.7" height="47"/>
			<rect x="66.3" y="755.7" fill="#B06143" width="40.8" height="47"/>
			<rect x="213.2" y="755.7" fill="#C86E4D" width="40.8" height="47"/>
			<rect x="115" y="755.7" fill="#E39254" width="90.7" height="47"/>
			<rect x="163.4" y="807.7" fill="#C86E4D" width="90.7" height="47"/>
			<rect x="66.3" y="807.7" fill="#B06143" width="90.7" height="47"/>
			<rect x="66.3" y="861.2" fill="#C86E4D" width="40.8" height="47"/>
			<rect x="213.2" y="861.2" fill="#E39254" width="40.8" height="47"/>
			<rect x="115" y="861.2" fill="#C86E4D" width="90.7" height="47"/>
			<rect x="163.4" y="913.2" fill="#B06143" width="90.7" height="27.1"/>
			<rect x="66.3" y="913.2" fill="#C86E4D" width="90.7" height="27.1"/>
		</g>
	</g>
	<rect x="82.9" y="832.7" fill="#9F573C" width="69.2" height="38.9"/>
	<rect x="356.2" y="832.7" fill="#9F573C" width="69.2" height="38.9"/>
</g>
<g>
	<path fill="#447489" d="M808.5,595.2H685.9c15.9,7.6,29.8,20.4,47.1,25.8c8.2,2.9,16.6,3.8,25.3,3.4c11.2-3.5,22-9.2,31.7-16.4
		C796,603.8,802.2,599.1,808.5,595.2z"/>
	<path fill="#447489" d="M570,636c13-4,26-10,36-20c6.2-6.2,10.5-14.8,16.5-20.8h-81.8c-11,0-19.8,8.9-19.8,19.8v7.9
		C534.9,633.5,553,639.6,570,636z"/>
	<path fill="#3A6578" d="M733,621c-17.2-5.4-31.2-18.3-47.1-25.8h-63.4c-6,6-10.3,14.6-16.5,20.8c-10,10-23,16-36,20
		c-17,3.6-35.1-2.5-49.1-13.1v7.9c0,11,8.9,19.8,19.8,19.8h84.6c-0.1-8.6,0.9-16.8,5.7-23.7c10-13,24-26,41-24c15,2,25,17,39,21
		c15.6,5.8,31.9,5.2,47.3,0.4C749.6,624.8,741.2,623.9,733,621z"/>
	<path fill="#365F71" d="M855,595.2h-46.5c-6.4,4-12.5,8.6-18.5,12.8c-9.7,7.2-20.5,12.9-31.7,16.4c-15.4,4.8-31.7,5.4-47.3-0.4
		c-14-4-24-19-39-21c-17-2-31,11-41,24c-4.8,6.8-5.8,15-5.7,23.7H855c11,0,19.8-8.9,19.8-19.8V615C874.8,604,866,595.2,855,595.2z"
		/>
	<g>
		<path fill="#1B3C49" d="M800.1,807.6c0.3-3.5,0.5-7,0.5-10.5c0-56.7-46.1-102.8-102.8-102.8c-56.7,0-102.8,46.1-102.8,102.8
			c0,4.3,0.3,8.7,0.8,13l0.1,0.8v60.7h204.1v-63.3L800.1,807.6z"/>
		<path fill="#8EA8B6" d="M539.1,650.7v7.7c11.2,16.8,17,43.9,38.9,38.6c19-5,33-22,52-14c2,0.8,4.1,1.5,6.3,2.2
			c18.3-10.1,39.3-15.9,61.6-15.9c27.7,0,53.3,8.9,74.3,23.9c11.8-13,21.4-30,32.8-42.6H539.1z"/>
		<path fill="#8AA3B1" d="M578,697c-21.9,5.3-27.7-21.8-38.9-38.6v87.8c8.5,5.2,16.2,11.2,23.9,2.9c14-16,23-38,41-47
			c3.8-2.1,8.4-3.4,13.1-3.9c5.9-4.9,12.3-9.2,19.1-12.9c-2.1-0.7-4.2-1.4-6.3-2.2C611,675,597,692,578,697z"/>
		<path fill="#839BA7" d="M805,650.7c-11.4,12.5-21.1,29.6-32.8,42.6c10.6,7.6,20.1,16.9,27.9,27.3c4.8-7.9,9.9-14.8,19.9-16.5
			c12.6-2.1,24.7-1.3,36.6,0.5v-53.8H805z"/>
		<path fill="#839BA7" d="M563,749c-7.7,8.3-15.4,2.3-23.9-2.9V772c10.5,8.9,19.5,20.4,31,25.5c0-0.1,0-0.2,0-0.3
			c0-39.9,18.4-75.6,47.1-99c-4.8,0.4-9.3,1.8-13.1,3.9C586,711,577,733,563,749z"/>
		<path fill="#7C949F" d="M539.1,832.7H571v-20.3c-0.6-5-0.9-10-0.9-15c-11.5-5.1-20.4-16.6-31-25.5V832.7z"/>
		<path fill="#7C949F" d="M820,704c-10,1.8-15.1,8.7-19.9,16.5c16,21.4,25.6,47.9,25.6,76.6c0,4.1-0.2,8.3-0.6,12.3v23.2h31.6V704.5
			C844.7,702.7,832.6,701.9,820,704z"/>
		<path fill="#839BA7" d="M825.6,797.1c0-70.5-57.3-127.8-127.8-127.8c-70.5,0-127.8,57.3-127.8,127.8c0,5.1,0.3,10.2,0.9,15.3v20.3
			h25v-21.8l-0.1-0.8c-0.5-4.3-0.8-8.7-0.8-13c0-56.7,46.1-102.8,102.8-102.8c56.7,0,102.8,46.1,102.8,102.8c0,3.5-0.2,7-0.5,10.5
			l-0.1,0.6v24.5h25v-23.2C825.4,805.4,825.6,801.2,825.6,797.1z"/>
	</g>
	<path fill="#3A6578" d="M536.5,871.6H596v-38.9h-59.4c-5.4,0-9.8,4.4-9.8,9.8v19.3C526.7,867.2,531.1,871.6,536.5,871.6z"/>
	<path fill="#3A6578" d="M800.1,871.6h59.4c5.4,0,9.8-4.4,9.8-9.8v-19.3c0-5.4-4.4-9.8-9.8-9.8h-59.4V871.6z"/>
	<path fill="#365F71" d="M773.4,727.5c0,0,17.8-17.3,22.3-15s17.8,24.5,18,26s-23.4,17.8-23.9,17.3
		C789.3,755.3,773.4,727.5,773.4,727.5z"/>
	<path fill="#365F71" d="M798.8,793.3c0,0,25.3-7.8,28-4.8s0,8.3,0,9.3s-27.3,0.3-28,0S798.8,793.3,798.8,793.3z"/>
	<path fill="#3E6C80" d="M798.4,801.8c0,0,25.2-1.8,27.3,0s-0.6,31-0.6,31h-26.6C798.4,832.7,795.3,813.3,798.4,801.8z"/>
	<path fill="#3E6C80" d="M740.3,706.8c0,0,8.5-29.5,7.8-30s-7.8-6.3-10-4s-9,30.5-5.8,31.8S740.3,706.8,740.3,706.8z"/>
	<path fill="#365F71" d="M734,672.2c0,0-3.3,28.5-5.8,28.3s-20.8-4-24.8-4s-3-29.5-1.5-29S732.2,669.3,734,672.2z"/>
	<path fill="#3E6C80" d="M696.3,667.5c0,0,2.4,29.5,1.6,29.5c-0.8,0-4.6,0.5-5.3,0s-6.3-29.5-6.3-29.5S695.9,663.4,696.3,667.5z"/>
	<path fill="#3E6C80" d="M682,669.3l6.8,26.7c0,0-25,4.8-29.3,8c0,0-10.8-18.3-8.3-27.3S681.2,666.3,682,669.3z"/>
	<path fill="#3E6C80" d="M652.8,706.8c0,0-0.5-7.2-5.3-6.2c-4.8,1-15.8,7.2-10.5,16.7C637,717.3,651,711.8,652.8,706.8z"/>
	<path fill="#3E6C80" d="M650.9,692.8c0,0-3.8-14.3-6.7-13.5c-2.9,0.8-7.5,1.7-6.6,5.2c0.9,3.5,10.6,13.5,13.3,14
		S650.9,692.8,650.9,692.8z"/>
	<path fill="#365F71" d="M632.3,686c0,0,13.3,9.4,12.5,12.6c-0.8,3.2-10.9,5.5-12.5,13.2s-16.5-13.8-16.5-14.5
		S630.2,685.6,632.3,686z"/>
	<path fill="#3E6C80" d="M742.1,705.8c0,0,2.8-9.8,10.6-6s8.9,14.9,6.6,17.8S741.5,707.4,742.1,705.8z"/>
	<path fill="#365F71" d="M752.2,679.8c0,0-5.7,15.7-4.1,17.4s10.6-13.7,10.1-14.7S753.8,679,752.2,679.8z"/>
	<path fill="#3E6C80" d="M760.4,684c0,0-9.3,10.5-7.4,12.2c1.9,1.7,6.4,7.8,6.4,7.8s11.2-11.4,9-14.5
		C766.2,686.3,763,684.2,760.4,684z"/>
	<path fill="#3E6C80" d="M771.2,691.3c0,0-10.8,17.8-9.7,26.6c0,0,8.4,7.7,9.7,8.1s19.7-17.5,18.3-19.3S775,688.7,771.2,691.3z"/>
	<path fill="#3E6C80" d="M611.9,702.7c0,0,20.7,16.3,18.4,19.3s-12.9,11.2-13.3,11.7s-19-20.1-18.8-20.3S609.2,700.6,611.9,702.7z"
		/>
	<path fill="#365F71" d="M597,717.3c0,0,18.8,18.8,18.8,20.1c-0.1,1.3-4.8,6.7-5.1,7.5c-0.3,0.8-21.5-16.7-21.5-16.7
		S591.9,716.5,597,717.3z"/>
	<path fill="#3E6C80" d="M585,734.5c0,0,11.8,5.4,12.3,7.2s-6.3,9-6.2,11.2c0.2,2.2-0.8,7.5-3.5,7.8c-2.7,0.3-12.5-3.5-12.5-3.5
		S578.2,740.3,585,734.5z"/>
	<path fill="#365F71" d="M608.8,748.3c0,0-6.2-3.2-8.3-2.7s-3.4,3.8-3.1,4.5c0.3,0.7,6.5,8,7.1,7.5S609.4,750,608.8,748.3z"/>
	<path fill="#3E6C80" d="M596.5,753.7c0,0-11.8,13.5,4.2,13.2c0,0,3.4-5.9,2.4-6.6C602.2,759.5,598.7,752.7,596.5,753.7z"/>
	<path fill="#3E6C80" d="M599.8,770.2c0,0-25.7-7.5-27.5-5.7c-1.8,1.8-2.8,19.2-2.3,20.3c0.5,1.1,24.7,7,25.9,4.7
		S600.5,772,599.8,770.2z"/>
	<path fill="#365F71" d="M596,792.5c0,0-27.8-4.8-27.8-4s-1.9,8.1,1.9,8.6s24.9,1.5,25.9,0S596,792.5,596,792.5z"/>
	<path fill="#3E6C80" d="M596,799.7c0,0-14.6,0-15,2.5s-0.4,14,1.1,14.8s14.6,2.2,15.3,0C598,814.8,596,799.7,596,799.7z"/>
	<path fill="#3E6C80" d="M596.4,820.3c0,0-26.2-0.8-26.4,0c-0.2,0.8-0.9,11.3,0,11.5c0.9,0.2,26.4-1.7,26.4-1.7
		S598.4,822.6,596.4,820.3z"/>
	<path fill="#365F71" d="M569.6,801.7c0,0,7.3-4.2,9.2,0.8c2,5,0.7,14.3,0.7,14.3s-8.5,1.7-9.9,0
		C568.2,815.2,568.7,802.1,569.6,801.7z"/>
	<path fill="#3E6C80" d="M826.5,785c0,0-12.6-0.3-13.3-1s-2.7-12.5-4.2-15s9.3-15,12-13.2S828.9,782.2,826.5,785z"/>
	<path fill="#3E6C80" d="M797,775.2c0,0,5-6.9,7.6-4.9c2.7,2,4.5,8.4,3,9.4s-9.3,3.3-9.3,3.3L797,775.2z"/>
	<path fill="#365F71" d="M799.9,785c0,0,7.3-4.3,8.9-3.2c1.6,1.2,1.2,4.7,0,4.7c-1.2,0-8.9,1.3-8.9,1.3S798.7,785.7,799.9,785z"/>
	<path fill="#3E6C80" d="M797,770.1c0,0,22.8-15.4,21.8-17.4s-4.5-11.3-5.1-11s-23.6,15.7-22.1,16.3S793.9,769.9,797,770.1z"/>
	<path fill="#3E6C80" d="M856.6,684c0,0-30.3-6-31,5.5c-0.6,11.5,31,4.9,31,4.9S861.7,688,856.6,684z"/>
	<path fill="#9F7579" d="M817,706c0,0-2.3-4,1.9-4.2c4.1-0.2,21.6-1.5,22.5,1.1C842.2,705.5,831.5,713.2,817,706z"/>
	<path fill="#3E6C80" d="M537,754.8c0,0-1.5-3.2,7.3-3.7s20.3,2.9,19,6.7S538,765,537,754.8z"/>
	<path fill="#3E6C80" d="M554,744c0,0-4-6.1,7.2-6.7c11.2-0.5,12.8,2.5,12.2,4.8C572.7,744.5,556.8,746.7,554,744z"/>
	<path fill="#9F7579" d="M538,743.8c0,0,11.4-0.3,11.6,1.1s-11,3.3-12.1,2.7C536.4,747,536.5,743,538,743.8z"/>
	<path fill="#3E6C80" d="M841.4,709c0,0,11.1-2.9,14,0C858.2,711.8,843.4,713.5,841.4,709z"/>
	<path fill="#3E6C80" d="M568.3,648c0,0-3.8,9,8,7.5c11.8-1.5,27.7-0.5,27.5-1.8C603.7,652.3,597.6,641.3,568.3,648z"/>
	<path fill="#3E6C80" d="M555.5,658.4c0,0,31.2-2.3,32.8,0c1.7,2.3,3.3,6.5-3.7,7.1S556.5,672,555.5,658.4z"/>
	<path fill="#9F7579" d="M593.3,658.4c0,0,15.9-3,16.4-1S593.1,661,593.3,658.4z"/>
</g>
<g>
	<rect x="958.7" y="595.2" fill="#9F573C" width="354" height="55.5"/>
	<g>
		<path fill="#6D4F50" d="M1237.9,807.6c0.3-3.5,0.5-7,0.5-10.5c0-56.7-46.1-102.8-102.8-102.8c-56.7,0-102.8,46.1-102.8,102.8
			c0,4.3,0.3,8.7,0.8,13l0.1,0.8v60.7h204.1v-63.3L1237.9,807.6z"/>
		<path fill="#D39F59" d="M1263,774c-0.5-0.2-1.1-0.4-1.7-0.4c0.5,2.5,0.8,5,1.2,7.5c10.6,1.1,11.9,14.2,19.6,20.9
			c4,2.7,8.1,3.1,12.4,3.1v-12.4C1282,793.4,1273.5,782.1,1263,774z"/>
		<path fill="#C18368" d="M1262.4,781.1c0.7,5.3,1,10.6,1,16.1c0,4.1-0.2,8.3-0.6,12.3v23.2h31.6v-27.6c-4.3,0-8.4-0.4-12.4-3.1
			C1274.3,795.3,1273.1,782.2,1262.4,781.1z"/>
		<path fill="#C18368" d="M1263,774c10.5,8.1,19,19.4,31.4,18.7v-13.5c-6.5-0.8-12.7-3.5-17.4-9.3c-8.5-10.4-14.4-21.8-26.1-28
			c4.8,9.9,8.3,20.5,10.3,31.6C1261.9,773.6,1262.5,773.8,1263,774z"/>
		<path fill="#C18368" d="M989,802c-3.8,6.3-7.6,11.8-12.1,15.7v15h31.9v-20.3c-0.5-4.4-0.8-8.9-0.9-13.3c-0.7,0.3-1.4,0.6-1.9,0.9
			C1001,803,992,797,989,802z"/>
		<path fill="#D39F59" d="M1008.2,788.7c-10.1,7-19.9,12.9-31.3,9.4v19.7c4.5-3.9,8.3-9.4,12.1-15.7c3-5,12,1,17-2
			c0.5-0.3,1.2-0.5,1.9-0.9c0-0.7,0-1.3,0-2C1007.9,794.3,1008,791.5,1008.2,788.7z"/>
		<path fill="#C18368" d="M1008.2,788.7c0.2-2.4,0.4-4.7,0.7-7.1c-13.9-6.1-23.1-18.8-31.9-32.2v48.6
			C988.3,801.5,998,795.6,1008.2,788.7z"/>
		<path fill="#C8876B" d="M984,751c-2.8-1.6-5.1-3.6-7.1-6v4.4c8.9,13.4,18,26.1,31.9,32.2c3.7-30,17.8-56.9,38.6-76.8
			c-16,11.2-30.6,26.4-45.4,38.2C996,747,991,755,984,751z"/>
		<path fill="#D18D70" d="M976.9,650.7v33.5c4.6,4.1,8.9,8.6,14.1,11.8c14,9,27-10,41-14c14.1-5.8,29.6-2,44.7,1.8
			c17.6-9.2,37.7-14.4,58.9-14.4c14.4,0,28.2,2.4,41.1,6.8c21.7-3.5,46.6,14.2,67.3,21.9c21,7,30-12,45-24c1.6-1.1,3.4-1.8,5.4-2.3
			v-21H976.9z"/>
		<path fill="#D18D70" d="M981,713c-1.1,0.3-2.6,0.3-4.1,0.1V745c2,2.4,4.3,4.4,7.1,6c7,4,12-4,18-8c14.9-11.8,29.5-27,45.4-38.2
			c4-3.8,8.2-7.3,12.6-10.6C1034.9,677.8,1006.3,704,981,713z"/>
		<path fill="#D39F59" d="M1032,682c-14,4-27,23-41,14c-5.2-3.2-9.5-7.7-14.1-11.8v29c1.5,0.2,3,0.2,4.1-0.1
			c25.3-9,53.9-35.2,79-18.8c5.3-3.9,10.8-7.4,16.7-10.4C1061.6,680,1046.1,676.2,1032,682z"/>
		<path fill="#D39F59" d="M1289,674c-15,12-24,31-45,24c-20.7-7.7-45.5-25.3-67.3-21.9c9.3,3.2,18.1,7.4,26.3,12.5
			c18.3,2.4,34.7,11.5,52,18.4c-6,7.7-14.4,6.9-23.1,6.2c2.5,2.8,4.9,5.8,7.1,8.8c3.8,1,7.3,0.7,10-2c12.9-13.8,26.6-31.2,45.4-28.8
			v-19.5C1292.4,672.2,1290.6,672.9,1289,674z"/>
		<path fill="#C8876B" d="M1255,707c-17.2-6.9-33.7-16-52-18.4c10.8,6.7,20.5,15,28.9,24.6C1240.6,713.9,1249,714.7,1255,707z"/>
		<path fill="#C8876B" d="M1249,720c-2.8,2.8-6.2,3-10,2c4.6,6.3,8.6,12.9,12,20c11.7,6.3,17.5,17.6,26.1,28
			c4.8,5.7,10.9,8.5,17.4,9.3v-88.1C1275.6,688.8,1261.9,706.2,1249,720z"/>
		<path fill="#9F573C" d="M1263.5,797.1c0-70.5-57.3-127.8-127.8-127.8c-70.5,0-127.8,57.3-127.8,127.8c0,5.1,0.3,10.2,0.9,15.3
			v20.3h25v-21.8l-0.1-0.8c-0.5-4.3-0.8-8.7-0.8-13c0-56.7,46.1-102.8,102.8-102.8c56.7,0,102.8,46.1,102.8,102.8
			c0,3.5-0.2,7-0.5,10.5l-0.1,0.6v24.5h25v-23.2C1263.3,805.4,1263.5,801.2,1263.5,797.1z"/>
	</g>
	<rect x="964.6" y="832.7" fill="#9F573C" width="69.2" height="38.9"/>
	<rect x="1237.9" y="832.7" fill="#9F573C" width="69.2" height="38.9"/>
	<polygon fill="#9F573C" points="1175.8,668.3 1154.4,668.3 1147.8,650 1182.2,650 	"/>
	<polygon fill="#9F573C" points="1233,668.3 1211.6,668.3 1205,650 1239.3,650 	"/>
	<polygon fill="#9F573C" points="1060.4,668.3 1039,668.3 1032.4,650 1066.7,650 	"/>
	<polygon fill="#9F573C" points="1118.5,668.3 1097.1,668.3 1090.5,650 1124.8,650 	"/>
	<circle fill="#FEBD40" cx="1107.7" cy="647.3" r="5.3"/>
	<circle fill="#FEBD40" cx="1049.5" cy="647.3" r="5.3"/>
	<polygon fill="#9F573C" points="1004.9,668.3 983.5,668.3 976.9,650 1011.2,650 	"/>
	<circle fill="#FEBD40" cx="994.1" cy="647.3" r="5.3"/>
	<circle fill="#FEBD40" cx="1224.2" cy="647.3" r="5.3"/>
	<circle fill="#FEBD40" cx="1239.3" cy="747" r="5.3"/>
	<circle fill="#FEBD40" cx="1135.7" cy="683.3" r="5.3"/>
	<circle fill="#FEBD40" cx="1203" cy="703.5" r="5.3"/>
	<circle fill="#FEBD40" cx="1250" cy="813" r="5.3"/>
	<ellipse fill="#FEBD40" cx="1032.2" cy="747" rx="5.3" ry="5.3"/>
	<ellipse fill="#FEBD40" cx="1068.4" cy="703.5" rx="5.3" ry="5.3"/>
	<ellipse fill="#FEBD40" cx="1021.6" cy="813" rx="5.3" ry="5.3"/>
	<polygon fill="#9F573C" points="1290.4,668.3 1269,668.3 1262.4,650 1296.7,650 	"/>
	<circle fill="#FEBD40" cx="1281.6" cy="647.3" r="5.3"/>
	<circle fill="#FEBD40" cx="1166.1" cy="647.3" r="5.3"/>
	<rect x="954.3" y="606" fill="#FEBD40" width="362.8" height="6.7"/>
	<rect x="954.3" y="619.6" fill="#FEBD40" width="362.8" height="6.7"/>
	<rect x="1236.2" y="848.8" fill="#FEBD40" width="73.4" height="6.7"/>
	<rect x="962.5" y="848.8" fill="#FEBD40" width="73.4" height="6.7"/>
</g>
</svg>
