<?xml version="1.0" encoding="utf-8"?>
<!-- Generator: Adobe Illustrator 16.0.0, SVG Export Plug-In . SVG Version: 6.00 Build 0)  -->
<!DOCTYPE svg PUBLIC "-//W3C//DTD SVG 1.0//EN" "http://www.w3.org/TR/2001/REC-SVG-20010904/DTD/svg10.dtd" [
	<!ENTITY ns_flows "http://ns.adobe.com/Flows/1.0/">
	<!ENTITY ns_extend "http://ns.adobe.com/Extensibility/1.0/">
	<!ENTITY ns_ai "http://ns.adobe.com/AdobeIllustrator/10.0/">
	<!ENTITY ns_graphs "http://ns.adobe.com/Graphs/1.0/">
	<!ENTITY ns_vars "http://ns.adobe.com/Variables/1.0/">
	<!ENTITY ns_imrep "http://ns.adobe.com/ImageReplacement/1.0/">
	<!ENTITY ns_sfw "http://ns.adobe.com/SaveForWeb/1.0/">
	<!ENTITY ns_custom "http://ns.adobe.com/GenericCustomNamespace/1.0/">
	<!ENTITY ns_adobe_xpath "http://ns.adobe.com/XPath/1.0/">
]>
<svg version="1.0" id="Layer_1" xmlns:x="&ns_extend;" xmlns:i="&ns_ai;" xmlns:graph="&ns_graphs;"
	 xmlns="http://www.w3.org/2000/svg" xmlns:xlink="http://www.w3.org/1999/xlink" xmlns:a="http://ns.adobe.com/AdobeSVGViewerExtensions/3.0/"
	 x="0px" y="0px" width="1400px" height="980px" viewBox="0 0 1400 980" enable-background="new 0 0 1400 980" xml:space="preserve"
	>
<metadata>
	<sfw  xmlns="&ns_sfw;">
		<slices></slices>
		<sliceSourceBounds  x="0" y="-980" height="980" width="1400" bottomLeftOrigin="true"></sliceSourceBounds>
	</sfw>
</metadata>
<rect fill="#F9F2F2" width="1400" height="980"/>
<g>
	<g>
		
			<path fill="#37C2DA" stroke="#1B1A1A" stroke-width="3" stroke-linecap="round" stroke-linejoin="round" stroke-miterlimit="10" d="
			M494.211,737.424c0,0,3.324,2.572,7.433,2.785c4.11,0.213,4.11,0.213,4.11,0.213l2.288,10.318l2.901-12.232
			c0,0,9.826,0.01,19.812-3.495c0.292-0.103,0.582-0.207,0.874-0.315c10.279-3.82,3.145,35.221,4.357,41.334
			s3.837,12.32-0.109,16.958s-22.031,13.273-29.568,18.48c-7.537,5.207-30.839,12.022-44.414,4.823
			c-13.576-7.198-3.762-15.943-3.762-15.943s-8.261-13.55,6.453-23.364c14.713-9.813,31.909-6.641,31.751-9.699
			c-0.158-3.06-3.197-29.957-3.197-29.957"/>
		<path fill="#F9F2F2" stroke="#1B1A1A" stroke-width="3" stroke-miterlimit="10" d="M535.877,792.989
			c3.187-3.745,2.089-8.513,0.91-13.428l0,0c-10.666,11.215-30.3,27.084-51.875,28.146c-21.574,1.062-26.779-7.357-26.779-7.357
			s-9.813,8.745,3.762,15.943c13.575,7.199,36.877,0.384,44.414-4.823C513.846,806.263,531.931,797.627,535.877,792.989z"/>
	</g>
	<g>
		
			<path fill="#37C2DA" stroke="#1B1A1A" stroke-width="3" stroke-linecap="round" stroke-linejoin="round" stroke-miterlimit="10" d="
			M588.557,737.424c0,0-3.323,2.572-7.433,2.785s-4.11,0.213-4.11,0.213l-2.287,10.318l-2.901-12.232c0,0-9.826,0.01-19.813-3.495
			c-0.291-0.103-0.582-0.207-0.874-0.315c-10.279-3.82-3.145,35.221-4.357,41.334s-3.837,12.32,0.11,16.958
			c3.946,4.638,22.031,13.273,29.568,18.48c7.537,5.207,30.838,12.022,44.414,4.823c13.575-7.198,3.762-15.943,3.762-15.943
			s8.261-13.55-6.452-23.364c-14.713-9.813-33.481-8.388-33.323-11.446c0.158-3.06,4.768-28.21,4.768-28.21"/>
		<path fill="#F9F2F2" stroke="#1B1A1A" stroke-width="3" stroke-miterlimit="10" d="M546.892,792.989
			c-3.187-3.745-2.089-8.513-0.91-13.428l0,0c10.667,11.215,30.301,27.084,51.875,28.146s26.779-7.357,26.779-7.357
			s9.813,8.745-3.762,15.943c-13.576,7.199-36.877,0.384-44.414-4.823C568.922,806.263,550.838,797.627,546.892,792.989z"/>
	</g>
	<path fill="none" stroke="#1B1A1A" stroke-width="3" stroke-linecap="round" stroke-linejoin="round" stroke-miterlimit="10" d="
		M282.573,687.632c0,0,198.736-74.127,368.508,1.221"/>
	<path fill="none" stroke="#1B1A1A" stroke-width="3" stroke-linecap="round" stroke-linejoin="round" stroke-miterlimit="10" d="
		M798.598,690.562c0,0,141.082-36.549,345.846,4.654"/>
	<path fill="none" stroke="#1B1A1A" stroke-width="3" stroke-linecap="round" stroke-linejoin="round" stroke-miterlimit="10" d="
		M267.681,756.73c0,0,457.927-167.333,900.962,18.799"/>
	<g>
		<g>
			<path fill="#F9F2F2" stroke="#1B1A1A" stroke-width="3" stroke-miterlimit="10" d="M830.701,557.643
				c0,0,4.27,117.696,18.754,191.643c0,0,10.416,6.739,23.894,6.127c0,0,2.897-110.79,4.288-149.482
				c1.54-42.803,3.677-53.299,3.677-53.299S842.954,541.714,830.701,557.643z"/>
			
				<path fill="#F26D82" stroke="#1B1A1A" stroke-width="3" stroke-linecap="round" stroke-linejoin="round" stroke-miterlimit="10" d="
				M837.664,660.666c0,0,6.251,5.979,21.195,6.251c14.945,0.271,17.935-7.882,17.935-7.882s0.273,80.979,0,86.959
				c-0.271,5.978,1.089,11.685-2.173,14.945c-3.261,3.261-10.056,4.348-20.11,11.142c-10.055,6.793-25.271,11.958-40.49,9.241
				c-15.216-2.719-22.01-12.229-14.674-17.122c0,0-6.25-19.292,10.599-26.358s29.621-7.066,30.707-11.686
				C841.738,721.536,837.664,660.666,837.664,660.666z"/>
			<path fill="#F9F2F2" stroke="#1B1A1A" stroke-width="3" stroke-linejoin="round" stroke-miterlimit="10" d="M874.621,760.939
				c2.033-2.033,2.271-5.02,2.226-8.428c-4.861,3.097-7.783,3.687-17.063,7.649c-8.498,3.628-14.62,9.217-33.165,12.396
				c-18.544,3.178-27.271-8.356-27.271-8.356c-7.336,4.893-0.542,14.403,14.674,17.122c15.219,2.717,30.436-2.448,40.49-9.241
				C864.565,765.287,871.36,764.2,874.621,760.939z"/>
		</g>
		<g>
			<path fill="#F9F2F2" stroke="#1B1A1A" stroke-width="3" stroke-miterlimit="10" d="M928.907,557.643
				c0,0-4.271,117.696-18.755,191.643c0,0-10.416,6.739-23.894,6.127c0,0-2.897-110.79-4.288-149.482
				c-1.54-42.803-3.677-53.299-3.677-53.299S916.653,541.714,928.907,557.643z"/>
			
				<path fill="#F26D82" stroke="#1B1A1A" stroke-width="3" stroke-linecap="round" stroke-linejoin="round" stroke-miterlimit="10" d="
				M921.943,660.666c0,0-6.25,5.979-21.195,6.251c-14.945,0.271-17.935-7.882-17.935-7.882s-0.272,80.979,0,86.959
				c0.271,5.978-1.088,11.685,2.173,14.945s10.056,4.348,20.11,11.142c10.055,6.793,25.272,11.958,40.49,9.241
				c15.217-2.719,22.01-12.229,14.674-17.122c0,0,6.251-19.292-10.599-26.358c-16.849-7.066-29.621-7.066-30.707-11.686
				C917.869,721.536,921.943,660.666,921.943,660.666z"/>
			<path fill="#F9F2F2" stroke="#1B1A1A" stroke-width="3" stroke-linejoin="round" stroke-miterlimit="10" d="M884.986,760.939
				c-2.033-2.033-2.271-5.02-2.226-8.428c4.861,3.097,7.783,3.687,17.064,7.649c8.497,3.628,14.62,9.217,33.165,12.396
				c18.544,3.178,27.271-8.356,27.271-8.356c7.336,4.893,0.543,14.403-14.674,17.122c-15.218,2.717-30.436-2.448-40.49-9.241
				C895.042,765.287,888.247,764.2,884.986,760.939z"/>
		</g>
		<path fill="#37C2DA" stroke="#1B1A1A" stroke-width="3" stroke-linecap="round" stroke-miterlimit="10" d="M919.75,343.48
			c0,0,23.87,3.738,31.171,18.653c7.3,14.915,27.415,78.836,27.415,78.836s-5.148,14.927-19.38,19.248
			c-14.23,4.321-23.229-11.466-23.229-11.466l27.728,179.87c0,0-42.474,12.633-84.069,14.96l0.364-239.517
			c0,0,22.852-15.837,26.694-27.709S919.75,343.48,919.75,343.48z"/>
		<path fill="#F9F2F2" stroke="#1B1A1A" stroke-width="3" stroke-miterlimit="10" d="M855.227,337.141c0,0,3.62-3.029,12.055-4.83
			c8.436-1.8,22.684-7.359,23.937-5.511c1.252,1.849,15.679,26.048,15.679,26.048s-4.619,26.622-13.944,38.441
			c-9.324,11.819-21.424,14.195-22.82,12.774c-1.396-1.42-14.919-21.543-14.905-22.651S855.227,337.141,855.227,337.141z"/>
		<path fill="#37C2DA" stroke="#1B1A1A" stroke-width="3" stroke-linecap="round" stroke-miterlimit="10" d="M839.366,343.48
			c0,0-23.87,3.738-31.171,18.653S780.78,440.97,780.78,440.97s5.148,14.927,19.38,19.248c14.23,4.321,23.229-11.466,23.229-11.466
			l-29.142,177.165c0,0,33.027,20.176,85.139,17.665l-0.02-239.517c0,0-22.852-15.837-26.695-27.709
			C848.828,364.483,839.366,343.48,839.366,343.48z"/>
		<path fill="#F9CB93" stroke="#1B1A1A" stroke-width="3" stroke-linecap="round" stroke-miterlimit="10" d="M819.045,235.11
			c0-0.931-2.173-16.643,7.445-35.934c9.618-19.291,27.923-19.291,27.923-19.291s5.161-14.582,33.295-16.753
			s41.984,17.064,41.984,17.064s20.276,1.241,29.895,11.479c9.618,10.238,21.516,42.136-4.653,62.128h-9.355
			c0,0-3.365-4.112-9.26-6.594s-15.558-3.585-15.558-3.585L819.045,235.11z"/>
		<path fill="#E86767" stroke="#1B1A1A" stroke-width="3" stroke-linejoin="round" stroke-miterlimit="10" d="M823.389,278.559
			c0,0-1.551,7.858-9.618,12.656c-8.066,4.798-7.757,21.695,3.412,23.484c0,0-7.135,11.771,3.104,22.293s28.232-0.999,28.232-0.999
			s1.552,7.487,8.997,7.487c7.446,0,9.766-11.169,9.766-11.169l-5.122-73.011c0,0-6.355-9.104-19.15-3.88
			S823.389,278.559,823.389,278.559z"/>
		<path fill="#E86767" stroke="#1B1A1A" stroke-width="3" stroke-linejoin="round" stroke-miterlimit="10" d="M935.11,278.559
			c0,0,1.551,7.858,9.617,12.656c8.067,4.798,7.757,21.695-3.412,23.484c0,0,7.136,11.771-3.103,22.293s-28.232-0.999-28.232-0.999
			s-1.552,7.487-8.998,7.487c-7.445,0-9.765-11.169-9.765-11.169l5.122-73.011c0,0,6.355-9.104,19.15-3.88
			S935.11,278.559,935.11,278.559z"/>
		<path fill="#F9F2F2" stroke="#1B1A1A" stroke-width="3" stroke-miterlimit="10" d="M828.016,242.115c0,0,0.369,18.307,3.638,33.84
			c0,0,6.47,36.923,15.226,47.962c8.755,11.039,31.975,13.224,31.975,13.224s23.22-2.185,31.975-13.224
			c8.755-11.039,15.227-47.962,15.227-47.962c3.269-15.534,3.638-33.84,3.638-33.84
			C912.942,237.547,844.764,237.547,828.016,242.115z"/>
		<path fill="none" stroke="#1B1A1A" stroke-width="3" stroke-linecap="round" stroke-miterlimit="10" d="M865.977,285.106
			c0,0-2.198-7.788-10.985-8.987c-8.787-1.198-11.982,8.987-11.982,8.987c-0.454,0.047-2.911-0.027-3.643-2.681"/>
		<path fill="none" stroke="#1B1A1A" stroke-width="3" stroke-linecap="round" stroke-miterlimit="10" d="M887.709,285.106
			c0,0,2.196-7.788,10.983-8.987c8.787-1.198,11.983,8.987,11.983,8.987s3.167,1.136,5.064-2.658"/>
		<circle fill="#F37778" cx="851.063" cy="299.81" r="8.054"/>
		<circle fill="#F37778" cx="904.411" cy="299.81" r="8.054"/>
		<path fill="none" stroke="#F37778" stroke-width="3" stroke-linecap="round" stroke-miterlimit="10" d="M867.281,313.675
			c0,0,6.117,5.526,10.707,5.528c8.096,0.004,13.229-6.713,13.229-6.713"/>
		<path fill="none" stroke="#1B1A1A" stroke-width="3" stroke-linecap="round" stroke-miterlimit="10" d="M913.237,279.706
			c0,0-0.915,3.054-3.779,2.689"/>
		<path fill="none" stroke="#1B1A1A" stroke-width="3" stroke-linecap="round" stroke-miterlimit="10" d="M841.293,279.706
			c0,0,0.719,2.583,2.916,2.72"/>
		<path fill="#E86767" stroke="#1B1A1A" stroke-width="3" stroke-linejoin="round" stroke-miterlimit="10" d="M820.286,277.304"/>
		<path fill="#F9CB93" stroke="#1B1A1A" stroke-width="3" stroke-linecap="round" stroke-miterlimit="10" d="M823.389,279.706
			c0,0,3.413-17.757,48.089-20.007s60.498,15.894,62.359,20.007c0,0,9.928-23.73-0.62-49.87c0,0-13.962-25.13-59.568-22.027
			c-42.151,2.868-55.174,19.467-55.174,19.467S810.048,261.17,823.389,279.706z"/>
		<path fill="none" stroke="#1B1A1A" stroke-width="3" stroke-linecap="round" stroke-linejoin="round" stroke-miterlimit="10" d="
			M823.389,279.706c0,0-0.93,7.782-12.41,10.601c-11.479,2.82-13.34,13.826-9.308,16.544c4.033,2.718,5.274,8.757,2.481,8.996
			c-2.792,0.238-4.343,6.443-0.31,7.374"/>
		<path fill="none" stroke="#1B1A1A" stroke-width="3" stroke-linecap="round" stroke-linejoin="round" stroke-miterlimit="10" d="
			M933.837,279.706c0,0-2.799,6.852,6.204,11.754c9.004,4.902,20.167,11.281,15.514,18.108c-4.654,6.827-7.446,11.792-2.793,13.653
			c4.654,1.861,7.136-3.341,2.482-4.018"/>
		<path fill="#F9CB93" stroke="#1B1A1A" stroke-width="3" stroke-linecap="round" stroke-miterlimit="10" d="M933.426,227.275
			c0,0,11.937,4.774,16.878-10.139"/>
		<path fill="#F9CB93" stroke="#1B1A1A" stroke-width="3" stroke-linecap="round" stroke-miterlimit="10" d="M859.117,207.543
			c-0.36-0.355-6.464-10.326,0-17.906"/>
		<path fill="#F9CB93" stroke="#1B1A1A" stroke-width="3" stroke-linecap="round" stroke-miterlimit="10" d="M929.127,179.476
			c0,0,9.674,4.135,3.158,19.026"/>
		
			<circle fill="#37C2DA" stroke="#1B1A1A" stroke-width="3" stroke-linecap="round" stroke-miterlimit="10" cx="949.14" cy="263.242" r="11.068"/>
		<path fill="#F9F2F2" stroke="#1B1A1A" stroke-width="3" stroke-miterlimit="10" d="M846.879,323.917c0,0-5.195,0.119-7.513,2.883
			c-2.316,2.765-1.628,7.982-1.628,7.982s-4.711,0.63-6.346,6.639c-1.636,6.009,3.834,12.572,3.834,12.572s-3.1,4.246-1.276,8.139
			s5.032,4.623,5.032,4.623s-3.354,7.82,0,12.114c3.354,4.293,8.641,4.111,8.641,4.111s-1.689,6.199,3.439,10.938
			c5.129,4.74,8.055,3.282,8.055,3.282s1.936,7.292,8.164,9.844c6.229,2.552,11.572,2.37,11.572,2.37s1.151-8.204,0-15.496
			c-1.15-7.292-6.255-10.573-6.255-10.573s2.918-4.376,1.095-8.386c-1.823-4.011-4.193-5.834-4.193-5.834s1.095-4.193,1.276-9.844
			c0.182-5.652-4.8-9.116-4.8-9.116s1.639-4.558,1.305-8.021c-0.333-3.464-1.71-5.003-1.71-5.003l-0.8-2.872
			C864.771,334.269,852.515,330.848,846.879,323.917z"/>
		<path fill="#F9F2F2" stroke="#1B1A1A" stroke-width="3" stroke-miterlimit="10" d="M910.071,323.917c0,0,5.195,0.119,7.513,2.883
			c2.316,2.765,1.628,7.982,1.628,7.982s4.711,0.63,6.346,6.639s-3.834,12.572-3.834,12.572s3.1,4.246,1.276,8.139
			s-5.033,4.623-5.033,4.623s3.354,7.82,0,12.114c-3.354,4.293-8.64,4.111-8.64,4.111s1.689,6.199-3.439,10.938
			c-5.129,4.74-8.056,3.282-8.056,3.282s-1.935,7.292-8.163,9.844c-6.229,2.552-11.573,2.37-11.573,2.37s-1.15-8.204,0-15.496
			c1.151-7.292,6.256-10.573,6.256-10.573s-2.918-4.376-1.095-8.386c1.823-4.011,4.193-5.834,4.193-5.834s-1.095-4.193-1.276-9.844
			c-0.182-5.652,4.8-9.116,4.8-9.116s-1.639-4.558-1.305-8.021c0.333-3.464,1.71-5.003,1.71-5.003l0.8-2.872
			C892.179,334.269,904.435,330.848,910.071,323.917z"/>
		
			<circle fill="#37C2DA" stroke="#1B1A1A" stroke-width="3" stroke-linecap="round" stroke-miterlimit="10" cx="886.73" cy="427.55" r="4.487"/>
		
			<circle fill="#37C2DA" stroke="#1B1A1A" stroke-width="3" stroke-linecap="round" stroke-miterlimit="10" cx="886.73" cy="467.534" r="4.487"/>
		
			<circle fill="#37C2DA" stroke="#1B1A1A" stroke-width="3" stroke-linecap="round" stroke-miterlimit="10" cx="886.73" cy="507.517" r="4.487"/>
		
			<circle fill="#37C2DA" stroke="#1B1A1A" stroke-width="3" stroke-linecap="round" stroke-miterlimit="10" cx="886.73" cy="547.499" r="4.487"/>
		<path fill="#F9F2F2" stroke="#1B1A1A" stroke-width="3" stroke-linejoin="round" stroke-miterlimit="10" d="M789.021,611.921
			c0,0-1.313-7.961,7.896-11.546c9.208-3.585,17.842,3.322,17.842,3.322s1.895-4.014,7.815-3.322
			c5.921,0.69,7.895,11.546,7.895,11.546s4.934-5.263,12.829-3.289c7.895,1.974,9.54,12.5,9.54,12.5s5.399-3.947,10.924-2.632
			c5.523,1.315,6.511,5.922,6.511,5.922s2.655-7.237,10.537-7.896s15.12,7.896,15.12,7.896s1.644-6.251,8.552-7.566
			c6.907-1.316,9.539,0.986,9.539,0.986s2.303-10.287,11.184-12.709c8.882-2.422,13.815,1.525,13.815,1.525
			s-1.038-10.526,12.146-8.881c0,0,4.96-6.908,14.828-3.948c9.868,2.961,12.499,21.382,1.315,30.593c0,0-0.329,7.375-6.25,9.443
			s-11.514-1.55-11.514-1.55s1.001,7.895-8.381,12.171c-9.381,4.277-15.631,0-15.631,0s-0.301,6.578-6.072,7.895
			c-5.77,1.316-11.034-5.263-11.034-5.263s-2.63,8.881-14.473,11.184c-11.842,2.304-16.196-5.263-16.196-5.263
			s-1.896,3.618-10.777,3.618s-10.855-4.605-10.855-4.605s-5.264,5.92-14.802,4.276c-9.539-1.644-15.828-9.21-15.828-9.21
			s-7.527,1.315-12.79-1.974s-7.947-8.882-7.947-8.882S781.455,632.314,789.021,611.921z"/>
		<g>
			<path fill="#F9F2F2" stroke="#1B1A1A" stroke-width="3" stroke-miterlimit="10" d="M822.832,374.859
				c0,0,44.334,6.801,58.817,7.179v86.148c0,0-41.06-4.912-58.817-16.247V374.859z"/>
			<path fill="#F9F2F2" stroke="#1B1A1A" stroke-width="3" stroke-miterlimit="10" d="M941.655,374.859
				c0,0-44.335,6.801-58.818,7.179v86.148c0,0,41.061-4.912,58.818-16.247V374.859z"/>
			<path fill="#F26D82" stroke="#1B1A1A" stroke-width="3" stroke-linecap="round" stroke-miterlimit="10" d="M871.875,381.338
				c0,0,4.558-2.574,9.774,0.7l1.116,35.614l-6.333-4l-4.558,1.565V381.338z"/>
		</g>
		<g>
			<g>
				<path fill="#F9F2F2" stroke="#1B1A1A" stroke-width="3" stroke-miterlimit="10" d="M823.777,420.512
					c0,0-1.019-3.641-2.712-9.548c-1.692-5.906-1.524-9.638,0.912-10.576s8.266,7.479,10.531,11.994
					c2.265,4.517,10.843,0.115,18.862-1.917c8.021-2.032,11.977,1.513,14.18,4.08c2.203,2.568-1.5,10.292-11.639,14.38
					c-10.14,4.088-13.326,6.713-13.326,6.713S837.094,424.1,823.777,420.512z"/>
				<path fill="#37C2DA" stroke="#1B1A1A" stroke-width="3" stroke-linecap="round" stroke-miterlimit="10" d="M823.777,420.512
					c-23.822-0.202-40.986,15.126-40.986,15.126s-0.542,0.711-1.416,1.869c-0.937,3.601-3.502,17.86,11.767,26.189
					c17.575,9.586,37.369-9.997,47.009-28.637h0.266C836.92,423.211,823.777,420.512,823.777,420.512z"/>
			</g>
			<path fill="#F9F2F2" stroke="#1B1A1A" stroke-width="3" stroke-linejoin="round" stroke-miterlimit="10" d="M822.831,417.158
				c0,0-10.646-2.847-16.767,0c-6.121,2.847-6.461,12.265,0,13.932c0,0-3.401,4.217,1.359,7.958
				c4.761,3.741,6.632,1.922,6.632,1.922s-2.211,13.551,10.882,12.701c0,0,1.53,6.972,9.012,5.441s6.637-23.473,6.637-23.473
				S839.938,423.493,822.831,417.158z"/>
		</g>
		<g>
			<g>
				<path fill="#F9F2F2" stroke="#1B1A1A" stroke-width="3" stroke-miterlimit="10" d="M935.339,420.512
					c0,0,1.019-3.641,2.712-9.548c1.691-5.906,1.524-9.638-0.912-10.576s-8.266,7.479-10.531,11.994
					c-2.265,4.517-10.843,0.115-18.863-1.917c-8.021-2.032-11.976,1.513-14.179,4.08c-2.204,2.568,1.499,10.292,11.639,14.38
					c10.139,4.088,13.325,6.713,13.325,6.713S922.021,424.1,935.339,420.512z"/>
				<path fill="#37C2DA" stroke="#1B1A1A" stroke-width="3" stroke-linecap="round" stroke-miterlimit="10" d="M935.339,420.512
					c23.822-0.202,40.986,15.126,40.986,15.126s0.542,0.711,1.416,1.869c0.937,3.601,3.501,17.86-11.767,26.189
					c-17.575,9.586-37.369-9.997-47.01-28.637H918.7C922.196,423.211,935.339,420.512,935.339,420.512z"/>
			</g>
			<path fill="#F9F2F2" stroke="#1B1A1A" stroke-width="3" stroke-linejoin="round" stroke-miterlimit="10" d="M933.846,420.515
				c0,0,10.646-2.847,16.767,0c6.121,2.847,6.461,12.265,0,13.932c0,0,3.401,4.217-1.359,7.958
				c-4.762,3.741-6.632,1.922-6.632,1.922s2.211,13.551-10.882,12.7c0,0-1.53,6.972-9.012,5.441
				c-7.481-1.53-6.638-23.473-6.638-23.473S916.738,426.851,933.846,420.515z"/>
		</g>
	</g>
	<g>
		<g>
			<path fill="#F9F2F2" stroke="#1B1A1A" stroke-width="3" stroke-miterlimit="10" d="M604.021,517.194
				c-12.916-18.112-61.948-7.138-61.948-7.138s-49.032-10.975-61.947,7.138c0,0-3.983,56.457,0,100.651
				c3.983,44.192,13.414,148.602,13.414,148.602s9.417,11.462,23.065,11.255c13.648-0.207,21.447-4.106,21.447-4.106
				s3.96-1.95,1.331-7.148c-2.631-5.199-1.331-10.026-1.331-10.026s3.96-4.133,1.331-10.376c-2.631-6.244-1.331-11.371-1.331-11.371
				s2.844-153.037,4.021-168.404c1.178,15.367,4.021,168.404,4.021,168.404s1.3,5.127-1.331,11.371
				c-2.629,6.243,1.331,10.376,1.331,10.376s1.3,4.827-1.331,10.026c-2.629,5.198,1.331,7.148,1.331,7.148s7.799,3.899,21.447,4.106
				c13.648,0.207,23.064-11.255,23.064-11.255s9.432-104.409,13.415-148.602C608.004,573.651,604.021,517.194,604.021,517.194z"/>
			<path fill="#F9F2F2" stroke="#1B1A1A" stroke-width="3" stroke-miterlimit="10" d="M592.321,360.683
				c0,0,16.165,1.935,21.585,13.162c5.42,11.227,31.357,62.713,31.357,62.713s6.58,14.026-11.614,18.239
				c-18.194,4.213-30.195-7.723-30.195-7.723l-16.259-36.853L592.321,360.683z"/>
			<path fill="#F9F2F2" stroke="#1B1A1A" stroke-width="3" stroke-miterlimit="10" d="M490.645,360.683
				c0,0-16.166,1.935-21.585,13.162c-5.42,11.227-31.357,62.713-31.357,62.713s-6.58,14.026,11.614,18.239
				c18.194,4.213,30.195-7.723,30.195-7.723l16.259-36.853L490.645,360.683z"/>
			<path fill="#F9F2F2" stroke="#1B1A1A" stroke-width="3" stroke-linejoin="round" stroke-miterlimit="10" d="M541.483,336.738
				c-3.055-9.877-16.022-4.283-16.022-4.283v19.46l16.022,5.101l16.022-5.101v-19.46
				C557.505,332.455,544.538,326.861,541.483,336.738z"/>
			<path fill="#F9CB93" stroke="#1B1A1A" stroke-width="3" stroke-linecap="round" stroke-miterlimit="10" d="M596.873,385.658
				c-0.387-17.081,1.681-25.779,1.681-25.779s-30.328-2.915-39.231-9.109v-6.968c0,0-10.517,3.403-17.84,2.669
				c-7.323,0.734-17.84-2.669-17.84-2.669v6.968c-8.904,6.194-39.231,9.109-39.231,9.109s2.068,8.698,1.681,25.779
				s-8.338,35.377-8.338,35.377v92.711c20.695,14.323,63.729,14.71,63.729,14.71s43.033-0.387,63.728-14.71v-92.711
				C605.211,421.035,597.26,402.739,596.873,385.658z"/>
			<path fill="#F9F2F2" stroke="#1B1A1A" stroke-width="3" stroke-miterlimit="10" d="M490.645,241.712
				c0,0,0.369,18.306,3.637,33.84c0,0,6.471,36.923,15.226,47.962c8.755,11.039,31.975,13.224,31.975,13.224
				s23.22-2.185,31.975-13.224s15.227-47.962,15.227-47.962c3.269-15.534,3.637-33.84,3.637-33.84
				C575.572,237.145,507.393,237.145,490.645,241.712z"/>
			<path fill="#974C4C" stroke="#1B1A1A" stroke-width="3" stroke-linejoin="round" stroke-miterlimit="10" d="M524.891,249.461
				c0,0,6.38,14.176,30.243,16.303c0,0-5.907-4.253-8.033-10.868c0,0,4.489,5.907,14.885,8.742
				c10.396,2.835,21.433,3.098,25.72,17.025c0,0-6.368,27.145-12.027,39.438c0,0,17.73-21.618,22.074-42.715
				c4.343-21.097,10.549-81.596-65.152-81.905c0,0,7.136-7.446,18.615-6.205c0,0-18.615-6.516-28.854,6.205
				c0,0-4.653-6.129-18.304-7.874c0,0,7.446,3.84,9.928,9.735c0,0-24.199,6.07-33.817,39.887
				c-9.618,33.817,11.637,67.748,26.432,81.572c0,0-6.391-14.768-9.354-29.008c-2.963-14.24,1.227-23.886,8.362-29.47
				C512.744,254.738,523.698,253.803,524.891,249.461z"/>
			<path fill="#F9F2F2" stroke="#1B1A1A" stroke-width="3" stroke-miterlimit="10" d="M496.434,284.785
				c0,0-5.195-4.859-10.022-3.203c-4.828,1.656-1.156,18.711,13.645,19.885C500.056,301.468,496.171,290.375,496.434,284.785z"/>
			<path fill="#F9F2F2" stroke="#1B1A1A" stroke-width="3" stroke-miterlimit="10" d="M588.122,284.785
				c0,0,5.194-4.859,10.022-3.203c4.828,1.656,1.156,18.711-13.645,19.885C584.499,301.468,588.383,290.375,588.122,284.785z"/>
			<ellipse fill="#1B1A1A" cx="516.775" cy="286.248" rx="4.614" ry="6.242"/>
			<ellipse fill="#1B1A1A" cx="562.645" cy="287.512" rx="4.614" ry="6.242"/>
			<path fill="#F9F2F2" stroke="#1B1A1A" stroke-width="3" stroke-linecap="round" stroke-miterlimit="10" d="M528.718,315.444
				c0,0,4.355,4.038,10.185,4.656c5.829,0.618,10.986-2.059,15.6-4.656"/>
			<path fill="none" stroke="#1B1A1A" stroke-width="3" stroke-linecap="round" stroke-miterlimit="10" d="M554.502,268.877
				c0.542-0.814,8.697-16.999,20.627-3.528"/>
			<path fill="none" stroke="#1B1A1A" stroke-width="3" stroke-linecap="round" stroke-miterlimit="10" d="M504.833,274.306
				c0,0,8.143-13.571,20.627-3.8"/>
			<path fill="#37C2DA" stroke="#1B1A1A" stroke-width="3" stroke-linecap="round" stroke-miterlimit="10" d="M472.412,253.853
				c0,0-0.868-16.435,4.266-36.966c5.662-22.648,28.621-49.485,52.354-52.742c23.734-3.258,74.227,14.989,74.459,76.214v7.01
				c0,0-32.809-32.809-73.529-20.942C489.242,238.294,472.412,253.853,472.412,253.853z"/>
			<path fill="#37C2DA" stroke="#1B1A1A" stroke-width="3" stroke-linecap="round" stroke-miterlimit="10" d="M540.201,212.477
				c-62.98-0.086-69.363,42.542-69.363,42.542s1.454,14.125,6.545,26.81c5.09,12.685,10.816,13.091,10.816,13.091
				s-2.444-19.598,16.635-33.741c19.079-14.144,35.368-12.343,35.368-12.343s18.7-1.801,37.779,12.343s16.634,33.741,16.634,33.741
				s5.909-0.914,8.877-14.256c3.005-13.503,3.103-30.89,3.103-30.89S608.188,212.57,540.201,212.477z"/>
			
				<line fill="none" stroke="#1B1A1A" stroke-width="3" stroke-miterlimit="10" x1="541.483" y1="346.471" x2="541.483" y2="526.147"/>
			
				<line fill="none" stroke="#1B1A1A" stroke-width="3" stroke-miterlimit="10" x1="487.308" y1="379.944" x2="596.905" y2="379.944"/>
			<path fill="none" stroke="#1B1A1A" stroke-width="3" stroke-miterlimit="10" d="M477.754,491.899c0,0,63.462,21.205,127.457,0"/>
			<path fill="none" stroke="#1B1A1A" stroke-width="3" stroke-miterlimit="10" d="M477.754,468.325c0,0,56.898,18.237,127.457,0"/>
			<g>
				<path fill="#F9F2F2" stroke="#1B1A1A" stroke-width="3" stroke-miterlimit="10" d="M475.351,361.835
					c0,0,47.423,7.275,62.916,7.679v92.152c0,0-43.92-5.255-62.916-17.38V361.835z"/>
				<path fill="#F9F2F2" stroke="#1B1A1A" stroke-width="3" stroke-miterlimit="10" d="M602.454,361.835
					c0,0-47.424,7.275-62.917,7.679v92.152c0,0,43.921-5.255,62.917-17.38V361.835z"/>
				<path fill="#F26D82" stroke="#1B1A1A" stroke-width="3" stroke-linecap="round" stroke-miterlimit="10" d="M527.812,368.766
					c0,0,4.875-2.753,10.455,0.749l1.194,38.097l-6.774-4.278l-4.875,1.673V368.766z"/>
			</g>
			<path fill="#F26D82" stroke="#1B1A1A" stroke-width="3" stroke-linecap="round" stroke-miterlimit="10" d="M655.772,447.012
				c0,0-4.932-12.837-22.346-22.002c-17.415-9.167-28.621-13.042-28.621-13.042s-0.954,15.184-9.147,20.006
				c0,0,6.982,21.318,24.258,34.188C640.958,481.839,660.921,465.417,655.772,447.012z"/>
			<path fill="#F26D82" stroke="#1B1A1A" stroke-width="3" stroke-linecap="round" stroke-miterlimit="10" d="M427.193,447.012
				c0,0,4.932-12.837,22.346-22.002c17.414-9.167,28.621-13.042,28.621-13.042s0.955,15.184,9.147,20.006
				c0,0-6.982,21.318-24.257,34.188C442.007,481.839,422.044,465.417,427.193,447.012z"/>
			<path fill="#37C2DA" stroke="#1B1A1A" stroke-width="3" stroke-linecap="round" stroke-miterlimit="10" d="M484.183,436.396
				c0,0,6.738-1.573,12.188-0.971c5.451,0.603,9.111-3.457,9.464-6.866c0.354-3.41-1.944-7.605-1.944-7.605s2.127-3.674,0.85-7.315
				c-1.278-3.64-5.442-3.435-5.442-3.435s0.556-4.419-0.891-7.002c-1.447-2.583-4.732-2.274-7.436-3.624
				c-2.704-1.349-6.059,3.092-6.059,3.092s-0.017-8.802-1.593-12.342c-1.576-3.541-6.809-0.791-6.809-0.791
				s-0.119,6.968-1.393,11.996c-1.273,5.028-4,13.712-4,13.712S470.922,431.753,484.183,436.396z"/>
			<path fill="#37C2DA" stroke="#1B1A1A" stroke-width="3" stroke-linecap="round" stroke-miterlimit="10" d="M598.783,436.396
				c0,0-6.737-1.573-12.188-0.971c-5.45,0.603-9.11-3.457-9.464-6.866c-0.354-3.41,1.944-7.605,1.944-7.605
				s-2.127-3.674-0.849-7.315c1.278-3.64,5.441-3.435,5.441-3.435s-0.556-4.419,0.891-7.002c1.446-2.583,4.732-2.274,7.435-3.624
				c2.704-1.349,6.059,3.092,6.059,3.092s0.017-8.802,1.594-12.342c1.576-3.541,6.808-0.791,6.808-0.791s0.119,6.968,1.393,11.996
				c1.273,5.028,4,13.712,4,13.712S612.043,431.753,598.783,436.396z"/>
			<path fill="none" stroke="#1B1A1A" stroke-width="3" stroke-linecap="round" stroke-miterlimit="10" d="M521.155,554.153
				c0,0,20.147,25.996,43.545,0"/>
		</g>
		<path fill="none" stroke="#1B1A1A" stroke-width="3" stroke-linecap="round" stroke-miterlimit="10" d="M481.408,554.999
			c0,0,17.388,4.95,25.401-28.852"/>
		<path fill="none" stroke="#1B1A1A" stroke-width="3" stroke-linecap="round" stroke-miterlimit="10" d="M575.13,526.147
			c0,0,2.266,26.201,27.81,31.498"/>
	</g>
	<g>
		<g>
			<g>
				<path fill="#F9F2F2" stroke="#1B1A1A" stroke-width="3" stroke-miterlimit="10" d="M663.894,593.824
					c0,0,4.27,117.696,18.755,191.643c0,0,10.416,6.74,23.893,6.127c0,0,2.898-110.789,4.289-149.481
					c1.539-42.804,3.677-53.299,3.677-53.299S676.147,577.896,663.894,593.824z"/>
				
					<path fill="#37C2DA" stroke="#1B1A1A" stroke-width="3" stroke-linecap="round" stroke-linejoin="round" stroke-miterlimit="10" d="
					M670.857,696.848c0,0,6.25,5.979,21.195,6.251c14.946,0.271,17.935-7.882,17.935-7.882s0.272,80.979,0,86.959
					c-0.271,5.978,1.088,11.685-2.173,14.945c-3.261,3.262-10.056,4.348-20.11,11.142s-25.272,11.958-40.49,9.241
					c-15.217-2.719-22.01-12.229-14.674-17.121c0,0-6.251-19.293,10.598-26.359c16.849-7.066,29.621-7.066,30.708-11.686
					C674.932,757.718,670.857,696.848,670.857,696.848z"/>
				<path fill="#F9F2F2" stroke="#1B1A1A" stroke-width="3" stroke-linejoin="round" stroke-miterlimit="10" d="M707.814,797.121
					c2.033-2.033,2.271-5.02,2.226-8.428c-4.862,3.097-7.783,3.687-17.064,7.649c-8.498,3.628-14.62,9.217-33.165,12.396
					c-18.544,3.178-27.271-8.355-27.271-8.355c-7.336,4.892-0.543,14.402,14.674,17.121c15.218,2.717,30.436-2.447,40.49-9.241
					S704.554,800.383,707.814,797.121z"/>
			</g>
			<path fill="none" stroke="#1B1A1A" stroke-width="3" stroke-linecap="round" stroke-miterlimit="10" d="M643.034,774.157
				c0,0,13.792-4.82,17.396,9.189"/>
			<path fill="none" stroke="#1B1A1A" stroke-width="3" stroke-linecap="round" stroke-miterlimit="10" d="M655.195,769.887
				c0,0,13.792-4.82,17.396,9.189"/>
			<path fill="none" stroke="#1B1A1A" stroke-width="3" stroke-linecap="round" stroke-miterlimit="10" d="M666.377,766.34
				c0,0,13.792-4.819,17.396,9.189"/>
			<circle fill="#1B1A1A" cx="661.051" cy="784.563" r="2.843"/>
			<circle fill="#1B1A1A" cx="672.592" cy="780.503" r="2.843"/>
			<circle fill="#1B1A1A" cx="683.773" cy="776.924" r="2.843"/>
		</g>
		<g>
			<g>
				<path fill="#F9F2F2" stroke="#1B1A1A" stroke-width="3" stroke-miterlimit="10" d="M763.076,593.824
					c0,0-4.271,117.696-18.755,191.643c0,0-10.415,6.74-23.893,6.127c0,0-2.897-110.789-4.288-149.481
					c-1.54-42.804-3.678-53.299-3.678-53.299S750.824,577.896,763.076,593.824z"/>
				
					<path fill="#37C2DA" stroke="#1B1A1A" stroke-width="3" stroke-linecap="round" stroke-linejoin="round" stroke-miterlimit="10" d="
					M756.113,696.848c0,0-6.251,5.979-21.195,6.251c-14.945,0.271-17.936-7.882-17.936-7.882s-0.272,80.979,0,86.959
					c0.272,5.978-1.087,11.685,2.174,14.945c3.26,3.262,10.055,4.348,20.109,11.142s25.272,11.958,40.491,9.241
					c15.216-2.719,22.009-12.229,14.674-17.121c0,0,6.25-19.293-10.599-26.359c-16.85-7.066-29.621-7.066-30.707-11.686
					C752.038,757.718,756.113,696.848,756.113,696.848z"/>
				<path fill="#F9F2F2" stroke="#1B1A1A" stroke-width="3" stroke-linejoin="round" stroke-miterlimit="10" d="M719.156,797.121
					c-2.034-2.033-2.271-5.02-2.227-8.428c4.863,3.097,7.784,3.687,17.064,7.649c8.498,3.628,14.621,9.217,33.165,12.396
					c18.544,3.178,27.271-8.355,27.271-8.355c7.335,4.892,0.542,14.402-14.674,17.121c-15.219,2.717-30.437-2.447-40.491-9.241
					S722.416,800.383,719.156,797.121z"/>
			</g>
			<path fill="none" stroke="#1B1A1A" stroke-width="3" stroke-linecap="round" stroke-miterlimit="10" d="M783.937,774.157
				c0,0-13.793-4.82-17.396,9.189"/>
			<path fill="none" stroke="#1B1A1A" stroke-width="3" stroke-linecap="round" stroke-miterlimit="10" d="M771.774,769.887
				c0,0-13.792-4.82-17.396,9.189"/>
			<path fill="none" stroke="#1B1A1A" stroke-width="3" stroke-linecap="round" stroke-miterlimit="10" d="M760.593,766.34
				c0,0-13.792-4.819-17.396,9.189"/>
			<circle fill="#1B1A1A" cx="765.919" cy="784.563" r="2.843"/>
			<circle fill="#1B1A1A" cx="754.378" cy="780.503" r="2.842"/>
			<circle fill="#1B1A1A" cx="743.197" cy="776.924" r="2.842"/>
		</g>
		<path fill="#F26D82" stroke="#1B1A1A" stroke-width="3" stroke-linecap="round" stroke-miterlimit="10" d="M707.279,260.311
			c0,0-5.279-1.43-6.051-5.94c-0.77-4.511,3.026-4.071,3.026-4.071s-3.136-7.151,2.145-9.131c5.281-1.98,6.931,0.661,6.931,0.661
			s0.44-4.291,5.391-4.071c4.951,0.22,5.942,4.181,5.831,4.511c-0.11,0.33,2.64-2.42,6.49,0.22c3.852,2.641,2.201,7.921,2.201,7.921
			s3.946-1.298,4.95,5.61c1.003,6.909-9.791,13.532-9.791,13.532S706.51,266.032,707.279,260.311z"/>
		<path fill="#F26D82" stroke="#1B1A1A" stroke-width="3" stroke-linecap="round" stroke-miterlimit="10" d="M653.684,330.074
			c0,0-0.225-20.276,18.897-46.89s37.711-25.768,37.711-25.768s7.323-0.429,10.632-0.003c3.258,0.419,42.041,4.117,46.119,51.104
			c0.06,0.699,0.112,1.407,0.158,2.125C770.275,359.644,701.842,288.253,653.684,330.074z"/>
		<path fill="#F9F2F2" stroke="#1B1A1A" stroke-width="3" stroke-miterlimit="10" d="M661.23,331.427c0,0,0.369,18.307,3.638,33.841
			c0,0,6.47,36.923,15.226,47.962c8.755,11.039,31.974,13.224,31.974,13.224s23.221-2.185,31.976-13.224
			s15.227-47.962,15.227-47.962c3.269-15.534,3.638-33.841,3.638-33.841C746.157,326.859,677.979,326.859,661.23,331.427z"/>
		<path fill="none" stroke="#1B1A1A" stroke-width="3" stroke-linecap="round" stroke-miterlimit="10" d="M699.19,374.418
			c0,0-2.197-7.788-10.984-8.986c-8.787-1.198-11.983,8.986-11.983,8.986c-0.454,0.047-2.911-0.027-3.642-2.681"/>
		<path fill="none" stroke="#1B1A1A" stroke-width="3" stroke-linecap="round" stroke-miterlimit="10" d="M720.924,374.418
			c0,0,2.195-7.788,10.983-8.986c8.787-1.198,11.983,8.986,11.983,8.986s3.166,1.136,5.064-2.658"/>
		<path fill="#D88B8B" stroke="#1B1A1A" stroke-width="3" stroke-linejoin="round" stroke-miterlimit="10" d="M691.902,332.261
			c0,0,8.431,23.522,43.271,23.078c0,0-11.318-0.444-20.416-13.314c0,0,4.23,6.436,17.649,8.432
			c13.417,1.997,24.59,13.615,23.33,31.439c0,0-3.63,17.814-9.656,28.248c-6.026,10.434-20.142,13.5-20.142,13.5v8.25
			c0,0,38.626,6.96,61.425-9.829c0,0-8.089,0.188-10.03-14.58c-2.122-16.137,4.292-80.945-21.698-101.198
			c-21.844-17.02-50.796-18.902-67.929-4.388c0,0-21.521-3.713-31.647,21.603c-10.126,25.315-3.713,61.095-7.088,77.297
			s-15.597,13.456-15.597,13.456s12.169,13.275,27.855,17.961c7.675,2.293,33.984,0.312,33.984,0.312l0.166-9.789
			c0,0-16.149-4.498-21.226-21.302s-6.618-37.768,0.47-47.557C681.713,344.092,691.291,342.37,691.902,332.261z"/>
		<circle fill="#F37778" cx="684.278" cy="389.122" r="8.054"/>
		<circle fill="#F37778" cx="737.625" cy="389.122" r="8.054"/>
		<path fill="none" stroke="#F37778" stroke-width="3" stroke-linecap="round" stroke-miterlimit="10" d="M700.496,402.987
			c0,0,6.118,5.526,10.708,5.528c8.096,0.004,13.229-6.713,13.229-6.713"/>
		<path fill="none" stroke="#1B1A1A" stroke-width="3" stroke-linecap="round" stroke-miterlimit="10" d="M746.452,369.018
			c0,0-0.915,3.055-3.779,2.689"/>
		<path fill="none" stroke="#1B1A1A" stroke-width="3" stroke-linecap="round" stroke-miterlimit="10" d="M674.508,369.018
			c0,0,0.718,2.583,2.917,2.72"/>
		<path fill="#F26D82" stroke="#1B1A1A" stroke-width="3" stroke-linecap="round" stroke-miterlimit="10" d="M795.75,653.479
			l-24.504-87.511v-2.051c-2.66-22.503-16.812-28.804-31.551-27.736c-11.605,0.841-22.934,8.618-27.231,11.892
			c-4.296-3.273-15.625-11.051-27.229-11.892c-14.741-1.067-28.892,5.233-31.552,27.736v2.051l-24.506,87.511
			c0,0,23.437,22.896,81.473,23.821v0.032c0.609,0,1.211-0.007,1.813-0.011c0.604,0.004,1.204,0.011,1.814,0.011v-0.032
			C772.314,676.376,795.75,653.479,795.75,653.479z"/>
		<path fill="#F9CB93" stroke="#1B1A1A" stroke-width="3" stroke-linecap="round" stroke-miterlimit="10" d="M796.828,537.807
			c0,0-7.987-56.452-19.703-78.287c-11.719-21.836-38.824-27.01-38.824-27.01l-27.012,12.387l-27.011-12.387
			c0,0-27.107,5.174-38.824,27.01c-11.716,21.835-19.705,78.287-19.705,78.287s-6.055,17.453,11.52,27.04
			c17.575,9.586,37.369-9.998,47.009-28.637h23.078h7.864h23.08c9.64,18.639,29.433,38.223,47.008,28.637
			C802.884,555.26,796.828,537.807,796.828,537.807z"/>
		<path fill="#37C2DA" stroke="#1B1A1A" stroke-width="3" stroke-linecap="round" stroke-miterlimit="10" d="M639.363,474.614
			c-2.943,9.103-5.508,19.684-7.595,29.557c74.74,15.013,138.055,3.731,158.844-0.936c-2.216-10.378-4.952-21.455-8.093-30.725
			C731.662,490.211,670.381,481.236,639.363,474.614z"/>
		<path fill="#37C2DA" stroke="#1B1A1A" stroke-width="3" stroke-linecap="round" stroke-miterlimit="10" d="M776.615,458.601
			c-11.972-21.062-38.314-26.091-38.314-26.091l-27.012,12.387l-27.011-12.387c0,0-25.6,4.889-37.797,25.206
			C666.755,462.671,721.184,473.059,776.615,458.601z"/>
		<path fill="#37C2DA" stroke="#1B1A1A" stroke-width="3" stroke-linecap="round" stroke-miterlimit="10" d="M685.886,418.287
			c0,0-3.836,14.242,1.902,22.343c0,0,25.102,15.189,47.149-2.363c0,0,3.418-8.923-2.289-16.951c0,0-7.44,5.812-20.581,5.137
			C698.927,425.778,685.886,418.287,685.886,418.287z"/>
		<path fill="#37C2DA" stroke="#1B1A1A" stroke-width="3" stroke-linecap="round" stroke-miterlimit="10" d="M718.145,426.237
			c0,0,0.112-2.147,7.876-4.51c7.763-2.363,13.84-3.44,13.84-3.44s7.762,2.09,8.774,25.38s1.013,52.995,18.566,70.208
			c0,0-0.536,10.465-10.395,14.853s-27.748,1.351-31.799-12.489C720.956,502.4,727.94,449.489,718.145,426.237z"/>
		<path fill="#F9F2F2" stroke="#1B1A1A" stroke-width="3" stroke-miterlimit="10" d="M657.748,469.659
			c0,0,39.605,6.075,52.544,6.413v76.96c0,0-36.68-4.389-52.544-14.515V469.659z"/>
		<path fill="#F9F2F2" stroke="#1B1A1A" stroke-width="3" stroke-miterlimit="10" d="M763.897,469.659
			c0,0-39.605,6.075-52.545,6.413v76.96c0,0,36.681-4.389,52.545-14.515V469.659z"/>
		<path fill="#F9F2F2" stroke="#1B1A1A" stroke-width="3" stroke-miterlimit="10" d="M667.905,521.662c0,0-1.02-3.641-2.712-9.548
			c-1.692-5.906-1.524-9.639,0.913-10.577c2.436-0.938,8.266,7.479,10.531,11.994c2.265,4.517,10.843,0.116,18.864-1.916
			c8.021-2.033,11.975,1.512,14.178,4.08c2.204,2.567-1.499,10.292-11.638,14.38c-10.14,4.089-13.326,6.714-13.326,6.714
			S681.222,525.251,667.905,521.662z"/>
		<path fill="#F9F2F2" stroke="#1B1A1A" stroke-width="3" stroke-miterlimit="10" d="M754.674,521.662c0,0,1.02-3.641,2.713-9.548
			c1.692-5.906,1.522-9.639-0.913-10.577c-2.436-0.938-8.266,7.479-10.531,11.994c-2.265,4.517-10.843,0.116-18.863-1.916
			c-8.021-2.033-11.977,1.512-14.18,4.08c-2.203,2.567,1.5,10.292,11.64,14.38c10.141,4.089,13.325,6.714,13.325,6.714
			S741.356,525.251,754.674,521.662z"/>
		<path fill="#37C2DA" stroke="#1B1A1A" stroke-width="3" stroke-linecap="round" stroke-miterlimit="10" d="M768.206,528.392"/>
		<path fill="#37C2DA" stroke="#1B1A1A" stroke-width="3" stroke-linecap="round" stroke-miterlimit="10" d="M754.674,521.662"/>
		<path fill="#37C2DA" stroke="#1B1A1A" stroke-width="3" stroke-linecap="round" stroke-miterlimit="10" d="M754.264,521.662
			c23.822-0.202,40.986,15.127,40.986,15.127s0.54,0.71,1.417,1.868c0.936,3.602,3.501,17.86-11.768,26.189
			c-17.575,9.586-37.37-9.998-47.01-28.637h-0.266C741.12,524.361,754.264,521.662,754.264,521.662z"/>
		<path fill="#37C2DA" stroke="#1B1A1A" stroke-width="3" stroke-linecap="round" stroke-miterlimit="10" d="M667.905,521.662
			c-23.822-0.202-40.987,15.127-40.987,15.127s-0.541,0.71-1.416,1.868c-0.937,3.602-3.501,17.86,11.767,26.189
			c17.575,9.586,37.369-9.998,47.009-28.637h0.265C681.047,524.361,667.905,521.662,667.905,521.662z"/>
		<path fill="#F26D82" stroke="#1B1A1A" stroke-width="3" stroke-linecap="round" stroke-miterlimit="10" d="M701.561,475.447
			c0,0,4.071-2.3,8.731,0.625l0.997,31.817l-5.657-3.573l-4.071,1.397V475.447z"/>
		<path fill="#F8E4E6" stroke="#1B1A1A" stroke-width="3" stroke-miterlimit="10" d="M650.013,362.738
			c0,0-3.511-28.862,39.577-38.156c43.089-9.293,81.992,12.57,85.351,29.097c0,0,3.366-9.586,1.674-25.678
			c-1.694-16.091-12.718-25.808-12.718-25.808s-52.662-29.992-106.15,8.871C657.748,311.064,636.204,327.812,650.013,362.738z"/>
	</g>
	<path fill="#F9DEE4" stroke="#1B1A1A" stroke-width="3" stroke-miterlimit="10" d="M436.544,368.347
		c0,3.596-2.916,6.512-6.512,6.512h-29.103c-3.596,0-6.512-2.916-6.512-6.512l0,0c0-3.596,2.916-6.512,6.512-6.512h29.103
		C433.628,361.835,436.544,364.751,436.544,368.347L436.544,368.347z"/>
	<path fill="#F9DEE4" stroke="#1B1A1A" stroke-width="3" stroke-miterlimit="10" d="M466.827,625.915
		c0,5.306-4.301,9.606-9.607,9.606h-53.196c-5.306,0-9.607-4.301-9.607-9.606l0,0c0-5.307,4.301-9.607,9.607-9.607h53.196
		C462.526,616.308,466.827,620.608,466.827,625.915L466.827,625.915z"/>
	<path fill="#F9DEE4" stroke="#1B1A1A" stroke-width="3" stroke-miterlimit="10" d="M990.994,507.517
		c0,3.43-2.779,6.209-6.209,6.209H956.84c-3.429,0-6.208-2.779-6.208-6.209l0,0c0-3.43,2.779-6.21,6.208-6.21h27.945
		C988.215,501.307,990.994,504.087,990.994,507.517L990.994,507.517z"/>
	<path fill="#F9DEE4" stroke="#1B1A1A" stroke-width="3" stroke-miterlimit="10" d="M1146.926,649.839
		c0,4.915-3.984,8.899-8.9,8.899h-62.411c-4.916,0-8.899-3.984-8.899-8.899l0,0c0-4.916,3.983-8.9,8.899-8.9h62.411
		C1142.941,640.938,1146.926,644.923,1146.926,649.839L1146.926,649.839z"/>
	<g>
		<path fill="#1B1A1A" d="M1031.812,667.143c0-9.456,0-59.195,0-59.195h-4.019h-2.638h-4.019c0,0,0,49.739,0,59.195
			c0,9.455-2.62,12.454-2.62,12.454h6.639h2.638h6.639C1034.432,679.597,1031.812,676.598,1031.812,667.143z"/>
		<g>
			
				<polygon fill="#F9F2F2" stroke="#1B1A1A" stroke-width="3" stroke-linecap="round" stroke-linejoin="round" stroke-miterlimit="10" points="
				1066.471,602.938 1077.604,602.936 1057.679,574.217 1068.814,574.217 1049.475,546.107 1060.609,545.871 1045.373,522.689 
				1055.042,522.689 1027.793,486.05 1027.793,486.051 1027.791,486.05 1000.542,522.689 1010.211,522.689 994.975,545.871 
				1006.109,546.107 986.77,574.217 997.904,574.217 977.979,602.936 989.114,602.938 973.291,630.937 1027.791,630.937 
				1027.793,630.937 1082.293,630.937 			"/>
			
				<line fill="#F9F2F2" stroke="#1B1A1A" stroke-width="3" stroke-linecap="round" stroke-miterlimit="10" x1="989.114" y1="602.938" x2="1050.647" y2="602.938"/>
			
				<path fill="#F9F2F2" stroke="#1B1A1A" stroke-width="3" stroke-linecap="round" stroke-linejoin="round" stroke-miterlimit="10" d="
				M1058.983,574.217c-1.305,0-46.6,0-46.6,0"/>
			
				<line fill="#F9F2F2" stroke="#1B1A1A" stroke-width="3" stroke-linecap="round" stroke-linejoin="round" stroke-miterlimit="10" x1="1006.109" y1="546.107" x2="1015.399" y2="546.107"/>
			
				<line fill="#F9F2F2" stroke="#1B1A1A" stroke-width="3" stroke-linecap="round" stroke-linejoin="round" stroke-miterlimit="10" x1="1045.373" y1="522.689" x2="1029.379" y2="522.689"/>
		</g>
	</g>
	<g>
		<path fill="#1B1A1A" d="M367.139,651.906c0-14.488,0-90.702,0-90.702h-6.159h-4.041h-6.158c0,0,0,76.214,0,90.702
			s-4.014,19.083-4.014,19.083h10.172h4.041h10.173C371.153,670.989,367.139,666.395,367.139,651.906z"/>
		<g>
			
				<polygon fill="#F9F2F2" stroke="#1B1A1A" stroke-width="3" stroke-linecap="round" stroke-linejoin="round" stroke-miterlimit="10" points="
				420.246,553.527 437.306,553.524 406.774,509.52 423.837,509.52 394.204,466.45 411.265,466.088 387.919,430.566 
				402.734,430.566 360.98,374.426 360.98,374.426 360.979,374.426 319.226,430.566 334.041,430.566 310.694,466.088 
				327.756,466.45 298.123,509.52 315.184,509.52 284.654,553.524 301.716,553.527 277.47,596.43 360.979,596.43 360.98,596.43 
				444.49,596.43 			"/>
			
				<line fill="#F9F2F2" stroke="#1B1A1A" stroke-width="3" stroke-linecap="round" stroke-miterlimit="10" x1="301.716" y1="553.527" x2="396" y2="553.527"/>
			
				<path fill="#F9F2F2" stroke="#1B1A1A" stroke-width="3" stroke-linecap="round" stroke-linejoin="round" stroke-miterlimit="10" d="
				M408.773,509.52c-1.999,0-71.403,0-71.403,0"/>
			
				<line fill="#F9F2F2" stroke="#1B1A1A" stroke-width="3" stroke-linecap="round" stroke-linejoin="round" stroke-miterlimit="10" x1="327.756" y1="466.45" x2="341.991" y2="466.45"/>
			
				<line fill="#F9F2F2" stroke="#1B1A1A" stroke-width="3" stroke-linecap="round" stroke-linejoin="round" stroke-miterlimit="10" x1="387.919" y1="430.566" x2="363.411" y2="430.566"/>
		</g>
	</g>
	<path fill="#F9F2F2" stroke="#1B1A1A" stroke-width="3" stroke-miterlimit="10" d="M363.411,293.849
		c0,9.846-7.981,17.827-17.828,17.827l0,0c-9.846,0-17.827-7.981-17.827-17.827l0,0c0-9.846,7.981-17.828,17.827-17.828l0,0
		C355.429,276.021,363.411,284.003,363.411,293.849L363.411,293.849z"/>
	<path fill="#F9F2F2" stroke="#1B1A1A" stroke-width="3" stroke-miterlimit="10" d="M1026.474,405.037
		c0,4.341-3.519,7.86-7.859,7.86l0,0c-4.341,0-7.859-3.519-7.859-7.86l0,0c0-4.341,3.519-7.86,7.859-7.86l0,0
		C1022.955,397.177,1026.474,400.696,1026.474,405.037L1026.474,405.037z"/>
	<path fill="#F9F2F2" stroke="#1B1A1A" stroke-width="3" stroke-miterlimit="10" d="M1045.645,354.604
		c0,4.492-3.641,8.134-8.133,8.134l0,0c-4.492,0-8.133-3.642-8.133-8.134l0,0c0-4.491,3.641-8.133,8.133-8.133l0,0
		C1042.004,346.471,1045.645,350.113,1045.645,354.604L1045.645,354.604z"/>
	<path fill="#F9F2F2" stroke="#1B1A1A" stroke-width="3" stroke-miterlimit="10" d="M761.305,151.438
		c0,6.364-5.159,11.523-11.522,11.523l0,0c-6.364,0-11.523-5.159-11.523-11.523l0,0c0-6.364,5.159-11.523,11.523-11.523l0,0
		C756.146,139.915,761.305,145.074,761.305,151.438L761.305,151.438z"/>
	<path fill="#F9F2F2" stroke="#1B1A1A" stroke-width="3" stroke-miterlimit="10" d="M757.907,194.114
		c0,2.472-2.004,4.476-4.477,4.476l0,0c-2.473,0-4.477-2.004-4.477-4.476l0,0c0-2.472,2.004-4.477,4.477-4.477l0,0
		C755.903,189.637,757.907,191.642,757.907,194.114L757.907,194.114z"/>
	<path fill="#F9F2F2" stroke="#1B1A1A" stroke-width="3" stroke-miterlimit="10" d="M691.949,171.218
		c0,4.561-3.697,8.257-8.257,8.257l0,0c-4.561,0-8.258-3.697-8.258-8.257l0,0c0-4.56,3.697-8.257,8.258-8.257l0,0
		C688.252,162.961,691.949,166.658,691.949,171.218L691.949,171.218z"/>
	<path fill="#F9F2F2" stroke="#1B1A1A" stroke-width="3" stroke-miterlimit="10" d="M454.704,310.683
		c0,6.65-5.391,12.041-12.041,12.041l0,0c-6.65,0-12.041-5.391-12.041-12.041l0,0c0-6.65,5.391-12.041,12.041-12.041l0,0
		C449.313,298.642,454.704,304.033,454.704,310.683L454.704,310.683z"/>
	<path fill="#F9F2F2" stroke="#1B1A1A" stroke-width="3" stroke-miterlimit="10" d="M430.623,220.047
		c0,4.182-3.39,7.571-7.571,7.571l0,0c-4.182,0-7.571-3.389-7.571-7.571l0,0c0-4.181,3.389-7.57,7.571-7.57l0,0
		C427.233,212.477,430.623,215.866,430.623,220.047L430.623,220.047z"/>
	<path fill="#F9F2F2" stroke="#1B1A1A" stroke-width="3" stroke-miterlimit="10" d="M281.066,469.738
		c0,3.696-2.997,6.692-6.693,6.692l0,0c-3.695,0-6.692-2.997-6.692-6.692l0,0c0-3.696,2.997-6.692,6.692-6.692l0,0
		C278.069,463.046,281.066,466.042,281.066,469.738L281.066,469.738z"/>
	<polygon fill="#F9F2F2" stroke="#1B1A1A" stroke-width="3" stroke-miterlimit="10" points="255.226,519.127 255.226,519.127 
		248.246,519.127 248.246,519.127 248.246,519.127 248.246,519.127 255.226,519.127 255.226,519.127 	"/>
	<polygon fill="#F9F2F2" stroke="#1B1A1A" stroke-width="3" stroke-miterlimit="10" points="643.034,277.304 643.034,277.304 
		631.768,277.304 631.768,277.304 631.768,277.304 631.768,277.304 643.034,277.304 643.034,277.304 	"/>
	<path fill="#F9F2F2" stroke="#1B1A1A" stroke-width="3" stroke-miterlimit="10" d="M1018.614,297.359
		c0,11.077-8.979,20.056-20.056,20.056l0,0c-11.076,0-20.056-8.979-20.056-20.056l0,0c0-11.076,8.979-20.056,20.056-20.056l0,0
		C1009.635,277.304,1018.614,286.283,1018.614,297.359L1018.614,297.359z"/>
	<path fill="#F9DEE4" stroke="#1B1A1A" stroke-width="3" stroke-miterlimit="10" d="M408.773,328.666
		c0,4.681-3.794,8.476-8.476,8.476H297.206c-4.681,0-8.476-3.794-8.476-8.476l0,0c0-4.681,3.794-8.475,8.476-8.475h103.092
		C404.979,320.19,408.773,323.984,408.773,328.666L408.773,328.666z"/>
	<path fill="#F9DEE4" stroke="#1B1A1A" stroke-width="3" stroke-miterlimit="10" d="M801.345,222.57c0,3-2.433,5.433-5.433,5.433
		h-60.909c-3,0-5.433-2.433-5.433-5.433l0,0c0-3.001,2.433-5.433,5.433-5.433h60.909
		C798.912,217.137,801.345,219.569,801.345,222.57L801.345,222.57z"/>
	<path fill="#F9DEE4" stroke="#1B1A1A" stroke-width="3" stroke-miterlimit="10" d="M1091.459,457.848
		c0,4.751-3.852,8.603-8.603,8.603h-75.696c-4.751,0-8.602-3.852-8.602-8.603l0,0c0-4.751,3.851-8.603,8.602-8.603h75.696
		C1087.607,449.245,1091.459,453.097,1091.459,457.848L1091.459,457.848z"/>
	<path fill="#F9DEE4" stroke="#1B1A1A" stroke-width="3" stroke-miterlimit="10" d="M646.422,171.218
		c0,4.561-3.697,8.257-8.257,8.257h-26.968c-4.56,0-8.257-3.697-8.257-8.257l0,0c0-4.56,3.697-8.257,8.257-8.257h26.968
		C642.725,162.961,646.422,166.658,646.422,171.218L646.422,171.218z"/>
	<path fill="#1B1A1A" d="M1054.277,318.833c0,0,6.476,0.309,16.65-7.399s10.176-14.184,2.775-14.492
		c-7.401-0.308-17.884,10.946-17.884,10.946l-2.774-22.663c0,0,3.082,5.241,15.724,0c12.642-5.242,17.267-15.108,17.267-15.108
		l4.317,33.916c0,0,15.725-2.775,21.274-13.566s-7.709-16.341-17.575-0.925l-5.161-31.142c0,0,1.153,2.467-15.188,4.625
		c-16.342,2.158-28.059,1.233-28.059,1.233L1054.277,318.833z"/>
	<path fill="#1B1A1A" d="M1056.018,197.021c0,0-8.941-0.617-17.574,8.633c-8.633,9.25-4.316,13.571,5.55,12.952
		c9.866-0.619,17.267-19.735,17.267-19.735l-8.018-37.616c0,0,12.642,2.775,22.508-4.933c9.867-7.708,8.325-16.033,8.325-16.033
		s-10.792,5.241-19.732,5.858c-8.941,0.617-15.725,0.308-16.958,9.25L1056.018,197.021z"/>
	<path fill="#1B1A1A" d="M247.592,394.766c0,0-1.925-4.169-10.906-1.764c-8.98,2.406-11.065,9.462-7.537,12.509
		s15.396,4.224,19.886-6.628l6.735-36.191c0,0,5.292,1.283,10.264,8.98c4.972,7.698-0.321,16.679,3.528,19.886l4.811-4.971
		c0,0-2.245-8.019-1.443-13.15c0.802-5.132-1.443-10.906-7.216-13.792s-9.623-7.377-9.623-7.377L247.592,394.766z"/>
	<path fill="#1B1A1A" d="M385.222,238.812c0,0-4.435-3.741-11.639-1.663s-7.621,8.175-6.512,10.807
		c1.108,2.632,12.886,6.927,19.952-4.572l13.578-52.512c0,0-1.108-2.079-2.909-0.97c-1.801,1.108-0.139-0.326-0.139-0.326
		L385.222,238.812z"/>
	<path fill="#1B1A1A" d="M319.104,193.302c0,0-4.156-3.88-13.578-2.633s-11.361,9.145-10.807,12.054
		c0.554,2.909,5.542,6.373,14.548,5.819c9.006-0.554,11.5-12.331,11.5-12.331l10.945-26.602c0,0,4.71,4.849,9.699,11.638
		c4.988,6.79,0.416,16.766,4.018,21.753l4.85-5.542c0,0,0.138-4.434,0-7.759c-0.139-3.326-0.832-9.56-4.434-13.578
		c-3.603-4.019-11.223-13.024-11.223-13.024l1.94-4.711c0,0,5.958,5.958,10.53,11.084s6.927,10.253,7.205,14.687
		s0.138,6.651,0.832,8.036l5.681-5.958c0,0,1.108-8.59-5.404-17.319c-6.512-8.729-18.704-18.566-18.704-18.566L319.104,193.302z"/>
</g>
</svg>
