<?xml version="1.0" encoding="utf-8"?>
<!-- Generator: Adobe Illustrator 16.0.0, SVG Export Plug-In . SVG Version: 6.00 Build 0)  -->
<!DOCTYPE svg PUBLIC "-//W3C//DTD SVG 1.0//EN" "http://www.w3.org/TR/2001/REC-SVG-20010904/DTD/svg10.dtd" [
	<!ENTITY ns_flows "http://ns.adobe.com/Flows/1.0/">
	<!ENTITY ns_extend "http://ns.adobe.com/Extensibility/1.0/">
	<!ENTITY ns_ai "http://ns.adobe.com/AdobeIllustrator/10.0/">
	<!ENTITY ns_graphs "http://ns.adobe.com/Graphs/1.0/">
	<!ENTITY ns_vars "http://ns.adobe.com/Variables/1.0/">
	<!ENTITY ns_imrep "http://ns.adobe.com/ImageReplacement/1.0/">
	<!ENTITY ns_sfw "http://ns.adobe.com/SaveForWeb/1.0/">
	<!ENTITY ns_custom "http://ns.adobe.com/GenericCustomNamespace/1.0/">
	<!ENTITY ns_adobe_xpath "http://ns.adobe.com/XPath/1.0/">
]>
<svg version="1.0" id="Layer_1" xmlns:x="&ns_extend;" xmlns:i="&ns_ai;" xmlns:graph="&ns_graphs;"
	 xmlns="http://www.w3.org/2000/svg" xmlns:xlink="http://www.w3.org/1999/xlink" xmlns:a="http://ns.adobe.com/AdobeSVGViewerExtensions/3.0/"
	 x="0px" y="0px" width="1400px" height="980px" viewBox="0 0 1400 980" enable-background="new 0 0 1400 980" xml:space="preserve"
	>
<metadata>
	<sfw  xmlns="&ns_sfw;">
		<slices></slices>
		<sliceSourceBounds  width="1400" height="980" bottomLeftOrigin="true" y="-980" x="0"></sliceSourceBounds>
	</sfw>
</metadata>
<rect fill="#1F1951" width="1400" height="980"/>
<g>
	<g>
		<path fill="#F9F2F2" d="M534.3,436.8c0,8.6-7,15.5-15.5,15.5H347.5c-8.6,0-15.5-7-15.5-15.5l0,0c0-8.6,7-15.5,15.5-15.5h171.4
			C527.4,421.2,534.3,428.2,534.3,436.8L534.3,436.8z"/>
		<path fill="#F9F2F2" d="M995.2,296.2c0,7.4-6,13.5-13.5,13.5H952c-7.4,0-13.5-6-13.5-13.5l0,0c0-7.4,6-13.5,13.5-13.5h29.7
			C989.2,282.7,995.2,288.7,995.2,296.2L995.2,296.2z"/>
		<path fill="#F9F2F2" d="M901.9,474.1h-62.2c-19.1,0-34.5-15.5-34.5-34.5V434c0-19.1,15.5-34.5,34.5-34.5h53.2
			c14.9,0,26.9-12.1,26.9-26.9c0-14.9-12.1-26.9-26.9-26.9h-62.9c-9.9,0-18-8-18-18c0-9.9,8-18,18-18h61.8
			c11.6,0,21.1-9.4,21.1-21.1c0-11.6-9.4-21.1-21.1-21.1h-570c-11.6,0-21.1,9.4-21.1,21.1c0,11.6,9.4,21.1,21.1,21.1H401
			c9.9,0,18,8,18,18c0,9.9-8,18-18,18h-85c-14.9,0-26.9,12.1-26.9,26.9c0,14.9,12.1,26.9,26.9,26.9h313.7
			c19.1,0,34.5,15.5,34.5,34.5v5.5c0,19.1-15.5,34.5-34.5,34.5h-40.8c-9.9,0-18,8-18,18c0,9.9,8,18,18,18h313c9.9,0,18-8,18-18
			C919.9,482.1,911.8,474.1,901.9,474.1z"/>
		<path fill="#F9F2F2" d="M283.9,400.6c0,5.6-4.5,10.1-10.1,10.1h-51.1c-5.6,0-10.1-4.5-10.1-10.1l0,0c0-5.6,4.5-10.1,10.1-10.1
			h51.1C279.4,390.5,283.9,395,283.9,400.6L283.9,400.6z"/>
	</g>
	<g>
		<path fill="#F9F2F2" d="M770,733.5c0,8.6-7,15.5-15.5,15.5H583.2c-8.6,0-15.5-7-15.5-15.5l0,0c0-8.6,7-15.5,15.5-15.5h171.4
			C763.1,717.9,770,724.9,770,733.5L770,733.5z"/>
		<path fill="#F9F2F2" d="M1230.9,592.9c0,7.4-6,13.5-13.5,13.5h-29.7c-7.4,0-13.5-6-13.5-13.5l0,0c0-7.4,6-13.5,13.5-13.5h29.7
			C1224.9,579.4,1230.9,585.4,1230.9,592.9L1230.9,592.9z"/>
		<path fill="#F9F2F2" d="M1137.6,770.8h-62.2c-19.1,0-34.5-15.5-34.5-34.5v-5.5c0-19.1,15.5-34.5,34.5-34.5h53.2
			c14.9,0,26.9-12.1,26.9-26.9c0-14.9-12.1-26.9-26.9-26.9h-62.9c-9.9,0-18-8-18-18c0-9.9,8-18,18-18h61.8
			c11.6,0,21.1-9.4,21.1-21.1c0-11.6-9.4-21.1-21.1-21.1h-570c-11.6,0-21.1,9.4-21.1,21.1c0,11.6,9.4,21.1,21.1,21.1h79.1
			c9.9,0,18,8,18,18c0,9.9-8,18-18,18h-85c-14.9,0-26.9,12.1-26.9,26.9c0,14.9,12.1,26.9,26.9,26.9h313.7
			c19.1,0,34.5,15.5,34.5,34.5v5.5c0,19.1-15.5,34.5-34.5,34.5h-40.8c-9.9,0-18,8-18,18c0,9.9,8,18,18,18h313c9.9,0,18-8,18-18
			C1155.6,778.8,1147.5,770.8,1137.6,770.8z"/>
		<path fill="#F9F2F2" d="M519.6,697.3c0,5.6-4.5,10.1-10.1,10.1h-51.1c-5.6,0-10.1-4.5-10.1-10.1l0,0c0-5.6,4.5-10.1,10.1-10.1
			h51.1C515.1,687.2,519.6,691.7,519.6,697.3L519.6,697.3z"/>
	</g>
	<path fill="#F9F2F2" d="M331.9,517.6c0,3.8-3.1,6.9-6.9,6.9h-19.7c-3.8,0-6.9-3.1-6.9-6.9l0,0c0-3.8,3.1-6.9,6.9-6.9H325
		C328.8,510.7,331.9,513.8,331.9,517.6L331.9,517.6z"/>
	<path fill="#F9F2F2" d="M1111.5,296.2c0,3-2.5,5.5-5.5,5.5h-26.5c-3,0-5.5-2.5-5.5-5.5l0,0c0-3,2.5-5.5,5.5-5.5h26.5
		C1109.1,290.6,1111.5,293.1,1111.5,296.2L1111.5,296.2z"/>
	<path fill="#F9F2F2" d="M1108.3,501.8c0,2.7-2.2,4.9-4.9,4.9l0,0c-2.7,0-4.9-2.2-4.9-4.9v-0.8c0-2.7,2.2-4.9,4.9-4.9l0,0
		c2.7,0,4.9,2.2,4.9,4.9V501.8z"/>
	<path fill="#F9F2F2" d="M426.3,771.7c0,3.5-2.9,6.4-6.4,6.4h-10.4c-3.5,0-6.4-2.9-6.4-6.4l0,0c0-3.5,2.9-6.4,6.4-6.4h10.4
		C423.4,765.3,426.3,768.1,426.3,771.7L426.3,771.7z"/>
	<path fill="#F9F2F2" d="M404.9,687.1c0,5.4-4.3,9.7-9.7,9.7h-63.1c-5.4,0-9.7-4.3-9.7-9.7l0,0c0-5.4,4.3-9.7,9.7-9.7h63.1
		C400.5,677.4,404.9,681.7,404.9,687.1L404.9,687.1z"/>
	<path fill="#F9F2F2" d="M362.3,742.6h20.4c6.7,0,12.2-5.4,12.2-12.2c0-6.7-5.4-12.2-12.2-12.2H262.1c-6.7,0-12.2,5.4-12.2,12.2
		c0,6.7,5.4,12.2,12.2,12.2h29.4c5.4,0,9.7,4.3,9.7,9.7c0,5.4-4.3,9.7-9.7,9.7h-2.1c-5.4,0-9.7,4.3-9.7,9.7c0,5.4,4.3,9.7,9.7,9.7
		h84.9c5.4,0,9.7-4.3,9.7-9.7c0-5.4-4.3-9.7-9.7-9.7h-12c-5.4,0-9.7-4.3-9.7-9.7C352.6,747,356.9,742.6,362.3,742.6z"/>
	<path fill="#F9F2F2" d="M1172.8,373.1c0-4.4-3.5-7.9-7.9-7.9h-95.4c-4.4,0-7.9,3.5-7.9,7.9c0,4.4,3.5,7.9,7.9,7.9h34.1
		c4,1.3,6.8,5.1,6.8,9.5c0,5.5-4.5,10-10,10h59.7c5.5,0,10-4.5,10-10c0-4.4-2.9-8.2-6.8-9.5h1.5
		C1169.2,381,1172.8,377.5,1172.8,373.1z"/>
	<path fill="#F9F2F2" d="M1087.4,399c0,2.6-2.1,4.8-4.8,4.8H1058c-2.6,0-4.8-2.1-4.8-4.8l0,0c0-2.6,2.1-4.8,4.8-4.8h24.6
		C1085.2,394.2,1087.4,396.4,1087.4,399L1087.4,399z"/>
</g>
<g>
	<circle fill="#422D86" cx="714.7" cy="497.4" r="329.7"/>
	<path fill="#1F1951" d="M714.7,827.1c182.1,0,329.7-147.6,329.7-329.7c0-43.9-8.6-85.7-24.1-124h-19v47.5h-34.4v-56.5L944.4,337
		h-33.8v233.2h-24V329.1h-52.7v27.4h-57.7v288.3H756V443.3l-52.7-52.7h-41.1V269.1h-7.9v59.4h-26L603,353.8v324.5h-44.9V324.7h-30.3
		l-77.5,30.9v161.6h-24.7V390.7h-22.9C391.2,424.1,385,460,385,497.4C385,679.5,532.6,827.1,714.7,827.1z"/>
	<g>
		<rect x="407.8" y="401.2" fill="#FBAA33" width="8.4" height="8.4"/>
		<rect x="407.8" y="436.4" fill="#FBAA33" width="8.4" height="8.4"/>
		<rect x="407.8" y="471.7" fill="#FBAA33" width="8.4" height="8.4"/>
		<rect x="407.8" y="506.9" fill="#FBAA33" width="8.4" height="8.4"/>
	</g>
	<g>
		<g>
			<rect x="1006.7" y="394.3" fill="#FBAA33" width="17.6" height="2.5"/>
		</g>
		<g>
			<rect x="1006.7" y="418.4" fill="#FBAA33" width="17.6" height="2.5"/>
		</g>
		<g>
			<rect x="1006.7" y="442.5" fill="#FBAA33" width="17.6" height="2.5"/>
		</g>
		<g>
			<rect x="1006.7" y="466.7" fill="#FBAA33" width="17.6" height="2.5"/>
		</g>
		<g>
			<rect x="1006.7" y="490.8" fill="#FBAA33" width="17.6" height="2.5"/>
		</g>
		<g>
			<rect x="1006.7" y="515" fill="#FBAA33" width="17.6" height="2.5"/>
		</g>
		<g>
			<rect x="1006.7" y="539.1" fill="#FBAA33" width="17.6" height="2.5"/>
		</g>
	</g>
	<g>
		<rect x="458.7" y="364.5" fill="#FBAA33" width="8.2" height="17.4"/>
		<rect x="475.7" y="364.5" fill="#FBAA33" width="8.2" height="17.4"/>
		<rect x="492.6" y="364.5" fill="#FBAA33" width="8.2" height="17.4"/>
		<rect x="509.6" y="364.5" fill="#FBAA33" width="8.2" height="17.4"/>
		<rect x="458.7" y="401.2" fill="#FBAA33" width="8.2" height="17.4"/>
		<rect x="475.7" y="401.2" fill="#FBAA33" width="8.2" height="17.4"/>
		<rect x="492.6" y="401.2" fill="#FBAA33" width="8.2" height="17.4"/>
		<rect x="509.6" y="401.2" fill="#FBAA33" width="8.2" height="17.4"/>
		<rect x="458.7" y="437.9" fill="#FBAA33" width="8.2" height="17.4"/>
		<rect x="475.7" y="437.9" fill="#FBAA33" width="8.2" height="17.4"/>
		<rect x="492.6" y="437.9" fill="#FBAA33" width="8.2" height="17.4"/>
		<rect x="509.6" y="437.9" fill="#FBAA33" width="8.2" height="17.4"/>
		<rect x="458.7" y="474.5" fill="#FBAA33" width="8.2" height="17.4"/>
		<rect x="475.7" y="474.5" fill="#FBAA33" width="8.2" height="17.4"/>
		<rect x="492.6" y="474.5" fill="#FBAA33" width="8.2" height="17.4"/>
		<rect x="509.6" y="474.5" fill="#FBAA33" width="8.2" height="17.4"/>
	</g>
	<g>
		<g>
			<g>
				<rect x="781.8" y="362.2" fill="#FBAA33" width="2.9" height="2.9"/>
				<rect x="789.5" y="370.5" fill="#FBAA33" width="2.9" height="2.9"/>
				<rect x="800.9" y="362.2" fill="#FBAA33" width="2.9" height="2.9"/>
				<rect x="808.5" y="370.5" fill="#FBAA33" width="2.9" height="2.9"/>
			</g>
			<rect x="820" y="362.2" fill="#FBAA33" width="2.9" height="2.9"/>
			<rect x="827.6" y="370.5" fill="#FBAA33" width="2.9" height="2.9"/>
		</g>
		<g>
			<g>
				<rect x="781.8" y="384.3" fill="#FBAA33" width="2.9" height="2.9"/>
				<rect x="789.5" y="392.6" fill="#FBAA33" width="2.9" height="2.9"/>
				<rect x="800.9" y="384.3" fill="#FBAA33" width="2.9" height="2.9"/>
				<rect x="808.5" y="392.6" fill="#FBAA33" width="2.9" height="2.9"/>
			</g>
			<rect x="820" y="384.3" fill="#FBAA33" width="2.9" height="2.9"/>
			<rect x="827.6" y="392.6" fill="#FBAA33" width="2.9" height="2.9"/>
		</g>
		<g>
			<g>
				<rect x="781.8" y="406.4" fill="#FBAA33" width="2.9" height="2.9"/>
				<rect x="789.5" y="414.7" fill="#FBAA33" width="2.9" height="2.9"/>
				<rect x="800.9" y="406.4" fill="#FBAA33" width="2.9" height="2.9"/>
				<rect x="808.5" y="414.7" fill="#FBAA33" width="2.9" height="2.9"/>
			</g>
			<rect x="820" y="406.4" fill="#FBAA33" width="2.9" height="2.9"/>
			<rect x="827.6" y="414.7" fill="#FBAA33" width="2.9" height="2.9"/>
		</g>
		<g>
			<g>
				<rect x="781.8" y="428.6" fill="#FBAA33" width="2.9" height="2.9"/>
				<rect x="789.5" y="436.9" fill="#FBAA33" width="2.9" height="2.9"/>
				<rect x="800.9" y="428.6" fill="#FBAA33" width="2.9" height="2.9"/>
				<rect x="808.5" y="436.9" fill="#FBAA33" width="2.9" height="2.9"/>
			</g>
			<rect x="820" y="428.6" fill="#FBAA33" width="2.9" height="2.9"/>
			<rect x="827.6" y="436.9" fill="#FBAA33" width="2.9" height="2.9"/>
		</g>
		<g>
			<g>
				<rect x="781.8" y="450.7" fill="#FBAA33" width="2.9" height="2.9"/>
				<rect x="789.5" y="459" fill="#FBAA33" width="2.9" height="2.9"/>
				<rect x="800.9" y="450.7" fill="#FBAA33" width="2.9" height="2.9"/>
				<rect x="808.5" y="459" fill="#FBAA33" width="2.9" height="2.9"/>
			</g>
			<rect x="820" y="450.7" fill="#FBAA33" width="2.9" height="2.9"/>
			<rect x="827.6" y="459" fill="#FBAA33" width="2.9" height="2.9"/>
		</g>
		<g>
			<g>
				<rect x="781.8" y="472.8" fill="#FBAA33" width="2.9" height="2.9"/>
				<rect x="789.5" y="481.1" fill="#FBAA33" width="2.9" height="2.9"/>
				<rect x="800.9" y="472.8" fill="#FBAA33" width="2.9" height="2.9"/>
				<rect x="808.5" y="481.1" fill="#FBAA33" width="2.9" height="2.9"/>
			</g>
			<rect x="820" y="472.8" fill="#FBAA33" width="2.9" height="2.9"/>
			<rect x="827.6" y="481.1" fill="#FBAA33" width="2.9" height="2.9"/>
		</g>
	</g>
	<g>
		<g>
			<rect x="610.1" y="354.2" fill="#FBAA33" width="5.9" height="5.9"/>
			<rect x="627.2" y="354.2" fill="#FBAA33" width="5.9" height="5.9"/>
			<rect x="644.4" y="354.2" fill="#FBAA33" width="5.9" height="5.9"/>
		</g>
		<g>
			<rect x="610.1" y="376.6" fill="#FBAA33" width="5.9" height="5.9"/>
			<rect x="627.2" y="376.6" fill="#FBAA33" width="5.9" height="5.9"/>
			<rect x="644.4" y="376.6" fill="#FBAA33" width="5.9" height="5.9"/>
		</g>
		<g>
			<rect x="610.1" y="399.1" fill="#FBAA33" width="5.9" height="5.9"/>
			<rect x="627.2" y="399.1" fill="#FBAA33" width="5.9" height="5.9"/>
			<rect x="644.4" y="399.1" fill="#FBAA33" width="5.9" height="5.9"/>
		</g>
		<g>
			<rect x="610.1" y="421.5" fill="#FBAA33" width="5.9" height="5.9"/>
			<rect x="627.2" y="421.5" fill="#FBAA33" width="5.9" height="5.9"/>
			<rect x="644.4" y="421.5" fill="#FBAA33" width="5.9" height="5.9"/>
		</g>
		<g>
			<rect x="610.1" y="443.9" fill="#FBAA33" width="5.9" height="5.9"/>
			<rect x="627.2" y="443.9" fill="#FBAA33" width="5.9" height="5.9"/>
			<rect x="644.4" y="443.9" fill="#FBAA33" width="5.9" height="5.9"/>
		</g>
		<g>
			<rect x="610.1" y="466.3" fill="#FBAA33" width="5.9" height="5.9"/>
			<rect x="627.2" y="466.3" fill="#FBAA33" width="5.9" height="5.9"/>
			<rect x="644.4" y="466.3" fill="#FBAA33" width="5.9" height="5.9"/>
		</g>
		<g>
			<rect x="610.1" y="488.7" fill="#FBAA33" width="5.9" height="5.9"/>
			<rect x="627.2" y="488.7" fill="#FBAA33" width="5.9" height="5.9"/>
			<rect x="644.4" y="488.7" fill="#FBAA33" width="5.9" height="5.9"/>
		</g>
		<g>
			<rect x="610.1" y="511.1" fill="#FBAA33" width="5.9" height="5.9"/>
			<rect x="627.2" y="511.1" fill="#FBAA33" width="5.9" height="5.9"/>
			<rect x="644.4" y="511.1" fill="#FBAA33" width="5.9" height="5.9"/>
		</g>
		<g>
			<rect x="610.1" y="533.5" fill="#FBAA33" width="5.9" height="5.9"/>
			<rect x="627.2" y="533.5" fill="#FBAA33" width="5.9" height="5.9"/>
			<rect x="644.4" y="533.5" fill="#FBAA33" width="5.9" height="5.9"/>
		</g>
	</g>
	<g>
		<g>
			<rect x="971.5" y="430.2" fill="#FBAA33" width="4" height="4"/>
			<rect x="983" y="430.2" fill="#FBAA33" width="4" height="4"/>
			<rect x="994.5" y="430.2" fill="#FBAA33" width="4" height="4"/>
		</g>
		<g>
			<rect x="971.5" y="445.3" fill="#FBAA33" width="4" height="4"/>
			<rect x="983" y="445.3" fill="#FBAA33" width="4" height="4"/>
			<rect x="994.5" y="445.3" fill="#FBAA33" width="4" height="4"/>
		</g>
		<g>
			<rect x="971.5" y="460.3" fill="#FBAA33" width="4" height="4"/>
			<rect x="983" y="460.3" fill="#FBAA33" width="4" height="4"/>
			<rect x="994.5" y="460.3" fill="#FBAA33" width="4" height="4"/>
		</g>
		<g>
			<rect x="971.5" y="475.4" fill="#FBAA33" width="4" height="4"/>
			<rect x="983" y="475.4" fill="#FBAA33" width="4" height="4"/>
			<rect x="994.5" y="475.4" fill="#FBAA33" width="4" height="4"/>
		</g>
		<g>
			<rect x="971.5" y="490.5" fill="#FBAA33" width="4" height="4"/>
			<rect x="983" y="490.5" fill="#FBAA33" width="4" height="4"/>
			<rect x="994.5" y="490.5" fill="#FBAA33" width="4" height="4"/>
		</g>
		<g>
			<rect x="971.5" y="505.6" fill="#FBAA33" width="4" height="4"/>
			<rect x="983" y="505.6" fill="#FBAA33" width="4" height="4"/>
			<rect x="994.5" y="505.6" fill="#FBAA33" width="4" height="4"/>
		</g>
		<g>
			<rect x="971.5" y="520.7" fill="#FBAA33" width="4" height="4"/>
			<rect x="983" y="520.7" fill="#FBAA33" width="4" height="4"/>
			<rect x="994.5" y="520.7" fill="#FBAA33" width="4" height="4"/>
		</g>
		<g>
			<rect x="971.5" y="535.7" fill="#FBAA33" width="4" height="4"/>
			<rect x="983" y="535.7" fill="#FBAA33" width="4" height="4"/>
			<rect x="994.5" y="535.7" fill="#FBAA33" width="4" height="4"/>
		</g>
		<g>
			<rect x="971.5" y="550.8" fill="#FBAA33" width="4" height="4"/>
			<rect x="983" y="550.8" fill="#FBAA33" width="4" height="4"/>
			<rect x="994.5" y="550.8" fill="#FBAA33" width="4" height="4"/>
		</g>
	</g>
	<path fill="#F9F2F2" d="M1017.1,628.9c-297.5-81.1-535.1-18.8-603.4,3.2c51.5,114.9,166.9,195,301,195
		C850,827.1,966.3,745.5,1017.1,628.9z"/>
	<g>
		<path fill="#F9F2F2" d="M432.9,629.6c0-10.1,0-63,0-63h-4.3h-2.8h-4.3c0,0,0,52.9,0,63c0,10.1-2.8,13.2-2.8,13.2h7.1h2.8h7.1
			C435.7,642.9,432.9,639.7,432.9,629.6z"/>
		<g>
			<polygon fill="#F9F2F2" points="469.8,561.4 481.6,561.4 460.4,530.8 472.3,530.8 451.7,500.9 463.6,500.7 447.4,476 457.6,476 
				428.7,437.1 428.7,437.1 428.7,437.1 399.7,476 410,476 393.8,500.7 405.6,500.9 385,530.8 396.9,530.8 375.7,561.4 387.5,561.4 
				370.7,591.1 428.7,591.1 428.7,591.1 486.6,591.1 			"/>
			<line fill="#F9F2F2" x1="387.5" y1="561.4" x2="453" y2="561.4"/>
			<path fill="#F9F2F2" d="M461.8,530.8c-1.4,0-49.6,0-49.6,0"/>
			<line fill="#F9F2F2" x1="405.6" y1="500.9" x2="415.5" y2="500.9"/>
			<line fill="#F9F2F2" x1="447.4" y1="476" x2="430.3" y2="476"/>
		</g>
	</g>
	<g>
		<path fill="#F9F2F2" d="M946.4,627.3c0-4.7,0-29.5,0-29.5h-2h-1.3h-2c0,0,0,24.8,0,29.5s-1.3,6.2-1.3,6.2h3.3h1.3h3.3
			C947.7,633.5,946.4,632,946.4,627.3z"/>
		<g>
			<polygon fill="#F9F2F2" points="963.7,595.2 969.2,595.2 959.3,580.9 964.9,580.9 955.2,566.9 960.8,566.8 953.2,555.2 
				958,555.2 944.4,537 944.4,537 944.4,537 930.8,555.2 935.6,555.2 928,566.8 933.6,566.9 923.9,580.9 929.5,580.9 919.6,595.2 
				925.1,595.2 917.2,609.2 944.4,609.2 944.4,609.2 971.6,609.2 			"/>
			<line fill="#F9F2F2" x1="925.1" y1="595.2" x2="955.8" y2="595.2"/>
			<path fill="#F9F2F2" d="M960,580.9c-0.7,0-23.2,0-23.2,0"/>
			<line fill="#F9F2F2" x1="933.6" y1="566.9" x2="938.2" y2="566.9"/>
			<line fill="#F9F2F2" x1="953.2" y1="555.2" x2="945.2" y2="555.2"/>
		</g>
	</g>
	<g>
		<path fill="#F9F2F2" d="M669.7,591.8c0-4.7,0-29.5,0-29.5h-2h-1.3h-2c0,0,0,24.8,0,29.5s-1.3,6.2-1.3,6.2h3.3h1.3h3.3
			C671,598,669.7,596.5,669.7,591.8z"/>
		<g>
			<polygon fill="#F9F2F2" points="687,559.8 692.6,559.8 682.6,545.4 688.2,545.4 678.5,531.4 684.1,531.3 676.5,519.8 
				681.3,519.8 667.7,501.5 667.7,501.5 667.7,501.5 654.1,519.8 659,519.8 651.4,531.3 656.9,531.4 647.3,545.4 652.8,545.4 
				642.9,559.8 648.4,559.8 640.6,573.7 667.7,573.7 667.7,573.7 694.9,573.7 			"/>
			<line fill="#F9F2F2" x1="648.4" y1="559.8" x2="679.1" y2="559.8"/>
			<path fill="#F9F2F2" d="M683.3,545.4c-0.7,0-23.2,0-23.2,0"/>
			<line fill="#F9F2F2" x1="656.9" y1="531.4" x2="661.6" y2="531.4"/>
			<line fill="#F9F2F2" x1="676.5" y1="519.8" x2="668.5" y2="519.8"/>
		</g>
	</g>
	<g>
		<path fill="#F9F2F2" d="M477.1,614.6c0-3.3,0-20.6,0-20.6h-1.4h-0.9h-1.4c0,0,0,17.3,0,20.6c0,3.3-0.9,4.3-0.9,4.3h2.3h0.9h2.3
			C478,618.9,477.1,617.9,477.1,614.6z"/>
		<g>
			<polygon fill="#F9F2F2" points="489.2,592.2 493,592.2 486.1,582.2 490,582.2 483.2,572.4 487.1,572.3 481.8,564.3 485.2,564.3 
				475.7,551.5 475.7,551.5 475.7,551.5 466.2,564.3 469.6,564.3 464.3,572.3 468.1,572.4 461.4,582.2 465.3,582.2 458.3,592.2 
				462.2,592.2 456.7,602 475.7,602 475.7,602 494.7,602 			"/>
			<line fill="#F9F2F2" x1="462.2" y1="592.2" x2="483.6" y2="592.2"/>
			<path fill="#F9F2F2" d="M486.6,582.2c-0.5,0-16.2,0-16.2,0"/>
			<line fill="#F9F2F2" x1="468.1" y1="572.4" x2="471.4" y2="572.4"/>
			<line fill="#F9F2F2" x1="481.8" y1="564.3" x2="476.2" y2="564.3"/>
		</g>
	</g>
	<g>
		<path fill="#F9F2F2" d="M1005.3,630.8c0-7.2,0-45.3,0-45.3h-3.1h-2h-3.1c0,0,0,38.1,0,45.3s-2,9.5-2,9.5h5.1h2h5.1
			C1007.3,640.3,1005.3,638,1005.3,630.8z"/>
		<g>
			<polygon fill="#F9F2F2" points="1031.9,581.6 1040.4,581.6 1025.1,559.6 1033.6,559.6 1018.8,538.1 1027.4,537.9 1015.7,520.1 
				1023.1,520.1 1002.2,492.1 1002.2,492.1 1002.2,492.1 981.4,520.1 988.8,520.1 977.1,537.9 985.6,538.1 970.8,559.6 979.3,559.6 
				964.1,581.6 972.6,581.6 960.5,603 1002.2,603 1002.2,603 1044,603 			"/>
			<line fill="#F9F2F2" x1="972.6" y1="581.6" x2="1019.7" y2="581.6"/>
			<path fill="#F9F2F2" d="M1026.1,559.6c-1,0-35.7,0-35.7,0"/>
			<line fill="#F9F2F2" x1="985.6" y1="538.1" x2="992.7" y2="538.1"/>
			<line fill="#F9F2F2" x1="1015.7" y1="520.1" x2="1003.4" y2="520.1"/>
		</g>
	</g>
	<g>
		<g>
			<g>
				<path fill="#F9F2F2" stroke="#1B1A1A" stroke-width="2" stroke-miterlimit="10" d="M522.5,767.9c0,0-5,8.3-10.5,11.5
					c-5.5,3.2-19.1,6-18.3,21.1c0,0-2,0.8-2,3.4s3.9,9.4,18.6,6.5c14.7-2.8,16.8-12.1,26.3-15.9c9.6-3.9,11.6-3.9,13.6-11.2
					c2-7.4-3.4-11.9-4.1-15.5C545.4,764.2,525.5,763.7,522.5,767.9z"/>
				<path fill="#6B555A" stroke="#1B1A1A" stroke-width="2" stroke-linecap="round" stroke-miterlimit="10" d="M550.2,783.3
					c0.2-0.6,0.3-1.1,0.3-1.7l0,0c-2.3,3.9-8.5,6.2-16.4,10.1c-7.9,3.9-14.7,13.2-26.1,14.9c-11.4,1.7-14.2-6-14.2-6s-2,0.8-2,3.4
					s3.9,9.4,18.6,6.5c14.7-2.8,16.8-12.1,26.3-15.9C546.2,790.7,548.2,790.7,550.2,783.3z"/>
				<path fill="#F9F2F2" stroke="#1B1A1A" stroke-width="2" stroke-miterlimit="10" d="M581.9,767.9c0,0,5,8.3,10.5,11.5
					c5.5,3.2,19.1,6,18.3,21.1c0,0,2,0.8,2,3.4s-3.9,9.4-18.6,6.5c-14.7-2.8-16.8-12.1-26.3-15.9c-9.6-3.9-11.6-3.9-13.6-11.2
					c-2-7.4,3.4-11.9,4.1-15.5C559.1,764.2,579,763.7,581.9,767.9z"/>
				<path fill="#6B555A" stroke="#1B1A1A" stroke-width="2" stroke-linecap="round" stroke-miterlimit="10" d="M554.3,783.3
					c-0.2-0.6-0.3-1.1-0.3-1.7l0,0c2.3,3.9,8.5,6.2,16.4,10.1c7.9,3.9,14.7,13.2,26.1,14.9c11.4,1.7,14.2-6,14.2-6s2,0.8,2,3.4
					s-3.9,9.4-18.6,6.5c-14.7-2.8-16.8-12.1-26.3-15.9C558.3,790.7,556.3,790.7,554.3,783.3z"/>
				<path fill="#F9F2F2" stroke="#1B1A1A" stroke-width="2" stroke-miterlimit="10" d="M597.5,603.9c-2.4-17.4-5.3-23.8-5.3-23.8
					L583,571c-13.2-1.1-27.7,10.5-31.8,14.1c-4.1-3.6-18.6-15.2-31.8-14.1l-9.3,9.1c0,0-2.9,6.4-5.3,23.8s16.7,163,16.7,163
					s9.9,12.2,24.5,0.9l5.1-135l8.1,135.4c13.6,8.9,23.8-1.4,23.8-1.4S599.9,621.3,597.5,603.9z"/>
				<path fill="#E53130" stroke="#1B1A1A" stroke-width="2" stroke-linecap="round" stroke-miterlimit="10" d="M619.2,537.1
					c0,0-15.7-42.3-19.8-48.8c-4-6.5-19.3-14.9-19.3-14.9c-4.1-2.4-12.5,0-12.5,0s-12.7,1.5-15.7,1.7c-3-0.2-15.7-1.7-15.7-1.7
					s-8.5-2.4-12.5,0c0,0-15.3,8.4-19.3,14.9c-4,6.5-19.8,48.8-19.8,48.8s-1.2,7.8,5.5,11.7c6.6,3.9,16.3,2,16.3,2l5.9-10.3
					c0,0,0,7.8-0.4,11.7c-0.4,4-10.5,47.1-10.5,47.1s16.7,9,52.4,9.9c29.5,0.7,50.4-10.4,50.4-10.4s-11.9-42.7-12.3-46.6
					c-0.4-4-0.4-11.7-0.4-11.7l5.9,10.3c0,0,9.7,1.9,16.3-2C620.3,544.9,619.2,537.1,619.2,537.1z"/>
				<path fill="#FFFFFF" stroke="#1B1A1A" stroke-width="2" stroke-miterlimit="10" d="M519.1,472.7c0,0-1.4,18.5,0.7,35.1
					c2,16.6,2,31.6-1.5,39.6c0,0,14.4,9.9,28.2-1.1c0,0,3.5-14.3-1.2-31.4c-4.7-17.2-6.5-29-0.9-37.2
					C544.4,477.7,525.4,467.5,519.1,472.7z"/>
				<path fill="#E53130" stroke="#1B1A1A" stroke-width="2" stroke-linecap="round" stroke-miterlimit="10" d="M522.2,413.1
					c0,0,0.1-7.5,2.9-12c2.9-4.5,7.7-6.9,7.7-6.9s1-3.5,9.6-8.8s20.9-1.7,24.4-1.7c3.5,0,8.5,0.1,11.5,1.5c3,1.5,9.8,2.8,11.9,9.9
					c0,0,0.6,4.5-1.6,6.5c-2.2,2-5.1,7.3-5.1,7.3s3.4,6.7-10,10.3c-13.4,3.5-19.2-7.9-33.5-3.8S522.2,413.1,522.2,413.1z"/>
				<path fill="#F9F2F2" stroke="#1B1A1A" stroke-width="2" stroke-miterlimit="10" d="M524.3,441.2c0,0-1.7-2.3-4.1,0
					c-2.4,2.3,0.6,12.8,7.6,13.3L524.3,441.2z"/>
				<path fill="#F9F2F2" stroke="#1B1A1A" stroke-width="2" stroke-miterlimit="10" d="M580.1,441.2c0,0,1.7-2.3,4.1,0
					c2.4,2.3-0.6,12.8-7.7,13.3L580.1,441.2z"/>
				<path fill="#F9F2F2" stroke="#1B1A1A" stroke-width="2" stroke-miterlimit="10" d="M579.8,423.4c-10-2-27.4-3.2-27.4-3.2
					s-17.5,1.2-27.4,3.2c0,0-0.8,12.1,0,17.7c0,0,1.7,32,27.4,32.4c25.7-0.3,27.4-32.4,27.4-32.4
					C580.6,435.4,579.8,423.4,579.8,423.4z"/>
				<path fill="#F37778" d="M549.1,460.6c0.3,2.3,1.6,4.1,3.2,4.1c1.6,0,3-1.8,3.2-4.1H549.1z"/>
				<path fill="none" stroke="#1B1A1A" stroke-width="2" stroke-linecap="round" stroke-miterlimit="10" d="M531.8,444.2
					c0,0,8.1-6.8,12.8-1.7"/>
				
					<line fill="none" stroke="#1B1A1A" stroke-width="2" stroke-linecap="round" stroke-miterlimit="10" x1="531.8" y1="443.9" x2="530.3" y2="442.8"/>
				<path fill="none" stroke="#1B1A1A" stroke-width="2" stroke-linecap="round" stroke-miterlimit="10" d="M571,444.2
					c0,0-8.1-6.8-12.8-1.7"/>
				
					<line fill="none" stroke="#1B1A1A" stroke-width="2" stroke-linecap="round" stroke-miterlimit="10" x1="571" y1="443.9" x2="572.5" y2="442.8"/>
				<path fill="#1B1A1A" d="M529.2,437.1c0,0,3.6-3.1,8.6-4.3c5-1.2,7.4,1.3,7.1,1.9c-0.2,0.6-2.4,0-6.4,0.3
					C534.5,435.3,529.2,437.1,529.2,437.1z"/>
				<path fill="#1B1A1A" d="M573.9,437.5c0,0-3.6-3.1-8.6-4.3c-5-1.2-7.4,1.3-7.1,1.9c0.2,0.6,2.4,0,6.4,0.3
					C568.5,435.7,573.9,437.5,573.9,437.5z"/>
				
					<ellipse fill="none" stroke="#1B1A1A" stroke-width="2" stroke-linecap="round" stroke-miterlimit="10" cx="552.3" cy="459.8" rx="3.3" ry="4.9"/>
				<path fill="#FFFFFF" stroke="#1B1A1A" stroke-width="2" stroke-linecap="round" stroke-miterlimit="10" d="M584.7,415.3
					c0,0-4.6-11.8-32.4-11.6c-28.2-0.2-32.6,11.6-32.6,11.6c-0.8,8.8,1.1,17.5,1.6,19.9c0.6,2.4,3.1,2.9,3.1,2.9v-5.7
					c0,0,1.1-4.3,9.4-7.4c9.7-3.5,28.6-2.8,35-0.8c8.9,2.8,11,8.1,11,8.1v5.7c0,0,2.5-0.6,3.1-2.9
					C583.7,432.8,585.6,424.1,584.7,415.3z"/>
				<g>
					<path fill="#A33A4A" stroke="#1B1A1A" stroke-width="2" stroke-linecap="round" stroke-miterlimit="10" d="M526.7,451
						c0.1,0.4,0.2,0.6,0.2,0.6C526.9,451.5,526.8,451.3,526.7,451z"/>
					
						<path fill="#A33A4A" stroke="#1B1A1A" stroke-width="2" stroke-linecap="round" stroke-linejoin="round" stroke-miterlimit="10" d="
						M531,426.4c-1.7,0.9-4.2,2.7-6.5,6.1c0,0-2.2,2.8-2.4,7.7c0,0,1.9-0.2,2.7,2.2l0,0c0.6,4,1.5,7.3,1.9,8.7
						c-1.2-4.6,0.5-13.2,3.1-16.3C532.5,431.6,531.1,426.5,531,426.4z"/>
					
						<path fill="#A33A4A" stroke="#1B1A1A" stroke-width="2" stroke-linecap="round" stroke-linejoin="round" stroke-miterlimit="10" d="
						M573.7,426.4c1.7,0.9,4.2,2.7,6.5,6.1c0,0,2.2,2.8,2.4,7.7c0,0-1.9-0.2-2.7,2.2l0,0c-0.6,4-1.5,7.3-1.9,8.7
						c1.2-4.6-0.5-13.2-3.1-16.3C572.2,431.6,573.7,426.5,573.7,426.4z"/>
				</g>
				<path fill="#FFFFFF" stroke="#1B1A1A" stroke-width="2" stroke-linejoin="round" stroke-miterlimit="10" d="M585.1,396.8
					c0,0-3.7,1-2.2,3.7c1.5,2.7,0,3.5-0.4,6.2c-0.4,2.7,0.4,4.7,5,4.7s5.9,0.5,7.7,2c1.7,1.5,5.9-0.5,6.2-3.5c0.2-3,2-5.3,4-6.1
					c2-0.8,2-5,0-5.8c-2-0.7-2.5-2.2-2.7-4.4s-4-3.7-6.2-2.2c-2.2,1.5-5.2-1.4-7.2-0.6C587.4,391.7,583.2,394.9,585.1,396.8z"/>
				<path fill="#FFFFFF" stroke="#1B1A1A" stroke-width="2" stroke-miterlimit="10" d="M531.4,461.7c0,0-11.1,6.2-15.5,16.5
					c0,0,3,13.9,26.1,17.9c23.1,4,44.4-5.4,50.2-14.7c0,0-6.1-17-19.1-19.7c0,0-4.6,10-22.6,8.9
					C532.5,469.3,531.4,461.7,531.4,461.7z"/>
				<path fill="#FFFFFF" stroke="#1B1A1A" stroke-width="2" stroke-miterlimit="10" d="M553.7,470.4c0,0,0.4-2.6,5.8-3.6
					c5.4-1,11.5-1.1,15.1-5.3c0,0,13.5,5.2,16.2,23.1s-8.3,42.2-5.4,54.1c0,0-19.5,8.6-29.9-4.8c0,0,9.7-15,11.9-31.4
					C569.6,486,556.9,470.6,553.7,470.4z"/>
				<g>
					<path fill="#842F3F" stroke="#1B1A1A" stroke-width="2" stroke-miterlimit="10" d="M512.8,496.4c0,0,28.9,4.4,38.4,4.7v56.2
						c0,0-26.8-3.2-38.4-10.6V496.4z"/>
					<path fill="#842F3F" stroke="#1B1A1A" stroke-width="2" stroke-miterlimit="10" d="M590.3,496.4c0,0-28.9,4.4-38.4,4.7v56.2
						c0,0,26.8-3.2,38.4-10.6V496.4z"/>
					<path fill="#F26D82" stroke="#1B1A1A" stroke-width="2" stroke-linecap="round" stroke-miterlimit="10" d="M544.7,500.6
						c0,0,3-1.7,6.4,0.5l0.7,23.2l-4.1-2.6l-3,1V500.6z"/>
				</g>
				
					<path fill="#778687" stroke="#1B1A1A" stroke-width="2" stroke-linecap="round" stroke-linejoin="round" stroke-miterlimit="10" d="
					M507.5,520.1c0,0,1.6-1.6,5.3,2.6c3.7,4.2,10,17.8,6.7,21.4c0,0-11.3,1.1-14.6-5.1c-3.3-6.2-3.7-13-3.4-13.5
					C501.7,525.1,507.5,520.1,507.5,520.1z"/>
				<path fill="#F9F2F2" stroke="#1B1A1A" stroke-width="2" stroke-miterlimit="10" d="M514.9,544.1c0,0,5-4.4,8.1-6.9
					s14.7-14.4,16.1-17.9c1.4-3.5-2.2-5.3-8.4-2.5c-6.2,2.8-10,3.6-12.8,3.4c-2.8-0.2-2.5-4.5-4-8.2c-1.5-3.6-4.1-2.5-5.1-1.8
					c-1,0.7,0.9,8.5,0,11.6c-0.9,3.1-1.9,4-1.9,4S498.7,540.8,514.9,544.1z"/>
				
					<path fill="#A2BABC" stroke="#1B1A1A" stroke-width="2" stroke-linecap="round" stroke-linejoin="round" stroke-miterlimit="10" d="
					M507.2,533.1c-3.9-10.3,0-12.6,0-12.6c-3.4,1.3-7.3,2.9-11.5,4.8c-13.2,6-15.2,14-15.2,14c-4.1,14.4,10.5,22.6,20.5,18.3
					c5-2.2,12-8,17.6-13.3C516.5,543.7,510.5,541.5,507.2,533.1z"/>
				
					<path fill="#778687" stroke="#1B1A1A" stroke-width="2" stroke-linecap="round" stroke-linejoin="round" stroke-miterlimit="10" d="
					M594.5,520.1c0,0-1.6-1.6-5.3,2.6c-3.7,4.2-10,17.8-6.7,21.4c0,0,11.3,1.1,14.6-5.1c3.3-6.2,3.7-13,3.4-13.5
					C600.2,525.1,594.5,520.1,594.5,520.1z"/>
				<path fill="#F9F2F2" stroke="#1B1A1A" stroke-width="2" stroke-miterlimit="10" d="M587,544.1c0,0-5-4.4-8.1-6.9
					c-3.1-2.5-14.7-14.4-16.1-17.9s2.2-5.3,8.4-2.5c6.2,2.8,10,3.6,12.8,3.4c2.8-0.2,2.5-4.5,4-8.2c1.5-3.6,4.1-2.5,5.1-1.8
					c1,0.7-0.9,8.5,0,11.6c0.9,3.1,1.9,4,1.9,4S603.2,540.8,587,544.1z"/>
				
					<path fill="#A2BABC" stroke="#1B1A1A" stroke-width="2" stroke-linecap="round" stroke-linejoin="round" stroke-miterlimit="10" d="
					M594.7,533.1c3.9-10.3,0-12.6,0-12.6c3.4,1.3,7.3,2.9,11.5,4.8c13.2,6,15.2,14,15.2,14c4.1,14.4-10.5,22.6-20.5,18.3
					c-5-2.2-12-8-17.6-13.3C585.4,543.7,591.5,541.5,594.7,533.1z"/>
			</g>
			<path fill="none" stroke="#1B1A1A" stroke-width="2" stroke-linecap="round" stroke-miterlimit="10" d="M520.4,605.5
				c0,0-1.8,17.9-14.5,25.3"/>
			<path fill="none" stroke="#1B1A1A" stroke-width="2" stroke-linecap="round" stroke-miterlimit="10" d="M585,605.8
				c0,0,3.8,18.2,11.9,23.2"/>
			
				<line fill="none" stroke="#1B1A1A" stroke-width="2" stroke-linecap="round" stroke-miterlimit="10" x1="544.6" y1="628.9" x2="551.2" y2="632.8"/>
		</g>
		<g>
			
				<path fill="#A33A4A" stroke="#1B1A1A" stroke-width="2" stroke-linecap="round" stroke-linejoin="round" stroke-miterlimit="10" d="
				M847.9,422.6c0,0-7.7,8.3-10.2,32c-2.5,23.6-16.2,22.3-18.4,18.9c0,0-4.2,9.5,9,15.3c13.2,5.8,40.9,1.7,40.9,1.7v-67.8
				C869.1,422.6,854.4,416,847.9,422.6z"/>
			
				<path fill="#A33A4A" stroke="#1B1A1A" stroke-width="2" stroke-linecap="round" stroke-linejoin="round" stroke-miterlimit="10" d="
				M898.5,422.6c0,0,7.7,8.3,10.2,32c2.5,23.6,16.2,22.3,18.4,18.9c0,0,4.2,9.5-9,15.3c-13.2,5.8-40.9,1.7-40.9,1.7v-67.8
				C877.3,422.6,892.1,416,898.5,422.6z"/>
			<g>
				<path fill="#F26D82" stroke="#1B1A1A" stroke-width="2" stroke-linecap="round" stroke-miterlimit="10" d="M894.1,455.5
					c0,0,10.4-1.1,26.4,13.8c15.9,14.9,31.1,26.7,39.8,24.8c0,0,2.9,14.8-12.8,24.4c-15.6,9.7-44.2-24.7-44.2-24.7
					s-3.3-22.4-7.9-24.3C890.8,467.5,894.1,455.5,894.1,455.5z"/>
				<path fill="none" stroke="#1B1A1A" stroke-width="2" stroke-linecap="round" stroke-miterlimit="10" stroke-dasharray="7" d="
					M893,459.7c0,0,11,0.6,27.6,17.5c16.6,17,29.9,25.2,39.4,24.8"/>
				<path fill="none" stroke="#1B1A1A" stroke-width="2" stroke-linecap="round" stroke-miterlimit="10" stroke-dasharray="7" d="
					M894.2,468.6c0,0,11.3,3.1,24.1,17.3c12.8,14.2,28.9,25.8,38.4,23.7"/>
				<path fill="none" stroke="#1B1A1A" stroke-width="2" stroke-linecap="round" stroke-miterlimit="10" stroke-dasharray="7" d="
					M901.3,483.4c0,0,4.2,1.7,13.3,10c9.1,8.3,23.5,25,35.5,23.3"/>
				<path fill="none" stroke="#1B1A1A" stroke-width="2" stroke-linecap="round" stroke-miterlimit="10" stroke-dasharray="7" d="
					M932.3,518.1c0,0,17-9.2,20.6-24.8"/>
				<path fill="none" stroke="#1B1A1A" stroke-width="2" stroke-linecap="round" stroke-miterlimit="10" stroke-dasharray="7" d="
					M923.1,512.6c0,0,15.1-8.9,19.6-25.5"/>
				<path fill="none" stroke="#1B1A1A" stroke-width="2" stroke-linecap="round" stroke-miterlimit="10" stroke-dasharray="7" d="
					M912.8,503.8c0,0,17.2-9.7,20.1-23.5"/>
				<path fill="none" stroke="#1B1A1A" stroke-width="2" stroke-linecap="round" stroke-miterlimit="10" stroke-dasharray="7" d="
					M907.6,498.7c0,0,16.2-15.4,15.1-27.3"/>
				<path fill="none" stroke="#1B1A1A" stroke-width="2" stroke-linecap="round" stroke-miterlimit="10" stroke-dasharray="7" d="
					M902.6,489.7c0,0,11.1-15.4,9.7-27.1"/>
			</g>
			<path fill="#E53130" stroke="#1B1A1A" stroke-width="2" stroke-linecap="round" stroke-miterlimit="10" d="M839.8,409.3
				c0,0-2.8-20.5,14.3-25.8c0,0,11.9-13.5,31.9-9.4c20,4,34.7,22.5,34.4,35.2c-0.3,12.7,0,15.7,0,15.7s1.7,1-2.8,3.7
				c-4.5,2.7-9.9,2.9-14.5,0.4c-4.6-2.4-8.8-23.1-29-24.3C854,403.7,839.8,409.3,839.8,409.3z"/>
			<path fill="#F8E4E6" stroke="#1B1A1A" stroke-width="2" stroke-miterlimit="10" d="M842.6,761.9c0,0-5,8.3-10.5,11.5
				c-5.5,3.2-19.1,6-18.3,21.1c0,0-2,0.8-2,3.4c0,2.5,3.9,9.4,18.6,6.5c14.7-2.8,16.8-12.1,26.3-15.9s11.6-3.9,13.6-11.2
				c2-7.4-3.4-11.9-4.1-15.5C865.4,758.2,845.5,757.7,842.6,761.9z"/>
			<path fill="#6B555A" stroke="#1B1A1A" stroke-width="2" stroke-linecap="round" stroke-miterlimit="10" d="M870.2,777.3
				c0.2-0.6,0.3-1.1,0.3-1.7l0,0c-2.3,3.9-8.5,6.2-16.4,10.1s-14.7,13.2-26.1,14.9c-11.4,1.7-14.2-6-14.2-6s-2,0.8-2,3.4
				c0,2.5,3.9,9.4,18.6,6.5c14.7-2.8,16.8-12.1,26.3-15.9S868.2,784.7,870.2,777.3z"/>
			<path fill="#F8E4E6" stroke="#1B1A1A" stroke-width="2" stroke-miterlimit="10" d="M901.9,761.9c0,0,5,8.3,10.5,11.5
				c5.5,3.2,19.1,6,18.3,21.1c0,0,2,0.8,2,3.4c0,2.5-3.9,9.4-18.6,6.5c-14.7-2.8-16.8-12.1-26.3-15.9c-9.6-3.9-11.6-3.9-13.6-11.2
				c-2-7.4,3.4-11.9,4.1-15.5C879.1,758.2,899,757.7,901.9,761.9z"/>
			<path fill="#6B555A" stroke="#1B1A1A" stroke-width="2" stroke-linecap="round" stroke-miterlimit="10" d="M874.3,777.3
				c-0.2-0.6-0.3-1.1-0.3-1.7l0,0c2.3,3.9,8.5,6.2,16.4,10.1c7.9,3.9,14.7,13.2,26.1,14.9c11.4,1.7,14.2-6,14.2-6s2,0.8,2,3.4
				c0,2.5-3.9,9.4-18.6,6.5c-14.7-2.8-16.8-12.1-26.3-15.9C878.3,784.7,876.3,784.7,874.3,777.3z"/>
			<path fill="#E53130" stroke="#1B1A1A" stroke-width="2" stroke-linecap="round" stroke-miterlimit="10" d="M939.2,531.1
				c0,0-15.7-42.3-19.8-48.8c-4-6.5-19.3-14.9-19.3-14.9c-4.1-2.4-12.5,0-12.5,0s-12.7,1.5-15.7,1.7c-3-0.2-15.7-1.7-15.7-1.7
				s-8.5-2.4-12.5,0c0,0-15.3,8.4-19.3,14.9c-4,6.5-19.8,48.8-19.8,48.8s-1.2,7.8,5.5,11.7c6.6,3.9,16.3,2,16.3,2l5.9-10.3
				c0,0,0,7.8-0.4,11.7s-10.5,47.1-10.5,47.1s16.7,9,52.4,9.9c29.5,0.7,46.9-8.8,46.9-8.8s-8.5-44.3-8.9-48.3
				c-0.4-4-0.4-11.7-0.4-11.7l5.9,10.3c0,0,9.7,1.9,16.3-2C940.3,538.9,939.2,531.1,939.2,531.1z"/>
			<path fill="#F8E4E6" stroke="#1B1A1A" stroke-width="2" stroke-miterlimit="10" d="M835.4,472.5c0,0-8.7-0.1-16.8,12.5
				c-8.1,12.6-14.1,17-14.1,17s-1.1,9.2,7.7,9.1c8.8-0.1,8.2-2,11.5,3.3c3.3,5.3,15.3,8.6,23.1,4.2c7.9-4.4,8-2.6,12.7-0.6
				c4.7,2,7.2,6.3,13.8,2.2c6.7-4.2,12.1-3.6,17.3-1.6c5.2,2,10.4,3.5,15.8-0.6c5.4-4.1,5.8-2.4,11.4-1.2c5.6,1.1,6,2.6,10.1-1.1
				s12.1,1.3,16.6-5.8c0,0-11-6.6-15-14.8c-4-8.2-7.6-19.6-20.9-22.6C908.6,472.5,858.4,485.6,835.4,472.5z"/>
			<path fill="#F9F2F2" stroke="#1B1A1A" stroke-width="2" stroke-miterlimit="10" d="M844.4,435.2c0,0-1.7-2.3-4.1,0
				c-2.4,2.3,0.6,12.8,7.6,13.3L844.4,435.2z"/>
			<path fill="#F9F2F2" stroke="#1B1A1A" stroke-width="2" stroke-miterlimit="10" d="M900.2,435.2c0,0,1.7-2.3,4.1,0
				s-0.6,12.8-7.6,13.3L900.2,435.2z"/>
			<path fill="#F9F2F2" stroke="#1B1A1A" stroke-width="2" stroke-miterlimit="10" d="M899.8,417.4c-10-2-27.4-3.2-27.4-3.2
				s-17.5,1.2-27.4,3.2c0,0-0.8,12.1,0,17.7c0,0,1.7,32,27.4,32.4c25.7-0.3,27.4-32.4,27.4-32.4
				C900.6,429.5,899.8,417.4,899.8,417.4z"/>
			<path fill="#F37778" d="M869.1,454.6c0.3,2.3,1.6,4.1,3.2,4.1c1.6,0,3-1.8,3.2-4.1H869.1z"/>
			<path fill="none" stroke="#1B1A1A" stroke-width="2" stroke-linecap="round" stroke-miterlimit="10" d="M851.8,438.2
				c0,0,8.1-6.8,12.8-1.7"/>
			
				<line fill="none" stroke="#1B1A1A" stroke-width="2" stroke-linecap="round" stroke-miterlimit="10" x1="851.8" y1="437.9" x2="850.3" y2="436.8"/>
			<path fill="none" stroke="#1B1A1A" stroke-width="2" stroke-linecap="round" stroke-miterlimit="10" d="M891,438.2
				c0,0-8.1-6.8-12.8-1.7"/>
			
				<line fill="none" stroke="#1B1A1A" stroke-width="2" stroke-linecap="round" stroke-miterlimit="10" x1="891" y1="437.9" x2="892.5" y2="436.8"/>
			<path fill="#1B1A1A" d="M849.2,431.1c0,0,3.6-3.1,8.6-4.3c5-1.2,7.4,1.4,7.1,1.9c-0.2,0.6-2.4,0-6.4,0.3
				C854.5,429.3,849.2,431.1,849.2,431.1z"/>
			<path fill="#1B1A1A" d="M893.9,431.5c0,0-3.6-3.1-8.6-4.3c-5-1.2-7.4,1.3-7.1,1.9c0.2,0.6,2.4,0,6.4,0.3
				C888.6,429.8,893.9,431.5,893.9,431.5z"/>
			
				<ellipse fill="none" stroke="#1B1A1A" stroke-width="2" stroke-linecap="round" stroke-miterlimit="10" cx="872.4" cy="453.8" rx="3.3" ry="4.9"/>
			<path fill="#FFFFFF" stroke="#1B1A1A" stroke-width="2" stroke-linecap="round" stroke-miterlimit="10" d="M904.8,409.3
				c0,0-4.6-11.8-32.4-11.6c-28.2-0.2-32.6,11.6-32.6,11.6c-0.8,8.8,1.1,17.5,1.6,19.9c0.6,2.4,3.1,2.9,3.1,2.9v-5.7
				c0,0,1.1-4.3,9.5-7.4c9.7-3.5,28.6-2.8,35-0.8c8.9,2.8,11,8.1,11,8.1v5.7c0,0,2.5-0.6,3.1-2.9
				C903.7,426.8,905.6,418.2,904.8,409.3z"/>
			<g>
				<path fill="#A33A4A" stroke="#1B1A1A" stroke-width="2" stroke-linecap="round" stroke-miterlimit="10" d="M846.8,445
					c0.1,0.4,0.2,0.6,0.2,0.6C846.9,445.5,846.8,445.3,846.8,445z"/>
				
					<path fill="#A33A4A" stroke="#1B1A1A" stroke-width="2" stroke-linecap="round" stroke-linejoin="round" stroke-miterlimit="10" d="
					M851,420.4c-1.7,0.9-4.2,2.7-6.5,6.1c0,0-2.2,2.8-2.4,7.7c0,0,1.9-0.2,2.7,2.2l0,0c0.6,4,1.5,7.3,1.9,8.7
					c-1.2-4.6,0.5-13.2,3.1-16.3C852.5,425.6,851.1,420.5,851,420.4z"/>
				
					<path fill="#A33A4A" stroke="#1B1A1A" stroke-width="2" stroke-linecap="round" stroke-linejoin="round" stroke-miterlimit="10" d="
					M893.7,420.4c1.7,0.9,4.2,2.7,6.5,6.1c0,0,2.2,2.8,2.4,7.7c0,0-1.9-0.2-2.7,2.2l0,0c-0.6,4-1.5,7.3-1.9,8.7
					c1.2-4.6-0.5-13.2-3.1-16.3C892.3,425.6,893.7,420.5,893.7,420.4z"/>
			</g>
			<g>
				<path fill="#F9F2F2" stroke="#1B1A1A" stroke-width="2" stroke-miterlimit="10" d="M834.6,491.6c0,0,28.9,4.4,38.4,4.7v56.2
					c0,0-26.8-3.2-38.4-10.6V491.6z"/>
				<path fill="#F9F2F2" stroke="#1B1A1A" stroke-width="2" stroke-miterlimit="10" d="M912.1,491.6c0,0-28.9,4.4-38.4,4.7v56.2
					c0,0,26.8-3.2,38.4-10.6V491.6z"/>
				<path fill="#F26D82" stroke="#1B1A1A" stroke-width="2" stroke-linecap="round" stroke-miterlimit="10" d="M866.6,495.8
					c0,0,3-1.7,6.4,0.5l0.7,23.2l-4.1-2.6l-3,1V495.8z"/>
			</g>
			
				<path fill="#778687" stroke="#1B1A1A" stroke-width="2" stroke-linecap="round" stroke-linejoin="round" stroke-miterlimit="10" d="
				M827.5,514.1c0,0,1.6-1.6,5.3,2.6c3.7,4.2,10,17.8,6.7,21.4c0,0-11.3,1.1-14.6-5.1c-3.3-6.2-3.7-13-3.4-13.5
				C821.8,519.1,827.5,514.1,827.5,514.1z"/>
			
				<circle fill="#FFFFFF" stroke="#1B1A1A" stroke-width="2" stroke-linejoin="round" stroke-miterlimit="10" cx="921.6" cy="429.7" r="9.3"/>
			
				<path fill="#A33A4A" stroke="#1B1A1A" stroke-width="2" stroke-linecap="round" stroke-linejoin="round" stroke-miterlimit="10" d="
				M861,417.4c0,0,13.9,10,26.9,8.6c13-1.4,14-7,14-7s-6.6,1.7-14.1-1.1C887.7,418,871.6,414.2,861,417.4z"/>
			<circle fill="#E55F76" cx="857.5" cy="447.9" r="3.5"/>
			<circle fill="#E55F76" cx="886.6" cy="447.9" r="3.5"/>
			
				<path fill="#F26D82" stroke="#1B1A1A" stroke-width="2" stroke-linecap="round" stroke-linejoin="round" stroke-miterlimit="10" d="
				M908.6,472.5C905.1,457.1,893,455,893,455c-3.7,8.5-18.5,11-21,11.3c-2.5-0.3-17.2-2.8-21-11.3c0,0-12.1,2.1-15.6,17.5
				c0,0,6.8,18.9,36.2,19.3v0c0.1,0,0.2,0,0.4,0c0.1,0,0.2,0,0.4,0v0C901.7,491.5,908.6,472.5,908.6,472.5z"/>
			<g>
				<g>
					<path fill="none" stroke="#1B1A1A" stroke-width="2" stroke-linecap="round" stroke-miterlimit="10" d="M844.6,458
						c0,0,0.6,1.2,1.9,2.9"/>
					
						<path fill="none" stroke="#1B1A1A" stroke-width="2" stroke-linecap="round" stroke-miterlimit="10" stroke-dasharray="6.4915,6.4915" d="
						M851,465.5c4.2,3.2,10.6,6.3,20.1,6.4c12,0.1,20.7-4,25.7-7.4"/>
					<path fill="none" stroke="#1B1A1A" stroke-width="2" stroke-linecap="round" stroke-miterlimit="10" d="M899.5,462.6
						c1.7-1.4,2.6-2.3,2.6-2.3"/>
				</g>
			</g>
			<path fill="none" stroke="#1B1A1A" stroke-width="2" stroke-linecap="round" stroke-miterlimit="10" stroke-dasharray="7" d="
				M838.5,465.8c0,0,8.6,15.8,30.9,16.8c23.1,1,37-14.6,37-14.6"/>
			<path fill="none" stroke="#1B1A1A" stroke-width="2" stroke-linecap="round" stroke-miterlimit="10" stroke-dasharray="7" d="
				M855.5,460.3c0,0-10.7,7.7-13.9,20.9"/>
			<path fill="none" stroke="#1B1A1A" stroke-width="2" stroke-linecap="round" stroke-miterlimit="10" stroke-dasharray="7" d="
				M862.3,463.8c0,0-7.6,12.7-8.3,24.4"/>
			
				<line fill="none" stroke="#1B1A1A" stroke-width="2" stroke-linecap="round" stroke-miterlimit="10" stroke-dasharray="7" x1="872" y1="466.3" x2="871.3" y2="491.8"/>
			<path fill="none" stroke="#1B1A1A" stroke-width="2" stroke-linecap="round" stroke-miterlimit="10" stroke-dasharray="7" d="
				M879.9,464.5c0,0,11.6,8.2,10.3,23.4"/>
			<path fill="none" stroke="#1B1A1A" stroke-width="2" stroke-linecap="round" stroke-miterlimit="10" stroke-dasharray="7" d="
				M890.6,459c0,0,13.5,7,12.7,21.3"/>
			<path fill="#37C2DA" stroke="#1B1A1A" stroke-width="2" stroke-linecap="round" stroke-miterlimit="10" d="M824.7,520.8
				c0,0,3.2-3.5,6.3-9.1c3.1-5.6,12.6-13.8,21.7-11.9c9.1,2,10.6,8.2,6.9,18.3c-3.7,10.1-16.9,15.5-24.1,18.8
				C828.2,540.2,824.7,520.8,824.7,520.8z"/>
			
				<path fill="#FBB16D" stroke="#1B1A1A" stroke-width="2" stroke-linecap="round" stroke-linejoin="round" stroke-miterlimit="10" d="
				M827.3,527.1c-3.9-10.3,0-12.6,0-12.6c-3.4,1.3-7.3,2.9-11.5,4.8c-13.2,6-15.2,14-15.2,14c-4.1,14.4,10.5,22.6,20.5,18.3
				c5-2.2,12-8,17.6-13.3C836.6,537.7,830.5,535.5,827.3,527.1z"/>
			
				<path fill="#778687" stroke="#1B1A1A" stroke-width="2" stroke-linecap="round" stroke-linejoin="round" stroke-miterlimit="10" d="
				M914,514.1c0,0-1.6-1.6-5.3,2.6c-3.7,4.2-10,17.8-6.7,21.4c0,0,11.3,1.1,14.6-5.1c3.3-6.2,3.7-13,3.4-13.5
				C919.7,519.1,914,514.1,914,514.1z"/>
			<path fill="#37C2DA" stroke="#1B1A1A" stroke-width="2" stroke-linecap="round" stroke-miterlimit="10" d="M916.8,520.8
				c0,0-3.2-3.5-6.3-9.1c-3.1-5.6-12.6-13.8-21.7-11.9c-9.1,2-10.6,8.2-6.9,18.3c3.7,10.1,16.9,15.5,24.1,18.8
				C913.3,540.2,916.8,520.8,916.8,520.8z"/>
			<path fill="#E53130" stroke="#1B1A1A" stroke-width="2" stroke-linecap="round" stroke-miterlimit="10" d="M914.3,527.1
				c3.9-10.3,0-12.6,0-12.6c3.4,1.3,7.3,2.9,11.5,4.8c13.2,6,15.2,14,15.2,14c4.1,14.4-10.5,22.6-20.5,18.3c-5-2.2-12-8-17.6-13.3
				C904.9,537.7,911,535.5,914.3,527.1z"/>
			<path fill="#F9F2F2" stroke="#1B1A1A" stroke-width="2" stroke-miterlimit="10" d="M927.6,619.1c-1.2-23.7-8.1-45.8-8.1-45.8
				c-12.2,2.8-28.7,3.5-44.4,3.2v-0.1c-0.6,0-1.2,0-1.8,0c-0.6,0-1.2,0-1.8,0v0.1c-15.7,0.3-32.1-0.4-44.4-3.2
				c0,0-6.2,19.6-7.4,43.3c-1.2,23.7-8.8,136.7-18.8,150c0,0,7.4,8.7,18.8,5.2c11.4-3.5,20.3-1.7,25.3,1.2c5,2.9,12.8,3.7,20.7,0
				c2.6-1.2,5.1-2.1,7.6-2.7c2.5,0.5,5,1.5,7.6,2.7c7.8,3.7,15.7,2.9,20.7,0c5-2.9,13.8-4.7,25.3-1.2c11.4,3.5,18.8-5.2,18.8-5.2
				C935.7,753.4,928.8,642.8,927.6,619.1z"/>
			<path fill="#F9F2F2" stroke="#1B1A1A" stroke-width="2" stroke-miterlimit="10" d="M831.3,555.3c0,0,43.8,13.5,83.9,0
				c0,0,5.1,6.7,6.1,21c0,0-47.2,20.2-95.4,0C825.8,576.2,824.2,565.4,831.3,555.3z"/>
		</g>
		<g>
			<g>
				<path fill="#F9F2F2" stroke="#1B1A1A" stroke-width="2" stroke-miterlimit="10" d="M768.2,703c0,0,2.5,69.7,11.1,113.4
					c0,0,6.2,4,14.1,3.6c0,0,1.7-65.6,2.5-88.5c0.9-25.3,2.2-31.5,2.2-31.5S775.5,693.6,768.2,703z"/>
				
					<path fill="#F26D82" stroke="#1B1A1A" stroke-width="2" stroke-linecap="round" stroke-linejoin="round" stroke-miterlimit="10" d="
					M772.4,764c0,0,3.7,3.5,12.5,3.7c8.8,0.2,10.6-4.7,10.6-4.7s0.2,47.9,0,51.5c-0.2,3.5,0.6,6.9-1.3,8.8c-1.9,1.9-6,2.6-11.9,6.6
					c-6,4-15,7.1-24,5.5c-9-1.6-13-7.2-8.7-10.1c0,0-3.7-11.4,6.3-15.6c10-4.2,17.5-4.2,18.2-6.9S772.4,764,772.4,764z"/>
				<path fill="#F9F2F2" stroke="#1B1A1A" stroke-width="2" stroke-linejoin="round" stroke-miterlimit="10" d="M794.2,823.4
					c1.2-1.2,1.3-3,1.3-5c-2.9,1.8-4.6,2.2-10.1,4.5c-5,2.1-8.7,5.5-19.6,7.3c-11,1.9-16.1-4.9-16.1-4.9c-4.3,2.9-0.3,8.5,8.7,10.1
					c9,1.6,18-1.4,24-5.5C788.3,825.9,792.3,825.3,794.2,823.4z"/>
			</g>
			<g>
				<path fill="#F9F2F2" stroke="#1B1A1A" stroke-width="2" stroke-miterlimit="10" d="M826.4,703c0,0-2.5,69.7-11.1,113.4
					c0,0-6.2,4-14.1,3.6c0,0-1.7-65.6-2.5-88.5c-0.9-25.3-2.2-31.5-2.2-31.5S819.1,693.6,826.4,703z"/>
				
					<path fill="#F26D82" stroke="#1B1A1A" stroke-width="2" stroke-linecap="round" stroke-linejoin="round" stroke-miterlimit="10" d="
					M822.2,764c0,0-3.7,3.5-12.5,3.7c-8.8,0.2-10.6-4.7-10.6-4.7s-0.2,47.9,0,51.5c0.2,3.5-0.6,6.9,1.3,8.8c1.9,1.9,6,2.6,11.9,6.6
					s15,7.1,24,5.5c9-1.6,13-7.2,8.7-10.1c0,0,3.7-11.4-6.3-15.6c-10-4.2-17.5-4.2-18.2-6.9C819.8,800,822.2,764,822.2,764z"/>
				<path fill="#F9F2F2" stroke="#1B1A1A" stroke-width="2" stroke-linejoin="round" stroke-miterlimit="10" d="M800.4,823.4
					c-1.2-1.2-1.3-3-1.3-5c2.9,1.8,4.6,2.2,10.1,4.5c5,2.1,8.7,5.5,19.6,7.3c11,1.9,16.1-4.9,16.1-4.9c4.3,2.9,0.3,8.5-8.7,10.1
					c-9,1.6-18-1.4-24-5.5S802.3,825.3,800.4,823.4z"/>
			</g>
			<path fill="#E53130" stroke="#1B1A1A" stroke-width="2" stroke-linecap="round" stroke-miterlimit="10" d="M820.9,576.3
				c0,0,14.1,2.2,18.4,11s16.2,46.7,16.2,46.7s-3,8.8-11.5,11.4c-8.4,2.6-13.7-6.8-13.7-6.8L846.8,745c0,0-25.1,7.5-49.8,8.9
				l0.2-141.8c0,0,13.5-9.4,15.8-16.4C815.3,588.7,820.9,576.3,820.9,576.3z"/>
			<path fill="#F9F2F2" stroke="#1B1A1A" stroke-width="2" stroke-miterlimit="10" d="M782.7,572.5c0,0,2.1-1.8,7.1-2.9
				c5-1.1,13.4-4.4,14.2-3.3c0.7,1.1,9.3,15.4,9.3,15.4s-2.7,15.8-8.3,22.8c-5.5,7-12.7,8.4-13.5,7.6s-8.8-12.8-8.8-13.4
				C782.8,598.1,782.7,572.5,782.7,572.5z"/>
			<path fill="#E53130" stroke="#1B1A1A" stroke-width="2" stroke-linecap="round" stroke-miterlimit="10" d="M773.4,576.3
				c0,0-14.1,2.2-18.5,11c-4.3,8.8-16.2,46.7-16.2,46.7s3,8.8,11.5,11.4c8.4,2.6,13.8-6.8,13.8-6.8l-17.2,104.9
				c0,0,19.5,11.9,50.4,10.5l0-141.8c0,0-13.5-9.4-15.8-16.4C779,588.7,773.4,576.3,773.4,576.3z"/>
			<path fill="#E53130" stroke="#1B1A1A" stroke-width="2" stroke-linecap="round" stroke-miterlimit="10" d="M761.3,512.1
				c0-0.6-1.3-9.9,4.4-21.3c5.7-11.4,16.5-11.4,16.5-11.4s3.1-8.6,19.7-9.9c16.7-1.3,24.8,10.1,24.8,10.1s12,0.7,17.7,6.8
				c5.7,6.1,12.7,24.9-2.8,36.8h-5.5c0,0-2-2.4-5.5-3.9c-3.5-1.5-9.2-2.1-9.2-2.1L761.3,512.1z"/>
			<path fill="#E86767" stroke="#1B1A1A" stroke-width="2" stroke-linejoin="round" stroke-miterlimit="10" d="M763.9,537.9
				c0,0-0.9,4.7-5.7,7.5s-4.6,12.8,2,13.9c0,0-4.2,7,1.8,13.2s16.7-0.6,16.7-0.6s0.9,4.4,5.3,4.4s5.8-6.6,5.8-6.6l-3-43.2
				c0,0-3.8-5.4-11.3-2.3S763.9,537.9,763.9,537.9z"/>
			<path fill="#E86767" stroke="#1B1A1A" stroke-width="2" stroke-linejoin="round" stroke-miterlimit="10" d="M830,537.9
				c0,0,0.9,4.7,5.7,7.5c4.8,2.8,4.6,12.8-2,13.9c0,0,4.2,7-1.8,13.2s-16.7-0.6-16.7-0.6s-0.9,4.4-5.3,4.4c-4.4,0-5.8-6.6-5.8-6.6
				l3-43.2c0,0,3.8-5.4,11.3-2.3S830,537.9,830,537.9z"/>
			<path fill="#F9F2F2" stroke="#1B1A1A" stroke-width="2" stroke-miterlimit="10" d="M766.6,516.3c0,0,0.2,10.8,2.2,20
				c0,0,3.8,21.9,9,28.4c5.2,6.5,18.9,7.8,18.9,7.8s13.7-1.3,18.9-7.8c5.2-6.5,9-28.4,9-28.4c1.9-9.2,2.2-20,2.2-20
				C816.9,513.6,776.6,513.6,766.6,516.3z"/>
			<path fill="none" stroke="#1B1A1A" stroke-width="2" stroke-linecap="round" stroke-miterlimit="10" d="M789.1,541.7
				c0,0-1.3-4.6-6.5-5.3c-5.2-0.7-7.1,5.3-7.1,5.3c-0.3,0-1.7,0-2.2-1.6"/>
			<path fill="none" stroke="#1B1A1A" stroke-width="2" stroke-linecap="round" stroke-miterlimit="10" d="M802,541.7
				c0,0,1.3-4.6,6.5-5.3c5.2-0.7,7.1,5.3,7.1,5.3s1.9,0.7,3-1.6"/>
			<circle fill="#F37778" cx="780.3" cy="550.4" r="4.8"/>
			<circle fill="#F37778" cx="811.9" cy="550.4" r="4.8"/>
			<path fill="none" stroke="#F37778" stroke-width="2" stroke-linecap="round" stroke-miterlimit="10" d="M789.9,558.6
				c0,0,3.6,3.3,6.3,3.3c4.8,0,7.8-4,7.8-4"/>
			<path fill="none" stroke="#1B1A1A" stroke-width="2" stroke-linecap="round" stroke-miterlimit="10" d="M817.1,538.5
				c0,0-0.5,1.8-2.2,1.6"/>
			<path fill="none" stroke="#1B1A1A" stroke-width="2" stroke-linecap="round" stroke-miterlimit="10" d="M774.5,538.5
				c0,0,0.4,1.5,1.7,1.6"/>
			<path fill="#E86767" stroke="#1B1A1A" stroke-width="2" stroke-linejoin="round" stroke-miterlimit="10" d="M762.1,537.1"/>
			<path fill="#FFFFFF" stroke="#1B1A1A" stroke-width="2" stroke-linecap="round" stroke-miterlimit="10" d="M763.9,538.5
				c0,0,2-10.5,28.5-11.8c26.4-1.3,35.8,9.4,36.9,11.8c0,0,5.9-14-0.4-29.5c0,0-8.3-14.9-35.3-13c-24.9,1.7-32.7,11.5-32.7,11.5
				S756,527.6,763.9,538.5z"/>
			<path fill="none" stroke="#1B1A1A" stroke-width="2" stroke-linecap="round" stroke-linejoin="round" stroke-miterlimit="10" d="
				M763.9,538.5c0,0-0.6,4.6-7.3,6.3c-6.8,1.7-7.9,8.2-5.5,9.8s3.1,5.2,1.5,5.3s-2.6,3.8-0.2,4.4"/>
			<path fill="none" stroke="#1B1A1A" stroke-width="2" stroke-linecap="round" stroke-linejoin="round" stroke-miterlimit="10" d="
				M829.3,538.5c0,0-1.7,4.1,3.7,7c5.3,2.9,11.9,6.7,9.2,10.7c-2.8,4-4.4,7-1.7,8.1c2.8,1.1,4.2-2,1.5-2.4"/>
			<path fill="none" stroke="#1B1A1A" stroke-width="2" stroke-linecap="round" stroke-miterlimit="10" d="M829,507.5
				c0,0,7.1,2.8,10-6"/>
			<path fill="none" stroke="#1B1A1A" stroke-width="2" stroke-linecap="round" stroke-miterlimit="10" d="M785,495.8
				c-0.2-0.2-3.8-6.1,0-10.6"/>
			<path fill="none" stroke="#1B1A1A" stroke-width="2" stroke-linecap="round" stroke-miterlimit="10" d="M826.5,479.2
				c0,0,5.7,2.4,1.9,11.3"/>
			
				<circle fill="#37C2DA" stroke="#1B1A1A" stroke-width="2" stroke-linecap="round" stroke-miterlimit="10" cx="838.3" cy="528.8" r="6.6"/>
			<path fill="#F9F2F2" stroke="#1B1A1A" stroke-width="2" stroke-miterlimit="10" d="M777.8,564.7c0,0-3.1,0.1-4.4,1.7
				c-1.4,1.6-1,4.7-1,4.7s-2.8,0.4-3.8,3.9c-1,3.6,2.3,7.4,2.3,7.4s-1.8,2.5-0.8,4.8c1.1,2.3,3,2.7,3,2.7s-2,4.6,0,7.2
				s5.1,2.4,5.1,2.4s-1,3.7,2,6.5s4.8,1.9,4.8,1.9s1.1,4.3,4.8,5.8c3.7,1.5,6.8,1.4,6.8,1.4s0.7-4.9,0-9.2c-0.7-4.3-3.7-6.3-3.7-6.3
				s1.7-2.6,0.6-5s-2.5-3.5-2.5-3.5s0.6-2.5,0.8-5.8c0.1-3.3-2.8-5.4-2.8-5.4s1-2.7,0.8-4.7c-0.2-2.1-1-3-1-3l-0.5-1.7
				C788.4,570.8,781.1,568.8,777.8,564.7z"/>
			<path fill="#F9F2F2" stroke="#1B1A1A" stroke-width="2" stroke-miterlimit="10" d="M815.2,564.7c0,0,3.1,0.1,4.4,1.7
				c1.4,1.6,1,4.7,1,4.7s2.8,0.4,3.8,3.9c1,3.6-2.3,7.4-2.3,7.4s1.8,2.5,0.8,4.8c-1.1,2.3-3,2.7-3,2.7s2,4.6,0,7.2
				c-2,2.5-5.1,2.4-5.1,2.4s1,3.7-2,6.5c-3,2.8-4.8,1.9-4.8,1.9s-1.1,4.3-4.8,5.8c-3.7,1.5-6.9,1.4-6.9,1.4s-0.7-4.9,0-9.2
				c0.7-4.3,3.7-6.3,3.7-6.3s-1.7-2.6-0.6-5c1.1-2.4,2.5-3.5,2.5-3.5s-0.6-2.5-0.8-5.8c-0.1-3.3,2.8-5.4,2.8-5.4s-1-2.7-0.8-4.7
				c0.2-2.1,1-3,1-3l0.5-1.7C804.6,570.8,811.9,568.8,815.2,564.7z"/>
			
				<circle fill="#37C2DA" stroke="#1B1A1A" stroke-width="2" stroke-linecap="round" stroke-miterlimit="10" cx="801.4" cy="626" r="2.7"/>
			
				<circle fill="#37C2DA" stroke="#1B1A1A" stroke-width="2" stroke-linecap="round" stroke-miterlimit="10" cx="801.4" cy="649.7" r="2.7"/>
			
				<circle fill="#37C2DA" stroke="#1B1A1A" stroke-width="2" stroke-linecap="round" stroke-miterlimit="10" cx="801.4" cy="673.4" r="2.7"/>
			
				<circle fill="#37C2DA" stroke="#1B1A1A" stroke-width="2" stroke-linecap="round" stroke-miterlimit="10" cx="801.4" cy="697" r="2.7"/>
			<path fill="#F9F2F2" stroke="#1B1A1A" stroke-width="2" stroke-linejoin="round" stroke-miterlimit="10" d="M743.6,735.2
				c0,0-0.8-4.7,4.7-6.8c5.5-2.1,10.6,2,10.6,2s1.1-2.4,4.6-2c3.5,0.4,4.7,6.8,4.7,6.8s2.9-3.1,7.6-1.9s5.6,7.4,5.6,7.4
				s3.2-2.3,6.5-1.6c3.3,0.8,3.9,3.5,3.9,3.5s1.6-4.3,6.2-4.7c4.7-0.4,8.9,4.7,8.9,4.7s1-3.7,5.1-4.5c4.1-0.8,5.6,0.6,5.6,0.6
				s1.4-6.1,6.6-7.5c5.3-1.4,8.2,0.9,8.2,0.9s-0.6-6.2,7.2-5.3c0,0,2.9-4.1,8.8-2.3c5.8,1.8,7.4,12.7,0.8,18.1c0,0-0.2,4.4-3.7,5.6
				c-3.5,1.2-6.8-0.9-6.8-0.9s0.6,4.7-5,7.2c-5.6,2.5-9.3,0-9.3,0s-0.2,3.9-3.6,4.7c-3.4,0.8-6.5-3.1-6.5-3.1s-1.6,5.3-8.6,6.6
				c-7,1.4-9.6-3.1-9.6-3.1s-1.1,2.1-6.4,2.1c-5.3,0-6.4-2.7-6.4-2.7s-3.1,3.5-8.8,2.5c-5.6-1-9.4-5.5-9.4-5.5s-4.5,0.8-7.6-1.2
				c-3.1-1.9-4.7-5.3-4.7-5.3S739.1,747.2,743.6,735.2z"/>
			<g>
				<path fill="#F9F2F2" stroke="#1B1A1A" stroke-width="2" stroke-miterlimit="10" d="M763.6,594.8c0,0,26.2,4,34.8,4.2v51
					c0,0-24.3-2.9-34.8-9.6V594.8z"/>
				<path fill="#F9F2F2" stroke="#1B1A1A" stroke-width="2" stroke-miterlimit="10" d="M833.9,594.8c0,0-26.2,4-34.8,4.2v51
					c0,0,24.3-2.9,34.8-9.6V594.8z"/>
				<path fill="#F26D82" stroke="#1B1A1A" stroke-width="2" stroke-linecap="round" stroke-miterlimit="10" d="M792.6,598.7
					c0,0,2.7-1.5,5.8,0.4l0.7,21.1l-3.8-2.4l-2.7,0.9V598.7z"/>
			</g>
			<g>
				<g>
					<path fill="#F9F2F2" stroke="#1B1A1A" stroke-width="2" stroke-miterlimit="10" d="M764.1,621.9c0,0-0.6-2.2-1.6-5.7
						c-1-3.5-0.9-5.7,0.5-6.3c1.4-0.6,4.9,4.4,6.2,7.1c1.3,2.7,6.4,0.1,11.2-1.1c4.7-1.2,7.1,0.9,8.4,2.4c1.3,1.5-0.9,6.1-6.9,8.5
						c-6,2.4-7.9,4-7.9,4S772,624,764.1,621.9z"/>
					<path fill="#E53130" stroke="#1B1A1A" stroke-width="2" stroke-linecap="round" stroke-miterlimit="10" d="M764.1,621.9
						c-14.1-0.1-24.3,9-24.3,9s-0.3,0.4-0.8,1.1c-0.6,2.1-2.1,10.6,7,15.5c10.4,5.7,22.1-5.9,27.8-17h0.2
						C771.9,623.5,764.1,621.9,764.1,621.9z"/>
				</g>
				<path fill="#F9F2F2" stroke="#1B1A1A" stroke-width="2" stroke-linejoin="round" stroke-miterlimit="10" d="M763.6,619.9
					c0,0-6.3-1.7-9.9,0c-3.6,1.7-3.8,7.3,0,8.2c0,0-2,2.5,0.8,4.7c2.8,2.2,3.9,1.1,3.9,1.1s-1.3,8,6.4,7.5c0,0,0.9,4.1,5.3,3.2
					c4.4-0.9,3.9-13.9,3.9-13.9S773.7,623.6,763.6,619.9z"/>
			</g>
			<g>
				<g>
					<path fill="#F9F2F2" stroke="#1B1A1A" stroke-width="2" stroke-miterlimit="10" d="M830.2,621.9c0,0,0.6-2.2,1.6-5.7
						s0.9-5.7-0.5-6.3c-1.4-0.6-4.9,4.4-6.2,7.1c-1.3,2.7-6.4,0.1-11.2-1.1c-4.7-1.2-7.1,0.9-8.4,2.4c-1.3,1.5,0.9,6.1,6.9,8.5
						c6,2.4,7.9,4,7.9,4S822.3,624,830.2,621.9z"/>
					<path fill="#E53130" stroke="#1B1A1A" stroke-width="2" stroke-linecap="round" stroke-miterlimit="10" d="M830.2,621.9
						c14.1-0.1,24.3,9,24.3,9s0.3,0.4,0.8,1.1c0.6,2.1,2.1,10.6-7,15.5c-10.4,5.7-22.1-5.9-27.8-17h-0.2
						C822.4,623.5,830.2,621.9,830.2,621.9z"/>
				</g>
				<path fill="#F9F2F2" stroke="#1B1A1A" stroke-width="2" stroke-linejoin="round" stroke-miterlimit="10" d="M829.3,621.9
					c0,0,6.3-1.7,9.9,0s3.8,7.3,0,8.2c0,0,2,2.5-0.8,4.7c-2.8,2.2-3.9,1.1-3.9,1.1s1.3,8-6.4,7.5c0,0-0.9,4.1-5.3,3.2
					c-4.4-0.9-3.9-13.9-3.9-13.9S819.2,625.6,829.3,621.9z"/>
			</g>
		</g>
		<g>
			<g>
				
					<path fill="#37C2DA" stroke="#1B1A1A" stroke-width="2" stroke-linecap="round" stroke-linejoin="round" stroke-miterlimit="10" d="
					M589.7,793.5c0,0,2,1.5,4.4,1.6c2.4,0.1,2.4,0.1,2.4,0.1l1.4,6.1l1.7-7.2c0,0,5.8,0,11.7-2.1c0.2-0.1,0.3-0.1,0.5-0.2
					c6.1-2.3,1.9,20.8,2.6,24.5c0.7,3.6,2.3,7.3-0.1,10c-2.3,2.7-13,7.9-17.5,10.9c-4.5,3.1-18.3,7.1-26.3,2.9s-2.2-9.4-2.2-9.4
					s-4.9-8,3.8-13.8c8.7-5.8,18.9-3.9,18.8-5.7c-0.1-1.8-1.9-17.7-1.9-17.7"/>
				<path fill="#F9F2F2" stroke="#1B1A1A" stroke-width="2" stroke-miterlimit="10" d="M614.3,826.4c1.9-2.2,1.2-5,0.5-7.9l0,0
					c-6.3,6.6-17.9,16-30.7,16.7c-12.8,0.6-15.9-4.4-15.9-4.4s-5.8,5.2,2.2,9.4s21.8,0.2,26.3-2.9
					C601.3,834.3,612,829.1,614.3,826.4z"/>
			</g>
			<g>
				
					<path fill="#37C2DA" stroke="#1B1A1A" stroke-width="2" stroke-linecap="round" stroke-linejoin="round" stroke-miterlimit="10" d="
					M645.5,793.5c0,0-2,1.5-4.4,1.6s-2.4,0.1-2.4,0.1l-1.4,6.1l-1.7-7.2c0,0-5.8,0-11.7-2.1c-0.2-0.1-0.3-0.1-0.5-0.2
					c-6.1-2.3-1.9,20.8-2.6,24.5c-0.7,3.6-2.3,7.3,0.1,10c2.3,2.7,13,7.9,17.5,10.9c4.5,3.1,18.3,7.1,26.3,2.9s2.2-9.4,2.2-9.4
					s4.9-8-3.8-13.8c-8.7-5.8-19.8-5-19.7-6.8c0.1-1.8,2.8-16.7,2.8-16.7"/>
				<path fill="#F9F2F2" stroke="#1B1A1A" stroke-width="2" stroke-miterlimit="10" d="M620.8,826.4c-1.9-2.2-1.2-5-0.5-7.9l0,0
					c6.3,6.6,17.9,16,30.7,16.7c12.8,0.6,15.9-4.4,15.9-4.4s5.8,5.2-2.2,9.4s-21.8,0.2-26.3-2.9
					C633.9,834.3,623.2,829.1,620.8,826.4z"/>
			</g>
			<g>
				<g>
					<path fill="#F9F2F2" stroke="#1B1A1A" stroke-width="2" stroke-miterlimit="10" d="M654.7,663.2c-7.6-10.7-36.7-4.2-36.7-4.2
						s-29-6.5-36.7,4.2c0,0-2.4,33.4,0,59.6c2.4,26.2,7.9,88,7.9,88s5.6,6.8,13.7,6.7c8.1-0.1,12.7-2.4,12.7-2.4s2.3-1.2,0.8-4.2
						c-1.6-3.1-0.8-5.9-0.8-5.9s2.3-2.4,0.8-6.1c-1.6-3.7-0.8-6.7-0.8-6.7s1.7-90.6,2.4-99.7c0.7,9.1,2.4,99.7,2.4,99.7
						s0.8,3-0.8,6.7c-1.6,3.7,0.8,6.1,0.8,6.1s0.8,2.9-0.8,5.9c-1.6,3.1,0.8,4.2,0.8,4.2s4.6,2.3,12.7,2.4
						c8.1,0.1,13.7-6.7,13.7-6.7s5.6-61.8,7.9-88C657,696.6,654.7,663.2,654.7,663.2z"/>
					<path fill="#37C2DA" stroke="#1B1A1A" stroke-width="2" stroke-linecap="round" stroke-miterlimit="10" d="M647.7,570.5
						c0,0,9.6,1.1,12.8,7.8c3.2,6.6,18.6,37.1,18.6,37.1s3.9,8.3-6.9,10.8c-10.8,2.5-17.9-4.6-17.9-4.6l-9.6-21.8L647.7,570.5z"/>
					<path fill="#37C2DA" stroke="#1B1A1A" stroke-width="2" stroke-linecap="round" stroke-miterlimit="10" d="M587.5,570.5
						c0,0-9.6,1.1-12.8,7.8c-3.2,6.6-18.6,37.1-18.6,37.1s-3.9,8.3,6.9,10.8s17.9-4.6,17.9-4.6l9.6-21.8L587.5,570.5z"/>
					<path fill="#F9F2F2" stroke="#1B1A1A" stroke-width="2" stroke-linejoin="round" stroke-miterlimit="10" d="M617.6,556.3
						c-1.8-5.8-9.5-2.5-9.5-2.5v11.5l9.5,3l9.5-3v-11.5C627.1,553.8,619.4,550.5,617.6,556.3z"/>
					<path fill="#E53130" stroke="#1B1A1A" stroke-width="2" stroke-linecap="round" stroke-miterlimit="10" d="M650.4,585.3
						c-0.2-10.1,1-15.3,1-15.3s-18-1.7-23.2-5.4v-4.1c0,0-6.2,2-10.6,1.6c-4.3,0.4-10.6-1.6-10.6-1.6v4.1
						c-5.3,3.7-23.2,5.4-23.2,5.4s1.2,5.1,1,15.3c-0.2,10.1-4.9,20.9-4.9,20.9v54.9c12.2,8.5,37.7,8.7,37.7,8.7s25.5-0.2,37.7-8.7
						v-54.9C655.4,606.2,650.7,595.4,650.4,585.3z"/>
					<path fill="#F9F2F2" stroke="#1B1A1A" stroke-width="2" stroke-miterlimit="10" d="M587.5,500.1c0,0,0.2,10.8,2.2,20
						c0,0,3.8,21.9,9,28.4c5.2,6.5,18.9,7.8,18.9,7.8s13.7-1.3,18.9-7.8s9-28.4,9-28.4c1.9-9.2,2.2-20,2.2-20
						C637.8,497.4,597.5,497.4,587.5,500.1z"/>
					<path fill="#974C4C" stroke="#1B1A1A" stroke-width="2" stroke-linejoin="round" stroke-miterlimit="10" d="M607.8,504.7
						c0,0,3.8,8.4,17.9,9.6c0,0-3.5-2.5-4.8-6.4c0,0,2.7,3.5,8.8,5.2c6.2,1.7,12.7,1.8,15.2,10.1c0,0-3.8,16.1-7.1,23.3
						c0,0,10.5-12.8,13.1-25.3c2.6-12.5,6.2-48.3-38.6-48.5c0,0,4.2-4.4,11-3.7c0,0-11-3.9-17.1,3.7c0,0-2.8-3.6-10.8-4.7
						c0,0,4.4,2.3,5.9,5.8c0,0-14.3,3.6-20,23.6c-5.7,20,6.9,40.1,15.6,48.3c0,0-3.8-8.7-5.5-17.2c-1.8-8.4,0.7-14.1,4.9-17.4
						C600.6,507.8,607.1,507.3,607.8,504.7z"/>
					<path fill="#F9F2F2" stroke="#1B1A1A" stroke-width="2" stroke-miterlimit="10" d="M591,525.6c0,0-3.1-2.9-5.9-1.9
						c-2.9,1-0.7,11.1,8.1,11.8C593.1,535.5,590.8,528.9,591,525.6z"/>
					<path fill="#F9F2F2" stroke="#1B1A1A" stroke-width="2" stroke-miterlimit="10" d="M645.2,525.6c0,0,3.1-2.9,5.9-1.9
						c2.9,1,0.7,11.1-8.1,11.8C643.1,535.5,645.4,528.9,645.2,525.6z"/>
					<ellipse fill="#1B1A1A" cx="603" cy="526.5" rx="2.7" ry="3.7"/>
					<ellipse fill="#1B1A1A" cx="630.2" cy="527.2" rx="2.7" ry="3.7"/>
					<path fill="#F9F2F2" stroke="#1B1A1A" stroke-width="2" stroke-linecap="round" stroke-miterlimit="10" d="M610.1,543.7
						c0,0,2.6,2.4,6,2.8c3.5,0.4,6.5-1.2,9.2-2.8"/>
					<path fill="none" stroke="#1B1A1A" stroke-width="2" stroke-linecap="round" stroke-miterlimit="10" d="M625.3,516.2
						c0.3-0.5,5.1-10.1,12.2-2.1"/>
					<path fill="none" stroke="#1B1A1A" stroke-width="2" stroke-linecap="round" stroke-miterlimit="10" d="M595.9,519.4
						c0,0,4.8-8,12.2-2.2"/>
					<path fill="#E53130" stroke="#1B1A1A" stroke-width="2" stroke-linecap="round" stroke-miterlimit="10" d="M576.8,507.3
						c0,0-0.5-9.7,2.5-21.9c3.4-13.4,16.9-29.3,31-31.2c14-1.9,43.9,8.9,44.1,45.1v4.1c0,0-19.4-19.4-43.5-12.4
						C586.7,498.1,576.8,507.3,576.8,507.3z"/>
					<path fill="#FFFFFF" stroke="#1B1A1A" stroke-width="2" stroke-linecap="round" stroke-miterlimit="10" d="M616.9,482.8
						c-37.3-0.1-41.1,25.2-41.1,25.2s0.9,8.4,3.9,15.9c3,7.5,6.4,7.7,6.4,7.7s-1.4-11.6,9.8-20c11.3-8.4,20.9-7.3,20.9-7.3
						s11.1-1.1,22.4,7.3c11.3,8.4,9.8,20,9.8,20s3.5-0.5,5.3-8.4c1.8-8,1.8-18.3,1.8-18.3S657.1,482.9,616.9,482.8z"/>
					<line fill="none" stroke="#1B1A1A" stroke-width="2" stroke-miterlimit="10" x1="617.6" y1="562.1" x2="617.6" y2="668.5"/>
					<line fill="none" stroke="#1B1A1A" stroke-width="2" stroke-miterlimit="10" x1="585.6" y1="581.9" x2="650.4" y2="581.9"/>
					<path fill="none" stroke="#1B1A1A" stroke-width="2" stroke-miterlimit="10" d="M579.9,648.2c0,0,37.6,12.6,75.4,0"/>
					<path fill="none" stroke="#1B1A1A" stroke-width="2" stroke-miterlimit="10" d="M579.9,634.2c0,0,33.7,10.8,75.4,0"/>
					<g>
						<path fill="#F9F2F2" stroke="#1B1A1A" stroke-width="2" stroke-miterlimit="10" d="M578.5,571.2c0,0,28.1,4.3,37.2,4.5v54.5
							c0,0-26-3.1-37.2-10.3V571.2z"/>
						<path fill="#F9F2F2" stroke="#1B1A1A" stroke-width="2" stroke-miterlimit="10" d="M653.7,571.2c0,0-28.1,4.3-37.2,4.5v54.5
							c0,0,26-3.1,37.2-10.3V571.2z"/>
						<path fill="#F26D82" stroke="#1B1A1A" stroke-width="2" stroke-linecap="round" stroke-miterlimit="10" d="M609.5,575.3
							c0,0,2.9-1.6,6.2,0.4l0.7,22.5l-4-2.5l-2.9,1V575.3z"/>
					</g>
					<path fill="#37C2DA" stroke="#1B1A1A" stroke-width="2" stroke-linecap="round" stroke-miterlimit="10" d="M685.3,621.6
						c0,0-2.9-7.6-13.2-13c-10.3-5.4-16.9-7.7-16.9-7.7s-0.6,9-5.4,11.8c0,0,4.1,12.6,14.4,20.2
						C676.5,642.2,688.3,632.5,685.3,621.6z"/>
					<path fill="#37C2DA" stroke="#1B1A1A" stroke-width="2" stroke-linecap="round" stroke-miterlimit="10" d="M550,621.6
						c0,0,2.9-7.6,13.2-13c10.3-5.4,16.9-7.7,16.9-7.7s0.6,9,5.4,11.8c0,0-4.1,12.6-14.4,20.2C558.8,642.2,546.9,632.5,550,621.6z"
						/>
					<path fill="#37C2DA" stroke="#1B1A1A" stroke-width="2" stroke-linecap="round" stroke-miterlimit="10" d="M583.7,615.3
						c0,0,4-0.9,7.2-0.6c3.2,0.4,5.4-2,5.6-4.1c0.2-2-1.2-4.5-1.2-4.5s1.3-2.2,0.5-4.3s-3.2-2-3.2-2s0.3-2.6-0.5-4.1
						c-0.9-1.5-2.8-1.3-4.4-2.1c-1.6-0.8-3.6,1.8-3.6,1.8s0-5.2-0.9-7.3c-0.9-2.1-4-0.5-4-0.5s-0.1,4.1-0.8,7.1s-2.4,8.1-2.4,8.1
						S575.9,612.6,583.7,615.3z"/>
					<path fill="#37C2DA" stroke="#1B1A1A" stroke-width="2" stroke-linecap="round" stroke-miterlimit="10" d="M651.6,615.3
						c0,0-4-0.9-7.2-0.6s-5.4-2-5.6-4.1c-0.2-2,1.2-4.5,1.2-4.5s-1.3-2.2-0.5-4.3s3.2-2,3.2-2s-0.3-2.6,0.5-4.1
						c0.9-1.5,2.8-1.3,4.4-2.1c1.6-0.8,3.6,1.8,3.6,1.8s0-5.2,0.9-7.3c0.9-2.1,4-0.5,4-0.5s0.1,4.1,0.8,7.1c0.8,3,2.4,8.1,2.4,8.1
						S659.4,612.6,651.6,615.3z"/>
					<path fill="none" stroke="#1B1A1A" stroke-width="2" stroke-linecap="round" stroke-miterlimit="10" d="M605.6,685
						c0,0,11.9,15.4,25.8,0"/>
				</g>
				<path fill="none" stroke="#1B1A1A" stroke-width="2" stroke-linecap="round" stroke-miterlimit="10" d="M582.1,685.5
					c0,0,10.3,2.9,15-17.1"/>
				<path fill="none" stroke="#1B1A1A" stroke-width="2" stroke-linecap="round" stroke-miterlimit="10" d="M637.6,668.5
					c0,0,1.3,15.5,16.5,18.6"/>
			</g>
		</g>
		<g>
			<g>
				<g>
					<path fill="#F9F2F2" stroke="#1B1A1A" stroke-width="2" stroke-miterlimit="10" d="M678.2,722.5c0,0,2.5,69.7,11.1,113.4
						c0,0,6.2,4,14.1,3.6c0,0,1.7-65.6,2.5-88.5c0.9-25.3,2.2-31.5,2.2-31.5S685.4,713.1,678.2,722.5z"/>
					
						<path fill="#37C2DA" stroke="#1B1A1A" stroke-width="2" stroke-linecap="round" stroke-linejoin="round" stroke-miterlimit="10" d="
						M682.3,783.5c0,0,3.7,3.5,12.5,3.7c8.8,0.2,10.6-4.7,10.6-4.7s0.2,47.9,0,51.5c-0.2,3.5,0.6,6.9-1.3,8.8
						c-1.9,1.9-6,2.6-11.9,6.6c-6,4-15,7.1-24,5.5c-9-1.6-13-7.2-8.7-10.1c0,0-3.7-11.4,6.3-15.6c10-4.2,17.5-4.2,18.2-6.9
						C684.7,819.5,682.3,783.5,682.3,783.5z"/>
					<path fill="#F9F2F2" stroke="#1B1A1A" stroke-width="2" stroke-linejoin="round" stroke-miterlimit="10" d="M704.2,842.8
						c1.2-1.2,1.3-3,1.3-5c-2.9,1.8-4.6,2.2-10.1,4.5c-5,2.1-8.7,5.5-19.6,7.3s-16.1-4.9-16.1-4.9c-4.3,2.9-0.3,8.5,8.7,10.1
						c9,1.6,18-1.4,24-5.5C698.2,845.4,702.2,844.8,704.2,842.8z"/>
				</g>
				<path fill="none" stroke="#1B1A1A" stroke-width="2" stroke-linecap="round" stroke-miterlimit="10" d="M665.8,829.2
					c0,0,8.2-2.9,10.3,5.4"/>
				<path fill="none" stroke="#1B1A1A" stroke-width="2" stroke-linecap="round" stroke-miterlimit="10" d="M673,826.7
					c0,0,8.2-2.9,10.3,5.4"/>
				<path fill="none" stroke="#1B1A1A" stroke-width="2" stroke-linecap="round" stroke-miterlimit="10" d="M679.6,824.6
					c0,0,8.2-2.9,10.3,5.4"/>
				<circle fill="#1B1A1A" cx="676.5" cy="835.4" r="1.7"/>
				<circle fill="#1B1A1A" cx="683.3" cy="833" r="1.7"/>
				<circle fill="#1B1A1A" cx="689.9" cy="830.9" r="1.7"/>
			</g>
			<g>
				<g>
					<path fill="#F9F2F2" stroke="#1B1A1A" stroke-width="2" stroke-miterlimit="10" d="M736.9,722.5c0,0-2.5,69.7-11.1,113.4
						c0,0-6.2,4-14.1,3.6c0,0-1.7-65.6-2.5-88.5c-0.9-25.3-2.2-31.5-2.2-31.5S729.6,713.1,736.9,722.5z"/>
					
						<path fill="#37C2DA" stroke="#1B1A1A" stroke-width="2" stroke-linecap="round" stroke-linejoin="round" stroke-miterlimit="10" d="
						M732.7,783.5c0,0-3.7,3.5-12.5,3.7c-8.8,0.2-10.6-4.7-10.6-4.7s-0.2,47.9,0,51.5c0.2,3.5-0.6,6.9,1.3,8.8
						c1.9,1.9,6,2.6,11.9,6.6c6,4,15,7.1,24,5.5c9-1.6,13-7.2,8.7-10.1c0,0,3.7-11.4-6.3-15.6c-10-4.2-17.5-4.2-18.2-6.9
						C730.3,819.5,732.7,783.5,732.7,783.5z"/>
					<path fill="#F9F2F2" stroke="#1B1A1A" stroke-width="2" stroke-linejoin="round" stroke-miterlimit="10" d="M710.9,842.8
						c-1.2-1.2-1.3-3-1.3-5c2.9,1.8,4.6,2.2,10.1,4.5c5,2.1,8.7,5.5,19.6,7.3c11,1.9,16.1-4.9,16.1-4.9c4.3,2.9,0.3,8.5-8.7,10.1
						c-9,1.6-18-1.4-24-5.5C716.8,845.4,712.8,844.8,710.9,842.8z"/>
				</g>
				<path fill="none" stroke="#1B1A1A" stroke-width="2" stroke-linecap="round" stroke-miterlimit="10" d="M749.2,829.2
					c0,0-8.2-2.9-10.3,5.4"/>
				<path fill="none" stroke="#1B1A1A" stroke-width="2" stroke-linecap="round" stroke-miterlimit="10" d="M742,826.7
					c0,0-8.2-2.9-10.3,5.4"/>
				<path fill="none" stroke="#1B1A1A" stroke-width="2" stroke-linecap="round" stroke-miterlimit="10" d="M735.4,824.6
					c0,0-8.2-2.9-10.3,5.4"/>
				<circle fill="#1B1A1A" cx="738.5" cy="835.4" r="1.7"/>
				<circle fill="#1B1A1A" cx="731.7" cy="833" r="1.7"/>
				<circle fill="#1B1A1A" cx="725.1" cy="830.9" r="1.7"/>
			</g>
			<path fill="#FFFFFF" stroke="#1B1A1A" stroke-width="2" stroke-linejoin="round" stroke-miterlimit="10" d="M703.8,525.1
				c0,0-3.1-0.8-3.6-3.5c-0.5-2.7,1.8-2.4,1.8-2.4s-1.9-4.2,1.3-5.4c3.1-1.2,4.1,0.4,4.1,0.4s0.3-2.5,3.2-2.4
				c2.9,0.1,3.5,2.5,3.5,2.7s1.6-1.4,3.8,0.1c2.3,1.6,1.3,4.7,1.3,4.7s2.3-0.8,2.9,3.3c0.6,4.1-5.8,8-5.8,8S703.4,528.5,703.8,525.1
				z"/>
			<path fill="#E53130" stroke="#1B1A1A" stroke-width="2" stroke-linecap="round" stroke-miterlimit="10" d="M672.1,566.4
				c0,0-0.1-12,11.2-27.8c11.3-15.8,22.3-15.3,22.3-15.3s4.3-0.3,6.3,0c1.9,0.2,24.9,2.4,27.3,30.2c0,0.4,0.1,0.8,0.1,1.3
				C741.1,583.9,700.6,541.6,672.1,566.4z"/>
			<path fill="#F9F2F2" stroke="#1B1A1A" stroke-width="2" stroke-miterlimit="10" d="M676.6,567.2c0,0,0.2,10.8,2.2,20
				c0,0,3.8,21.9,9,28.4c5.2,6.5,18.9,7.8,18.9,7.8s13.7-1.3,18.9-7.8c5.2-6.5,9-28.4,9-28.4c1.9-9.2,2.2-20,2.2-20
				C726.9,564.5,686.5,564.5,676.6,567.2z"/>
			<path fill="none" stroke="#1B1A1A" stroke-width="2" stroke-linecap="round" stroke-miterlimit="10" d="M699.1,592.6
				c0,0-1.3-4.6-6.5-5.3c-5.2-0.7-7.1,5.3-7.1,5.3c-0.3,0-1.7,0-2.2-1.6"/>
			<path fill="none" stroke="#1B1A1A" stroke-width="2" stroke-linecap="round" stroke-miterlimit="10" d="M711.9,592.6
				c0,0,1.3-4.6,6.5-5.3c5.2-0.7,7.1,5.3,7.1,5.3s1.9,0.7,3-1.6"/>
			<path fill="#D88B8B" stroke="#1B1A1A" stroke-width="2" stroke-linejoin="round" stroke-miterlimit="10" d="M694.7,567.7
				c0,0,5,13.9,25.6,13.7c0,0-6.7-0.3-12.1-7.9c0,0,2.5,3.8,10.4,5c7.9,1.2,14.6,8.1,13.8,18.6c0,0-2.1,10.5-5.7,16.7
				c-3.6,6.2-11.9,8-11.9,8v4.9c0,0,22.9,4.1,36.4-5.8c0,0-4.8,0.1-5.9-8.6c-1.3-9.6,2.5-47.9-12.8-59.9
				c-12.9-10.1-30.1-11.2-40.2-2.6c0,0-12.7-2.2-18.7,12.8c-6,15-2.2,36.2-4.2,45.8c-2,9.6-9.2,8-9.2,8s7.2,7.9,16.5,10.6
				c4.5,1.4,20.1,0.2,20.1,0.2l0.1-5.8c0,0-9.6-2.7-12.6-12.6c-3-9.9-3.9-22.4,0.3-28.1C688.7,574.7,694.4,573.7,694.7,567.7z"/>
			<circle fill="#F37778" cx="690.2" cy="601.3" r="4.8"/>
			<circle fill="#F37778" cx="721.8" cy="601.3" r="4.8"/>
			<path fill="none" stroke="#F37778" stroke-width="2" stroke-linecap="round" stroke-miterlimit="10" d="M699.8,609.5
				c0,0,3.6,3.3,6.3,3.3c4.8,0,7.8-4,7.8-4"/>
			<path fill="none" stroke="#1B1A1A" stroke-width="2" stroke-linecap="round" stroke-miterlimit="10" d="M727,589.4
				c0,0-0.5,1.8-2.2,1.6"/>
			<path fill="none" stroke="#1B1A1A" stroke-width="2" stroke-linecap="round" stroke-miterlimit="10" d="M684.4,589.4
				c0,0,0.4,1.5,1.7,1.6"/>
			<path fill="#E53130" stroke="#1B1A1A" stroke-width="2" stroke-linecap="round" stroke-miterlimit="10" d="M756.2,757.8
				L741.7,706v-1.2c-1.6-13.3-10-17-18.7-16.4c-6.9,0.5-13.6,5.1-16.1,7c-2.5-1.9-9.2-6.5-16.1-7c-8.7-0.6-17.1,3.1-18.7,16.4v1.2
				l-14.5,51.8c0,0,13.9,13.6,48.2,14.1v0c0.4,0,0.7,0,1.1,0c0.4,0,0.7,0,1.1,0v0C742.3,771.4,756.2,757.8,756.2,757.8z"/>
			<path fill="#E53130" stroke="#1B1A1A" stroke-width="2" stroke-linecap="round" stroke-miterlimit="10" d="M756.8,689.3
				c0,0-4.7-33.4-11.7-46.3c-6.9-12.9-23-16-23-16l-16,7.3l-16-7.3c0,0-16,3.1-23,16c-6.9,12.9-11.7,46.3-11.7,46.3
				s-3.6,10.3,6.8,16c10.4,5.7,22.1-5.9,27.8-16.9h13.7h4.7h13.7c5.7,11,17.4,22.6,27.8,16.9C760.4,699.7,756.8,689.3,756.8,689.3z"
				/>
			<path fill="#F9F2F2" stroke="#1B1A1A" stroke-width="2" stroke-miterlimit="10" d="M663.6,651.9c-1.7,5.4-3.3,11.7-4.5,17.5
				c44.2,8.9,81.7,2.2,94-0.6c-1.3-6.1-2.9-12.7-4.8-18.2C718.3,661.2,682,655.9,663.6,651.9z"/>
			<path fill="#F9F2F2" stroke="#1B1A1A" stroke-width="2" stroke-miterlimit="10" d="M744.9,642.5c-7.1-12.5-22.7-15.4-22.7-15.4
				l-16,7.3l-16-7.3c0,0-15.2,2.9-22.4,14.9C679.9,644.9,712.1,651,744.9,642.5z"/>
			<path fill="#37C2DA" stroke="#1B1A1A" stroke-width="2" stroke-linecap="round" stroke-miterlimit="10" d="M691.2,618.6
				c0,0-2.3,8.4,1.1,13.2c0,0,14.9,9,27.9-1.4c0,0,2-5.3-1.4-10c0,0-4.4,3.4-12.2,3C698.9,623,691.2,618.6,691.2,618.6z"/>
			<path fill="#37C2DA" stroke="#1B1A1A" stroke-width="2" stroke-linecap="round" stroke-miterlimit="10" d="M710.3,623.3
				c0,0,0.1-1.3,4.7-2.7c4.6-1.4,8.2-2,8.2-2s4.6,1.2,5.2,15c0.6,13.8,0.6,31.4,11,41.6c0,0-0.3,6.2-6.2,8.8
				c-5.8,2.6-16.4,0.8-18.8-7.4C711.9,668.4,716.1,637.1,710.3,623.3z"/>
			<path fill="#F9F2F2" stroke="#1B1A1A" stroke-width="2" stroke-miterlimit="10" d="M674.5,649c0,0,23.4,3.6,31.1,3.8v45.6
				c0,0-21.7-2.6-31.1-8.6V649z"/>
			<path fill="#F9F2F2" stroke="#1B1A1A" stroke-width="2" stroke-miterlimit="10" d="M737.4,649c0,0-23.4,3.6-31.1,3.8v45.6
				c0,0,21.7-2.6,31.1-8.6V649z"/>
			<path fill="#F9F2F2" stroke="#1B1A1A" stroke-width="2" stroke-miterlimit="10" d="M680.5,679.8c0,0-0.6-2.2-1.6-5.7
				c-1-3.5-0.9-5.7,0.5-6.3c1.4-0.6,4.9,4.4,6.2,7.1c1.3,2.7,6.4,0.1,11.2-1.1c4.7-1.2,7.1,0.9,8.4,2.4c1.3,1.5-0.9,6.1-6.9,8.5
				c-6,2.4-7.9,4-7.9,4S688.4,681.9,680.5,679.8z"/>
			<path fill="#F9F2F2" stroke="#1B1A1A" stroke-width="2" stroke-miterlimit="10" d="M731.9,679.8c0,0,0.6-2.2,1.6-5.7
				c1-3.5,0.9-5.7-0.5-6.3c-1.4-0.6-4.9,4.4-6.2,7.1c-1.3,2.7-6.4,0.1-11.2-1.1c-4.7-1.2-7.1,0.9-8.4,2.4c-1.3,1.5,0.9,6.1,6.9,8.5
				c6,2.4,7.9,4,7.9,4S724,681.9,731.9,679.8z"/>
			<path fill="#37C2DA" stroke="#1B1A1A" stroke-width="2" stroke-linecap="round" stroke-miterlimit="10" d="M739.9,683.8"/>
			<path fill="#37C2DA" stroke="#1B1A1A" stroke-width="2" stroke-linecap="round" stroke-miterlimit="10" d="M731.9,679.8"/>
			<path fill="#F9F2F2" stroke="#1B1A1A" stroke-width="2" stroke-miterlimit="10" d="M731.7,679.8c14.1-0.1,24.3,9,24.3,9
				s0.3,0.4,0.8,1.1c0.6,2.1,2.1,10.6-7,15.5c-10.4,5.7-22.1-5.9-27.8-16.9h-0.2C723.9,681.4,731.7,679.8,731.7,679.8z"/>
			<path fill="#F9F2F2" stroke="#1B1A1A" stroke-width="2" stroke-miterlimit="10" d="M680.5,679.8c-14.1-0.1-24.3,9-24.3,9
				s-0.3,0.4-0.8,1.1c-0.6,2.1-2.1,10.6,7,15.5c10.4,5.7,22.1-5.9,27.8-16.9h0.2C688.3,681.4,680.5,679.8,680.5,679.8z"/>
			<path fill="#F26D82" stroke="#1B1A1A" stroke-width="2" stroke-linecap="round" stroke-miterlimit="10" d="M700.5,652.4
				c0,0,2.4-1.4,5.2,0.4l0.6,18.8l-3.3-2.1l-2.4,0.8V652.4z"/>
			<path fill="#FFFFFF" stroke="#1B1A1A" stroke-width="2" stroke-miterlimit="10" d="M669.9,585.7c0,0-2.1-17.1,23.4-22.6
				c25.5-5.5,48.5,7.4,50.5,17.2c0,0,2-5.7,1-15.2c-1-9.5-7.5-15.3-7.5-15.3s-31.2-17.8-62.8,5.3
				C674.5,555.1,661.8,565.1,669.9,585.7z"/>
		</g>
	</g>
	<g>
		<rect x="667.7" y="401.2" fill="#FBAA33" width="17.6" height="2.5"/>
		<rect x="692.2" y="401.2" fill="#FBAA33" width="3.1" height="2.5"/>
	</g>
	<g>
		<rect x="702.6" y="426.1" fill="#FBAA33" width="17.6" height="2.5"/>
		<rect x="727.1" y="426.1" fill="#FBAA33" width="3.1" height="2.5"/>
	</g>
	<g>
		<rect x="702.6" y="496.8" fill="#FBAA33" width="17.6" height="2.5"/>
		<rect x="727.1" y="496.8" fill="#FBAA33" width="3.1" height="2.5"/>
	</g>
	<g>
		<rect x="667.7" y="448.5" fill="#FBAA33" width="17.6" height="2.5"/>
		<rect x="692.2" y="448.5" fill="#FBAA33" width="3.1" height="2.5"/>
	</g>
	<g>
		<rect x="667.2" y="477.9" fill="#FBAA33" width="17.6" height="2.5"/>
		<rect x="691.7" y="477.9" fill="#FBAA33" width="3.1" height="2.5"/>
	</g>
	<rect x="839.6" y="335.7" fill="#FBAA33" width="21.4" height="2.3"/>
	<rect x="862.3" y="343.9" fill="#FBAA33" width="9.4" height="2.6"/>
	<rect x="849.2" y="356.7" fill="#FBAA33" width="17.8" height="2.6"/>
	<rect x="875.6" y="356.7" fill="#FBAA33" width="4.2" height="2.6"/>
	<rect x="841.6" y="377.3" fill="#FBAA33" width="3.3" height="1.8"/>
	<rect x="922.8" y="346.5" fill="#FBAA33" width="5.1" height="3.1"/>
	<rect x="953" y="373.4" fill="#FBAA33" width="3.8" height="3.9"/>
	<rect x="925.5" y="384.3" fill="#FBAA33" width="5.5" height="2.9"/>
	<rect x="950.1" y="407.9" fill="#FBAA33" width="2.8" height="3.2"/>
	<rect x="934.5" y="441.3" fill="#FBAA33" width="8.1" height="4"/>
	<linearGradient id="SVGID_1_" gradientUnits="userSpaceOnUse" x1="753.4863" y1="457.5894" x2="886.4865" y2="186.5891">
		<stop  offset="7.890227e-02" style="stop-color:#FBAA33;stop-opacity:0"/>
		<stop  offset="0.7392" style="stop-color:#FBAA33"/>
		<a:midPointStop  offset="7.890227e-02" style="stop-color:#FBAA33;stop-opacity:0"/>
		<a:midPointStop  offset="0.5" style="stop-color:#FBAA33;stop-opacity:0"/>
		<a:midPointStop  offset="0.7392" style="stop-color:#FBAA33"/>
	</linearGradient>
	<polygon opacity="0.4" fill="url(#SVGID_1_)" points="862.7,207.5 405.4,575.1 935.1,679.2 951.1,251.8 	"/>
	<circle fill="#FBAA33" cx="895.8" cy="251.8" r="55.3"/>
	<circle fill="#FFFFFF" cx="748.2" cy="210.5" r="3"/>
	<circle fill="#FFFFFF" cx="737.8" cy="244.5" r="1"/>
	<circle fill="#FFFFFF" cx="648.5" cy="239.7" r="1.2"/>
	<circle fill="#FFFFFF" cx="692.9" cy="182.7" r="0.8"/>
	<circle fill="#FFFFFF" cx="571.6" cy="223.7" r="0.7"/>
	<circle fill="#FFFFFF" cx="593.7" cy="272.1" r="1"/>
	<circle fill="#FFFFFF" cx="495.5" cy="299.3" r="1.2"/>
	<circle fill="#FFFFFF" cx="528.1" cy="303.6" r="1.1"/>
	<circle fill="#FFFFFF" cx="520.4" cy="244.5" r="1"/>
	<ellipse fill="#FFFFFF" cx="564.6" cy="293.9" rx="0" ry="0.5"/>
	<circle fill="#FFFFFF" cx="634.1" cy="192.3" r="1"/>
	<circle fill="#FFFFFF" cx="553.6" cy="242.2" r="1.3"/>
	<circle fill="#FFFFFF" cx="622.4" cy="219.3" r="0.7"/>
	<circle fill="#FFFFFF" cx="626.1" cy="272.2" r="1.1"/>
	<circle fill="#FFFFFF" cx="585.8" cy="332" r="0.8"/>
	<circle fill="#FFFFFF" cx="725.4" cy="298.1" r="1.6"/>
	<circle fill="#FFFFFF" cx="769.1" cy="263.9" r="1.2"/>
	<circle fill="#FFFFFF" cx="689.1" cy="217.9" r="0.7"/>
	<circle fill="#FFFFFF" cx="683.5" cy="266.3" r="1.2"/>
	<circle fill="#FFFFFF" cx="802.7" cy="198.3" r="1.8"/>
	<circle fill="#FFFFFF" cx="810.1" cy="212" r="1.5"/>
	<circle fill="#FFFFFF" cx="813.7" cy="294.2" r="2.2"/>
	<circle fill="#FFFFFF" cx="738.2" cy="346.6" r="1.4"/>
	<circle fill="#FFFFFF" cx="742.6" cy="366.2" r="1.7"/>
	<circle fill="#FFFFFF" cx="679.1" cy="367" r="0.8"/>
	<circle fill="#FFFFFF" cx="673.7" cy="316.5" r="1.2"/>
	<circle fill="#FFFFFF" cx="635.3" cy="303.7" r="1.2"/>
	<ellipse fill="#FFFFFF" cx="575.8" cy="362.9" rx="0" ry="0.7"/>
	<circle fill="#FFFFFF" cx="464" cy="318.8" r="1.2"/>
	<circle fill="#FFFFFF" cx="429.4" cy="362.9" r="0.7"/>
	<circle fill="#FFFFFF" cx="437.8" cy="386.5" r="0.7"/>
	<circle fill="#FFFFFF" cx="433.9" cy="422" r="0.8"/>
	<circle fill="#FFFFFF" cx="569.2" cy="358.5" r="1.8"/>
	<circle fill="#FFFFFF" cx="586.3" cy="358" r="1.2"/>
	<circle fill="#FFFFFF" cx="564.2" cy="293.8" r="1.8"/>
	<circle fill="#FFFFFF" cx="815.1" cy="334.3" r="1.5"/>
	<circle fill="#FFFFFF" cx="810.7" cy="246.3" r="0.7"/>
	<circle fill="#FFFFFF" cx="821.2" cy="253.1" r="1.3"/>
	<circle fill="#FFFFFF" cx="882.3" cy="316.1" r="0.8"/>
	<circle fill="#FFFFFF" cx="896.6" cy="341.4" r="0.8"/>
	<circle fill="#FFFFFF" cx="961.7" cy="306.1" r="1.2"/>
	<circle fill="#FFFFFF" cx="979.4" cy="330.7" r="1.3"/>
	<circle fill="#FFFFFF" cx="979.8" cy="373.6" r="1.7"/>
	<circle fill="#FFFFFF" cx="948.6" cy="361.7" r="1.5"/>
	<circle fill="#FFFFFF" cx="948.4" cy="313.9" r="1.3"/>
	<circle fill="#FFFFFF" cx="740.3" cy="401.9" r="0.7"/>
	<circle fill="#FFFFFF" cx="756.3" cy="416.3" r="1.4"/>
	<circle fill="#FFFFFF" cx="724.6" cy="463.5" r="0.8"/>
	<circle fill="#FFFFFF" cx="740.5" cy="489.4" r="1.1"/>
	<circle fill="#FFFFFF" cx="682.9" cy="419.5" r="0.9"/>
	<circle fill="#FFFFFF" cx="714.8" cy="394.1" r="1.5"/>
	<circle fill="#FFFFFF" cx="593.9" cy="376.1" r="0.8"/>
	<circle fill="#FFFFFF" cx="570.5" cy="378.5" r="1.3"/>
	<circle fill="#FFFFFF" cx="593.9" cy="319.6" r="0.8"/>
	<circle fill="#FFFFFF" cx="590.9" cy="278.9" r="0.7"/>
	<circle fill="#FFFFFF" cx="512.7" cy="321.5" r="1.2"/>
	<circle fill="#FFFFFF" cx="523.1" cy="342.2" r="1.7"/>
	<circle fill="#FFFFFF" cx="487.5" cy="348.1" r="1.5"/>
	<circle fill="#FFFFFF" cx="451.6" cy="439.5" r="1.3"/>
	<circle fill="#FFFFFF" cx="443" cy="467.2" r="0.9"/>
	<ellipse fill="#FFFFFF" cx="442.1" cy="492.1" rx="0" ry="0.5"/>
	<circle fill="#FFFFFF" cx="662.7" cy="431.6" r="0.5"/>
	<ellipse fill="#FFFFFF" cx="667.7" cy="461.2" rx="0" ry="0.7"/>
	<circle fill="#FFFFFF" cx="672.9" cy="495.4" r="0.8"/>
	<circle fill="#FFFFFF" cx="786.5" cy="388.9" r="1.7"/>
	<circle fill="#FFFFFF" cx="802.8" cy="415.8" r="1.9"/>
	<ellipse fill="#FFFFFF" cx="759.4" cy="450.1" rx="0" ry="0.9"/>
	<circle fill="#FFFFFF" cx="844.4" cy="361" r="0.7"/>
	<circle fill="#FFFFFF" cx="798.3" cy="328.6" r="1.5"/>
	<circle fill="#FFFFFF" cx="841.3" cy="289.9" r="0.9"/>
	<ellipse fill="#FFFFFF" cx="778.3" cy="224.3" rx="0.7" ry="0"/>
	<ellipse fill="#FFFFFF" cx="716.2" cy="240.4" rx="0" ry="0.6"/>
	<circle fill="#FFFFFF" cx="953.8" cy="544.6" r="0.3"/>
	<circle fill="#FFFFFF" cx="977.4" cy="578.7" r="0.9"/>
	<circle fill="#FFFFFF" cx="1015.2" cy="555.9" r="0.7"/>
	<circle fill="#FFFFFF" cx="1003.5" cy="614.6" r="0.8"/>
	<circle fill="#FFFFFF" cx="952" cy="592" r="0.9"/>
	<circle fill="#FFFFFF" cx="957.7" cy="437.4" r="1"/>
	<circle fill="#FFFFFF" cx="953.7" cy="472.7" r="0.8"/>
	<circle fill="#FFFFFF" cx="1013.3" cy="456.1" r="0.6"/>
	<circle fill="#FFFFFF" cx="984" cy="485.8" r="1"/>
	<circle fill="#FFFFFF" cx="991.3" cy="514.4" r="0.6"/>
	<circle fill="#FFFFFF" cx="1009.5" cy="504.3" r="0.5"/>
	<circle fill="#FFFFFF" cx="962.4" cy="389.8" r="0.9"/>
	<circle fill="#FFFFFF" cx="985.5" cy="402.3" r="1.5"/>
	<circle fill="#FFFFFF" cx="950.6" cy="438.2" r="0.8"/>
	<circle fill="#FFFFFF" cx="993.2" cy="359.3" r="1.3"/>
	<circle fill="#FFFFFF" cx="1008.7" cy="405.8" r="2"/>
	<circle fill="#FFFFFF" cx="1002.7" cy="429.1" r="0.5"/>
	<circle fill="#FFFFFF" cx="667.5" cy="537.4" r="1.6"/>
	<circle fill="#FFFFFF" cx="655.3" cy="553.8" r="1"/>
	<circle fill="#FFFFFF" cx="743.4" cy="451.5" r="0.8"/>
	<circle fill="#FFFFFF" cx="749.3" cy="462.4" r="1.1"/>
	<circle fill="#FFFFFF" cx="632.8" cy="437.7" r="1.3"/>
	<circle fill="#FFFFFF" cx="640.7" cy="416.6" r="0.8"/>
	<circle fill="#FFFFFF" cx="640.7" cy="343.1" r="0.8"/>
	<circle fill="#FFFFFF" cx="624.4" cy="346.1" r="0.9"/>
	<circle fill="#FFFFFF" cx="711.9" cy="335" r="0.7"/>
	<circle fill="#FFFFFF" cx="717.4" cy="348.2" r="1.1"/>
	<ellipse fill="#FFFFFF" cx="761.2" cy="305.4" rx="0" ry="0.7"/>
	<circle fill="#FFFFFF" cx="741.7" cy="274.8" r="1.5"/>
	<circle fill="#FFFFFF" cx="701.5" cy="244.6" r="1.1"/>
	<circle fill="#FFFFFF" cx="764.7" cy="239.4" r="0.9"/>
	<circle fill="#FFFFFF" cx="775.1" cy="192.4" r="1.1"/>
	<ellipse fill="#FFFFFF" cx="711.5" cy="207.5" rx="1.2" ry="0"/>
	<circle fill="#FFFFFF" cx="652.6" cy="215.7" r="2.2"/>
	<circle fill="#FFFFFF" cx="540.2" cy="267.1" r="2"/>
	<circle fill="#FFFFFF" cx="583.2" cy="249.4" r="2.4"/>
	<circle fill="#FFFFFF" cx="538.3" cy="299.3" r="1.2"/>
	<circle fill="#FFFFFF" cx="496.8" cy="282" r="2.4"/>
	<circle fill="#FFFFFF" cx="458.3" cy="329.5" r="2.4"/>
	<circle fill="#FFFFFF" cx="569.6" cy="305.7" r="2.1"/>
	<circle fill="#FFFFFF" cx="620.9" cy="256.3" r="3.2"/>
	<circle fill="#FFFFFF" cx="664.7" cy="266.5" r="2.6"/>
	<circle fill="#FFFFFF" cx="771" cy="320.2" r="2.5"/>
	<circle fill="#FFFFFF" cx="795.3" cy="279.1" r="2.9"/>
	<circle fill="#FFFFFF" cx="879.9" cy="332.5" r="1.8"/>
	<circle fill="#FFFFFF" cx="956.4" cy="336.1" r="1.9"/>
	<circle fill="#FFFFFF" cx="430.3" cy="566.8" r="1.6"/>
	<circle fill="#FFFFFF" cx="469.7" cy="523.2" r="2.8"/>
	<circle fill="#FFFFFF" cx="465.6" cy="579.1" r="2.8"/>
	<circle fill="#FFFFFF" cx="430" cy="600" r="1.4"/>
	<circle fill="#FFFFFF" cx="410.8" cy="553.4" r="2.9"/>
	<circle fill="#FFFFFF" cx="440.3" cy="539.1" r="1.8"/>
	<circle fill="#FFFFFF" cx="454.4" cy="602.3" r="1.5"/>
	<circle fill="#FFFFFF" cx="1000.6" cy="587.9" r="2.1"/>
	<circle fill="#FFFFFF" cx="965.3" cy="570.4" r="2.1"/>
	<circle fill="#FFFFFF" cx="981.2" cy="604.7" r="1.4"/>
	<circle fill="#FFFFFF" cx="431.6" cy="486.5" r="1.3"/>
	<circle fill="#FFFFFF" cx="407.4" cy="487.8" r="1.9"/>
	<circle fill="#FFFFFF" cx="480.1" cy="505.2" r="0.4"/>
	<circle fill="#FFFFFF" cx="685" cy="513" r="1.2"/>
	<circle fill="#FFFFFF" cx="717.7" cy="466.4" r="1.5"/>
	<circle fill="#FFFFFF" cx="535" cy="373.9" r="2"/>
	<circle fill="#FFFFFF" cx="498.1" cy="391.2" r="1.4"/>
	<g>
		<g>
			<path fill="#FFFFFF" d="M646.2,107.8c-0.4,0-0.7-0.2-0.7-0.8c0-1.1,0.9-1.8,2.4-1.8c3.2,0,5.4,3.5,5.4,7.4
				c0,6.7-6.4,11.4-16.2,11.4c-12.7,0-20.8-7.9-20.8-20.2c0-8.6,4.1-16.9,10.4-23.1c-1.7-1.7-2.7-4.2-2.7-6.3c0-1.7,0.7-2.8,1.7-2.8
				c0.9,0,1.5,0.6,1.5,1.5c0,0.4-0.1,0.8-0.3,1.2c-0.2,0.3-0.3,0.7-0.3,1.3c0,1.2,0.6,2.7,1.5,3.9c6.1-5.3,13.9-8.7,22-8.7
				c7.6,0,11.5,2.9,11.5,6.7c0,5.7-9.2,9.2-18.2,9.2c-4.6,0-8.7-0.9-12-2.5c-5.2,5.6-8.5,13.1-8.5,20.7c0,10.7,6.3,16.9,15.7,16.9
				c7,0,12.7-3.5,12.7-9.2c0-2.3-0.9-5.2-3.7-5.2C646.8,107.5,646.7,107.8,646.2,107.8z M643.3,84.6c8.1,0,16.3-2.8,16.3-6.5
				c0-1.9-2.3-3.7-7.6-3.7c-7.1,0-13.9,3.2-19.2,8.3C635.7,83.9,639.3,84.6,643.3,84.6z"/>
			<path fill="#FFFFFF" d="M664.6,97.6c3.1,0,5.7,1,6.7,2.5c0.2-0.5,0.5-1,0.6-1.2c0.3-0.7,0.6-0.8,1-0.8c1.7,0,4.5,3.5,4.5,5.2
				c0,1.2-1.2,3.7-2.6,6.4c-1.5,2.9-3,6.1-3,7.6c0,0.6,0.2,0.9,0.7,0.9c1.8,0,8.5-6.7,13.2-16.3c0.2-0.5,0.7-0.8,1.2-0.8
				s0.9,0.4,0.9,1c-5.8,11.9-12.9,19.5-18.2,19.5c-2.6,0-4.4-1.7-4.4-3.9c0-1.8,1.2-5.2,2.7-8.4c-2.9,3-6.6,5.7-9.2,5.7
				c-2,0-3.8-1.7-3.8-3.7c0-2.5,2.7-10.3,4.2-12C659.7,98.6,661.4,97.6,664.6,97.6z M667,100.4c-1.5,0-5.1,7-5.6,11.1
				c2.9-0.7,6.5-5,9.2-10.2C669.9,100.9,668.8,100.4,667,100.4z"/>
			<path fill="#FFFFFF" d="M682.3,99c0-2.2,1.2-3.6,3.3-3.6c2.1,0,3.2,1.2,3.2,3.1c0,0.9-0.2,2.1-1.1,3.6c0.5,0.1,1,0.2,1.6,0.2
				c2.7,0,2.3-1.7,4.3-1.7c2.3,0,5.2,2.4,5.2,4.4c0,2.6-4.8,9.5-4.8,12.2c0,0.7,0.2,1,0.7,1c1.8,0,7.7-7.2,13.2-16.3
				c0.2-0.4,0.7-0.7,1.2-0.7c0.5,0,1.1,0.3,1.1,0.7c0,0.1-0.1,0.4-0.2,0.5c-7.3,11.7-12.8,18.9-17.9,18.9c-2.6,0-4.7-1.9-4.7-4.3
				c0-2.7,2.6-10,3.9-13c-0.8,0.2-1.7,0.4-2.7,0.4C685.2,104.4,682.3,102.4,682.3,99z M687,98.3c0-0.8-0.4-1.4-1.2-1.4
				c-0.9,0-1.3,0.7-1.3,1.7c0,1.2,0.6,2.2,1.5,2.6C686.6,100.1,687,99.1,687,98.3z"/>
			<path fill="#FFFFFF" d="M722.3,106.5c3.3-0.4,7.6-2.9,8.7-5.1c0.2-0.4,0.6-0.7,0.9-0.7c0.4,0,0.7,0.3,0.7,0.7
				c0,2.2-6.2,6.2-10.6,6.7c-1.1,4.8-4.2,8.1-7.7,8.1c-4.8,0-8-2.2-8-6c0-5.9,2.2-11.7,4.6-11.7c0.5,0,1.2,0.2,2,0.7
				c0.7-0.6,1.6-0.8,2.7-0.8C719.7,98.5,722.3,101.7,722.3,106.5z M713.1,112.1c0,1,0.4,1.4,1.2,1.4c2.2,0,4.4-2.2,5.3-5.3
				c-1.9-0.1-3.6-0.6-4.9-1.4C713.7,108.6,713.1,110.7,713.1,112.1z M717.3,100.8c-1.1,0-1.6,1.3-1.6,2.3c0,1.7,1.7,2.9,4.2,3.2
				C720,103.5,718.7,100.8,717.3,100.8z"/>
			<path fill="#FFFFFF" d="M732.3,124c-3.8,0-6.9-2.9-6.9-8c0-13.7,22.2-49.5,32.7-49.5c2.7,0,5.3,2.2,5.3,4.7
				c0,4.2-7.3,10.7-18.9,17.9c-6.6,10.5-12.7,22.6-12.7,28.5c0,1.9,0.7,3.1,1.8,3.1c2.9,0,8.7-7.3,13.7-18c0.2-0.6,0.6-0.8,1.1-0.8
				c0.7,0,1,0.3,1,1.1C741.8,119.2,737.3,124,732.3,124z M761.2,71.3c0-0.7-0.3-1.1-0.8-1.1c-1.9,0-7.2,6.3-12.8,14.6
				C755.4,79.4,761.2,74.1,761.2,71.3z"/>
			<path fill="#FFFFFF" d="M762.9,101.4c0,3.8-8.2,7.5-12.6,7.7c0,3.7,1.6,6.1,4.5,6.1c4.1,0,11.2-4.5,16.2-13.6
				c0.2-0.4,0.7-0.7,1.3-0.7c0.6,0,0.9,0.2,0.9,0.7c0,0.2-0.1,0.6-0.9,2c-6.5,10.7-14,14.2-19.4,14.2c-5.3,0-9.1-3.5-9.1-9.3
				c0-6.5,4.8-11.3,11.4-11.3C759.5,97.1,762.9,99,762.9,101.4z M759.5,102.7c0-0.8-1.3-1.3-2.7-1.3c-3.2,0-5.8,2.7-6.5,6.4
				C753.7,107.2,759.5,104.4,759.5,102.7z"/>
			<path fill="#FFFFFF" d="M767.8,99c0-2.2,1.2-3.6,3.3-3.6c2.1,0,3.2,1.2,3.2,3.1c0,0.9-0.2,2.1-1.1,3.6c0.5,0.1,1,0.2,1.6,0.2
				c2.7,0,2.3-1.7,4.3-1.7c2.3,0,5.2,2.4,5.2,4.4c0,2.6-4.8,9.5-4.8,12.2c0,0.7,0.2,1,0.7,1c1.8,0,7.7-7.2,13.2-16.3
				c0.2-0.4,0.7-0.7,1.2-0.7c0.5,0,1.1,0.3,1.1,0.7c0,0.1-0.1,0.4-0.2,0.5c-7.3,11.7-12.8,18.9-17.9,18.9c-2.6,0-4.7-1.9-4.7-4.3
				c0-2.7,2.6-10,3.9-13c-0.8,0.2-1.7,0.4-2.7,0.4C770.6,104.4,767.8,102.4,767.8,99z M772.4,98.3c0-0.8-0.4-1.4-1.2-1.4
				c-0.9,0-1.3,0.7-1.3,1.7c0,1.2,0.6,2.2,1.5,2.6C772,100.1,772.4,99.1,772.4,98.3z"/>
			<path fill="#FFFFFF" d="M806.8,103.7c0,0.3-0.1,0.5-0.2,0.5c-0.6,0-2.2-2-4.1-2c-2.8,0-5.9,4.2-5.9,6.7c0,1.4,1,2.6,3.6,4.2
				c4.8-2.3,10.9-7.2,12.9-10.9c0.4-0.7,0.8-1.1,1.2-1.1c0.4,0,0.8,0.3,0.8,0.9c0,0.2-0.1,0.5-0.2,0.7c-0.9,2.2-7.8,8.6-12.8,11.7
				c1.4,1.1,2.6,2.2,2.6,3.8c0,4-6.6,10.6-11.6,10.6c-4.5,0-7.5-2.2-7.5-5c0-3.3,4.3-6.5,10.1-8.9c-4.1-2.2-5.8-4.2-5.8-6.7
				c0-4.2,5.1-10.4,8.8-10.4C801.4,98,806.8,101.4,806.8,103.7z M787.9,123.9c0,0.9,0.6,1.3,1.7,1.3c3.2,0,8.1-4.5,8.1-7.2
				c0-0.4-0.2-0.9-0.3-1.3C792.3,118.7,787.9,121.4,787.9,123.9z"/>
		</g>
		<g>
			<path fill="#FFFFFF" d="M624.7,144.3c-0.1-1.5-0.2-3.3-0.2-4.7h0c-0.4,1.2-0.8,2.6-1.4,4.1l-1.9,5.2h-1.1l-1.8-5.1
				c-0.5-1.5-0.9-2.9-1.2-4.2h0c0,1.3-0.1,3.1-0.2,4.8l-0.3,4.6h-1.3l0.8-10.8h1.8l1.8,5.2c0.4,1.3,0.8,2.5,1.1,3.6h0
				c0.3-1.1,0.7-2.3,1.2-3.6l1.9-5.2h1.8l0.7,10.8H625L624.7,144.3z"/>
			<path fill="#FFFFFF" d="M640.4,147.2c0,0.7,0,1.3,0.1,1.9h-1.3l-0.1-1h0c-0.4,0.6-1.3,1.2-2.4,1.2c-1.6,0-2.4-1.1-2.4-2.2
				c0-1.9,1.7-2.9,4.7-2.9V144c0-0.6-0.2-1.8-1.8-1.8c-0.7,0-1.5,0.2-2,0.6l-0.3-0.9c0.6-0.4,1.6-0.7,2.6-0.7c2.4,0,3,1.6,3,3.2
				V147.2z M639.1,145.1c-1.5,0-3.3,0.2-3.3,1.7c0,0.9,0.6,1.3,1.3,1.3c1,0,1.7-0.6,1.9-1.3c0-0.1,0.1-0.3,0.1-0.4V145.1z"/>
			<path fill="#FFFFFF" d="M649.1,143.7c0-0.9,0-1.7-0.1-2.4h1.2l0.1,1.5h0c0.4-1,1.2-1.7,2.2-1.7c0.1,0,0.3,0,0.4,0v1.3
				c-0.2,0-0.3,0-0.5,0c-1,0-1.7,0.8-1.9,1.8c0,0.2,0,0.4,0,0.7v4.1h-1.4L649.1,143.7z"/>
			<path fill="#FFFFFF" d="M660.8,143.7c0-0.9,0-1.7-0.1-2.4h1.2l0.1,1.5h0c0.4-1,1.2-1.7,2.2-1.7c0.1,0,0.3,0,0.4,0v1.3
				c-0.2,0-0.3,0-0.5,0c-1,0-1.7,0.8-1.9,1.8c0,0.2,0,0.4,0,0.7v4.1h-1.4L660.8,143.7z"/>
			<path fill="#FFFFFF" d="M673.3,141.3l1.7,4.6c0.2,0.5,0.4,1.1,0.5,1.6h0c0.1-0.5,0.3-1.1,0.5-1.6l1.5-4.5h1.5l-2.1,5.5
				c-1,2.7-1.7,4-2.7,4.9c-0.7,0.6-1.4,0.8-1.7,0.9l-0.4-1.2c0.4-0.1,0.8-0.3,1.2-0.7c0.4-0.3,0.8-0.8,1.2-1.6
				c0.1-0.1,0.1-0.2,0.1-0.3c0-0.1,0-0.2-0.1-0.4l-2.9-7.2H673.3z"/>
			<path fill="#FFFFFF" d="M704.1,148.7c-0.5,0.3-1.5,0.5-2.9,0.5c-3,0-5.3-1.9-5.3-5.5c0-3.4,2.3-5.7,5.6-5.7
				c1.3,0,2.2,0.3,2.6,0.5l-0.4,1.1c-0.5-0.3-1.3-0.4-2.2-0.4c-2.5,0-4.2,1.6-4.2,4.5c0,2.7,1.5,4.3,4.1,4.3c0.9,0,1.7-0.2,2.3-0.4
				L704.1,148.7z"/>
			<path fill="#FFFFFF" d="M712.2,137.7h1.4v4.8h0c0.2-0.4,0.6-0.8,1-1c0.4-0.3,0.9-0.4,1.4-0.4c1,0,2.7,0.6,2.7,3.3v4.6h-1.4v-4.5
				c0-1.3-0.5-2.3-1.8-2.3c-0.9,0-1.6,0.6-1.9,1.4c-0.1,0.2-0.1,0.4-0.1,0.7v4.7h-1.4V137.7z"/>
			<path fill="#FFFFFF" d="M727.5,143.7c0-0.9,0-1.7-0.1-2.4h1.2l0.1,1.5h0c0.4-1,1.2-1.7,2.2-1.7c0.1,0,0.3,0,0.4,0v1.3
				c-0.2,0-0.3,0-0.5,0c-1,0-1.7,0.8-1.9,1.8c0,0.2,0,0.4,0,0.7v4.1h-1.4L727.5,143.7z"/>
			<path fill="#FFFFFF" d="M739.9,139.9c-0.5,0-0.9-0.4-0.9-0.9c0-0.5,0.4-0.9,0.9-0.9s0.9,0.4,0.9,0.9
				C740.8,139.5,740.5,139.9,739.9,139.9L739.9,139.9z M739.2,149.1v-7.8h1.4v7.8H739.2z"/>
			<path fill="#FFFFFF" d="M749.2,147.7c0.4,0.3,1.2,0.5,1.9,0.5c1,0,1.5-0.5,1.5-1.2c0-0.7-0.4-1-1.4-1.4c-1.4-0.5-2.1-1.3-2.1-2.2
				c0-1.2,1-2.3,2.7-2.3c0.8,0,1.5,0.2,1.9,0.5l-0.3,1c-0.3-0.2-0.9-0.4-1.6-0.4c-0.8,0-1.3,0.5-1.3,1.1c0,0.7,0.4,0.9,1.5,1.3
				c1.3,0.5,2,1.2,2,2.3c0,1.4-1.1,2.3-2.9,2.3c-0.8,0-1.6-0.2-2.2-0.5L749.2,147.7z"/>
			<path fill="#FFFFFF" d="M763.8,139.5v1.9h2v1.1h-2v4.2c0,1,0.3,1.5,1.1,1.5c0.4,0,0.6,0,0.8-0.1l0.1,1.1
				c-0.3,0.1-0.7,0.2-1.2,0.2c-0.7,0-1.2-0.2-1.5-0.6c-0.4-0.4-0.5-1.1-0.5-2v-4.2h-1.2v-1.1h1.2v-1.4L763.8,139.5z"/>
			<path fill="#FFFFFF" d="M773.8,143.4c0-0.8,0-1.5-0.1-2.1h1.2l0.1,1.2h0c0.4-0.7,1.2-1.4,2.5-1.4c1,0,1.8,0.6,2.2,1.6h0
				c0.2-0.4,0.6-0.8,0.9-1c0.5-0.4,1-0.5,1.7-0.5c1,0,2.6,0.7,2.6,3.4v4.6h-1.4v-4.4c0-1.5-0.6-2.4-1.7-2.4c-0.8,0-1.4,0.6-1.7,1.3
				c-0.1,0.2-0.1,0.5-0.1,0.7v4.8h-1.4v-4.6c0-1.2-0.5-2.1-1.6-2.1c-0.9,0-1.5,0.7-1.7,1.4c-0.1,0.2-0.1,0.4-0.1,0.7v4.7h-1.4V143.4
				z"/>
			<path fill="#FFFFFF" d="M799,147.2c0,0.7,0,1.3,0.1,1.9h-1.3l-0.1-1h0c-0.4,0.6-1.3,1.2-2.4,1.2c-1.6,0-2.4-1.1-2.4-2.2
				c0-1.9,1.7-2.9,4.7-2.9V144c0-0.6-0.2-1.8-1.8-1.8c-0.7,0-1.5,0.2-2,0.6l-0.3-0.9c0.6-0.4,1.6-0.7,2.6-0.7c2.4,0,3,1.6,3,3.2
				V147.2z M797.7,145.1c-1.5,0-3.3,0.2-3.3,1.7c0,0.9,0.6,1.3,1.3,1.3c1,0,1.7-0.6,1.9-1.3c0-0.1,0.1-0.3,0.1-0.4V145.1z"/>
			<path fill="#FFFFFF" d="M807.5,147.7c0.4,0.3,1.2,0.5,1.9,0.5c1,0,1.5-0.5,1.5-1.2c0-0.7-0.4-1-1.4-1.4c-1.4-0.5-2.1-1.3-2.1-2.2
				c0-1.2,1-2.3,2.7-2.3c0.8,0,1.5,0.2,1.9,0.5l-0.3,1c-0.3-0.2-0.9-0.4-1.6-0.4c-0.8,0-1.3,0.5-1.3,1.1c0,0.7,0.4,0.9,1.5,1.3
				c1.3,0.5,2,1.2,2,2.3c0,1.4-1.1,2.3-2.9,2.3c-0.8,0-1.6-0.2-2.2-0.5L807.5,147.7z"/>
		</g>
	</g>
</g>
</svg>
