<?xml version="1.0" encoding="utf-8"?>
<!-- Generator: Adobe Illustrator 21.0.0, SVG Export Plug-In . SVG Version: 6.00 Build 0)  -->
<svg version="1.1" id="Layer_1" xmlns="http://www.w3.org/2000/svg" xmlns:xlink="http://www.w3.org/1999/xlink" x="0px" y="0px"
	 width="1400px" height="980px" viewBox="0 0 1400 980" style="enable-background:new 0 0 1400 980;" xml:space="preserve">
<style type="text/css">
	.st0{fill-rule:evenodd;clip-rule:evenodd;fill:#344752;}
	.st1{fill-rule:evenodd;clip-rule:evenodd;fill:#2B3840;}
	.st2{fill-rule:evenodd;clip-rule:evenodd;fill:#25323B;}
	.st3{fill-rule:evenodd;clip-rule:evenodd;fill:#232D33;}
	.st4{fill-rule:evenodd;clip-rule:evenodd;fill:#20292E;}
	.st5{fill-rule:evenodd;clip-rule:evenodd;fill:#2C3F4A;}
	.st6{fill-rule:evenodd;clip-rule:evenodd;fill:#B2B2B2;}
	.st7{fill-rule:evenodd;clip-rule:evenodd;fill:#F7C8AC;}
	.st8{fill-rule:evenodd;clip-rule:evenodd;fill:#D9B19A;}
	.st9{fill-rule:evenodd;clip-rule:evenodd;fill:#999999;}
	.st10{fill-rule:evenodd;clip-rule:evenodd;fill:#FFFFFF;}
	.st11{fill-rule:evenodd;clip-rule:evenodd;fill:#666666;}
	.st12{fill-rule:evenodd;clip-rule:evenodd;fill:#CCCCCC;}
	.st13{fill-rule:evenodd;clip-rule:evenodd;fill:#BDBBBB;}
	.st14{fill-rule:evenodd;clip-rule:evenodd;fill:#D9B375;}
	.st15{fill-rule:evenodd;clip-rule:evenodd;fill:#AF8650;}
	.st16{fill-rule:evenodd;clip-rule:evenodd;fill:#A88250;}
	.st17{fill-rule:evenodd;clip-rule:evenodd;fill:#C3995F;}
	.st18{fill-rule:evenodd;clip-rule:evenodd;fill:#A17E50;}
	.st19{fill-rule:evenodd;clip-rule:evenodd;fill:#CFAC74;}
	.st20{fill-rule:evenodd;clip-rule:evenodd;fill:#FFB230;}
	.st21{fill-rule:evenodd;clip-rule:evenodd;fill:#FFC938;}
	.st22{fill-rule:evenodd;clip-rule:evenodd;fill:#FEE449;}
	.st23{fill-rule:evenodd;clip-rule:evenodd;fill:#E0A031;}
	.st24{fill-rule:evenodd;clip-rule:evenodd;fill:#5E5C5C;}
	.st25{fill-rule:evenodd;clip-rule:evenodd;fill:#808080;}
</style>
<g>
	<rect y="0" class="st0" width="1400" height="980"/>
	<polygon class="st1" points="0,702.2 855.9,702.2 1141,0 0,0 	"/>
	<path class="st2" d="M0,467.9c101.7-1.5,212.2-14.6,325.9-40.6C677,347.1,947.6,169.8,1002.5,0H0V467.9z"/>
	<path class="st3" d="M357.7,136.4c-109.1,0-198.4,89.3-198.4,198.4v367.4h396.9V334.8C556.1,225.7,466.8,136.4,357.7,136.4z"/>
	<path class="st4" d="M269.4,157.3c-65.1,32.6-110.2,100.1-110.2,177.6v367.4h220.3V334.8C379.6,257.4,334.6,189.9,269.4,157.3z"/>
	<polygon class="st5" points="688.9,702.2 1400,702.2 1400,0 834.4,0 	"/>
	<path class="st1" d="M782.7,249.5c68.8,78.8,166.5,154.8,284,215c114.8,58.9,230.9,93.8,333.3,104.7V0H834.4L782.7,249.5z"/>
	<path class="st1" d="M1202.9,370.5c9.3,7-5.3-14.9-5.3-15c1.2,1.3,5.1,2.3,3.1-1.6c-1.7-3.3-11.9-10.7-20.3-17.5
		c-13.9-12.6-29.5-14.3-52.7-43.6c-1.5-1.8-3.8-6.1-5.8-10c-5.7-17.9-13.5-32.6-23.8-38.7c-1.7-1-9.4-1.4-19.5-1.4
		c-6.6-2.6-15.3-6.9-21.9-13.2c-8.5-8.1-10.2,1.1-4.7,8.1c2.7,3.4-1.1,0.9-3.2-0.1c-5.3-2.5-13.2-8.9-18-12.7
		c-2.5-2-10.6-6.8-12.4-2c-2,5.3,1.6,15.8,6.6,22.1c-8.1,0.6-14,1.1-15.6,1.5c-4.4,15.6-16,41.5-21,58.1
		c-8.7,29-17.6,20.7-29.1,28.6c-6.5-2.1-17.6-2.6-17.6,7.2c0,6.6,1.9,15.7,5.5,23.2c-0.2,8.4,0.9,17.8,2.8,27.4
		c-2.7,1.3-5.5,2.7-8.4,4.2c-24.8,13.1-40.5,36.2-25.4,69.7c0.7,1.5,1.5,2.9,2.4,4.1c-8.4-0.4-17.1,3.8-19.8,11.5
		c-3.5,9.7,17.4,0.9,19.3,0.7c0.1,0-11.9,4.4-10,16.5c0.2,1.4,0.7,2.5,1.4,3.1c-6.5,11.8-13.5,22-16.6,37.3
		c0,0.1-34.9,24.2-62.1,56.8l-2.7,1.3c-12.9,6.1-18.4,7.6-28.7,18.2c-4.2,4.4-3.4,10.3,0.6,6.1c0.4-0.4,10.9-7,6.6-3.5
		c-7.5,6-11.2,14-12.8,23.4c-0.5,2.9-0.3,12.3,1.3,14.9c1.8-0.3,4.1-5.7,6.3-7.8c-0.9,3.7-1.5,7.4-1.8,11.1
		c-0.7,1.9-1.3,3.8-1.9,5.8c-0.3,1.1-2.3,12.2,1.3,8.9l1.1-1c0.8,5.2,2.4,10.4,4.8,15.5c-4.3,1.7-8.8,3.2-13.7,4.7
		c-5.4,1.7-11.6,3.4-18,4.1c-0.2-0.3-0.4-0.5-0.7-0.9c-3.4-4.5-33-11.8-38.8-6c-1.9,1.9-2.8,3.3-3,5.1c-13.2,7.4-15.2,27.1,0.6,28.7
		c5.6,0.6,10.8,0.9,15.8,1c-0.3,13.1,48.3,14.1,51.8-4.4c7.1-3.5,13.7-8.9,19.4-14.5c29.1,22.7,117.3,1.9,168,16
		c2.6,0.7,5.1,1.3,7.6,2c-6.6,1.6-11.8,5.7-12.1,12.3c-0.3,6.4,15.3,8.7,27.5,8.6c10.7,0.8,83.6,8.8,79.5-9.1l0.2-0.1
		c7,0,13.9-0.7,20.7-1.9c10.5-1.8,7.6-10.8-2.9-14.6c23.9-37.1,8.5-109.5-5.2-127.5c-12.2-16,0-48.6,9.4-85.6
		c3.7,3.9,7.5,7.3,11.4,10c0.2,0.2,4.5,7.7,9.5,13.2l-0.5,0.1c-5.4,1.6-24.1,12.5-20.2,19.9c3.5,6.6,12.5,0.1,14.1-3.1
		c0.7-1.4-2.3,20.7,10.5,21.7c4,0.3,10.6-1.8,2.8-9.6c-2.1-2.1-2.4-4.2-2.2-7.3c1.1,0.7,7.9,6.2,13.5,7.8c4.5,1.3,8.4-0.4,6.6-5.6
		c-1.4-4-9.7-5.2-12.6-15c-0.4-1.4-0.9-2.6-1.3-3.7c2-1,3.7-3.7,4.8-9c3.3-16,14.3-33.7,5.9-49.8c-3.9-7.5-9.2-16-14.3-24.4
		c37,10,83.8-27.4,63-81.4C1202.2,369.9,1202.6,370.2,1202.9,370.5z"/>
	<ellipse class="st1" cx="947.9" cy="717.7" rx="215.8" ry="40.8"/>
	<polygon class="st1" points="192.6,683.3 217.6,757.4 390.8,805.5 931.8,800 938.2,709.7 755.3,666.6 	"/>
	<g>
		<path class="st6" d="M1096.4,283.8c-2.5-3.2-7.8-13.9-9-16.4c-11.6-23.4-24.8,93.3-23.8,107.8c1.3,18.9,6.6,30.1,16.3,45.7
			c35.5,56.6,136.4-1,77.8-83.7C1141.5,314.2,1124.6,319.3,1096.4,283.8z"/>
		<path class="st7" d="M1094.8,312.1c-1.9-2.4-5.8-10.3-6.7-12.2c-8.6-17.3-18.4,69.2-17.6,80c1,14,4.9,22.3,12.1,33.9
			c26.4,42,101.2-0.7,57.7-62.1C1128.2,334.7,1115.6,338.4,1094.8,312.1z"/>
		<path class="st8" d="M1094.8,312.1c-1.9-2.4-5.8-10.3-6.7-12.2c-2.6-5.2-5.3-1-7.8,7.9c0.3,0.4,0.6,0.8,0.9,1.4
			c0.9,1.9,4.8,9.8,6.7,12.2c20.9,26.3,33.4,22.6,45.5,39.6c16.1,22.7,16,42.8,8.1,57.1c13.8-13.9,18.8-38.1-1.2-66.3
			C1128.2,334.7,1115.6,338.4,1094.8,312.1z"/>
		<path class="st7" d="M810.4,531.7c-47.1-8.2-134,19.5-166.4,7.5c-29.1-10.8,0.3-58.4,32-59c17.8-0.4,14.1-14.4,3.3-13.3
			c-33,3.2-59.8,19.5-63.7,53.4c-7.2,62.9,103.7,34.3,134.2,30.9c60.4-6.8,108.2,20.5,131.9,75.9c9.9,23.1,41.5,9.4,32-13.7
			C899.6,579.1,854.5,539.4,810.4,531.7z"/>
		<path class="st7" d="M1112.5,528.9c-2.3-7.7-5.1-10.9-12.4-8.7c-5.4,1.6-24.1,12.5-20.2,19.9c3.5,6.6,12.5,0.1,14.1-3.1
			c0.7-1.4-2.3,20.7,10.5,21.7c4,0.3,10.6-1.7,2.8-9.6c-2.1-2.1-2.4-4.2-2.2-7.3c1.1,0.7,7.9,6.2,13.5,7.8c4.5,1.3,8.4-0.4,6.6-5.6
			C1123.8,539.9,1115.4,538.6,1112.5,528.9z"/>
		<path class="st7" d="M759.9,683.6c-5.4,1.7-11.6,3.4-18,4.1c-0.2-0.3-0.4-0.5-0.7-0.9c-3.4-4.5-33-11.8-38.8-6
			c-1.9,1.9-2.8,3.3-3,5.1c-13.2,7.5-15.2,27.1,0.6,28.7c5.6,0.6,10.8,0.9,15.8,1c-0.3,13.1,48.3,14,51.8-4.4
			c12.9-6.5,24.7-19.3,31-27.7c4.5-6,10.1-14.4,3.1-21.8C788.2,673.6,776.2,678.5,759.9,683.6z"/>
		<path class="st7" d="M867.5,471.6c-3.5,9.7,17.4,0.9,19.3,0.7c0.1,0-11.9,4.4-10,16.4c1,6.1,7,4.7,10,1.5c3.4-3.6,8-20.2,8.4-6.5
			c0.4,13.1,10.3,9.7,10.9-0.8C907.7,454.5,873.5,454.9,867.5,471.6z"/>
		<path class="st6" d="M910.3,386.3c-24.8,13.1-40.5,36.2-25.4,69.7c7.2,15.8,30.3,20.3,30.3-5.6c0-10.1,1.4-21.8,12.1-25.2
			C984.2,407.4,989.9,344.1,910.3,386.3z"/>
		<path class="st9" d="M922.9,404.7c-22.8,12.1-37.9,32.6-28.4,61.9c9.3,5.2,20.7,2,20.7-16.2c0-10.1,1.4-21.8,12.1-25.2
			c23.4-7.3,38.1-22.4,41.8-34.6C959.4,389.7,944.2,393.4,922.9,404.7z"/>
		<path class="st6" d="M1066.9,235.2c-1.7-1-9.4-1.4-19.5-1.4c-6.6-2.6-15.3-6.9-21.9-13.2c-8.5-8.1-10.2,1.1-4.7,8.1
			c2.7,3.4-1.1,0.9-3.2-0.1c-5.3-2.5-13.2-8.9-18-12.7c-2.5-2-10.6-6.8-12.4-2c-2,5.3,1.6,15.8,6.6,22.1c-8.1,0.6-14,1.1-15.6,1.5
			c-4.4,15.6-16,41.5-21,58.1c-8.8,29.3-17.8,20.5-29.5,28.9c-17.5,12.5-12.9,50.4-1.9,83.6c-18.4,24.5-33.6,54.1-42.1,73.2
			c-7.6,17-17.9,28.2-21.9,47.8c-0.1,0.3-139.4,96.3-77.9,164.6c24.9,27.7,118.6,4.4,171.4,19.1c5.6,1.6,10.9,2.6,16.4,4.8
			c-0.3-0.1,36.1,14.5,61,14.5c78.2,0,56.4-125.2,37.8-149.6c-21.9-28.7,34.4-110.4,13.1-175.3c8.3-10.1,14.2-21,16.6-32.6
			C1106.4,343,1096.6,252.8,1066.9,235.2z"/>
		<path class="st9" d="M1024.9,416.5c-32.6,1-90.3-8.6-105.8-42.4c-0.9-2-1.7-3.5-2.4-4.7c0.8,6.6,2.1,13.6,3.7,20.6
			c9.3,21.9,29,52.4,59.2,58.2c23.2,4.4,58.4-8.8,69.9-29.9C1050.8,415.9,1027.1,416.5,1024.9,416.5z"/>
		<path class="st9" d="M891.3,682.9c-22.5,12.7-49.8,22.4-67,24.6c39.3,3,94.6-4.7,130.8,5.4c5,1.4,9.8,2.4,14.7,4.1
			c1.7-13.9-10.4-11.7-10.4-26.5C959.4,656.4,905.9,674.6,891.3,682.9z"/>
		<path class="st9" d="M1049.8,440.2c-9.4,25.2,4,59.4,22.9,83c7.7-28.6,18.1-62.4,15.2-94.2C1075.5,417.4,1058.4,417,1049.8,440.2z
			"/>
		<path class="st7" d="M1047.2,712.6c-17.6-15.1-42.8-10.1-59.8,8c-11-10.6-36.1-8.1-36.7,6.5c-0.3,6.4,15.3,8.7,27.5,8.6
			c10.7,0.8,83.9,8.9,79.5-9.2c7,0,14.1-0.7,20.9-1.9C1095.9,721.7,1076.6,699,1047.2,712.6z"/>
		<path class="st6" d="M1095.3,420.2c-9.5-19.5-31.5-27.8-41.2-1.7c-10.7,28.9,13.1,71.6,37,88.4c0.5,0.3,19.6,34.9,24.8,9.3
			c3.3-16,14.3-33.7,5.9-49.8C1114.4,452.1,1102.1,434.1,1095.3,420.2z"/>
		<path class="st6" d="M796.9,587.3c-12.9,6.1-18.4,7.6-28.7,18.2c-4.2,4.4-3.4,10.3,0.6,6.1c0.4-0.4,10.9-7,6.6-3.5
			c-7.5,6-11.2,14-12.8,23.4c-0.5,2.9-0.3,12.3,1.3,14.9c2-0.4,4.6-7,7-8.4c3.5-2,8.6-7.4,1.9,2.5c-3.1,4.6-4.8,9.6-6.4,14.9
			c-0.3,1.1-2.3,12.2,1.3,8.9c0.4-0.4,5-4.9,5.1-4.9c1.4-0.5,6-8.7,6.8-9.8c6-8.6,11-17,17.9-25c6.9-8,11.2-21.2,13.7-31.5
			c0.5-1.9-2-8.8-2.7-11.1C807.6,582.2,798.2,586.7,796.9,587.3z"/>
		<path class="st10" d="M991.7,262.3c-11.3-3.2-35.2,31.7-27.9,44c4.9,8.2,21.9,9.3,27.7,3.4C1000.8,300.5,999.8,264.7,991.7,262.3z
			"/>
		<path class="st11" d="M983.8,289c-5.6-1.6-14.3,6.2-20.7,15.9c0.2,0.5,0.4,1,0.7,1.5c4.6,7.7,19.7,9.1,26.5,4.5
			C990.3,300.1,988,290.2,983.8,289z"/>
		<path class="st10" d="M1016,272.5c-8.1,8.9-12.9,30.4-11.4,41.9c1,7.6,35.4,10,36.9-1.9C1043.2,298.4,1033.4,253.3,1016,272.5z"/>
		<path class="st11" d="M1025.4,298.1c-5.6-1.6-14.4,6.2-20.8,16.1l0,0.3c0.6,5.1,16.5,7.9,27.2,5.5
			C1031.8,309.3,1029.5,299.3,1025.4,298.1z"/>
		<path class="st6" d="M1098.9,311.2c-0.3-0.9-2.7,2.9-3.3,4.2c-4.1,8.8-5.7,23.7-5.7,33.6c0,12.3,7.3,31.3,8.6,44.7
			c0.2,2.1,4.7-1.5,5.5-3c5.9-12,2.3-22.2,2.4-22.2c10.6,9.6-1.3-19-1.2-18.8c3.4,4.3,14,7.6,11.6,3.8
			C1106.9,338,1104.6,326.8,1098.9,311.2z"/>
		<path class="st6" d="M1169.5,344.8c-1.7-3.3-11.9-10.7-20.3-17.5l-0.6,0.9c-1.3,2.6,0.1,6.1,0.8,8.4c1.3,4.3,18.2,21.6,22.3,24.7
			c9.3,7-5.3-14.9-5.3-15C1167.5,347.7,1171.4,348.6,1169.5,344.8z"/>
		<path class="st12" d="M952.8,427.8c-15.4,6.6-63.6,90.9-69.5,104c-40.6,91.2,95.7,79.9,113.1,65.2c6.5-5.6,10.3-13.9,9.7-25.9
			c-0.6-11.6,1.4-20.7,1.4-30.6c0-14.8,8.2-34.4,11.5-48.4c3.8-16.5,7-40.2-1.4-55.3C1007.4,418.6,969.4,420.7,952.8,427.8z"/>
		<path class="st13" d="M952.8,427.8c-1.3,0.6-2.9,1.7-4.7,3.4c8.8,8.2,19.3,14.6,31.5,16.9c11.9,2.3,27-0.1,40.4-5.8
			c-0.7-1.9-1.5-3.8-2.5-5.5C1007.4,418.6,969.4,420.7,952.8,427.8z"/>
		<path class="st10" d="M1031,373.5c-8.2,3-13,17-16.8,14.9c-25.5-14.6-19.3,14.5-5,12.8c6.3-0.8,8.4-3,16.2-1.4
			c14.3,2.9,19.5-6.4,19.5-18.8C1044.9,374.1,1036.7,371.5,1031,373.5z"/>
		<path class="st7" d="M929.5,324.9c-6-2.5-19.1-4-19.1,6.6c0,15.7,10.6,44.8,29.9,35.7C975.2,350.8,954.4,335.1,929.5,324.9z"/>
	</g>
	<g>
		<polygon class="st14" points="169.6,657.8 194.6,731.9 367.8,780.1 908.7,774.5 915.2,684.2 732.3,641.1 		"/>
		<polygon class="st15" points="367.8,780.1 908.7,774.5 915.2,684.2 346.5,697.2 		"/>
		<path class="st16" d="M714.6,756.3c-3.5-20.8-169-16.6-191.2-16.7c-21.1-0.1-39.3,2.5-58.9,3.2C461,743,490,730,494.9,727.1
			c10.3-6.2,11.2-8,1.4-9.4c-21.9-3.2-95.2,5.2-139.3,20.1l10.9,42.3l447.6-4.6c-21.2-5.9-110.3-7.6-110.4-7.6
			C690.3,767.8,715.9,764,714.6,756.3z"/>
		<polygon class="st17" points="169.6,657.8 194.6,731.9 367.8,780.1 346.5,697.2 		"/>
		<polygon class="st18" points="911.9,729.4 914,701.1 592.8,724.3 		"/>
		<path class="st18" d="M364.7,768.1c0,0,313.8-10.5,317-10.5c3.2,0-322.9-12.7-322.9-12.7L364.7,768.1z"/>
		<polygon class="st15" points="266.1,710 174.7,673 185.4,704.7 302.6,728.9 190.8,695.1 		"/>
		<polygon class="st19" points="501.3,680.3 889.7,678.2 823.7,662.7 		"/>
		<polygon class="st19" points="468,655.3 186.5,661.6 269.4,680 548.1,657.6 374.4,664.6 		"/>
		<path class="st20" d="M683.1,675.7l160.7-10v-9.6c-5.8,0-10.5-5.3-10.5-11.7c0-6.5,4.7-11.8,10.5-11.8v-60.2l-160.7,10V675.7z"/>
		<path class="st21" d="M603.3,562.2c0.8-0.3,1.6-0.5,2.4-0.5c4.3,0,7.9,4.4,7.9,9.7c0,5.4-3.5,9.7-7.9,9.7c-0.8,0-1.6-0.2-2.4-0.5
			v64.8l79.7,30.1V583l-79.7-30.1V562.2z"/>
		<path class="st20" d="M603.3,590.9v31.6c5.5-0.2,9.9-7.2,9.9-15.8C613.2,598.1,608.8,591.1,603.3,590.9z"/>
		<path class="st20" d="M629.3,627.3c-6,0-10.9,7.6-10.9,16.9c0,2.7,0.4,5.3,1.2,7.6l16.1,6.1c2.7-3.1,4.5-8,4.5-13.7
			C640.2,634.9,635.4,627.3,629.3,627.3z"/>
		<path class="st22" d="M655.2,561.1c-5.8,0-10.5-2.2-10.5-4.8l0-0.1l-41.4-3.4l79.7,30.1l160.7-10.6l-178.6-14.5
			C663.7,559.8,659.8,561.1,655.2,561.1z"/>
		<path class="st21" d="M663.3,564.3c-7.4,0-13.7,2-16.7,4.9l27.5,10.4c4.6-1.5,7.5-4,7.5-6.8C681.6,568.1,673.4,564.3,663.3,564.3z
			"/>
		<path class="st23" d="M729.3,579.8c-0.6,1.5-0.9,3.1-0.9,4.8c0,6.5,4.7,11.8,10.5,11.8c5.8,0,10.5-5.3,10.5-11.8
			c0-2.2-0.5-4.2-1.5-6L729.3,579.8z"/>
		<path class="st23" d="M683.1,630v34c7-1.7,12.3-8.6,12.3-17C695.3,638.7,690.1,631.7,683.1,630z"/>
		<path class="st23" d="M809.5,654.6c-5.8,0-10.5,5.3-10.5,11.8c0,0.7,0.1,1.4,0.2,2.1l20.8-1.3c0-0.3,0-0.5,0-0.8
			C820,659.8,815.3,654.6,809.5,654.6z"/>
		<path class="st23" d="M827.8,607.6c0,9.6,6.9,17.4,15.5,17.4l0.4,0v-34.7l-0.4,0C834.7,590.3,827.8,598.1,827.8,607.6z"/>
		<path class="st23" d="M765.8,577.2c0,0.1,0,0.3,0,0.4c0,3.5,6.2,6.4,14,6.4c7.7,0,13.9-2.9,13.9-6.4c0-0.7-0.3-1.4-0.8-2.1
			L765.8,577.2z"/>
		<g>
			<path class="st11" d="M564.8,615.9l-0.2-0.1c-1.7-0.6-3.4-0.9-5.3-0.9c-8.8,0-16,7.2-16,16c0,7.4,5,13.6,11.8,15.4l94.1,33.9
				l9-30.5L564.8,615.9L564.8,615.9z"/>
			<circle class="st24" cx="655.2" cy="665.4" r="16"/>
		</g>
		<path class="st25" d="M600.4,622.8l-250.8,0.7c-26.7,0-38,2-38,16.2c0,8.2,4.8,16.6,15.8,36.1L344,675l-2-3.5
			c-9.8-17.3-15.6-27.4-15.6-31.8c0-1.2,6.9-1.3,23.2-1.3l265.9-4l-1.9-4.5C611,623.2,608,622.8,600.4,622.8z"/>
		<ellipse class="st23" cx="761.2" cy="631.7" rx="14.1" ry="15.8"/>
		<ellipse class="st21" cx="712" cy="571.4" rx="10.5" ry="4.8"/>
		<path class="st21" d="M779.7,571.2c-7.6,0-13.8,2.8-13.9,6.3l27.3-1.8C791.2,573.1,785.9,571.2,779.7,571.2z"/>
		<ellipse class="st20" cx="662" cy="606.1" rx="7.9" ry="12.2"/>
	</g>
	<path class="st10" d="M1095.2,238.3c12.3-7.7,28.2-14.5,24.9-20C1116.8,212.8,1102.9,228.9,1095.2,238.3z"/>
	<path class="st10" d="M1098.9,246"/>
	<rect x="865.1" y="816.3" class="st10" width="1.4" height="9.2"/>
	<path class="st10" d="M535.9,839.6c-1.2,0-2.2,0.4-3,1.3c-0.7,0.9-1.1,2.1-1.1,3.5c0,1.5,0.4,2.6,1.2,3.5c0.8,0.8,1.9,1.2,3.2,1.2
		c0.6,0,1.2,0,1.6-0.1c0.4-0.1,0.9-0.2,1.4-0.5v-1.2c-1,0.4-2,0.6-2.9,0.6c-0.9,0-1.7-0.3-2.2-0.8c-0.5-0.6-0.8-1.4-0.8-2.5h6.4
		v-0.9c0-1.2-0.3-2.2-1-3C538,840,537.1,839.6,535.9,839.6z M533.4,843.5c0.1-0.9,0.3-1.5,0.8-2c0.4-0.5,1-0.7,1.8-0.7
		c0.7,0,1.3,0.2,1.7,0.7c0.4,0.5,0.6,1.1,0.6,2H533.4z"/>
	<path class="st10" d="M865.8,814.7c0.2,0,0.4-0.1,0.6-0.2c0.2-0.2,0.2-0.4,0.2-0.7c0-0.3-0.1-0.5-0.2-0.7c-0.2-0.2-0.4-0.2-0.6-0.2
		c-0.2,0-0.4,0.1-0.6,0.2c-0.2,0.2-0.2,0.4-0.2,0.7c0,0.3,0.1,0.6,0.2,0.7C865.4,814.6,865.6,814.7,865.8,814.7z"/>
	<path class="st10" d="M512,823.8c-1,0.4-2,0.6-2.9,0.6c-0.9,0-1.7-0.3-2.2-0.8c-0.5-0.6-0.8-1.4-0.8-2.5h6.4v-0.9
		c0-1.2-0.3-2.2-1-3c-0.7-0.8-1.6-1.1-2.7-1.1c-1.2,0-2.2,0.4-3,1.3c-0.7,0.9-1.1,2.1-1.1,3.5c0,1.5,0.4,2.6,1.2,3.5
		c0.8,0.8,1.9,1.2,3.2,1.2c0.6,0,1.2,0,1.6-0.1c0.4-0.1,0.9-0.2,1.4-0.5V823.8z M506.8,818c0.4-0.5,1-0.7,1.8-0.7
		c0.7,0,1.3,0.2,1.7,0.7c0.4,0.5,0.6,1.1,0.6,2h-4.8C506.1,819.2,506.4,818.5,506.8,818z"/>
	<rect x="829.4" y="816.3" class="st10" width="1.4" height="9.2"/>
	<path class="st10" d="M845,814.7c0.2,0,0.4-0.1,0.6-0.2c0.2-0.2,0.2-0.4,0.2-0.7c0-0.3-0.1-0.5-0.2-0.7c-0.2-0.2-0.4-0.2-0.6-0.2
		c-0.2,0-0.4,0.1-0.6,0.2c-0.2,0.2-0.2,0.4-0.2,0.7c0,0.3,0.1,0.6,0.2,0.7C844.6,814.6,844.8,814.7,845,814.7z"/>
	<path class="st10" d="M514.6,843.7c-0.8-0.3-1.3-0.5-1.6-0.7c-0.3-0.2-0.5-0.3-0.6-0.5c-0.1-0.2-0.2-0.4-0.2-0.6
		c0-0.4,0.2-0.6,0.5-0.9c0.3-0.2,0.8-0.3,1.5-0.3c0.7,0,1.6,0.2,2.5,0.6l0.5-1.1c-0.9-0.4-1.9-0.6-2.9-0.6c-1.1,0-1.9,0.2-2.5,0.7
		c-0.6,0.4-0.9,1-0.9,1.8c0,0.4,0.1,0.8,0.3,1.1c0.2,0.3,0.4,0.6,0.8,0.8c0.4,0.2,1,0.5,1.8,0.8c0.9,0.3,1.5,0.7,1.8,0.9
		c0.3,0.3,0.5,0.6,0.5,0.9c0,0.5-0.2,0.8-0.6,1.1c-0.4,0.2-1,0.3-1.7,0.3c-0.5,0-1-0.1-1.5-0.2c-0.5-0.1-1-0.3-1.4-0.5v1.3
		c0.7,0.4,1.6,0.6,2.9,0.6c1.2,0,2.1-0.2,2.7-0.7c0.6-0.5,1-1.1,1-2c0-0.6-0.2-1.1-0.6-1.5C516.5,844.5,515.7,844.1,514.6,843.7z"/>
	<path class="st10" d="M830.1,814.7c0.2,0,0.4-0.1,0.6-0.2c0.2-0.2,0.2-0.4,0.2-0.7c0-0.3-0.1-0.5-0.2-0.7c-0.2-0.2-0.4-0.2-0.6-0.2
		c-0.2,0-0.4,0.1-0.6,0.2c-0.2,0.2-0.2,0.4-0.2,0.7c0,0.3,0.1,0.6,0.2,0.7C829.7,814.6,829.9,814.7,830.1,814.7z"/>
	<rect x="844.3" y="816.3" class="st10" width="1.4" height="9.2"/>
	<path class="st10" d="M702.2,825.7c0.3-0.7,0.5-1.4,0.6-2l-0.1-0.2h-1.5c-0.1,0.5-0.2,1.2-0.4,2.1c-0.2,0.9-0.4,1.6-0.5,2.2h1
		C701.7,827.1,702,826.4,702.2,825.7z"/>
	<path class="st10" d="M527.3,843.7c-0.8-0.3-1.3-0.5-1.6-0.7c-0.3-0.2-0.5-0.3-0.6-0.5c-0.1-0.2-0.2-0.4-0.2-0.6
		c0-0.4,0.2-0.6,0.5-0.9c0.3-0.2,0.8-0.3,1.5-0.3c0.8,0,1.6,0.2,2.5,0.6l0.5-1.1c-0.9-0.4-1.9-0.6-2.9-0.6c-1.1,0-1.9,0.2-2.5,0.7
		c-0.6,0.4-0.9,1-0.9,1.8c0,0.4,0.1,0.8,0.3,1.1c0.2,0.3,0.4,0.6,0.8,0.8c0.4,0.2,1,0.5,1.8,0.8c0.9,0.3,1.5,0.7,1.8,0.9
		c0.3,0.3,0.5,0.6,0.5,0.9c0,0.5-0.2,0.8-0.6,1.1c-0.4,0.2-1,0.3-1.7,0.3c-0.5,0-1-0.1-1.5-0.2c-0.5-0.1-1-0.3-1.4-0.5v1.3
		c0.7,0.4,1.6,0.6,2.9,0.6c1.2,0,2.1-0.2,2.7-0.7c0.6-0.5,1-1.1,1-2c0-0.6-0.2-1.1-0.6-1.5C529.2,844.5,528.4,844.1,527.3,843.7z"/>
	<path class="st10" d="M542.3,825.3c0.5,0.2,1,0.3,1.6,0.3c1.2,0,2.1-0.4,2.8-1.3c0.7-0.8,1-2,1-3.5c0-1.5-0.3-2.7-1-3.5
		c-0.7-0.8-1.6-1.3-2.8-1.3c-0.6,0-1.2,0.1-1.6,0.3c-0.5,0.2-0.9,0.6-1.3,1.1H541l-0.2-1.3h-1.1v13.4h1.4v-3.8c0-0.5,0-1-0.1-1.5
		h0.1C541.4,824.8,541.8,825.1,542.3,825.3z M541,820.6c0-1.1,0.2-2,0.6-2.5c0.4-0.5,1.1-0.8,2-0.8c0.8,0,1.5,0.3,1.9,0.9
		c0.4,0.6,0.7,1.5,0.7,2.6c0,1.1-0.2,2-0.7,2.7c-0.5,0.6-1.1,1-1.9,1c-1,0-1.6-0.3-2.1-0.8c-0.4-0.6-0.6-1.5-0.6-2.8V820.6z"/>
	<path class="st10" d="M576.3,825.5v-5.1c0-1,0.2-1.8,0.6-2.3c0.4-0.5,1.1-0.7,1.9-0.7c0.7,0,1.1,0.2,1.5,0.5
		c0.3,0.4,0.5,0.9,0.5,1.7v6l1.4,0v-6c0-1.2-0.3-2-0.8-2.6c-0.5-0.5-1.3-0.8-2.3-0.8c-0.7,0-1.3,0.1-1.8,0.4
		c-0.5,0.3-0.9,0.7-1.2,1.1H576c-0.4-1-1.4-1.6-2.8-1.6c-0.6,0-1.1,0.1-1.6,0.4c-0.5,0.3-0.9,0.6-1.1,1h-0.1l-0.2-1.3H569v9.2h1.4
		v-4.8c0-1.2,0.2-2.1,0.6-2.6c0.4-0.5,1-0.8,1.9-0.8c0.7,0,1.2,0.2,1.5,0.5c0.3,0.4,0.5,0.9,0.5,1.7v6H576.3z"/>
	<path class="st10" d="M897.9,825.7c0.6,0,1.2,0,1.6-0.1c0.4-0.1,0.9-0.2,1.4-0.5v-1.2c-1,0.4-2,0.6-2.9,0.6c-0.9,0-1.7-0.3-2.2-0.8
		c-0.5-0.6-0.8-1.4-0.8-2.5l6.4,0v-0.9c0-1.2-0.3-2.2-1-3c-0.7-0.8-1.6-1.1-2.7-1.1c-1.2,0-2.2,0.4-3,1.3c-0.7,0.9-1.1,2.1-1.1,3.5
		c0,1.5,0.4,2.6,1.2,3.5C895.4,825.3,896.5,825.7,897.9,825.7z M895.7,818c0.4-0.5,1-0.7,1.8-0.7c0.7,0,1.3,0.2,1.7,0.7
		c0.4,0.5,0.6,1.1,0.6,2h-4.8C895,819.2,895.3,818.5,895.7,818z"/>
	<path class="st10" d="M597.3,841.3c0.3,0.4,0.5,0.9,0.5,1.7v6h1.4v-6c0-1.2-0.3-2-0.8-2.6c-0.5-0.5-1.3-0.8-2.3-0.8
		c-0.7,0-1.3,0.1-1.8,0.4c-0.5,0.3-0.9,0.7-1.2,1.1H593c-0.4-1-1.4-1.6-2.8-1.6c-0.6,0-1.1,0.1-1.6,0.4c-0.5,0.3-0.9,0.6-1.1,1h-0.1
		l-0.2-1.3H586v9.2h1.4v-4.8c0-1.2,0.2-2.1,0.6-2.6c0.4-0.5,1-0.8,1.9-0.8c0.7,0,1.2,0.2,1.5,0.6c0.3,0.4,0.5,0.9,0.5,1.6v6h1.4
		v-5.2c0-1,0.2-1.8,0.6-2.3c0.4-0.5,1.1-0.7,1.9-0.7C596.5,840.8,597,841,597.3,841.3z"/>
	<path class="st10" d="M579.9,839.6c-0.5,0-1.1,0.1-1.6,0.2c-0.5,0.1-1,0.3-1.5,0.6l0.4,1.1c1-0.5,1.8-0.7,2.6-0.7
		c0.7,0,1.2,0.2,1.5,0.5c0.3,0.3,0.5,0.9,0.5,1.6v0.6l-1.6,0.1c-3,0.1-4.5,1.1-4.5,2.9c0,0.9,0.3,1.5,0.8,2c0.5,0.5,1.2,0.7,2.2,0.7
		c0.7,0,1.3-0.1,1.7-0.3c0.5-0.2,0.9-0.6,1.4-1.2h0.1l0.3,1.3h1v-6.3c0-1.1-0.3-1.9-0.8-2.3C581.8,839.9,581,839.6,579.9,839.6z
		 M581.7,845.3c0,0.9-0.3,1.5-0.7,2c-0.5,0.5-1.2,0.7-2,0.7c-0.5,0-1-0.1-1.3-0.4c-0.3-0.3-0.5-0.6-0.5-1.2c0-0.6,0.2-1.1,0.7-1.4
		c0.5-0.3,1.3-0.5,2.4-0.5l1.4-0.1V845.3z"/>
	<path class="st10" d="M599.6,869.4c-0.3,0.9-0.5,1.5-0.6,1.8h-0.1c-0.1-0.4-0.3-1.2-0.8-2.5l-2-5.5h-1.5l3.5,9.2h1.6l3.5-9.2h-1.5
		C600.7,866.4,599.9,868.4,599.6,869.4z"/>
	<rect x="614.5" y="859.4" class="st10" width="1.4" height="13.1"/>
	<path class="st10" d="M608.3,863.1c-1.2,0-2.2,0.4-3,1.3c-0.7,0.9-1.1,2.1-1.1,3.5c0,1.5,0.4,2.6,1.2,3.5c0.8,0.8,1.9,1.2,3.2,1.2
		c0.6,0,1.2,0,1.6-0.1c0.4-0.1,0.9-0.2,1.4-0.5l0-1.2c-1,0.4-2,0.6-2.9,0.6c-0.9,0-1.7-0.3-2.2-0.8c-0.5-0.6-0.8-1.4-0.8-2.5h6.4
		v-0.9c0-1.2-0.3-2.2-1-3C610.4,863.4,609.5,863.1,608.3,863.1z M605.8,867c0.1-0.8,0.3-1.5,0.8-2c0.4-0.5,1-0.7,1.8-0.7
		c0.7,0,1.3,0.2,1.7,0.7c0.4,0.5,0.6,1.1,0.6,2H605.8z"/>
	<path class="st10" d="M908.7,814.7c0.2,0,0.4-0.1,0.6-0.2c0.2-0.2,0.2-0.4,0.2-0.7c0-0.3-0.1-0.5-0.2-0.7c-0.2-0.2-0.4-0.2-0.6-0.2
		c-0.2,0-0.4,0.1-0.6,0.2c-0.2,0.2-0.2,0.4-0.2,0.7c0,0.3,0.1,0.6,0.2,0.7C908.3,814.6,908.5,814.7,908.7,814.7z"/>
	<path class="st10" d="M553.3,820.3c-0.8-0.3-1.3-0.5-1.6-0.7c-0.3-0.2-0.5-0.3-0.6-0.5c-0.1-0.2-0.2-0.4-0.2-0.6
		c0-0.4,0.2-0.7,0.5-0.9c0.3-0.2,0.8-0.3,1.5-0.3c0.8,0,1.6,0.2,2.5,0.6l0.5-1.1c-0.9-0.4-1.9-0.6-2.9-0.6c-1.1,0-1.9,0.2-2.5,0.7
		c-0.6,0.4-0.9,1-0.9,1.8c0,0.4,0.1,0.8,0.3,1.1c0.2,0.3,0.4,0.6,0.8,0.8c0.4,0.2,1,0.5,1.8,0.8c0.9,0.3,1.5,0.7,1.8,0.9
		c0.3,0.3,0.5,0.6,0.5,0.9c0,0.5-0.2,0.8-0.6,1.1c-0.4,0.2-1,0.3-1.7,0.3c-0.5,0-1-0.1-1.5-0.2c-0.5-0.1-1-0.3-1.4-0.5v1.3
		c0.7,0.4,1.6,0.6,2.9,0.6c1.2,0,2.1-0.2,2.7-0.7c0.6-0.5,1-1.1,1-2c0-0.6-0.2-1.1-0.6-1.5C555.2,821.1,554.4,820.7,553.3,820.3z"/>
	<rect x="572.1" y="835.9" class="st10" width="1.4" height="13.1"/>
	<path class="st10" d="M563.3,844.6c0,1.2-0.2,2.1-0.7,2.6c-0.4,0.5-1.2,0.8-2.1,0.8c-0.7,0-1.3-0.2-1.6-0.6
		c-0.3-0.4-0.5-0.9-0.5-1.7v-6H557v6c0,1.2,0.3,2,0.8,2.6c0.6,0.5,1.4,0.8,2.5,0.8c0.7,0,1.2-0.1,1.7-0.4c0.5-0.2,0.9-0.6,1.2-1h0.1
		l0.2,1.2h1.2v-9.2h-1.4V844.6z"/>
	<path class="st10" d="M548.3,839.6l0,0.7l0.1,0.7h-0.1c-0.7-0.9-1.6-1.4-2.9-1.4c-1.2,0-2.1,0.4-2.8,1.3c-0.7,0.8-1,2-1,3.5
		c0,1.5,0.3,2.7,1,3.5c0.7,0.8,1.6,1.2,2.8,1.2c1.3,0,2.2-0.5,2.9-1.4h0.1l0.2,1.2h1.1v-13.1h-1.4V839.6z M548.3,844.7
		c0,1.2-0.2,2-0.6,2.5c-0.4,0.5-1.1,0.8-2.1,0.8c-0.8,0-1.5-0.3-1.9-0.9c-0.4-0.6-0.6-1.5-0.6-2.7c0-1.2,0.2-2.1,0.7-2.7
		c0.4-0.6,1.1-1,1.9-1c1,0,1.6,0.3,2.1,0.8c0.4,0.6,0.7,1.5,0.7,2.8V844.7z"/>
	<rect x="908" y="816.3" class="st10" width="1.4" height="9.2"/>
	<path class="st10" d="M564.6,821.1c0,1.2-0.2,2.1-0.7,2.6c-0.4,0.5-1.2,0.8-2.1,0.8c-0.7,0-1.3-0.2-1.6-0.6
		c-0.3-0.4-0.5-0.9-0.5-1.7v-6h-1.4v6c0,1.2,0.3,2,0.8,2.6c0.6,0.5,1.4,0.8,2.5,0.8c0.7,0,1.2-0.1,1.7-0.4c0.5-0.2,0.9-0.6,1.2-1
		h0.1l0.2,1.2h1.2v-9.2h-1.4V821.1z"/>
	<rect x="567.7" y="835.9" class="st10" width="1.4" height="13.1"/>
	<path class="st10" d="M526,817.9c0.3,0.4,0.5,0.9,0.5,1.7v6h1.4v-6c0-1.2-0.3-2-0.8-2.6c-0.5-0.5-1.3-0.8-2.3-0.8
		c-0.7,0-1.3,0.1-1.8,0.4c-0.5,0.3-0.9,0.7-1.2,1.1h-0.1c-0.4-1-1.4-1.6-2.8-1.6c-0.6,0-1.1,0.1-1.6,0.4c-0.5,0.3-0.9,0.6-1.1,1
		h-0.1l-0.2-1.3h-1.1v9.2h1.4v-4.8c0-1.2,0.2-2.1,0.6-2.6c0.4-0.5,1-0.8,1.9-0.8c0.7,0,1.2,0.2,1.5,0.5c0.3,0.4,0.5,0.9,0.5,1.7v6
		h1.4v-5.1c0-1,0.2-1.8,0.6-2.3c0.4-0.5,1.1-0.7,1.9-0.7C525.2,817.3,525.7,817.5,526,817.9z"/>
	<rect x="610.5" y="812.4" class="st10" width="1.4" height="13.1"/>
	<rect x="728.5" y="835.9" class="st10" width="1.4" height="13.1"/>
	<path class="st10" d="M713.4,839.8v6c0,1.2,0.3,2,0.8,2.6c0.6,0.5,1.4,0.8,2.5,0.8c0.7,0,1.2-0.1,1.7-0.4c0.5-0.2,0.9-0.6,1.2-1
		h0.1l0.2,1.2h1.2v-9.2h-1.4v4.8c0,1.2-0.2,2.1-0.7,2.6c-0.4,0.5-1.2,0.8-2.1,0.8c-0.7,0-1.3-0.2-1.6-0.6c-0.3-0.4-0.5-0.9-0.5-1.7
		v-6H713.4z"/>
	<path class="st10" d="M605.8,840.8c0.3,0,0.6,0,1,0.1c0.4,0.1,0.7,0.2,1,0.3l0.4-1.2c-0.3-0.1-0.6-0.2-1-0.3
		c-0.4-0.1-0.9-0.1-1.3-0.1c-1.4,0-2.4,0.4-3.2,1.3c-0.7,0.8-1.1,2-1.1,3.6c0,1.5,0.4,2.7,1.1,3.5c0.7,0.8,1.8,1.2,3.1,1.2
		c0.9,0,1.7-0.2,2.3-0.5v-1.2c-0.8,0.3-1.6,0.5-2.4,0.5c-0.9,0-1.6-0.3-2-0.9c-0.5-0.6-0.7-1.5-0.7-2.6
		C603,842,603.9,840.8,605.8,840.8z"/>
	<path class="st10" d="M739.7,820.4c0.4,0.2,1,0.5,1.8,0.8c0.9,0.3,1.5,0.7,1.8,0.9c0.3,0.3,0.5,0.6,0.5,0.9c0,0.5-0.2,0.8-0.6,1.1
		c-0.4,0.2-1,0.3-1.7,0.3c-0.5,0-1-0.1-1.5-0.2c-0.5-0.1-1-0.3-1.4-0.5v1.3c0.7,0.4,1.6,0.6,2.9,0.6c1.2,0,2.1-0.2,2.7-0.7
		c0.6-0.5,1-1.1,1-2c0-0.6-0.2-1.1-0.6-1.5c-0.4-0.4-1.1-0.8-2.2-1.2c-0.8-0.3-1.3-0.5-1.6-0.7c-0.3-0.2-0.5-0.3-0.6-0.5
		c-0.1-0.2-0.2-0.4-0.2-0.6c0-0.4,0.2-0.7,0.5-0.9c0.3-0.2,0.8-0.3,1.5-0.3c0.7,0,1.6,0.2,2.5,0.6l0.5-1.1c-1-0.4-1.9-0.6-2.9-0.6
		c-1.1,0-1.9,0.2-2.5,0.7c-0.6,0.4-0.9,1-0.9,1.8c0,0.4,0.1,0.8,0.3,1.1C739,819.9,739.3,820.2,739.7,820.4z"/>
	<path class="st10" d="M730,820.7c0-1.2,0.2-2.1,0.7-2.6c0.4-0.5,1.2-0.8,2.1-0.8c0.7,0,1.3,0.2,1.6,0.6c0.3,0.4,0.5,0.9,0.5,1.7v6
		h1.4v-6c0-1.2-0.3-2-0.8-2.6c-0.6-0.5-1.4-0.8-2.5-0.8c-0.6,0-1.2,0.1-1.7,0.4c-0.5,0.3-0.9,0.6-1.2,1.1H730l-0.2-1.3h-1.1v9.2h1.4
		V820.7z"/>
	<path class="st10" d="M601.6,825.1c0.6,0.4,1.4,0.6,2.2,0.6c1.3,0,2.4-0.4,3.1-1.3c0.8-0.8,1.1-2,1.1-3.5c0-1.5-0.4-2.6-1.1-3.5
		c-0.8-0.9-1.8-1.3-3.1-1.3c-1.3,0-2.4,0.4-3.1,1.3c-0.8,0.8-1.1,2-1.1,3.5c0,1,0.2,1.8,0.5,2.5
		C600.4,824.2,600.9,824.7,601.6,825.1z M601.7,818.2c0.5-0.6,1.2-0.9,2.1-0.9c0.9,0,1.6,0.3,2.1,0.9c0.5,0.6,0.7,1.5,0.7,2.7
		c0,1.2-0.2,2.1-0.7,2.7c-0.5,0.6-1.2,0.9-2.1,0.9c-0.9,0-1.6-0.3-2.1-0.9c-0.5-0.6-0.7-1.5-0.7-2.7
		C601,819.7,601.2,818.8,601.7,818.2z"/>
	<path class="st10" d="M685.5,846.3c0,1.9,0.9,2.8,2.7,2.8c0.2,0,0.5,0,0.8-0.1c0.3,0,0.5-0.1,0.7-0.2v-1.1c-0.1,0-0.3,0.1-0.5,0.1
		c-0.2,0-0.5,0.1-0.7,0.1c-0.5,0-0.8-0.2-1.1-0.4c-0.3-0.3-0.4-0.7-0.4-1.3v-5.4h2.7v-1.1h-2.7v-2.1h-0.8l-0.6,2l-1.3,0.6v0.7h1.3
		V846.3z"/>
	<path class="st10" d="M662.2,825.7c0.7,0,1.3-0.1,1.7-0.3c0.5-0.2,0.9-0.6,1.4-1.2l0.1,0l0.3,1.3h1v-6.3c0-1.1-0.3-1.9-0.8-2.3
		c-0.5-0.5-1.3-0.7-2.4-0.7c-0.5,0-1.1,0.1-1.6,0.2c-0.5,0.1-1,0.3-1.5,0.6l0.4,1.1c1-0.5,1.8-0.7,2.6-0.7c0.7,0,1.2,0.2,1.5,0.5
		c0.3,0.3,0.5,0.9,0.5,1.6v0.6l-1.6,0c-3,0.1-4.5,1.1-4.5,2.9c0,0.9,0.3,1.5,0.8,2C660.5,825.4,661.2,825.7,662.2,825.7z
		 M661.4,821.6c0.5-0.3,1.3-0.5,2.4-0.5l1.4-0.1v0.8c0,0.9-0.3,1.5-0.7,2c-0.5,0.5-1.2,0.7-2,0.7c-0.5,0-1-0.1-1.3-0.4
		c-0.3-0.3-0.5-0.6-0.5-1.2C660.7,822.3,660.9,821.9,661.4,821.6z"/>
	<path class="st10" d="M709.1,847L709.1,847l-6.8-10.3h-1.6V849h1.3v-7c0-1,0-2.1-0.1-3.3h0.1l6.7,10.3h1.6v-12.3H709v7.1
		c0,0.4,0,0.9,0,1.8C709.1,846.3,709.1,846.8,709.1,847z"/>
	<path class="st10" d="M691.5,847.2c-0.2,0.2-0.3,0.5-0.3,0.9c0,0.4,0.1,0.7,0.3,0.9c0.2,0.2,0.4,0.3,0.7,0.3c0.3,0,0.6-0.1,0.8-0.3
		c0.2-0.2,0.3-0.5,0.3-0.8c0-0.4-0.1-0.7-0.3-0.9c-0.2-0.2-0.4-0.3-0.8-0.3C691.9,847,691.7,847,691.5,847.2z"/>
	<path class="st10" d="M713.7,825.7c0.9,0,1.7-0.2,2.3-0.5V824c-0.8,0.3-1.6,0.5-2.4,0.5c-0.9,0-1.6-0.3-2-0.9
		c-0.5-0.6-0.7-1.5-0.7-2.6c0-2.4,0.9-3.6,2.8-3.6c0.3,0,0.6,0,1,0.1c0.4,0.1,0.7,0.2,1,0.3l0.4-1.2c-0.3-0.1-0.6-0.2-1-0.3
		c-0.4-0.1-0.9-0.1-1.3-0.1c-1.4,0-2.4,0.4-3.2,1.3c-0.7,0.8-1.1,2-1.1,3.6c0,1.5,0.4,2.7,1.1,3.5
		C711.3,825.3,712.3,825.7,713.7,825.7z"/>
	<path class="st10" d="M670.9,820.7c0-1.2,0.2-2.1,0.6-2.6c0.4-0.5,1-0.8,1.9-0.8c0.7,0,1.2,0.2,1.5,0.5c0.3,0.4,0.5,0.9,0.5,1.7v6
		h1.4v-5.1c0-1,0.2-1.8,0.6-2.3c0.4-0.5,1.1-0.7,1.9-0.7c0.7,0,1.1,0.2,1.5,0.5c0.3,0.4,0.5,0.9,0.5,1.7v6h1.4v-6
		c0-1.2-0.3-2-0.8-2.6c-0.5-0.5-1.3-0.8-2.3-0.8c-0.7,0-1.3,0.1-1.8,0.4c-0.5,0.3-0.9,0.7-1.2,1.1h-0.1c-0.4-1-1.4-1.6-2.8-1.6
		c-0.6,0-1.1,0.1-1.6,0.4c-0.5,0.3-0.9,0.6-1.1,1h-0.1l-0.2-1.3h-1.1v9.2h1.4V820.7z"/>
	<path class="st10" d="M689.4,825.7c0.6,0,1.2,0,1.6-0.1c0.4-0.1,0.9-0.2,1.4-0.5v-1.2c-1,0.4-2,0.6-2.9,0.6c-0.9,0-1.7-0.3-2.2-0.8
		c-0.5-0.6-0.8-1.4-0.8-2.5h6.4v-0.9c0-1.2-0.3-2.2-1-3c-0.7-0.8-1.6-1.1-2.7-1.1c-1.2,0-2.2,0.4-3,1.3c-0.7,0.9-1.1,2.1-1.1,3.5
		c0,1.5,0.4,2.6,1.2,3.5C687,825.3,688.1,825.7,689.4,825.7z M687.3,818c0.4-0.5,1-0.7,1.8-0.7c0.7,0,1.3,0.2,1.7,0.7
		c0.4,0.5,0.6,1.1,0.6,2h-4.8C686.6,819.2,686.8,818.5,687.3,818z"/>
	<path class="st10" d="M592.8,825.7c1.3,0,2.3-0.5,2.9-1.4h0.1l0.2,1.2h1.1v-13.1h-1.4v3.8l0,0.6l0.1,0.7h-0.1
		c-0.7-0.9-1.6-1.4-2.9-1.4c-1.2,0-2.1,0.4-2.8,1.3c-0.7,0.8-1,2-1,3.5c0,1.5,0.3,2.7,1,3.5C590.7,825.3,591.6,825.7,592.8,825.7z
		 M591.1,818.2c0.4-0.6,1.1-1,1.9-1c1,0,1.7,0.3,2.1,0.8c0.4,0.6,0.7,1.5,0.7,2.8l0,0.3c0,1.2-0.2,2-0.6,2.5
		c-0.4,0.5-1.1,0.8-2.1,0.8c-0.8,0-1.5-0.3-1.9-0.9c-0.4-0.6-0.6-1.5-0.6-2.7C590.4,819.8,590.7,818.9,591.1,818.2z"/>
	<path class="st10" d="M502.7,840.1c-0.5,0.3-0.9,0.8-1.2,1.4h-0.1l-0.2-1.7h-1.2v9.2h1.4V844c0-0.9,0.3-1.7,0.8-2.3
		c0.5-0.6,1.2-0.9,1.9-0.9c0.3,0,0.6,0,1,0.1l0.2-1.3c-0.3-0.1-0.7-0.1-1.1-0.1C503.7,839.6,503.2,839.8,502.7,840.1z"/>
	<path class="st10" d="M536,814.7c0.2,0,0.4-0.1,0.6-0.2c0.2-0.2,0.2-0.4,0.2-0.7c0-0.3-0.1-0.5-0.2-0.7c-0.2-0.2-0.4-0.2-0.6-0.2
		c-0.2,0-0.4,0.1-0.6,0.2c-0.2,0.2-0.2,0.4-0.2,0.7c0,0.3,0.1,0.6,0.2,0.7C535.5,814.6,535.7,814.7,536,814.7z"/>
	<path class="st10" d="M491.7,825.7c1.3,0,2.4-0.4,3.1-1.3c0.8-0.8,1.1-2,1.1-3.5c0-1.5-0.4-2.6-1.1-3.5c-0.8-0.9-1.8-1.3-3.1-1.3
		c-1.3,0-2.4,0.4-3.1,1.3c-0.8,0.8-1.1,2-1.1,3.5c0,1,0.2,1.8,0.5,2.5c0.3,0.7,0.8,1.3,1.5,1.7C490.1,825.5,490.8,825.7,491.7,825.7
		z M489.6,818.2c0.5-0.6,1.2-0.9,2.1-0.9c0.9,0,1.6,0.3,2.1,0.9c0.5,0.6,0.7,1.5,0.7,2.7c0,1.2-0.2,2.1-0.7,2.7
		c-0.5,0.6-1.2,0.9-2.1,0.9c-0.9,0-1.6-0.3-2.1-0.9c-0.5-0.6-0.7-1.5-0.7-2.7C488.9,819.7,489.1,818.8,489.6,818.2z"/>
	<path class="st10" d="M483.4,839.6c-0.5,0-1.1,0.1-1.6,0.2c-0.5,0.1-1,0.3-1.5,0.6l0.4,1.1c1-0.5,1.8-0.7,2.6-0.7
		c0.7,0,1.2,0.2,1.5,0.5c0.3,0.3,0.5,0.9,0.5,1.6v0.6l-1.6,0.1c-3,0.1-4.5,1.1-4.5,2.9c0,0.9,0.3,1.5,0.8,2c0.5,0.5,1.2,0.7,2.2,0.7
		c0.7,0,1.3-0.1,1.7-0.3c0.5-0.2,0.9-0.6,1.4-1.2h0.1l0.3,1.3h1v-6.3c0-1.1-0.3-1.9-0.8-2.3C485.3,839.9,484.5,839.6,483.4,839.6z
		 M485.2,845.3c0,0.9-0.3,1.5-0.7,2c-0.5,0.5-1.2,0.7-2,0.7c-0.5,0-1-0.1-1.3-0.4c-0.3-0.3-0.5-0.6-0.5-1.2c0-0.6,0.2-1.1,0.7-1.4
		c0.5-0.3,1.3-0.5,2.4-0.5l1.4-0.1V845.3z"/>
	<path class="st10" d="M507.8,836.3c-0.2,0-0.4,0.1-0.6,0.2c-0.2,0.2-0.2,0.4-0.2,0.7s0.1,0.6,0.2,0.7c0.2,0.2,0.4,0.2,0.6,0.2
		c0.2,0,0.4-0.1,0.6-0.2c0.2-0.2,0.2-0.4,0.2-0.7c0-0.3-0.1-0.5-0.2-0.7C508.2,836.4,508,836.3,507.8,836.3z"/>
	<rect x="507.1" y="839.8" class="st10" width="1.4" height="9.2"/>
	<path class="st10" d="M502.5,817.4c0.3,0,0.6,0,1,0.1l0.2-1.3c-0.3-0.1-0.7-0.1-1.1-0.1c-0.6,0-1.1,0.2-1.6,0.5
		c-0.5,0.3-0.9,0.8-1.2,1.4h-0.1l-0.2-1.7h-1.2v9.2h1.4v-4.9c0-0.9,0.3-1.7,0.8-2.3C501.1,817.7,501.8,817.4,502.5,817.4z"/>
	<path class="st10" d="M790.7,840.9c-0.7,0.8-1,2-1,3.5c0,1.5,0.3,2.7,1,3.5c0.7,0.8,1.6,1.2,2.8,1.2c1.3,0,2.2-0.5,2.9-1.4h0.1
		l0.2,1.2h1.1v-13.1h-1.4v3.8l0,0.6l0.1,0.7h-0.1c-0.7-0.9-1.6-1.4-2.9-1.4C792.4,839.6,791.4,840,790.7,840.9z M795.8,841.6
		c0.4,0.6,0.7,1.5,0.7,2.8v0.3c0,1.2-0.2,2-0.6,2.5c-0.4,0.5-1.1,0.8-2.1,0.8c-0.8,0-1.5-0.3-1.9-0.9c-0.4-0.6-0.6-1.5-0.6-2.7
		c0-1.2,0.2-2.1,0.7-2.7c0.4-0.6,1.1-1,1.9-1C794.7,840.8,795.4,841,795.8,841.6z"/>
	<path class="st10" d="M495.7,844.6c0,1.2-0.2,2.1-0.7,2.6c-0.4,0.5-1.2,0.8-2.1,0.8c-0.7,0-1.3-0.2-1.6-0.6
		c-0.3-0.4-0.5-0.9-0.5-1.7v-6h-1.4v6c0,1.2,0.3,2,0.8,2.6c0.6,0.5,1.4,0.8,2.5,0.8c0.7,0,1.2-0.1,1.7-0.4c0.5-0.2,0.9-0.6,1.2-1
		h0.1l0.2,1.2h1.2v-9.2h-1.4V844.6z"/>
	<polygon class="st10" points="486.1,824.2 480.7,824.2 480.7,813.2 479.2,813.2 479.2,825.5 486.1,825.5 	"/>
	<path class="st10" d="M790.4,825.7c0.7,0,1.2-0.1,1.7-0.4c0.5-0.2,0.9-0.6,1.2-1h0.1l0.2,1.2l1.2,0v-9.2h-1.4v4.8
		c0,1.2-0.2,2.1-0.7,2.6c-0.5,0.5-1.2,0.8-2.1,0.8c-0.7,0-1.3-0.2-1.6-0.6c-0.3-0.4-0.5-0.9-0.5-1.7v-6H787v6c0,1.2,0.3,2,0.8,2.6
		C788.4,825.4,789.3,825.7,790.4,825.7z"/>
	<path class="st10" d="M775.3,825.7c0.6,0,1.2,0,1.6-0.1c0.4-0.1,0.9-0.2,1.4-0.5v-1.2c-1,0.4-2,0.6-2.9,0.6c-0.9,0-1.7-0.3-2.2-0.8
		c-0.5-0.6-0.8-1.4-0.8-2.5h6.4v-0.9c0-1.2-0.3-2.2-1-3c-0.7-0.8-1.6-1.1-2.7-1.1c-1.2,0-2.2,0.4-3,1.3c-0.7,0.9-1.1,2.1-1.1,3.5
		c0,1.5,0.4,2.6,1.2,3.5C772.8,825.3,773.9,825.7,775.3,825.7z M773.1,818c0.4-0.5,1-0.7,1.8-0.7c0.7,0,1.3,0.2,1.7,0.7
		c0.4,0.5,0.6,1.1,0.6,2h-4.8C772.4,819.2,772.7,818.5,773.1,818z"/>
	<rect x="535.3" y="816.3" class="st10" width="1.4" height="9.2"/>
	<path class="st10" d="M470.7,846.8L470.7,846.8l-4-10.2h-2.2V849h1.3v-7.8c0-1.2,0-2.2-0.1-3.1h0.1L470,849h1.2l4.2-10.9h0.1
		c-0.1,1.1-0.1,2.1-0.1,3v7.9l1.4,0v-12.3h-2.1L470.7,846.8z"/>
	<path class="st10" d="M781.2,822.9c0,1.9,0.9,2.8,2.7,2.8c0.2,0,0.5,0,0.8-0.1c0.3,0,0.5-0.1,0.7-0.2v-1.1c-0.1,0-0.3,0.1-0.5,0.1
		c-0.2,0-0.5,0.1-0.7,0.1c-0.5,0-0.8-0.2-1.1-0.4c-0.3-0.3-0.4-0.7-0.4-1.3v-5.4h2.7v-1.1h-2.7v-2.1h-0.8l-0.6,2l-1.3,0.6v0.7h1.3
		V822.9z"/>
	<path class="st10" d="M744.1,863.1c-0.7,0-1.3,0.1-1.8,0.4c-0.5,0.3-0.9,0.7-1.2,1.1H741c-0.4-1-1.4-1.6-2.8-1.6
		c-0.6,0-1.1,0.1-1.6,0.4c-0.5,0.3-0.9,0.6-1.1,1.1h-0.1l-0.2-1.3H734v9.2h1.4l0-4.8c0-1.2,0.2-2.1,0.6-2.6c0.4-0.5,1-0.8,1.9-0.8
		c0.7,0,1.2,0.2,1.5,0.6c0.3,0.4,0.5,0.9,0.5,1.7v6h1.4v-5.2c0-1,0.2-1.8,0.6-2.3c0.4-0.5,1.1-0.7,1.9-0.7c0.7,0,1.1,0.2,1.5,0.6
		c0.3,0.4,0.5,0.9,0.5,1.7v6h1.4v-6c0-1.2-0.3-2-0.8-2.6C745.9,863.3,745.1,863.1,744.1,863.1z"/>
	<path class="st10" d="M812.7,816.1c-0.5,0-1.1,0.1-1.6,0.2c-0.5,0.1-1,0.3-1.5,0.6l0.4,1.1c1-0.5,1.8-0.7,2.6-0.7
		c0.7,0,1.2,0.2,1.5,0.5c0.3,0.3,0.5,0.9,0.5,1.6v0.6l-1.6,0c-3,0.1-4.5,1.1-4.5,2.9c0,0.9,0.3,1.5,0.8,2c0.5,0.5,1.2,0.7,2.2,0.7
		c0.7,0,1.3-0.1,1.7-0.3c0.5-0.2,0.9-0.6,1.4-1.2h0.1l0.3,1.3h1v-6.3c0-1.1-0.3-1.9-0.8-2.3C814.6,816.4,813.8,816.1,812.7,816.1z
		 M814.5,821.8c0,0.9-0.3,1.5-0.7,2c-0.5,0.5-1.2,0.7-2,0.7c-0.5,0-1-0.1-1.3-0.4c-0.3-0.3-0.5-0.6-0.5-1.2c0-0.6,0.2-1.1,0.7-1.4
		c0.5-0.3,1.3-0.5,2.4-0.5l1.4-0.1V821.8z"/>
	<path class="st10" d="M808.9,839.6c-1.3,0-2.4,0.4-3.1,1.3c-0.8,0.8-1.1,2-1.1,3.5c0,1,0.2,1.8,0.5,2.5c0.3,0.7,0.8,1.3,1.5,1.7
		c0.6,0.4,1.4,0.6,2.2,0.6c1.3,0,2.4-0.4,3.1-1.3c0.8-0.8,1.1-2,1.1-3.5c0-1.5-0.4-2.6-1.1-3.5C811.2,840,810.2,839.6,808.9,839.6z
		 M811,847.1c-0.5,0.6-1.2,0.9-2.1,0.9c-0.9,0-1.6-0.3-2.1-0.9c-0.5-0.6-0.7-1.5-0.7-2.7c0-1.2,0.2-2.1,0.7-2.7
		c0.5-0.6,1.2-0.9,2.1-0.9c0.9,0,1.6,0.3,2.1,0.9c0.5,0.6,0.7,1.5,0.7,2.7C811.7,845.5,811.4,846.4,811,847.1z"/>
	<path class="st10" d="M823.2,843.7c-0.8-0.3-1.3-0.5-1.6-0.7c-0.3-0.2-0.5-0.3-0.6-0.5c-0.1-0.2-0.2-0.4-0.2-0.6
		c0-0.4,0.2-0.6,0.5-0.9c0.3-0.2,0.8-0.3,1.5-0.3c0.7,0,1.6,0.2,2.5,0.6l0.5-1.1c-0.9-0.4-1.9-0.6-2.9-0.6c-1.1,0-1.9,0.2-2.5,0.7
		c-0.6,0.4-0.9,1-0.9,1.8c0,0.4,0.1,0.8,0.3,1.1c0.2,0.3,0.4,0.6,0.8,0.8c0.4,0.2,1,0.5,1.8,0.8c0.9,0.3,1.5,0.7,1.8,0.9
		c0.3,0.3,0.5,0.6,0.5,0.9c0,0.5-0.2,0.8-0.6,1.1c-0.4,0.2-1,0.3-1.7,0.3c-0.5,0-1-0.1-1.5-0.2c-0.5-0.1-1-0.3-1.4-0.5v1.3
		c0.7,0.4,1.6,0.6,2.9,0.6c1.2,0,2.1-0.2,2.7-0.7c0.6-0.5,1-1.1,1-2c0-0.6-0.2-1.1-0.6-1.5C825,844.5,824.3,844.1,823.2,843.7z"/>
	<path class="st10" d="M802.1,870.4c-0.3,0-0.6,0.1-0.7,0.3c-0.2,0.2-0.3,0.5-0.3,0.9c0,0.4,0.1,0.7,0.3,0.9
		c0.2,0.2,0.4,0.3,0.7,0.3c0.3,0,0.6-0.1,0.8-0.3c0.2-0.2,0.3-0.5,0.3-0.8c0-0.4-0.1-0.7-0.3-0.9
		C802.7,870.5,802.4,870.4,802.1,870.4z"/>
	<path class="st10" d="M831.8,839.6c-1.2,0-2.2,0.4-3,1.3c-0.7,0.9-1.1,2.1-1.1,3.5c0,1.5,0.4,2.6,1.2,3.5c0.8,0.8,1.9,1.2,3.2,1.2
		c0.6,0,1.2,0,1.6-0.1c0.4-0.1,0.9-0.2,1.4-0.5v-1.2c-1,0.4-2,0.6-2.9,0.6c-0.9,0-1.7-0.3-2.2-0.8c-0.5-0.6-0.8-1.4-0.8-2.5h6.4
		v-0.9c0-1.2-0.3-2.2-1-3C833.9,840,833,839.6,831.8,839.6z M829.3,843.5c0.1-0.9,0.3-1.5,0.8-2c0.4-0.5,1-0.7,1.8-0.7
		c0.7,0,1.3,0.2,1.7,0.7c0.4,0.5,0.6,1.1,0.6,2H829.3z"/>
	<path class="st10" d="M825,816.2l0,0.6l0.1,0.7H825c-0.7-0.9-1.6-1.4-2.9-1.4c-1.2,0-2.1,0.4-2.8,1.3c-0.7,0.8-1,2-1,3.5
		c0,1.5,0.3,2.7,1,3.5c0.7,0.8,1.6,1.2,2.8,1.2c1.3,0,2.3-0.5,2.9-1.4h0.1l0.2,1.2h1.1v-13.1H825V816.2z M825,821.2
		c0,1.2-0.2,2-0.6,2.5c-0.4,0.5-1.1,0.8-2.1,0.8c-0.8,0-1.5-0.3-1.9-0.9c-0.4-0.6-0.6-1.5-0.6-2.7c0-1.2,0.2-2.1,0.7-2.7
		c0.4-0.6,1.1-1,1.9-1c1,0,1.6,0.3,2.1,0.8c0.4,0.6,0.7,1.5,0.7,2.8V821.2z"/>
	<path class="st10" d="M760.8,817.4c0.3,0,0.6,0,1,0.1c0.4,0.1,0.7,0.2,1,0.3l0.4-1.2c-0.3-0.1-0.6-0.2-1-0.3
		c-0.4-0.1-0.9-0.1-1.3-0.1c-1.4,0-2.4,0.4-3.2,1.3c-0.7,0.8-1.1,2-1.1,3.6c0,1.5,0.4,2.7,1.1,3.5c0.7,0.8,1.8,1.2,3.1,1.2
		c0.9,0,1.7-0.2,2.3-0.5V824c-0.8,0.3-1.6,0.5-2.4,0.5c-0.9,0-1.6-0.3-2-0.9c-0.5-0.6-0.7-1.5-0.7-2.6
		C758,818.6,759,817.4,760.8,817.4z"/>
	<path class="st10" d="M848,839.6c-0.7,0-1.3,0.1-1.8,0.4c-0.5,0.3-0.9,0.7-1.2,1.1h-0.1c-0.4-1-1.4-1.6-2.8-1.6
		c-0.6,0-1.1,0.1-1.6,0.4c-0.5,0.3-0.9,0.6-1.1,1h-0.1l-0.2-1.3H838v9.2h1.4v-4.8c0-1.2,0.2-2.1,0.6-2.6c0.4-0.5,1-0.8,1.9-0.8
		c0.7,0,1.2,0.2,1.5,0.6c0.3,0.4,0.5,0.9,0.5,1.7v6h1.4v-5.2c0-1,0.2-1.8,0.6-2.3c0.4-0.5,1.1-0.7,1.9-0.7c0.7,0,1.1,0.2,1.5,0.6
		c0.3,0.4,0.5,0.9,0.5,1.7v6h1.4v-6c0-1.2-0.3-2-0.8-2.6C849.8,839.9,849,839.6,848,839.6z"/>
	<rect x="800.8" y="839.8" class="st10" width="1.4" height="9.2"/>
	<path class="st10" d="M801.5,838.2c0.2,0,0.4-0.1,0.6-0.2c0.2-0.2,0.2-0.4,0.2-0.7c0-0.3-0.1-0.5-0.2-0.7c-0.2-0.2-0.4-0.2-0.6-0.2
		c-0.2,0-0.4,0.1-0.6,0.2c-0.2,0.2-0.2,0.4-0.2,0.7s0.1,0.6,0.2,0.7C801.1,838.1,801.3,838.2,801.5,838.2z"/>
	<path class="st10" d="M768.1,849.2c1.3,0,2.3-0.5,2.9-1.4h0.1l0.2,1.2h1.1v-13.1H771v3.8l0,0.6l0.1,0.7H771
		c-0.7-0.9-1.6-1.4-2.9-1.4c-1.2,0-2.1,0.4-2.8,1.3c-0.7,0.8-1,2-1,3.5c0,1.5,0.3,2.7,1,3.5C766,848.7,766.9,849.2,768.1,849.2z
		 M766.4,841.7c0.4-0.6,1.1-1,1.9-1c1,0,1.6,0.3,2.1,0.8c0.4,0.6,0.7,1.5,0.7,2.8v0.3c0,1.2-0.2,2-0.6,2.5c-0.4,0.5-1.1,0.8-2.1,0.8
		c-0.8,0-1.5-0.3-1.9-0.9c-0.4-0.6-0.7-1.5-0.7-2.7C765.7,843.3,765.9,842.4,766.4,841.7z"/>
	<path class="st10" d="M779.2,863.1c-0.5,0-1.1,0.1-1.6,0.2c-0.5,0.1-1,0.3-1.5,0.6l0.4,1.1c1-0.5,1.8-0.7,2.6-0.7
		c0.7,0,1.2,0.2,1.5,0.5c0.3,0.3,0.5,0.9,0.5,1.6v0.6l-1.6,0c-3,0.1-4.5,1.1-4.5,2.9c0,0.9,0.3,1.5,0.8,2c0.5,0.5,1.2,0.7,2.2,0.7
		c0.7,0,1.3-0.1,1.7-0.3c0.5-0.2,0.9-0.6,1.4-1.2h0.1l0.3,1.3h1v-6.3c0-1.1-0.3-1.9-0.8-2.3C781.1,863.3,780.3,863.1,779.2,863.1z
		 M781,868.8c0,0.9-0.2,1.5-0.7,2c-0.5,0.5-1.2,0.7-2.1,0.7c-0.5,0-1-0.1-1.3-0.4c-0.3-0.3-0.5-0.6-0.5-1.2c0-0.6,0.2-1.1,0.7-1.4
		c0.5-0.3,1.3-0.5,2.4-0.5l1.4-0.1V868.8z"/>
	<path class="st10" d="M854.6,823c0-0.6-0.2-1.1-0.6-1.5c-0.4-0.4-1.1-0.8-2.2-1.2c-0.8-0.3-1.3-0.5-1.6-0.7
		c-0.3-0.2-0.5-0.3-0.6-0.5c-0.1-0.2-0.2-0.4-0.2-0.6c0-0.4,0.2-0.7,0.5-0.9c0.3-0.2,0.8-0.3,1.5-0.3c0.7,0,1.6,0.2,2.5,0.6l0.5-1.1
		c-0.9-0.4-1.9-0.6-2.9-0.6c-1.1,0-1.9,0.2-2.5,0.7c-0.6,0.4-0.9,1-0.9,1.8c0,0.4,0.1,0.8,0.3,1.1c0.2,0.3,0.4,0.6,0.8,0.8
		c0.4,0.2,1,0.5,1.8,0.8c0.9,0.3,1.5,0.7,1.8,0.9c0.3,0.3,0.5,0.6,0.5,0.9c0,0.5-0.2,0.8-0.6,1.1c-0.4,0.2-1,0.3-1.7,0.3
		c-0.5,0-1-0.1-1.5-0.2c-0.5-0.1-1-0.3-1.4-0.5v1.3c0.7,0.4,1.6,0.6,2.9,0.6c1.2,0,2.1-0.2,2.7-0.7
		C854.3,824.5,854.6,823.9,854.6,823z"/>
	<path class="st10" d="M765.4,822.9c0,1.9,0.9,2.8,2.7,2.8c0.2,0,0.5,0,0.8-0.1c0.3,0,0.5-0.1,0.7-0.2v-1.1c-0.1,0-0.3,0.1-0.5,0.1
		c-0.2,0-0.5,0.1-0.7,0.1c-0.5,0-0.8-0.2-1.1-0.4c-0.3-0.3-0.4-0.7-0.4-1.3v-5.4h2.7v-1.1h-2.7v-2.1H766l-0.6,2l-1.3,0.6v0.7h1.3
		V822.9z"/>
	<path class="st10" d="M771.3,868.1c0,1.2-0.2,2.1-0.7,2.6c-0.5,0.5-1.2,0.8-2.1,0.8c-0.7,0-1.3-0.2-1.6-0.6
		c-0.3-0.4-0.5-0.9-0.5-1.7v-6H765v6c0,1.2,0.3,2,0.8,2.6c0.6,0.5,1.4,0.8,2.5,0.8c0.7,0,1.2-0.1,1.7-0.4c0.5-0.2,0.9-0.6,1.2-1h0.1
		l0.2,1.2h1.1v-9.2h-1.4V868.1z"/>
	<path class="st10" d="M802.8,817.5l0.2-1.3c-0.3-0.1-0.7-0.1-1.1-0.1c-0.6,0-1.1,0.2-1.6,0.5c-0.5,0.3-0.9,0.8-1.2,1.4H799
		l-0.2-1.7h-1.2v9.2h1.4v-4.9c0-0.9,0.3-1.7,0.8-2.3c0.5-0.6,1.2-0.9,1.9-0.9C802.1,817.4,802.4,817.4,802.8,817.5z"/>
	<path class="st10" d="M795.3,863.1c-0.7,0-1.3,0.1-1.8,0.4c-0.5,0.3-0.9,0.7-1.2,1.1h-0.1c-0.4-1-1.4-1.6-2.8-1.6
		c-0.6,0-1.1,0.1-1.6,0.4c-0.5,0.3-0.9,0.6-1.1,1.1h-0.1l-0.2-1.3h-1.1v9.2h1.4v-4.8c0-1.2,0.2-2.1,0.6-2.6c0.4-0.5,1-0.8,1.9-0.8
		c0.7,0,1.2,0.2,1.5,0.6c0.3,0.4,0.5,0.9,0.5,1.7v6h1.4v-5.2c0-1,0.2-1.8,0.6-2.3c0.4-0.5,1.1-0.7,1.9-0.7c0.7,0,1.1,0.2,1.5,0.6
		c0.3,0.4,0.5,0.9,0.5,1.7v6h1.4v-6c0-1.2-0.3-2-0.8-2.6C797.1,863.3,796.4,863.1,795.3,863.1z"/>
	<path class="st10" d="M787.8,844.4c0-1.5-0.4-2.6-1.1-3.5c-0.8-0.9-1.8-1.3-3.1-1.3c-1.3,0-2.4,0.4-3.1,1.3c-0.8,0.8-1.1,2-1.1,3.5
		c0,1,0.2,1.8,0.5,2.5c0.3,0.7,0.8,1.3,1.5,1.7c0.6,0.4,1.4,0.6,2.2,0.6c1.3,0,2.4-0.4,3.1-1.3C787.4,847,787.8,845.9,787.8,844.4z
		 M785.6,847.1c-0.5,0.6-1.2,0.9-2.1,0.9c-0.9,0-1.6-0.3-2.1-0.9c-0.5-0.6-0.7-1.5-0.7-2.7c0-1.2,0.2-2.1,0.7-2.7
		c0.5-0.6,1.2-0.9,2.1-0.9c0.9,0,1.6,0.3,2.1,0.9c0.5,0.6,0.7,1.5,0.7,2.7C786.3,845.5,786.1,846.4,785.6,847.1z"/>
	<path class="st10" d="M840.9,824.4c0.7-0.8,1-2,1-3.5c0-1.5-0.3-2.7-1-3.5c-0.7-0.8-1.6-1.3-2.8-1.3c-0.6,0-1.2,0.1-1.6,0.3
		c-0.5,0.2-0.9,0.6-1.3,1.1h-0.1l-0.2-1.3h-1.1v13.4h1.4v-3.8c0-0.5,0-1-0.1-1.5h0.1c0.3,0.5,0.8,0.8,1.2,1c0.5,0.2,1,0.3,1.6,0.3
		C839.2,825.7,840.2,825.3,840.9,824.4z M835.8,823.7c-0.4-0.6-0.7-1.5-0.7-2.8v-0.3c0-1.1,0.2-2,0.7-2.5c0.4-0.5,1.1-0.8,2-0.8
		c0.8,0,1.5,0.3,1.9,0.9c0.5,0.6,0.7,1.5,0.7,2.6c0,1.1-0.2,2-0.7,2.7c-0.5,0.6-1.1,1-1.9,1C836.9,824.5,836.2,824.2,835.8,823.7z"
		/>
	<path class="st10" d="M614,839.6c-1.3,0-2.4,0.4-3.1,1.3c-0.8,0.8-1.1,2-1.1,3.5c0,1,0.2,1.8,0.5,2.5c0.3,0.7,0.8,1.3,1.5,1.7
		c0.6,0.4,1.4,0.6,2.2,0.6c1.3,0,2.4-0.4,3.1-1.3c0.8-0.8,1.1-2,1.1-3.5c0-1.5-0.4-2.6-1.1-3.5C616.3,840,615.3,839.6,614,839.6z
		 M616,847.1c-0.5,0.6-1.2,0.9-2.1,0.9c-0.9,0-1.6-0.3-2.1-0.9c-0.5-0.6-0.7-1.5-0.7-2.7c0-1.2,0.2-2.1,0.7-2.7
		c0.5-0.6,1.2-0.9,2.1-0.9c0.9,0,1.6,0.3,2.1,0.9c0.5,0.6,0.7,1.5,0.7,2.7C616.8,845.5,616.5,846.4,616,847.1z"/>
	<rect x="920.8" y="835.9" class="st10" width="1.4" height="13.1"/>
	<rect x="916.4" y="835.9" class="st10" width="1.4" height="13.1"/>
	<path class="st10" d="M909.7,839.6c-1.3,0-2.4,0.4-3.1,1.3c-0.8,0.8-1.1,2-1.1,3.5c0,1,0.2,1.8,0.5,2.5c0.3,0.7,0.8,1.3,1.5,1.7
		c0.6,0.4,1.4,0.6,2.2,0.6c1.3,0,2.4-0.4,3.1-1.3c0.8-0.8,1.1-2,1.1-3.5c0-1.5-0.4-2.6-1.1-3.5C912.1,840,911,839.6,909.7,839.6z
		 M911.8,847.1c-0.5,0.6-1.2,0.9-2.1,0.9c-0.9,0-1.6-0.3-2.1-0.9c-0.5-0.6-0.7-1.5-0.7-2.7c0-1.2,0.2-2.1,0.7-2.7
		c0.5-0.6,1.2-0.9,2.1-0.9c0.9,0,1.6,0.3,2.1,0.9c0.5,0.6,0.7,1.5,0.7,2.7C912.5,845.5,912.3,846.4,911.8,847.1z"/>
	<path class="st10" d="M916.6,824.4c-0.1,0-0.3,0.1-0.5,0.1c-0.2,0-0.5,0.1-0.7,0.1c-0.5,0-0.8-0.2-1.1-0.4
		c-0.3-0.3-0.4-0.7-0.4-1.3v-5.4h2.7v-1.1h-2.7v-2.1H913l-0.6,2l-1.3,0.6v0.7h1.3v5.5c0,1.9,0.9,2.8,2.7,2.8c0.2,0,0.5,0,0.8-0.1
		c0.3,0,0.5-0.1,0.7-0.2V824.4z"/>
	<rect x="925.1" y="839.8" class="st10" width="1.4" height="9.2"/>
	<path class="st10" d="M932.6,843.7c-0.8-0.3-1.3-0.5-1.6-0.7c-0.3-0.2-0.5-0.3-0.6-0.5c-0.1-0.2-0.2-0.4-0.2-0.6
		c0-0.4,0.2-0.6,0.5-0.9c0.3-0.2,0.8-0.3,1.5-0.3c0.7,0,1.6,0.2,2.5,0.6l0.5-1.1c-0.9-0.4-1.9-0.6-2.9-0.6c-1.1,0-1.9,0.2-2.5,0.7
		c-0.6,0.4-0.9,1-0.9,1.8c0,0.4,0.1,0.8,0.3,1.1c0.2,0.3,0.4,0.6,0.8,0.8c0.4,0.2,1,0.5,1.8,0.8c0.9,0.3,1.5,0.7,1.8,0.9
		c0.3,0.3,0.5,0.6,0.5,0.9c0,0.5-0.2,0.8-0.6,1.1c-0.4,0.2-1,0.3-1.7,0.3c-0.5,0-1-0.1-1.5-0.2c-0.5-0.1-1-0.3-1.4-0.5v1.3
		c0.7,0.4,1.6,0.6,2.9,0.6c1.2,0,2.1-0.2,2.7-0.7c0.6-0.5,1-1.1,1-2c0-0.6-0.2-1.1-0.6-1.5C934.5,844.5,933.7,844.1,932.6,843.7z"/>
	<path class="st10" d="M925.8,836.3c-0.2,0-0.4,0.1-0.6,0.2c-0.2,0.2-0.2,0.4-0.2,0.7s0.1,0.6,0.2,0.7c0.2,0.2,0.4,0.2,0.6,0.2
		c0.2,0,0.4-0.1,0.6-0.2c0.2-0.2,0.2-0.4,0.2-0.7c0-0.3-0.1-0.5-0.2-0.7C926.3,836.4,926.1,836.3,925.8,836.3z"/>
	<path class="st10" d="M875.8,819.5v6h1.4v-6c0-1.2-0.3-2-0.8-2.6c-0.6-0.5-1.4-0.8-2.5-0.8c-0.6,0-1.2,0.1-1.7,0.4
		c-0.5,0.3-0.9,0.6-1.2,1.1h-0.1l-0.2-1.3h-1.1v9.2h1.4v-4.8c0-1.2,0.2-2.1,0.7-2.6c0.4-0.5,1.2-0.8,2.1-0.8c0.7,0,1.3,0.2,1.6,0.6
		C875.6,818.2,875.8,818.8,875.8,819.5z"/>
	<rect x="903.6" y="812.4" class="st10" width="1.4" height="13.1"/>
	<path class="st10" d="M876.8,840.1c-0.5,0.3-0.9,0.8-1.2,1.4h-0.1l-0.2-1.7h-1.2v9.2h1.4V844c0-0.9,0.3-1.7,0.8-2.3
		c0.5-0.6,1.2-0.9,1.9-0.9c0.3,0,0.6,0,1,0.1l0.2-1.3c-0.3-0.1-0.7-0.1-1.1-0.1C877.8,839.6,877.3,839.8,876.8,840.1z"/>
	<path class="st10" d="M858.3,839.6c-0.6,0-1.2,0.1-1.6,0.3c-0.5,0.2-0.9,0.6-1.3,1.1h-0.1l-0.2-1.3H854v13.4h1.4v-3.8
		c0-0.5,0-1-0.1-1.5h0.1c0.3,0.5,0.8,0.8,1.2,1c0.5,0.2,1,0.3,1.6,0.3c1.2,0,2.1-0.4,2.8-1.3c0.7-0.8,1-2,1-3.5c0-1.5-0.3-2.7-1-3.5
		C860.4,840,859.5,839.6,858.3,839.6z M860,847c-0.5,0.6-1.1,1-1.9,1c-1,0-1.6-0.3-2.1-0.8c-0.4-0.6-0.7-1.5-0.7-2.8v-0.3
		c0-1.1,0.2-2,0.7-2.5c0.4-0.5,1.1-0.8,2-0.8c0.8,0,1.5,0.3,1.9,0.9c0.4,0.6,0.7,1.5,0.7,2.6C860.7,845.5,860.4,846.4,860,847z"/>
	<path class="st10" d="M860.6,817.4c0.3,0,0.6,0,1,0.1c0.4,0.1,0.7,0.2,1,0.3l0.4-1.2c-0.3-0.1-0.6-0.2-1-0.3
		c-0.4-0.1-0.9-0.1-1.3-0.1c-1.4,0-2.4,0.4-3.2,1.3c-0.7,0.8-1.1,2-1.1,3.6c0,1.5,0.4,2.7,1.1,3.5c0.7,0.8,1.8,1.2,3.1,1.2
		c0.9,0,1.7-0.2,2.3-0.5V824c-0.8,0.3-1.6,0.5-2.4,0.5c-0.9,0-1.6-0.3-2-0.9c-0.5-0.6-0.7-1.5-0.7-2.6
		C857.8,818.6,858.8,817.4,860.6,817.4z"/>
	<path class="st10" d="M868.1,839.6c-1.2,0-2.2,0.4-2.9,1.3c-0.7,0.9-1.1,2.1-1.1,3.5c0,1.5,0.4,2.6,1.2,3.5
		c0.8,0.8,1.9,1.2,3.2,1.2c0.6,0,1.2,0,1.6-0.1c0.4-0.1,0.9-0.2,1.4-0.5v-1.2c-1,0.4-2,0.6-2.9,0.6c-0.9,0-1.7-0.3-2.2-0.8
		c-0.5-0.6-0.8-1.4-0.8-2.5h6.4v-0.9c0-1.2-0.3-2.2-1-3C870.2,840,869.2,839.6,868.1,839.6z M865.5,843.5c0.1-0.9,0.3-1.5,0.8-2
		c0.4-0.5,1-0.7,1.8-0.7c0.7,0,1.3,0.2,1.7,0.7c0.4,0.5,0.6,1.1,0.6,2H865.5z"/>
	<path class="st10" d="M881.2,847c-0.1,0.5-0.2,1.2-0.4,2.1c-0.2,0.9-0.3,1.6-0.5,2.2h1c0.3-0.6,0.6-1.3,0.9-2.1
		c0.3-0.7,0.5-1.4,0.6-2l-0.1-0.2H881.2z"/>
	<path class="st10" d="M900,839.6c-0.7,0-1.3,0.1-1.8,0.4c-0.5,0.3-0.9,0.7-1.2,1.1h-0.1c-0.4-1-1.4-1.6-2.8-1.6
		c-0.6,0-1.1,0.1-1.6,0.4c-0.5,0.3-0.9,0.6-1.1,1h-0.1l-0.2-1.3H890v9.2h1.4v-4.8c0-1.2,0.2-2.1,0.6-2.6c0.4-0.5,1.1-0.8,1.9-0.8
		c0.7,0,1.2,0.2,1.5,0.6c0.3,0.4,0.5,0.9,0.5,1.7v6h1.4v-5.2c0-1,0.2-1.8,0.6-2.3c0.4-0.5,1.1-0.7,1.9-0.7c0.7,0,1.1,0.2,1.5,0.6
		c0.3,0.4,0.5,0.9,0.5,1.7v6h1.4v-6c0-1.2-0.3-2-0.8-2.6C901.8,839.9,901,839.6,900,839.6z"/>
	<path class="st10" d="M883.1,816.1c-1.1,0-2,0.3-2.6,0.8c-0.6,0.5-0.9,1.3-0.9,2.3c0,0.6,0.2,1.1,0.5,1.6c0.3,0.5,0.7,0.8,1.2,1
		c-0.4,0.2-0.7,0.5-0.8,0.7c-0.2,0.3-0.3,0.5-0.3,0.9c0,0.3,0.1,0.6,0.2,0.8c0.2,0.2,0.4,0.4,0.6,0.5c-0.6,0.1-1.2,0.4-1.5,0.8
		c-0.4,0.4-0.5,0.9-0.5,1.5c0,0.8,0.3,1.5,1,1.9c0.7,0.4,1.6,0.7,2.8,0.7c1.6,0,2.8-0.3,3.6-0.8c0.8-0.5,1.2-1.3,1.2-2.3
		c0-0.8-0.3-1.4-0.8-1.8c-0.5-0.4-1.3-0.6-2.3-0.6h-1.6c-0.5,0-0.9-0.1-1.1-0.2c-0.2-0.1-0.3-0.3-0.3-0.6c0-0.5,0.3-0.9,0.9-1.2
		c0.2,0,0.5,0.1,0.8,0.1c1.1,0,1.9-0.3,2.5-0.8c0.6-0.5,0.9-1.3,0.9-2.2c0-0.4-0.1-0.8-0.2-1.1c-0.1-0.3-0.3-0.6-0.4-0.8l1.7-0.2
		v-0.9h-3.2C884,816.2,883.6,816.1,883.1,816.1z M882.2,825.3h1.7c0.9,0,1.4,0.1,1.7,0.3c0.3,0.2,0.5,0.5,0.5,1
		c0,0.6-0.3,1.1-0.8,1.4c-0.6,0.3-1.4,0.5-2.6,0.5c-0.8,0-1.4-0.1-1.8-0.4c-0.4-0.3-0.6-0.6-0.6-1.1c0-0.6,0.2-1,0.5-1.3
		C881.1,825.5,881.6,825.3,882.2,825.3z M885.1,819.2c0,1.3-0.7,2-2,2c-0.7,0-1.2-0.2-1.5-0.5c-0.4-0.3-0.5-0.8-0.5-1.5
		c0-0.7,0.2-1.2,0.5-1.6c0.4-0.3,0.9-0.5,1.5-0.5C884.4,817.1,885.1,817.8,885.1,819.2z"/>
	<path class="st10" d="M919.2,823.5c-0.3,0-0.6,0.1-0.7,0.3c-0.2,0.2-0.3,0.5-0.3,0.9c0,0.4,0.1,0.7,0.3,0.9
		c0.2,0.2,0.4,0.3,0.7,0.3c0.3,0,0.6-0.1,0.8-0.3c0.2-0.2,0.3-0.5,0.3-0.8c0-0.4-0.1-0.7-0.3-0.9
		C919.8,823.6,919.6,823.5,919.2,823.5z"/>
	<rect x="645" y="816.3" class="st10" width="1.4" height="9.2"/>
	<path class="st10" d="M642.1,849.2c0.6,0,1.2,0,1.6-0.1c0.4-0.1,0.9-0.2,1.4-0.5v-1.2c-1,0.4-2,0.6-2.9,0.6c-0.9,0-1.7-0.3-2.2-0.8
		c-0.5-0.6-0.8-1.4-0.8-2.5h6.4v-0.9c0-1.2-0.3-2.3-1-3c-0.7-0.8-1.6-1.1-2.7-1.1c-1.2,0-2.2,0.4-2.9,1.3c-0.7,0.9-1.1,2.1-1.1,3.5
		c0,1.5,0.4,2.6,1.2,3.5C639.7,848.7,640.8,849.2,642.1,849.2z M640,841.5c0.4-0.5,1-0.7,1.8-0.7c0.7,0,1.3,0.2,1.7,0.7
		c0.4,0.5,0.6,1.1,0.6,2h-4.8C639.3,842.6,639.6,842,640,841.5z"/>
	<path class="st10" d="M645,863.9c-0.6-0.5-1.4-0.8-2.5-0.8c-0.6,0-1.2,0.1-1.7,0.4c-0.5,0.2-0.9,0.6-1.2,1.1h-0.1l-0.2-1.3l-1.1,0
		v9.2h1.4v-4.8c0-1.2,0.2-2.1,0.7-2.6c0.4-0.5,1.2-0.8,2.1-0.8c0.7,0,1.3,0.2,1.6,0.6c0.3,0.4,0.5,0.9,0.5,1.7v6h1.4l0-6
		C645.8,865.3,645.5,864.4,645,863.9z"/>
	<path class="st10" d="M640.8,824.2c-0.4,0.2-1,0.3-1.7,0.3c-0.5,0-1-0.1-1.5-0.2c-0.5-0.1-1-0.3-1.4-0.5v1.3
		c0.7,0.4,1.6,0.6,2.9,0.6c1.2,0,2.1-0.2,2.7-0.7c0.6-0.5,1-1.1,1-2c0-0.6-0.2-1.1-0.6-1.5c-0.4-0.4-1.1-0.8-2.2-1.2
		c-0.8-0.3-1.3-0.5-1.6-0.7c-0.3-0.2-0.5-0.3-0.6-0.5c-0.1-0.2-0.2-0.4-0.2-0.6c0-0.4,0.2-0.7,0.5-0.9c0.3-0.2,0.8-0.3,1.5-0.3
		c0.8,0,1.6,0.2,2.5,0.6l0.5-1.1c-0.9-0.4-1.9-0.6-2.9-0.6c-1.1,0-1.9,0.2-2.5,0.7c-0.6,0.4-0.9,1-0.9,1.8c0,0.4,0.1,0.8,0.3,1.1
		c0.2,0.3,0.4,0.6,0.8,0.8c0.4,0.2,1,0.5,1.8,0.8c0.9,0.3,1.5,0.7,1.8,0.9c0.3,0.3,0.5,0.6,0.5,0.9
		C641.4,823.6,641.2,823.9,640.8,824.2z"/>
	<path class="st10" d="M653,824.5c-0.2,0-0.5,0.1-0.7,0.1c-0.5,0-0.8-0.2-1.1-0.4c-0.3-0.3-0.4-0.7-0.4-1.3v-5.4h2.7v-1.1h-2.7
		l0-2.1H650l-0.6,2l-1.3,0.6v0.7h1.3l0,5.5c0,1.9,0.9,2.8,2.7,2.8c0.2,0,0.5,0,0.8-0.1c0.3,0,0.5-0.1,0.7-0.2l0-1.1
		C653.5,824.4,653.3,824.4,653,824.5z"/>
	<path class="st10" d="M645.7,812.9c-0.2,0-0.4,0.1-0.6,0.2c-0.2,0.2-0.2,0.4-0.2,0.7c0,0.3,0.1,0.6,0.2,0.7
		c0.2,0.2,0.4,0.2,0.6,0.2c0.2,0,0.4-0.1,0.6-0.2c0.2-0.2,0.2-0.4,0.2-0.7c0-0.3-0.1-0.5-0.2-0.7
		C646.1,812.9,645.9,812.9,645.7,812.9z"/>
	<path class="st10" d="M650.5,840.1c-0.5,0.3-0.9,0.8-1.2,1.4h-0.1l-0.2-1.7h-1.2v9.2h1.4V844c0-0.9,0.3-1.7,0.8-2.3
		c0.5-0.6,1.2-0.9,1.9-0.9c0.3,0,0.6,0,1,0.1l0.2-1.3c-0.3-0.1-0.7-0.1-1.1-0.1C651.5,839.6,651,839.8,650.5,840.1z"/>
	<path class="st10" d="M632,839.6c-0.6,0-1.2,0.1-1.6,0.3c-0.5,0.2-0.9,0.6-1.3,1.1H629l-0.2-1.3h-1.1v13.4h1.4v-3.8
		c0-0.5,0-1-0.1-1.5h0.1c0.3,0.5,0.8,0.8,1.3,1c0.5,0.2,1,0.3,1.6,0.3c1.2,0,2.1-0.4,2.8-1.3c0.7-0.8,1-2,1-3.5c0-1.5-0.3-2.7-1-3.5
		C634.1,840,633.2,839.6,632,839.6z M633.7,847c-0.4,0.6-1.1,1-1.9,1c-1,0-1.6-0.3-2.1-0.8c-0.4-0.6-0.6-1.5-0.6-2.8v-0.3
		c0-1.1,0.2-2,0.6-2.5c0.4-0.5,1.1-0.8,2-0.8c0.8,0,1.5,0.3,1.9,0.9c0.4,0.6,0.7,1.5,0.7,2.6C634.4,845.5,634.1,846.4,633.7,847z"/>
	<path class="st10" d="M648.6,870.5c-0.1,0.5-0.2,1.2-0.4,2.1c-0.2,0.9-0.3,1.6-0.5,2.2h1.1c0.3-0.6,0.6-1.3,0.9-2.1
		c0.3-0.7,0.5-1.4,0.6-2l-0.1-0.2H648.6z"/>
	<rect x="633.7" y="863.2" class="st10" width="1.4" height="9.2"/>
	<path class="st10" d="M619.5,859.8c-0.2,0-0.4,0.1-0.6,0.2c-0.2,0.2-0.2,0.4-0.2,0.7c0,0.3,0.1,0.5,0.2,0.7
		c0.2,0.2,0.4,0.2,0.6,0.2c0.2,0,0.4-0.1,0.6-0.2c0.2-0.2,0.2-0.4,0.2-0.7c0-0.3-0.1-0.5-0.2-0.7
		C619.9,859.9,619.7,859.8,619.5,859.8z"/>
	<path class="st10" d="M622,844c0-0.9,0.3-1.7,0.8-2.3c0.5-0.6,1.2-0.9,1.9-0.9c0.3,0,0.6,0,1,0.1l0.2-1.3c-0.3-0.1-0.7-0.1-1.1-0.1
		c-0.6,0-1.1,0.2-1.6,0.5c-0.5,0.3-0.9,0.8-1.2,1.4H622l-0.2-1.7h-1.2v9.2h1.4V844z"/>
	<rect x="618.8" y="863.2" class="st10" width="1.4" height="9.2"/>
	<path class="st10" d="M634.4,859.8c-0.2,0-0.4,0.1-0.6,0.2c-0.2,0.2-0.2,0.4-0.2,0.7c0,0.3,0.1,0.5,0.2,0.7
		c0.2,0.2,0.4,0.2,0.6,0.2c0.2,0,0.4-0.1,0.6-0.2c0.2-0.2,0.2-0.4,0.2-0.7c0-0.3-0.1-0.5-0.2-0.7
		C634.9,859.9,634.7,859.8,634.4,859.8z"/>
	<path class="st10" d="M622.8,820.9c0-1.5-0.4-2.6-1.1-3.5c-0.8-0.9-1.8-1.3-3.1-1.3c-1.3,0-2.4,0.4-3.1,1.3c-0.8,0.8-1.1,2-1.1,3.5
		c0,1,0.2,1.8,0.5,2.5c0.3,0.7,0.8,1.3,1.5,1.7c0.6,0.4,1.4,0.6,2.2,0.6c1.3,0,2.4-0.4,3.1-1.3C622.4,823.6,622.8,822.4,622.8,820.9
		z M620.6,823.6c-0.5,0.6-1.2,0.9-2.1,0.9c-0.9,0-1.6-0.3-2.1-0.9c-0.5-0.6-0.7-1.5-0.7-2.7c0-1.2,0.2-2.1,0.7-2.7
		c0.5-0.6,1.2-0.9,2.1-0.9c0.9,0,1.6,0.3,2.1,0.9c0.5,0.6,0.7,1.5,0.7,2.7C621.4,822.1,621.1,823,620.6,823.6z"/>
	<path class="st10" d="M660.9,863.1c-1.2,0-2.2,0.4-2.9,1.3c-0.7,0.9-1.1,2.1-1.1,3.5c0,1.5,0.4,2.6,1.2,3.5
		c0.8,0.8,1.9,1.2,3.2,1.2c0.6,0,1.2,0,1.6-0.1c0.4-0.1,0.9-0.2,1.4-0.5v-1.2c-1,0.4-2,0.6-2.9,0.6c-0.9,0-1.7-0.3-2.2-0.8
		c-0.5-0.6-0.8-1.4-0.8-2.5h6.4v-0.9c0-1.2-0.3-2.2-1-3C663,863.4,662.1,863.1,660.9,863.1z M658.4,867c0.1-0.8,0.3-1.5,0.8-2
		c0.4-0.5,1-0.7,1.8-0.7c0.7,0,1.3,0.2,1.7,0.7c0.4,0.5,0.6,1.1,0.6,2H658.4z"/>
	<path class="st10" d="M626.2,871.5c-0.5,0-0.8-0.2-1.1-0.4c-0.3-0.3-0.4-0.7-0.4-1.3v-5.4h2.7v-1.1h-2.7v-2.1h-0.8l-0.6,2l-1.3,0.6
		v0.7h1.3v5.5c0,1.9,0.9,2.8,2.7,2.8c0.2,0,0.5,0,0.8-0.1c0.3-0.1,0.5-0.1,0.7-0.2v-1.1c-0.1,0-0.3,0.1-0.5,0.1
		C626.6,871.5,626.4,871.5,626.2,871.5z"/>
	<path class="st10" d="M630.4,817.5l0.2-1.3c-0.3-0.1-0.7-0.1-1.1-0.1c-0.6,0-1.1,0.2-1.6,0.5c-0.5,0.3-0.9,0.8-1.2,1.4h-0.1
		l-0.2-1.7h-1.2v9.2h1.4v-4.9c0-0.9,0.3-1.7,0.8-2.3c0.5-0.6,1.2-0.9,1.9-0.9C629.6,817.4,630,817.4,630.4,817.5z"/>
	<path class="st10" d="M720.4,871.5c-0.5,0-0.8-0.2-1.1-0.4c-0.3-0.3-0.4-0.7-0.4-1.3v-5.4h2.7v-1.1h-2.7v-2.1h-0.8l-0.6,2l-1.3,0.6
		l0,0.7h1.3v5.5c0,1.9,0.9,2.8,2.7,2.8c0.2,0,0.5,0,0.8-0.1c0.3-0.1,0.5-0.1,0.7-0.2v-1.1c-0.1,0-0.3,0.1-0.5,0.1
		C720.8,871.5,720.6,871.5,720.4,871.5z"/>
	<path class="st10" d="M729.7,868.1c0,1.2-0.2,2.1-0.7,2.6c-0.4,0.5-1.2,0.8-2.1,0.8c-0.7,0-1.3-0.2-1.6-0.6
		c-0.3-0.4-0.5-0.9-0.5-1.7v-6l-1.4,0v6c0,1.2,0.3,2,0.8,2.6c0.6,0.5,1.4,0.8,2.5,0.8c0.7,0,1.2-0.1,1.7-0.4c0.5-0.2,0.9-0.6,1.2-1
		h0.1l0.2,1.2h1.2v-9.2h-1.4V868.1z"/>
	<rect x="724.1" y="835.9" class="st10" width="1.4" height="13.1"/>
	<path class="st10" d="M758.7,839.6c-1.2,0-2.2,0.4-3,1.3c-0.7,0.9-1.1,2.1-1.1,3.5c0,1.5,0.4,2.6,1.2,3.5c0.8,0.8,1.9,1.2,3.2,1.2
		c0.6,0,1.2,0,1.6-0.1c0.4-0.1,0.9-0.2,1.4-0.5v-1.2c-1,0.4-2,0.6-2.9,0.6c-0.9,0-1.7-0.3-2.2-0.8c-0.5-0.6-0.8-1.4-0.8-2.5h6.4
		v-0.9c0-1.2-0.3-2.2-1-3C760.7,840,759.8,839.6,758.7,839.6z M756.1,843.5c0.1-0.9,0.3-1.5,0.8-2c0.4-0.5,1-0.7,1.8-0.7
		c0.7,0,1.3,0.2,1.7,0.7c0.4,0.5,0.6,1.1,0.6,2H756.1z"/>
	<path class="st10" d="M726.2,820.9c0-1.5-0.4-2.6-1.1-3.5c-0.8-0.9-1.8-1.3-3.1-1.3c-1.3,0-2.4,0.4-3.1,1.3c-0.8,0.8-1.1,2-1.1,3.5
		c0,1,0.2,1.8,0.5,2.5c0.4,0.7,0.8,1.3,1.5,1.7c0.6,0.4,1.4,0.6,2.2,0.6c1.3,0,2.4-0.4,3.1-1.3C725.8,823.6,726.2,822.4,726.2,820.9
		z M724,823.6c-0.5,0.6-1.2,0.9-2.1,0.9c-0.9,0-1.6-0.3-2.1-0.9c-0.5-0.6-0.7-1.5-0.7-2.7c0-1.2,0.2-2.1,0.7-2.7
		c0.5-0.6,1.2-0.9,2.1-0.9c0.9,0,1.6,0.3,2.1,0.9c0.5,0.6,0.7,1.5,0.7,2.7C724.7,822.1,724.5,823,724,823.6z"/>
	<path class="st10" d="M663,839.6c-1.2,0-2.2,0.4-3,1.3c-0.7,0.9-1.1,2.1-1.1,3.5c0,1.5,0.4,2.6,1.2,3.5c0.8,0.8,1.9,1.2,3.2,1.2
		c0.6,0,1.2,0,1.6-0.1c0.4-0.1,0.9-0.2,1.4-0.5v-1.2c-1,0.4-2,0.6-2.9,0.6c-0.9,0-1.7-0.3-2.2-0.8c-0.5-0.6-0.8-1.4-0.8-2.5h6.4
		v-0.9c0-1.2-0.3-2.2-1-3C665,840,664.1,839.6,663,839.6z M660.4,843.5c0.1-0.9,0.3-1.5,0.8-2c0.4-0.5,1-0.7,1.8-0.7
		c0.7,0,1.3,0.2,1.7,0.7c0.4,0.5,0.6,1.1,0.6,2H660.4z"/>
	<path class="st10" d="M760.9,864.5L760.9,864.5c-0.8-1-1.7-1.4-3-1.4c-1.2,0-2.1,0.4-2.8,1.3c-0.7,0.8-1,2-1,3.5
		c0,1.5,0.3,2.7,1,3.5c0.7,0.8,1.6,1.3,2.8,1.3c1.3,0,2.3-0.5,2.9-1.4h0.1c-0.1,0.4-0.1,0.9-0.1,1.4v3.9h1.4v-13.4h-1.1L760.9,864.5
		z M760.8,868.2c0,1.2-0.3,2-0.7,2.5c-0.4,0.5-1.1,0.7-2,0.7c-0.8,0-1.5-0.3-1.9-0.9c-0.4-0.6-0.6-1.5-0.6-2.7
		c0-1.2,0.2-2.1,0.7-2.7c0.4-0.6,1.1-1,1.9-1c0.9,0,1.6,0.3,2.1,0.9c0.4,0.6,0.7,1.5,0.7,2.8V868.2z"/>
	<path class="st10" d="M750.1,843.7c-0.8-0.3-1.3-0.5-1.6-0.7c-0.3-0.2-0.5-0.3-0.6-0.5c-0.1-0.2-0.2-0.4-0.2-0.6
		c0-0.4,0.2-0.6,0.5-0.9c0.3-0.2,0.8-0.3,1.5-0.3c0.8,0,1.6,0.2,2.5,0.6l0.5-1.1c-0.9-0.4-1.9-0.6-2.9-0.6c-1.1,0-1.9,0.2-2.5,0.7
		c-0.6,0.4-0.9,1-0.9,1.8c0,0.4,0.1,0.8,0.3,1.1c0.2,0.3,0.4,0.6,0.8,0.8c0.4,0.2,1,0.5,1.8,0.8c0.9,0.3,1.5,0.7,1.8,0.9
		c0.3,0.3,0.5,0.6,0.5,0.9c0,0.5-0.2,0.8-0.6,1.1c-0.4,0.2-1,0.3-1.7,0.3c-0.5,0-1-0.1-1.5-0.2c-0.5-0.1-1-0.3-1.4-0.5v1.3
		c0.7,0.4,1.6,0.6,2.9,0.6c1.2,0,2.1-0.2,2.7-0.7c0.6-0.5,1-1.1,1-2c0-0.6-0.2-1.1-0.6-1.5C751.9,844.5,751.1,844.1,750.1,843.7z"/>
	<path class="st10" d="M754.3,823.8c-1,0.4-2,0.6-2.9,0.6c-0.9,0-1.7-0.3-2.2-0.8c-0.5-0.6-0.8-1.4-0.8-2.5h6.4v-0.9
		c0-1.2-0.3-2.2-1-3c-0.7-0.8-1.6-1.1-2.7-1.1c-1.2,0-2.2,0.4-3,1.3c-0.7,0.9-1.1,2.1-1.1,3.5c0,1.5,0.4,2.6,1.2,3.5
		c0.8,0.8,1.9,1.2,3.2,1.2c0.6,0,1.2,0,1.6-0.1c0.4-0.1,0.9-0.2,1.4-0.5V823.8z M749.2,818c0.4-0.5,1-0.7,1.8-0.7
		c0.7,0,1.3,0.2,1.7,0.7c0.4,0.5,0.6,1.1,0.6,2h-4.8C748.5,819.2,748.7,818.5,749.2,818z"/>
	<path class="st10" d="M736.8,848.8c0.5-0.2,0.9-0.6,1.4-1.2h0.1l0.3,1.3h1v-6.3c0-1.1-0.3-1.9-0.8-2.3c-0.5-0.5-1.3-0.7-2.4-0.7
		c-0.5,0-1.1,0.1-1.6,0.2c-0.5,0.1-1,0.3-1.5,0.6l0.4,1.1c1-0.5,1.8-0.7,2.6-0.7c0.7,0,1.2,0.2,1.5,0.5c0.3,0.3,0.5,0.9,0.5,1.6v0.6
		l-1.6,0.1c-3,0.1-4.5,1.1-4.5,2.9c0,0.9,0.3,1.5,0.8,2c0.5,0.5,1.2,0.7,2.2,0.7C735.8,849.2,736.3,849.1,736.8,848.8z M733.6,846.5
		c0-0.6,0.2-1.1,0.7-1.4c0.5-0.3,1.3-0.5,2.4-0.5l1.4-0.1v0.8c0,0.9-0.3,1.5-0.7,2c-0.5,0.5-1.2,0.7-2,0.7c-0.5,0-1-0.1-1.3-0.4
		C733.8,847.3,733.6,847,733.6,846.5z"/>
	<path class="st10" d="M673.2,840.9c0.3,0,0.6,0,1,0.1l0.2-1.3c-0.3-0.1-0.7-0.1-1.1-0.1c-0.6,0-1.1,0.2-1.6,0.5
		c-0.5,0.3-0.9,0.8-1.2,1.4h-0.1l-0.2-1.7h-1.2v9.2h1.4V844c0-0.9,0.3-1.7,0.8-2.3C671.8,841.2,672.5,840.9,673.2,840.9z"/>
	<path class="st10" d="M681.2,847.7l0.3,1.3h1v-6.3c0-1.1-0.3-1.9-0.8-2.3c-0.5-0.5-1.3-0.7-2.4-0.7c-0.5,0-1.1,0.1-1.6,0.2
		c-0.5,0.1-1,0.3-1.5,0.6l0.4,1.1c1-0.5,1.8-0.7,2.6-0.7c0.7,0,1.2,0.2,1.5,0.5c0.3,0.3,0.5,0.9,0.5,1.6v0.6l-1.6,0.1
		c-3,0.1-4.5,1.1-4.5,2.9c0,0.9,0.3,1.5,0.8,2c0.5,0.5,1.2,0.7,2.2,0.7c0.7,0,1.3-0.1,1.7-0.3C680.2,848.6,680.7,848.2,681.2,847.7
		L681.2,847.7z M681.1,845.3c0,0.9-0.2,1.5-0.7,2c-0.5,0.5-1.2,0.7-2,0.7c-0.5,0-1-0.1-1.3-0.4c-0.3-0.3-0.5-0.6-0.5-1.2
		c0-0.6,0.2-1.1,0.7-1.4c0.5-0.3,1.3-0.5,2.4-0.5l1.4-0.1V845.3z"/>
	<path class="st10" d="M675,863.1c-1.2,0-2.2,0.4-3,1.3c-0.7,0.9-1.1,2.1-1.1,3.5c0,1.5,0.4,2.6,1.2,3.5c0.8,0.8,1.9,1.2,3.2,1.2
		c0.6,0,1.2,0,1.6-0.1c0.4-0.1,0.9-0.2,1.4-0.5v-1.2c-1,0.4-2,0.6-2.9,0.6c-0.9,0-1.7-0.3-2.2-0.8c-0.5-0.6-0.8-1.4-0.8-2.5h6.4
		v-0.9c0-1.2-0.3-2.2-1-3C677,863.4,676.1,863.1,675,863.1z M672.4,867c0.1-0.8,0.3-1.5,0.8-2c0.4-0.5,1-0.7,1.8-0.7
		c0.7,0,1.3,0.2,1.7,0.7c0.4,0.5,0.6,1.1,0.6,2H672.4z"/>
	<rect x="667.1" y="859.4" class="st10" width="1.4" height="13.1"/>
	<path class="st10" d="M691.1,863.1c-0.7,0-1.3,0.1-1.8,0.4c-0.5,0.3-0.9,0.7-1.2,1.1h-0.1c-0.4-1-1.4-1.6-2.8-1.6
		c-0.6,0-1.1,0.1-1.6,0.4c-0.5,0.3-0.9,0.6-1.1,1.1h-0.1l-0.2-1.3h-1.1v9.2h1.4v-4.8c0-1.2,0.2-2.1,0.6-2.6c0.4-0.5,1-0.8,1.9-0.8
		c0.7,0,1.2,0.2,1.5,0.6c0.3,0.4,0.5,0.9,0.5,1.7v6h1.4l0-5.2c0-1,0.2-1.8,0.6-2.3c0.4-0.5,1.1-0.7,1.9-0.7c0.7,0,1.1,0.2,1.5,0.6
		c0.3,0.4,0.5,0.9,0.5,1.6v6h1.4v-6c0-1.2-0.3-2-0.8-2.6C692.9,863.3,692.2,863.1,691.1,863.1z"/>
	<path class="st10" d="M700.7,863.1c-1.2,0-2.2,0.4-2.9,1.3c-0.7,0.9-1.1,2.1-1.1,3.5c0,1.5,0.4,2.6,1.2,3.5
		c0.8,0.8,1.9,1.2,3.2,1.2c0.6,0,1.2,0,1.6-0.1c0.4-0.1,0.9-0.2,1.4-0.5v-1.2c-1,0.4-2,0.6-2.9,0.6c-0.9,0-1.7-0.3-2.2-0.8
		c-0.5-0.6-0.8-1.4-0.8-2.5h6.4v-0.9c0-1.2-0.3-2.2-1-3C702.7,863.4,701.8,863.1,700.7,863.1z M698.1,867c0.1-0.8,0.3-1.5,0.8-2
		c0.4-0.5,1-0.7,1.8-0.7c0.7,0,1.3,0.2,1.7,0.7c0.4,0.5,0.6,1.1,0.6,2H698.1z"/>
	<path class="st10" d="M698.8,825.6c0.3,0,0.5-0.1,0.7-0.2v-1.1c-0.1,0-0.3,0.1-0.5,0.1c-0.2,0-0.5,0.1-0.7,0.1
		c-0.5,0-0.8-0.2-1.1-0.4c-0.3-0.3-0.4-0.7-0.4-1.3v-5.4h2.7v-1.1h-2.7v-2.1h-0.8l-0.6,2l-1.3,0.6v0.7h1.3v5.5
		c0,1.9,0.9,2.8,2.7,2.8C698.2,825.7,698.5,825.7,698.8,825.6z"/>
	<path class="st10" d="M711.2,863.1c-0.6,0-1.2,0.1-1.7,0.4c-0.5,0.2-0.9,0.6-1.2,1.1h-0.1l-0.2-1.3h-1.1v9.2h1.4v-4.8
		c0-1.2,0.2-2.1,0.7-2.6c0.4-0.5,1.2-0.8,2.1-0.8c0.7,0,1.3,0.2,1.6,0.6c0.3,0.4,0.5,0.9,0.5,1.7v6h1.4v-6c0-1.2-0.3-2-0.8-2.6
		C713.1,863.3,712.3,863.1,711.2,863.1z"/>
	<g>
		<path class="st20" d="M779.6,179.3c-21.9,6.2-111.5,39.1-131.2,49.3c-16.7,8.6-80.8,37.8-56.6,63.1
			c12.8,13.4,90.8,114.7,107.6,117.4c24.8,4.1,69.7-25.5,91.2-39.1c10.7-6.8,25.6-19.5,38.3-15.5c2,0.6,21.7,5.6,19.1,2.3
			c-16.6-21.3-6.3-16.1,12.5-33.6c2.3-2.1-15.1-93.9-18.3-106.1C831.9,178.5,841.3,161.8,779.6,179.3z"/>
		<g>
			<path class="st10" d="M711,274.1c-0.9-4.3-1.9-7.3-2.9-8.9c-0.3-0.5-0.8-1.2-1.5-2.2c-2.5-1.8-4.3-2.3-5.5-1.6
				c-0.2,0.1-1.1-0.3-2.7-1.1l-2.4,1.5c-2.2,1.3-4.3,3.7-6.2,6.9l-1.8,4.6c-1,5-1,10.2-0.1,15.5c0,0.1,0,0.3,0,0.4
				c-0.5-1.3-1-2.7-1.4-4.1c-3.8-10.4-5.8-16.7-5.9-18.8c0.1-1.7,0.1-2.6,0-2.8c0.1-1.1,0.3-2.3,0.5-3.5c1.1-4.2,1.3-6.7,0.8-7.6
				l-1.3-2.1c-0.1,0.1-0.5,0-1-0.3l-1.6,1c-0.5,1.1-0.9,2.6-1.2,4.6c-1,4.7-1.6,7.1-1.7,7.2c-0.7,3.8-1.6,7.2-2.5,10.2
				c-3.5,13.9-5.9,21.4-7.3,22.7c-1.5,0.1-3.2-0.4-5.1-1.6c-1.6-1.1-5.8-4.7-12.6-10.9c-1.4-1.5-2.4-2.1-2.9-1.8
				c-1.1-1.1-2.3-1.2-3.6-0.4l-1.3,0.8c-0.7,0.4-0.9,0.8-0.8,1.2l1.5,2.4c1.4,0.5,2.2,1,2.5,1.5c0.5-0.3,2.6,2.2,6.5,7.6
				c1.2,2,3,5.8,5.4,11.3c3.5,9,5.4,13.6,5.7,14.1l0.1,0.2c0.9,1.4,1.7,2.1,2.6,2.3l1.8-1.1c0.5-0.3,0.7-0.9,0.4-1.8
				c-2.9-8.1-5.5-14.8-7.9-20.1l-0.3-0.5l0.2-0.1c1.1,1.1,2.9,1.9,5.4,2.5c1.6,0.1,3-0.1,4.1-0.5l1.8-1.1c1.8-1.1,3.2-3.6,4.4-7.4
				c0,0,0.9-2.6,2.4-7.8c1.3-5.6,2.1-8.4,2.2-8.6c0.2,0.3,0.5,0.9,0.8,1.8c2.8,7.8,4.2,11.7,4.4,11.9c2,6.1,5.2,12.7,9.5,19.8
				l0.2,0.3c0.2,0.3,0.4,0.3,0.7,0.1l0.2,0.4c0.9,1.5,1.8,2.1,2.4,1.7l1.4-0.9c0.6-0.4,0.6-1.1,0-2.1l-1.5-2.4
				c-1.6-2.6-3.3-6-5-10.1l0.1,0.1c0.6,1,1.4,1.9,2.3,2.8c3,1.8,6,1.8,8.9,0.1l2.3-1.4c2.6-1.6,4.8-5.2,6.5-10.8
				c0.6-3.7,0.9-6.6,0.8-8.9C711.3,277.1,711.2,275.8,711,274.1z M705.3,284.6c-1.3,5.4-3,8.9-4.9,10.6c-1.1,0.5-1.7,0.7-1.8,0.6
				c-1.5,0.2-2.8-0.7-4-2.6c-1.8-4.7-2.4-9.9-1.7-15.5c1.2-5.8,2.7-9.3,4.5-10.3l0.3-0.2c0.8-0.5,1.7-0.8,2.6-0.9
				c1.7,0,2.8,0.5,3.4,1.4c0.7,2.3,1.2,4.1,1.4,5.6C706,275.2,706.1,279,705.3,284.6z"/>
			<path class="st10" d="M783.8,216.9c-1-0.4-1.5-0.6-1.6-0.5l-0.9,0.6c-0.2,0.1-0.6,0.7-1.2,1.9c-0.2,1.1-0.4,2-0.6,2.6
				c-1.3,4.9-2,8.2-2.2,9.9c-1.2,6-1.9,9.5-2.1,10.4c-1.4,4.7-3.4,8.6-6.1,11.7c-0.2,0.1-0.3,0.1-0.4,0c-1.4,0.9-2.9,0.1-4.5-2.4
				c-0.2-0.3-0.2-0.4-0.1-0.5c-0.8-1.3-1-5.3-0.6-11.8l3.4-1.1l2.1-1.3c0.4-0.3,1.1-0.9,2.2-1.9c0.7-0.4,1.8-2,3.1-4.5
				c2.3-3.9,2.8-6.9,1.4-9.2l-0.7-1.1c-0.7-1.2-1.6-1.9-2.4-2.2c-1.9-0.8-4-0.5-6.4,1c-2.4,1.5-4.6,5.2-6.6,11
				c-0.9,4.9-1.3,8.4-1.3,10.6c-0.2,1.3-0.3,2.5-0.3,3.7c-1-0.6-2.1-1-3.4-1.4c-2.9-0.1-5.4,0.3-7.3,1.3l-0.1-0.1
				c1.6-2.3,3.1-4.8,4.6-7.4c2.6-4.2,3.7-6.6,3.2-7.4l-1.1-1.9c-0.7-0.4-1.3-0.3-2,0.1l-1.7,1c-2.1,4-3.8,7.2-5.2,9.7
				c-3.1,5.1-5.8,9.1-7.8,12.1c-1.3,1.2-1.9,1.9-1.8,2.1l1,1.6c0.9,1,1.6,1.4,1.9,1.2l2.1-1.3c2.8-2.3,4.5-3.6,5.2-4l1-0.6
				c1.4-0.9,3.1-1.5,5.2-1.8c2.6,0,4.4,0.5,5.2,1.7c0.8,1.3,1.1,3.1,0.8,5.4c-1.7,5.1-4.2,8.7-7.6,10.8c-2.2,1.3-4.4,1.8-6.6,1.3
				c-0.1-0.2-0.2-0.9-0.2-1.9c0.8-3.2,2.3-5.6,4.3-7.2c0.3-0.2,0.8-0.3,1.5-0.4c1.2,1.4,1.9,2.1,2.2,1.9l1.7-1
				c0.8-0.5,1-1.2,0.4-2.1l-1-1.6c-1.1-1.8-3.1-2.1-6-0.9l-1.4,0.8c-1.7,1-2.9,2-3.7,2.8c-2.5,3.3-3.5,5.7-3.3,7.1
				c-0.2,1.3,0,2.6,0.8,3.7l1.3,2.1c0.2,0.3,0.6,0.6,1.3,0.9c3,1.3,6.9,0.5,11.7-2.4c4.1-2.5,7.3-6.3,9.5-11.3
				c1.1,1,2.7,1.5,4.8,1.5c1.1-0.4,1.7-0.5,1.8-0.4c0.4-0.3,1.4-0.8,3.1-1.7c2.2-1.7,3.4-2.9,3.7-3.6c2.5-4.3,3.7-6.7,3.4-7.1
				c0.6-1.5,0.8-2.3,0.8-2.4c0.9-3.5,1.5-6.8,1.9-9.9c1.9-8.4,2.9-13.3,3-14.7l-0.9-1.5C784,216.8,783.9,216.8,783.8,216.9z
				 M764.5,230.6c1.6-4.8,3.2-8,4.9-9.5c0.7-0.1,1.1,0,1.4,0.4c0.2,0.9,0.2,1.9,0.1,2.9c-1.6,4.5-3.6,7.7-5.9,9.6
				c-0.3,0.2-0.6,0.3-1.1,0.3C764.3,231.9,764.5,230.7,764.5,230.6z"/>
			<path class="st10" d="M732.4,245.3l-1.1-1.8c-0.4-0.2-0.7-0.3-0.9-0.2l-2.9,1.8l-0.6,0.5c1.1,4.7,1.9,10.1,2.5,16.1
				c0.2,2.1,0.1,5.2-0.2,9.3c-0.6,4-1.4,6.5-2.3,7.7c-1,0.1-2.1-0.1-3.3-0.7c-1.2-0.5-2.7-1.9-4.6-4.2c-2.1-3.5-3.5-8.1-4.2-14.1
				c-0.3-2.6,0-4.7,1-6.6l-1.4-2.3c-0.4-0.2-0.7-0.3-0.9-0.2l-3.3,2l-0.6,1.3c-0.4,2.9-0.4,5.1-0.1,6.6c0.5,5.3,2.3,10.4,5.4,15.5
				c0.2,0.3,1.3,2,3.4,4.9c1.2,1,2.5,1.8,3.9,2.6c1.9,1,4.4,0.5,7.6-1.4c3.2-2,4.9-7,5-15.1c0.1-1.1-0.2-5.1-0.8-12.1
				C733.9,251.6,733.3,248.5,732.4,245.3z"/>
			<path class="st10" d="M797.7,308.5c4.1-0.2,6.9-1,8.5-2.5c3.8-3.5,6-8.8,6.5-15.6c0.1-2-0.2-4.3-1-7.1c-1.3-3.9-2.9-6.8-4.6-8.7
				l-1.1-1.1c-0.8-0.8-1.8-1.6-3.1-2.3c-5.1-2.1-9.8-1.2-14.1,2.7c-1.5,2-2.1,3-1.9,3.3c-1.2,2-1.8,6.2-1.9,12.6
				c-1.3-2.1-2.1-3.8-2.3-5.2l-1.2-1.3c-0.8-0.4-1.8-0.1-2.8,0.9l-0.5,0.4c-0.9,0.8-1.2,1.6-1,2.4c0.9,2,2.2,4.6,3.9,7.8
				c0.2,1.9,0.7,4.4,1.4,7.3c0.6,2,0.8,3.1,0.7,3.3c0.7,3,1.1,4.9,1.1,5.7c0,1.5,0.1,2.3,0.3,2.6c-0.1,1.8-0.1,2.8,0,2.9
				c-0.2,1-0.2,1.6,0.1,1.8l-0.2,0.2l-0.1-0.1c-0.6-0.6-1-1.4-1.2-2.4c-0.5-0.8-0.8-1.5-0.9-2.1c-0.2-0.2-1.5-3.4-4-9.6
				c-1-2.2-2.6-6.2-4.6-12.1c-0.1-0.9-0.6-1.8-1.3-2.8c-1-1-2.1-1-3.2,0.1l-0.2,0.2c-0.6,0.6-1,1.2-1.2,2c-0.1,0.1,0.4,1.5,1.5,4.3
				c0.1,0.1-0.3,0.5-1.1,1.2c-4,3.8-6.4,8.4-7,14l-0.5-0.5c-0.1-0.1-0.8,0.2-1.9,0.9l-1.5,1.4c-0.1,0.1-0.1,0.6,0,1.4
				c1.9,7.9,3.1,13.2,3.5,15.8c0.5,1.1,0.8,4,0.7,8.5l-0.1-0.1c-0.1-0.1-0.9-1.9-2.3-5.2c-2.7-7.5-4.5-13.3-5.3-17.3
				c0-2.1-0.5-3.8-1.6-4.9l-0.3-0.4c-0.8-0.9-2.1-0.6-3.6,0.9l-0.9,0.8c-0.5,0.5-0.6,0.9-0.3,1.3c0.4,3.7-0.1,6.9-1.4,9.6
				c-2,0.3-3.4,0-4.1-0.8c-0.6-1-1.4-2-2.4-3l-0.8-0.8c-0.5-0.5-1.1-0.5-1.7,0.2l-2,1.8c-1.1-1.8-2.2-3.5-3.3-5l-0.7-0.8
				c2.9-3.3,12.9-13.4,30-30.5c0.6-0.8,2-2.4,4.3-4.7c0.2-0.1,0.1-0.3-0.1-0.5l1.2-1.1c0.6-1.2,0.6-2.1,0.1-2.6l-0.2-0.2
				c-0.6-0.6-1.1-0.7-1.5-0.3c-0.5-0.3-0.9-0.5-1-0.4l-0.8,0.7c-0.1,0.1-0.4,0.3-1.1,0.6l-6.5,6c-0.5,0.5-0.9,1-1.4,1.7
				c-0.4,0.3-0.8,0.7-1.2,0.9c-25.3,24.9-42.8,42.4-52.5,52.6l-2,1.9l-0.7,0.8c-0.1-0.1-0.8,0.4-2.1,1.6l-0.8,0.7
				c-0.1,0.1-0.1,0.5,0.1,1.2l2.3,2.5c1.4,0.5,2.4,0.6,3,0.5l1.7-1.6c0.1-0.1,0.6-0.7,1.6-1.9l1.3-1.2c0.5-0.5,3.5-3.5,9-9.1
				c0.1-0.1,0.3-0.4,0.4-0.8c2.4-2.3,6.3-6.2,11.7-11.9c0.2-0.1,0.4-0.2,0.6-0.3l0.2,0.2c1.4,2,2.9,4.2,4.5,6.8
				c2.4,4.4,3.9,6.9,4.5,7.6c0.7,2,1.1,3.1,1.3,3.2l0.7,0.8l0.8,2c1.2,1.3,2.5,3.2,3.7,5.8c0.8,1.6,1.4,2.6,1.7,2.9
				c1.2,2.2,2.4,4.2,3.6,5.9l1.5,1.6c0.5,0,0.8,0.1,1,0.4c0.6,0.7,1.4,0.6,2.4-0.4l1-0.9c-0.2-0.8-0.2-1.3-0.2-1.3
				c-0.3-0.7-3.3-6.3-8.9-16.8c-2.8-5-4.2-7.5-4-7.7c-1.3-2.2-1.9-3.4-1.9-3.7l-0.3-0.6c1.4,1.4,2.5,2.4,3.5,2.8
				c2.2,0.8,4.4,0.5,6.6-0.6c1.3-1.4,2.2-2.2,2.5-2.6l0.2-0.2c3.2,10.4,6,16.9,8.3,19.4c1.2,1.1,1.8,1.7,1.9,1.6
				c1.6,0.2,2.8-0.1,3.5-0.8l1.6-1.5c1.4-1.3,1.9-4.3,1.7-9c1.7,1.3,3.4,1.8,5,1.6l2.3-0.9l1.9-1.8c0.9-0.8,1.3-1.3,1.1-1.5
				c1.6-1.5,2.3-5.2,2.3-11.1l0.1-0.1l0.1,0.1c0.1,0.1,0.6,0.8,1.4,2l0.1,0.1c1.4,1.5,3.1,1.7,5.3,0.7l1.7-1.6
				c1.6-1.5,2.1-5.1,1.4-10.7c2.1,4.2,3.7,7.6,4.6,10.4c1.3,4.6,3.6,9.1,6.7,13.7l1.2,1.3c0.1,0.1,0.3,0.1,0.8-0.1
				c0.4-0.4,1.1-0.8,2.2-1.2l1-1c0.4-0.9,0.3-1.8-0.5-2.6c-5.2-10.7-8.7-18.7-10.3-24.1l0.1-0.1L797.7,308.5z M774.8,323.4
				c-0.2,3.1-0.5,4.8-0.8,5.1c0,1.2-0.4,2.2-1.3,3.1c-1.5-0.3-2.4-0.6-2.7-0.8l-0.1-0.1c-0.9-1-1.8-3-2.7-6
				c-0.8-3.1-1.3-5.7-1.3-7.7c0.1-3.5,0.4-6.5,1-9c0.8-2.7,2-5.3,3.8-7.8l0.1-0.1l0.2,0.2c0,0.5,0.1,0.8,0.4,1.1
				c0.7,3,1.2,4.6,1.3,4.8c1.3,4.8,2,8.2,1.9,10.3C774.9,316.7,774.9,319,774.8,323.4z M795.6,302.1l-0.3-0.4
				c-1.7-1.8-2.6-4-2.8-6.5c-0.7-1.3-1.2-3.3-1.4-5.9c0.2-7.4,1.2-11.9,2.9-13.6c0.2-0.2,0.6-0.4,1.2-0.7c2.7-0.8,5.1-0.1,7,1.9
				c2.4,2.6,4,7.2,4.7,13.8c-0.5,4.7-1.7,8.5-3.4,11.2c-1.5,1.2-2.4,1.7-2.6,1.4C800,304.2,798.3,303.7,795.6,302.1z"/>
		</g>
	</g>
</g>
</svg>
