<?xml version="1.0" encoding="utf-8"?>
<!-- Generator: Adobe Illustrator 19.0.0, SVG Export Plug-In . SVG Version: 6.00 Build 0)  -->
<svg version="1.1" id="Layer_1" xmlns="http://www.w3.org/2000/svg" xmlns:xlink="http://www.w3.org/1999/xlink" x="0px" y="0px"
	 width="1400px" height="980px" viewBox="0 0 1400 980" enable-background="new 0 0 1400 980" xml:space="preserve">
<rect id="XMLID_101_" y="0" fill-rule="evenodd" clip-rule="evenodd" fill="#B0D8DD" width="1400" height="441"/>
<rect id="XMLID_97_" y="259" fill-rule="evenodd" clip-rule="evenodd" fill="#4F858F" width="1400" height="280"/>
<rect id="XMLID_100_" y="232.6" fill-rule="evenodd" clip-rule="evenodd" fill="#5B99A5" width="1400" height="26.4"/>
<path id="XMLID_111_" fill-rule="evenodd" clip-rule="evenodd" fill="#2A4D52" d="M356.7,433.1v102.4H98.6V433.1
	c0-71.3,57.8-129,129-129c7.2,0,14.2,0.6,21,1.7C309.9,315.8,356.7,369,356.7,433.1z"/>
<path id="XMLID_109_" fill-rule="evenodd" clip-rule="evenodd" fill="#19363A" d="M356.7,433.1v102.4H140.6V433.1
	c0-64.1,46.8-117.3,108-127.3C309.9,315.8,356.7,369,356.7,433.1z"/>
<rect id="XMLID_95_" y="539" fill-rule="evenodd" clip-rule="evenodd" fill="#66ACBA" width="1400" height="441"/>
<path id="XMLID_96_" fill-rule="evenodd" clip-rule="evenodd" fill="#4F858F" d="M673.9,703.4c8,0.9,16.4,1.5,23.6,5.3
	s12.9,11.6,11.4,19.6c-2,10.7-15.4,15.3-26.2,13.9c-10.8-1.5-21-6.8-31.9-7.3c-9.2-0.4-18.1,2.6-27.3,3.5c-18,1.8-35.7-6.6-53.5-4.8
	c-13.3,1.3-29,5.2-41.6,10c-7.4,2.8-15.8,9.9-12.4,17c-17.3-0.2-34.6-0.3-51.8-0.5c-16.9-0.2-33.9-0.3-50.7,1.9
	c-25.2,3.4-49.5,12.1-74.7,15.5c-33.2,4.4-66.8-0.6-99.9-5.9c-8.1-1.3-16.4-2.7-23.6-6.7c-5.9-3.3-10.6-8.2-15.2-13.1
	c-9.4-10-16.4-20-21.5-32.7c-4.1-10.1-11.2-16.5-19.8-3.5c-4.2,6.3-4.7,14.3-4.4,21.8c0.2,5.5,0.9,11.4,4.3,15.8
	c5.1,6.8,14.6,8.2,23,9.1c51.1,5.2,100.6,11.2,150.6,25.3c18.7,5.3,39.4,13.2,46.7,31.3c-16.2,0.2-31.9-5.3-47.5-9.9
	c-51.3-15.4-103.6-16.1-155.6-26.8c-12.5-2.6-25.4-5.8-35.5-13.7c-15-11.8-21-33.8-14-51.6c4-10.2,11.6-18.5,20.1-25.3
	c33.7-27,76.2-14.8,114.1-6.8c58.2,12.3,118.8,4.5,176.7-8.8c30.1-6.9,60.1-15.3,90.9-16.9c21.3-1.1,41.6,1.8,61.7,8.7
	c16.2,5.6,24.2,17,38.2,25.5C641,700.9,659.1,701.8,673.9,703.4z"/>
<g id="XMLID_19_">
	<rect id="XMLID_2_" x="725.2" y="688.8" fill-rule="evenodd" clip-rule="evenodd" fill="#E7C688" width="544.9" height="47.2"/>
	<path id="XMLID_90_" fill-rule="evenodd" clip-rule="evenodd" fill="#EDE0A8" d="M1270,688.8H725.2l9.3-11.7l0.8-1l7.8-9.8l2.4-3.1
		l9.1-11.4l1.6-2l5.8-7.2l1.4-1.8l4-5l1.9-2.4l2.5-3.2l1.6-2.1l3.2-4l1.7-2.2l4.2-5.2l1.1-1.4l2-2.5l1.5-1.8h440.9l20.4,37.7
		l2.8,5.3c0,0,0,0,0,0l4.5,8.2v0l4,7.4c0,0,0,0,0,0l3.4,6.3l4.9,9c0.3,0.6,0.7,1.2,1,1.8L1270,688.8z"/>
	<path id="XMLID_20_" fill-rule="evenodd" clip-rule="evenodd" fill="#E7C688" d="M768.7,660.4l3.1,27.6c0,0,153.9-7.3,153.9-8.8
		s-8.4-28.5-8.4-28.5L768.7,660.4z"/>
	<path id="XMLID_15_" fill-rule="evenodd" clip-rule="evenodd" fill="#E7C688" d="M952.1,688c14.4,0,20.5,2,26.7-10.8
		c6.1-12.7,24.7-54.4,26.8-59.7c2-5.2-8.4-7.5-8.4-7.5L952.1,688z"/>
	<path id="XMLID_16_" fill-rule="evenodd" clip-rule="evenodd" fill="#E7C688" d="M968.9,684.2c0,0,217-4.8,224.6-5.1
		c7.6-0.3-1-15.2-1-15.2l-20.2-51.9l-173.1,2.5l-2,5.3c0,0,159.4-1.7,165-2.5c5.6-0.8,12.2,26,16.9,40.4c4.7,14.4,4.3,12.5,4.3,12.5
		l-208.1,4.3L968.9,684.2z"/>
	<path id="XMLID_4_" fill-rule="evenodd" clip-rule="evenodd" fill="#D0AC78" d="M1177.9,700.5c5.6,0.4,10.9,1.4,16.2,2.3
		c23.5,4.3,47.6,8.7,66.4,16.9c3.1,1.3,6,2.8,9.3,4v1c-5.1-1.8-10.4-3.4-16.2-4.4c-5.5-0.9-11.6-1.1-16.3-2.7
		c-3.1-1-5.3-2.6-7.9-3.8c-9.1-4.3-23-5.3-34.3-7.5c-12.3-2.4-25.9-4.3-39.4-3.9c-14.8,0.4-28.5,4.1-43.2,4.7
		c-6.4,0.2-13-0.1-19.3,0.4c-7.1,0.6-13.7,2.3-20.6,3.4c-13.9,2-28.8,1.1-43,2.4c-17.7,1.5-34,6.2-52,6.9c-10.5,0.4-21-0.6-31.5-0.3
		c-13.9,0.4-27.4,2.9-41.3,2.4c-7.2-0.3-14.2-1.4-21.4-1.8c-6.7-0.4-13.5-0.3-20.3-0.1c-18.2,0.4-36.8,1.5-55,1.3
		c-15.3-0.2-30.7,1.6-46.1,1.1c-5.6-0.2-11.3-0.7-16.9-0.3c-6.4,0.5-12.1,2.4-18.1,3.6c-0.5,0.1-1.1,0.2-1.6,0.3v-3.2
		c5.4-0.5,10.8-1,16.3-1.4c20.5-1.4,41.3-1.7,62-2.1c17.6-0.3,35.1-0.5,52.7-0.8c9-0.1,18-0.3,27-0.1c8.2,0.2,16.3,0.6,24.4,0.8
		c9.7,0.2,19.5,0,29.2-0.2c13.1-0.3,26.3-0.5,39.4-0.8c3.4-0.1,6.8-0.1,9.9-0.7c3.3-0.5,6.1-1.6,9.1-2.4c11.3-3.4,24.6-5,37.7-4.7
		c43.8,1.1,80.4-7.4,123.9-10C1164,700.4,1171,700,1177.9,700.5L1177.9,700.5z"/>
	<path id="XMLID_5_" fill-rule="evenodd" clip-rule="evenodd" fill="#D0AC78" d="M931.3,712.2c3.8,0,7.7-0.3,11.4-0.8
		c-2.7,0.5-5.4,1.2-8.2,1.6c-12.4,1.6-27.6-1.5-40.4-1.5c-11.7,0-21.8,3-33.2,2.9c-10.9-0.1-21.9-0.3-32.8-0.4
		c-4-0.1-8-0.1-11.9,0.3c-3.4,0.3-6.7,1-10.1,1.3c-14.1,1.3-31.4,2.3-45.7,2.8c-6.3,0.2-12.6-1.8-18.8-0.9c-3.5,0.5-6.6,2-10.3,1.8
		c-2.1-0.1-4-0.8-6-1.2v-1.5c12.7-1.1,25.8-1.5,38.8-1.9c41.3-1.3,82.6-2.5,124-3.8c7.2-0.2,14.4-0.4,21.6,0
		C916.9,711.2,924,712.2,931.3,712.2L931.3,712.2z"/>
	<path id="XMLID_6_" fill-rule="evenodd" clip-rule="evenodd" fill="#D0AC78" d="M1204.2,694.7c4.9,0.8,9.5,2,14.1,3.1
		c17.2,4.3,34.4,8.6,51.6,12.8v3.2c-10-2.5-19.4-6.9-30.6-7.3c-4.5-0.1-9.2,0.4-13.4-0.5c-2.7-0.6-4.8-1.6-7-2.6
		c-9.6-4.3-21.8-7.2-34.6-8.3c-11.1-0.9-22.4-0.4-33.5,0.2c-20.1,1.2-40,2.9-59.8,5.1c-17.6,2-35.3,4.3-53.4,4.5
		c-15.2,0.1-27.8-0.6-40.4,3.6c-10.3,3.4-23.6,3.7-35.9,2.7c-3.8-0.3-7.7-0.7-11.6-0.6c15.9-1.9,31.8-3.7,47.9-5.2
		c31.7-3,63.7-5.2,95.7-7.4c18.6-1.3,37.1-2.6,55.7-3.8C1167.4,692.9,1186.7,691.7,1204.2,694.7L1204.2,694.7z"/>
	<path id="XMLID_7_" fill-rule="evenodd" clip-rule="evenodd" fill="#D0AC78" d="M775.9,691.1h39.7c-3.2,0.3-6.3,0.9-9.5,1.2
		c-14.1,1.3-31.4,2.3-45.7,2.8c-6.3,0.2-12.6-1.8-18.8-0.9c-3.5,0.5-6.6,2-10.3,1.8c-2.1-0.1-4-0.8-6-1.2v-1.5
		c12.7-1.1,25.8-1.5,38.8-1.9C768,691.3,772,691.2,775.9,691.1L775.9,691.1z"/>
	<path id="XMLID_8_" fill-rule="evenodd" clip-rule="evenodd" fill="#D0AC78" d="M1037,691.1h50.2c-11,3.5-34.9,2.1-43.5,2.7
		c-17.1,1.2-34.6,4.9-51.4,7c-34.7,4.4-70.1,7.8-106,8.2c-15.3,0.2-30.6-0.2-45.9-0.6c-23.6-0.6-45.7-0.8-69.1,0.3
		c-14.7,0.7-30.6,2.2-46,2.5v-2.7c13-0.9,25.8-2.5,38.8-3c17.5-0.6,35.8,0.4,53.4,0.6c12.9,0.2,25.8,0.3,38.7,0.2
		c32.2-0.2,64.3-1.7,95.9-4.7c22.7-2.1,45.2-4.9,67.5-8.1C1025.4,692.8,1031.2,691.9,1037,691.1L1037,691.1z"/>
	<path id="XMLID_9_" fill-rule="evenodd" clip-rule="evenodd" fill="#D0AC78" d="M965.3,691.1h16.5c-19.8,3.7-40.3,6.8-61.6,7.1
		c-7.5,0.1-15.1-0.1-22.4,0.6c-3.2,0.3-6.2,0.8-9.4,1.2c-13.6,1.4-27-0.8-40.5-0.1c-12.2,0.7-25,3.4-37.1,1
		c-4.1-0.8-8.2-2.2-12.6-1.9c-3.2,0.2-5.9,1.3-9.1,1.7c-6.6,0.9-13.6-1.1-20.3-0.6c-7.8,0.7-14.2,4.6-21.9,3.8
		c-2.7-0.3-5-1.2-7.4-1.8c-4.4-1.1-9.6-1.2-14.2-0.4v-2.3c8.6-0.1,17.2-0.3,25.9-0.4c3.4-0.1,6.8-0.1,10.2-0.2
		c15.4-0.3,30.9-0.5,46.3-0.3c5.7,0.1,11.4,0.2,17.1,0.3c8.7,0.1,17.5,0,26.3-0.1c28.1-0.3,56.3-0.5,83.8-3.4
		C945.3,694.2,955.4,692.8,965.3,691.1L965.3,691.1z"/>
	<path id="XMLID_10_" fill-rule="evenodd" clip-rule="evenodd" fill="#D0AC78" d="M1231.8,691.1h20c5.9,1.9,11.9,3.6,18.1,5.1v2.2
		c-7.9-1.7-14.6-5.2-22.8-6.2C1242.1,691.6,1236.5,691.8,1231.8,691.1L1231.8,691.1z"/>
	<path id="XMLID_11_" fill-rule="evenodd" clip-rule="evenodd" fill="#D0AC78" d="M1189.3,721c6.5,0.4,13.3,1,18.6,2.9
		c2.6,1,4.7,2.3,7.7,3.1c2.7,0.7,5.7,0.8,8.6,1.2c13.2,1.6,25.8,7.5,38.4,5c0.2,0.2,0.5,0.5,0.8,0.7h-25c-4.1-0.9-8.2-1.7-12.4-2.6
		c-10.5-2.2-21-4.4-32.1-5.6c-10.2-1.2-20.6-1.5-31-1.8c-50.8-1.6-102.1-2.2-152.5,1.4c-16.7,1.2-33.3,2.9-50,3.8
		c-14,0.7-28,0.9-42.1,1.1c-9,0.1-18,0.2-27,0.3c-20.2,0.3-40.5,0.5-60.8-0.1c-7-0.2-14.1-0.5-21-0.1c-9.5,0.6-18.6,2.2-27.9,3.5
		h-56.2v-1.8c5.7-0.8,11.5-1.4,16.8-1.1c4.1,0.3,8.2,1,12.1,0.5c2.9-0.4,5.2-1.4,7.9-2c10-2.3,22.3,1.1,32.6-0.7
		c2.9-0.5,5.6-1.5,8.7-1.7c3-0.2,6.1,0.2,9.1,0.4c18.3,1.2,36.8,0.4,55.1-0.6c20.5-1,41.2-1.1,61.7-0.1c11.3,0.6,22.8,1.4,34,0.4
		c7.5-0.7,14.7-2.3,22-3.3c7.8-1.1,15.9-1.5,23.9-1.9c23.1-1.3,46.2-2.5,69.4-3.1C1115.7,717.9,1152.7,718.6,1189.3,721L1189.3,721z
		"/>
	<path id="XMLID_13_" fill-rule="evenodd" clip-rule="evenodd" fill="#E1C37B" d="M1003.9,659c-29.1-2.8-58.3-4.8-87.2-6.8
		c-16.7-1.2-33.4-2.3-49.9-3.5c-16.4-1.2-33.5-2.2-51.1,0.4c-5,0.7-9.8,1.7-14.7,2.7c-18.1,3.7-36.6,7.5-55.4,11.4l-2.4,3.1
		c11-2.4,22.5-6.3,33-6.6c4.4-0.1,8.6,0.4,13-0.4c2.9-0.5,5.6-1.5,8.2-2.4c11.4-3.9,24.2-6.5,36.5-7.4c10.6-0.8,20.8-0.3,30.8,0.2
		c18.1,1,35.9,2.6,53.5,4.6c15.8,1.8,31.7,4,48.6,4.1c14.1,0.1,25.9-0.5,37.3,3.4c9.3,3.2,21.9,3.4,33.5,2.5
		c3.6-0.3,7.3-0.7,10.9-0.6C1033.5,662.1,1018.7,660.4,1003.9,659z M1268,685.1c-6.1-0.9-11.9-1.5-16.8-1.1
		c-3.8,0.3-7.4,1.1-11.5,0.5c-2.9-0.4-5.7-1.5-8.6-2.1c-10.6-2.3-21.1,1.1-31.8-0.8c-3.1-0.6-6-1.5-9.1-1.7c-3-0.2-5.8,0.2-8.6,0.4
		c-17.3,1.2-35.4,0.3-53.4-0.6c-20-1.1-40-1.1-59.8-0.1c-11,0.6-22.2,1.4-33.2,0.3c-7.3-0.7-14.2-2.3-21.3-3.3
		c-7.5-1.1-15.2-1.5-23-1.9c-22.2-1.3-44.2-2.5-66.5-3.1c-35.4-1-71.7-0.3-108.7,2.1c-6.7,0.4-13.7,1-20,2.9c-3.2,1-6.1,2.4-9.4,3.1
		c-3.1,0.7-6.3,0.9-9.4,1.2c-14.3,1.6-31.5,7.9-42.3,5.2c-0.4,0.3-0.9,0.5-1.4,0.7h25.5c4.8-0.9,9.6-1.8,14.3-2.7
		c12-2.3,23.9-4.5,35.6-5.8c10.8-1.2,21.3-1.5,31.8-1.9c25.3-0.8,50.6-1.3,75.5-1.2c24.8,0.1,49.4,0.9,73.7,2.7
		c16.2,1.2,32.3,2.9,48.7,3.8c13.7,0.8,27.5,0.9,41.3,1.1c8.8,0.1,17.6,0.2,26.4,0.4c19.8,0.3,39.7,0.5,59.2,0
		c6.8-0.2,13.6-0.5,20.4,0c9.4,0.6,19,2.3,28.6,3.6c18.2,0,36.5,0,54.8,0C1268.7,686.3,1268.3,685.7,1268,685.1z M1263.1,676
		c-5.4-0.5-10.8-1-16.1-1.3c-20.1-1.4-39.8-1.7-59.5-2.1c-16.7-0.3-33.4-0.6-50.1-0.8c-8.5-0.1-17.2-0.3-25.7-0.1
		c-7.7,0.1-15.3,0.6-23.1,0.8c-9.3,0.2-18.6,0-27.9-0.2c-12.6-0.3-25.2-0.6-37.7-0.8c-3.2-0.1-6.5-0.1-9.5-0.7
		c-3.1-0.5-5.7-1.5-8.5-2.4c-10.4-3.2-22.7-4.8-35.2-4.5c-41.7,1-73.7-6.9-113.4-9.3c-6.3-0.4-12.7-0.7-19.2-0.3
		c-5.4,0.4-10.9,1.2-16.3,2.1c-24.6,3.9-50.4,8.1-74.3,16c-3.7,1.2-7.4,2.6-11.3,3.7l-0.8,1c6.1-1.7,12.3-3.3,18.4-4.2
		c6.1-0.9,12.1-1.1,17.9-2.7c3.6-1,6.8-2.5,10.2-3.7c11.3-4.1,25.2-5,37.1-7c12.8-2.2,26.5-3.9,39-3.5c13.6,0.4,25.1,3.8,38.8,4.3
		c6,0.2,12.2-0.1,18.1,0.4c6.5,0.6,12.2,2.2,18.6,3.2c12.7,1.9,27,1.1,40.4,2.3c16.6,1.4,31.7,6,48.9,6.7c10,0.4,20.1-0.6,30.2-0.3
		c13.3,0.4,26.5,2.9,39.7,2.4c6.9-0.3,13.4-1.4,20.2-1.8c6.4-0.4,12.9-0.2,19.3-0.1c17.4,0.4,35.4,1.5,52.6,1.3
		c14.6-0.2,29.8,1.6,44.2,1.1c5.3-0.2,10.5-0.7,16-0.3c6.4,0.5,12.7,2.4,19.1,3.6c0.6,0.1,1.1,0.2,1.7,0.3
		C1264.2,678.2,1263.6,677.1,1263.1,676z M1238.8,643.1c-9.9,2.1-23.3-2.8-35.2-4.2c-2.6-0.3-5.3-0.4-7.8-1c-2.8-0.6-5-1.7-7.6-2.5
		c-5.1-1.6-11.2-2-16.8-2.4c-31.9-2-63.6-2.6-95-2c-19.9,0.4-39.8,1.4-59.8,2.3c-7,0.3-14,0.7-21,1.5c-6.6,0.8-13,2-19.7,2.6
		c-10.1,0.8-20.1,0.1-30-0.4c-17.9-0.9-36.2-0.9-54.6-0.1c-16.7,0.7-33.5,1.4-49.3,0.3c-2.6-0.2-5.1-0.6-7.9-0.4
		c-2.9,0.2-5.7,1-8.6,1.4c-10.2,1.5-19.5-1.3-29.7,0.6c-2.8,0.5-5.5,1.4-8.3,1.7c-3.9,0.4-7.2-0.2-10.7-0.4c-3.9-0.3-8.5,0-13.2,0.6
		l-1.4,1.8c16.3,0,32.6,0.1,48.9,0.1c9-1.1,18.1-2.4,26.9-2.9c6.5-0.4,12.7-0.1,18.9,0.1c17.9,0.5,36.2,0.3,54.4,0.2
		c8-0.1,16.1-0.2,24.2-0.2c12.5-0.1,25-0.2,37.6-0.8c15-0.7,29.7-2,44.4-3c21.9-1.4,44-2,66-2c21.9,0,44,0.5,66.1,1.2
		c9,0.3,18.2,0.6,27.3,1.6c9.9,1.1,19.8,2.9,29.6,4.7c3.9,0.7,7.8,1.4,11.7,2.2c7.2,0,14.5,0,21.8,0.1
		C1239.5,643.4,1239.1,643.3,1238.8,643.1z M982.2,610.1c-2.2,0.3-4.4,0.6-6.6,0.9c-6.3,0.8-12.6,1.5-19,2
		c-23.4,1.9-47,2.1-70.5,2.2c-7.4,0-14.7,0.1-22,0c-4.8-0.1-9.5-0.2-14.2-0.3c-12.9-0.2-26-0.1-39.2,0.1c-2.9,0-5.8,0.1-8.7,0.1
		c-6.2,0.1-12.3,0.1-18.4,0.2l-1.1,1.4c3-0.1,5.8,0.1,8,0.7c1.8,0.5,3.3,1.1,5.4,1.3c6.1,0.7,13.5-2.3,20.4-2.7
		c6-0.4,10.9,1.1,16.9,0.5c2.8-0.3,5.6-1.1,8.4-1.2c3.8-0.2,6.7,0.8,9.9,1.4c9.2,1.9,21-0.2,31.5-0.6c11.6-0.5,22.1,1.2,33.8,0.2
		c2.8-0.2,5.5-0.6,8.2-0.8c6.3-0.5,12.5-0.3,18.8-0.4c15.7-0.1,31.2-1.8,46.1-4c1.9-0.3,3.8-0.6,5.6-0.9
		C991.1,610.1,986.6,610.1,982.2,610.1z M1035,611c-2.9,0.4-5.8,0.7-8.7,1.1c-18.4,2.2-37.3,4.2-56.5,5.6c-27,2.1-54.6,3.2-81.9,3.2
		c-11,0-21.9-0.1-32.8-0.3c-14.9-0.2-30.2-1-45.4-0.6c-10.3,0.3-20.9,1.3-31.4,1.9l-1.7,2.2c12.6-0.3,25.8-1.3,37.8-1.7
		c20.5-0.8,39.4-0.5,59.4,0c13,0.3,25.9,0.6,39,0.5c30.7-0.2,61.2-2.7,90.7-5.8c14.1-1.5,28.5-4.1,42.5-4.9
		c6.5-0.4,23.4,0.5,32.8-1.2H1035z M787.1,611l-1.5,1.8c0.4,0.1,0.8,0.1,1.2,0.1c3,0.1,6.3-0.9,9.5-1.3c5.6-0.6,10,0.8,15.3,0.7
		c9.6-0.2,20.8-0.7,31.1-1.4H787.1z M950.4,625.5c-6.3,0-12.1-0.8-18.2-1.1c-6.1-0.3-12.3-0.2-18.5,0c-35.9,0.9-72.1,1.7-108.5,2.6
		c-10.5,0.3-21.1,0.5-31.8,1.2l-1.6,2.1c0.6,0.2,1.3,0.3,2.2,0.3c3.1,0.1,6.6-1,10-1.4c6-0.7,10.4,0.9,16.1,0.7
		c12.8-0.4,28.4-1.2,41.3-2.1c3.1-0.2,6.2-0.7,9.3-1c3.6-0.3,7-0.2,10.4-0.2c9.4,0.1,18.8,0.3,28.2,0.4c9.8,0.1,19.4-2.2,29.4-2.1
		c11,0.1,23.3,2.5,34.3,1.3c2.5-0.3,4.9-0.8,7.3-1.2C957,625.3,953.7,625.5,950.4,625.5z M1241.1,635.4c-3.3-1-6.4-2.1-9.6-3.2
		c-19-6.3-40.4-9.7-61.1-12.9c-4.6-0.7-9.2-1.4-13.9-1.8c-5.7-0.4-11.4-0.1-16.9,0.2c-35.4,1.8-65.2,8-102.3,7.1
		c-11.1-0.3-22.5,1-32.3,3.5c-2.6,0.7-5.2,1.4-8,1.9c-2.8,0.4-5.7,0.5-8.7,0.5c-11.4,0.2-22.8,0.4-34.3,0.6
		c-8.4,0.1-17,0.3-25.4,0.1c-7.1-0.1-14.1-0.5-21.1-0.7c-7.8-0.2-15.7-0.1-23.6,0c-15.5,0.2-31,0.3-46.5,0.5
		c-18.4,0.2-36.9,0.4-55.9,1.5c-4.1,0.2-8.2,0.5-12.3,0.8l-1.9,2.4c5.7-1,11.3-2.3,16.9-2.7c5.2-0.4,9.9,0.1,14.9,0.3
		c13.4,0.4,27.8-1,41.3-0.8c16,0.2,32.8-0.6,48.9-0.9c6-0.1,11.9-0.2,17.7,0.1c6.2,0.4,12,1.3,18.3,1.5c12,0.5,24.4-1.6,36.5-1.8
		c9.1-0.2,18.1,0.6,27.3,0.3c15.6-0.5,29.9-4.1,45-5.2c12.1-0.9,24.8-0.2,36.4-1.7c5.8-0.7,11.2-2,17.1-2.5
		c5.3-0.4,10.8-0.1,16.1-0.3c12.2-0.4,23-3,35.1-3.3c11-0.3,22.6,1.2,33.4,3c10,1.7,21.9,2.5,30.9,5.8c2.7,1,5.1,2.2,8.1,3
		c4.6,1.3,9.8,1.5,14.8,2.2c5.3,0.8,10.5,2.1,15.6,3.5C1241.4,635.9,1241.2,635.6,1241.1,635.4z M773.8,645.9
		c-5.8,1.4-11.7,2.8-17.6,4l-1.6,2c7.7-1.6,15.4-4.2,22.9-5c4.9-0.5,9.9-0.3,14.6-1C786,645.9,779.9,645.9,773.8,645.9z
		 M1259.7,669.7C1259.7,669.7,1259.7,669.7,1259.7,669.7c-12.4-1.1-24.9-1.5-37.1-1.9c-38.9-1.2-77.8-2.4-116.6-3.7
		c-6.7-0.2-13.5-0.4-20.2-0.1c-6.7,0.4-13.3,1.3-20.1,1.3c-3.7,0-7.2-0.3-10.8-0.7c2.6,0.5,5.1,1.1,7.8,1.5
		c11.8,1.5,25.8-1.4,37.8-1.4c10.9,0,20.9,2.9,31.6,2.7c10.2-0.1,20.4-0.3,30.6-0.4c3.7,0,7.4-0.1,11.2,0.3c3.3,0.3,6.5,0.9,9.8,1.2
		c13.7,1.2,30.4,2.3,44,2.8c6,0.2,11-1.7,17.2-0.8c3.6,0.5,7.2,1.9,10.5,1.8c2-0.1,3.4-0.8,5-1.2
		C1260.2,670.7,1259.9,670.2,1259.7,669.7z M1248.3,648.7c-11.8-1-23.6-1.3-35.2-1.7c-3.5-0.1-7-0.2-10.5-0.3
		c-11.7,0-23.4,0-35.1-0.1c2.9,0.3,5.8,0.8,8.7,1.1c12.9,1.1,28.8,2.1,41.6,2.5c5.7,0.2,10.5-1.5,16.4-0.7c3.3,0.4,6.7,1.7,9.9,1.6
		c1.9-0.1,3.2-0.7,4.8-1C1248.8,649.6,1248.5,649.2,1248.3,648.7z M1255.6,662.3L1255.6,662.3c-12.3-0.8-24.8-2.3-36.8-2.8
		c-16.2-0.6-32.7,0.3-48.7,0.4c-11.7,0.1-23.6,0.3-35.4,0.2c-29.7-0.2-59.5-1.7-88.6-4.4c-20.8-1.9-41.2-4.4-61.2-7.2
		c-5.1-0.7-10.2-1.5-15.3-2.2c-15.1,0-30.3-0.1-45.5-0.1c9.2,3.1,31.2,1.8,39,2.4c15.4,1.1,30.8,4.3,46.1,6.3
		c31.8,4,64.8,7.2,98.2,7.6c14.2,0.2,28.3-0.1,42.4-0.5c21.6-0.5,41.8-0.7,63.8,0.4c13.8,0.6,29.1,2.1,43.5,2.4
		C1256.5,663.9,1256,663.1,1255.6,662.3z M1251.2,654C1251.2,654,1251.2,654,1251.2,654c-7.9-0.2-15.7-0.3-23.4-0.4
		c-3.1-0.1-6.2-0.1-9.2-0.2c-14-0.3-28-0.5-41.8-0.3c-5.1,0-10.2,0.2-15.3,0.2c-7.9,0.1-15.8,0-23.7-0.1
		c-25.5-0.3-51.1-0.6-76.2-3.1c-9.3-0.9-18.5-2.2-27.4-3.7c-4.9,0-9.8,0-14.8,0c17.7,3.3,36.3,5.9,55.7,6.3
		c6.9,0.1,13.7-0.1,20.4,0.6c2.9,0.3,5.8,0.8,8.7,1.1c12.6,1.3,24.3-0.7,36.8,0c11.3,0.6,23.6,3.1,33.8,0.9
		c3.5-0.7,6.7-1.9,10.8-1.6c3,0.2,5.8,1.2,8.7,1.5c6.3,0.8,11.9-1,18.1-0.5c7.3,0.6,14.8,4.2,21.3,3.4c2.3-0.3,4-1,6-1.6
		c3.5-0.9,8.1-1,12.6-0.4C1251.9,655.4,1251.5,654.7,1251.2,654z M1235.6,625.2c-15.9-3.2-31.5-6.4-46.9-9.6
		c-4-0.8-8.1-1.7-12.3-2.3c-14.9-2.2-30.1-1.4-44.8-0.5c-14.8,0.9-29.8,1.7-44.9,2.6c-26.2,1.5-52.6,3-79.2,5.2
		c-13.6,1.1-27.3,2.3-41,3.8c3.2-0.1,6.6,0.3,9.7,0.5c10.3,0.8,21.8,0.6,30.7-1.9c10.9-3.1,21.4-2.5,34-2.6
		c15.1-0.1,29.7-1.7,44.1-3.1c16-1.5,32-2.7,48.2-3.5c8.9-0.4,18-0.7,27.1-0.1c10.7,0.8,21.4,2.9,30.6,6.1c2.1,0.7,4.1,1.5,6.6,1.9
		c3.7,0.6,7.4,0.3,11.2,0.4c9.3,0.3,18.8,3.6,28.2,5.6C1236.4,626.8,1236,626,1235.6,625.2z M1229.8,614.6
		c-5.5-1.1-10.9-2.3-16.2-3.6c-0.1,0-0.1,0-0.2-0.1c-5.3,0-10.6,0-15.9-0.1c0.3,0,0.6,0.1,0.9,0.1c3.7,0.4,7.8,0.3,11.6,0.7
		c7,0.7,13.6,3.2,20.7,4.4C1230.4,615.7,1230.1,615.1,1229.8,614.6z"/>
	<polygon id="XMLID_48_" fill-rule="evenodd" clip-rule="evenodd" fill="#727070" points="963.6,666 971.2,666 971.1,666.2 
		963.6,666.2 	"/>
	<path id="XMLID_56_" fill-rule="evenodd" clip-rule="evenodd" fill="#727070" d="M1000.5,607.2h-15.3v-8.6h14
		C1000.5,601.2,1000.8,604.3,1000.5,607.2z"/>
	<path id="XMLID_67_" fill-rule="evenodd" clip-rule="evenodd" fill="#FFFFFF" d="M1000.5,607.2c-0.2,1.8-0.7,3.5-1.4,4.9
		l-27.9,55.3l-0.1,0.2h-34.8l3.5-5.9l33.9-58.2c2.2-3.9,6.5-11.3,11.7-11.3h4.8c0,0,0,0,0.1,0c0,0,0,0,0,0c0,0,0.1,0,0.1,0
		c4.5,0.8,7.4,3.3,8.9,6.4C1000.5,601.2,1000.8,604.3,1000.5,607.2z"/>
	<path id="XMLID_32_" fill-rule="evenodd" clip-rule="evenodd" fill="#D0D0D0" d="M789.7,630.1l-5,6.6c32.7-1,64.6-3.9,97.4,4.5
		c10.7,2.9,21.4,4.5,32.2,7.5l11.5-18.5H789.7z"/>
	<path id="XMLID_61_" fill-rule="evenodd" clip-rule="evenodd" fill="#A6A6A5" d="M784.7,636.7l-16.1,21.1h139.9l5.6-9.1
		c-10.7-2.9-21.4-4.6-32.2-7.5C849.3,632.8,817.4,635.7,784.7,636.7z"/>
	<path id="XMLID_70_" fill-rule="evenodd" clip-rule="evenodd" fill="#979696" d="M968.9,671.2c0,9.3-7.6,16.9-16.9,16.9
		c-9.3,0-16.9-7.6-16.9-16.9c0-5.5,2.7-10.4,6.8-13.5c2-1.5,4.3-2.5,6.8-3c1.1-0.2,2.1-0.3,3.3-0.3c3,0,5.8,0.8,8.3,2.2
		c1.4,0.8,2.6,1.7,3.7,2.8c0.5,0.5,0.9,1,1.3,1.5c1.5,1.9,2.6,4.2,3.1,6.7C968.8,668.7,968.9,669.9,968.9,671.2z"/>
	<path id="XMLID_12_" fill-rule="evenodd" clip-rule="evenodd" fill="#5A5858" d="M965.3,671.2c0,7.1-5.8,13-13,13
		c-7.1,0-13-5.8-13-13c0-4.3,2.1-8,5.2-10.4c1.5-1.1,3.3-1.9,5.2-2.3c0.8-0.2,1.7-0.2,2.5-0.2c2.3,0,4.5,0.6,6.4,1.7
		c1.1,0.6,2,1.3,2.9,2.2c0.4,0.4,0.7,0.8,1,1.2c1.2,1.5,2,3.2,2.4,5.1C965.2,669.3,965.3,670.2,965.3,671.2z"/>
	<path id="XMLID_64_" fill-rule="evenodd" clip-rule="evenodd" fill="#FFFFFF" d="M1189.7,677.1c-0.2,0-0.4,0-0.6,0H951.9
		c-2.1,0-3.9-1-4.8-2.5c-0.4-0.7-0.7-1.5-0.7-2.3c0-0.8,0.2-1.6,0.6-2.2c0.3-0.4,0.6-0.8,1-1.2c1-0.9,2.4-1.4,3.9-1.4h19.2l0.1-0.2
		h206.7c5.9,0,6.4-0.5,4.7-5.7l-0.4-1.2l-14.5-44c-1.7-5.2-1.9-9.3-7.7-9.3h-159.5c0.2-1.4,0.2-2.9,0-4.4c-0.1-0.9-0.3-1.8-0.6-2.6
		c-0.2-0.5-0.4-1.1-0.7-1.6h163.4c6.9,0,11.7,2.7,13.3,7.6l18.5,56.9l1.3,4.1v0l0.1,0.2C1198,674.2,1195.8,677,1189.7,677.1z"/>
	<path id="XMLID_58_" fill-rule="evenodd" clip-rule="evenodd" fill="#D0D0D0" d="M1189.7,677.1c-1.3-0.8-1.7-1.7-0.3-2.5
		c5.2-2.9,4.1-6.1,3.8-8.2c-0.3-2-17.5-53.6-19.5-59.3c-2-5.7-2.7-6.8-9.9-7.1c-6.8-0.3-146.6,0-164,0c-0.2-0.5-0.4-1.1-0.7-1.6
		h163.4c6.9,0,11.7,2.7,13.3,7.6l18.5,56.9l1.3,4.1v0l0.1,0.2C1198,674.2,1195.8,677,1189.7,677.1z"/>
	<path id="XMLID_57_" fill-rule="evenodd" clip-rule="evenodd" fill="#979696" d="M1189.1,677.2H951.9c-2.1,0-3.9-1-4.8-2.5
		c13.8-0.1,239.1-2,245.3-2.3c3.4-0.2,3.7-2.7,3.3-5.2l0.1,0.2C1198,674.4,1195.6,677.2,1189.1,677.2z"/>
	<path id="XMLID_60_" fill-rule="evenodd" clip-rule="evenodd" fill="#D0D0D0" d="M1179.8,669.6c-8.5,0.1-219.7,0.5-232.8,0.5
		c0.3-0.4,0.6-0.8,1-1.2c1-0.9,2.4-1.4,3.9-1.4h19.2l0.1-0.2h206.7c5.9,0,6.4-0.5,4.7-5.7l-0.4-1.2c2.2,0,3.3,0.1,3.3,0.1
		C1188.3,667.7,1188.6,669.6,1179.8,669.6z"/>
	<path id="XMLID_29_" fill-rule="evenodd" clip-rule="evenodd" fill="#979696" d="M1177.8,667.4c5.9,0,6.4-0.5,4.7-5.7l-14.9-45.2
		c-1.7-5.2-1.9-9.3-7.7-9.3h-159.5c0.2-1.4,0.2-2.9,0-4.4c11.9-0.7,150.7,0.8,159.3,0.1c9-0.7,8.1,2.6,11.4,12.2s14.6,45.9,15.7,50
		C1188,669.1,1177.8,667.4,1177.8,667.4z"/>
	<path id="XMLID_3_" fill-rule="evenodd" clip-rule="evenodd" fill="#979696" d="M1180.9,645.9c0,0,3.9-2.6,6-1
		c2,1.5,2.7,3.6,2.7,3.6l-3.2-8.7h-9.5L1180.9,645.9z"/>
	<path id="XMLID_66_" fill-rule="evenodd" clip-rule="evenodd" fill="#979696" d="M1000.5,607.2c-0.2,1.8-0.7,3.5-1.4,4.9
		l-27.9,55.3l-0.1,0.2h-2.5c-0.2-1.1-0.6-2.1-1-3.1c-0.8-1.9-2-3.6-3.4-5c7.5-13.8,24.4-44.7,30.3-56c1.2-2.3,1.4-5,0.3-7.3
		c-1.4-3-3.8-3.8-4.4-3.9c3.7,0.7,6.3,2.5,7.9,4.8c0.4,0.5,0.7,1.1,1,1.6C1000.5,601.2,1000.8,604.3,1000.5,607.2z"/>
	<path id="XMLID_34_" fill-rule="evenodd" clip-rule="evenodd" fill="#6D6D6C" d="M1000.5,607.2c-0.2,1.8-0.7,3.5-1.4,4.9
		l-27.9,55.3l-0.1,0.2h-2.5c-0.2-1.1-0.6-2.1-1-3.1c8-14.9,26-48.6,29.2-55.8c2.2-4.9,2.1-8.9,1.5-11.6c0.4,0.5,0.7,1.1,1,1.6
		C1000.5,601.2,1000.8,604.3,1000.5,607.2z"/>
	<path id="XMLID_69_" fill-rule="evenodd" clip-rule="evenodd" fill="#D0D0D0" d="M990.2,592.1c-3.6,0-7.5,4.3-13.8,15.1
		c-4.9,8.3-20.6,35.4-27.6,47.4c-2.5,0.5-4.8,1.6-6.8,3l31.6-54.2c2.2-3.9,6.5-11.3,11.7-11.3h4.8c0,0,0,0,0.1,0
		C990.1,592.1,990.1,592.1,990.2,592.1C990.2,592.1,990.2,592.1,990.2,592.1z"/>
	<path id="XMLID_68_" fill-rule="evenodd" clip-rule="evenodd" fill="#979696" d="M996.7,602.9l-31.3,58c-0.4-0.5-0.8-1-1.3-1.5
		c-1.1-1.1-2.3-2.1-3.7-2.8c6.3-11.2,20.8-37.3,26.7-47.7c7.6-13.5,5.4-16,5.4-16C999.1,596.1,996.7,602.9,996.7,602.9z"/>
	<path id="XMLID_14_" fill-rule="evenodd" clip-rule="evenodd" fill="#6D6D6C" d="M978.6,643.6c0,0-2.6-6.7-12.5-7.2
		c-9.8-0.5-13.8,3.6-13.8,3.6l4.3-7.5l27.4,1.6L978.6,643.6z"/>
	<path id="XMLID_17_" fill-rule="evenodd" clip-rule="evenodd" fill="#E7C688" d="M984.9,648.5c2.5,0.3,195.1,5.4,195.1,5.4l1.4,4.3
		l-199.5-3.9L984.9,648.5z"/>
	<path id="XMLID_18_" fill-rule="evenodd" clip-rule="evenodd" fill="#E7C688" d="M1191.2,653.3c-0.1-0.3,14.2,0.6,14.2,0.6l2.9,1.8
		l-2.9,6.3c0,0-1.9-4.5-5.6-4.9c-3.7-0.4-7.3,0-7.3,0L1191.2,653.3z"/>
	<path id="XMLID_63_" fill-rule="evenodd" clip-rule="evenodd" fill="#A99366" d="M1226,659.8c0,1.8-1.5,3.5-3.8,4.6c0,0,0,0,0,0
		c-0.8,0.4-1.8,0.7-2.8,0.9c-1,0.2-2.1,0.4-3.3,0.4c-0.1,0-0.3,0-0.4,0c-0.5,0-1,0-1.4-0.1c0,0,0,0,0,0c-0.4,0-0.8-0.1-1.3-0.1
		c-4.4-0.7-7.6-3-7.6-5.7c0-2,1.8-3.8,4.5-4.9c0.9-0.4,2-0.7,3.1-0.8c0.9-0.1,1.8-0.2,2.8-0.2c0.1,0,0.2,0,0.3,0
		c1,0,1.9,0.1,2.8,0.3C1223,654.9,1226,657.2,1226,659.8z"/>
	<g id="XMLID_1_">
		<path id="XMLID_80_" fill-rule="evenodd" clip-rule="evenodd" fill="#FFFFFF" d="M1222.2,664.4c-0.8,0.4-1.8,0.7-2.8,0.9
			c-1,0.2-2.1,0.4-3.3,0.4c-0.1,0-0.3,0-0.4,0c-0.5,0-1,0-1.4-0.1c0,0,0,0,0,0c-0.4-0.1-0.7-0.3-1.1-0.5l-3.4-10.2l-2.5-7.6
			c-1.1-3.5-2.2-5.6-6.8-5.7l-281-8.5v-9.3l0.8,0l282.8,8.5c5.4,0.2,9,1.6,10.6,6.4l5.1,15.5L1222.2,664.4z"/>
		<path id="XMLID_74_" fill-rule="evenodd" clip-rule="evenodd" fill="#D0D0D0" d="M1222.2,664.4c-0.8,0.4-1.8,0.7-2.8,0.9
			c-0.8-2.7-2.2-7.2-3.4-11.4c-1.3-4.3-2.6-8.4-2.9-9.8c-1.2-4.4-2-8.7-7.7-9.3c-12-1.4-285.8-9.4-285.8-9.4l0.8-1.6l282.8,8.5
			c5.4,0.2,9,1.6,10.6,6.4l5.1,15.5L1222.2,664.4z"/>
		<path id="XMLID_73_" fill-rule="evenodd" clip-rule="evenodd" fill="#979696" d="M1216.1,665.7c-0.1,0-0.3,0-0.4,0
			c-0.5,0-1,0-1.4-0.1c0,0,0,0,0,0c-0.4-0.1-0.7-0.3-1.1-0.5l-3.4-10.2l-2.5-7.6c-1.1-3.5-2.2-5.6-6.8-5.7l-281-8.5v-3.7
			c39.7,1.1,270.3,8.2,279,8.4c9.5,0.3,10,1.9,11.9,8c0.5,1.6,1.4,4.8,2.5,8.3C1214.1,658.3,1215.4,663,1216.1,665.7z"/>
	</g>
	<path id="XMLID_59_" fill-rule="evenodd" clip-rule="evenodd" fill="#979696" d="M1222.2,664.4
		C1222.2,664.4,1222.2,664.4,1222.2,664.4c-0.8,0.4-1.8,0.7-2.8,0.9c-1,0.2-2.1,0.4-3.3,0.4c-0.1,0-0.3,0-0.4,0c-0.5,0-1,0-1.4-0.1
		c0,0,0,0,0,0c-0.4,0-0.8-0.1-1.3-0.1l-1-4.1l0.1,0.3c0,0,5.2,2.5,8.9-1.2c0.8,2.5,0.8,2.5,0.8,2.5L1222.2,664.4z"/>
	<path id="XMLID_33_" fill-rule="evenodd" clip-rule="evenodd" fill="#777776" d="M908.6,657.8H768.7v2.7l140-0.3l7.3-12
		c-0.3-0.3-0.5-0.6-0.8-0.9L908.6,657.8z"/>
	<path id="XMLID_72_" fill-rule="evenodd" clip-rule="evenodd" fill="#979696" d="M925.7,630.1l-10.6,17.1c0.3,0.3,0.6,0.6,0.8,0.9
		l9.7-16.1V630.1z"/>
	<g id="XMLID_47_">
		<path id="XMLID_35_" fill-rule="evenodd" clip-rule="evenodd" fill="#FDC85F" d="M767.4,579.2l152.1-4.4l-2.2,75.9l-87.6,0.4
			c0.8-1.6,1.2-3.4,1.2-5.3c-0.3-6-5.4-10.6-11.5-10.3c-6.1,0.3-10.9,5.3-10.6,11.3c0.1,1.6,0.5,3.1,1.2,4.4l-43.1,0.2l0.2-22
			c6.4-0.9,11.1-6.7,10.8-13.5c-0.3-6.3-4.8-11.4-10.6-12.4L767.4,579.2z"/>
		<path id="XMLID_37_" fill-rule="evenodd" clip-rule="evenodd" fill="#D0881E" d="M767.4,579.2l5.5-0.2l-0.2,27.2
			c-1.6-1.3-3.5-2.1-5.6-2.5L767.4,579.2z M767,629.5c2.1-0.3,4-1.2,5.7-2.4l-0.1,24.3l-5.4,0.1L767,629.5z"/>
		<polygon id="XMLID_39_" fill-rule="evenodd" clip-rule="evenodd" fill="#FFEF75" points="767.4,579.2 813,534 919.5,574.8 		"/>
		<path id="XMLID_40_" fill-rule="evenodd" clip-rule="evenodd" fill="#DA9C38" d="M832.7,555.9c3.1-0.1,5.6-1.8,5.5-3.8
			c-0.1-1.9-2.7-3.4-5.8-3.3c-3.1,0.1-5.6,1.8-5.5,3.8C826.9,554.6,829.6,556,832.7,555.9L832.7,555.9z"/>
		<path id="XMLID_41_" fill-rule="evenodd" clip-rule="evenodd" fill="#DA9C38" d="M878,564.5c-0.1-3-3-4.1-6.7-3.9
			c-3.7,0.1-6.8,1.5-6.7,4.4c0.1,3,3.2,2.7,6.9,2.5C871.5,567.5,878.1,567.5,878,564.5z"/>
		<path id="XMLID_42_" fill-rule="evenodd" clip-rule="evenodd" fill="#DA9C38" d="M805.2,568.7c5.1-0.2,9.1-2.3,9-4.5
			c-0.1-2.3-4.3-4-9.4-3.7c-5.1,0.2-9.1,2.3-9,4.5C795.9,567.3,800.1,569,805.2,568.7L805.2,568.7z"/>
		<path id="XMLID_43_" fill-rule="evenodd" clip-rule="evenodd" fill="#DA9C38" d="M818.2,608.4c0.2-2.7-4.9-4.5-10.6-4.5
			c-10.2,0-10.3,2.7-10.1,5.4c0.1,2.7,4.9,4.8,10.6,4.5C808,613.9,817.8,613.9,818.2,608.4z"/>
		<path id="XMLID_44_" fill-rule="evenodd" clip-rule="evenodd" fill="#DA9C38" d="M897.9,599.7c4-0.2,7.1-2.7,7-5.6
			c-0.1-2.9-3.5-5.1-7.5-4.9c-4,0.2-7.1,2.7-7,5.6C890.5,597.7,893.9,599.9,897.9,599.7L897.9,599.7z"/>
		<path id="XMLID_45_" fill-rule="evenodd" clip-rule="evenodd" fill="#DA9C38" d="M868.4,635.7c4.5-0.2,7.9-4,7.7-8.4
			c-0.2-4.5-4-7.9-8.4-7.7c-4.5,0.2-7.9,4-7.7,8.4C860.2,632.4,864,635.9,868.4,635.7L868.4,635.7z"/>
		<polygon id="XMLID_46_" fill-rule="evenodd" clip-rule="evenodd" fill="#E19B2E" points="813,534 816.8,535.3 772.9,579 
			767.4,579.2 		"/>
	</g>
</g>
<g id="XMLID_93_">
	<g id="XMLID_92_">
		<path id="XMLID_89_" fill-rule="evenodd" clip-rule="evenodd" fill="#73533C" d="M490.2,688.8c3.2,5.3,21.6,11.4,21.6,11.4
			s15.2-8.5,19.4,4.8l-5.8,0.6c0,0,13.1,5.5,11.1,19c0,0-10.6-11.9-17.3-9.3c0,0,9.5,9.2,3.7,18.6c0,0-15.5-15.1-19.4-17
			c-3.9-1.8-53.9-23.3-59-28C444.4,688.9,469.6,655,490.2,688.8L490.2,688.8z"/>
		<path id="XMLID_88_" fill-rule="evenodd" clip-rule="evenodd" fill="#593E2E" d="M165.4,625.1c0,0-101.6,41.8-68.6,104.4
			c33.1,62.6,209.7,37.7,273.3,85.7c0,0,11.4-13-59.7-33.3s-205.4-23.2-192-80.1c11.4-48.3,71.2-48.3,71.2-48.3
			S192.8,610.5,165.4,625.1L165.4,625.1z"/>
		<path id="XMLID_87_" fill-rule="evenodd" clip-rule="evenodd" fill="#73533C" d="M165.4,625.1c0,0-101.6,41.8-68.6,104.4
			c31,58.6,187.8,40.5,259.9,77.4c-5.3-5.8-19.9-14.5-57.5-25.3c-71.2-20.3-205.4-23.2-192-80.1c11.4-48.3,71.2-48.3,71.2-48.3
			s1.8-23.9-8.7-30C168.3,623.6,166.9,624.2,165.4,625.1L165.4,625.1z"/>
		<path id="XMLID_86_" fill-rule="evenodd" clip-rule="evenodd" fill="#593E2E" d="M557.6,577.9c11.1-1.9,23.2-8.3,28.7-18.3
			c5.6-10.2,3.2-20.1-0.6-30.2c-2.3-6.2-13.4-30.5-24.2-25.7c2.9-1.3,5.8-2.6,8.7-3.9c-6.2-1.1-12.6-1.4-18.9-0.8
			c2.8-1.6,5.4-3.5,7.6-5.7c-16.3,3.1-43.1,10.4-51.2,26.9c-1.4,2.8-6.1,30.8-0.4,31.5C507.6,551.6,536.2,554.6,557.6,577.9z"/>
		<path id="XMLID_85_" fill-rule="evenodd" clip-rule="evenodd" fill="#F39A9D" d="M557.6,577.9c0,0,26.2-7.9,21.7-37.2
			c-4-26-31.8-34.1-49.6-23.9c-17.7,10.2-11.6,34.8-11.6,34.8S539.5,558.2,557.6,577.9L557.6,577.9z"/>
		<path id="XMLID_84_" fill-rule="evenodd" clip-rule="evenodd" fill="#F7C1C6" d="M558.6,577.6c4.8-1.8,24.6-11,20.7-36.9
			c-1-6.5-3.5-11.9-7-16.2c-10.3-5.5-23.2-5.5-33,0.1c-13.2,7.6-13.2,23.1-12.3,30.6c6.6,3.2,16,8.7,25.2,17.2
			C554.3,574,556.4,575.7,558.6,577.6L558.6,577.6z"/>
		<path id="XMLID_83_" fill-rule="evenodd" clip-rule="evenodd" fill="#73533C" d="M441.3,563.2c12.9-12.5,46.1-25.3,62.2-14.4
			c-4.3-2.9-8.5-5.8-12.8-8.7c8.9-0.2,17.8,1.4,26.1,4.7c-1.5-2.7-3.7-4.9-6.5-6.4c6.2,2.1,12.5,4.3,17.7,8.4
			c3.1,2.4,5.7,5.5,8.2,8.5c20,23.6,42.2,47.2,64.2,69.1c18.4,18.3,42.4,36.4,69.8,27.7c0,0,19.1,14,8.9,22.9
			c-10.2,8.9-89,34.3-133.5,16.5c0,0-94.1,26.7-146.2,12.7c-2-0.5-8.7,3.6-10.6,4.3c-9.1,3.5-18.5,6.5-27.9,9.2
			c-27.4,7.8-56.2,12.9-84.7,11.5c-32.6-1.6-64.7-13-85.4-39.3c-31.2-39.7-31.7-98.6-11.8-143.4c-2.4,1.5-4.9,3.1-7.3,4.6
			C177.3,541,185,532,194.2,525c-4.7,1.5-9.3,3.1-14,4.6c8.2-7,17.2-13.2,26.6-18.3c-4.1,0.7-8.3,1.4-12.4,2.2
			c41.7-18,91.6-28.1,136.3-18.3C374,504.6,413.8,528.5,441.3,563.2z"/>
		<path id="XMLID_82_" fill-rule="evenodd" clip-rule="evenodd" fill="#593E2E" d="M679.4,661.6c0.1,0.2-34,13.1-36.8,13.9
			c-16.6,4.8-33.8,7.8-51.1,7.8c-8.9,0-17.8-0.7-26.6-2.4c-8.2-1.6-17.6-7-25.5-7.4c-18.9-1-35.8,7.6-55.8,2.8
			c3.2,1.8,6.4,3.6,9.6,5.5c-11.2-0.9-22.2-3.4-32.6-7.4c1.8,4.5,4.9,8.5,9,11.2c-11.7,0.6-23.5,1.1-35.1-0.6
			c-11.4-1.7-33.5-7.6-37.5-20.4c0,0.2-24.8,5.6-26.2,5.9c-18.9,3.6-36.6,5.4-55.4-0.6c1.9,1.1,3.5,2.6,4.7,4.5
			c-9.6-0.1-19.2-1.6-28.3-4.4c1.3,4.4,5.2,7.9,9.7,8.7c-26.3,0-57.5-3.1-82.1-12.9c-17.7-7-52.8-27.1-54.8-49.3
			c0.5,5.4,1.2,10.9,2.3,16.6c30.5,161.4,232.6,71.2,232.6,71.2c52.1,14,146.2-12.7,146.2-12.7c44.5,17.8,123.3-7.6,133.5-16.5
			C683.7,671,682.3,666,679.4,661.6z"/>
		<path id="XMLID_81_" fill-rule="evenodd" clip-rule="evenodd" fill="#593E2E" d="M482.3,556.8c1.4,0.2-10.4-42.5-12.2-45.7
			c-14.4-26.2-52.8-34.7-78.9-21c3.3,0.3,6.5,0.5,9.8,0.8c-10.4,5.2-20.2,11.9-28.8,19.7c3.7-1.3,7.3-2.6,11-3.8
			c-17.5,16.5-15.1,44.4-1.3,61.9c6.9,8.8,16.2,16,26.5,20.3c3.6,1.5,28.2,9,30.4,2.9C438.8,591.9,453.1,553,482.3,556.8z"/>
		<path id="XMLID_79_" fill-rule="evenodd" clip-rule="evenodd" fill="#F39A9D" d="M476.3,557c0,0-9.6-75-63.7-45.4
			c-51.4,28.1-3.4,79.2,32.8,68.5C445.4,580.1,454.2,562.6,476.3,557L476.3,557z"/>
		<path id="XMLID_78_" fill-rule="evenodd" clip-rule="evenodd" fill="#F7C1C6" d="M475.8,554c-2.5-13.7-15.7-68.4-63.2-42.4
			c-0.2,0.1-0.4,0.2-0.6,0.4c-30.8,27,5.3,65.8,37.3,62.4c3.2-3.9,8.3-9.1,15.8-13C468,558.7,471.5,556.1,475.8,554L475.8,554z"/>
		<path id="XMLID_77_" fill-rule="evenodd" clip-rule="evenodd" fill="#241A16" d="M499.8,615.1c0,5.5,3.9,10,8.6,10
			c4.8,0,8.7-4.5,8.7-10c0-5.5-3.9-10-8.7-10S499.8,609.6,499.8,615.1L499.8,615.1z"/>
		<path id="XMLID_76_" fill-rule="evenodd" clip-rule="evenodd" fill="#241A16" d="M540.3,615.1c0,5.5,3.7,10,8.3,10
			c4.6,0,8.3-4.5,8.3-10c0-5.5-3.7-10-8.3-10C544,605.1,540.3,609.6,540.3,615.1L540.3,615.1z"/>
		<path id="XMLID_75_" fill-rule="evenodd" clip-rule="evenodd" fill="#73533C" d="M420.6,676.7c0,0-12.7,28-11,33.9
			c1.7,5.9,23.7,5.9,23.7,5.9s12.8-11.9,20,0l-5.5,2c0,0,14,2.2,15.3,15.8c0,0-13.1-9-19.1-4.9c0,0,11.4,6.6,8.1,17.2
			c0,0-18.7-11-22.9-11.9c-4.2-0.9-57.9-9.8-64-13.2c-6.1-3.3-16.1-38.9-16.1-39.8C348.9,665.6,402.4,647.1,420.6,676.7L420.6,676.7
			z"/>
		<path id="XMLID_31_" fill-rule="evenodd" clip-rule="evenodd" fill="#73533C" d="M196.8,638.6c0-10.7,105.1,19.9,63.6,43.2
			c-6.1,7.4-27.2,26.1-12.2,34.7c11.4,6.5,27.5,10.8,40.6,9c0,0,20.8-3,21.2,9.7c0,0-8.9-1.7-12.3,0c0,0,12.7,3.8,12.3,13.6
			c0,0-13.1-2.1-18.6-2.1c0,0,3.8,7.2,0.9,11.4c0,0-13.6-15.3-21.2-18.2c-6.3-2.4-25.3-5.4-33.1-7.4c-5.8,1-52.9,5.3-53.3-34.6
			C184.5,697.9,196.8,649.3,196.8,638.6z"/>
		<path id="XMLID_30_" fill-rule="evenodd" clip-rule="evenodd" fill="#241A16" d="M661.1,657.3c2.3,15.5,16,26.4,30.5,24.2
			c14.5-2.2,24.4-16.5,22.1-32c-2.3-15.5-16-26.3-30.5-24.2C668.7,627.5,658.8,641.8,661.1,657.3L661.1,657.3z"/>
		<path id="XMLID_22_" fill-rule="evenodd" clip-rule="evenodd" fill="#241A16" d="M634.8,662.6c0,0-24.1-21.1-61.2-9.2
			C573.6,653.4,615.7,655.2,634.8,662.6L634.8,662.6z"/>
		<path id="XMLID_21_" fill-rule="evenodd" clip-rule="evenodd" fill="#241A16" d="M634.8,670.7c0,0-47.5-8.6-64.7,14.1
			C570.1,684.8,602.4,669.3,634.8,670.7L634.8,670.7z"/>
	</g>
	<path id="XMLID_91_" fill-rule="evenodd" clip-rule="evenodd" fill="#FFFFFF" d="M508.2,611.9c0,1.8,1.3,3.2,2.8,3.2
		c1.5,0,2.8-1.4,2.8-3.2c0-1.8-1.3-3.2-2.8-3.2S508.2,610.1,508.2,611.9L508.2,611.9z"/>
	<path id="XMLID_94_" fill-rule="evenodd" clip-rule="evenodd" fill="#FFFFFF" d="M548.2,611.5c0,1.8,1.3,3.2,2.8,3.2
		c1.5,0,2.8-1.4,2.8-3.2c0-1.8-1.3-3.2-2.8-3.2C549.5,608.2,548.2,609.7,548.2,611.5L548.2,611.5z"/>
</g>
<polygon id="XMLID_98_" fill-rule="evenodd" clip-rule="evenodd" fill="#4F858F" points="725.2,736.1 733.3,774.4 1298.3,774.4 
	1270,704 1270,736.1 "/>
<path id="XMLID_110_" fill-rule="evenodd" clip-rule="evenodd" fill="#E3E3E3" d="M1155.9,290.8H940c-3.6,0-6.5,2.9-6.5,6.5v203.3
	c0,0.3,0,0.6,0.1,0.9c55.4-12.7,110.1-22.8,152.4-58.5C1129.8,406.2,1151.8,347.6,1155.9,290.8z"/>
<path id="XMLID_116_" fill-rule="evenodd" clip-rule="evenodd" fill="#D4D4D4" d="M1163.3,297.3v203.3c0,3.6-2.9,6.5-6.5,6.5H940
	c-3.3,0-6-2.4-6.4-5.6c17.2-3.9,34.3-7.6,51-11.9c37.2-9.5,72.2-22,101.4-46.6c28.3-23.8,47.6-56.8,58.7-92.5
	c6.1-19.4,9.8-39.7,11.2-59.7h0.9C1160.4,290.8,1163.3,293.8,1163.3,297.3z"/>
<path id="XMLID_102_" fill-rule="evenodd" clip-rule="evenodd" fill="#416F77" d="M1159.9,291.6l11.4,7.2v208.7
	c0,3.8-3.1,6.9-6.9,6.9H936.3l-2.2-11.2l222.4,4c3.8,0,6.9-3.1,6.9-6.9L1159.9,291.6z"/>
<path id="XMLID_106_" fill-rule="evenodd" clip-rule="evenodd" fill="#EFEEEE" d="M1122.9,308.3h-149c-12,0-21.8,9.8-21.8,21.8
	v137.7c0,12,9.8,21.8,21.8,21.8h10.7h138.3c12,0,21.8-9.8,21.8-21.8V350.5v-20.4C1144.7,318.1,1134.9,308.3,1122.9,308.3z"/>
<circle id="XMLID_103_" fill-rule="evenodd" clip-rule="evenodd" fill="none" stroke="#A6A6A5" stroke-width="3" stroke-miterlimit="10" cx="1048.4" cy="396.7" r="56.3"/>
<g id="XMLID_104_">
	<rect id="XMLID_99_" x="1041" y="366.3" fill-rule="evenodd" clip-rule="evenodd" fill="#A6A6A5" width="14.9" height="21.3"/>
	<rect id="XMLID_105_" x="1019.3" y="409.3" fill-rule="evenodd" clip-rule="evenodd" fill="#A6A6A5" width="12.4" height="17.7"/>
	<rect id="XMLID_107_" x="1065.1" y="409.3" fill-rule="evenodd" clip-rule="evenodd" fill="#A6A6A5" width="12.4" height="17.7"/>
</g>
</svg>
